<svg xmlns="http://www.w3.org/2000/svg" width="108" height="108" viewBox="0 0 108 108">
  <g id="Grupo_60148" data-name="Grupo 60148" transform="translate(-327 -817)">
    <g id="Elipse_4058" data-name="Elipse 4058" transform="translate(327 817)" fill="#472ea6" stroke="#707070" stroke-width="1">
      <circle cx="54" cy="54" r="54" stroke="none"/>
      <circle cx="54" cy="54" r="53.5" fill="none"/>
    </g>
    <g id="Grupo_59796" data-name="Grupo 59796" transform="translate(-1658.29 -277.443)">
      <path id="Trazado_126083" data-name="Trazado 126083" d="M2045.977,1137.827l22.359,33.687,44.418-56.557L2066.99,1151.4Z" transform="translate(-29.444 -2.222)" fill="#fff"/>
      <path id="Trazado_126084" data-name="Trazado 126084" d="M2072.146,1133.882l-4.752,6.05a28.913,28.913,0,0,1-28,36.088c-.114,0-.227,0-.341,0q-.428-.005-.854-.022a28.9,28.9,0,1,1,21.212-49.7l5.058-4.028a35.226,35.226,0,1,0,7.674,11.619Z" fill="#fff"/>
    </g>
  </g>
</svg>
