<svg xmlns="http://www.w3.org/2000/svg" width="1030" height="665" viewBox="0 0 1030 665">
  <g id="Grupo_58967" data-name="Grupo 58967" transform="translate(-180 -1439)">
    <rect id="Rectángulo_5141" data-name="Rectángulo 5141" width="190" height="86" rx="18" transform="translate(180 1717)" fill="#fd8f25"/>
    <text id="INVESTIGACIÓN_DE_MERCADOS_" data-name="INVESTIGACIÓN DE MERCADOS " transform="translate(199 1732)" fill="#fff" font-size="18" font-family="Roboto-Black, Roboto" font-weight="800"><tspan x="8.54" y="19">INVESTIGACIÓN </tspan><tspan x="14.406" y="44">DE MERCADOS </tspan></text>
    <text id="Explicado_por" data-name="Explicado por" transform="translate(419 1746)" fill="#12263f" font-size="16" font-family="Roboto-Regular, Roboto"><tspan x="0" y="17">Explicado por</tspan></text>
    <text id="SU_ORDENACIÓN" data-name="SU ORDENACIÓN" transform="translate(320 1953)" fill="#12263f" font-size="16" font-family="Roboto-Regular, Roboto"><tspan x="0" y="17">SU ORDENACIÓN</tspan></text>
    <text id="De_acuerdo_con" data-name="De acuerdo con" transform="translate(837 1513)" fill="#12263f" font-size="16" font-family="Roboto-Regular, Roboto"><tspan x="0" y="17">De acuerdo con</tspan></text>
    <text id="Tales_como" data-name="Tales como" transform="translate(837 1767)" fill="#12263f" font-size="16" font-family="Roboto-Regular, Roboto"><tspan x="0" y="17">Tales como</tspan></text>
    <text id="De_acuerdo_con-2" data-name="De acuerdo con" transform="translate(837 2011)" fill="#12263f" font-size="16" font-family="Roboto-Regular, Roboto"><tspan x="0" y="17">De acuerdo con</tspan></text>
    <rect id="Rectángulo_5142" data-name="Rectángulo 5142" width="190" height="75" rx="23" transform="translate(600 1439)" fill="#bbabf5"/>
    <rect id="Rectángulo_5148" data-name="Rectángulo 5148" width="190" height="75" rx="23" transform="translate(1020 1444)" fill="#bbabf5"/>
    <rect id="Rectángulo_5149" data-name="Rectángulo 5149" width="190" height="75" rx="23" transform="translate(1020 1549)" fill="#bbabf5"/>
    <rect id="Rectángulo_5150" data-name="Rectángulo 5150" width="190" height="75" rx="23" transform="translate(1020 1683)" fill="#bbabf5"/>
    <rect id="Rectángulo_5151" data-name="Rectángulo 5151" width="190" height="75" rx="23" transform="translate(1020 1789)" fill="#bbabf5"/>
    <rect id="Rectángulo_5152" data-name="Rectángulo 5152" width="190" height="75" rx="23" transform="translate(1020 1984)" fill="#bbabf5"/>
    <rect id="Rectángulo_5143" data-name="Rectángulo 5143" width="190" height="75" rx="24" transform="translate(600 1549)" fill="#bbabf5"/>
    <rect id="Rectángulo_5144" data-name="Rectángulo 5144" width="190" height="75" rx="27" transform="translate(600 1679)" fill="#bbabf5"/>
    <rect id="Rectángulo_5145" data-name="Rectángulo 5145" width="190" height="75" rx="21" transform="translate(600 1787)" fill="#bbabf5"/>
    <rect id="Rectángulo_5146" data-name="Rectángulo 5146" width="190" height="75" rx="22" transform="translate(600 1929)" fill="#bbabf5"/>
    <rect id="Rectángulo_5147" data-name="Rectángulo 5147" width="190" height="75" rx="25" transform="translate(600 2029)" fill="#bbabf5"/>
    <text id="SU_iMPORTANCIA_" data-name="SU iMPORTANCIA
" transform="translate(638 1463)" fill="#12263f" font-size="16" font-family="Roboto-Regular, Roboto"><tspan x="0" y="17">su importancia</tspan></text>
    <text id="SUS_FINALIDADES" data-name="SUS FINALIDADES" transform="translate(1058 1468)" fill="#12263f" font-size="16" font-family="Roboto-Regular, Roboto"><tspan x="0" y="17">sus finalidades</tspan></text>
    <text id="SU_IMPORTANCIA" data-name="SU IMPORTANCIA" transform="translate(1058 1573)" fill="#12263f" font-size="16" font-family="Roboto-Regular, Roboto"><tspan x="0" y="17">su importancia</tspan></text>
    <text id="LOS_INTERNOS" data-name="LOS INTERNOS" transform="translate(1058 1707)" fill="#12263f" font-size="16" font-family="Roboto-Regular, Roboto"><tspan x="0" y="17">los internos</tspan></text>
    <text id="LOS_EXTERNOS" data-name="LOS EXTERNOS" transform="translate(1058 1813)" fill="#12263f" font-size="16" font-family="Roboto-Regular, Roboto"><tspan x="0" y="17">los externos</tspan></text>
    <text id="SU_LOGRO" data-name="SU LOGRO" transform="translate(1058 2008)" fill="#12263f" font-size="16" font-family="Roboto-Regular, Roboto"><tspan x="0" y="17">su logro</tspan></text>
    <text id="SU_DEFINICION" data-name="SU DEFINICION" transform="translate(652 1573)" fill="#12263f" font-size="16" font-family="Roboto-Regular, Roboto"><tspan x="0" y="17">su definicion</tspan></text>
    <text id="SUS_OBJETIVOS" data-name="SUS OBJETIVOS" transform="translate(638 1703)" fill="#12263f" font-size="16" font-family="Roboto-Regular, Roboto"><tspan x="0" y="17">sus objetivos</tspan></text>
    <text id="SUS_FACTORES_CONDICIONANTES" data-name="SUS FACTORES CONDICIONANTES" transform="translate(627 1799)" fill="#12263f" font-size="16" font-family="Roboto-Regular, Roboto"><tspan x="24.875" y="17">sus factores </tspan><tspan x="14.535" y="41">condicionantes</tspan></text>
    <text id="SU_CICLO" data-name="SU CICLO" transform="translate(626 1953)" fill="#12263f" font-size="16" font-family="Roboto-Regular, Roboto"><tspan x="41.664" y="17">su ciclo</tspan></text>
    <text id="SU_ORGANIZACIÓN_Y_ALCANCE" data-name="SU ORGANIZACIÓN Y ALCANCE" transform="translate(626 2041)" fill="#12263f" font-size="16" font-family="Roboto-Regular, Roboto"><tspan x="6.832" y="17">su organización y </tspan><tspan x="41.328" y="41">alcance</tspan></text>
    <path id="Trazado_100469" data-name="Trazado 100469" d="M-9781-10223.5h-50.808v586.554H-9781" transform="translate(10381 11700)" fill="none" stroke="#707070" stroke-width="1"/>
    <line id="Línea_137" data-name="Línea 137" x2="51" transform="translate(549.5 1966)" fill="none" stroke="#707070" stroke-width="1"/>
    <line id="Línea_138" data-name="Línea 138" x2="51" transform="translate(549 1826.5)" fill="none" stroke="#707070" stroke-width="1"/>
    <line id="Línea_139" data-name="Línea 139" x2="51" transform="translate(549 1716.5)" fill="none" stroke="#707070" stroke-width="1"/>
    <line id="Línea_140" data-name="Línea 140" x2="51" transform="translate(549 1588.5)" fill="none" stroke="#707070" stroke-width="1"/>
    <line id="Línea_141" data-name="Línea 141" x2="21" transform="translate(529 1758)" fill="none" stroke="#707070" stroke-width="1"/>
    <path id="Trazado_124659" data-name="Trazado 124659" d="M-9591-10221.5h32.084v112H-9591" transform="translate(10381 11700)" fill="none" stroke="#707070" stroke-width="1"/>
    <path id="Trazado_124662" data-name="Trazado 124662" d="M-9558.916-10221.5H-9591v112h32.084" transform="translate(10578.916 11700)" fill="none" stroke="#707070" stroke-width="1"/>
    <path id="Trazado_124663" data-name="Trazado 124663" d="M-9558.916-10221.5H-9591v112h32.084" transform="translate(10578.916 11938)" fill="none" stroke="#707070" stroke-width="1"/>
    <path id="Trazado_124660" data-name="Trazado 124660" d="M-9591-10221.5h32.084v112H-9591" transform="translate(10381 11939)" fill="none" stroke="#707070" stroke-width="1"/>
    <path id="Trazado_124661" data-name="Trazado 124661" d="M-9591-10221.5h32.084v112H-9591" transform="translate(10381 12186.5)" fill="none" stroke="#707070" stroke-width="1"/>
    <line id="Línea_149" data-name="Línea 149" x2="61.5" transform="translate(958.5 2021.5)" fill="none" stroke="#707070" stroke-width="1"/>
    <line id="Línea_150" data-name="Línea 150" x2="61.5" transform="translate(926.416 1779.5)" fill="none" stroke="#707070" stroke-width="1"/>
    <line id="Línea_151" data-name="Línea 151" x2="34.416" transform="translate(953.5 1524.5)" fill="none" stroke="#707070" stroke-width="1"/>
  </g>
</svg>
