<?xml version="1.0" encoding="utf-8"?>
<!-- Generator: Adobe Illustrator 25.4.2, SVG Export Plug-In . SVG Version: 6.00 Build 0)  -->
<svg version="1.1" id="Capa_1" xmlns="http://www.w3.org/2000/svg" xmlns:xlink="http://www.w3.org/1999/xlink" x="0px" y="0px"
	 viewBox="0 0 553.2 469" style="enable-background:new 0 0 553.2 469;" xml:space="preserve">
<style type="text/css">
	.st0{fill:#BBABF5;}
	.st1{fill:none;stroke:#FFFFFF;stroke-width:4;}
	.st2{fill:#FD8F25;}
	.st3{fill:#FFFFFF;}
	.st4{fill:none;stroke:#4733A3;}
	.st5{fill:#7EB9C7;}
	.st6{fill:#3D4451;}
	.st7{fill:#C7DDEB;}
	.st8{fill:#F04F4C;}
	.st9{clip-path:url(#SVGID_00000139277946209462237890000000325446091248015232_);}
	.st10{fill:none;}
	.st11{clip-path:url(#SVGID_00000147197152668968513930000002218922099740826556_);}
	.st12{clip-path:url(#SVGID_00000179630454742906806180000015949200451676588440_);}
	.st13{clip-path:url(#SVGID_00000074431023372693485020000007902755753780368568_);}
	.st14{fill:#FDC345;}
	.st15{enable-background:new    ;}
	.st16{fill:#12263F;}
</style>
<g id="Grupo_59938" transform="translate(-819.594 -480.105)">
	<g transform="matrix(1, 0, 0, 1, 819.59, 480.11)">
		<g id="Elipse_4147-2" transform="translate(195.13 6)">
			<ellipse class="st0" cx="77.6" cy="77.9" rx="77.6" ry="77.9"/>
			<ellipse class="st1" cx="77.6" cy="77.9" rx="75.6" ry="75.9"/>
		</g>
	</g>
	<g transform="matrix(1, 0, 0, 1, 819.59, 480.11)">
		<g id="Elipse_4148-2" transform="translate(193.83 189.14)">
			<ellipse class="st2" cx="77.6" cy="77.9" rx="77.6" ry="77.9"/>
			<ellipse class="st1" cx="77.6" cy="77.9" rx="75.6" ry="75.9"/>
		</g>
	</g>
	<g transform="matrix(1, 0, 0, 1, 819.59, 480.11)">
		<g id="Elipse_4149-2" transform="translate(9 60.32)">
			<ellipse class="st0" cx="77.6" cy="77.9" rx="77.6" ry="77.9"/>
			<ellipse class="st1" cx="77.6" cy="77.9" rx="75.6" ry="75.9"/>
		</g>
	</g>
	<g transform="matrix(1, 0, 0, 1, 819.59, 480.11)">
		<g id="Elipse_4150-2" transform="translate(389.14 60.32)">
			<ellipse class="st0" cx="77.6" cy="77.9" rx="77.6" ry="77.9"/>
			<ellipse class="st1" cx="77.6" cy="77.9" rx="75.6" ry="75.9"/>
		</g>
	</g>
	<g transform="matrix(1, 0, 0, 1, 819.59, 480.11)">
		<g id="Elipse_4151-2" transform="translate(368.91 301.17)">
			<ellipse class="st0" cx="77.6" cy="77.9" rx="77.6" ry="77.9"/>
			<ellipse class="st1" cx="77.6" cy="77.9" rx="75.6" ry="75.9"/>
		</g>
	</g>
	<g transform="matrix(1, 0, 0, 1, 819.59, 480.11)">
		<g id="Elipse_4152-2" transform="translate(34.17 301.17)">
			<ellipse class="st0" cx="77.6" cy="77.9" rx="77.6" ry="77.9"/>
			<ellipse class="st1" cx="77.6" cy="77.9" rx="75.6" ry="75.9"/>
		</g>
	</g>
	<g id="Elipse_4153" transform="translate(1060.986 503.235)">
		<circle class="st3" cx="33.6" cy="33.6" r="33.6"/>
		<circle class="st4" cx="33.6" cy="33.6" r="33.1"/>
	</g>
	<g id="Elipse_4154" transform="translate(1058.629 686.378)">
		<circle class="st3" cx="33.6" cy="33.6" r="33.6"/>
		<circle class="st4" cx="33.6" cy="33.6" r="33.1"/>
	</g>
	<g id="Elipse_4155" transform="translate(873.802 557.602)">
		<circle class="st3" cx="33.6" cy="33.6" r="33.6"/>
		<circle class="st4" cx="33.6" cy="33.6" r="33.1"/>
	</g>
	<g id="Elipse_4156" transform="translate(1255 557.602)">
		<circle class="st3" cx="33.6" cy="33.6" r="33.6"/>
		<circle class="st4" cx="33.6" cy="33.6" r="33.1"/>
	</g>
	<g id="Elipse_4157" transform="translate(1234.772 796.183)">
		<circle class="st3" cx="33.6" cy="33.6" r="33.6"/>
		<circle class="st4" cx="33.6" cy="33.6" r="33.1"/>
	</g>
	<g id="Elipse_4158" transform="translate(897.674 798.455)">
		<circle class="st3" cx="33.6" cy="33.6" r="33.6"/>
		<circle class="st4" cx="33.6" cy="33.6" r="33.1"/>
	</g>
	<g id="Grupo_59928" transform="translate(1060.766 698.978)">
		<rect id="Rectángulo_4700" x="25" y="5.7" class="st5" width="16.5" height="3.6"/>
		<path id="Trazado_36344" class="st6" d="M42,9.8H24.4V5.1H42V9.8z M25.5,8.7h15.3V6.2H25.5V8.7z"/>
		<g id="Grupo_17591" transform="translate(0 0)">
			<path id="Trazado_36337" class="st7" d="M51.8,43.7c0,2.6-1.6,4.9-3.6,4.9H26.6c-2,0-3.8-2.3-3.8-4.9V8.8c0-2.6,1.7-4.7,3.8-4.7
				h21.6c2,0,3.6,2,3.6,4.7V43.7z"/>
			<path id="Trazado_36338" class="st6" d="M44.4,45.6H22.7c-2.5,0-4.5-2.6-4.5-5.6V5.4c0-3,2-5.4,4.5-5.4h21.7
				c2.5,0,4.4,2.4,4.4,5.4V40C48.8,43.1,46.8,45.6,44.4,45.6 M22.7,1.5c-1.7,0-3,1.7-3,3.9V40c0,2.2,1.4,4.2,3,4.2h21.7
				c1.6,0,2.9-1.9,2.9-4.2V5.4c0-2.2-1.3-3.9-2.9-3.9H22.7z"/>
			<path id="Trazado_36339" class="st8" d="M35.9,38.3c0.2,1.5-0.9,2.8-2.4,3s-2.8-0.9-3-2.4c-0.2-1.5,0.9-2.8,2.4-3
				c0.1,0,0.2,0,0.3,0C34.6,35.8,35.8,36.9,35.9,38.3"/>
			<path id="Trazado_36340" class="st6" d="M33.2,41.4c-1.7-0.1-3-1.6-2.8-3.3c0.1-1.7,1.6-3,3.3-2.8c1.6,0.1,2.8,1.5,2.8,3.1
				C36.5,40.1,35,41.4,33.2,41.4 M33.2,36.6c-1,0.1-1.6,1-1.5,2c0.1,1,1,1.6,2,1.5c0.9-0.1,1.5-0.9,1.5-1.7
				C35.2,37.3,34.3,36.5,33.2,36.6"/>
			<rect id="Rectángulo_4695" x="23.9" y="0.7" class="st6" width="1.5" height="44.1"/>
			<rect id="Rectángulo_4696" x="40.7" y="0.7" class="st6" width="1.5" height="44.1"/>
			<rect id="Rectángulo_4697" x="25" y="28.1" class="st5" width="16.5" height="3.6"/>
			<path id="Trazado_36341" class="st6" d="M42,32.3H24.4v-4.7H42V32.3z M25.5,31.1h15.3v-2.4H25.5L25.5,31.1z"/>
			<rect id="Rectángulo_4698" x="25" y="20.8" class="st5" width="16.5" height="3.6"/>
			<path id="Trazado_36342" class="st6" d="M42,24.9H24.4v-4.7H42V24.9z M25.5,23.8h15.3v-2.4H25.5L25.5,23.8z"/>
			<rect id="Rectángulo_4699" x="25" y="12.9" class="st5" width="16.5" height="3.6"/>
			<path id="Trazado_36343" class="st6" d="M42,17H24.4v-4.7H42V17z M25.5,15.9h15.3v-2.4H25.5L25.5,15.9z"/>
			<path id="Trazado_36355" class="st7" d="M15.2,14.8c0-0.9-0.8-1.6-1.7-1.7c-0.2,0-0.5,0.1-0.7,0.2c-0.6-1.9-2.6-3-4.5-2.5
				c-1.6,0.4-2.6,1.9-2.6,3.5c0,0.2,0,0.3,0,0.5h0c-1.3-0.1-2.6,0.8-2.7,2.2s0.8,2.6,2.2,2.7c0.2,0,0.4,0,0.5,0h9
				c1.4,0.1,2.6-1,2.7-2.4C17.4,15.9,16.4,14.9,15.2,14.8"/>
			<path id="Trazado_36356" class="st6" d="M14.6,20.1h-11c-1.9,0.1-3.5-1.4-3.6-3.3c0.1-1.8,1.5-3.2,3.3-3.3c0-0.1,0-0.2,0-0.3
				c0-2.6,2.1-4.7,4.7-4.7c2,0,3.8,1.2,4.4,3.1c0.2-0.1,0.4-0.1,0.7-0.1c1.2,0,2.2,0.9,2.3,2.1c1.5,0.3,2.7,1.6,2.7,3.2
				C18.1,18.7,16.5,20.2,14.6,20.1 M3.6,14.1c-1.6-0.1-2.9,1.1-3,2.7c0.1,1.6,1.4,2.7,3,2.7h11c1.6,0.1,2.9-1.1,3-2.7
				c-0.1-1.4-1.1-2.5-2.5-2.6l-0.3,0l0-0.3c0-0.9-0.8-1.7-1.7-1.7c-0.3,0-0.5,0.1-0.7,0.2l-0.3,0.2L12,12.1C11.4,10,9.1,8.7,6.9,9.3
				c-1.8,0.5-3,2.1-3,4c0,0.2,0,0.3,0,0.5l0,0.3L3.6,14.1z"/>
			<path id="Trazado_36358" class="st6" d="M9.1,18.1H7.8c-0.3,0-0.5-0.2-0.5-0.5V16H6.1l1.3-1.4l1.1-1.3l1.1,1.3l1.3,1.4H9.5v1.7
				C9.5,17.9,9.3,18.1,9.1,18.1 M7.8,17.6h1.3v-2.1h0.7l-0.6-0.7L8.4,14l-0.7,0.9l-0.6,0.7h0.7V17.6z"/>
		</g>
	</g>
	<g id="Grupo_59929" transform="translate(889.572 571.463)">
		<path id="Trazado_36359" class="st7" d="M33.8,23.8H2.2V3h31.6V23.8z"/>
		<rect id="Rectángulo_4714" x="4.8" y="28.8" class="st7" width="28.7" height="5.5"/>
		<path id="Trazado_36360" class="st6" d="M32.8,33.8H3v-6.6h29.8V33.8z M4.1,32.8h27.6v-4.5H4.1L4.1,32.8z"/>
		<path id="Trazado_36361" class="st6" d="M1.1,1.1h33.6v21.8H1.1V1.1z M0,23.9h35.7V0H0V23.9z"/>
		<path id="Trazado_36362" class="st6" d="M1.1,25.6h33.6v9.5H1.1V25.6z M0,36.2h35.7V24.5H0V36.2z"/>
		<rect id="Rectángulo_4715" x="2.6" y="3.4" class="st5" width="29.9" height="16.4"/>
		<path id="Trazado_36363" class="st6" d="M32.7,20.1H2.3v-17h30.5V20.1z M2.9,19.5h29.3V3.7H2.9V19.5z"/>
		<rect id="Rectángulo_4716" x="3.4" y="29.9" class="st6" width="26" height="1.1"/>
		<rect id="Rectángulo_4717" x="6.4" y="27.7" class="st6" width="1.1" height="5.9"/>
		<rect id="Rectángulo_4718" x="10" y="27.7" class="st6" width="1.1" height="5.9"/>
		<rect id="Rectángulo_4719" x="13.8" y="27.7" class="st6" width="0.7" height="3.1"/>
		<rect id="Rectángulo_4720" x="17.4" y="27.7" class="st6" width="0.7" height="3.1"/>
		<rect id="Rectángulo_4721" x="21" y="27.7" class="st6" width="1.1" height="5.9"/>
		<rect id="Rectángulo_4722" x="24.6" y="27.7" class="st6" width="1.1" height="5.9"/>
		<rect id="Rectángulo_4723" x="28.3" y="27.7" class="st6" width="1.1" height="2.9"/>
		<rect id="Rectángulo_4724" x="28.6" y="20.8" class="st6" width="3.6" height="0.9"/>
	</g>
	<g id="Grupo_59930" transform="translate(1270.769 570.885)">
		<path id="Trazado_36359-2" class="st7" d="M33.8,23.8H2.2V3h31.6V23.8z"/>
		<rect id="Rectángulo_4714-2" x="4.8" y="28.8" class="st7" width="28.7" height="5.5"/>
		<path id="Trazado_36360-2" class="st6" d="M32.8,33.8H3v-6.6h29.8V33.8z M4.1,32.8h27.6v-4.5H4.1L4.1,32.8z"/>
		<path id="Trazado_36361-2" class="st6" d="M1.1,1.1h33.6v21.8H1.1V1.1z M0,23.9h35.7V0H0V23.9z"/>
		<path id="Trazado_36362-2" class="st6" d="M1.1,25.6h33.6v9.5H1.1V25.6z M0,36.2h35.7V24.5H0V36.2z"/>
		<rect id="Rectángulo_4715-2" x="2.6" y="3.4" class="st5" width="29.9" height="16.4"/>
		<path id="Trazado_36363-2" class="st6" d="M32.7,20.1H2.3v-17h30.5V20.1z M2.9,19.5h29.3V3.7H2.9V19.5z"/>
		<rect id="Rectángulo_4716-2" x="3.4" y="29.9" class="st6" width="26" height="1.1"/>
		<rect id="Rectángulo_4717-2" x="6.4" y="27.7" class="st6" width="1.1" height="5.9"/>
		<rect id="Rectángulo_4718-2" x="10" y="27.7" class="st6" width="1.1" height="5.9"/>
		<rect id="Rectángulo_4719-2" x="13.8" y="27.7" class="st6" width="0.7" height="3.1"/>
		<rect id="Rectángulo_4720-2" x="17.4" y="27.7" class="st6" width="0.7" height="3.1"/>
		<rect id="Rectángulo_4721-2" x="21" y="27.7" class="st6" width="1.1" height="5.9"/>
		<rect id="Rectángulo_4722-2" x="24.6" y="27.7" class="st6" width="1.1" height="5.9"/>
		<rect id="Rectángulo_4723-2" x="28.3" y="27.7" class="st6" width="1.1" height="2.9"/>
		<rect id="Rectángulo_4724-2" x="28.6" y="20.8" class="st6" width="3.6" height="0.9"/>
	</g>
	<g id="Grupo_59931" transform="translate(1250.542 809.467)">
		<path id="Trazado_36359-3" class="st7" d="M33.8,23.8H2.2V3h31.6V23.8z"/>
		<rect id="Rectángulo_4714-3" x="4.8" y="28.8" class="st7" width="28.7" height="5.5"/>
		<path id="Trazado_36360-3" class="st6" d="M32.8,33.8H3v-6.6h29.8V33.8z M4.1,32.8h27.6v-4.5H4.1L4.1,32.8z"/>
		<path id="Trazado_36361-3" class="st6" d="M1.1,1.1h33.6v21.8H1.1V1.1z M0,23.9h35.7V0H0V23.9z"/>
		<path id="Trazado_36362-3" class="st6" d="M1.1,25.6h33.6v9.5H1.1V25.6z M0,36.2h35.7V24.5H0V36.2z"/>
		<rect id="Rectángulo_4715-3" x="2.6" y="3.4" class="st5" width="29.9" height="16.4"/>
		<path id="Trazado_36363-3" class="st6" d="M32.7,20.1H2.3v-17h30.5V20.1z M2.9,19.5h29.3V3.7H2.9V19.5z"/>
		<rect id="Rectángulo_4716-3" x="3.4" y="29.9" class="st6" width="26" height="1.1"/>
		<rect id="Rectángulo_4717-3" x="6.4" y="27.7" class="st6" width="1.1" height="5.9"/>
		<rect id="Rectángulo_4718-3" x="10" y="27.7" class="st6" width="1.1" height="5.9"/>
		<rect id="Rectángulo_4719-3" x="13.8" y="27.7" class="st6" width="0.7" height="3.1"/>
		<rect id="Rectángulo_4720-3" x="17.4" y="27.7" class="st6" width="0.7" height="3.1"/>
		<rect id="Rectángulo_4721-3" x="21" y="27.7" class="st6" width="1.1" height="5.9"/>
		<rect id="Rectángulo_4722-3" x="24.6" y="27.7" class="st6" width="1.1" height="5.9"/>
		<rect id="Rectángulo_4723-3" x="28.3" y="27.7" class="st6" width="1.1" height="2.9"/>
		<rect id="Rectángulo_4724-3" x="28.6" y="20.8" class="st6" width="3.6" height="0.9"/>
	</g>
	<g id="Grupo_59932" transform="translate(913.444 811.739)">
		<path id="Trazado_36359-4" class="st7" d="M33.8,23.8H2.2V3h31.6V23.8z"/>
		<rect id="Rectángulo_4714-4" x="4.8" y="28.8" class="st7" width="28.7" height="5.5"/>
		<path id="Trazado_36360-4" class="st6" d="M32.8,33.8H3v-6.6h29.8V33.8z M4.1,32.8h27.6v-4.5H4.1L4.1,32.8z"/>
		<path id="Trazado_36361-4" class="st6" d="M1.1,1.1h33.6v21.8H1.1V1.1z M0,23.9h35.7V0H0V23.9z"/>
		<path id="Trazado_36362-4" class="st6" d="M1.1,25.6h33.6v9.5H1.1V25.6z M0,36.2h35.7V24.5H0V36.2z"/>
		<rect id="Rectángulo_4715-4" x="2.6" y="3.4" class="st5" width="29.9" height="16.4"/>
		<path id="Trazado_36363-4" class="st6" d="M32.7,20.1H2.3v-17h30.5V20.1z M2.9,19.5h29.3V3.7H2.9V19.5z"/>
		<rect id="Rectángulo_4716-4" x="3.4" y="29.9" class="st6" width="26" height="1.1"/>
		<rect id="Rectángulo_4717-4" x="6.4" y="27.7" class="st6" width="1.1" height="5.9"/>
		<rect id="Rectángulo_4718-4" x="10" y="27.7" class="st6" width="1.1" height="5.9"/>
		<rect id="Rectángulo_4719-4" x="13.8" y="27.7" class="st6" width="0.7" height="3.1"/>
		<rect id="Rectángulo_4720-4" x="17.4" y="27.7" class="st6" width="0.7" height="3.1"/>
		<rect id="Rectángulo_4721-4" x="21" y="27.7" class="st6" width="1.1" height="5.9"/>
		<rect id="Rectángulo_4722-4" x="24.6" y="27.7" class="st6" width="1.1" height="5.9"/>
		<rect id="Rectángulo_4723-4" x="28.3" y="27.7" class="st6" width="1.1" height="2.9"/>
		<rect id="Rectángulo_4724-4" x="28.6" y="20.8" class="st6" width="3.6" height="0.9"/>
	</g>
	<g id="Grupo_59933" transform="translate(898.898 578.807)">
		<g>
			<defs>
				<rect id="SVGID_1_" x="0" y="0" width="17.2" height="7.8"/>
			</defs>
			<clipPath id="SVGID_00000070809247087009103860000007754733844062376596_">
				<use xlink:href="#SVGID_1_"  style="overflow:visible;"/>
			</clipPath>
			<g id="Grupo_17597" style="clip-path:url(#SVGID_00000070809247087009103860000007754733844062376596_);">
				<path id="Trazado_36364" class="st8" d="M9.5,5.1c0-0.4,0.3-0.8,0.8-0.8c0.4,0,0.8,0.3,0.8,0.8s-0.3,0.8-0.8,0.8l0,0
					C9.9,5.9,9.5,5.5,9.5,5.1"/>
				<path id="Trazado_36365" class="st6" d="M10.3,6.1c-0.5,0-0.9-0.4-0.9-0.9s0.4-0.9,0.9-0.9s0.9,0.4,0.9,0.9l0,0
					C11.2,5.6,10.8,6.1,10.3,6.1 M10.3,4.5c-0.3,0-0.6,0.3-0.6,0.6s0.3,0.6,0.6,0.6c0.3,0,0.6-0.3,0.6-0.6
					C10.9,4.8,10.6,4.5,10.3,4.5"/>
				<path id="Trazado_36366" class="st8" d="M4.8,2.6c0-0.6,0.5-1.1,1.1-1.1C6.5,1.4,7,1.9,7,2.6c0,0.6-0.5,1.1-1.1,1.1l0,0
					C5.3,3.7,4.8,3.2,4.8,2.6"/>
				<path id="Trazado_36367" class="st6" d="M5.9,3.9c-0.8,0-1.4-0.6-1.4-1.4c0-0.8,0.6-1.4,1.4-1.4c0.8,0,1.4,0.6,1.4,1.4
					c0,0,0,0,0,0C7.3,3.3,6.7,3.9,5.9,3.9 M5.9,1.7C5.4,1.7,5,2.1,5,2.6s0.4,0.9,0.9,0.9S6.8,3,6.8,2.6C6.8,2.1,6.4,1.7,5.9,1.7"/>
				<path id="Trazado_36368" class="st8" d="M14.7,1.4c0-0.6,0.5-1.1,1.1-1.1S17,0.7,17,1.4s-0.5,1.1-1.1,1.1l0,0
					C15.2,2.5,14.7,2,14.7,1.4"/>
				<path id="Trazado_36369" class="st6" d="M15.9,2.7c-0.8,0-1.4-0.6-1.4-1.4S15.1,0,15.9,0c0.8,0,1.4,0.6,1.4,1.4c0,0,0,0,0,0
					C17.2,2.1,16.6,2.7,15.9,2.7 M15.9,0.5c-0.5,0-0.9,0.4-0.9,0.9s0.4,0.9,0.9,0.9s0.9-0.4,0.9-0.9C16.7,0.9,16.3,0.5,15.9,0.5"/>
				<line id="Línea_1" class="st10" x1="1.9" y1="5.9" x2="5" y2="3.2"/>
				
					<rect id="Rectángulo_4725" x="1.4" y="4.3" transform="matrix(0.7619 -0.6477 0.6477 0.7619 -2.1248 3.3188)" class="st6" width="4.1" height="0.5"/>
				<line id="Línea_2" class="st10" x1="7" y1="3.1" x2="9.6" y2="4.8"/>
				
					<rect id="Rectángulo_4726" x="8" y="2.4" transform="matrix(0.5609 -0.8279 0.8279 0.5609 0.3665 8.5935)" class="st6" width="0.5" height="3.1"/>
				<line id="Línea_3" class="st10" x1="10.9" y1="4.8" x2="14.9" y2="2"/>
				
					<rect id="Rectángulo_4727" x="10.5" y="3.1" transform="matrix(0.8236 -0.5672 0.5672 0.8236 0.3526 7.9186)" class="st6" width="4.8" height="0.6"/>
				<path id="Trazado_36370" class="st8" d="M0.2,6.5c0-0.6,0.5-1.1,1.1-1.1c0.6,0,1.1,0.5,1.1,1.1c0,0.6-0.5,1.1-1.1,1.1
					C0.7,7.6,0.2,7.1,0.2,6.5L0.2,6.5"/>
				<path id="Trazado_36371" class="st6" d="M1.4,7.8C0.6,7.8,0,7.2,0,6.5c0-0.8,0.6-1.4,1.4-1.4s1.4,0.6,1.4,1.4l0,0
					C2.7,7.2,2.1,7.8,1.4,7.8 M1.4,5.6C0.9,5.6,0.5,6,0.5,6.5s0.4,0.9,0.9,0.9S2.2,7,2.2,6.5l0,0C2.2,6,1.8,5.6,1.4,5.6"/>
			</g>
		</g>
	</g>
	<g id="Grupo_59934" transform="translate(1280.095 578.229)">
		<g>
			<defs>
				<rect id="SVGID_00000020393353494887428950000012604923503545136818_" x="0" y="0" width="17.2" height="7.8"/>
			</defs>
			<clipPath id="SVGID_00000145761403517397630000000001443981753216695473_">
				<use xlink:href="#SVGID_00000020393353494887428950000012604923503545136818_"  style="overflow:visible;"/>
			</clipPath>
			<g id="Grupo_17597-2" style="clip-path:url(#SVGID_00000145761403517397630000000001443981753216695473_);">
				<path id="Trazado_36364-2" class="st8" d="M9.5,5.1c0-0.4,0.3-0.8,0.8-0.8c0.4,0,0.8,0.3,0.8,0.8s-0.3,0.8-0.8,0.8l0,0
					C9.9,5.9,9.5,5.5,9.5,5.1"/>
				<path id="Trazado_36365-2" class="st6" d="M10.3,6.1c-0.5,0-0.9-0.4-0.9-0.9s0.4-0.9,0.9-0.9s0.9,0.4,0.9,0.9l0,0
					C11.2,5.6,10.8,6.1,10.3,6.1 M10.3,4.5c-0.3,0-0.6,0.3-0.6,0.6s0.3,0.6,0.6,0.6c0.3,0,0.6-0.3,0.6-0.6
					C10.9,4.8,10.6,4.5,10.3,4.5"/>
				<path id="Trazado_36366-2" class="st8" d="M4.8,2.6c0-0.6,0.5-1.1,1.1-1.1C6.5,1.4,7,1.9,7,2.6c0,0.6-0.5,1.1-1.1,1.1l0,0
					C5.3,3.7,4.8,3.2,4.8,2.6"/>
				<path id="Trazado_36367-2" class="st6" d="M5.9,3.9c-0.8,0-1.4-0.6-1.4-1.4c0-0.8,0.6-1.4,1.4-1.4c0.8,0,1.4,0.6,1.4,1.4
					c0,0,0,0,0,0C7.3,3.3,6.7,3.9,5.9,3.9 M5.9,1.7C5.4,1.7,5,2.1,5,2.6s0.4,0.9,0.9,0.9S6.8,3,6.8,2.6C6.8,2.1,6.4,1.7,5.9,1.7"/>
				<path id="Trazado_36368-2" class="st8" d="M14.7,1.4c0-0.6,0.5-1.1,1.1-1.1S17,0.7,17,1.4s-0.5,1.1-1.1,1.1l0,0
					C15.2,2.5,14.7,2,14.7,1.4"/>
				<path id="Trazado_36369-2" class="st6" d="M15.9,2.7c-0.8,0-1.4-0.6-1.4-1.4S15.1,0,15.9,0c0.8,0,1.4,0.6,1.4,1.4c0,0,0,0,0,0
					C17.2,2.1,16.6,2.7,15.9,2.7 M15.9,0.5c-0.5,0-0.9,0.4-0.9,0.9s0.4,0.9,0.9,0.9s0.9-0.4,0.9-0.9C16.7,0.9,16.3,0.5,15.9,0.5"/>
				<line id="Línea_1-2" class="st10" x1="1.9" y1="5.9" x2="5" y2="3.2"/>
				
					<rect id="Rectángulo_4725-2" x="1.4" y="4.3" transform="matrix(0.7619 -0.6477 0.6477 0.7619 -2.1248 3.3188)" class="st6" width="4.1" height="0.5"/>
				<line id="Línea_2-2" class="st10" x1="7" y1="3.1" x2="9.6" y2="4.8"/>
				
					<rect id="Rectángulo_4726-2" x="8" y="2.4" transform="matrix(0.5609 -0.8279 0.8279 0.5609 0.3665 8.5935)" class="st6" width="0.5" height="3.1"/>
				<line id="Línea_3-2" class="st10" x1="10.9" y1="4.8" x2="14.9" y2="2"/>
				
					<rect id="Rectángulo_4727-2" x="10.5" y="3.1" transform="matrix(0.8236 -0.5672 0.5672 0.8236 0.3526 7.9186)" class="st6" width="4.8" height="0.6"/>
				<path id="Trazado_36370-2" class="st8" d="M0.2,6.5c0-0.6,0.5-1.1,1.1-1.1c0.6,0,1.1,0.5,1.1,1.1c0,0.6-0.5,1.1-1.1,1.1
					C0.7,7.6,0.2,7.1,0.2,6.5L0.2,6.5"/>
				<path id="Trazado_36371-2" class="st6" d="M1.4,7.8C0.6,7.8,0,7.2,0,6.5c0-0.8,0.6-1.4,1.4-1.4s1.4,0.6,1.4,1.4l0,0
					C2.7,7.2,2.1,7.8,1.4,7.8 M1.4,5.6C0.9,5.6,0.5,6,0.5,6.5s0.4,0.9,0.9,0.9S2.2,7,2.2,6.5l0,0C2.2,6,1.8,5.6,1.4,5.6"/>
			</g>
		</g>
	</g>
	<g id="Grupo_59935" transform="translate(1259.868 816.81)">
		<g>
			<defs>
				<rect id="SVGID_00000062907722316742094200000004399312762294973830_" x="0" y="0" width="17.2" height="7.8"/>
			</defs>
			<clipPath id="SVGID_00000097469123682317898300000006431320595473557412_">
				<use xlink:href="#SVGID_00000062907722316742094200000004399312762294973830_"  style="overflow:visible;"/>
			</clipPath>
			<g id="Grupo_17597-3" style="clip-path:url(#SVGID_00000097469123682317898300000006431320595473557412_);">
				<path id="Trazado_36364-3" class="st8" d="M9.5,5.1c0-0.4,0.3-0.8,0.8-0.8c0.4,0,0.8,0.3,0.8,0.8s-0.3,0.8-0.8,0.8l0,0
					C9.9,5.9,9.5,5.5,9.5,5.1"/>
				<path id="Trazado_36365-3" class="st6" d="M10.3,6.1c-0.5,0-0.9-0.4-0.9-0.9s0.4-0.9,0.9-0.9s0.9,0.4,0.9,0.9l0,0
					C11.2,5.6,10.8,6.1,10.3,6.1 M10.3,4.5c-0.3,0-0.6,0.3-0.6,0.6s0.3,0.6,0.6,0.6c0.3,0,0.6-0.3,0.6-0.6
					C10.9,4.8,10.6,4.5,10.3,4.5"/>
				<path id="Trazado_36366-3" class="st8" d="M4.8,2.6c0-0.6,0.5-1.1,1.1-1.1C6.5,1.4,7,1.9,7,2.6c0,0.6-0.5,1.1-1.1,1.1l0,0
					C5.3,3.7,4.8,3.2,4.8,2.6"/>
				<path id="Trazado_36367-3" class="st6" d="M5.9,3.9c-0.8,0-1.4-0.6-1.4-1.4c0-0.8,0.6-1.4,1.4-1.4c0.8,0,1.4,0.6,1.4,1.4
					c0,0,0,0,0,0C7.3,3.3,6.7,3.9,5.9,3.9 M5.9,1.7C5.4,1.7,5,2.1,5,2.6s0.4,0.9,0.9,0.9S6.8,3,6.8,2.6C6.8,2.1,6.4,1.7,5.9,1.7"/>
				<path id="Trazado_36368-3" class="st8" d="M14.7,1.4c0-0.6,0.5-1.1,1.1-1.1S17,0.7,17,1.4s-0.5,1.1-1.1,1.1l0,0
					C15.2,2.5,14.7,2,14.7,1.4"/>
				<path id="Trazado_36369-3" class="st6" d="M15.9,2.7c-0.8,0-1.4-0.6-1.4-1.4S15.1,0,15.9,0c0.8,0,1.4,0.6,1.4,1.4c0,0,0,0,0,0
					C17.2,2.1,16.6,2.7,15.9,2.7 M15.9,0.5c-0.5,0-0.9,0.4-0.9,0.9s0.4,0.9,0.9,0.9s0.9-0.4,0.9-0.9C16.7,0.9,16.3,0.5,15.9,0.5"/>
				<line id="Línea_1-3" class="st10" x1="1.9" y1="5.9" x2="5" y2="3.2"/>
				
					<rect id="Rectángulo_4725-3" x="1.4" y="4.3" transform="matrix(0.7619 -0.6477 0.6477 0.7619 -2.1248 3.3188)" class="st6" width="4.1" height="0.5"/>
				<line id="Línea_2-3" class="st10" x1="7" y1="3.1" x2="9.6" y2="4.8"/>
				
					<rect id="Rectángulo_4726-3" x="8" y="2.4" transform="matrix(0.5609 -0.8279 0.8279 0.5609 0.3665 8.5935)" class="st6" width="0.5" height="3.1"/>
				<line id="Línea_3-3" class="st10" x1="10.9" y1="4.8" x2="14.9" y2="2"/>
				
					<rect id="Rectángulo_4727-3" x="10.5" y="3.1" transform="matrix(0.8236 -0.5672 0.5672 0.8236 0.3526 7.9186)" class="st6" width="4.8" height="0.6"/>
				<path id="Trazado_36370-3" class="st8" d="M0.2,6.5c0-0.6,0.5-1.1,1.1-1.1c0.6,0,1.1,0.5,1.1,1.1c0,0.6-0.5,1.1-1.1,1.1
					C0.7,7.6,0.2,7.1,0.2,6.5L0.2,6.5"/>
				<path id="Trazado_36371-3" class="st6" d="M1.4,7.8C0.6,7.8,0,7.2,0,6.5c0-0.8,0.6-1.4,1.4-1.4s1.4,0.6,1.4,1.4l0,0
					C2.7,7.2,2.1,7.8,1.4,7.8 M1.4,5.6C0.9,5.6,0.5,6,0.5,6.5s0.4,0.9,0.9,0.9S2.2,7,2.2,6.5l0,0C2.2,6,1.8,5.6,1.4,5.6"/>
			</g>
		</g>
	</g>
	<g id="Grupo_59936" transform="translate(922.77 819.082)">
		<g>
			<defs>
				<rect id="SVGID_00000041282085421647847830000006034631143080114348_" x="0" y="0" width="17.2" height="7.8"/>
			</defs>
			<clipPath id="SVGID_00000131362963992373673530000016699895276589534604_">
				<use xlink:href="#SVGID_00000041282085421647847830000006034631143080114348_"  style="overflow:visible;"/>
			</clipPath>
			<g id="Grupo_17597-4" style="clip-path:url(#SVGID_00000131362963992373673530000016699895276589534604_);">
				<path id="Trazado_36364-4" class="st8" d="M9.5,5.1c0-0.4,0.3-0.8,0.8-0.8c0.4,0,0.8,0.3,0.8,0.8s-0.3,0.8-0.8,0.8l0,0
					C9.9,5.9,9.5,5.5,9.5,5.1"/>
				<path id="Trazado_36365-4" class="st6" d="M10.3,6.1c-0.5,0-0.9-0.4-0.9-0.9s0.4-0.9,0.9-0.9s0.9,0.4,0.9,0.9l0,0
					C11.2,5.6,10.8,6.1,10.3,6.1 M10.3,4.5c-0.3,0-0.6,0.3-0.6,0.6s0.3,0.6,0.6,0.6c0.3,0,0.6-0.3,0.6-0.6
					C10.9,4.8,10.6,4.5,10.3,4.5"/>
				<path id="Trazado_36366-4" class="st8" d="M4.8,2.6c0-0.6,0.5-1.1,1.1-1.1C6.5,1.4,7,1.9,7,2.6c0,0.6-0.5,1.1-1.1,1.1l0,0
					C5.3,3.7,4.8,3.2,4.8,2.6"/>
				<path id="Trazado_36367-4" class="st6" d="M5.9,3.9c-0.8,0-1.4-0.6-1.4-1.4c0-0.8,0.6-1.4,1.4-1.4c0.8,0,1.4,0.6,1.4,1.4
					c0,0,0,0,0,0C7.3,3.3,6.7,3.9,5.9,3.9 M5.9,1.7C5.4,1.7,5,2.1,5,2.6s0.4,0.9,0.9,0.9S6.8,3,6.8,2.6C6.8,2.1,6.4,1.7,5.9,1.7"/>
				<path id="Trazado_36368-4" class="st8" d="M14.7,1.4c0-0.6,0.5-1.1,1.1-1.1c0.6,0,1.1,0.5,1.1,1.1s-0.5,1.1-1.1,1.1l0,0
					C15.2,2.5,14.7,2,14.7,1.4"/>
				<path id="Trazado_36369-4" class="st6" d="M15.9,2.7c-0.8,0-1.4-0.6-1.4-1.4S15.1,0,15.9,0c0.8,0,1.4,0.6,1.4,1.4c0,0,0,0,0,0
					C17.2,2.1,16.6,2.7,15.9,2.7 M15.9,0.5c-0.5,0-0.9,0.4-0.9,0.9s0.4,0.9,0.9,0.9c0.5,0,0.9-0.4,0.9-0.9
					C16.7,0.9,16.3,0.5,15.9,0.5"/>
				<line id="Línea_1-4" class="st10" x1="1.9" y1="5.9" x2="5" y2="3.2"/>
				
					<rect id="Rectángulo_4725-4" x="1.4" y="4.3" transform="matrix(0.7619 -0.6477 0.6477 0.7619 -2.1248 3.3188)" class="st6" width="4.1" height="0.5"/>
				<line id="Línea_2-4" class="st10" x1="7" y1="3.1" x2="9.6" y2="4.8"/>
				
					<rect id="Rectángulo_4726-4" x="8" y="2.4" transform="matrix(0.5609 -0.8279 0.8279 0.5609 0.3665 8.5935)" class="st6" width="0.5" height="3.1"/>
				<line id="Línea_3-4" class="st10" x1="10.9" y1="4.8" x2="14.9" y2="2"/>
				
					<rect id="Rectángulo_4727-4" x="10.5" y="3.1" transform="matrix(0.8236 -0.5672 0.5672 0.8236 0.3526 7.9186)" class="st6" width="4.8" height="0.6"/>
				<path id="Trazado_36370-4" class="st8" d="M0.2,6.5c0-0.6,0.5-1.1,1.1-1.1c0.6,0,1.1,0.5,1.1,1.1c0,0.6-0.5,1.1-1.1,1.1
					C0.7,7.6,0.2,7.1,0.2,6.5L0.2,6.5"/>
				<path id="Trazado_36371-4" class="st6" d="M1.4,7.8C0.6,7.8,0,7.2,0,6.5c0-0.8,0.6-1.4,1.4-1.4s1.4,0.6,1.4,1.4l0,0
					C2.7,7.2,2.1,7.8,1.4,7.8 M1.4,5.6C0.9,5.6,0.5,6,0.5,6.5s0.4,0.9,0.9,0.9S2.2,7,2.2,6.5l0,0C2.2,6,1.8,5.6,1.4,5.6"/>
			</g>
		</g>
	</g>
	<g id="Grupo_59937" transform="translate(1077.21 509.868)">
		<path id="Trazado_36334" class="st7" d="M26.5,17.1l-6.7,3.9L13,17.1V9.3l6.7-3.9l6.7,3.9V17.1z"/>
		<path id="Trazado_36335" class="st7" d="M26.5,32.6l-6.6,3.8l-6.6-3.8V25l6.6-3.8l6.6,3.8V32.6z"/>
		<path id="Trazado_36336" class="st7" d="M26.1,47.5l-6.6,3.6L13.2,47l0.1-6.7l6.2-3.6l6.6,3.6L26.1,47.5z"/>
		<rect id="Rectángulo_4701" x="0.8" y="13" class="st6" width="9.2" height="1.4"/>
		<rect id="Rectángulo_4702" x="0" y="39.6" class="st6" width="9.2" height="1.4"/>
		<rect id="Rectángulo_4703" x="0.8" y="26.5" class="st6" width="9.2" height="1.4"/>
		<path id="Trazado_36345" class="st6" d="M19.8,23.9l-10.4-6V6l10.4-6l10.4,6v11.9L19.8,23.9z M11,17l8.7,5l8.7-5v-10l-8.7-5
			l-8.7,5V17z"/>
		<rect id="Rectángulo_4704" x="19.1" y="11.6" class="st6" width="1.2" height="11.4"/>
		
			<rect id="Rectángulo_4705" x="19.2" y="8.4" transform="matrix(0.8783 -0.4782 0.4782 0.8783 -1.331 12.8791)" class="st6" width="10.9" height="1.2"/>
		
			<rect id="Rectángulo_4706" x="14.5" y="3.6" transform="matrix(0.4814 -0.8765 0.8765 0.4814 -0.1165 17.9135)" class="st6" width="1.2" height="10.8"/>
		<path id="Trazado_36346" class="st6" d="M19.8,39l-10.4-6V21.1l3.8-2.2l0.8,1.4l-3,1.7v10l8.7,5l8.7-5v-10l-3.2-1.8l0.8-1.4l4,2.3
			v11.9L19.8,39z"/>
		<rect id="Rectángulo_4707" x="19.1" y="26.7" class="st6" width="1.2" height="11.4"/>
		
			<rect id="Rectángulo_4708" x="19.2" y="23.6" transform="matrix(0.8783 -0.4782 0.4782 0.8783 -8.5726 14.7226)" class="st6" width="10.9" height="1.2"/>
		
			<rect id="Rectángulo_4709" x="14.5" y="18.8" transform="matrix(0.4809 -0.8768 0.8768 0.4809 -13.3872 25.7849)" class="st6" width="1.2" height="10.8"/>
		<path id="Trazado_36347" class="st6" d="M19.6,54L9.2,48V36.1l3.9-2.2l0.8,1.4l-3,1.7v10l8.7,5l8.7-5v-10l-3.1-1.8l0.8-1.4l4,2.3
			V48L19.6,54z"/>
		<rect id="Rectángulo_4710" x="19" y="41.7" class="st6" width="1.2" height="11.4"/>
		
			<rect id="Rectángulo_4711" x="19.1" y="38.6" transform="matrix(0.8783 -0.4782 0.4782 0.8783 -15.7549 16.497)" class="st6" width="10.9" height="1.2"/>
		
			<rect id="Rectángulo_4712" x="14.4" y="33.8" transform="matrix(0.4809 -0.8768 0.8768 0.4809 -26.5888 33.4756)" class="st6" width="1.2" height="10.8"/>
		<path id="Trazado_36348" class="st14" d="M19.4,18.7c-0.2,0-0.5-0.1-0.6-0.3l-3.1-3c-0.3-0.3-0.3-0.7,0-1c0,0,0.1-0.1,0.1-0.1
			c0.4-0.3,0.8-0.2,1.2,0.1l2.4,2.4l5-5.6c0.3-0.3,0.8-0.4,1.2-0.1c0.3,0.2,0.4,0.6,0.2,0.9c0,0,0,0.1-0.1,0.1L20,18.4
			C19.9,18.5,19.6,18.7,19.4,18.7L19.4,18.7z"/>
		<path id="Trazado_36349" class="st6" d="M19.4,19L19.4,19c-0.4,0-0.7-0.1-0.9-0.4l-3.1-3c-0.2-0.2-0.3-0.5-0.3-0.8
			c0-0.3,0.2-0.6,0.4-0.8c0.5-0.4,1.2-0.3,1.6,0.1l2.1,2.1l4.7-5.3c0.4-0.5,1.1-0.5,1.6-0.2c0.3,0.2,0.4,0.4,0.5,0.8
			c0,0.3-0.1,0.6-0.3,0.8l-5.6,6.3C20.1,18.9,19.7,19,19.4,19 M16.3,14.5c-0.1,0-0.2,0-0.3,0.1c-0.1,0.1-0.1,0.2-0.1,0.3
			c0,0.1,0,0.2,0.1,0.3l3.1,3c0.1,0.1,0.2,0.2,0.4,0.2h0c0.1,0,0.3-0.1,0.4-0.2l5.6-6.3c0.1-0.1,0.1-0.2,0.1-0.2
			c0-0.1-0.1-0.2-0.2-0.3c-0.2-0.1-0.5-0.1-0.7,0.1l-5.2,5.9l-2.7-2.6C16.6,14.5,16.4,14.5,16.3,14.5"/>
		<path id="Trazado_36350" class="st14" d="M19.4,34.3c-0.2,0-0.5-0.1-0.6-0.3l-3.1-3c-0.3-0.3-0.3-0.7,0-1c0,0,0.1-0.1,0.1-0.1
			c0.4-0.3,0.8-0.2,1.2,0.1l2.4,2.4l5-5.6c0.3-0.3,0.8-0.4,1.2-0.1c0.3,0.2,0.4,0.6,0.2,0.9c0,0,0,0.1-0.1,0.1L20,34
			C19.9,34.2,19.6,34.3,19.4,34.3L19.4,34.3z"/>
		<path id="Trazado_36351" class="st6" d="M19.4,34.7L19.4,34.7c-0.4,0-0.7-0.1-0.9-0.4l-3.1-3c-0.2-0.2-0.3-0.5-0.3-0.8
			c0-0.3,0.2-0.6,0.4-0.8c0.5-0.4,1.2-0.3,1.6,0.1l2.1,2.1l4.7-5.3c0.4-0.5,1.1-0.5,1.6-0.2c0.3,0.2,0.4,0.4,0.5,0.8
			c0,0.3-0.1,0.6-0.3,0.8l-5.6,6.3C20.1,34.5,19.7,34.7,19.4,34.7 M16.3,30.1c-0.1,0-0.2,0-0.3,0.1c-0.1,0.1-0.1,0.2-0.1,0.3
			c0,0.1,0,0.2,0.1,0.3l3.1,3c0.1,0.1,0.2,0.2,0.4,0.2h0c0.1,0,0.3-0.1,0.4-0.2l5.6-6.3c0.1-0.1,0.1-0.2,0.1-0.3
			c0-0.1-0.1-0.2-0.2-0.3c-0.2-0.1-0.5-0.1-0.7,0.1l-5.2,5.9l-2.7-2.6C16.6,30.2,16.4,30.1,16.3,30.1"/>
		<path id="Trazado_36352" class="st14" d="M19.4,49.3c-0.2,0-0.5-0.1-0.6-0.3l-3.1-3c-0.3-0.3-0.3-0.7,0-1c0,0,0.1-0.1,0.1-0.1
			c0.4-0.3,0.8-0.2,1.2,0.1l2.4,2.4l5-5.6c0.3-0.3,0.8-0.4,1.2-0.1c0.3,0.2,0.4,0.6,0.2,0.9c0,0,0,0.1-0.1,0.1L20,49
			C19.9,49.2,19.6,49.3,19.4,49.3L19.4,49.3z"/>
		<path id="Trazado_36353" class="st6" d="M19.4,49.6L19.4,49.6c-0.4,0-0.7-0.1-0.9-0.4l-3.1-3c-0.2-0.2-0.3-0.5-0.3-0.8
			c0-0.3,0.2-0.6,0.4-0.8c0.5-0.4,1.2-0.3,1.6,0.1l2.1,2.1l4.7-5.3c0.4-0.5,1.1-0.5,1.6-0.2c0.3,0.2,0.4,0.4,0.5,0.8
			c0,0.3-0.1,0.6-0.3,0.8l-5.6,6.3C20.1,49.5,19.7,49.6,19.4,49.6 M16.3,45.1c-0.1,0-0.2,0-0.3,0.1c-0.1,0.1-0.1,0.2-0.1,0.3
			c0,0.1,0,0.2,0.1,0.3l3.1,3c0.1,0.1,0.2,0.2,0.4,0.2h0c0.1,0,0.3-0.1,0.4-0.2l5.6-6.3c0.1-0.1,0.1-0.2,0.1-0.3
			c0-0.1-0.1-0.2-0.2-0.3c-0.2-0.1-0.5-0.1-0.7,0.1l-5.2,5.9l-2.7-2.6C16.6,45.2,16.4,45.1,16.3,45.1"/>
	</g>
	<g class="st15">
		<path class="st16" d="M1042.4,603.1v-11.4h3.7c1.2,0,2.2,0.3,2.8,0.8c0.6,0.5,0.9,1.3,0.9,2.3c0,0.5-0.2,1-0.5,1.4
			c-0.3,0.4-0.7,0.7-1.2,0.9c0.6,0.2,1.1,0.5,1.5,1c0.4,0.5,0.5,1.1,0.5,1.7c0,1-0.3,1.8-1,2.4c-0.7,0.6-1.6,0.9-2.8,0.9H1042.4z
			 M1043.9,596.5h2.3c0.7,0,1.2-0.2,1.6-0.5c0.4-0.3,0.6-0.8,0.6-1.3c0-0.6-0.2-1.1-0.5-1.4c-0.4-0.3-0.9-0.4-1.7-0.4h-2.2V596.5z
			 M1043.9,597.7v4.1h2.5c0.7,0,1.2-0.2,1.7-0.5c0.4-0.4,0.6-0.9,0.6-1.5c0-1.4-0.7-2.1-2.2-2.1H1043.9z"/>
		<path class="st16" d="M1057.4,603.1c-0.1-0.2-0.2-0.5-0.2-0.9c-0.7,0.7-1.5,1-2.4,1c-0.8,0-1.5-0.2-2.1-0.7
			c-0.5-0.5-0.8-1.1-0.8-1.8c0-0.9,0.3-1.6,1-2.1c0.7-0.5,1.6-0.7,2.8-0.7h1.4v-0.7c0-0.5-0.2-0.9-0.5-1.2c-0.3-0.3-0.7-0.4-1.3-0.4
			c-0.5,0-0.9,0.1-1.3,0.4c-0.3,0.3-0.5,0.6-0.5,0.9h-1.5c0-0.4,0.1-0.8,0.4-1.2c0.3-0.4,0.7-0.7,1.2-0.9c0.5-0.2,1.1-0.3,1.7-0.3
			c1,0,1.7,0.2,2.3,0.7c0.6,0.5,0.8,1.2,0.9,2v3.9c0,0.8,0.1,1.4,0.3,1.9v0.1H1057.4z M1055,602c0.5,0,0.9-0.1,1.3-0.4
			s0.7-0.5,0.9-0.9V599h-1.1c-1.8,0-2.7,0.5-2.7,1.6c0,0.5,0.2,0.8,0.5,1.1C1054.1,601.8,1054.5,602,1055,602z"/>
		<path class="st16" d="M1065.8,600.8c0-0.4-0.1-0.7-0.4-0.9c-0.3-0.2-0.8-0.4-1.5-0.6c-0.7-0.2-1.3-0.3-1.7-0.6s-0.7-0.5-1-0.8
			c-0.2-0.3-0.3-0.7-0.3-1.1c0-0.7,0.3-1.3,0.9-1.8s1.3-0.7,2.2-0.7c1,0,1.7,0.2,2.3,0.7c0.6,0.5,0.9,1.1,0.9,1.9h-1.5
			c0-0.4-0.2-0.7-0.5-1s-0.8-0.4-1.3-0.4c-0.5,0-0.9,0.1-1.2,0.3s-0.4,0.5-0.4,0.9c0,0.3,0.1,0.6,0.4,0.8c0.3,0.2,0.8,0.3,1.5,0.5
			c0.7,0.2,1.3,0.4,1.8,0.6c0.4,0.2,0.8,0.5,1,0.8c0.2,0.3,0.3,0.7,0.3,1.2c0,0.8-0.3,1.4-0.9,1.8c-0.6,0.5-1.4,0.7-2.4,0.7
			c-0.7,0-1.3-0.1-1.8-0.4c-0.5-0.2-0.9-0.6-1.2-1c-0.3-0.4-0.4-0.9-0.4-1.4h1.4c0,0.5,0.2,0.9,0.6,1.2c0.4,0.3,0.8,0.4,1.4,0.4
			c0.5,0,1-0.1,1.3-0.3C1065.6,601.5,1065.8,601.2,1065.8,600.8z"/>
		<path class="st16" d="M1072.6,603.2c-1.1,0-2.1-0.4-2.8-1.1s-1.1-1.8-1.1-3v-0.3c0-0.8,0.2-1.6,0.5-2.2s0.8-1.2,1.3-1.5
			c0.6-0.4,1.2-0.6,1.9-0.6c1.1,0,2,0.4,2.6,1.1s0.9,1.8,0.9,3.1v0.6h-5.7c0,0.8,0.3,1.5,0.7,2c0.5,0.5,1.1,0.8,1.8,0.8
			c0.5,0,0.9-0.1,1.3-0.3c0.4-0.2,0.7-0.5,0.9-0.8l0.9,0.7C1075.1,602.7,1074.1,603.2,1072.6,603.2z M1072.5,595.6
			c-0.6,0-1.1,0.2-1.5,0.6c-0.4,0.4-0.6,1-0.7,1.8h4.2v-0.1c0-0.7-0.2-1.3-0.6-1.7C1073.5,595.8,1073.1,595.6,1072.5,595.6z"/>
		<path class="st16" d="M1081.2,598.8c0-1.3,0.3-2.3,0.9-3.1c0.6-0.8,1.4-1.2,2.4-1.2c1,0,1.8,0.3,2.4,1v-4.4h1.4v12h-1.3l-0.1-0.9
			c-0.6,0.7-1.4,1.1-2.4,1.1c-1,0-1.8-0.4-2.4-1.2s-0.9-1.8-0.9-3.1V598.8z M1082.7,598.9c0,1,0.2,1.7,0.6,2.2
			c0.4,0.5,0.9,0.8,1.6,0.8c0.9,0,1.6-0.4,2-1.2v-3.9c-0.4-0.8-1.1-1.2-2-1.2c-0.7,0-1.3,0.3-1.7,0.8
			C1082.9,597,1082.7,597.8,1082.7,598.9z"/>
		<path class="st16" d="M1094.1,603.2c-1.1,0-2.1-0.4-2.8-1.1s-1.1-1.8-1.1-3v-0.3c0-0.8,0.2-1.6,0.5-2.2s0.8-1.2,1.3-1.5
			c0.6-0.4,1.2-0.6,1.9-0.6c1.1,0,2,0.4,2.6,1.1s0.9,1.8,0.9,3.1v0.6h-5.7c0,0.8,0.3,1.5,0.7,2c0.5,0.5,1.1,0.8,1.8,0.8
			c0.5,0,0.9-0.1,1.3-0.3c0.4-0.2,0.7-0.5,0.9-0.8l0.9,0.7C1096.6,602.7,1095.5,603.2,1094.1,603.2z M1093.9,595.6
			c-0.6,0-1.1,0.2-1.5,0.6c-0.4,0.4-0.6,1-0.7,1.8h4.2v-0.1c0-0.7-0.2-1.3-0.6-1.7C1095,595.8,1094.5,595.6,1093.9,595.6z"/>
		<path class="st16" d="M1102.7,598.8c0-1.3,0.3-2.3,0.9-3.1c0.6-0.8,1.4-1.2,2.4-1.2c1,0,1.8,0.3,2.4,1v-4.4h1.4v12h-1.3l-0.1-0.9
			c-0.6,0.7-1.4,1.1-2.4,1.1c-1,0-1.8-0.4-2.4-1.2s-0.9-1.8-0.9-3.1V598.8z M1104.1,598.9c0,1,0.2,1.7,0.6,2.2
			c0.4,0.5,0.9,0.8,1.6,0.8c0.9,0,1.6-0.4,2-1.2v-3.9c-0.4-0.8-1.1-1.2-2-1.2c-0.7,0-1.3,0.3-1.7,0.8
			C1104.3,597,1104.1,597.8,1104.1,598.9z"/>
		<path class="st16" d="M1117.3,603.1c-0.1-0.2-0.2-0.5-0.2-0.9c-0.7,0.7-1.5,1-2.4,1c-0.8,0-1.5-0.2-2.1-0.7
			c-0.5-0.5-0.8-1.1-0.8-1.8c0-0.9,0.3-1.6,1-2.1c0.7-0.5,1.6-0.7,2.8-0.7h1.4v-0.7c0-0.5-0.2-0.9-0.5-1.2c-0.3-0.3-0.7-0.4-1.3-0.4
			c-0.5,0-0.9,0.1-1.3,0.4c-0.3,0.3-0.5,0.6-0.5,0.9h-1.5c0-0.4,0.1-0.8,0.4-1.2c0.3-0.4,0.7-0.7,1.2-0.9c0.5-0.2,1.1-0.3,1.7-0.3
			c1,0,1.7,0.2,2.3,0.7c0.6,0.5,0.8,1.2,0.9,2v3.9c0,0.8,0.1,1.4,0.3,1.9v0.1H1117.3z M1114.9,602c0.5,0,0.9-0.1,1.3-0.4
			s0.7-0.5,0.9-0.9V599h-1.1c-1.8,0-2.7,0.5-2.7,1.6c0,0.5,0.2,0.8,0.5,1.1C1114,601.8,1114.4,602,1114.9,602z"/>
		<path class="st16" d="M1122.7,592.6v2h1.6v1.1h-1.6v5.2c0,0.3,0.1,0.6,0.2,0.8c0.1,0.2,0.4,0.3,0.7,0.3c0.2,0,0.4,0,0.7-0.1v1.2
			c-0.4,0.1-0.8,0.2-1.1,0.2c-0.6,0-1.1-0.2-1.5-0.6s-0.5-0.9-0.5-1.7v-5.2h-1.5v-1.1h1.5v-2H1122.7z"/>
		<path class="st16" d="M1125.4,598.7c0-0.8,0.2-1.6,0.5-2.2c0.3-0.7,0.8-1.2,1.4-1.5c0.6-0.4,1.2-0.5,2-0.5c1.2,0,2.1,0.4,2.8,1.2
			s1.1,1.9,1.1,3.2v0.1c0,0.8-0.2,1.6-0.5,2.2c-0.3,0.7-0.8,1.2-1.4,1.5s-1.3,0.5-2,0.5c-1.1,0-2.1-0.4-2.8-1.2s-1.1-1.9-1.1-3.2
			V598.7z M1126.9,598.9c0,0.9,0.2,1.7,0.7,2.3c0.4,0.6,1,0.9,1.7,0.9c0.7,0,1.3-0.3,1.8-0.9c0.4-0.6,0.6-1.4,0.6-2.4
			c0-0.9-0.2-1.7-0.7-2.3c-0.4-0.6-1-0.9-1.8-0.9c-0.7,0-1.3,0.3-1.7,0.9S1126.9,597.9,1126.9,598.9z"/>
		<path class="st16" d="M1139.9,600.8c0-0.4-0.1-0.7-0.4-0.9c-0.3-0.2-0.8-0.4-1.5-0.6c-0.7-0.2-1.3-0.3-1.7-0.6s-0.7-0.5-1-0.8
			c-0.2-0.3-0.3-0.7-0.3-1.1c0-0.7,0.3-1.3,0.9-1.8s1.3-0.7,2.2-0.7c1,0,1.7,0.2,2.3,0.7c0.6,0.5,0.9,1.1,0.9,1.9h-1.5
			c0-0.4-0.2-0.7-0.5-1s-0.8-0.4-1.3-0.4c-0.5,0-0.9,0.1-1.2,0.3s-0.4,0.5-0.4,0.9c0,0.3,0.1,0.6,0.4,0.8c0.3,0.2,0.8,0.3,1.5,0.5
			c0.7,0.2,1.3,0.4,1.8,0.6c0.4,0.2,0.8,0.5,1,0.8c0.2,0.3,0.3,0.7,0.3,1.2c0,0.8-0.3,1.4-0.9,1.8c-0.6,0.5-1.4,0.7-2.4,0.7
			c-0.7,0-1.3-0.1-1.8-0.4c-0.5-0.2-0.9-0.6-1.2-1c-0.3-0.4-0.4-0.9-0.4-1.4h1.4c0,0.5,0.2,0.9,0.6,1.2c0.4,0.3,0.8,0.4,1.4,0.4
			c0.5,0,1-0.1,1.3-0.3C1139.7,601.5,1139.9,601.2,1139.9,600.8z"/>
	</g>
	<g class="st15">
		<path class="st3" d="M1065.5,781.7c-1.3-0.4-2.2-0.8-2.8-1.4s-0.9-1.2-0.9-2c0-0.9,0.4-1.6,1.1-2.2c0.7-0.6,1.6-0.9,2.8-0.9
			c0.8,0,1.5,0.2,2.1,0.5c0.6,0.3,1.1,0.7,1.4,1.2s0.5,1.1,0.5,1.7h-1.5c0-0.7-0.2-1.2-0.7-1.6s-1.1-0.6-1.9-0.6
			c-0.7,0-1.3,0.2-1.7,0.5s-0.6,0.8-0.6,1.4c0,0.5,0.2,0.9,0.6,1.2c0.4,0.3,1.1,0.6,2,0.9c0.9,0.3,1.7,0.6,2.2,0.9
			c0.5,0.3,0.9,0.7,1.2,1.1s0.4,0.9,0.4,1.5c0,0.9-0.4,1.7-1.1,2.2s-1.7,0.8-2.9,0.8c-0.8,0-1.5-0.1-2.2-0.4
			c-0.7-0.3-1.2-0.7-1.6-1.2s-0.6-1.1-0.6-1.8h1.5c0,0.7,0.3,1.2,0.8,1.6s1.2,0.6,2,0.6c0.8,0,1.4-0.2,1.8-0.5s0.6-0.8,0.6-1.3
			s-0.2-1-0.6-1.3S1066.5,782,1065.5,781.7z"/>
		<path class="st3" d="M1074.9,786.9c-1.1,0-2.1-0.4-2.8-1.1s-1.1-1.8-1.1-3v-0.3c0-0.8,0.2-1.6,0.5-2.2s0.8-1.2,1.3-1.5
			c0.6-0.4,1.2-0.6,1.9-0.6c1.1,0,2,0.4,2.6,1.1s0.9,1.8,0.9,3.1v0.6h-5.7c0,0.8,0.3,1.5,0.7,2c0.5,0.5,1.1,0.8,1.8,0.8
			c0.5,0,0.9-0.1,1.3-0.3c0.4-0.2,0.7-0.5,0.9-0.8l0.9,0.7C1077.4,786.4,1076.3,786.9,1074.9,786.9z M1074.7,779.4
			c-0.6,0-1.1,0.2-1.5,0.6c-0.4,0.4-0.6,1-0.7,1.8h4.2v-0.1c0-0.7-0.2-1.3-0.6-1.7C1075.8,779.6,1075.3,779.4,1074.7,779.4z"/>
		<path class="st3" d="M1083.9,779.6c-0.2,0-0.5-0.1-0.7-0.1c-0.9,0-1.6,0.4-1.9,1.2v6h-1.4v-8.5h1.4l0,1c0.5-0.8,1.1-1.1,2-1.1
			c0.3,0,0.5,0,0.6,0.1V779.6z"/>
		<path class="st3" d="M1088.2,784.8l2.1-6.5h1.5l-3,8.5h-1.1l-3.1-8.5h1.5L1088.2,784.8z"/>
		<path class="st3" d="M1093.2,776.1c0-0.2,0.1-0.4,0.2-0.6c0.1-0.2,0.4-0.2,0.6-0.2s0.5,0.1,0.6,0.2c0.1,0.2,0.2,0.4,0.2,0.6
			s-0.1,0.4-0.2,0.6c-0.1,0.2-0.4,0.2-0.6,0.2s-0.5-0.1-0.6-0.2C1093.2,776.5,1093.2,776.3,1093.2,776.1z M1094.7,786.8h-1.4v-8.5
			h1.4V786.8z"/>
		<path class="st3" d="M1096.7,782.5c0-1.3,0.3-2.3,0.9-3.1c0.6-0.8,1.4-1.2,2.4-1.2c1,0,1.8,0.3,2.4,1v-4.4h1.4v12h-1.3l-0.1-0.9
			c-0.6,0.7-1.4,1.1-2.4,1.1c-1,0-1.8-0.4-2.4-1.2c-0.6-0.8-0.9-1.8-0.9-3.1V782.5z M1098.1,782.6c0,1,0.2,1.7,0.6,2.2
			c0.4,0.5,0.9,0.8,1.6,0.8c0.9,0,1.6-0.4,2-1.2v-3.9c-0.4-0.8-1.1-1.2-2-1.2c-0.7,0-1.3,0.3-1.7,0.8
			C1098.3,780.8,1098.1,781.6,1098.1,782.6z"/>
		<path class="st3" d="M1105.7,782.5c0-0.8,0.2-1.6,0.5-2.2c0.3-0.7,0.8-1.2,1.4-1.5c0.6-0.4,1.2-0.5,2-0.5c1.2,0,2.1,0.4,2.8,1.2
			s1.1,1.9,1.1,3.2v0.1c0,0.8-0.2,1.6-0.5,2.2c-0.3,0.7-0.8,1.2-1.4,1.5s-1.3,0.5-2,0.5c-1.1,0-2.1-0.4-2.8-1.2s-1.1-1.9-1.1-3.2
			V782.5z M1107.1,782.6c0,0.9,0.2,1.7,0.7,2.3c0.4,0.6,1,0.9,1.7,0.9c0.7,0,1.3-0.3,1.8-0.9c0.4-0.6,0.6-1.4,0.6-2.4
			c0-0.9-0.2-1.7-0.7-2.3c-0.4-0.6-1-0.9-1.8-0.9c-0.7,0-1.3,0.3-1.7,0.9S1107.1,781.6,1107.1,782.6z"/>
		<path class="st3" d="M1119.3,779.6c-0.2,0-0.5-0.1-0.7-0.1c-0.9,0-1.6,0.4-1.9,1.2v6h-1.4v-8.5h1.4l0,1c0.5-0.8,1.1-1.1,2-1.1
			c0.3,0,0.5,0,0.6,0.1V779.6z"/>
	</g>
	<g class="st15">
		<path class="st16" d="M884.5,653.3c-0.1,1.2-0.6,2.1-1.3,2.8c-0.7,0.7-1.7,1-3,1c-1.3,0-2.4-0.5-3.2-1.4c-0.8-1-1.2-2.3-1.2-3.9
			v-1.1c0-1.1,0.2-2,0.6-2.8c0.4-0.8,0.9-1.4,1.6-1.8c0.7-0.4,1.5-0.6,2.4-0.6c1.2,0,2.2,0.3,2.9,1c0.7,0.7,1.2,1.6,1.3,2.8H883
			c-0.1-0.9-0.4-1.6-0.8-2c-0.4-0.4-1-0.6-1.8-0.6c-1,0-1.7,0.4-2.3,1.1c-0.5,0.7-0.8,1.7-0.8,3v1.1c0,1.2,0.3,2.2,0.8,2.9
			s1.2,1.1,2.2,1.1c0.8,0,1.5-0.2,1.9-0.6s0.7-1,0.9-2H884.5z"/>
		<path class="st16" d="M887.9,656.9h-1.4v-12h1.4V656.9z"/>
		<path class="st16" d="M890.2,646.2c0-0.2,0.1-0.4,0.2-0.6c0.1-0.2,0.4-0.2,0.6-0.2s0.5,0.1,0.6,0.2c0.1,0.2,0.2,0.4,0.2,0.6
			s-0.1,0.4-0.2,0.6c-0.1,0.2-0.4,0.2-0.6,0.2s-0.5-0.1-0.6-0.2C890.3,646.7,890.2,646.5,890.2,646.2z M891.8,656.9h-1.4v-8.5h1.4
			V656.9z"/>
		<path class="st16" d="M897.6,657.1c-1.1,0-2.1-0.4-2.8-1.1s-1.1-1.8-1.1-3v-0.3c0-0.8,0.2-1.6,0.5-2.2s0.8-1.2,1.3-1.5
			c0.6-0.4,1.2-0.6,1.9-0.6c1.1,0,2,0.4,2.6,1.1s0.9,1.8,0.9,3.1v0.6h-5.7c0,0.8,0.3,1.5,0.7,2c0.5,0.5,1.1,0.8,1.8,0.8
			c0.5,0,0.9-0.1,1.3-0.3c0.4-0.2,0.7-0.5,0.9-0.8l0.9,0.7C900.1,656.5,899,657.1,897.6,657.1z M897.4,649.5c-0.6,0-1.1,0.2-1.5,0.6
			c-0.4,0.4-0.6,1-0.7,1.8h4.2v-0.1c0-0.7-0.2-1.3-0.6-1.7C898.5,649.7,898,649.5,897.4,649.5z"/>
		<path class="st16" d="M903.9,648.5l0,1.1c0.6-0.8,1.5-1.2,2.5-1.2c1.8,0,2.7,1,2.7,3v5.6h-1.4v-5.6c0-0.6-0.1-1.1-0.4-1.4
			s-0.7-0.4-1.3-0.4c-0.5,0-0.9,0.1-1.2,0.4c-0.4,0.2-0.6,0.6-0.8,1v6h-1.4v-8.5H903.9z"/>
		<path class="st16" d="M913.4,646.4v2h1.6v1.1h-1.6v5.2c0,0.3,0.1,0.6,0.2,0.8c0.1,0.2,0.4,0.3,0.7,0.3c0.2,0,0.4,0,0.7-0.1v1.2
			c-0.4,0.1-0.8,0.2-1.1,0.2c-0.6,0-1.1-0.2-1.5-0.6s-0.5-0.9-0.5-1.7v-5.2h-1.5v-1.1h1.5v-2H913.4z"/>
		<path class="st16" d="M920.1,657.1c-1.1,0-2.1-0.4-2.8-1.1s-1.1-1.8-1.1-3v-0.3c0-0.8,0.2-1.6,0.5-2.2s0.8-1.2,1.3-1.5
			c0.6-0.4,1.2-0.6,1.9-0.6c1.1,0,2,0.4,2.6,1.1s0.9,1.8,0.9,3.1v0.6h-5.7c0,0.8,0.3,1.5,0.7,2c0.5,0.5,1.1,0.8,1.8,0.8
			c0.5,0,0.9-0.1,1.3-0.3c0.4-0.2,0.7-0.5,0.9-0.8l0.9,0.7C922.6,656.5,921.6,657.1,920.1,657.1z M920,649.5c-0.6,0-1.1,0.2-1.5,0.6
			c-0.4,0.4-0.6,1-0.7,1.8h4.2v-0.1c0-0.7-0.2-1.3-0.6-1.7C921,649.7,920.6,649.5,920,649.5z"/>
		<path class="st16" d="M933.7,656.9h-1.5v-9.6l-2.9,1.1v-1.3l4.1-1.6h0.2V656.9z"/>
	</g>
	<g class="st15">
		<path class="st16" d="M1266.1,653.3c-0.1,1.2-0.6,2.1-1.3,2.8c-0.7,0.7-1.7,1-3,1c-1.3,0-2.4-0.5-3.2-1.4c-0.8-1-1.2-2.3-1.2-3.9
			v-1.1c0-1.1,0.2-2,0.6-2.8c0.4-0.8,0.9-1.4,1.6-1.8c0.7-0.4,1.5-0.6,2.4-0.6c1.2,0,2.2,0.3,2.9,1c0.7,0.7,1.2,1.6,1.3,2.8h-1.5
			c-0.1-0.9-0.4-1.6-0.8-2c-0.4-0.4-1-0.6-1.8-0.6c-1,0-1.7,0.4-2.3,1.1c-0.5,0.7-0.8,1.7-0.8,3v1.1c0,1.2,0.3,2.2,0.8,2.9
			s1.2,1.1,2.2,1.1c0.8,0,1.5-0.2,1.9-0.6s0.7-1,0.9-2H1266.1z"/>
		<path class="st16" d="M1269.4,656.9h-1.4v-12h1.4V656.9z"/>
		<path class="st16" d="M1271.8,646.2c0-0.2,0.1-0.4,0.2-0.6c0.1-0.2,0.4-0.2,0.6-0.2s0.5,0.1,0.6,0.2c0.1,0.2,0.2,0.4,0.2,0.6
			s-0.1,0.4-0.2,0.6c-0.1,0.2-0.4,0.2-0.6,0.2s-0.5-0.1-0.6-0.2C1271.8,646.7,1271.8,646.5,1271.8,646.2z M1273.3,656.9h-1.4v-8.5
			h1.4V656.9z"/>
		<path class="st16" d="M1279.1,657.1c-1.1,0-2.1-0.4-2.8-1.1s-1.1-1.8-1.1-3v-0.3c0-0.8,0.2-1.6,0.5-2.2s0.8-1.2,1.3-1.5
			c0.6-0.4,1.2-0.6,1.9-0.6c1.1,0,2,0.4,2.6,1.1s0.9,1.8,0.9,3.1v0.6h-5.7c0,0.8,0.3,1.5,0.7,2c0.5,0.5,1.1,0.8,1.8,0.8
			c0.5,0,0.9-0.1,1.3-0.3c0.4-0.2,0.7-0.5,0.9-0.8l0.9,0.7C1281.6,656.5,1280.6,657.1,1279.1,657.1z M1279,649.5
			c-0.6,0-1.1,0.2-1.5,0.6c-0.4,0.4-0.6,1-0.7,1.8h4.2v-0.1c0-0.7-0.2-1.3-0.6-1.7C1280.1,649.7,1279.6,649.5,1279,649.5z"/>
		<path class="st16" d="M1285.5,648.5l0,1.1c0.6-0.8,1.5-1.2,2.5-1.2c1.8,0,2.7,1,2.7,3v5.6h-1.4v-5.6c0-0.6-0.1-1.1-0.4-1.4
			s-0.7-0.4-1.3-0.4c-0.5,0-0.9,0.1-1.2,0.4c-0.4,0.2-0.6,0.6-0.8,1v6h-1.4v-8.5H1285.5z"/>
		<path class="st16" d="M1294.9,646.4v2h1.6v1.1h-1.6v5.2c0,0.3,0.1,0.6,0.2,0.8c0.1,0.2,0.4,0.3,0.7,0.3c0.2,0,0.4,0,0.7-0.1v1.2
			c-0.4,0.1-0.8,0.2-1.1,0.2c-0.6,0-1.1-0.2-1.5-0.6s-0.5-0.9-0.5-1.7v-5.2h-1.5v-1.1h1.5v-2H1294.9z"/>
		<path class="st16" d="M1301.7,657.1c-1.1,0-2.1-0.4-2.8-1.1s-1.1-1.8-1.1-3v-0.3c0-0.8,0.2-1.6,0.5-2.2s0.8-1.2,1.3-1.5
			c0.6-0.4,1.2-0.6,1.9-0.6c1.1,0,2,0.4,2.6,1.1s0.9,1.8,0.9,3.1v0.6h-5.7c0,0.8,0.3,1.5,0.7,2c0.5,0.5,1.1,0.8,1.8,0.8
			c0.5,0,0.9-0.1,1.3-0.3c0.4-0.2,0.7-0.5,0.9-0.8l0.9,0.7C1304.2,656.5,1303.1,657.1,1301.7,657.1z M1301.5,649.5
			c-0.6,0-1.1,0.2-1.5,0.6c-0.4,0.4-0.6,1-0.7,1.8h4.2v-0.1c0-0.7-0.2-1.3-0.6-1.7C1302.6,649.7,1302.1,649.5,1301.5,649.5z"/>
		<path class="st16" d="M1312.6,650.5h1.1c0.7,0,1.2-0.2,1.6-0.5s0.6-0.8,0.6-1.4c0-1.3-0.7-2-2-2c-0.6,0-1.1,0.2-1.5,0.5
			c-0.4,0.4-0.6,0.8-0.6,1.4h-1.4c0-0.9,0.3-1.6,1-2.2c0.7-0.6,1.5-0.9,2.5-0.9c1.1,0,1.9,0.3,2.5,0.9s0.9,1.4,0.9,2.4
			c0,0.5-0.2,1-0.5,1.4s-0.8,0.8-1.3,1c0.6,0.2,1.1,0.5,1.4,1c0.3,0.5,0.5,1,0.5,1.7c0,1-0.3,1.8-1,2.4c-0.7,0.6-1.5,0.9-2.6,0.9
			c-1.1,0-1.9-0.3-2.6-0.9c-0.7-0.6-1-1.3-1-2.3h1.5c0,0.6,0.2,1.1,0.6,1.4s0.9,0.5,1.6,0.5c0.7,0,1.2-0.2,1.6-0.5
			c0.4-0.4,0.6-0.9,0.6-1.6c0-0.7-0.2-1.2-0.6-1.5s-1-0.5-1.8-0.5h-1.1V650.5z"/>
	</g>
	<g class="st15">
		<path class="st16" d="M1245.8,886.6c-0.1,1.2-0.6,2.1-1.3,2.8s-1.7,1-3,1c-1.3,0-2.4-0.5-3.2-1.4s-1.2-2.3-1.2-3.9V884
			c0-1.1,0.2-2,0.6-2.8s0.9-1.4,1.6-1.8s1.5-0.6,2.4-0.6c1.2,0,2.2,0.3,2.9,1s1.2,1.6,1.3,2.8h-1.5c-0.1-0.9-0.4-1.6-0.8-2
			s-1-0.6-1.8-0.6c-1,0-1.7,0.4-2.3,1.1s-0.8,1.7-0.8,3v1.1c0,1.2,0.3,2.2,0.8,2.9s1.2,1.1,2.2,1.1c0.8,0,1.5-0.2,1.9-0.6
			s0.7-1,0.9-2H1245.8z"/>
		<path class="st16" d="M1249.2,890.2h-1.4v-12h1.4V890.2z"/>
		<path class="st16" d="M1251.5,879.5c0-0.2,0.1-0.4,0.2-0.6s0.4-0.2,0.6-0.2s0.5,0.1,0.6,0.2s0.2,0.4,0.2,0.6s-0.1,0.4-0.2,0.6
			s-0.4,0.2-0.6,0.2s-0.5-0.1-0.6-0.2S1251.5,879.8,1251.5,879.5z M1253.1,890.2h-1.4v-8.5h1.4V890.2z"/>
		<path class="st16" d="M1258.9,890.4c-1.1,0-2.1-0.4-2.8-1.1s-1.1-1.8-1.1-3V886c0-0.8,0.2-1.6,0.5-2.2s0.8-1.2,1.3-1.5
			s1.2-0.6,1.9-0.6c1.1,0,2,0.4,2.6,1.1s0.9,1.8,0.9,3.1v0.6h-5.7c0,0.8,0.3,1.5,0.7,2s1.1,0.8,1.8,0.8c0.5,0,0.9-0.1,1.3-0.3
			s0.7-0.5,0.9-0.8l0.9,0.7C1261.4,889.8,1260.3,890.4,1258.9,890.4z M1258.7,882.8c-0.6,0-1.1,0.2-1.5,0.6s-0.6,1-0.7,1.8h4.2v-0.1
			c0-0.7-0.2-1.3-0.6-1.7S1259.3,882.8,1258.7,882.8z"/>
		<path class="st16" d="M1265.3,881.8l0,1.1c0.6-0.8,1.5-1.2,2.5-1.2c1.8,0,2.7,1,2.7,3v5.6h-1.4v-5.6c0-0.6-0.1-1.1-0.4-1.4
			s-0.7-0.4-1.3-0.4c-0.5,0-0.9,0.1-1.2,0.4s-0.6,0.6-0.8,1v6h-1.4v-8.5H1265.3z"/>
		<path class="st16" d="M1274.7,879.7v2h1.6v1.1h-1.6v5.2c0,0.3,0.1,0.6,0.2,0.8c0.1,0.2,0.4,0.3,0.7,0.3c0.2,0,0.4,0,0.7-0.1v1.2
			c-0.4,0.1-0.8,0.2-1.1,0.2c-0.6,0-1.1-0.2-1.5-0.6s-0.5-0.9-0.5-1.7v-5.2h-1.5v-1.1h1.5v-2H1274.7z"/>
		<path class="st16" d="M1281.5,890.4c-1.1,0-2.1-0.4-2.8-1.1s-1.1-1.8-1.1-3V886c0-0.8,0.2-1.6,0.5-2.2s0.8-1.2,1.3-1.5
			s1.2-0.6,1.9-0.6c1.1,0,2,0.4,2.6,1.1s0.9,1.8,0.9,3.1v0.6h-5.7c0,0.8,0.3,1.5,0.7,2s1.1,0.8,1.8,0.8c0.5,0,0.9-0.1,1.3-0.3
			s0.7-0.5,0.9-0.8l0.9,0.7C1283.9,889.8,1282.9,890.4,1281.5,890.4z M1281.3,882.8c-0.6,0-1.1,0.2-1.5,0.6s-0.6,1-0.7,1.8h4.2v-0.1
			c0-0.7-0.2-1.3-0.6-1.7S1281.9,882.8,1281.3,882.8z"/>
		<path class="st16" d="M1296.3,886.4h1.6v1.2h-1.6v2.6h-1.5v-2.6h-5.2v-0.9l5.1-7.9h1.5V886.4z M1291.3,886.4h3.5v-5.6l-0.2,0.3
			L1291.3,886.4z"/>
	</g>
	<g class="st15">
		<path class="st16" d="M909.9,886.6c-0.1,1.2-0.6,2.1-1.3,2.8c-0.7,0.7-1.7,1-3,1c-1.3,0-2.4-0.5-3.2-1.4c-0.8-1-1.2-2.3-1.2-3.9
			V884c0-1.1,0.2-2,0.6-2.8c0.4-0.8,0.9-1.4,1.6-1.8c0.7-0.4,1.5-0.6,2.4-0.6c1.2,0,2.2,0.3,2.9,1c0.7,0.7,1.2,1.6,1.3,2.8h-1.5
			c-0.1-0.9-0.4-1.6-0.8-2c-0.4-0.4-1-0.6-1.8-0.6c-1,0-1.7,0.4-2.3,1.1c-0.5,0.7-0.8,1.7-0.8,3v1.1c0,1.2,0.3,2.2,0.8,2.9
			s1.2,1.1,2.2,1.1c0.8,0,1.5-0.2,1.9-0.6s0.7-1,0.9-2H909.9z"/>
		<path class="st16" d="M913.3,890.2h-1.4v-12h1.4V890.2z"/>
		<path class="st16" d="M915.6,879.5c0-0.2,0.1-0.4,0.2-0.6c0.1-0.2,0.4-0.2,0.6-0.2s0.5,0.1,0.6,0.2c0.1,0.2,0.2,0.4,0.2,0.6
			s-0.1,0.4-0.2,0.6c-0.1,0.2-0.4,0.2-0.6,0.2s-0.5-0.1-0.6-0.2C915.7,880,915.6,879.8,915.6,879.5z M917.2,890.2h-1.4v-8.5h1.4
			V890.2z"/>
		<path class="st16" d="M923,890.4c-1.1,0-2.1-0.4-2.8-1.1s-1.1-1.8-1.1-3V886c0-0.8,0.2-1.6,0.5-2.2s0.8-1.2,1.3-1.5
			c0.6-0.4,1.2-0.6,1.9-0.6c1.1,0,2,0.4,2.6,1.1s0.9,1.8,0.9,3.1v0.6h-5.7c0,0.8,0.3,1.5,0.7,2c0.5,0.5,1.1,0.8,1.8,0.8
			c0.5,0,0.9-0.1,1.3-0.3c0.4-0.2,0.7-0.5,0.9-0.8l0.9,0.7C925.5,889.8,924.4,890.4,923,890.4z M922.9,882.8c-0.6,0-1.1,0.2-1.5,0.6
			c-0.4,0.4-0.6,1-0.7,1.8h4.2v-0.1c0-0.7-0.2-1.3-0.6-1.7C923.9,883,923.5,882.8,922.9,882.8z"/>
		<path class="st16" d="M929.4,881.8l0,1.1c0.6-0.8,1.5-1.2,2.5-1.2c1.8,0,2.7,1,2.7,3v5.6h-1.4v-5.6c0-0.6-0.1-1.1-0.4-1.4
			s-0.7-0.4-1.3-0.4c-0.5,0-0.9,0.1-1.2,0.4c-0.4,0.2-0.6,0.6-0.8,1v6H928v-8.5H929.4z"/>
		<path class="st16" d="M938.8,879.7v2h1.6v1.1h-1.6v5.2c0,0.3,0.1,0.6,0.2,0.8c0.1,0.2,0.4,0.3,0.7,0.3c0.2,0,0.4,0,0.7-0.1v1.2
			c-0.4,0.1-0.8,0.2-1.1,0.2c-0.6,0-1.1-0.2-1.5-0.6s-0.5-0.9-0.5-1.7v-5.2h-1.5v-1.1h1.5v-2H938.8z"/>
		<path class="st16" d="M945.6,890.4c-1.1,0-2.1-0.4-2.8-1.1s-1.1-1.8-1.1-3V886c0-0.8,0.2-1.6,0.5-2.2s0.8-1.2,1.3-1.5
			c0.6-0.4,1.2-0.6,1.9-0.6c1.1,0,2,0.4,2.6,1.1s0.9,1.8,0.9,3.1v0.6h-5.7c0,0.8,0.3,1.5,0.7,2c0.5,0.5,1.1,0.8,1.8,0.8
			c0.5,0,0.9-0.1,1.3-0.3c0.4-0.2,0.7-0.5,0.9-0.8l0.9,0.7C948,889.8,947,890.4,945.6,890.4z M945.4,882.8c-0.6,0-1.1,0.2-1.5,0.6
			c-0.4,0.4-0.6,1-0.7,1.8h4.2v-0.1c0-0.7-0.2-1.3-0.6-1.7C946.5,883,946,882.8,945.4,882.8z"/>
		<path class="st16" d="M961.8,890.2h-7.5v-1l3.9-4.4c0.6-0.7,1-1.2,1.2-1.6c0.2-0.4,0.3-0.8,0.3-1.3c0-0.6-0.2-1.1-0.5-1.5
			s-0.8-0.6-1.4-0.6c-0.7,0-1.3,0.2-1.7,0.6s-0.6,1-0.6,1.7h-1.4c0-1,0.3-1.9,1-2.5c0.7-0.6,1.6-1,2.7-1c1.1,0,1.9,0.3,2.5,0.8
			c0.6,0.6,0.9,1.3,0.9,2.2c0,1.1-0.7,2.5-2.1,4l-3,3.3h5.7V890.2z"/>
	</g>
</g>
</svg>
