<svg xmlns="http://www.w3.org/2000/svg" width="202" height="447" viewBox="0 0 202 447">
  <g id="Grupo_60105" data-name="Grupo 60105" transform="translate(-1058 -3754)">
    <rect id="Rectángulo_32584" data-name="Rectángulo 32584" width="190" height="86" rx="18" transform="translate(1064 4115)" fill="#bbabf5"/>
    <text id="Mejora_en_la_actuación_de_los_empleados_" data-name="Mejora en la actuación de los empleados
" transform="translate(1078 4134)" fill="#12263f" font-size="16" font-family="Roboto-Regular, Roboto"><tspan x="0.496" y="17">Mejora en la actuación </tspan><tspan x="18.191" y="41">de los empleados</tspan></text>
    <g id="Grupo_60102" data-name="Grupo 60102" transform="matrix(0.602, -0.799, 0.799, 0.602, 1137.938, 3860.693)">
      <path id="Polígono_26" data-name="Polígono 26" d="M4.193,0,8.386,6.709H0Z" transform="matrix(-0.602, -0.799, 0.799, -0.602, 5.047, 27.096)" fill="#707070"/>
      <line id="Línea_175" data-name="Línea 175" x1="34.313" transform="matrix(-0.799, 0.602, -0.602, -0.799, 34.038, 0)" fill="none" stroke="#707070" stroke-width="1"/>
    </g>
    <g id="Grupo_60103" data-name="Grupo 60103" transform="matrix(0.602, -0.799, 0.799, 0.602, 1137.938, 3979.184)">
      <path id="Polígono_26-2" data-name="Polígono 26" d="M4.193,0,8.386,6.709H0Z" transform="matrix(-0.602, -0.799, 0.799, -0.602, 5.047, 27.096)" fill="#707070"/>
      <line id="Línea_175-2" data-name="Línea 175" x1="34.313" transform="matrix(-0.799, 0.602, -0.602, -0.799, 34.038, 0)" fill="none" stroke="#707070" stroke-width="1"/>
    </g>
    <g id="Grupo_60104" data-name="Grupo 60104" transform="matrix(0.602, -0.799, 0.799, 0.602, 1137.938, 4098.693)">
      <path id="Polígono_26-3" data-name="Polígono 26" d="M4.193,0,8.386,6.709H0Z" transform="matrix(-0.602, -0.799, 0.799, -0.602, 5.047, 27.096)" fill="#707070"/>
      <line id="Línea_175-3" data-name="Línea 175" x1="34.313" transform="matrix(-0.799, 0.602, -0.602, -0.799, 34.038, 0)" fill="none" stroke="#707070" stroke-width="1"/>
    </g>
    <rect id="Rectángulo_32581" data-name="Rectángulo 32581" width="190" height="86" rx="18" transform="translate(1064 3754)" fill="#472ea6"/>
    <text id="Mejores_resultados_económicos_" data-name="Mejores resultados económicos " transform="translate(1058 3775)" fill="#fff" font-size="16" font-family="Roboto-Regular, Roboto"><tspan x="-68.332" y="17">Mejores resultados </tspan><tspan x="-43.793" y="41">económicos </tspan></text>
    <rect id="Rectángulo_32582" data-name="Rectángulo 32582" width="190" height="86" rx="18" transform="translate(1064 3873)" fill="#bbabf5"/>
    <text id="Clientes_más_satisfechos_" data-name="Clientes más satisfechos
" transform="translate(1078 3894)" fill="#12263f" font-size="16" font-family="Roboto-Regular, Roboto"><tspan x="34.813" y="17">Clientes más </tspan><tspan x="39.547" y="41">satisfechos</tspan></text>
    <rect id="Rectángulo_32583" data-name="Rectángulo 32583" width="190" height="86" rx="18" transform="translate(1064 3993)" fill="#bbabf5"/>
    <text id="Mejora_de_procesos" data-name="Mejora de procesos" transform="translate(1078 4022)" fill="#12263f" font-size="16" font-family="Roboto-Regular, Roboto"><tspan x="10.773" y="17">Mejora de procesos</tspan></text>
  </g>
</svg>
