<svg xmlns="http://www.w3.org/2000/svg" width="505" height="261.429" viewBox="0 0 505 261.429">
  <g id="Grupo_60137" data-name="Grupo 60137" transform="translate(-84.355 -43.097)">
    <g id="Grupo_60106" data-name="Grupo 60106" transform="translate(516.682 120.398)">
      <path id="Trazado_126625" data-name="Trazado 126625" d="M607.676,156.2a.814.814,0,0,0-.382-.493.8.8,0,0,0-.617-.079L581.2,162.579l-1.346-26.12a.872.872,0,0,0,0-.4.849.849,0,0,0-.869-.633,28.241,28.241,0,1,0,16.274,52.235c.027-.013.055-.021.081-.037a.772.772,0,0,0,.126-.1,28.455,28.455,0,0,0,8.369-8.1.762.762,0,0,0,.094-.115.8.8,0,0,0,.075-.141,28.089,28.089,0,0,0,4.639-16.991A28.542,28.542,0,0,0,607.676,156.2Z" transform="translate(-552.197 -127.407)" fill="#ffa48a"/>
      <path id="Trazado_126626" data-name="Trazado 126626" d="M616.232,147.555a28.388,28.388,0,0,0-28.674-20.771h0a.864.864,0,0,0-.7.47.821.821,0,0,0-.088.41l1.41,27.365a.813.813,0,0,0,.854.771.845.845,0,0,0,.172-.029l26.452-7.22A.812.812,0,0,0,616.232,147.555Z" transform="translate(-554.822 -126.748)" fill="#56dacc"/>
    </g>
    <g id="Grupo_60107" data-name="Grupo 60107" transform="translate(156.954 153.416)">
      <path id="Trazado_126627" data-name="Trazado 126627" d="M263.131,202.076c0,15.942-9.939,27.538-24.225,32.921v.829c5.176,2.07,11.388,10.145,14.907,19.048l18.221,45.552a12.3,12.3,0,0,1,1.035,3.933c0,2.485-3.935,4.142-12.423,4.142h-8.489c-6,0-10.767-1.036-12.009-4.349l-16.357-40.374c-4.142-8.282-7.455-12.423-20.913-12.423H194.8v50.521c0,4.348-3.727,6.626-12.423,6.626h-7.039c-8.7,0-12.423-2.278-12.423-6.626V171.433c0-5.8,2.484-8.283,8.282-8.283h40.375C247.4,163.15,263.131,177.23,263.131,202.076Zm-68.328-11.8v33.543h19.671c8.489,0,15.943-7.868,15.943-17.806,0-9.525-6.626-15.736-17.393-15.736Z" transform="translate(-162.918 -162.53)" fill="#7dbeea"/>
      <path id="Trazado_126628" data-name="Trazado 126628" d="M383.24,173.5v6.418c0,7.248-1.863,10.353-6.211,10.353H331.478V220.5h44.1c4.349,0,6.212,3.106,6.212,10.353v6.419c0,7.247-1.863,10.353-6.212,10.353h-44.1v54.248c0,4.348-3.727,6.626-12.422,6.626h-7.04c-8.7,0-12.423-2.278-12.423-6.626V171.433c0-5.8,2.485-8.283,8.282-8.283H377.03C381.377,163.15,383.24,166.257,383.24,173.5Z" transform="translate(-173.293 -162.53)" fill="#7dbeea"/>
      <path id="Trazado_126629" data-name="Trazado 126629" d="M443.042,169.312V301.824c0,4.348-3.727,6.833-12.423,6.833h-7.247c-8.7,0-12.423-2.485-12.423-6.833V169.312c0-4.349,3.727-6.833,12.423-6.833h7.247C439.315,162.479,443.042,164.963,443.042,169.312Z" transform="translate(-181.747 -162.479)" fill="#7dbeea"/>
      <path id="Trazado_126630" data-name="Trazado 126630" d="M596.4,235.619c0,46.793-23.6,72.468-66.256,72.468H483.76c-5.8,0-8.282-2.485-8.282-8.283V171.433c0-5.8,2.485-8.283,8.282-8.283h46.38C572.793,163.15,596.4,188.825,596.4,235.619Zm-88.824-45.345v90.689H530.14c22.154,0,33.542-15.943,33.542-45.344s-11.388-45.345-33.542-45.345Z" transform="translate(-186.645 -162.53)" fill="#7dbeea"/>
    </g>
    <g id="Grupo_60109" data-name="Grupo 60109" transform="translate(307.067 84.51)">
      <path id="Trazado_126631" data-name="Trazado 126631" d="M357.543,142.156c.031-5.2-1.413-9.708-2.977-18.368-.533-2.955-.8-4.859-2.42-6.671s-3.6-2.429-5.69-3.074a17.234,17.234,0,0,0-11.437.035c-1.731.667-3.366,1.3-4.526,2.921-1.319,1.845-1.048,4.565-.454,9.929.992,8.956,1.209,10.8,1.031,13.445a31.86,31.86,0,0,1-1.5,7.726,44.655,44.655,0,0,0,18.192.871c3.126,1.03,5.629,1.337,6.667,1.009a3.114,3.114,0,0,0,1.134-.644,3.341,3.341,0,0,0,.712-1.248C357.833,143.95,357.543,142.157,357.543,142.156Zm-4.774-4.839c-.447,6.113-.685,7.994-.815,8.113-.034.03-.508.35-.511.351h0a2.134,2.134,0,0,1-.813.2,2.067,2.067,0,0,1-1.5-.923,35.711,35.711,0,0,1,.422-12.713,10.313,10.313,0,0,0,1.1-.723,10.17,10.17,0,0,0,.865-.728Z" transform="translate(-325.68 -89.821)" fill="#daf1fd"/>
      <path id="Trazado_126632" data-name="Trazado 126632" d="M345.567,146.65c-2.043-1.116-7.488-6.47-9.022-8.2-1.931-2.176-2.862-5.548-4.724-12.291-1.3-4.693-1.435-7.072-.254-9.143a7.16,7.16,0,0,1,2.047-2.239,7.052,7.052,0,0,0-3.122,2.352c-1.319,1.845-1.048,4.565-.454,9.929.992,8.956,1.209,10.8,1.031,13.445a31.86,31.86,0,0,1-1.5,7.726l2.621.2c.239-1.315.445-2.732.594-4.242a52.142,52.142,0,0,0,.235-6.31,44.235,44.235,0,0,0,6.114,6.411,17.1,17.1,0,0,0,5.079,3.2,15.2,15.2,0,0,0,1.746.557c.241-.083.541-.224.576-.447C346.6,147.194,345.755,146.752,345.567,146.65Z" transform="translate(-325.68 -89.951)" fill="#d3dee2" style="mix-blend-mode: multiply;isolation: isolate"/>
      <path id="Trazado_126633" data-name="Trazado 126633" d="M374.126,176.255c-.361-6.575-1.026-12.732-1.869-18.424q-2.8-.828-5.668-1.639c-.157-.044-2.872-.811-5.809-1.606-6.115-1.653-12.239-3.166-14.848-3.8a81.72,81.72,0,0,1-11,.485c-1.88-.043-3.678-.151-5.387-.3a13.462,13.462,0,0,0,.25,7.246c.718,2.189,1.954,3.716,4.426,6.769a48.569,48.569,0,0,0,5.677,6.041,49.893,49.893,0,0,0,7.872,5.745,38.245,38.245,0,0,0,.839,9.1,41.474,41.474,0,0,0,8.818,17.714,1.38,1.38,0,0,0,1.259.383,1.323,1.323,0,0,0,.944-.766q-2.071-14.342-4.141-28.685-2.129-4.556-4.26-9.112a52.6,52.6,0,0,0,14.358-1.213,23.928,23.928,0,0,0-.554,3.412c-.481,5.429,1.042,9.645,2.587,13.779a56.536,56.536,0,0,0,4.537,9.368,1.374,1.374,0,0,0,1.587.783,1.138,1.138,0,0,0,.656-.741C374.479,186.2,374.407,181.348,374.126,176.255Z" transform="translate(-325.65 -92.684)" fill="#4f6772"/>
      <path id="Trazado_126634" data-name="Trazado 126634" d="M377.755,199.08a11.746,11.746,0,0,0,5.563,2.645.84.84,0,0,0,.189-.747,1.476,1.476,0,0,0-.35-.616c-1.271-1.506-3.091-2.3-4.638-3.445-.49-.361-1.373-.917-1.783.14C376.376,197.988,377.213,198.676,377.755,199.08Z" transform="translate(-329.255 -96.151)" fill="#4f6772"/>
      <path id="Trazado_126635" data-name="Trazado 126635" d="M360.911,211.391a9.039,9.039,0,0,0,2.879,4.657.963.963,0,0,0,.612-.5,1.246,1.246,0,0,0,.1-.644c-.1-1.767-1.089-3.236-1.638-4.849-.174-.51-.548-1.355-1.529-.722A1.6,1.6,0,0,0,360.911,211.391Z" transform="translate(-328.046 -97.112)" fill="#4f6772"/>
      <path id="Trazado_126636" data-name="Trazado 126636" d="M346.046,148.174a2.087,2.087,0,0,0,1.163,2.286,1.512,1.512,0,0,1,.562.344,1.147,1.147,0,0,1,.187.448q.215.836.431,1.671a.76.76,0,0,0,.2.4.77.77,0,0,0,.576.105l1.761-.148a.644.644,0,0,0,.357-.1.622.622,0,0,0,.134-.167,24.634,24.634,0,0,0,1.949-3.8c.3-.727.53-1.646,0-2.228a1.54,1.54,0,0,0-1.209-.431,6.821,6.821,0,0,0-1.3.25,11.966,11.966,0,0,1-3.041.155A1.708,1.708,0,0,0,346.046,148.174Z" transform="translate(-326.928 -92.364)" fill="#ffd092"/>
      <path id="Trazado_126637" data-name="Trazado 126637" d="M358.775,203.7a56.905,56.905,0,0,1-8.762-26.253,3.112,3.112,0,0,0-1.387-2.734,121.061,121.061,0,0,1-11.39-12.179c-1.967-2.35-3.981-4.908-4.815-7.912-.216-.778,0-2.546-.258-3.445q-1.354-.078-2.621-.2a13.462,13.462,0,0,0,.25,7.246c.718,2.189,1.954,3.716,4.426,6.769a48.569,48.569,0,0,0,5.677,6.041,49.893,49.893,0,0,0,7.872,5.745,38.245,38.245,0,0,0,.839,9.1,41.474,41.474,0,0,0,8.818,17.714,1.38,1.38,0,0,0,1.259.383,1.271,1.271,0,0,0,.213-.064C358.859,203.838,358.818,203.768,358.775,203.7Z" transform="translate(-325.65 -92.699)" fill="#d3dee2" style="mix-blend-mode: multiply;isolation: isolate"/>
      <path id="Trazado_126638" data-name="Trazado 126638" d="M370.362,179.683a58.435,58.435,0,0,1-1.017-8.408,53.089,53.089,0,0,1,.4-9.021,46.045,46.045,0,0,1-19.333-.626q.57,1.019,1.138,2.086.676,1.27,1.293,2.505A52.786,52.786,0,0,0,367.2,165a23.928,23.928,0,0,0-.554,3.412c-.481,5.429,1.042,9.645,2.587,13.779a56.536,56.536,0,0,0,4.537,9.368,1.494,1.494,0,0,0,.237.346A64.258,64.258,0,0,1,370.362,179.683Z" transform="translate(-327.264 -93.508)" fill="#d3dee2" style="mix-blend-mode: multiply;isolation: isolate"/>
      <path id="Trazado_126639" data-name="Trazado 126639" d="M354.321,96.9a7.406,7.406,0,0,1-.8,2.124,5.266,5.266,0,0,1-4.148,2.126l.194-2.925a1.556,1.556,0,0,1,.168-.724c.3-.489.992-.487,1.562-.567a4.224,4.224,0,0,0,2.829-2.3,4.3,4.3,0,0,0,.5-1.655,7.157,7.157,0,0,1,.134,1.54A11.879,11.879,0,0,1,354.321,96.9Z" transform="translate(-327.185 -88.296)" fill="#936522"/>
      <path id="Trazado_126640" data-name="Trazado 126640" d="M354.321,96.9a7.406,7.406,0,0,1-.8,2.124,5.266,5.266,0,0,1-4.148,2.126l.194-2.925a1.556,1.556,0,0,1,.168-.724c.3-.489.992-.487,1.562-.567a4.224,4.224,0,0,0,2.829-2.3,4.3,4.3,0,0,0,.5-1.655,7.157,7.157,0,0,1,.134,1.54A11.879,11.879,0,0,1,354.321,96.9Z" transform="translate(-327.185 -88.296)" fill="#d3dee2" style="mix-blend-mode: multiply;isolation: isolate"/>
      <path id="Trazado_126641" data-name="Trazado 126641" d="M345.278,91.384h0a6.35,6.35,0,0,0-7.979,4.123l-1.39,4.364a6.35,6.35,0,0,0,4.122,7.979h0a6.351,6.351,0,0,0,7.979-4.123l1.391-4.364A6.351,6.351,0,0,0,345.278,91.384Z" transform="translate(-326.14 -88.152)" fill="#ffd092"/>
      <path id="Trazado_126642" data-name="Trazado 126642" d="M352.544,91.985a4.352,4.352,0,0,0-2.5-1.576c-1.558-.566-2.405-.35-3.849-.615-3.286-.6-3.481-1.823-5.628-1.881a7.886,7.886,0,0,0-5.443,2.377,27.556,27.556,0,0,0-3.429,5.033,13.233,13.233,0,0,1-3.99,4.553,6.9,6.9,0,0,0-1.786,1.281c-1.1,1.341-.4,3.389.677,4.764a11.24,11.24,0,0,0,9.222,4.213,4.57,4.57,0,0,0,2.675-.675,4.382,4.382,0,0,0,1.421-2.743c1.4-5.971,1.278-7.1,2.439-8.389a5.528,5.528,0,0,1,2.992-1.764c2.628-.49,3.932,1.343,5.607.589A4.074,4.074,0,0,0,352.544,91.985Z" transform="translate(-325.362 -87.912)" fill="#936522"/>
      <path id="Trazado_126643" data-name="Trazado 126643" d="M355.274,128.529a12.858,12.858,0,0,0-3.423-5.865c.157,1.931,1.831,3.422,2.263,5.311a4.358,4.358,0,0,1-.744,3.524l-.147.192,1.239,6.355c-.018.243-.035.469-.052.7.389.408.785-.033,1.363-.3a6.069,6.069,0,0,0,1.411-.731.816.816,0,0,0,.265-.33c.2-.579-.656-1.3-.74-1.37-.1-.478-.243-1.2-.415-2.077C355.6,130.4,355.493,129.427,355.274,128.529Z" transform="translate(-327.373 -90.55)" fill="#d3dee2" style="mix-blend-mode: multiply;isolation: isolate"/>
      <path id="Trazado_126644" data-name="Trazado 126644" d="M341.564,89.342c1.31.088,2.623.411,3.937.526a10.491,10.491,0,0,0,1.351.02c-.21-.023-.425-.051-.661-.094-3.286-.6-3.481-1.823-5.628-1.881a7.886,7.886,0,0,0-5.443,2.377,27.556,27.556,0,0,0-3.429,5.033,13.233,13.233,0,0,1-3.99,4.553,6.9,6.9,0,0,0-1.786,1.281c-1.1,1.341-.4,3.389.677,4.764a10.9,10.9,0,0,0,3.281,2.781,7.272,7.272,0,0,1-1.429-3.452,5.532,5.532,0,0,1,.264-3.037,10.184,10.184,0,0,1,2.522-2.9,13.757,13.757,0,0,0,2.43-3.2c.962-1.751,1.6-3.786,3.157-5.038a9.851,9.851,0,0,1,2.291-1.25,4.755,4.755,0,0,1,1.966-.538A2.793,2.793,0,0,1,341.564,89.342Z" transform="translate(-325.362 -87.912)" fill="#d3dee2" style="mix-blend-mode: multiply;isolation: isolate"/>
      <path id="Trazado_126645" data-name="Trazado 126645" d="M346.075,113.771a17.106,17.106,0,0,0-9.234-.11,13.326,13.326,0,0,1,4.767,3.774,13.179,13.179,0,0,1,2.08,3.777,24.949,24.949,0,0,0,2.387-7.441Z" transform="translate(-326.233 -89.822)" fill="#ffd092"/>
      <g id="Grupo_60108" data-name="Grupo 60108" transform="translate(21.57 41.959)" style="mix-blend-mode: multiply;isolation: isolate">
        <path id="Trazado_126646" data-name="Trazado 126646" d="M350.426,145.387A35.631,35.631,0,0,1,351,133.881c.273-.154.569-.347.875-.563a3.675,3.675,0,0,1-3.174.092,1.867,1.867,0,0,0,.521.639,1.846,1.846,0,0,0,.592.308,27.344,27.344,0,0,0,.609,11.03Z" transform="translate(-348.704 -133.318)" fill="#d3dee2"/>
        <path id="Trazado_126647" data-name="Trazado 126647" d="M351.083,148.086l-.017-.015.015.046Z" transform="translate(-348.883 -134.438)" fill="#d3dee2"/>
      </g>
      <path id="Trazado_126648" data-name="Trazado 126648" d="M353.388,134.99q-1.73,8.119-3.461,16.237l-11.806.371.081,2.582,11.17-.351,27.93-.879,4.145-18.843Z" transform="translate(-326.331 -91.418)" fill="#249fe2"/>
      <path id="Trazado_126649" data-name="Trazado 126649" d="M338.121,151.668l11.887-.375q1.691-8.117,3.38-16.233l1.138-.034-3.964,18.826-12.36.4Z" transform="translate(-326.331 -91.488)" fill="#d3dee2" style="mix-blend-mode: multiply;isolation: isolate"/>
    </g>
    <g id="Grupo_60112" data-name="Grupo 60112" transform="translate(177.98 126.956)">
      <g id="Grupo_60110" data-name="Grupo 60110" transform="translate(0 0)">
        <rect id="Rectángulo_32585" data-name="Rectángulo 32585" width="34.043" height="34.043" rx="9.02" fill="#69d869"/>
      </g>
      <g id="Grupo_60111" data-name="Grupo 60111" transform="translate(3.145 7.54)">
        <path id="Trazado_126650" data-name="Trazado 126650" d="M199.77,162.006c-.038,0-.076,0-.114,0a2.305,2.305,0,0,1-1.718-.9l-8.386-10.925a2.308,2.308,0,1,1,3.661-2.812l6.73,8.768,12.545-13.4a2.309,2.309,0,0,1,3.37,3.157l-14.4,15.383A2.306,2.306,0,0,1,199.77,162.006Z" transform="translate(-189.075 -142.005)" fill="#3d9e3d"/>
      </g>
    </g>
    <g id="Grupo_60115" data-name="Grupo 60115" transform="translate(164.603 226.671)">
      <rect id="Rectángulo_32586" data-name="Rectángulo 32586" width="26.754" height="72.78" rx="2.316" transform="translate(0)" fill="#73a0df"/>
      <path id="Trazado_126651" data-name="Trazado 126651" d="M185.374,254.25a3.682,3.682,0,1,1,3.682-3.682A3.682,3.682,0,0,1,185.374,254.25Z" transform="translate(-171.992 -242.141)" fill="#ffa48a"/>
      <g id="Grupo_60113" data-name="Grupo 60113" transform="translate(3.087 38.008)">
        <path id="Trazado_126652" data-name="Trazado 126652" d="M194.327,287.16a2.139,2.139,0,1,1,2.139-2.139A2.14,2.14,0,0,1,194.327,287.16Z" transform="translate(-175.875 -282.881)" fill="#5f97cc"/>
        <path id="Trazado_126653" data-name="Trazado 126653" d="M194.327,293.044a2.139,2.139,0,1,1,2.139-2.139A2.139,2.139,0,0,1,194.327,293.044Z" transform="translate(-175.875 -283.328)" fill="#5f97cc"/>
        <path id="Trazado_126654" data-name="Trazado 126654" d="M194.327,298.928a2.139,2.139,0,1,1,2.139-2.139A2.139,2.139,0,0,1,194.327,298.928Z" transform="translate(-175.875 -283.774)" fill="#5f97cc"/>
        <path id="Trazado_126655" data-name="Trazado 126655" d="M194.327,304.813a2.139,2.139,0,1,1,2.139-2.139A2.14,2.14,0,0,1,194.327,304.813Z" transform="translate(-175.875 -284.221)" fill="#5f97cc"/>
        <path id="Trazado_126656" data-name="Trazado 126656" d="M194.327,310.7a2.139,2.139,0,1,1,2.139-2.139A2.139,2.139,0,0,1,194.327,310.7Z" transform="translate(-175.875 -284.668)" fill="#5f97cc"/>
        <path id="Trazado_126657" data-name="Trazado 126657" d="M194.327,316.581a2.139,2.139,0,1,1,2.139-2.139A2.139,2.139,0,0,1,194.327,316.581Z" transform="translate(-175.875 -285.115)" fill="#5f97cc"/>
        <path id="Trazado_126658" data-name="Trazado 126658" d="M188.443,287.16a2.139,2.139,0,1,1,2.139-2.139A2.139,2.139,0,0,1,188.443,287.16Z" transform="translate(-175.428 -282.881)" fill="#5f97cc"/>
        <path id="Trazado_126659" data-name="Trazado 126659" d="M188.443,293.044a2.139,2.139,0,1,1,2.139-2.139A2.139,2.139,0,0,1,188.443,293.044Z" transform="translate(-175.428 -283.328)" fill="#5f97cc"/>
        <path id="Trazado_126660" data-name="Trazado 126660" d="M188.443,298.928a2.139,2.139,0,1,1,2.139-2.139A2.139,2.139,0,0,1,188.443,298.928Z" transform="translate(-175.428 -283.774)" fill="#5f97cc"/>
        <path id="Trazado_126661" data-name="Trazado 126661" d="M188.443,304.813a2.139,2.139,0,1,1,2.139-2.139A2.139,2.139,0,0,1,188.443,304.813Z" transform="translate(-175.428 -284.221)" fill="#5f97cc"/>
        <path id="Trazado_126662" data-name="Trazado 126662" d="M188.443,310.7a2.139,2.139,0,1,1,2.139-2.139A2.139,2.139,0,0,1,188.443,310.7Z" transform="translate(-175.428 -284.668)" fill="#5f97cc"/>
        <path id="Trazado_126663" data-name="Trazado 126663" d="M188.443,316.581a2.139,2.139,0,1,1,2.139-2.139A2.139,2.139,0,0,1,188.443,316.581Z" transform="translate(-175.428 -285.115)" fill="#5f97cc"/>
        <path id="Trazado_126664" data-name="Trazado 126664" d="M182.558,287.16a2.139,2.139,0,1,1,2.139-2.139A2.139,2.139,0,0,1,182.558,287.16Z" transform="translate(-174.982 -282.881)" fill="#5f97cc"/>
        <path id="Trazado_126665" data-name="Trazado 126665" d="M182.558,293.044A2.139,2.139,0,1,1,184.7,290.9,2.139,2.139,0,0,1,182.558,293.044Z" transform="translate(-174.982 -283.328)" fill="#5f97cc"/>
        <path id="Trazado_126666" data-name="Trazado 126666" d="M182.558,298.928a2.139,2.139,0,1,1,2.139-2.139A2.139,2.139,0,0,1,182.558,298.928Z" transform="translate(-174.982 -283.774)" fill="#5f97cc"/>
        <path id="Trazado_126667" data-name="Trazado 126667" d="M182.558,304.813a2.139,2.139,0,1,1,2.139-2.139A2.139,2.139,0,0,1,182.558,304.813Z" transform="translate(-174.982 -284.221)" fill="#5f97cc"/>
        <path id="Trazado_126668" data-name="Trazado 126668" d="M182.558,310.7a2.139,2.139,0,1,1,2.139-2.139A2.139,2.139,0,0,1,182.558,310.7Z" transform="translate(-174.982 -284.668)" fill="#5f97cc"/>
        <path id="Trazado_126669" data-name="Trazado 126669" d="M182.558,316.581a2.139,2.139,0,1,1,2.139-2.139A2.139,2.139,0,0,1,182.558,316.581Z" transform="translate(-174.982 -285.115)" fill="#5f97cc"/>
        <path id="Trazado_126670" data-name="Trazado 126670" d="M176.674,287.16a2.139,2.139,0,1,1,2.139-2.139A2.14,2.14,0,0,1,176.674,287.16Z" transform="translate(-174.535 -282.881)" fill="#5f97cc"/>
        <path id="Trazado_126671" data-name="Trazado 126671" d="M176.674,293.044a2.139,2.139,0,1,1,2.139-2.139A2.139,2.139,0,0,1,176.674,293.044Z" transform="translate(-174.535 -283.328)" fill="#5f97cc"/>
        <path id="Trazado_126672" data-name="Trazado 126672" d="M176.674,298.928a2.139,2.139,0,1,1,2.139-2.139A2.139,2.139,0,0,1,176.674,298.928Z" transform="translate(-174.535 -283.774)" fill="#5f97cc"/>
        <path id="Trazado_126673" data-name="Trazado 126673" d="M176.674,304.813a2.139,2.139,0,1,1,2.139-2.139A2.14,2.14,0,0,1,176.674,304.813Z" transform="translate(-174.535 -284.221)" fill="#5f97cc"/>
        <path id="Trazado_126674" data-name="Trazado 126674" d="M176.674,310.7a2.139,2.139,0,1,1,2.139-2.139A2.139,2.139,0,0,1,176.674,310.7Z" transform="translate(-174.535 -284.668)" fill="#5f97cc"/>
        <path id="Trazado_126675" data-name="Trazado 126675" d="M176.674,316.581a2.139,2.139,0,1,1,2.139-2.139A2.139,2.139,0,0,1,176.674,316.581Z" transform="translate(-174.535 -285.115)" fill="#5f97cc"/>
      </g>
      <g id="Grupo_60114" data-name="Grupo 60114" transform="translate(4.41 14.561)">
        <path id="Trazado_126676" data-name="Trazado 126676" d="M191.773,275.161H178.106a2.14,2.14,0,0,0-2.139,2.139h0a2.139,2.139,0,0,0,2.139,2.139h13.666a2.139,2.139,0,0,0,2.139-2.139h0A2.14,2.14,0,0,0,191.773,275.161Z" transform="translate(-175.967 -258.848)" fill="#a0e573"/>
        <path id="Trazado_126677" data-name="Trazado 126677" d="M191.773,269.277H178.106a2.139,2.139,0,0,0-2.139,2.139h0a2.14,2.14,0,0,0,2.139,2.139h13.666a2.14,2.14,0,0,0,2.139-2.139h0A2.139,2.139,0,0,0,191.773,269.277Z" transform="translate(-175.967 -258.402)" fill="#a0e573"/>
        <path id="Trazado_126678" data-name="Trazado 126678" d="M191.773,263.393H178.106a2.139,2.139,0,0,0-2.139,2.139h0a2.139,2.139,0,0,0,2.139,2.138h13.666a2.139,2.139,0,0,0,2.139-2.138h0A2.139,2.139,0,0,0,191.773,263.393Z" transform="translate(-175.967 -257.955)" fill="#a0e573"/>
        <rect id="Rectángulo_32587" data-name="Rectángulo 32587" width="17.944" height="4.278" rx="2.139" transform="translate(0)" fill="#a0e573"/>
      </g>
    </g>
    <g id="Grupo_60124" data-name="Grupo 60124" transform="translate(500.493 208.644)">
      <g id="Grupo_60122" data-name="Grupo 60122">
        <g id="Grupo_60116" data-name="Grupo 60116" transform="translate(0 10.94)">
          <path id="Trazado_126679" data-name="Trazado 126679" d="M541.058,246.842a6.379,6.379,0,1,0-6.38-6.379A6.38,6.38,0,0,0,541.058,246.842Z" transform="translate(-534.678 -234.083)" fill="#ffcb51"/>
        </g>
        <g id="Grupo_60117" data-name="Grupo 60117" transform="translate(12.365 16.358)">
          <path id="Trazado_126680" data-name="Trazado 126680" d="M591.774,261.893H582.49c-9.338,0-13.741-5.274-18-10.375-4.142-4.962-8.055-9.648-16.431-9.648v-1.924c9.276,0,13.664,5.256,17.909,10.34,4.157,4.98,8.085,9.684,16.523,9.684h9.283Z" transform="translate(-548.059 -239.946)" fill="#ffcb51"/>
        </g>
        <g id="Grupo_60118" data-name="Grupo 60118" transform="translate(12.365 5.417)">
          <path id="Trazado_126681" data-name="Trazado 126681" d="M548.059,240.971v-1.924c5.047,0,7.417-2.506,9.926-5.16,2.687-2.842,5.466-5.781,11.38-5.781h5.744v1.924h-5.744c-5.085,0-7.464,2.515-9.982,5.179C556.7,238.042,553.934,240.971,548.059,240.971Z" transform="translate(-548.059 -228.106)" fill="#ffcb51"/>
        </g>
        <g id="Grupo_60119" data-name="Grupo 60119" transform="translate(33.036)">
          <circle id="Elipse_4165" data-name="Elipse 4165" cx="6.379" cy="6.379" r="6.379" fill="#ffcb51"/>
        </g>
        <g id="Grupo_60120" data-name="Grupo 60120" transform="translate(50.073 30.964)">
          <circle id="Elipse_4166" data-name="Elipse 4166" cx="6.379" cy="6.379" r="6.379" fill="#ffcb51"/>
        </g>
        <g id="Grupo_60121" data-name="Grupo 60121" transform="translate(76.103 0)">
          <path id="Trazado_126682" data-name="Trazado 126682" d="M623.412,235a6.379,6.379,0,1,0-6.379-6.38A6.38,6.38,0,0,0,623.412,235Z" transform="translate(-617.033 -222.244)" fill="#ffcb51"/>
        </g>
      </g>
      <g id="Grupo_60123" data-name="Grupo 60123" transform="translate(39.415 5.417)">
        <rect id="Rectángulo_32588" data-name="Rectángulo 32588" width="43.067" height="1.924" fill="#ffcb51"/>
      </g>
    </g>
    <g id="Grupo_60126" data-name="Grupo 60126" transform="translate(84.355 168.114)">
      <path id="Trazado_126683" data-name="Trazado 126683" d="M165.081,190.314a1.206,1.206,0,0,0-1.119,0c-13.324,9.3-23.595,10.952-30.638,10.652-4.859-.208-11.787-1.5-21.452.8-3.821.908-6.877,1.634-10.5,3.781-12.043,7.131-15.47,21.109-16.175,23.983a42.364,42.364,0,0,0-.838,4.428,35.158,35.158,0,0,0,21.993,9.643,1.621,1.621,0,0,0,.92-.973,1.6,1.6,0,0,0-.394-1.592A37.938,37.938,0,0,1,96.4,232.137a28,28,0,0,1,6.448-6.844q2.094,5.377,4.388,10.9,1.45,3.483,2.917,6.87c-1.772,12.215-3.154,25.473-3.865,39.665-.415,8.281-.571,16.245-.524,23.866.008.041.18.853.786,1.057a1.536,1.536,0,0,0,1.769-1.256q2.957-9.7,5.744-20.086,3.282-12.262,5.874-23.856a238.181,238.181,0,0,0,7.252,22.854c2.769,7.406,5.713,14.156,8.649,20.229a1.229,1.229,0,0,0,1.573.859,1.138,1.138,0,0,0,.393-1.19c-.542-9.4-1.457-19.459-2.882-30.079-1.3-9.663-2.882-18.764-4.632-27.275l1.643-.129c-.93-7.615-.278-12.8.56-16.228.179-.735.513-1.978,1.029-4.157q1.266-5.346,2.17-10.349a35.491,35.491,0,0,0,17.852-7.414,36.2,36.2,0,0,0,12.082-18.061A1.167,1.167,0,0,0,165.081,190.314Z" transform="translate(-84.355 -179.279)" fill="#4f6772"/>
      <path id="Trazado_126684" data-name="Trazado 126684" d="M172.393,182.352c-.831.428-1.022,1.583-1.216,2.752a4.423,4.423,0,0,0-.111,1.525,3.946,3.946,0,0,0,2.9,2.831,4.1,4.1,0,0,0,3.817-.91,2.682,2.682,0,0,0,.988-1.921c-.01-.224-.053-.15-.736-1.71a2.465,2.465,0,0,0-.7-1.115,1.771,1.771,0,0,0-.811-.335c.583-1.041,1.1-1.84,1.464-2.368.723-1.058,1.28-1.731,1.043-2.281a.74.74,0,0,0-.443-.408c-.512-.158-1.1.433-1.394.724-.854.847-1.95,1.886-3.324,3.18A1.885,1.885,0,0,0,172.393,182.352Z" transform="translate(-90.935 -178.384)" fill="#ffd092"/>
      <path id="Trazado_126685" data-name="Trazado 126685" d="M107.44,319.953a12.345,12.345,0,0,0-2.582,2.7,3.906,3.906,0,0,0-1.088,2.784,1.818,1.818,0,0,0,1.649-.5,19.4,19.4,0,0,0,2.79-2.551c.489-.543,1.482-1.686,1.086-2.507C108.913,319.094,107.96,319.584,107.44,319.953Z" transform="translate(-85.827 -189.094)" fill="#4f6772"/>
      <path id="Trazado_126686" data-name="Trazado 126686" d="M143.3,318.19a12.345,12.345,0,0,1,2.582,2.7,3.908,3.908,0,0,1,1.088,2.784,1.819,1.819,0,0,1-1.649-.5,19.465,19.465,0,0,1-2.79-2.551c-.489-.543-1.482-1.686-1.086-2.507C141.828,317.331,142.781,317.821,143.3,318.19Z" transform="translate(-88.682 -188.96)" fill="#4f6772"/>
      <g id="Grupo_60125" data-name="Grupo 60125" transform="translate(24.338 0.076)">
        <path id="Trazado_126687" data-name="Trazado 126687" d="M112.54,181.547a3.524,3.524,0,0,1,.094-.991,2.431,2.431,0,0,1,1.257-1.4,4.853,4.853,0,0,1,1.872-.539c4.37-.323,4.553,0,7.718-.062a2.887,2.887,0,0,1,1.715.3c.544.337,1,.984,1.294,2.806a15.636,15.636,0,0,1-.056,5.171,1.987,1.987,0,0,1-.29.818,2.5,2.5,0,0,1-1.254.911,14.594,14.594,0,0,1-3.4.828c-1.517.24-3.037.469-4.567.609a10.114,10.114,0,0,1-2.931-.052c-.4-.08-.73-.115-.92-.444a4.969,4.969,0,0,1-.189-1.58A61.972,61.972,0,0,1,112.54,181.547Z" transform="translate(-110.832 -178.467)" fill="#c96c27"/>
        <path id="Trazado_126688" data-name="Trazado 126688" d="M124.587,181.424a13.083,13.083,0,0,1-4.392,3.823c-1.808.983-4.547,2.237-6.762,2.025v1.31a2.3,2.3,0,1,0-.462,4.55,2.235,2.235,0,0,0,.917-.2,6.471,6.471,0,0,0,12.513-2.385v-4.6A6.545,6.545,0,0,0,124.587,181.424Z" transform="translate(-110.692 -178.691)" fill="#ffd092"/>
        <path id="Trazado_126689" data-name="Trazado 126689" d="M117.6,195.574a4.636,4.636,0,0,1-1.077-1.923,27.925,27.925,0,0,1-1.084-6.235,14.736,14.736,0,0,0,2.117-.733,15.046,15.046,0,0,0,4.009-2.563,19.349,19.349,0,0,1-6.27,2.414,24.082,24.082,0,0,1-.243-6.365,2.477,2.477,0,0,1,.349-1.228,1.374,1.374,0,0,1,.35-.325l-.125.009a4.853,4.853,0,0,0-1.872.539,2.431,2.431,0,0,0-1.257,1.4,3.524,3.524,0,0,0-.094.991,61.972,61.972,0,0,0,.347,6.374c.012.114.016.256.019.409a2.294,2.294,0,0,0,.205,4.577,2.235,2.235,0,0,0,.917-.2,6.506,6.506,0,0,0,6.03,4.157,6.292,6.292,0,0,0,.89-.07,7.3,7.3,0,0,1-.919-.1A4.2,4.2,0,0,1,117.6,195.574Z" transform="translate(-110.692 -178.478)" fill="#d3dee2" style="mix-blend-mode: multiply;isolation: isolate"/>
      </g>
      <path id="Trazado_126690" data-name="Trazado 126690" d="M113.876,202.6c-.732.169-1.593.383-1.593.383-.518.128-1.025.256-1.524.389q2.027,3.779,4.365,7.727c2.391,4.024,4.809,7.777,7.2,11.263,1.692-3.9,3.36-8.012,4.969-12.338q1.63-4.382,3.013-8.577a58.986,58.986,0,0,0-10.591.127C117.49,201.841,114.829,202.38,113.876,202.6Z" transform="translate(-86.359 -180.121)" fill="#daf1fd"/>
      <path id="Trazado_126691" data-name="Trazado 126691" d="M125.08,220.158q-.972-6.153-1.944-12.307l1.284-.813-2.246-2.1q-.84,1.155-1.681,2.31l1.307.659q-.367,6.253-.734,12.506a2.376,2.376,0,0,0,1.942,2.59A2.4,2.4,0,0,0,125.08,220.158Z" transform="translate(-87.098 -180.4)" fill="#4f6772"/>
      <path id="Trazado_126692" data-name="Trazado 126692" d="M120.213,201.361a49.038,49.038,0,0,0-8.342,1.247c-3.821.907-6.877,1.634-10.5,3.781C89.326,213.52,85.9,227.5,85.193,230.372a42.364,42.364,0,0,0-.838,4.428,35.554,35.554,0,0,0,6.925,5.137,21.46,21.46,0,0,1-5.221-5.339,38.963,38.963,0,0,1,21.127-28.917A43.021,43.021,0,0,1,120.213,201.361Z" transform="translate(-84.355 -180.129)" fill="#d3dee2" style="mix-blend-mode: multiply;isolation: isolate"/>
      <path id="Trazado_126693" data-name="Trazado 126693" d="M113.582,245.952q-1.388-3.047-2.729-6.34c-1.8-4.449-3.32-8.741-4.6-12.823l-1.89,1.284q2.094,5.377,4.388,10.9,1.45,3.483,2.917,6.87C112.3,245.882,112.937,245.919,113.582,245.952Z" transform="translate(-85.874 -182.059)" fill="#d3dee2" style="mix-blend-mode: multiply;isolation: isolate"/>
      <path id="Trazado_126694" data-name="Trazado 126694" d="M162.962,202.368a33.29,33.29,0,0,1-16.426,10.682,30.574,30.574,0,0,1-6.017,1.017l-.613,3.037a35.492,35.492,0,0,0,17.852-7.414A36.184,36.184,0,0,0,169.8,191.765,70.551,70.551,0,0,1,162.962,202.368Z" transform="translate(-88.572 -179.4)" fill="#d3dee2" style="mix-blend-mode: multiply;isolation: isolate"/>
      <path id="Trazado_126695" data-name="Trazado 126695" d="M175.046,189.91a4.409,4.409,0,0,1-2.634-2.128,4.472,4.472,0,0,1,.077-4.231,1.281,1.281,0,0,1,.322-.4c.246-.184.893-.254,1.042-.526a1.879,1.879,0,0,0-1.459.041c-.831.428-1.022,1.583-1.216,2.752a4.423,4.423,0,0,0-.111,1.525,3.946,3.946,0,0,0,2.9,2.831A4.121,4.121,0,0,0,175.046,189.91Z" transform="translate(-90.935 -178.697)" fill="#d3dee2" style="mix-blend-mode: multiply;isolation: isolate"/>
      <path id="Trazado_126696" data-name="Trazado 126696" d="M123.048,254.044q.17-2.241.34-4.484l-1.362,3.008c-1.111.117-2.306.2-3.575.227-.808.017-1.585.01-2.327-.015a14.343,14.343,0,0,0-.436-2.093,3.97,3.97,0,0,0-.872-1.832,2.9,2.9,0,0,0-.726-.541q-.355-.209-.747-.417-.484-.256-.941-.465c-.161-.01-.329-.018-.49-.029-1.772,12.215-3.154,25.473-3.865,39.665-.415,8.281-.571,16.245-.524,23.866.008.041.18.853.786,1.057a1,1,0,0,0,.519.024q.259-6.674.632-13.472,1.254-22.821,3.6-44.216,2.677.033,5.562-.056Q120.9,254.195,123.048,254.044Z" transform="translate(-86.113 -183.624)" fill="#d3dee2" style="mix-blend-mode: multiply;isolation: isolate"/>
      <path id="Trazado_126697" data-name="Trazado 126697" d="M109.78,251.2a.555.555,0,0,0,.479.639,42.18,42.18,0,0,0,5.244,1.4,15.874,15.874,0,0,0-.383-2.94c-.314-1.381-.492-2.113-1.132-2.7a3.3,3.3,0,0,0-2.025-.808l-.756-1.687a1.433,1.433,0,0,0-.63.3c-.421.36-.428.869-.564,1.78A22.275,22.275,0,0,0,109.78,251.2Z" transform="translate(-86.284 -183.449)" fill="#ffd092"/>
      <path id="Trazado_126698" data-name="Trazado 126698" d="M134.162,298.027a256.316,256.316,0,0,1-9.842-30.905q.111-1.184.221-2.368l-.773,1.545-.907,1.811c.884,3.365,1.944,7.1,3.218,11.136,2.134,6.763,2.083,6.494,4.035,11.717,2.769,7.406,5.713,14.156,8.649,20.229a1.312,1.312,0,0,0,1.389.929C138.1,307.678,136.092,302.979,134.162,298.027Z" transform="translate(-87.278 -184.941)" fill="#d3dee2" style="mix-blend-mode: multiply;isolation: isolate"/>
    </g>
    <g id="Grupo_60131" data-name="Grupo 60131" transform="translate(259.587 43.097)">
      <g id="Grupo_60127" data-name="Grupo 60127" transform="translate(109.809 40.935)">
        <path id="Trazado_126699" data-name="Trazado 126699" d="M397.858,97.488a5.046,5.046,0,1,0-5.046-5.046A5.046,5.046,0,0,0,397.858,97.488Z" transform="translate(-392.812 -87.395)" fill="#ffcb51"/>
      </g>
      <g id="Grupo_60128" data-name="Grupo 60128" transform="translate(14.135 70.726)">
        <circle id="Elipse_4167" data-name="Elipse 4167" cx="5.046" cy="5.046" r="5.046" transform="translate(0 0)" fill="#ffcb51"/>
      </g>
      <g id="Grupo_60129" data-name="Grupo 60129" transform="translate(27.455 13.646)">
        <path id="Trazado_126700" data-name="Trazado 126700" d="M308.738,67.957a5.046,5.046,0,1,0-5.046-5.046A5.046,5.046,0,0,0,308.738,67.957Z" transform="translate(-303.692 -57.864)" fill="#ffcb51"/>
      </g>
      <g id="Grupo_60130" data-name="Grupo 60130" transform="translate(18.281 17.495)">
        <path id="Trazado_126701" data-name="Trazado 126701" d="M295.566,121.986l-1.8-.41L307.31,62.029l83.32,27.609-.581,1.754L308.66,64.424Z" transform="translate(-293.764 -62.029)" fill="#ffcb51"/>
      </g>
      <path id="Trazado_126702" data-name="Trazado 126702" d="M397.972,80.273a11.483,11.483,0,0,0-2.656.323,22.321,22.321,0,0,1-1,2.774,9.284,9.284,0,0,1,10.781,14.5c1.042-.17,2.087-.327,3.131-.48a11.626,11.626,0,0,0-10.252-17.112Z" transform="translate(-283.117 -45.919)" fill="#ffcb51"/>
      <path id="Trazado_126703" data-name="Trazado 126703" d="M412.626,91.358a14.5,14.5,0,0,1-1.018,5.325q2.06-.348,4.106-.761a18.25,18.25,0,0,0-17.657-22.8c-.509,0-1.012.027-1.51.067-.429,1.271-.8,2.555-1.136,3.848a14.525,14.525,0,0,1,17.216,14.319Z" transform="translate(-283.2 -45.376)" fill="#ffcb51"/>
      <path id="Trazado_126704" data-name="Trazado 126704" d="M299.548,54.724a11.473,11.473,0,0,0-1.378,2.293,22.087,22.087,0,0,1,1.569,2.5,9.284,9.284,0,0,1,18.06.411q.762-1.39,1.548-2.765a11.627,11.627,0,0,0-19.8-2.437Z" transform="translate(-275.818 -43.64)" fill="#ffcb51"/>
      <path id="Trazado_126705" data-name="Trazado 126705" d="M317.29,49.841a14.5,14.5,0,0,1,3.573,4.077q.992-1.838,1.925-3.706a18.251,18.251,0,0,0-28.836-.093c-.313.4-.6.814-.875,1.233.738,1.119,1.522,2.2,2.336,3.261a14.525,14.525,0,0,1,21.877-4.772Z" transform="translate(-275.432 -43.097)" fill="#ffcb51"/>
      <path id="Trazado_126706" data-name="Trazado 126706" d="M298,137.933a11.491,11.491,0,0,0,2.087-1.674,22.039,22.039,0,0,1-.608-2.887,9.2,9.2,0,0,1-2.71,2.575,9.288,9.288,0,0,1-14.092-9.21q-1.195,1.041-2.408,2.058A11.626,11.626,0,0,0,298,137.933Z" transform="translate(-274.459 -49.446)" fill="#ffcb51"/>
      <path id="Trazado_126707" data-name="Trazado 126707" d="M279.012,136.054a14.478,14.478,0,0,1-1.941-5.061q-1.566,1.382-3.088,2.811A18.25,18.25,0,0,0,301,143.869c.432-.268.846-.555,1.248-.853-.306-1.306-.666-2.592-1.064-3.868a14.523,14.523,0,0,1-22.176-3.094Z" transform="translate(-273.982 -49.769)" fill="#ffcb51"/>
    </g>
    <g id="Grupo_60133" data-name="Grupo 60133" transform="translate(414.275 228.553)">
      <path id="Trazado_126708" data-name="Trazado 126708" d="M485.495,282.27a1.47,1.47,0,0,0-1.114-.557l-.681-1.238-8.8,4.024c-4.546-4.662-7.941-8.477-10.236-11.144a15.731,15.731,0,0,0-4.063-3.78c-3.107-1.863-8.465-3.275-12.047-.8-3.066,2.115-3.413,6.1-3.775,10.272-.649,7.468,1.547,13.384,3.465,18.46a48.679,48.679,0,0,0,4.919,9.691c.644.973,1.218,1.759,1.627,2.3a26.642,26.642,0,0,0,3.777-1.486,27.36,27.36,0,0,0,8.36-6.316l1.318-.938a24.565,24.565,0,0,1-.959-3.023c-.146-.588-.262-1.153-.357-1.693a9.325,9.325,0,0,0,4.694,1.214,71.035,71.035,0,0,0,14.057-13.624A1.5,1.5,0,0,0,485.495,282.27Z" transform="translate(-441.627 -245.584)" fill="#daf1fd"/>
      <path id="Trazado_126709" data-name="Trazado 126709" d="M463.706,319.616h58.18a1.5,1.5,0,0,0,.557-1.444,1.339,1.339,0,0,0-.724-.992q-5.576-1.528-11.547-2.811a203.887,203.887,0,0,0-32.787-4.26Z" transform="translate(-443.073 -248.822)" fill="#4f6772"/>
      <path id="Trazado_126710" data-name="Trazado 126710" d="M463.706,319.616h58.18a1.5,1.5,0,0,0,.557-1.444,1.339,1.339,0,0,0-.724-.992q-5.576-1.528-11.547-2.811a203.887,203.887,0,0,0-32.787-4.26Z" transform="translate(-443.073 -248.822)" fill="#d3dee2" style="mix-blend-mode: multiply;isolation: isolate"/>
      <g id="Grupo_60132" data-name="Grupo 60132">
        <path id="Trazado_126711" data-name="Trazado 126711" d="M456.489,245.519c-2.551-2.307-12.087-2.659-14.317,1.123a6.905,6.905,0,0,0-.56,1.292,8.609,8.609,0,0,0,.272,4.773,12.81,12.81,0,0,0,1.082,2.583,2.14,2.14,0,0,1,1.091-.306,1.638,1.638,0,0,1,.179.01c.064.007.122.016.176.025l-.01-2.52a12.345,12.345,0,0,0,3.71.4,13.54,13.54,0,0,0,8.353-3.622l.322,1.808v.58c.139-.323.255-.627.347-.894a13.639,13.639,0,0,0,.467-1.719,6.965,6.965,0,0,0,.178-1.363A3.286,3.286,0,0,0,456.489,245.519Z" transform="translate(-441.378 -243.788)" fill="#dbb100"/>
        <path id="Trazado_126712" data-name="Trazado 126712" d="M458.83,249.214a6.965,6.965,0,0,0,.178-1.363,2.947,2.947,0,0,0-1.053-1.95c.013.022.028.043.041.064a3.334,3.334,0,0,1,.542,1.32,2.286,2.286,0,0,1-.254,1.2,9.014,9.014,0,0,1-.652,1.062.234.234,0,0,0-.054.157.3.3,0,0,0,.085.128.892.892,0,0,1,.15.531l.105,1.686c.187-.412.332-.79.445-1.119A13.639,13.639,0,0,0,458.83,249.214Z" transform="translate(-442.608 -243.948)" fill="#d3dee2" style="mix-blend-mode: multiply;isolation: isolate"/>
        <path id="Trazado_126713" data-name="Trazado 126713" d="M448.155,253.35a12.345,12.345,0,0,1-3.71-.4l.01,2.52c-.054-.009-.112-.018-.176-.025a1.638,1.638,0,0,0-.179-.01,2.153,2.153,0,1,0,.776,4.157,6.205,6.205,0,0,0,5.765,3.965h0a6.205,6.205,0,0,0,6.188-6.187v-5.833l-.322-1.808A13.539,13.539,0,0,1,448.155,253.35Z" transform="translate(-441.421 -244.239)" fill="#ffd092"/>
        <path id="Trazado_126714" data-name="Trazado 126714" d="M448,252.35a10.2,10.2,0,0,1-2.846-.691,7.213,7.213,0,0,1-.415-2.57,5.853,5.853,0,0,1,1.6-4.218,4.756,4.756,0,0,1,1.551-.968c-2.495.28-4.77,1.138-5.719,2.748a6.906,6.906,0,0,0-.56,1.292,8.609,8.609,0,0,0,.272,4.773,12.81,12.81,0,0,0,1.082,2.583,2.146,2.146,0,0,0,1.868,3.851,6.205,6.205,0,0,0,5.765,3.965h0c.1,0,.2-.01.3-.015a4.915,4.915,0,0,1-3.262-2.4,6.606,6.606,0,0,1-.6-2.117c-.2-1.217-.451-2.9-.638-4.958a12.631,12.631,0,0,0,7.573-2.514A10.707,10.707,0,0,1,448,252.35Z" transform="translate(-441.378 -243.796)" fill="#d3dee2" style="mix-blend-mode: multiply;isolation: isolate"/>
      </g>
      <path id="Trazado_126715" data-name="Trazado 126715" d="M460.576,317.873a7.043,7.043,0,0,0,5.3.192c6.884-1.837,13.1-7.4,13.609-7.859a54.644,54.644,0,0,0,8.114-9.264,24.941,24.941,0,0,0,1.853,2.747c3.207,4.135,6.926,6.224,10.606,8.242a56.7,56.7,0,0,0,9.009,3.962,1.176,1.176,0,0,0,1.533-.384,1.075,1.075,0,0,0-.055-.914c-2.917-3.3-6.109-6.693-9.592-10.139-4.5-4.449-8.917-8.423-13.153-11.961a94.373,94.373,0,0,0-20.043,11.1,27.36,27.36,0,0,1-8.36,6.316,26.642,26.642,0,0,1-3.777,1.486,21.823,21.823,0,0,0,2.718,4.3A7.71,7.71,0,0,0,460.576,317.873Z" transform="translate(-442.459 -247.485)" fill="#4f6772"/>
      <path id="Trazado_126716" data-name="Trazado 126716" d="M529.736,318.56a.837.837,0,0,0-.046.691.626.626,0,0,0,.41.272c.84.211,1.632-.478,2.13-1.186a13.739,13.739,0,0,0,2.055-6.456c.07-.63-.237-1.527-.93-.919a8.459,8.459,0,0,0-1.285,2.315A49.369,49.369,0,0,0,529.736,318.56Z" transform="translate(-448.077 -248.872)" fill="#4f6772"/>
      <path id="Trazado_126717" data-name="Trazado 126717" d="M529.734,318.561a.839.839,0,0,0-.046.692.633.633,0,0,0,.41.272c.84.21,1.632-.479,2.13-1.187a13.736,13.736,0,0,0,2.055-6.455c.07-.63-.237-1.527-.931-.919a8.462,8.462,0,0,0-1.284,2.314A49.205,49.205,0,0,0,529.734,318.561Z" transform="translate(-448.077 -248.872)" fill="#d3dee2" style="mix-blend-mode: multiply;isolation: isolate"/>
      <path id="Trazado_126718" data-name="Trazado 126718" d="M517.145,320.908a18.166,18.166,0,0,0,7.961-.948.828.828,0,0,0-.335-.79,2.091,2.091,0,0,0-.826-.347c-2.469-.6-5.024-.225-7.532-.33-.794-.033-2.156,0-1.838,1.2C514.855,320.748,516.263,320.868,517.145,320.908Z" transform="translate(-446.931 -249.457)" fill="#4f6772"/>
      <path id="Trazado_126719" data-name="Trazado 126719" d="M498.652,271.216l-3.061-3.045q-2.136,5.13-4.271,10.259a9.851,9.851,0,0,0,.719.836,5.878,5.878,0,0,0,.436.425,2.441,2.441,0,0,0,1.706.467Z" transform="translate(-445.169 -245.639)" fill="#249fe2"/>
      <path id="Trazado_126720" data-name="Trazado 126720" d="M488.131,281.406a1.718,1.718,0,0,1-.271-1.44,2.573,2.573,0,0,1,.791-1.267,19.255,19.255,0,0,0,1.941-1.521c.294-.349.573-.824,1.029-.825a4.84,4.84,0,0,1-.48,2.825,10.966,10.966,0,0,1-.545,1.535C490.131,281.631,488.948,282.459,488.131,281.406Z" transform="translate(-444.903 -246.26)" fill="#ffd092"/>
      <path id="Trazado_126721" data-name="Trazado 126721" d="M488.131,281.406a1.718,1.718,0,0,1-.271-1.44,2.573,2.573,0,0,1,.791-1.267,19.255,19.255,0,0,0,1.941-1.521c.294-.349.573-.824,1.029-.825a4.84,4.84,0,0,1-.48,2.825,10.966,10.966,0,0,1-.545,1.535C490.131,281.631,488.948,282.459,488.131,281.406Z" transform="translate(-444.903 -246.26)" fill="#d3dee2" style="mix-blend-mode: multiply;isolation: isolate"/>
      <path id="Trazado_126722" data-name="Trazado 126722" d="M497.676,271.347l-2.033-2.022-3.364,7.756,2.07.852Z" transform="translate(-445.242 -245.726)" fill="#c0efff"/>
      <path id="Trazado_126723" data-name="Trazado 126723" d="M488.994,281.017a2.7,2.7,0,0,0,2.462,2.2,3.377,3.377,0,0,0,2-.843,4.669,4.669,0,0,0,1.375-1.3,7.28,7.28,0,0,0,.746-1.832c.835-2.448,2.209-3.554,1.728-4.243a.664.664,0,0,0-.26-.216q-.9.577-1.869,1.155-1.4.833-2.737,1.544a5.777,5.777,0,0,0,.185-1.7c-.026-.574-.125-.768-.276-.874a.823.823,0,0,0-.689-.045,9.49,9.49,0,0,1-1.081,3.275C489.728,279.668,488.916,280.073,488.994,281.017Z" transform="translate(-444.992 -246.14)" fill="#ffd092"/>
      <path id="Trazado_126724" data-name="Trazado 126724" d="M477.734,285.24c2.563-1.4,5.015-2.562,7.295-3.526l-.681-1.238-8.8,4.024c-4.546-4.662-7.941-8.477-10.236-11.144a15.73,15.73,0,0,0-4.063-3.779,14.8,14.8,0,0,0-8.04-2.1,18.1,18.1,0,0,1,4.727,2.44c4.263,3.1,5.174,6.728,10.028,13.688,1.622,2.325,3.05,4.113,3.917,5.165C473.647,287.6,475.6,286.408,477.734,285.24Z" transform="translate(-442.276 -245.584)" fill="#d3dee2" style="mix-blend-mode: multiply;isolation: isolate"/>
      <path id="Trazado_126725" data-name="Trazado 126725" d="M465.711,298.354c.464.841.93,1.773,1.372,2.8.3.688.557,1.354.785,1.991l1.318-.938c-.257-.676-.508-1.421-.737-2.229-.245-.867-.43-1.685-.57-2.441A31.662,31.662,0,0,1,457.055,286.5a25.482,25.482,0,0,0,8.656,11.851Z" transform="translate(-442.568 -247.03)" fill="#d3dee2" style="mix-blend-mode: multiply;isolation: isolate"/>
      <path id="Trazado_126726" data-name="Trazado 126726" d="M495.87,277.693c-.623.841-.675,1.127-1.314,2.018a6.985,6.985,0,0,1-1.691,1.864,3.069,3.069,0,0,1-2.383.592c-.778-.17-.953-.676-1.443-1.168-.018-.018-.031-.029-.048-.044a1.57,1.57,0,0,0,0,.173,2.7,2.7,0,0,0,2.462,2.2,3.377,3.377,0,0,0,2-.843,4.669,4.669,0,0,0,1.375-1.3,15.721,15.721,0,0,0,.746-1.832c.233-.616.267-.736.412-1.047.064-.138.177-.372.654-1.217.2-.357.371-.651.487-.852A12.911,12.911,0,0,0,495.87,277.693Z" transform="translate(-444.992 -246.251)" fill="#d3dee2" style="mix-blend-mode: multiply;isolation: isolate"/>
    </g>
    <g id="Grupo_60136" data-name="Grupo 60136" transform="translate(238.935 226.579)">
      <path id="Trazado_126727" data-name="Trazado 126727" d="M309.5,297.487H273.944q2.132,10.364,4.266,20.727c0,1.849,5.969,3.348,13.331,3.348s13.332-1.5,13.332-3.348h0Z" transform="translate(-253.328 -245.89)" fill="#eadfd9"/>
      <ellipse id="Elipse_4168" data-name="Elipse 4168" cx="17.777" cy="3.347" rx="17.777" ry="3.347" transform="translate(20.616 48.25)" fill="#dbc3b2"/>
      <g id="Grupo_60135" data-name="Grupo 60135">
        <g id="Grupo_60134" data-name="Grupo 60134">
          <path id="Trazado_126728" data-name="Trazado 126728" d="M328.744,249.592c-.238-1.279-1.253-5.662-4.646-7.291-4.458-2.139-10.443,1.5-13.009,3.815a51.07,51.07,0,0,0-12.645,17.627c-.122-4.729-.3-9.677-2.641-13.789s-7.586-6.985-11.9-5.054c-5.046,2.258-5.8,9.044-5.385,14.558a109.218,109.218,0,0,0,1.984,14.1,30.806,30.806,0,0,0-19.685-20.232,8.212,8.212,0,0,0-4.475-.461c-2.454.615-4.023,3.12-4.49,5.606-.977,5.2,1.626,10.07,3.482,12.979,5.35,8.389,13.264,12.964,23.89,18.959,2.729,1.54,5.04,2.732,6.64,3.532l2.762-.026,3.463-.031,3.729-.034A189.829,189.829,0,0,0,314.4,275.632C329.251,258.923,329.343,252.8,328.744,249.592Z" transform="translate(-251.634 -241.652)" fill="#ffc848"/>
        </g>
        <path id="Trazado_126729" data-name="Trazado 126729" d="M319.263,255.175c-5.854,6.313-11.89,13.4-17.9,21.3q-4.972,6.54-9.206,12.834c-.011-3.61-.15-7.428-.458-11.429a155.372,155.372,0,0,0-3.034-20.806,144.023,144.023,0,0,1,1.649,21.5c.006,4.385-.188,8.519-.514,12.373-3.646-4.277-7.827-8.793-12.6-13.386a186.641,186.641,0,0,0-16.116-13.839c-.234-.178,7.018,6.224,15.883,16.06,5.538,6.143,9.689,11.528,12.365,15.17l3.463-.031c2.3-4.291,5.864-10.608,10.685-17.969C312.187,263.66,319.469,254.953,319.263,255.175Z" transform="translate(-252.351 -242.678)" fill="#d7f0ff"/>
      </g>
    </g>
  </g>
</svg>
