<svg xmlns="http://www.w3.org/2000/svg" width="509.617" height="316.039" viewBox="0 0 509.617 316.039">
  <g id="Grupo_17670" data-name="Grupo 17670" transform="translate(-706.023 -7770.426)">
    <path id="Trazado_36749" data-name="Trazado 36749" d="M4101.285,6750.5h473.355v34.969H4075.023V6542.547h306.617v33.473H4101.285" transform="translate(-3364 1296)" fill="none" stroke="#292929" stroke-width="10"/>
    <path id="Trazado_36750" data-name="Trazado 36750" d="M4075.023,6720.117h31.551V6604.629h35.9v115.488H4172.3V6604.629h34.082v115.488H4235.9V6604.629h177.176v-60.605h33.9v111.621h28.457V6544.023h33.059v111.621h33.336V6544.023h31.891v-64.6h-498.7v33.094h471.82" transform="translate(-3364 1296)" fill="none" stroke="#292929" stroke-width="10"/>
    <path id="Trazado_36751" data-name="Trazado 36751" d="M4545.8,6685.508h-279.27v36.074h306.367V6543.434" transform="translate(-3364 1296)" fill="none" stroke="#292929" stroke-width="10"/>
    <path id="Trazado_36752" data-name="Trazado 36752" d="M4239.7,6658.09h173.7v-54.34" transform="translate(-3365 1296)" fill="none" stroke="#292929" stroke-width="10"/>
    <g id="Rectángulo_4854" data-name="Rectángulo 4854" transform="translate(922 7884)" fill="#fff" stroke="#2e2e2e" stroke-width="1">
      <rect width="66" height="33" stroke="none"/>
      <rect x="0.5" y="0.5" width="65" height="32" fill="none"/>
    </g>
    <rect id="Rectángulo_4855" data-name="Rectángulo 4855" width="14" height="14" transform="translate(931 7893)" fill="#080808"/>
    <rect id="Rectángulo_4856" data-name="Rectángulo 4856" width="14" height="14" transform="translate(966 7893)" fill="#080808"/>
    <path id="Trazado_36753" data-name="Trazado 36753" d="M4302,6603.75h32.117" transform="translate(-3364 1296)" fill="none" stroke="#121212" stroke-width="3"/>
  </g>
</svg>
