<?xml version="1.0" encoding="utf-8"?>
<!-- Generator: Adobe Illustrator 25.4.1, SVG Export Plug-In . SVG Version: 6.00 Build 0)  -->
<svg version="1.1" id="Capa_1" xmlns="http://www.w3.org/2000/svg" xmlns:xlink="http://www.w3.org/1999/xlink" x="0px" y="0px"
	 viewBox="0 0 227.2 214" style="enable-background:new 0 0 227.2 214;" xml:space="preserve">
<style type="text/css">
	.st0{fill:url(#Trazado_126371_00000144317631913847316260000002001327072537530542_);}
	.st1{fill:#F7F7F7;}
	.st2{enable-background:new    ;}
	.st3{fill:#12263F;}
</style>
<g id="Grupo_60152" transform="translate(-529.011 -1204)">
	
		<linearGradient id="Trazado_126371_00000126284475846531934010000006560954470792063645_" gradientUnits="userSpaceOnUse" x1="347.3165" y1="1729.0691" x2="347.3165" y2="1728.0691" gradientTransform="matrix(227.1807 0 0 -111.312 -78260.9922 193771.4531)">
		<stop  offset="0" style="stop-color:#472EA6"/>
		<stop  offset="1" style="stop-color:#7352F0"/>
	</linearGradient>
	<path id="Trazado_126371" style="fill:url(#Trazado_126371_00000126284475846531934010000006560954470792063645_);" d="M529,1305.3
		c1.3,61.8,51.7,111.3,113.6,111.3c61.8,0,112.3-49.5,113.6-111.3L529,1305.3z"/>
	<g transform="matrix(1, 0, 0, 1, 529.01, 1204)">
		<circle id="Elipse_4071-2" class="st1" cx="113.6" cy="104" r="98"/>
	</g>
	<g class="st2">
		<path class="st3" d="M580.7,1292h-4.8l-1.1,3h-1.5l4.3-11.4h1.3l4.4,11.4h-1.5L580.7,1292z M576.4,1290.8h3.9l-1.9-5.3
			L576.4,1290.8z"/>
		<path class="st3" d="M588,1294c0.5,0,1-0.2,1.4-0.5c0.4-0.3,0.6-0.7,0.6-1.2h1.4c0,0.5-0.2,0.9-0.5,1.4c-0.3,0.4-0.7,0.8-1.2,1
			c-0.5,0.3-1.1,0.4-1.6,0.4c-1.2,0-2.1-0.4-2.7-1.2s-1-1.8-1-3.2v-0.2c0-0.8,0.2-1.6,0.5-2.2c0.3-0.6,0.7-1.1,1.3-1.5
			c0.6-0.4,1.2-0.5,2-0.5c0.9,0,1.7,0.3,2.4,0.9c0.6,0.6,1,1.3,1,2.2H590c0-0.5-0.2-1-0.6-1.3c-0.4-0.4-0.8-0.5-1.4-0.5
			c-0.7,0-1.3,0.3-1.7,0.8c-0.4,0.5-0.6,1.3-0.6,2.3v0.3c0,1,0.2,1.7,0.6,2.2C586.7,1293.7,587.2,1294,588,1294z"/>
		<path class="st3" d="M596.4,1294c0.5,0,1-0.2,1.4-0.5c0.4-0.3,0.6-0.7,0.6-1.2h1.4c0,0.5-0.2,0.9-0.5,1.4c-0.3,0.4-0.7,0.8-1.2,1
			c-0.5,0.3-1.1,0.4-1.6,0.4c-1.2,0-2.1-0.4-2.7-1.2s-1-1.8-1-3.2v-0.2c0-0.8,0.2-1.6,0.5-2.2c0.3-0.6,0.7-1.1,1.3-1.5
			c0.6-0.4,1.2-0.5,2-0.5c0.9,0,1.7,0.3,2.4,0.9c0.6,0.6,1,1.3,1,2.2h-1.4c0-0.5-0.2-1-0.6-1.3c-0.4-0.4-0.8-0.5-1.4-0.5
			c-0.7,0-1.3,0.3-1.7,0.8c-0.4,0.5-0.6,1.3-0.6,2.3v0.3c0,1,0.2,1.7,0.6,2.2C595.1,1293.7,595.6,1294,596.4,1294z"/>
		<path class="st3" d="M604.9,1295.2c-1.1,0-2.1-0.4-2.8-1.1s-1.1-1.8-1.1-3v-0.3c0-0.8,0.2-1.6,0.5-2.2s0.8-1.2,1.3-1.5
			c0.6-0.4,1.2-0.6,1.9-0.6c1.1,0,2,0.4,2.6,1.1s0.9,1.8,0.9,3.1v0.6h-5.7c0,0.8,0.3,1.5,0.7,2c0.5,0.5,1.1,0.8,1.8,0.8
			c0.5,0,0.9-0.1,1.3-0.3c0.4-0.2,0.7-0.5,0.9-0.8l0.9,0.7C607.3,1294.6,606.3,1295.2,604.9,1295.2z M604.7,1287.6
			c-0.6,0-1.1,0.2-1.5,0.6c-0.4,0.4-0.6,1-0.7,1.8h4.2v-0.1c0-0.7-0.2-1.3-0.6-1.7C605.8,1287.8,605.3,1287.6,604.7,1287.6z"/>
		<path class="st3" d="M614.8,1292.8c0-0.4-0.1-0.7-0.4-0.9c-0.3-0.2-0.8-0.4-1.5-0.6c-0.7-0.2-1.3-0.3-1.7-0.6s-0.7-0.5-1-0.8
			c-0.2-0.3-0.3-0.7-0.3-1.1c0-0.7,0.3-1.3,0.9-1.8s1.3-0.7,2.2-0.7c1,0,1.7,0.2,2.3,0.7c0.6,0.5,0.9,1.1,0.9,1.9h-1.5
			c0-0.4-0.2-0.7-0.5-1s-0.8-0.4-1.3-0.4c-0.5,0-0.9,0.1-1.2,0.3s-0.4,0.5-0.4,0.9c0,0.3,0.1,0.6,0.4,0.8c0.3,0.2,0.8,0.3,1.5,0.5
			c0.7,0.2,1.3,0.4,1.8,0.6c0.4,0.2,0.8,0.5,1,0.8c0.2,0.3,0.3,0.7,0.3,1.2c0,0.8-0.3,1.4-0.9,1.8c-0.6,0.5-1.4,0.7-2.4,0.7
			c-0.7,0-1.3-0.1-1.8-0.4c-0.5-0.2-0.9-0.6-1.2-1c-0.3-0.4-0.4-0.9-0.4-1.4h1.4c0,0.5,0.2,0.9,0.6,1.2c0.4,0.3,0.8,0.4,1.4,0.4
			c0.5,0,1-0.1,1.3-0.3C614.6,1293.4,614.8,1293.1,614.8,1292.8z"/>
		<path class="st3" d="M617.7,1290.7c0-0.8,0.2-1.6,0.5-2.2c0.3-0.7,0.8-1.2,1.4-1.5c0.6-0.4,1.2-0.5,2-0.5c1.2,0,2.1,0.4,2.8,1.2
			s1.1,1.9,1.1,3.2v0.1c0,0.8-0.2,1.6-0.5,2.2c-0.3,0.7-0.8,1.2-1.4,1.5s-1.3,0.5-2,0.5c-1.1,0-2.1-0.4-2.8-1.2s-1.1-1.9-1.1-3.2
			V1290.7z M619.2,1290.9c0,0.9,0.2,1.7,0.7,2.3c0.4,0.6,1,0.9,1.7,0.9c0.7,0,1.3-0.3,1.8-0.9c0.4-0.6,0.6-1.4,0.6-2.4
			c0-0.9-0.2-1.7-0.7-2.3c-0.4-0.6-1-0.9-1.8-0.9c-0.7,0-1.3,0.3-1.7,0.9S619.2,1289.8,619.2,1290.9z"/>
		<path class="st3" d="M636.4,1295c-0.1-0.2-0.2-0.5-0.2-0.9c-0.7,0.7-1.5,1-2.4,1c-0.8,0-1.5-0.2-2.1-0.7c-0.5-0.5-0.8-1.1-0.8-1.8
			c0-0.9,0.3-1.6,1-2.1c0.7-0.5,1.6-0.7,2.8-0.7h1.4v-0.7c0-0.5-0.2-0.9-0.5-1.2c-0.3-0.3-0.7-0.4-1.3-0.4c-0.5,0-0.9,0.1-1.3,0.4
			c-0.3,0.3-0.5,0.6-0.5,0.9h-1.5c0-0.4,0.1-0.8,0.4-1.2c0.3-0.4,0.7-0.7,1.2-0.9c0.5-0.2,1.1-0.3,1.7-0.3c1,0,1.7,0.2,2.3,0.7
			c0.6,0.5,0.8,1.2,0.9,2v3.9c0,0.8,0.1,1.4,0.3,1.9v0.1H636.4z M634,1293.9c0.5,0,0.9-0.1,1.3-0.4s0.7-0.5,0.9-0.9v-1.7H635
			c-1.8,0-2.7,0.5-2.7,1.6c0,0.5,0.2,0.8,0.5,1.1C633.1,1293.8,633.5,1293.9,634,1293.9z"/>
		<path class="st3" d="M645.4,1295H644v-12h1.4V1295z"/>
		<path class="st3" d="M647.3,1290.7c0-0.8,0.2-1.6,0.5-2.2s0.8-1.2,1.4-1.5s1.2-0.5,2-0.5c1.2,0,2.1,0.4,2.8,1.2s1.1,1.9,1.1,3.2
			v0.1c0,0.8-0.2,1.6-0.5,2.2s-0.8,1.2-1.4,1.5s-1.3,0.5-2,0.5c-1.1,0-2.1-0.4-2.8-1.2s-1.1-1.9-1.1-3.2V1290.7z M648.8,1290.9
			c0,0.9,0.2,1.7,0.7,2.3s1,0.9,1.7,0.9c0.7,0,1.3-0.3,1.8-0.9s0.6-1.4,0.6-2.4c0-0.9-0.2-1.7-0.7-2.3s-1-0.9-1.8-0.9
			c-0.7,0-1.3,0.3-1.7,0.9S648.8,1289.8,648.8,1290.9z"/>
		<path class="st3" d="M661.8,1292.8c0-0.4-0.1-0.7-0.4-0.9s-0.8-0.4-1.5-0.6s-1.3-0.3-1.7-0.6s-0.7-0.5-1-0.8s-0.3-0.7-0.3-1.1
			c0-0.7,0.3-1.3,0.9-1.8s1.3-0.7,2.2-0.7c1,0,1.7,0.2,2.3,0.7s0.9,1.1,0.9,1.9h-1.5c0-0.4-0.2-0.7-0.5-1s-0.8-0.4-1.3-0.4
			c-0.5,0-0.9,0.1-1.2,0.3s-0.4,0.5-0.4,0.9c0,0.3,0.1,0.6,0.4,0.8s0.8,0.3,1.5,0.5s1.3,0.4,1.8,0.6s0.8,0.5,1,0.8s0.3,0.7,0.3,1.2
			c0,0.8-0.3,1.4-0.9,1.8s-1.4,0.7-2.4,0.7c-0.7,0-1.3-0.1-1.8-0.4s-0.9-0.6-1.2-1s-0.4-0.9-0.4-1.4h1.4c0,0.5,0.2,0.9,0.6,1.2
			s0.8,0.4,1.4,0.4c0.5,0,1-0.1,1.3-0.3S661.8,1293.1,661.8,1292.8z"/>
		<path class="st3" d="M668.7,1290.7c0-1.3,0.3-2.3,0.9-3.1s1.4-1.2,2.4-1.2c1,0,1.8,0.3,2.4,1v-4.4h1.4v12h-1.3l-0.1-0.9
			c-0.6,0.7-1.4,1.1-2.4,1.1c-1,0-1.8-0.4-2.4-1.2s-0.9-1.8-0.9-3.1V1290.7z M670.1,1290.9c0,1,0.2,1.7,0.6,2.2s0.9,0.8,1.6,0.8
			c0.9,0,1.6-0.4,2-1.2v-3.9c-0.4-0.8-1.1-1.2-2-1.2c-0.7,0-1.3,0.3-1.7,0.8S670.1,1289.8,670.1,1290.9z"/>
		<path class="st3" d="M683.3,1295c-0.1-0.2-0.2-0.5-0.2-0.9c-0.7,0.7-1.5,1-2.4,1c-0.8,0-1.5-0.2-2.1-0.7s-0.8-1.1-0.8-1.8
			c0-0.9,0.3-1.6,1-2.1s1.6-0.7,2.8-0.7h1.4v-0.7c0-0.5-0.2-0.9-0.5-1.2s-0.7-0.4-1.3-0.4c-0.5,0-0.9,0.1-1.3,0.4s-0.5,0.6-0.5,0.9
			H678c0-0.4,0.1-0.8,0.4-1.2s0.7-0.7,1.2-0.9s1.1-0.3,1.7-0.3c1,0,1.7,0.2,2.3,0.7s0.8,1.2,0.9,2v3.9c0,0.8,0.1,1.4,0.3,1.9v0.1
			H683.3z M680.9,1293.9c0.5,0,0.9-0.1,1.3-0.4s0.7-0.5,0.9-0.9v-1.7h-1.1c-1.8,0-2.7,0.5-2.7,1.6c0,0.5,0.2,0.8,0.5,1.1
			S680.4,1293.9,680.9,1293.9z"/>
		<path class="st3" d="M688.7,1284.5v2h1.6v1.1h-1.6v5.2c0,0.3,0.1,0.6,0.2,0.8c0.1,0.2,0.4,0.3,0.7,0.3c0.2,0,0.4,0,0.7-0.1v1.2
			c-0.4,0.1-0.8,0.2-1.1,0.2c-0.6,0-1.1-0.2-1.5-0.6s-0.5-0.9-0.5-1.7v-5.2h-1.5v-1.1h1.5v-2H688.7z"/>
		<path class="st3" d="M691.5,1290.7c0-0.8,0.2-1.6,0.5-2.2s0.8-1.2,1.4-1.5s1.2-0.5,2-0.5c1.2,0,2.1,0.4,2.8,1.2s1.1,1.9,1.1,3.2
			v0.1c0,0.8-0.2,1.6-0.5,2.2s-0.8,1.2-1.4,1.5s-1.3,0.5-2,0.5c-1.1,0-2.1-0.4-2.8-1.2s-1.1-1.9-1.1-3.2V1290.7z M692.9,1290.9
			c0,0.9,0.2,1.7,0.7,2.3s1,0.9,1.7,0.9c0.7,0,1.3-0.3,1.8-0.9s0.6-1.4,0.6-2.4c0-0.9-0.2-1.7-0.7-2.3s-1-0.9-1.8-0.9
			c-0.7,0-1.3,0.3-1.7,0.9S692.9,1289.8,692.9,1290.9z"/>
		<path class="st3" d="M705.9,1292.8c0-0.4-0.1-0.7-0.4-0.9s-0.8-0.4-1.5-0.6s-1.3-0.3-1.7-0.6s-0.7-0.5-1-0.8s-0.3-0.7-0.3-1.1
			c0-0.7,0.3-1.3,0.9-1.8s1.3-0.7,2.2-0.7c1,0,1.7,0.2,2.3,0.7s0.9,1.1,0.9,1.9h-1.5c0-0.4-0.2-0.7-0.5-1s-0.8-0.4-1.3-0.4
			c-0.5,0-0.9,0.1-1.2,0.3s-0.4,0.5-0.4,0.9c0,0.3,0.1,0.6,0.4,0.8s0.8,0.3,1.5,0.5s1.3,0.4,1.8,0.6s0.8,0.5,1,0.8s0.3,0.7,0.3,1.2
			c0,0.8-0.3,1.4-0.9,1.8s-1.4,0.7-2.4,0.7c-0.7,0-1.3-0.1-1.8-0.4s-0.9-0.6-1.2-1s-0.4-0.9-0.4-1.4h1.4c0,0.5,0.2,0.9,0.6,1.2
			s0.8,0.4,1.4,0.4c0.5,0,1-0.1,1.3-0.3S705.9,1293.1,705.9,1292.8z"/>
	</g>
	<g class="st2">
		<path class="st3" d="M602.4,1314.9c0,1.3-0.3,2.3-0.9,3.1c-0.6,0.8-1.4,1.2-2.4,1.2c-1,0-1.8-0.3-2.4-1v4.1h-1.4v-11.7h1.3
			l0.1,0.9c0.6-0.7,1.4-1.1,2.5-1.1c1,0,1.8,0.4,2.4,1.1c0.6,0.8,0.9,1.8,0.9,3.2V1314.9z M600.9,1314.7c0-1-0.2-1.7-0.6-2.3
			s-1-0.8-1.7-0.8c-0.9,0-1.5,0.4-2,1.2v4c0.4,0.8,1.1,1.2,2,1.2c0.7,0,1.2-0.3,1.7-0.8C600.7,1316.6,600.9,1315.8,600.9,1314.7z"/>
		<path class="st3" d="M603.8,1314.7c0-0.8,0.2-1.6,0.5-2.2c0.3-0.7,0.8-1.2,1.4-1.5c0.6-0.4,1.2-0.5,2-0.5c1.2,0,2.1,0.4,2.8,1.2
			c0.7,0.8,1.1,1.9,1.1,3.2v0.1c0,0.8-0.2,1.6-0.5,2.2c-0.3,0.7-0.8,1.2-1.4,1.5s-1.3,0.5-2,0.5c-1.1,0-2.1-0.4-2.8-1.2
			s-1.1-1.9-1.1-3.2V1314.7z M605.3,1314.9c0,0.9,0.2,1.7,0.7,2.3c0.4,0.6,1,0.9,1.7,0.9c0.7,0,1.3-0.3,1.8-0.9
			c0.4-0.6,0.6-1.4,0.6-2.4c0-0.9-0.2-1.7-0.7-2.3c-0.4-0.6-1-0.9-1.8-0.9c-0.7,0-1.3,0.3-1.7,0.9
			C605.5,1313,605.3,1313.8,605.3,1314.9z"/>
		<path class="st3" d="M617.4,1311.8c-0.2,0-0.5-0.1-0.7-0.1c-0.9,0-1.6,0.4-1.9,1.2v6h-1.4v-8.5h1.4l0,1c0.5-0.8,1.1-1.1,2-1.1
			c0.3,0,0.5,0,0.6,0.1V1311.8z"/>
		<path class="st3" d="M624.1,1310.5l0,0.9c0.6-0.7,1.5-1.1,2.5-1.1c1.2,0,2,0.5,2.4,1.4c0.3-0.4,0.6-0.7,1.1-1
			c0.5-0.2,1-0.4,1.6-0.4c1.9,0,2.8,1,2.8,2.9v5.7h-1.4v-5.6c0-0.6-0.1-1.1-0.4-1.4c-0.3-0.3-0.7-0.4-1.4-0.4c-0.5,0-1,0.2-1.3,0.5
			c-0.4,0.3-0.6,0.8-0.6,1.3v5.6h-1.5v-5.5c0-1.2-0.6-1.8-1.8-1.8c-0.9,0-1.6,0.4-1.9,1.2v6.2h-1.4v-8.5H624.1z"/>
		<path class="st3" d="M642,1318.2c-0.6,0.7-1.4,1-2.5,1c-0.9,0-1.6-0.3-2.1-0.8c-0.5-0.5-0.7-1.3-0.7-2.3v-5.5h1.4v5.5
			c0,1.3,0.5,1.9,1.6,1.9c1.1,0,1.8-0.4,2.2-1.2v-6.1h1.4v8.5H642L642,1318.2z M640.8,1307h1.8l-2.1,2.3l-1.2,0L640.8,1307z"/>
		<path class="st3" d="M647.1,1319h-1.4v-12h1.4V1319z"/>
		<path class="st3" d="M651.4,1308.5v2h1.6v1.1h-1.6v5.2c0,0.3,0.1,0.6,0.2,0.8c0.1,0.2,0.4,0.3,0.7,0.3c0.2,0,0.4,0,0.7-0.1v1.2
			c-0.4,0.1-0.8,0.2-1.1,0.2c-0.6,0-1.1-0.2-1.5-0.6s-0.5-0.9-0.5-1.7v-5.2h-1.5v-1.1h1.5v-2H651.4z"/>
		<path class="st3" d="M654.7,1308.3c0-0.2,0.1-0.4,0.2-0.6s0.4-0.2,0.6-0.2s0.5,0.1,0.6,0.2s0.2,0.4,0.2,0.6s-0.1,0.4-0.2,0.6
			s-0.4,0.2-0.6,0.2s-0.5-0.1-0.6-0.2S654.7,1308.5,654.7,1308.3z M656.2,1319h-1.4v-8.5h1.4V1319z"/>
		<path class="st3" d="M665.7,1314.9c0,1.3-0.3,2.3-0.9,3.1s-1.4,1.2-2.4,1.2c-1,0-1.8-0.3-2.4-1v4.1h-1.4v-11.7h1.3l0.1,0.9
			c0.6-0.7,1.4-1.1,2.5-1.1c1,0,1.8,0.4,2.4,1.1c0.6,0.8,0.9,1.8,0.9,3.2V1314.9z M664.3,1314.7c0-1-0.2-1.7-0.6-2.3s-1-0.8-1.7-0.8
			c-0.9,0-1.5,0.4-2,1.2v4c0.4,0.8,1.1,1.2,2,1.2c0.7,0,1.2-0.3,1.7-0.8S664.3,1315.8,664.3,1314.7z"/>
		<path class="st3" d="M669.1,1319h-1.4v-12h1.4V1319z"/>
		<path class="st3" d="M674.9,1319.2c-1.1,0-2.1-0.4-2.8-1.1s-1.1-1.8-1.1-3v-0.3c0-0.8,0.2-1.6,0.5-2.2c0.3-0.7,0.8-1.2,1.3-1.5
			s1.2-0.6,1.9-0.6c1.1,0,2,0.4,2.6,1.1c0.6,0.7,0.9,1.8,0.9,3.1v0.6h-5.7c0,0.8,0.3,1.5,0.7,2s1.1,0.8,1.8,0.8
			c0.5,0,0.9-0.1,1.3-0.3s0.7-0.5,0.9-0.8l0.9,0.7C677.4,1318.6,676.3,1319.2,674.9,1319.2z M674.7,1311.6c-0.6,0-1.1,0.2-1.5,0.6
			c-0.4,0.4-0.6,1-0.7,1.8h4.2v-0.1c0-0.7-0.2-1.3-0.6-1.7C675.8,1311.8,675.3,1311.6,674.7,1311.6z"/>
		<path class="st3" d="M684.8,1316.8c0-0.4-0.1-0.7-0.4-0.9s-0.8-0.4-1.5-0.6s-1.3-0.3-1.7-0.6s-0.7-0.5-1-0.8s-0.3-0.7-0.3-1.1
			c0-0.7,0.3-1.3,0.9-1.8s1.3-0.7,2.2-0.7c1,0,1.7,0.2,2.3,0.7s0.9,1.1,0.9,1.9h-1.5c0-0.4-0.2-0.7-0.5-1c-0.3-0.3-0.8-0.4-1.3-0.4
			c-0.5,0-0.9,0.1-1.2,0.3c-0.3,0.2-0.4,0.5-0.4,0.9c0,0.3,0.1,0.6,0.4,0.8s0.8,0.3,1.5,0.5s1.3,0.4,1.8,0.6s0.8,0.5,1,0.8
			s0.3,0.7,0.3,1.2c0,0.8-0.3,1.4-0.9,1.8s-1.4,0.7-2.4,0.7c-0.7,0-1.3-0.1-1.8-0.4s-0.9-0.6-1.2-1s-0.4-0.9-0.4-1.4h1.4
			c0,0.5,0.2,0.9,0.6,1.2s0.8,0.4,1.4,0.4c0.5,0,1-0.1,1.3-0.3S684.8,1317.1,684.8,1316.8z"/>
	</g>
	<g class="st2">
		<path class="st3" d="M614.2,1342.2c-0.6,0.7-1.4,1-2.5,1c-0.9,0-1.6-0.3-2.1-0.8c-0.5-0.5-0.7-1.3-0.7-2.3v-5.5h1.4v5.5
			c0,1.3,0.5,1.9,1.6,1.9c1.1,0,1.8-0.4,2.2-1.2v-6.1h1.4v8.5h-1.4L614.2,1342.2z"/>
		<path class="st3" d="M622.7,1340.8c0-0.4-0.1-0.7-0.4-0.9c-0.3-0.2-0.8-0.4-1.5-0.6c-0.7-0.2-1.3-0.3-1.7-0.6s-0.7-0.5-1-0.8
			c-0.2-0.3-0.3-0.7-0.3-1.1c0-0.7,0.3-1.3,0.9-1.8s1.3-0.7,2.2-0.7c1,0,1.7,0.2,2.3,0.7c0.6,0.5,0.9,1.1,0.9,1.9h-1.5
			c0-0.4-0.2-0.7-0.5-1s-0.8-0.4-1.3-0.4c-0.5,0-0.9,0.1-1.2,0.3s-0.4,0.5-0.4,0.9c0,0.3,0.1,0.6,0.4,0.8c0.3,0.2,0.8,0.3,1.5,0.5
			c0.7,0.2,1.3,0.4,1.8,0.6c0.4,0.2,0.8,0.5,1,0.8c0.2,0.3,0.3,0.7,0.3,1.2c0,0.8-0.3,1.4-0.9,1.8c-0.6,0.5-1.4,0.7-2.4,0.7
			c-0.7,0-1.3-0.1-1.8-0.4c-0.5-0.2-0.9-0.6-1.2-1c-0.3-0.4-0.4-0.9-0.4-1.4h1.4c0,0.5,0.2,0.9,0.6,1.2c0.4,0.3,0.8,0.4,1.4,0.4
			c0.5,0,1-0.1,1.3-0.3C622.5,1341.4,622.7,1341.1,622.7,1340.8z"/>
		<path class="st3" d="M631.2,1342.2c-0.6,0.7-1.4,1-2.5,1c-0.9,0-1.6-0.3-2.1-0.8c-0.5-0.5-0.7-1.3-0.7-2.3v-5.5h1.4v5.5
			c0,1.3,0.5,1.9,1.6,1.9c1.1,0,1.8-0.4,2.2-1.2v-6.1h1.4v8.5h-1.4L631.2,1342.2z"/>
		<path class="st3" d="M640.1,1343c-0.1-0.2-0.2-0.5-0.2-0.9c-0.7,0.7-1.5,1-2.4,1c-0.8,0-1.5-0.2-2.1-0.7c-0.5-0.5-0.8-1.1-0.8-1.8
			c0-0.9,0.3-1.6,1-2.1c0.7-0.5,1.6-0.7,2.8-0.7h1.4v-0.7c0-0.5-0.2-0.9-0.5-1.2c-0.3-0.3-0.7-0.4-1.3-0.4c-0.5,0-0.9,0.1-1.3,0.4
			c-0.3,0.3-0.5,0.6-0.5,0.9h-1.5c0-0.4,0.1-0.8,0.4-1.2c0.3-0.4,0.7-0.7,1.2-0.9c0.5-0.2,1.1-0.3,1.7-0.3c1,0,1.7,0.2,2.3,0.7
			c0.6,0.5,0.8,1.2,0.9,2v3.9c0,0.8,0.1,1.4,0.3,1.9v0.1H640.1z M637.7,1341.9c0.5,0,0.9-0.1,1.3-0.4s0.7-0.5,0.9-0.9v-1.7h-1.1
			c-1.8,0-2.7,0.5-2.7,1.6c0,0.5,0.2,0.8,0.5,1.1C636.8,1341.8,637.2,1341.9,637.7,1341.9z"/>
		<path class="st3" d="M647.6,1335.8c-0.2,0-0.5-0.1-0.7-0.1c-0.9,0-1.6,0.4-1.9,1.2v6h-1.4v-8.5h1.4l0,1c0.5-0.8,1.1-1.1,2-1.1
			c0.3,0,0.5,0,0.6,0.1V1335.8z"/>
		<path class="st3" d="M649,1332.3c0-0.2,0.1-0.4,0.2-0.6s0.4-0.2,0.6-0.2s0.5,0.1,0.6,0.2s0.2,0.4,0.2,0.6s-0.1,0.4-0.2,0.6
			s-0.4,0.2-0.6,0.2s-0.5-0.1-0.6-0.2S649,1332.5,649,1332.3z M650.5,1343h-1.4v-8.5h1.4V1343z"/>
		<path class="st3" d="M652.5,1338.7c0-0.8,0.2-1.6,0.5-2.2s0.8-1.2,1.4-1.5s1.2-0.5,2-0.5c1.2,0,2.1,0.4,2.8,1.2s1.1,1.9,1.1,3.2
			v0.1c0,0.8-0.2,1.6-0.5,2.2s-0.8,1.2-1.4,1.5s-1.3,0.5-2,0.5c-1.1,0-2.1-0.4-2.8-1.2s-1.1-1.9-1.1-3.2V1338.7z M653.9,1338.9
			c0,0.9,0.2,1.7,0.7,2.3s1,0.9,1.7,0.9c0.7,0,1.3-0.3,1.8-0.9s0.6-1.4,0.6-2.4c0-0.9-0.2-1.7-0.7-2.3s-1-0.9-1.8-0.9
			c-0.7,0-1.3,0.3-1.7,0.9S653.9,1337.8,653.9,1338.9z"/>
		<path class="st3" d="M666.9,1340.8c0-0.4-0.1-0.7-0.4-0.9s-0.8-0.4-1.5-0.6s-1.3-0.3-1.7-0.6s-0.7-0.5-1-0.8s-0.3-0.7-0.3-1.1
			c0-0.7,0.3-1.3,0.9-1.8s1.3-0.7,2.2-0.7c1,0,1.7,0.2,2.3,0.7s0.9,1.1,0.9,1.9h-1.5c0-0.4-0.2-0.7-0.5-1s-0.8-0.4-1.3-0.4
			c-0.5,0-0.9,0.1-1.2,0.3s-0.4,0.5-0.4,0.9c0,0.3,0.1,0.6,0.4,0.8s0.8,0.3,1.5,0.5s1.3,0.4,1.8,0.6s0.8,0.5,1,0.8s0.3,0.7,0.3,1.2
			c0,0.8-0.3,1.4-0.9,1.8s-1.4,0.7-2.4,0.7c-0.7,0-1.3-0.1-1.8-0.4s-0.9-0.6-1.2-1s-0.4-0.9-0.4-1.4h1.4c0,0.5,0.2,0.9,0.6,1.2
			s0.8,0.4,1.4,0.4c0.5,0,1-0.1,1.3-0.3S666.9,1341.1,666.9,1340.8z"/>
		<path class="st3" d="M670.3,1342.2c0-0.2,0.1-0.5,0.2-0.6s0.4-0.2,0.7-0.2s0.5,0.1,0.7,0.2s0.2,0.4,0.2,0.6c0,0.2-0.1,0.4-0.2,0.6
			s-0.4,0.2-0.7,0.2s-0.5-0.1-0.7-0.2S670.3,1342.5,670.3,1342.2z"/>
	</g>
</g>
</svg>
