<svg xmlns="http://www.w3.org/2000/svg" xmlns:xlink="http://www.w3.org/1999/xlink" width="264" height="235" viewBox="0 0 264 235">
  <defs>
    <filter id="Elipse_4095" x="30" y="0" width="234" height="235" filterUnits="userSpaceOnUse">
      <feOffset dy="3" input="SourceAlpha"/>
      <feGaussianBlur stdDeviation="3" result="blur"/>
      <feFlood flood-opacity="0.161"/>
      <feComposite operator="in" in2="blur"/>
      <feComposite in="SourceGraphic"/>
    </filter>
    <clipPath id="clip-path">
      <rect id="Rectángulo_4402" data-name="Rectángulo 4402" width="60" height="55.368" fill="none"/>
    </clipPath>
  </defs>
  <g id="Grupo_60140" data-name="Grupo 60140" transform="translate(-685 -6812.5)">
    <g transform="matrix(1, 0, 0, 1, 685, 6812.5)" filter="url(#Elipse_4095)">
      <g id="Elipse_4095-2" data-name="Elipse 4095" transform="translate(39 6)" fill="#fb8f36" stroke="#fff" stroke-width="4">
        <ellipse cx="108" cy="108.5" rx="108" ry="108.5" stroke="none"/>
        <ellipse cx="108" cy="108.5" rx="106" ry="106.5" fill="none"/>
      </g>
    </g>
    <text id="Determinación_de_objetivos_de_la_investigación." data-name="Determinación de objetivos de la investigación." transform="translate(740 6892.5)" fill="#12263f" font-size="16" font-family="Roboto-Regular, Roboto"><tspan x="-62.598" y="17">Determinación de </tspan><tspan x="-51.262" y="41">objetivos de la </tspan><tspan x="-49.199" y="65">investigación.</tspan></text>
    <g id="Elipse_4096" data-name="Elipse 4096" transform="translate(743.32 6838.153)" fill="none" stroke="#fff" stroke-linecap="round" stroke-miterlimit="10" stroke-width="2" stroke-dasharray="6 6">
      <circle cx="88.846" cy="88.846" r="88.846" stroke="none"/>
      <circle cx="88.846" cy="88.846" r="89.846" fill="none"/>
    </g>
    <g id="Elipse_4097" data-name="Elipse 4097" transform="translate(685 6890.5)" fill="#fff" stroke="#4733a3" stroke-width="1">
      <circle cx="40.5" cy="40.5" r="40.5" stroke="none"/>
      <circle cx="40.5" cy="40.5" r="40" fill="none"/>
    </g>
    <g id="Grupo_17446" data-name="Grupo 17446" transform="translate(695.5 6903.316)">
      <g id="Grupo_17445" data-name="Grupo 17445" clip-path="url(#clip-path)">
        <path id="Trazado_35933" data-name="Trazado 35933" d="M48.126,91.693A20.794,20.794,0,1,1,68.92,112.472,20.787,20.787,0,0,1,48.126,91.693" transform="translate(-41.05 -60.487)" fill="#c7ddeb"/>
        <path id="Trazado_35934" data-name="Trazado 35934" d="M157.243,170.025A3.758,3.758,0,1,1,161,173.783a3.758,3.758,0,0,1-3.758-3.758" transform="translate(-134.125 -141.822)" fill="#f04f4c"/>
        <path id="Trazado_35935" data-name="Trazado 35935" d="M157.108,170.561a4.429,4.429,0,1,1,4.429-4.429,4.434,4.434,0,0,1-4.429,4.429m0-7.515a3.087,3.087,0,1,0,3.087,3.087,3.09,3.09,0,0,0-3.087-3.087" transform="translate(-130.232 -137.929)" fill="#3d4451"/>
        <path id="Trazado_35936" data-name="Trazado 35936" d="M125.089,144.231a10.117,10.117,0,1,1,10.117-10.117,10.129,10.129,0,0,1-10.117,10.117m0-18.5a8.383,8.383,0,1,0,8.383,8.383,8.392,8.392,0,0,0-8.383-8.383" transform="translate(-98.069 -105.767)" fill="#3d4451"/>
        <path id="Trazado_35937" data-name="Trazado 35937" d="M80.648,107.451A17.777,17.777,0,1,1,98.425,89.674a17.8,17.8,0,0,1-17.777,17.777m0-32.663A14.886,14.886,0,1,0,95.534,89.674,14.9,14.9,0,0,0,80.648,74.787" transform="translate(-53.628 -61.327)" fill="#3d4451"/>
        <path id="Trazado_35938" data-name="Trazado 35938" d="M27.021,63.066A27.021,27.021,0,1,1,54.041,36.046,27.051,27.051,0,0,1,27.021,63.066m0-49.718a22.7,22.7,0,1,0,22.7,22.7,22.723,22.723,0,0,0-22.7-22.7" transform="translate(0 -7.698)" fill="#3d4451"/>
        <path id="Trazado_35939" data-name="Trazado 35939" d="M176.933,89.847a1.012,1.012,0,0,1-.636-1.8l20.957-16.91a1.012,1.012,0,1,1,1.271,1.575l-20.957,16.91a1.008,1.008,0,0,1-.635.224" transform="translate(-150.056 -60.488)" fill="#3d4451"/>
        <path id="Trazado_35940" data-name="Trazado 35940" d="M279.768,25.12l-1.258-7.191,7.729-6.335.9,8.218Z" transform="translate(-237.563 -9.889)" fill="#f04f4c"/>
        <path id="Trazado_35941" data-name="Trazado 35941" d="M273.62,16.76l-1.588-9.074L281.409,0l1.13,10.336Zm.317-8.367.929,5.308,5.819-4.191-.667-6.1Z" transform="translate(-232.037)" fill="#3d4451"/>
        <path id="Trazado_35942" data-name="Trazado 35942" d="M289.692,76.132l6.884,3.186,8.567-5.266-8.02-3.149Z" transform="translate(-247.101 -60.479)" fill="#f04f4c"/>
        <path id="Trazado_35943" data-name="Trazado 35943" d="M286.493,74.574l-8.69-4.023,9.061-6.375,10.1,3.964ZM281.3,70.237l5.077,2.35,6.668-4.1L287.1,66.154Z" transform="translate(-236.96 -54.741)" fill="#3d4451"/>
      </g>
    </g>
  </g>
</svg>
