<svg xmlns="http://www.w3.org/2000/svg" xmlns:xlink="http://www.w3.org/1999/xlink" width="264" height="235" viewBox="0 0 264 235">
  <defs>
    <filter id="Elipse_4098" x="30" y="0" width="234" height="235" filterUnits="userSpaceOnUse">
      <feOffset dy="3" input="SourceAlpha"/>
      <feGaussianBlur stdDeviation="3" result="blur"/>
      <feFlood flood-opacity="0.161"/>
      <feComposite operator="in" in2="blur"/>
      <feComposite in="SourceGraphic"/>
    </filter>
    <clipPath id="clip-path">
      <rect id="Rectángulo_4403" data-name="Rectángulo 4403" width="63" height="48.811" fill="none"/>
    </clipPath>
  </defs>
  <g id="Grupo_60141" data-name="Grupo 60141" transform="translate(-955 -6812.5)">
    <g transform="matrix(1, 0, 0, 1, 955, 6812.5)" filter="url(#Elipse_4098)">
      <g id="Elipse_4098-2" data-name="Elipse 4098" transform="translate(39 6)" fill="#fb8f36" stroke="#fff" stroke-width="4">
        <ellipse cx="108" cy="108.5" rx="108" ry="108.5" stroke="none"/>
        <ellipse cx="108" cy="108.5" rx="106" ry="106.5" fill="none"/>
      </g>
    </g>
    <text id="Obtención_de_la_información." data-name="Obtención de la información." transform="translate(1036 6902.5)" fill="#12263f" font-size="16" font-family="Roboto-Regular, Roboto"><tspan x="-55.363" y="17">Obtención de la </tspan><tspan x="-44.977" y="41">información.</tspan></text>
    <g id="Elipse_4099" data-name="Elipse 4099" transform="translate(1013.32 6838.153)" fill="none" stroke="#fff" stroke-linecap="round" stroke-miterlimit="10" stroke-width="2" stroke-dasharray="6 6">
      <circle cx="88.846" cy="88.846" r="88.846" stroke="none"/>
      <circle cx="88.846" cy="88.846" r="89.846" fill="none"/>
    </g>
    <g id="Elipse_4100" data-name="Elipse 4100" transform="translate(955 6890.5)" fill="#fff" stroke="#4733a3" stroke-width="1">
      <circle cx="40.5" cy="40.5" r="40.5" stroke="none"/>
      <circle cx="40.5" cy="40.5" r="40" fill="none"/>
    </g>
    <g id="Grupo_17448" data-name="Grupo 17448" transform="translate(957 6900.594)">
      <g id="Grupo_17447" data-name="Grupo 17447" clip-path="url(#clip-path)">
        <path id="Trazado_35944" data-name="Trazado 35944" d="M23.38,308.295c.946-4.592,4.8-8.7,9.4-8.691,4.141,0,7.665,3.033,9.011,7.048l.722-.066c.375-1.193.75-2.083,1.125-3.277l.88-2.8a10.077,10.077,0,0,1,1.193-2.955c.614-.856,2.044-1.663,3.05-.89,1.133.871.074,2.419-.881,2.95L45.35,310.37s-4.578,0-4.578-.005a1.827,1.827,0,0,1-.371.039l-15.274-.017a1.756,1.756,0,0,1-1.747-2.092" transform="translate(-20.647 -262.103)" fill="#7eb9c7"/>
        <path id="Trazado_35945" data-name="Trazado 35945" d="M25.151,284.288l-1.542-.212,1.605-11.7.534-.114a2.106,2.106,0,0,0,.4-.177c.125-.065.267-.138.416-.2,1.331-.546,2.548-1.839,2.166-2.821a1.194,1.194,0,0,0-.69-.646,3.728,3.728,0,0,0-2.734.15c-1.331.546-2.548,1.839-2.166,2.821a.976.976,0,0,0,.208.319l.351.371-2.512,5.866L20.4,276.67a10.307,10.307,0,0,0-8.554-5.281h-.008A9.576,9.576,0,0,0,5.159,274.4a13.22,13.22,0,0,0-3.6,9.618L0,284.038A14.763,14.763,0,0,1,4.05,273.3a11.138,11.138,0,0,1,7.785-3.471h.01a11.542,11.542,0,0,1,9.055,4.824l.985-2.3a2.413,2.413,0,0,1-.2-.4c-.674-1.733.656-3.852,3.026-4.825a5.239,5.239,0,0,1,3.939-.14,2.726,2.726,0,0,1,1.527,1.512c.674,1.733-.656,3.853-3.026,4.825-.087.036-.187.087-.293.142-.077.04-.157.081-.24.121Z" transform="translate(0 -235.851)" fill="#3d4451"/>
        <path id="Trazado_35946" data-name="Trazado 35946" d="M49.9,203.748a6.437,6.437,0,1,0-6.089-6.1,6.437,6.437,0,0,0,6.089,6.1" transform="translate(-38.744 -168.823)" fill="#fff"/>
        <path id="Trazado_35947" data-name="Trazado 35947" d="M45.435,199.587q-.181,0-.363-.009a7.087,7.087,0,1,1,.363.009m.017-12.873a5.8,5.8,0,1,0,.3.008c-.1-.005-.2-.008-.3-.008" transform="translate(-33.945 -164.027)" fill="#3d4451"/>
        <path id="Trazado_35948" data-name="Trazado 35948" d="M63.377,224.654a4.689,4.689,0,1,0-4.445-4.444,4.7,4.7,0,0,0,4.445,4.444" transform="translate(-52.116 -190.403)" fill="#7eb9c7"/>
        <path id="Trazado_35949" data-name="Trazado 35949" d="M39.487,370.919a.565.565,0,0,1-.565-.565v-5.591a.565.565,0,0,1,1.129,0v5.591a.565.565,0,0,1-.565.565" transform="translate(-34.424 -322.109)" fill="#3d4451"/>
        <path id="Trazado_35950" data-name="Trazado 35950" d="M382.184,201.4a6.817,6.817,0,1,0-6.449-6.457,6.817,6.817,0,0,0,6.449,6.457" transform="translate(-332.303 -166.07)" fill="#fff"/>
        <path id="Trazado_35951" data-name="Trazado 35951" d="M377.736,197.236c-.127,0-.254,0-.382-.01a7.465,7.465,0,1,1,.382.01m-.318-1.263a6.19,6.19,0,1,0-5.855-5.862A6.205,6.205,0,0,0,377.418,195.973Z" transform="translate(-327.505 -161.274)" fill="#3d4451"/>
        <path id="Trazado_35952" data-name="Trazado 35952" d="M333.108,324.67c.762-5.761,6.332-12.132,12.108-12.126s10.912,5.742,11.773,11.84" transform="translate(-294.611 -276.423)" fill="#fff"/>
        <path id="Trazado_35953" data-name="Trazado 35953" d="M328.971,319.951l-1.244-.165a15.871,15.871,0,0,1,4.342-8.577c2.523-2.64,5.5-4.094,8.379-4.094h.009a11.513,11.513,0,0,1,8.182,3.828,15.824,15.824,0,0,1,4.212,8.552l-1.242.175c-.864-6.12-5.971-11.3-11.153-11.3h-.007a10.81,10.81,0,0,0-7.473,3.706,14.8,14.8,0,0,0-4.005,7.875" transform="translate(-289.852 -271.623)" fill="#3d4451"/>
        <path id="Trazado_35954" data-name="Trazado 35954" d="M393.908,222.3a5.2,5.2,0,1,0-4.992-4.921,5.237,5.237,0,0,0,4.992,4.921" transform="translate(-343.964 -187.428)" fill="#7eb9c7"/>
        <path id="Trazado_35955" data-name="Trazado 35955" d="M428.845,337.317c-.955-4.429-4.876-8.394-9.574-8.4a8.423,8.423,0,0,0-2.186.288v10.112l9.971.011a1.724,1.724,0,0,0,1.789-2.013" transform="translate(-368.883 -290.905)" fill="#7eb9c7"/>
        <path id="Trazado_35956" data-name="Trazado 35956" d="M211.328,36.16H190.991a2.952,2.952,0,0,0-3.066,2.8v7.195a2.952,2.952,0,0,0,3.066,2.8h2.4l-.369,5.646,4.821-5.646h13.483a2.952,2.952,0,0,0,3.066-2.8V38.963a2.952,2.952,0,0,0-3.066-2.8" transform="translate(-166.207 -31.981)" fill="#c7ddeb"/>
        <path id="Trazado_35957" data-name="Trazado 35957" d="M154.212,24.929l.49-8.178h-2a4.031,4.031,0,0,1-4.033-4.021V4.022A4.031,4.031,0,0,1,152.7,0h22.588a4.031,4.031,0,0,1,4.033,4.021v8.709a4.031,4.031,0,0,1-4.033,4.021h-14.67ZM152.7,1.256a2.775,2.775,0,0,0-2.778,2.766v8.709A2.775,2.775,0,0,0,152.7,15.5h3.333L155.7,20.99l4.3-5.492h15.281a2.775,2.775,0,0,0,2.778-2.766V4.022a2.775,2.775,0,0,0-2.778-2.766Z" transform="translate(-131.486 -0.001)" fill="#3d4451"/>
        <path id="Trazado_35958" data-name="Trazado 35958" d="M330.915,351.93v-8.424c0-.262-.141-.475-.315-.475H319.7c-.174,0-.315.213-.315.475v8.424Z" transform="translate(-282.475 -303.387)" fill="#c7ddeb"/>
        <path id="Trazado_35959" data-name="Trazado 35959" d="M296.76,336.425h-1.254v-9.867a1.037,1.037,0,0,1,1.012-1.058h12.93a1.037,1.037,0,0,1,1.012,1.058v9.365H309.2v-9.168H296.76Z" transform="translate(-261.354 -287.882)" fill="#3d4451"/>
        <path id="Trazado_35960" data-name="Trazado 35960" d="M329.209,308.846h-2.252a1.433,1.433,0,0,0,.01-.164,1.534,1.534,0,0,0-3.066,0,1.419,1.419,0,0,0,.01.164h-1.968a.864.864,0,0,0-.88.847v1.257a.864.864,0,0,0,.88.847h7.268a.864.864,0,0,0,.88-.847v-1.257a.864.864,0,0,0-.88-.847" transform="translate(-283.956 -271.703)" fill="#fdc345"/>
        <path id="Trazado_35961" data-name="Trazado 35961" d="M318.581,308.875a1.3,1.3,0,0,1-1.319-1.286v-1.257a1.3,1.3,0,0,1,1.319-1.286h1.54a1.879,1.879,0,0,1,.564-1.084,1.991,1.991,0,0,1,1.388-.555h0a1.957,1.957,0,0,1,1.952,1.639h1.824a1.3,1.3,0,0,1,1.319,1.286v1.257a1.261,1.261,0,0,1-.392.915,1.329,1.329,0,0,1-.927.371Zm3.492-4.59h0a1.117,1.117,0,0,0-.78.309,1,1,0,0,0-.314.727.989.989,0,0,0,.007.114l.057.489h-2.461a.426.426,0,0,0-.441.408v1.257a.426.426,0,0,0,.441.407h7.268a.454.454,0,0,0,.318-.125.39.39,0,0,0,.123-.282v-1.257a.426.426,0,0,0-.441-.408H323.1l.057-.49a.994.994,0,0,0,.007-.113,1.067,1.067,0,0,0-1.094-1.036" transform="translate(-280.596 -268.342)" fill="#3d4451"/>
        <path id="Trazado_35962" data-name="Trazado 35962" d="M378.005,387.4a4.079,4.079,0,1,1,8.155,0" transform="translate(-334.319 -338.91)" fill="#7eb9c7"/>
        <path id="Trazado_35963" data-name="Trazado 35963" d="M382.82,383.559h-1a3.578,3.578,0,1,0-7.151,0h-1a4.581,4.581,0,1,1,9.158,0" transform="translate(-330.478 -335.07)" fill="#3d4451"/>
        <path id="Trazado_35964" data-name="Trazado 35964" d="M202.15,44.8H188.726a.69.69,0,1,1,0-1.38H202.15a.69.69,0,1,1,0,1.38" transform="translate(-166.305 -38.405)" fill="#3d4451"/>
        <path id="Trazado_35965" data-name="Trazado 35965" d="M338.485,44.9h-3.159a.741.741,0,0,1,0-1.483h3.159a.741.741,0,1,1,0,1.483" transform="translate(-295.916 -38.404)" fill="#3d4451"/>
        <path id="Trazado_35966" data-name="Trazado 35966" d="M195.193,83.1h-3.159a.741.741,0,0,1,0-1.483h3.159a.741.741,0,1,1,0,1.483" transform="translate(-169.185 -72.182)" fill="#3d4451"/>
        <path id="Trazado_35967" data-name="Trazado 35967" d="M250.937,83.1h-6.8a.741.741,0,1,1,0-1.483h6.8a.741.741,0,1,1,0,1.483" transform="translate(-215.269 -72.182)" fill="#3d4451"/>
        <path id="Trazado_35968" data-name="Trazado 35968" d="M331.594,83.1h-2.783a.741.741,0,1,1,0-1.483h2.783a.741.741,0,1,1,0,1.483" transform="translate(-290.155 -72.182)" fill="#3d4451"/>
      </g>
    </g>
  </g>
</svg>
