<svg xmlns="http://www.w3.org/2000/svg" xmlns:xlink="http://www.w3.org/1999/xlink" width="255" height="217" viewBox="0 0 255 217">
  <defs>
    <clipPath id="clip-path">
      <rect id="Rectángulo_4410" data-name="Rectángulo 4410" width="63.065" height="54.817" fill="none"/>
    </clipPath>
  </defs>
  <g id="Grupo_60142" data-name="Grupo 60142" transform="translate(-570 -7030.5)">
    <g id="Elipse_4101" data-name="Elipse 4101" transform="translate(609 7030.5)" fill="#fb8f36" stroke="#fff" stroke-width="4">
      <ellipse cx="108" cy="108.5" rx="108" ry="108.5" stroke="none"/>
      <ellipse cx="108" cy="108.5" rx="106" ry="106.5" fill="none"/>
    </g>
    <text id="Tratamiento_y_análisis_de_datos." data-name="Tratamiento y análisis de datos." transform="translate(667 7108.5)" fill="#12263f" font-size="16" font-family="Roboto-Regular, Roboto"><tspan x="-48.816" y="17">Tratamiento y </tspan><tspan x="-37.922" y="41">análisis de </tspan><tspan x="-22.191" y="65">datos.</tspan></text>
    <g id="Elipse_4102" data-name="Elipse 4102" transform="translate(628.32 7050.153)" fill="none" stroke="#fff" stroke-linecap="round" stroke-miterlimit="10" stroke-width="2" stroke-dasharray="6 6">
      <circle cx="88.846" cy="88.846" r="88.846" stroke="none"/>
      <circle cx="88.846" cy="88.846" r="89.846" fill="none"/>
    </g>
    <g id="Elipse_4103" data-name="Elipse 4103" transform="translate(570 7102.5)" fill="#fff" stroke="#4733a3" stroke-width="1">
      <circle cx="40.5" cy="40.5" r="40.5" stroke="none"/>
      <circle cx="40.5" cy="40.5" r="40" fill="none"/>
    </g>
    <g id="Grupo_17454" data-name="Grupo 17454" transform="translate(578.968 7114.342)">
      <g id="Grupo_17453" data-name="Grupo 17453" clip-path="url(#clip-path)">
        <path id="Trazado_35981" data-name="Trazado 35981" d="M77.035,399.122c0,.835-9.04,1.512-20.19,1.512s-20.19-.677-20.19-1.512,9.039-1.512,20.19-1.512,20.19.677,20.19,1.512" transform="translate(-31.88 -345.817)" fill="#7eb9c7"/>
        <path id="Trazado_35982" data-name="Trazado 35982" d="M86.9,112.563a2.8,2.8,0,0,1-2.872,2.715h-44.5a2.8,2.8,0,0,1-2.872-2.715V86.773a2.8,2.8,0,0,1,2.872-2.715h44.5A2.8,2.8,0,0,1,86.9,86.773Z" transform="translate(-31.879 -73.108)" fill="#c7ddeb"/>
        <path id="Trazado_35983" data-name="Trazado 35983" d="M49.414,82.135H0V49.4H49.414ZM1.473,80.662H47.942V50.877H1.473Z" transform="translate(0 -42.969)" fill="#3d4451"/>
        <path id="Trazado_35984" data-name="Trazado 35984" d="M211.346,23.29a17.383,17.383,0,1,1,17.382,17.383A17.383,17.383,0,0,1,211.346,23.29" transform="translate(-183.816 -5.138)" fill="#f5fafc"/>
        <path id="Trazado_35985" data-name="Trazado 35985" d="M233.654,41.6a15.526,15.526,0,1,1,15.523,15.225A15.376,15.376,0,0,1,233.654,41.6" transform="translate(-203.218 -22.936)" fill="#7eb9c7"/>
        <path id="Trazado_35986" data-name="Trazado 35986" d="M223.591,36.3a18.152,18.152,0,1,1,18.152-18.152A18.173,18.173,0,0,1,223.591,36.3m0-34.765A16.613,16.613,0,1,0,240.2,18.152,16.632,16.632,0,0,0,223.591,1.539" transform="translate(-178.678)" fill="#3d4451"/>
        <path id="Trazado_35987" data-name="Trazado 35987" d="M346.851,11.038l-5.2,16.676,17.455-1.433s-1.068-11.859-12.258-15.243" transform="translate(-297.15 -9.6)" fill="#f04f4c"/>
        <path id="Trazado_35988" data-name="Trazado 35988" d="M334.675,23.032l5.677-18.215L340.97,5a17.4,17.4,0,0,1,10.721,9.227,20.577,20.577,0,0,1,2,6.582l.059.654Zm6.533-16.583-4.714,15.126,15.805-1.3a20.462,20.462,0,0,0-1.8-5.514,15.844,15.844,0,0,0-9.294-8.315" transform="translate(-291.08 -4.19)" fill="#3d4451"/>
        <path id="Trazado_35989" data-name="Trazado 35989" d="M340.154,131.845l16.521,6.707a14.667,14.667,0,0,0,1.466-8.162" transform="translate(-295.845 -113.405)" fill="#fdc345"/>
        <path id="Trazado_35990" data-name="Trazado 35990" d="M351.286,134.643l-17.646-7.164.49-1.207L350.695,133a14.769,14.769,0,0,0,1.131-7.272l-.059-.649,1.3-.118.059.649a15.222,15.222,0,0,1-1.553,8.55Z" transform="translate(-290.18 -108.681)" fill="#3d4451"/>
        <path id="Trazado_35991" data-name="Trazado 35991" d="M79.034,119.376a5.811,5.811,0,1,0-5.5-5.5,5.811,5.811,0,0,0,5.5,5.5" transform="translate(-63.946 -93.725)" fill="#3d4451"/>
        <path id="Trazado_35992" data-name="Trazado 35992" d="M31.951,192.7l-2.467,6.083a2.386,2.386,0,0,1-3.019,1.331,2.514,2.514,0,0,1-1.45-1.4,3.294,3.294,0,0,1,.217-2.2l2.375-7.563c.67-2.134,1.377-4.582,3.008-6.206a8.29,8.29,0,0,1,5.723-2.607c.923,0,4.649-.012,6.745.119,0,0,10.991-2.81,11.639-2.917a2.77,2.77,0,0,1,1.905.3,1.7,1.7,0,0,1,.777,1.048,2.29,2.29,0,0,1-.566,2.038c-.977,1.076-2.581,1.5-3.9,1.985l-4.681,1.738A5.466,5.466,0,0,0,45.7,185.8a5.719,5.719,0,0,0-1.091,2.23,15.854,15.854,0,0,0-.4,3.2c-.186,3.364-.464,6.738-.462,10.1,0,1.6.051,3.2.052,4.8a2.454,2.454,0,0,1-2.059,2.442,2.429,2.429,0,0,1-2.786-2.4V197.8H36.73v8.067a2.457,2.457,0,0,1-2.052,2.447,2.429,2.429,0,0,1-2.793-2.395V192.7" transform="translate(-21.648 -154.197)" fill="#3d4451"/>
        <path id="Trazado_35993" data-name="Trazado 35993" d="M110.318,210.316h3.156l-1.136,1.894.884,5.429-1.389,2.146-1.515-2.146,1.01-5.429Z" transform="translate(-95.948 -182.92)" fill="#f04f4c"/>
        <path id="Trazado_35994" data-name="Trazado 35994" d="M254.031,126.162l14.193-10.285a.693.693,0,0,0-.763-1.155l-14.946,8.967" transform="translate(-219.622 -99.692)" fill="#3d4451"/>
      </g>
    </g>
  </g>
</svg>
