<?xml version="1.0" encoding="utf-8"?>
<!-- Generator: Adobe Illustrator 25.4.1, SVG Export Plug-In . SVG Version: 6.00 Build 0)  -->
<svg version="1.1" id="Capa_1" xmlns="http://www.w3.org/2000/svg" xmlns:xlink="http://www.w3.org/1999/xlink" x="0px" y="0px"
	 viewBox="0 0 255 217" style="enable-background:new 0 0 255 217;" xml:space="preserve">
<style type="text/css">
	.st0{fill:#FB8F36;}
	.st1{fill:none;stroke:#FFFFFF;stroke-width:4;}
	.st2{enable-background:new    ;}
	.st3{fill:#12263F;}
	.st4{fill:none;}
	.st5{fill:none;stroke:#FFFFFF;stroke-width:2;stroke-linecap:round;stroke-miterlimit:10;stroke-dasharray:6,6;}
	.st6{fill:#FFFFFF;}
	.st7{fill:none;stroke:#4733A3;}
	.st8{clip-path:url(#SVGID_00000169552006332129460150000016502871485690294149_);}
	.st9{fill:#7EB9C7;}
	.st10{fill:#C7DDEB;}
	.st11{fill:#3D4451;}
	.st12{fill:#F5FAFC;}
	.st13{fill:#F04F4C;}
	.st14{fill:#FDC345;}
</style>
<g id="Elipse_4101" transform="translate(609 7030.5)">
	<ellipse class="st0" cx="-462" cy="-6922" rx="108" ry="108.5"/>
	<ellipse class="st1" cx="-462" cy="-6922" rx="106" ry="106.5"/>
</g>
<g class="st2">
	<path class="st3" d="M105.4,84.9h-3.7V95h-1.5V84.9h-3.6v-1.2h8.8V84.9z"/>
	<path class="st3" d="M110.3,87.8c-0.2,0-0.5-0.1-0.7-0.1c-0.9,0-1.6,0.4-1.9,1.2v6h-1.4v-8.5h1.4l0,1c0.5-0.8,1.1-1.1,2-1.1
		c0.3,0,0.5,0,0.6,0.1V87.8z"/>
	<path class="st3" d="M116.6,95c-0.1-0.2-0.2-0.5-0.2-0.9c-0.7,0.7-1.5,1-2.4,1c-0.8,0-1.5-0.2-2.1-0.7c-0.5-0.5-0.8-1.1-0.8-1.8
		c0-0.9,0.3-1.6,1-2.1c0.7-0.5,1.6-0.7,2.8-0.7h1.4v-0.7c0-0.5-0.2-0.9-0.5-1.2c-0.3-0.3-0.7-0.4-1.3-0.4c-0.5,0-0.9,0.1-1.3,0.4
		c-0.3,0.3-0.5,0.6-0.5,0.9h-1.5c0-0.4,0.1-0.8,0.4-1.2c0.3-0.4,0.7-0.7,1.2-0.9c0.5-0.2,1.1-0.3,1.7-0.3c1,0,1.7,0.2,2.3,0.7
		c0.6,0.5,0.8,1.2,0.9,2V93c0,0.8,0.1,1.4,0.3,1.9V95H116.6z M114.2,93.9c0.5,0,0.9-0.1,1.3-0.4s0.7-0.5,0.9-0.9v-1.7h-1.1
		c-1.8,0-2.7,0.5-2.7,1.6c0,0.5,0.2,0.8,0.5,1.1C113.3,93.8,113.7,93.9,114.2,93.9z"/>
	<path class="st3" d="M122,84.5v2h1.6v1.1H122v5.2c0,0.3,0.1,0.6,0.2,0.8c0.1,0.2,0.4,0.3,0.7,0.3c0.2,0,0.4,0,0.7-0.1V95
		c-0.4,0.1-0.8,0.2-1.1,0.2c-0.6,0-1.1-0.2-1.5-0.6s-0.5-0.9-0.5-1.7v-5.2H119v-1.1h1.5v-2H122z"/>
	<path class="st3" d="M130.5,95c-0.1-0.2-0.2-0.5-0.2-0.9c-0.7,0.7-1.5,1-2.4,1c-0.8,0-1.5-0.2-2.1-0.7c-0.5-0.5-0.8-1.1-0.8-1.8
		c0-0.9,0.3-1.6,1-2.1c0.7-0.5,1.6-0.7,2.8-0.7h1.4v-0.7c0-0.5-0.2-0.9-0.5-1.2s-0.7-0.4-1.3-0.4c-0.5,0-0.9,0.1-1.3,0.4
		c-0.3,0.3-0.5,0.6-0.5,0.9h-1.5c0-0.4,0.1-0.8,0.4-1.2c0.3-0.4,0.7-0.7,1.2-0.9c0.5-0.2,1.1-0.3,1.7-0.3c1,0,1.7,0.2,2.3,0.7
		s0.8,1.2,0.9,2V93c0,0.8,0.1,1.4,0.3,1.9V95H130.5z M128.1,93.9c0.5,0,0.9-0.1,1.3-0.4s0.7-0.5,0.9-0.9v-1.7h-1.1
		c-1.8,0-2.7,0.5-2.7,1.6c0,0.5,0.2,0.8,0.5,1.1C127.2,93.8,127.6,93.9,128.1,93.9z"/>
	<path class="st3" d="M135.4,86.5l0,0.9c0.6-0.7,1.5-1.1,2.5-1.1c1.2,0,2,0.5,2.4,1.4c0.3-0.4,0.6-0.7,1.1-1s1-0.4,1.6-0.4
		c1.9,0,2.8,1,2.8,2.9V95h-1.4v-5.6c0-0.6-0.1-1.1-0.4-1.4s-0.7-0.4-1.4-0.4c-0.5,0-1,0.2-1.3,0.5s-0.6,0.8-0.6,1.3V95h-1.5v-5.5
		c0-1.2-0.6-1.8-1.8-1.8c-0.9,0-1.6,0.4-1.9,1.2V95H134v-8.5H135.4z"/>
	<path class="st3" d="M148,84.3c0-0.2,0.1-0.4,0.2-0.6s0.4-0.2,0.6-0.2s0.5,0.1,0.6,0.2s0.2,0.4,0.2,0.6s-0.1,0.4-0.2,0.6
		s-0.4,0.2-0.6,0.2s-0.5-0.1-0.6-0.2S148,84.5,148,84.3z M149.6,95h-1.4v-8.5h1.4V95z"/>
	<path class="st3" d="M155.4,95.2c-1.1,0-2.1-0.4-2.8-1.1s-1.1-1.8-1.1-3v-0.3c0-0.8,0.2-1.6,0.5-2.2s0.8-1.2,1.3-1.5
		s1.2-0.6,1.9-0.6c1.1,0,2,0.4,2.6,1.1s0.9,1.8,0.9,3.1v0.6H153c0,0.8,0.3,1.5,0.7,2s1.1,0.8,1.8,0.8c0.5,0,0.9-0.1,1.3-0.3
		s0.7-0.5,0.9-0.8l0.9,0.7C157.9,94.6,156.8,95.2,155.4,95.2z M155.2,87.6c-0.6,0-1.1,0.2-1.5,0.6s-0.6,1-0.7,1.8h4.2v-0.1
		c0-0.7-0.2-1.3-0.6-1.7S155.8,87.6,155.2,87.6z"/>
	<path class="st3" d="M161.7,86.5l0,1.1c0.6-0.8,1.5-1.2,2.5-1.2c1.8,0,2.7,1,2.7,3V95h-1.4v-5.6c0-0.6-0.1-1.1-0.4-1.4
		s-0.7-0.4-1.3-0.4c-0.5,0-0.9,0.1-1.2,0.4s-0.6,0.6-0.8,1v6h-1.4v-8.5H161.7z"/>
	<path class="st3" d="M171.2,84.5v2h1.6v1.1h-1.6v5.2c0,0.3,0.1,0.6,0.2,0.8c0.1,0.2,0.4,0.3,0.7,0.3c0.2,0,0.4,0,0.7-0.1V95
		c-0.4,0.1-0.8,0.2-1.1,0.2c-0.6,0-1.1-0.2-1.5-0.6s-0.5-0.9-0.5-1.7v-5.2h-1.5v-1.1h1.5v-2H171.2z"/>
	<path class="st3" d="M173.9,90.7c0-0.8,0.2-1.6,0.5-2.2s0.8-1.2,1.4-1.5s1.2-0.5,2-0.5c1.2,0,2.1,0.4,2.8,1.2s1.1,1.9,1.1,3.2v0.1
		c0,0.8-0.2,1.6-0.5,2.2s-0.8,1.2-1.4,1.5s-1.3,0.5-2,0.5c-1.1,0-2.1-0.4-2.8-1.2s-1.1-1.9-1.1-3.2V90.7z M175.3,90.9
		c0,0.9,0.2,1.7,0.7,2.3s1,0.9,1.7,0.9c0.7,0,1.3-0.3,1.8-0.9s0.6-1.4,0.6-2.4c0-0.9-0.2-1.7-0.7-2.3s-1-0.9-1.8-0.9
		c-0.7,0-1.3,0.3-1.7,0.9S175.3,89.8,175.3,90.9z"/>
	<path class="st3" d="M190.1,92.9l2-6.3h1.5l-3.4,9.8c-0.5,1.4-1.4,2.1-2.5,2.1l-0.3,0l-0.5-0.1v-1.2l0.4,0c0.5,0,0.9-0.1,1.1-0.3
		s0.5-0.6,0.7-1.1l0.3-0.9l-3-8.4h1.6L190.1,92.9z"/>
</g>
<g class="st2">
	<path class="st3" d="M113.4,119c-0.1-0.2-0.2-0.5-0.2-0.9c-0.7,0.7-1.5,1-2.4,1c-0.8,0-1.5-0.2-2.1-0.7c-0.5-0.5-0.8-1.1-0.8-1.8
		c0-0.9,0.3-1.6,1-2.1c0.7-0.5,1.6-0.7,2.8-0.7h1.4v-0.7c0-0.5-0.2-0.9-0.5-1.2c-0.3-0.3-0.7-0.4-1.3-0.4c-0.5,0-0.9,0.1-1.3,0.4
		c-0.3,0.3-0.5,0.6-0.5,0.9h-1.5c0-0.4,0.1-0.8,0.4-1.2c0.3-0.4,0.7-0.7,1.2-0.9c0.5-0.2,1.1-0.3,1.7-0.3c1,0,1.7,0.2,2.3,0.7
		c0.6,0.5,0.8,1.2,0.9,2v3.9c0,0.8,0.1,1.4,0.3,1.9v0.1H113.4z M111,117.9c0.5,0,0.9-0.1,1.3-0.4s0.7-0.5,0.9-0.9v-1.7h-1.1
		c-1.8,0-2.7,0.5-2.7,1.6c0,0.5,0.2,0.8,0.5,1.1C110.1,117.8,110.5,117.9,111,117.9z"/>
	<path class="st3" d="M118.3,110.5l0,1.1c0.6-0.8,1.5-1.2,2.5-1.2c1.8,0,2.7,1,2.7,3v5.6h-1.4v-5.6c0-0.6-0.1-1.1-0.4-1.4
		s-0.7-0.4-1.3-0.4c-0.5,0-0.9,0.1-1.2,0.4c-0.4,0.2-0.6,0.6-0.8,1v6h-1.4v-8.5H118.3z"/>
	<path class="st3" d="M130.9,119c-0.1-0.2-0.2-0.5-0.2-0.9c-0.7,0.7-1.5,1-2.4,1c-0.8,0-1.5-0.2-2.1-0.7c-0.5-0.5-0.8-1.1-0.8-1.8
		c0-0.9,0.3-1.6,1-2.1c0.7-0.5,1.6-0.7,2.8-0.7h1.4v-0.7c0-0.5-0.2-0.9-0.5-1.2c-0.3-0.3-0.7-0.4-1.3-0.4c-0.5,0-0.9,0.1-1.3,0.4
		c-0.3,0.3-0.5,0.6-0.5,0.9h-1.5c0-0.4,0.1-0.8,0.4-1.2c0.3-0.4,0.7-0.7,1.2-0.9c0.5-0.2,1.1-0.3,1.7-0.3c1,0,1.7,0.2,2.3,0.7
		c0.6,0.5,0.8,1.2,0.9,2v3.9c0,0.8,0.1,1.4,0.3,1.9v0.1H130.9z M128.5,117.9c0.5,0,0.9-0.1,1.3-0.4s0.7-0.5,0.9-0.9v-1.7h-1.1
		c-1.8,0-2.7,0.5-2.7,1.6c0,0.5,0.2,0.8,0.5,1.1C127.7,117.8,128.1,117.9,128.5,117.9z M129.9,107h1.8l-2.1,2.3l-1.2,0L129.9,107z"
		/>
	<path class="st3" d="M136,119h-1.4v-12h1.4V119z"/>
	<path class="st3" d="M138.3,108.3c0-0.2,0.1-0.4,0.2-0.6c0.1-0.2,0.4-0.2,0.6-0.2s0.5,0.1,0.6,0.2c0.1,0.2,0.2,0.4,0.2,0.6
		s-0.1,0.4-0.2,0.6c-0.1,0.2-0.4,0.2-0.6,0.2s-0.5-0.1-0.6-0.2C138.4,108.7,138.3,108.5,138.3,108.3z M139.9,119h-1.4v-8.5h1.4V119z
		"/>
	<path class="st3" d="M147.1,116.8c0-0.4-0.1-0.7-0.4-0.9c-0.3-0.2-0.8-0.4-1.5-0.6c-0.7-0.2-1.3-0.3-1.7-0.6s-0.7-0.5-1-0.8
		c-0.2-0.3-0.3-0.7-0.3-1.1c0-0.7,0.3-1.3,0.9-1.8s1.3-0.7,2.2-0.7c1,0,1.7,0.2,2.3,0.7c0.6,0.5,0.9,1.1,0.9,1.9H147
		c0-0.4-0.2-0.7-0.5-1s-0.8-0.4-1.3-0.4c-0.5,0-0.9,0.1-1.2,0.3s-0.4,0.5-0.4,0.9c0,0.3,0.1,0.6,0.4,0.8c0.3,0.2,0.8,0.3,1.5,0.5
		c0.7,0.2,1.3,0.4,1.8,0.6c0.4,0.2,0.8,0.5,1,0.8c0.2,0.3,0.3,0.7,0.3,1.2c0,0.8-0.3,1.4-0.9,1.8c-0.6,0.5-1.4,0.7-2.4,0.7
		c-0.7,0-1.3-0.1-1.8-0.4c-0.5-0.2-0.9-0.6-1.2-1c-0.3-0.4-0.4-0.9-0.4-1.4h1.4c0,0.5,0.2,0.9,0.6,1.2c0.4,0.3,0.8,0.4,1.4,0.4
		c0.5,0,1-0.1,1.3-0.3C146.9,117.4,147.1,117.1,147.1,116.8z"/>
	<path class="st3" d="M150.4,108.3c0-0.2,0.1-0.4,0.2-0.6c0.1-0.2,0.4-0.2,0.6-0.2s0.5,0.1,0.6,0.2c0.1,0.2,0.2,0.4,0.2,0.6
		s-0.1,0.4-0.2,0.6c-0.1,0.2-0.4,0.2-0.6,0.2s-0.5-0.1-0.6-0.2C150.5,108.7,150.4,108.5,150.4,108.3z M152,119h-1.4v-8.5h1.4V119z"
		/>
	<path class="st3" d="M159.2,116.8c0-0.4-0.1-0.7-0.4-0.9c-0.3-0.2-0.8-0.4-1.5-0.6c-0.7-0.2-1.3-0.3-1.7-0.6s-0.7-0.5-1-0.8
		c-0.2-0.3-0.3-0.7-0.3-1.1c0-0.7,0.3-1.3,0.9-1.8s1.3-0.7,2.2-0.7c1,0,1.7,0.2,2.3,0.7c0.6,0.5,0.9,1.1,0.9,1.9h-1.5
		c0-0.4-0.2-0.7-0.5-1s-0.8-0.4-1.3-0.4c-0.5,0-0.9,0.1-1.2,0.3s-0.4,0.5-0.4,0.9c0,0.3,0.1,0.6,0.4,0.8c0.3,0.2,0.8,0.3,1.5,0.5
		c0.7,0.2,1.3,0.4,1.8,0.6c0.4,0.2,0.8,0.5,1,0.8c0.2,0.3,0.3,0.7,0.3,1.2c0,0.8-0.3,1.4-0.9,1.8c-0.6,0.5-1.4,0.7-2.4,0.7
		c-0.7,0-1.3-0.1-1.8-0.4c-0.5-0.2-0.9-0.6-1.2-1c-0.3-0.4-0.4-0.9-0.4-1.4h1.4c0,0.5,0.2,0.9,0.6,1.2c0.4,0.3,0.8,0.4,1.4,0.4
		c0.5,0,1-0.1,1.3-0.3C159.1,117.4,159.2,117.1,159.2,116.8z"/>
	<path class="st3" d="M166.2,114.7c0-1.3,0.3-2.3,0.9-3.1c0.6-0.8,1.4-1.2,2.4-1.2c1,0,1.8,0.3,2.4,1V107h1.4v12H172l-0.1-0.9
		c-0.6,0.7-1.4,1.1-2.4,1.1c-1,0-1.8-0.4-2.4-1.2s-0.9-1.8-0.9-3.1V114.7z M167.6,114.9c0,1,0.2,1.7,0.6,2.2
		c0.4,0.5,0.9,0.8,1.6,0.8c0.9,0,1.6-0.4,2-1.2v-3.9c-0.4-0.8-1.1-1.2-2-1.2c-0.7,0-1.3,0.3-1.7,0.8
		C167.8,113,167.6,113.8,167.6,114.9z"/>
	<path class="st3" d="M179.1,119.2c-1.1,0-2.1-0.4-2.8-1.1s-1.1-1.8-1.1-3v-0.3c0-0.8,0.2-1.6,0.5-2.2s0.8-1.2,1.3-1.5
		c0.6-0.4,1.2-0.6,1.9-0.6c1.1,0,2,0.4,2.6,1.1s0.9,1.8,0.9,3.1v0.6h-5.7c0,0.8,0.3,1.5,0.7,2c0.5,0.5,1.1,0.8,1.8,0.8
		c0.5,0,0.9-0.1,1.3-0.3c0.4-0.2,0.7-0.5,0.9-0.8l0.9,0.7C181.5,118.6,180.5,119.2,179.1,119.2z M178.9,111.6
		c-0.6,0-1.1,0.2-1.5,0.6c-0.4,0.4-0.6,1-0.7,1.8h4.2v-0.1c0-0.7-0.2-1.3-0.6-1.7C180,111.8,179.5,111.6,178.9,111.6z"/>
</g>
<g class="st2">
	<path class="st3" d="M123.6,138.7c0-1.3,0.3-2.3,0.9-3.1c0.6-0.8,1.4-1.2,2.4-1.2c1,0,1.8,0.3,2.4,1V131h1.4v12h-1.3l-0.1-0.9
		c-0.6,0.7-1.4,1.1-2.4,1.1c-1,0-1.8-0.4-2.4-1.2s-0.9-1.8-0.9-3.1V138.7z M125,138.9c0,1,0.2,1.7,0.6,2.2c0.4,0.5,0.9,0.8,1.6,0.8
		c0.9,0,1.6-0.4,2-1.2v-3.9c-0.4-0.8-1.1-1.2-2-1.2c-0.7,0-1.3,0.3-1.7,0.8C125.2,137,125,137.8,125,138.9z"/>
	<path class="st3" d="M138.2,143c-0.1-0.2-0.2-0.5-0.2-0.9c-0.7,0.7-1.5,1-2.4,1c-0.8,0-1.5-0.2-2.1-0.7s-0.8-1.1-0.8-1.8
		c0-0.9,0.3-1.6,1-2.1s1.6-0.7,2.8-0.7h1.4v-0.7c0-0.5-0.2-0.9-0.5-1.2s-0.7-0.4-1.3-0.4c-0.5,0-0.9,0.1-1.3,0.4s-0.5,0.6-0.5,0.9
		h-1.5c0-0.4,0.1-0.8,0.4-1.2s0.7-0.7,1.2-0.9s1.1-0.3,1.7-0.3c1,0,1.7,0.2,2.3,0.7s0.8,1.2,0.9,2v3.9c0,0.8,0.1,1.4,0.3,1.9v0.1
		H138.2z M135.8,141.9c0.5,0,0.9-0.1,1.3-0.4s0.7-0.5,0.9-0.9v-1.7h-1.1c-1.8,0-2.7,0.5-2.7,1.6c0,0.5,0.2,0.8,0.5,1.1
		S135.3,141.9,135.8,141.9z"/>
	<path class="st3" d="M143.6,132.5v2h1.6v1.1h-1.6v5.2c0,0.3,0.1,0.6,0.2,0.8c0.1,0.2,0.4,0.3,0.7,0.3c0.2,0,0.4,0,0.7-0.1v1.2
		c-0.4,0.1-0.8,0.2-1.1,0.2c-0.6,0-1.1-0.2-1.5-0.6s-0.5-0.9-0.5-1.7v-5.2h-1.5v-1.1h1.5v-2H143.6z"/>
	<path class="st3" d="M146.3,138.7c0-0.8,0.2-1.6,0.5-2.2s0.8-1.2,1.4-1.5s1.2-0.5,2-0.5c1.2,0,2.1,0.4,2.8,1.2s1.1,1.9,1.1,3.2v0.1
		c0,0.8-0.2,1.6-0.5,2.2s-0.8,1.2-1.4,1.5s-1.3,0.5-2,0.5c-1.1,0-2.1-0.4-2.8-1.2s-1.1-1.9-1.1-3.2V138.7z M147.8,138.9
		c0,0.9,0.2,1.7,0.7,2.3s1,0.9,1.7,0.9c0.7,0,1.3-0.3,1.8-0.9s0.6-1.4,0.6-2.4c0-0.9-0.2-1.7-0.7-2.3s-1-0.9-1.8-0.9
		c-0.7,0-1.3,0.3-1.7,0.9S147.8,137.8,147.8,138.9z"/>
	<path class="st3" d="M160.8,140.8c0-0.4-0.1-0.7-0.4-0.9s-0.8-0.4-1.5-0.6s-1.3-0.3-1.7-0.6s-0.7-0.5-1-0.8s-0.3-0.7-0.3-1.1
		c0-0.7,0.3-1.3,0.9-1.8s1.3-0.7,2.2-0.7c1,0,1.7,0.2,2.3,0.7s0.9,1.1,0.9,1.9h-1.5c0-0.4-0.2-0.7-0.5-1s-0.8-0.4-1.3-0.4
		c-0.5,0-0.9,0.1-1.2,0.3s-0.4,0.5-0.4,0.9c0,0.3,0.1,0.6,0.4,0.8s0.8,0.3,1.5,0.5s1.3,0.4,1.8,0.6s0.8,0.5,1,0.8s0.3,0.7,0.3,1.2
		c0,0.8-0.3,1.4-0.9,1.8s-1.4,0.7-2.4,0.7c-0.7,0-1.3-0.1-1.8-0.4s-0.9-0.6-1.2-1s-0.4-0.9-0.4-1.4h1.4c0,0.5,0.2,0.9,0.6,1.2
		s0.8,0.4,1.4,0.4c0.5,0,1-0.1,1.3-0.3S160.8,141.1,160.8,140.8z"/>
	<path class="st3" d="M164.1,142.2c0-0.2,0.1-0.5,0.2-0.6s0.4-0.2,0.7-0.2s0.5,0.1,0.7,0.2s0.2,0.4,0.2,0.6c0,0.2-0.1,0.4-0.2,0.6
		s-0.4,0.2-0.7,0.2s-0.5-0.1-0.7-0.2S164.1,142.5,164.1,142.2z"/>
</g>
<g id="Elipse_4102" transform="translate(628.32 7050.153)">
	<circle class="st4" cx="-481.3" cy="-6941.7" r="88.8"/>
	<circle class="st5" cx="-481.3" cy="-6941.7" r="89.8"/>
</g>
<g id="Elipse_4103" transform="translate(570 7102.5)">
	<circle class="st6" cx="-529.5" cy="-6990" r="40.5"/>
	<circle class="st7" cx="-529.5" cy="-6990" r="40"/>
</g>
<g id="Grupo_17454" transform="translate(578.968 7114.342)">
	<g>
		<defs>
			<rect id="SVGID_1_" x="-570" y="-7030.5" width="63.1" height="54.8"/>
		</defs>
		<clipPath id="SVGID_00000016043481121963218540000014461227106530422717_">
			<use xlink:href="#SVGID_1_"  style="overflow:visible;"/>
		</clipPath>
		<g id="Grupo_17453" style="clip-path:url(#SVGID_00000016043481121963218540000014461227106530422717_);">
			<path id="Trazado_35981" class="st9" d="M-524.8-6977.2c0,0.8-9,1.5-20.2,1.5c-11.2,0-20.2-0.7-20.2-1.5s9-1.5,20.2-1.5
				S-524.8-6978-524.8-6977.2"/>
			<path id="Trazado_35982" class="st10" d="M-515-6991c0,1.5-1.3,2.8-2.9,2.7h-44.5c-1.5,0-2.8-1.2-2.9-2.7v-25.8
				c0-1.5,1.3-2.8,2.9-2.7h44.5c1.5,0,2.8,1.2,2.9,2.7V-6991z"/>
			<path id="Trazado_35983" class="st11" d="M-520.6-6991.3H-570v-32.7h49.4V-6991.3z M-568.5-6992.8h46.5v-29.8h-46.5V-6992.8z"/>
			<path id="Trazado_35984" class="st12" d="M-542.5-7012.3c0-9.6,7.8-17.4,17.4-17.4c9.6,0,17.4,7.8,17.4,17.4
				c0,9.6-7.8,17.4-17.4,17.4c0,0,0,0,0,0C-534.7-6995-542.5-7002.7-542.5-7012.3"/>
			<path id="Trazado_35985" class="st9" d="M-539.6-7011.8c-0.2-8.6,6.6-15.7,15.2-15.8c8.6-0.2,15.7,6.6,15.8,15.2
				s-6.6,15.7-15.2,15.8c-0.1,0-0.2,0-0.3,0C-532.5-6996.5-539.5-7003.3-539.6-7011.8"/>
			<path id="Trazado_35986" class="st11" d="M-525.1-6994.2c-10,0-18.2-8.1-18.2-18.2s8.1-18.2,18.2-18.2s18.2,8.1,18.2,18.2
				C-506.9-7002.3-515.1-6994.2-525.1-6994.2 M-525.1-7029c-9.2,0-16.6,7.4-16.6,16.6c0,9.2,7.4,16.6,16.6,16.6
				c9.2,0,16.6-7.4,16.6-16.6c0,0,0,0,0,0C-508.5-7021.5-515.9-7028.9-525.1-7029"/>
			<path id="Trazado_35987" class="st13" d="M-520.3-7029.1l-5.2,16.7l17.5-1.4C-508-7013.8-509.1-7025.7-520.3-7029.1"/>
			<path id="Trazado_35988" class="st11" d="M-526.4-7011.7l5.7-18.2l0.6,0.2c4.7,1.4,8.6,4.8,10.7,9.2c1,2.1,1.7,4.3,2,6.6l0.1,0.7
				L-526.4-7011.7z M-519.9-7028.2l-4.7,15.1l15.8-1.3c-0.3-1.9-0.9-3.8-1.8-5.5C-512.4-7023.9-515.8-7026.9-519.9-7028.2"/>
			<path id="Trazado_35989" class="st14" d="M-525.7-7012.1l16.5,6.7c1.3-2.5,1.8-5.4,1.5-8.2"/>
			<path id="Trazado_35990" class="st11" d="M-508.9-7004.5l-17.6-7.2l0.5-1.2l16.6,6.7c1-2.3,1.4-4.8,1.1-7.3l-0.1-0.6l1.3-0.1
				l0.1,0.6c0.3,2.9-0.2,5.9-1.6,8.5L-508.9-7004.5z"/>
			<path id="Trazado_35991" class="st11" d="M-554.9-7004.8c3.2,0.2,5.9-2.3,6.1-5.5c0.2-3.2-2.3-5.9-5.5-6.1s-5.9,2.3-6.1,5.5
				c0,0.2,0,0.4,0,0.6C-560.3-7007.4-557.9-7005-554.9-7004.8"/>
			<path id="Trazado_35992" class="st11" d="M-559.7-6992l-2.5,6.1c-0.5,1.2-1.8,1.8-3,1.3c-0.7-0.2-1.2-0.8-1.5-1.4
				c-0.2-0.7-0.1-1.5,0.2-2.2l2.4-7.6c0.7-2.1,1.4-4.6,3-6.2c1.5-1.6,3.5-2.5,5.7-2.6c0.9,0,4.6,0,6.7,0.1c0,0,11-2.8,11.6-2.9
				c0.7-0.1,1.3,0,1.9,0.3c0.4,0.2,0.7,0.6,0.8,1c0.2,0.7-0.1,1.5-0.6,2c-1,1.1-2.6,1.5-3.9,2l-4.7,1.7c-1,0.2-1.8,0.7-2.6,1.4
				c-0.5,0.7-0.9,1.4-1.1,2.2c-0.2,1.1-0.4,2.1-0.4,3.2c-0.2,3.4-0.5,6.7-0.5,10.1c0,1.6,0.1,3.2,0.1,4.8c0,1.2-0.9,2.2-2.1,2.4
				c-1.3,0.2-2.6-0.7-2.8-2c0-0.1,0-0.2,0-0.4v-8.4h-2.2v8.1c0,1.2-0.9,2.2-2.1,2.4c-1.3,0.2-2.6-0.7-2.8-2c0-0.1,0-0.2,0-0.4
				L-559.7-6992"/>
			<path id="Trazado_35993" class="st13" d="M-555.6-7003.1h3.2l-1.1,1.9l0.9,5.4l-1.4,2.1l-1.5-2.1l1-5.4L-555.6-7003.1z"/>
			<path id="Trazado_35994" class="st11" d="M-535.6-7004l14.2-10.3c0.3-0.2,0.4-0.7,0.1-1c-0.2-0.3-0.6-0.4-0.9-0.2l-14.9,9"/>
		</g>
	</g>
</g>
</svg>
