<svg xmlns="http://www.w3.org/2000/svg" xmlns:xlink="http://www.w3.org/1999/xlink" width="255" height="217" viewBox="0 0 255 217">
  <defs>
    <clipPath id="clip-path">
      <rect id="Rectángulo_4409" data-name="Rectángulo 4409" width="56.5" height="48.109" fill="none"/>
    </clipPath>
  </defs>
  <g id="Grupo_60143" data-name="Grupo 60143" transform="translate(-825 -7030.5)">
    <g id="Elipse_4104" data-name="Elipse 4104" transform="translate(864 7030.5)" fill="#fb8f36" stroke="#fff" stroke-width="4">
      <ellipse cx="108" cy="108.5" rx="108" ry="108.5" stroke="none"/>
      <ellipse cx="108" cy="108.5" rx="106" ry="106.5" fill="none"/>
    </g>
    <text id="Interpretación_de_resultados_y_presentación_de_conclusiones_Jiménez_2013_" data-name="Interpretación de resultados y presentación de conclusiones (Jiménez, 2013)" transform="translate(899 7083.5)" fill="#12263f" font-size="16" font-family="Roboto-Regular, Roboto"><tspan x="-60.383" y="17">Interpretación de </tspan><tspan x="-43.352" y="41">resultados y </tspan><tspan x="-57.012" y="65">presentación de </tspan><tspan x="-47.109" y="89">conclusiones </tspan><tspan x="-57.258" y="113">(Jiménez, 2013)</tspan></text>
    <g id="Elipse_4105" data-name="Elipse 4105" transform="translate(883.32 7050.153)" fill="none" stroke="#fff" stroke-linecap="round" stroke-miterlimit="10" stroke-width="2" stroke-dasharray="6 6">
      <circle cx="88.846" cy="88.846" r="88.846" stroke="none"/>
      <circle cx="88.846" cy="88.846" r="89.846" fill="none"/>
    </g>
    <g id="Elipse_4106" data-name="Elipse 4106" transform="translate(825 7102.5)" fill="#fff" stroke="#4733a3" stroke-width="1">
      <circle cx="40.5" cy="40.5" r="40.5" stroke="none"/>
      <circle cx="40.5" cy="40.5" r="40" fill="none"/>
    </g>
    <g id="Grupo_17452" data-name="Grupo 17452" transform="translate(838.5 7117.696)">
      <rect id="Rectángulo_4404" data-name="Rectángulo 4404" width="2.799" height="21.193" transform="translate(9.332 20.135)" fill="#c7ddeb"/>
      <rect id="Rectángulo_4405" data-name="Rectángulo 4405" width="2.799" height="27.59" transform="translate(17.729 8.739)" fill="#c7ddeb"/>
      <rect id="Rectángulo_4406" data-name="Rectángulo 4406" width="2.799" height="31.389" transform="translate(28.925 9.938)" fill="#c7ddeb"/>
      <rect id="Rectángulo_4407" data-name="Rectángulo 4407" width="2.799" height="19.193" transform="translate(39.322 12.537)" fill="#c7ddeb"/>
      <rect id="Rectángulo_4408" data-name="Rectángulo 4408" width="2.799" height="25.991" transform="translate(47.119 3.74)" fill="#c7ddeb"/>
      <g id="Grupo_17450" data-name="Grupo 17450">
        <g id="Grupo_17449" data-name="Grupo 17449" clip-path="url(#clip-path)">
          <path id="Trazado_35969" data-name="Trazado 35969" d="M55.415,48.109h0L0,48.037V1.084a1.084,1.084,0,0,1,2.168,0V45.872l53.249.069a1.084,1.084,0,0,1,0,2.168" transform="translate(0.001)" fill="#3d4451"/>
          <path id="Trazado_35970" data-name="Trazado 35970" d="M68.181,122.624l-1.1-1.086L84.024,104.3l6.451,8.012,19-19.566,1.111,1.079L90.366,114.652l-6.458-8.02Z" transform="translate(-59.196 -81.853)" fill="#3d4451"/>
          <path id="Trazado_35971" data-name="Trazado 35971" d="M390.965,60.4l9.384-1.333-1.2,8.721Z" transform="translate(-345.032 -52.127)" fill="#3d4451"/>
          <path id="Trazado_35972" data-name="Trazado 35972" d="M192.075,183.686a2.033,2.033,0,1,1,2.033,2.033,2.033,2.033,0,0,1-2.033-2.033" transform="translate(-169.509 -160.311)" fill="#3d4451"/>
          <path id="Trazado_35973" data-name="Trazado 35973" d="M249.608,252.538a2.157,2.157,0,1,1,2.157,2.157,2.157,2.157,0,0,1-2.157-2.157" transform="translate(-220.283 -220.965)" fill="#3d4451"/>
          <path id="Trazado_35974" data-name="Trazado 35974" d="M329.111,169.6a2.1,2.1,0,1,1,2.1,2.1,2.1,2.1,0,0,1-2.1-2.1" transform="translate(-290.445 -147.82)" fill="#3d4451"/>
          <path id="Trazado_35975" data-name="Trazado 35975" d="M61.53,303.652a3.134,3.134,0,1,1,3.134,3.134,3.134,3.134,0,0,1-3.134-3.134" transform="translate(-54.301 -265.212)" fill="#fdc345"/>
          <path id="Trazado_35976" data-name="Trazado 35976" d="M59.657,302.446a3.8,3.8,0,1,1,3.8-3.8,3.805,3.805,0,0,1-3.8,3.8m0-6.269a2.468,2.468,0,1,0,2.468,2.468,2.47,2.47,0,0,0-2.468-2.468" transform="translate(-49.294 -260.204)" fill="#3d4451"/>
          <path id="Trazado_35977" data-name="Trazado 35977" d="M107.659,44.2H100.6a3.267,3.267,0,0,0-3.258,3.258v2.714a3.267,3.267,0,0,0,3.258,3.258h3.766l2.954,3.742s.13-2.347.108-3.742h.229a3.267,3.267,0,0,0,3.257-3.258V47.455a3.267,3.267,0,0,0-3.257-3.258" transform="translate(-85.908 -39.005)" fill="#7eb9c7"/>
          <path id="Trazado_35978" data-name="Trazado 35978" d="M103.262,54.231l-3.769-4.774H96.022a3.872,3.872,0,0,1-3.867-3.867V42.875a3.872,3.872,0,0,1,3.867-3.867h7.058a3.871,3.871,0,0,1,3.867,3.867V45.59a3.872,3.872,0,0,1-3.485,3.848c-.011,1.371-.106,3.1-.111,3.185Zm-7.24-14a2.651,2.651,0,0,0-2.648,2.648V45.59a2.651,2.651,0,0,0,2.648,2.648h4.062l2.123,2.688c.025-.691.044-1.473.035-2.069l-.01-.619h.849a2.651,2.651,0,0,0,2.648-2.648V42.875a2.651,2.651,0,0,0-2.648-2.648Z" transform="translate(-81.328 -34.425)" fill="#3d4451"/>
          <path id="Trazado_35979" data-name="Trazado 35979" d="M347,256.771h7.058a3.267,3.267,0,0,0,3.257-3.258V250.8a3.267,3.267,0,0,0-3.257-3.257h-3.766l-2.954-3.742s-.13,2.347-.108,3.742H347a3.267,3.267,0,0,0-3.258,3.257v2.714A3.267,3.267,0,0,0,347,256.771" transform="translate(-303.356 -215.157)" fill="#f04f4c"/>
          <path id="Trazado_35980" data-name="Trazado 35980" d="M349.476,245.046h-7.058a3.871,3.871,0,0,1-3.867-3.867v-2.715a3.872,3.872,0,0,1,3.485-3.848c.011-1.371.106-3.1.111-3.185l.089-1.608L346,234.6h3.471a3.871,3.871,0,0,1,3.867,3.867v2.715a3.871,3.871,0,0,1-3.867,3.867m-7.058-9.229a2.651,2.651,0,0,0-2.648,2.648v2.715a2.651,2.651,0,0,0,2.648,2.648h7.058a2.651,2.651,0,0,0,2.648-2.648v-2.715a2.651,2.651,0,0,0-2.648-2.648h-4.062l-2.122-2.688c-.025.691-.044,1.473-.035,2.069l.01.619Z" transform="translate(-298.776 -202.822)" fill="#3d4451"/>
        </g>
      </g>
    </g>
  </g>
</svg>
