<svg xmlns="http://www.w3.org/2000/svg" width="640" height="461.5" viewBox="0 0 640 461.5">
  <g id="Grupo_59678" data-name="Grupo 59678" transform="translate(6121 4489.5)">
    <line id="Línea_172" data-name="Línea 172" x2="354" transform="translate(-6011.5 -4446.5)" fill="none" stroke="#707070" stroke-width="1"/>
    <line id="Línea_173" data-name="Línea 173" x2="354" transform="translate(-6011.5 -4307)" fill="none" stroke="#707070" stroke-width="1"/>
    <line id="Línea_174" data-name="Línea 174" x2="354" transform="translate(-6011.5 -4175)" fill="none" stroke="#707070" stroke-width="1"/>
    <rect id="Rectángulo_31667" data-name="Rectángulo 31667" width="190" height="86" rx="18" transform="translate(-6121 -4489.5)" fill="#bbabf5"/>
    <rect id="Rectángulo_31672" data-name="Rectángulo 31672" width="190" height="86" rx="18" transform="translate(-6121 -4348)" fill="#bbabf5"/>
    <rect id="Rectángulo_31673" data-name="Rectángulo 31673" width="190" height="86" rx="18" transform="translate(-6121 -4218)" fill="#bbabf5"/>
    <rect id="Rectángulo_31668" data-name="Rectángulo 31668" width="190" height="86" rx="18" transform="translate(-5895 -4489.5)" fill="#bbabf5"/>
    <rect id="Rectángulo_31671" data-name="Rectángulo 31671" width="190" height="86" rx="18" transform="translate(-5895 -4348)" fill="#bbabf5"/>
    <rect id="Rectángulo_31674" data-name="Rectángulo 31674" width="190" height="86" rx="18" transform="translate(-5895 -4218)" fill="#bbabf5"/>
    <rect id="Rectángulo_31676" data-name="Rectángulo 31676" width="290" height="62" rx="18" transform="translate(-5948 -4090)" fill="#fd8f25"/>
    <rect id="Rectángulo_31669" data-name="Rectángulo 31669" width="190" height="86" rx="18" transform="translate(-5677 -4489.5)" fill="#bbabf5"/>
    <rect id="Rectángulo_31670" data-name="Rectángulo 31670" width="190" height="86" rx="18" transform="translate(-5677 -4348)" fill="#bbabf5"/>
    <rect id="Rectángulo_31675" data-name="Rectángulo 31675" width="190" height="86" rx="18" transform="translate(-5677 -4218)" fill="#bbabf5"/>
    <text id="Diagnóstico_actual_" data-name="Diagnóstico actual " transform="translate(-6121 -4457)" fill="#12263f" font-size="16" font-family="Roboto-Regular, Roboto"><tspan x="-66.27" y="17">Diagnóstico actual </tspan></text>
    <text id="Diseño_de_la_investigación_" data-name="Diseño de la investigación " transform="translate(-5871 -4470)" fill="#12263f" font-size="16" font-family="Roboto-Regular, Roboto"><tspan x="27.969" y="17">Diseño de la </tspan><tspan x="24.406" y="41">investigación </tspan></text>
    <text id="Instrumentos_de_recolección" data-name="Instrumentos de recolección" transform="translate(-5680 -4469)" fill="#12263f" font-size="16" font-family="Roboto-Regular, Roboto"><tspan x="-58.063" y="17">Instrumentos de </tspan><tspan x="-41.168" y="41">recolección</tspan></text>
    <text id="Recopilación_de_datos_" data-name="Recopilación de datos " transform="translate(-6094 -4327)" fill="#12263f" font-size="16" font-family="Roboto-Regular, Roboto"><tspan x="-56.473" y="17">Recopilación de </tspan><tspan x="-20.086" y="41">datos </tspan></text>
    <text id="Administración_" data-name="Administración	 
" transform="translate(-6121 -4189)" fill="#12263f" font-size="16" font-family="Roboto-Regular, Roboto"><tspan x="-53.785" y="17" xml:space="preserve">Administración	 </tspan><tspan x="0" y="41"></tspan></text>
    <text id="Análisis_e_interpretación_" data-name="Análisis e interpretación  " transform="translate(-5877 -4201)" fill="#12263f" font-size="16" font-family="Roboto-Regular, Roboto"><tspan x="-34.277" y="17">Análisis e </tspan><tspan x="-49.418" y="41" xml:space="preserve">interpretación  </tspan></text>
    <text id="Venta_de_la_investigación_" data-name="Venta de la investigación
" transform="translate(-5901 -4073)" fill="#12263f" font-size="16" font-family="Roboto-Regular, Roboto"><tspan x="-88.785" y="17">Venta de la investigación</tspan><tspan x="0" y="41"></tspan></text>
    <text id="Informe_de_investigación_" data-name="Informe de investigación 
" transform="translate(-5658 -4201)" fill="#12263f" font-size="16" font-family="Roboto-Regular, Roboto"><tspan x="-38.617" y="17">Informe de </tspan><tspan x="-47.094" y="41">investigación </tspan><tspan x="0" y="65"></tspan></text>
    <text id="Estadísticas_y_muestreo" data-name="Estadísticas y muestreo" transform="translate(-5864 -4327)" fill="#12263f" font-size="16" font-family="Roboto-Regular, Roboto"><tspan x="15.766" y="17">Estadísticas y </tspan><tspan x="31.094" y="41">muestreo</tspan></text>
    <text id="Trabajo_de_campo_" data-name="Trabajo de campo " transform="translate(-5677 -4316)" fill="#12263f" font-size="16" font-family="Roboto-Regular, Roboto"><tspan x="-64.008" y="17">Trabajo de campo </tspan></text>
    <path id="Polígono_13" data-name="Polígono 13" d="M6.11,0l6.11,9.776H0Z" transform="translate(-5895 -4452.61) rotate(90)" fill="#707070"/>
    <path id="Polígono_16" data-name="Polígono 16" d="M6.11,0l6.11,9.776H0Z" transform="translate(-5895 -4313.11) rotate(90)" fill="#707070"/>
    <path id="Polígono_18" data-name="Polígono 18" d="M6.11,0l6.11,9.776H0Z" transform="translate(-5895 -4181.11) rotate(90)" fill="#707070"/>
    <path id="Polígono_14" data-name="Polígono 14" d="M6.11,0l6.11,9.776H0Z" transform="translate(-5677 -4452.61) rotate(90)" fill="#707070"/>
    <path id="Polígono_15" data-name="Polígono 15" d="M6.11,0l6.11,9.776H0Z" transform="translate(-5677 -4313.11) rotate(90)" fill="#707070"/>
    <path id="Polígono_17" data-name="Polígono 17" d="M6.11,0l6.11,9.776H0Z" transform="translate(-5677 -4181.11) rotate(90)" fill="#707070"/>
    <path id="Unión_5" data-name="Unión 5" d="M329.1,12.5H0v-6H329.1V0l16.616,9.43L329.1,18.86Z" transform="matrix(0.995, -0.105, 0.105, 0.995, -5983.039, -4367.363)" fill="#472ea6"/>
    <path id="Unión_6" data-name="Unión 6" d="M329.1,12.5H0v-6H329.1V0l16.616,9.43L329.1,18.86Z" transform="matrix(0.995, -0.105, 0.105, 0.995, -5983.039, -4232.863)" fill="#472ea6"/>
    <path id="Unión_7" data-name="Unión 7" d="M329.1,12.5H171v-6H329.1V0l16.616,9.43L329.1,18.86Z" transform="translate(-5443.129 -4147.926) rotate(170)" fill="#472ea6"/>
  </g>
</svg>
