<svg xmlns="http://www.w3.org/2000/svg" width="399.766" height="297.913" viewBox="0 0 399.766 297.913">
  <g id="Grupo_59728" data-name="Grupo 59728" transform="translate(-0.825 -56.185)">
    <g id="Grupo_59679" data-name="Grupo 59679" transform="translate(0.825 56.185)">
      <rect id="Rectángulo_32275" data-name="Rectángulo 32275" width="399.766" height="0.2" transform="translate(0 261.803)" fill="#ececec"/>
      <rect id="Rectángulo_32276" data-name="Rectángulo 32276" width="26.482" height="0.2" transform="translate(333.228 274.673)" fill="#ececec"/>
      <rect id="Rectángulo_32277" data-name="Rectángulo 32277" width="56.612" height="0.2" transform="translate(266.549 274.673)" fill="#ececec"/>
      <rect id="Rectángulo_32278" data-name="Rectángulo 32278" width="15.345" height="0.2" transform="translate(219.984 267.248)" fill="#ececec"/>
      <rect id="Rectángulo_32279" data-name="Rectángulo 32279" width="27.416" height="0.2" transform="translate(41.943 268.591)" fill="#ececec"/>
      <rect id="Rectángulo_32280" data-name="Rectángulo 32280" width="49.849" height="0.2" transform="translate(76.477 268.591)" fill="#ececec"/>
      <rect id="Rectángulo_32281" data-name="Rectángulo 32281" width="29.434" height="0.2" transform="translate(150.578 271.967)" fill="#ececec"/>
      <path id="Trazado_125730" data-name="Trazado 125730" d="M247.306,282.33H92.918a4.569,4.569,0,0,1-4.564-4.564V60.749a4.569,4.569,0,0,1,4.564-4.564H247.306a4.569,4.569,0,0,1,4.563,4.564V277.767A4.568,4.568,0,0,1,247.306,282.33ZM92.918,56.385a4.369,4.369,0,0,0-4.364,4.364V277.767a4.369,4.369,0,0,0,4.364,4.364H247.306a4.368,4.368,0,0,0,4.363-4.364V60.749a4.368,4.368,0,0,0-4.363-4.364Z" transform="translate(-57.806 -56.185)" fill="#ececec"/>
      <path id="Trazado_125731" data-name="Trazado 125731" d="M742.824,282.33H588.436a4.568,4.568,0,0,1-4.563-4.564V60.749a4.568,4.568,0,0,1,4.563-4.564H742.824a4.569,4.569,0,0,1,4.564,4.564V277.767A4.569,4.569,0,0,1,742.824,282.33ZM588.436,56.385a4.369,4.369,0,0,0-4.363,4.364V277.767a4.369,4.369,0,0,0,4.363,4.364H742.824a4.369,4.369,0,0,0,4.364-4.364V60.749a4.369,4.369,0,0,0-4.364-4.364Z" transform="translate(-380.388 -56.185)" fill="#ececec"/>
    </g>
    <g id="Grupo_59688" data-name="Grupo 59688" transform="translate(50.438 68.838)">
      <g id="Grupo_59680" data-name="Grupo 59680" transform="translate(0 15.268)">
        <rect id="Rectángulo_32282" data-name="Rectángulo 32282" width="77.309" height="213.233" fill="#f5f5f5"/>
        <rect id="Rectángulo_32283" data-name="Rectángulo 32283" width="0.783" height="213.233" transform="translate(78.092 213.233) rotate(180)" fill="#ececec"/>
        <rect id="Rectángulo_32284" data-name="Rectángulo 32284" width="62.389" height="196.965" transform="translate(7.46 8.134)" fill="#fff"/>
      </g>
      <g id="Grupo_59685" data-name="Grupo 59685" transform="translate(101.961 0)">
        <g id="Grupo_59683" data-name="Grupo 59683" transform="translate(5.655 5.988)">
          <g id="Grupo_59682" data-name="Grupo 59682">
            <g id="Grupo_59681" data-name="Grupo 59681">
              <rect id="Rectángulo_32285" data-name="Rectángulo 32285" width="182.368" height="135.497" transform="translate(185.19 135.497) rotate(180)" fill="#e7e7e7"/>
              <rect id="Rectángulo_32286" data-name="Rectángulo 32286" width="182.368" height="135.497" transform="translate(182.368 135.497) rotate(180)" fill="#f5f5f5"/>
              <rect id="Rectángulo_32287" data-name="Rectángulo 32287" width="124.115" height="172.235" transform="translate(177.301 5.691) rotate(90)" fill="#fff"/>
              <rect id="Rectángulo_32288" data-name="Rectángulo 32288" width="124.115" height="2.134" transform="translate(7.2 5.691) rotate(90)" fill="#e7e7e7"/>
              <rect id="Rectángulo_32289" data-name="Rectángulo 32289" width="178.177" height="7.64" transform="translate(180.272 103.293) rotate(180)" fill="#f5f5f5"/>
            </g>
          </g>
        </g>
        <g id="Grupo_59684" data-name="Grupo 59684" opacity="0.4">
          <rect id="Rectángulo_32290" data-name="Rectángulo 32290" width="17.218" height="43.547" transform="translate(0 0)" fill="#e7e7e7"/>
          <rect id="Rectángulo_32291" data-name="Rectángulo 32291" width="8.535" height="40.048" transform="translate(25.753 40.048) rotate(180)" fill="#f5f5f5"/>
          <rect id="Rectángulo_32292" data-name="Rectángulo 32292" width="17.218" height="43.547" transform="translate(25.753 0)" fill="#e7e7e7"/>
          <rect id="Rectángulo_32293" data-name="Rectángulo 32293" width="8.535" height="40.048" transform="translate(51.506 40.048) rotate(180)" fill="#f5f5f5"/>
          <rect id="Rectángulo_32294" data-name="Rectángulo 32294" width="17.218" height="43.547" transform="translate(51.506 0)" fill="#e7e7e7"/>
          <rect id="Rectángulo_32295" data-name="Rectángulo 32295" width="8.535" height="40.048" transform="translate(77.259 40.048) rotate(180)" fill="#f5f5f5"/>
          <rect id="Rectángulo_32296" data-name="Rectángulo 32296" width="17.218" height="43.547" transform="translate(77.259 0)" fill="#e7e7e7"/>
          <rect id="Rectángulo_32297" data-name="Rectángulo 32297" width="8.535" height="40.048" transform="translate(103.011 40.048) rotate(180)" fill="#f5f5f5"/>
          <rect id="Rectángulo_32298" data-name="Rectángulo 32298" width="17.218" height="43.547" transform="translate(103.011 0)" fill="#e7e7e7"/>
          <rect id="Rectángulo_32299" data-name="Rectángulo 32299" width="8.535" height="40.048" transform="translate(128.764 40.048) rotate(180)" fill="#f5f5f5"/>
          <rect id="Rectángulo_32300" data-name="Rectángulo 32300" width="17.218" height="43.547" transform="translate(128.764 0)" fill="#e7e7e7"/>
          <rect id="Rectángulo_32301" data-name="Rectángulo 32301" width="8.535" height="40.048" transform="translate(154.517 40.048) rotate(180)" fill="#f5f5f5"/>
          <rect id="Rectángulo_32302" data-name="Rectángulo 32302" width="17.218" height="43.547" transform="translate(154.517 0)" fill="#e7e7e7"/>
          <rect id="Rectángulo_32303" data-name="Rectángulo 32303" width="8.535" height="40.048" transform="translate(180.27 40.048) rotate(180)" fill="#f5f5f5"/>
          <rect id="Rectángulo_32304" data-name="Rectángulo 32304" width="17.218" height="43.547" transform="translate(180.27 0)" fill="#e7e7e7"/>
        </g>
      </g>
      <g id="Grupo_59687" data-name="Grupo 59687" transform="translate(113.266 169.678)">
        <g id="Grupo_59686" data-name="Grupo 59686" transform="translate(0 0)">
          <rect id="Rectángulo_32305" data-name="Rectángulo 32305" width="21.338" height="79.472" transform="translate(21.338 79.472) rotate(180)" fill="#e7e7e7"/>
          <path id="Trazado_125732" data-name="Trazado 125732" d="M471.076,792.994h-3.551v-7.151H474.8Z" transform="translate(-467.525 -713.522)" fill="#f0f0f0"/>
          <rect id="Rectángulo_32306" data-name="Rectángulo 32306" width="21.338" height="79.472" transform="translate(174.876 79.472) rotate(180)" fill="#e7e7e7"/>
          <rect id="Rectángulo_32307" data-name="Rectángulo 32307" width="156.637" height="76.726" transform="translate(156.637 76.726) rotate(180)" fill="#f0f0f0"/>
          <rect id="Rectángulo_32308" data-name="Rectángulo 32308" width="151.128" height="21.041" transform="translate(153.883 24.442) rotate(180)" fill="#e7e7e7"/>
          <path id="Trazado_125733" data-name="Trazado 125733" d="M567.87,593.711h74.67c3.465,0,6.777-2.6,9.16-7.179H558.71C561.093,591.115,564.405,593.711,567.87,593.711Z" transform="translate(-526.886 -583.771)" fill="#f0f0f0"/>
          <path id="Trazado_125734" data-name="Trazado 125734" d="M899.221,792.994h3.551v-7.151H895.5Z" transform="translate(-746.134 -713.522)" fill="#f0f0f0"/>
          <rect id="Rectángulo_32309" data-name="Rectángulo 32309" width="151.128" height="21.041" transform="translate(153.883 48.884) rotate(180)" fill="#e7e7e7"/>
          <path id="Trazado_125735" data-name="Trazado 125735" d="M567.87,663.744h74.67c3.465,0,6.777-2.6,9.16-7.179H558.71C561.093,661.148,564.405,663.744,567.87,663.744Z" transform="translate(-526.886 -629.363)" fill="#f0f0f0"/>
          <rect id="Rectángulo_32310" data-name="Rectángulo 32310" width="151.128" height="21.041" transform="translate(153.883 73.325) rotate(180)" fill="#e7e7e7"/>
          <path id="Trazado_125736" data-name="Trazado 125736" d="M567.87,733.777h74.67c3.465,0,6.777-2.6,9.16-7.178H558.71C561.093,731.182,564.405,733.777,567.87,733.777Z" transform="translate(-526.886 -674.954)" fill="#f0f0f0"/>
        </g>
      </g>
    </g>
    <ellipse id="_Path_" data-name="&lt;Path&gt;" cx="155.021" cy="9.053" rx="155.021" ry="9.053" transform="translate(45.688 335.991)" fill="#f5f5f5"/>
    <g id="Grupo_59702" data-name="Grupo 59702" transform="translate(201.447 159.139)">
      <g id="Grupo_59695" data-name="Grupo 59695" transform="translate(15.741 70.893)">
        <g id="Grupo_59693" data-name="Grupo 59693" transform="translate(17.562 73.115)">
          <g id="Grupo_59689" data-name="Grupo 59689" transform="translate(55.006)" opacity="0.3">
            <path id="Trazado_125737" data-name="Trazado 125737" d="M835.505,801.146h-.857a.744.744,0,0,1-.678-.7l-5.265-36.641h4l3.487,36.4A.8.8,0,0,1,835.505,801.146Z" transform="translate(-828.705 -763.81)" fill="#58595b"/>
            <path id="Trazado_125738" data-name="Trazado 125738" d="M835.505,801.146h-.857a.744.744,0,0,1-.678-.7l-5.265-36.641h4l3.487,36.4A.8.8,0,0,1,835.505,801.146Z" transform="translate(-828.705 -763.81)" fill="#58595b" opacity="0.3"/>
          </g>
          <g id="Grupo_59690" data-name="Grupo 59690" transform="translate(65.975)" opacity="0.3">
            <path id="Trazado_125739" data-name="Trazado 125739" d="M866.934,801.146h-.857a.744.744,0,0,1-.678-.7l-5.265-36.641h4l3.487,36.4A.8.8,0,0,1,866.934,801.146Z" transform="translate(-860.134 -763.81)" fill="#58595b"/>
            <path id="Trazado_125740" data-name="Trazado 125740" d="M866.934,801.146h-.857a.744.744,0,0,1-.678-.7l-5.265-36.641h4l3.487,36.4A.8.8,0,0,1,866.934,801.146Z" transform="translate(-860.134 -763.81)" fill="#58595b" opacity="0.3"/>
          </g>
          <g id="Grupo_59691" data-name="Grupo 59691" transform="translate(10.969)" opacity="0.3">
            <path id="Trazado_125741" data-name="Trazado 125741" d="M703.212,801.146h.857a.744.744,0,0,0,.678-.7l5.265-36.641h-4l-3.487,36.4A.8.8,0,0,0,703.212,801.146Z" transform="translate(-702.522 -763.81)" fill="#58595b"/>
            <path id="Trazado_125742" data-name="Trazado 125742" d="M703.212,801.146h.857a.744.744,0,0,0,.678-.7l5.265-36.641h-4l-3.487,36.4A.8.8,0,0,0,703.212,801.146Z" transform="translate(-702.522 -763.81)" fill="#58595b" opacity="0.3"/>
          </g>
          <g id="Grupo_59692" data-name="Grupo 59692" opacity="0.3">
            <path id="Trazado_125743" data-name="Trazado 125743" d="M671.783,801.146h.857a.744.744,0,0,0,.678-.7l5.265-36.641h-4l-3.487,36.4A.8.8,0,0,0,671.783,801.146Z" transform="translate(-671.094 -763.81)" fill="#58595b"/>
            <path id="Trazado_125744" data-name="Trazado 125744" d="M671.783,801.146h.857a.744.744,0,0,0,.678-.7l5.265-36.641h-4l-3.487,36.4A.8.8,0,0,0,671.783,801.146Z" transform="translate(-671.094 -763.81)" fill="#58595b" opacity="0.3"/>
          </g>
        </g>
        <g id="Grupo_59694" data-name="Grupo 59694">
          <path id="Trazado_125745" data-name="Trazado 125745" d="M624.809,583.994h26.929c4.778-16.592,21.969-29.681,39.574-29.681h8.746c18.428,0,30.32,14.339,26.563,32.026a35.937,35.937,0,0,1-3.427,9.333l-4.247,25.74c-.548,3.322-3.2,6.015-5.92,6.015H631.975c-2.722,0-5.372-2.693-5.92-6.015l-5.181-31.4C620.326,586.687,622.088,583.994,624.809,583.994Z" transform="translate(-620.774 -554.313)" fill="#727997"/>
          <path id="Trazado_125746" data-name="Trazado 125746" d="M624.809,583.994h26.929c4.778-16.592,21.969-29.681,39.574-29.681h8.746c18.428,0,30.32,14.339,26.563,32.026a35.937,35.937,0,0,1-3.427,9.333l-4.247,25.74c-.548,3.322-3.2,6.015-5.92,6.015H631.975c-2.722,0-5.372-2.693-5.92-6.015l-5.181-31.4C620.326,586.687,622.088,583.994,624.809,583.994Z" transform="translate(-620.774 -554.313)" fill="#727997" opacity="0.5"/>
        </g>
      </g>
      <g id="Grupo_59700" data-name="Grupo 59700">
        <g id="Grupo_59699" data-name="Grupo 59699">
          <g id="Grupo_59697" data-name="Grupo 59697" transform="translate(0 90.113)">
            <path id="Trazado_125747" data-name="Trazado 125747" d="M588.705,839.958l6.67,3.061a.468.468,0,0,1,.254.608l-2.1,5.425a1.158,1.158,0,0,1-1.524.579c-2.3-1.106-3.35-1.751-6.283-3.1a78.141,78.141,0,0,1-8.97-5.2c-2.177-1.566-.579-3.756.508-3.277,4.872,2.149,7.974,2.342,10.254,1.795A1.838,1.838,0,0,1,588.705,839.958Z" transform="translate(-575.67 -758.207)" fill="#1a2e35"/>
            <g id="Grupo_59696" data-name="Grupo 59696" transform="translate(12.515)">
              <path id="Trazado_125748" data-name="Trazado 125748" d="M659.34,609.384s-42.638.53-43.3,17.337c-.947,24.159-4.514,64.271-4.514,64.271l7.19,3.2s12.6-40.252,13.047-59.119c11.963-2.98,42.828.024,46.455-9.808a32.271,32.271,0,0,0,1.362-15.884Z" transform="translate(-611.529 -609.384)" fill="#58595b"/>
              <path id="Trazado_125749" data-name="Trazado 125749" d="M659.34,609.384s-42.638.53-43.3,17.337c-.947,24.159-4.514,64.271-4.514,64.271l7.19,3.2s12.6-40.252,13.047-59.119c11.963-2.98,42.828.024,46.455-9.808a32.271,32.271,0,0,0,1.362-15.884Z" transform="translate(-611.529 -609.384)" fill="#58595b" opacity="0.2"/>
            </g>
          </g>
          <path id="Trazado_125750" data-name="Trazado 125750" d="M692.012,471.433c-.371,1.551-.745,2.951-1.175,4.4s-.86,2.868-1.321,4.294c-.937,2.848-1.967,5.677-3.157,8.476a69.924,69.924,0,0,1-4.11,8.325,40.487,40.487,0,0,1-2.708,4.08,23.236,23.236,0,0,1-3.714,3.924l-.118.1a3.209,3.209,0,0,1-.26.191,6.049,6.049,0,0,1-2.683.963,7.582,7.582,0,0,1-1.82-.013,11.193,11.193,0,0,1-2.449-.593,25.587,25.587,0,0,1-3.578-1.627,58.458,58.458,0,0,1-5.939-3.773c-1.859-1.337-3.648-2.72-5.387-4.157-1.728-1.463-3.421-2.906-5.069-4.5a2.442,2.442,0,0,1,2.877-3.895l.039.022c1.887,1.046,3.791,2.155,5.7,3.186,1.9,1.052,3.8,2.092,5.7,3.065s3.8,1.9,5.619,2.653a17.055,17.055,0,0,0,2.547.853,3.063,3.063,0,0,0,.778.1c.055,0,.015-.032-.171-.019a2.474,2.474,0,0,0-1.135.426l-.378.288a14.852,14.852,0,0,0,2.07-2.55,37.953,37.953,0,0,0,1.927-3.276,75.866,75.866,0,0,0,3.281-7.415c.985-2.578,1.906-5.215,2.759-7.884.868-2.642,1.658-5.416,2.379-8l.027-.1a4.893,4.893,0,0,1,9.472,2.45Z" transform="translate(-622.612 -425.539)" fill="#1a2e35"/>
          <g id="Grupo_59698" data-name="Grupo 59698" transform="translate(34.077 90.113)">
            <path id="Trazado_125751" data-name="Trazado 125751" d="M702.744,853.569h8a.51.51,0,0,1,.528.487l.388,6.329a1.261,1.261,0,0,1-1.246,1.266c-2.785-.048-4.115-.212-7.633-.212-2.164,0-6.529.225-9.518.225-2.923,0-2.9-2.955-1.637-3.223,5.68-1.2,7.883-2.855,9.893-4.434A2.007,2.007,0,0,1,702.744,853.569Z" transform="translate(-684.705 -768.348)" fill="#1a2e35"/>
            <path id="Trazado_125752" data-name="Trazado 125752" d="M711.052,609.384s-38.675,3.266-37.724,20.06c1.042,18.39,18.022,65.161,18.022,65.161h7.821s-6.694-42.832-9.048-61.557c10.9,0,36.182,2.052,39.809-7.78a32.265,32.265,0,0,0,1.362-15.884Z" transform="translate(-673.312 -609.384)" fill="#404041"/>
          </g>
          <path id="Trazado_125753" data-name="Trazado 125753" d="M651.2,526.451a13.09,13.09,0,0,0-2.175-2.669c-1.581,1.483-2.471,5.807-2.471,5.807l2.187.2A3.608,3.608,0,0,0,651.2,526.451Z" transform="translate(-621.817 -463.544)" fill="#472ea6"/>
          <path id="Trazado_125754" data-name="Trazado 125754" d="M626.243,518.055l-2.487-1.081a1.454,1.454,0,0,0-1.824.582l-1.178,1.952a1.453,1.453,0,0,0,.2,1.757l3.414,3.562,5.695-.23a1.815,1.815,0,0,0,1.542-.986l.658-1.284a1.792,1.792,0,0,0-.567-2.311A19.807,19.807,0,0,0,626.243,518.055Z" transform="translate(-604.884 -459.034)" fill="#ffc3bd"/>
          <path id="Trazado_125755" data-name="Trazado 125755" d="M744.9,465.955c-1.142,7.175-2.616,22.733.4,46.162l31.7-.3c-.19-16.233,2.355-31.479,4.839-46.369a4.433,4.433,0,0,0-3.766-5.127,117.6,117.6,0,0,0-27.367-.022A6.8,6.8,0,0,0,744.9,465.955Z" transform="translate(-684.94 -421.704)" fill="#1a2e35"/>
          <path id="Trazado_125756" data-name="Trazado 125756" d="M814.116,465c.93,2.309,1.679,4.526,2.445,6.813s1.426,4.579,2.056,6.909c.6,2.337,1.185,4.695,1.627,7.118a57.7,57.7,0,0,1,.972,7.5c.042.647.054,1.318.062,1.989l-.012,1.025a6.2,6.2,0,0,1-.8,2.994,5.4,5.4,0,0,1-1.33,1.553,5.687,5.687,0,0,1-1.557.885,6.581,6.581,0,0,1-2.348.409,10.718,10.718,0,0,1-2.8-.438,24.581,24.581,0,0,1-3.874-1.527c-1.159-.571-2.247-1.174-3.311-1.793a88.065,88.065,0,0,1-11.725-8.394,2.439,2.439,0,0,1,2.614-4.073l.056.027c4.135,1.97,8.336,3.988,12.433,5.685,1.022.422,2.042.816,3.034,1.145a16.858,16.858,0,0,0,2.732.747,1.374,1.374,0,0,0,.658.017,1.208,1.208,0,0,0-.636.108,3.707,3.707,0,0,0-.37.167,3.78,3.78,0,0,0-.433.286,3.422,3.422,0,0,0-.773.889,2.892,2.892,0,0,0-.413,1.31l-.046-.724c-.044-.493-.086-.987-.159-1.5a85.3,85.3,0,0,0-2.985-12.758c-1.285-4.289-2.754-8.674-4.252-12.839l-.015-.042A4.894,4.894,0,0,1,814.116,465Z" transform="translate(-716.926 -423.284)" fill="#1a2e35"/>
          <path id="Trazado_125757" data-name="Trazado 125757" d="M790.342,415.767l-3.835,3.181-5.221,4.336a17,17,0,0,1,.331,2.109c.25,2.521-.3,4.84-3.367,6.014a4.054,4.054,0,0,0-2.529,2.474c-.413,1.34.075,2.829,4.282,2.828,6.177,0,9.4-2.748,10.619-4.1a1.088,1.088,0,0,0,.052-1.361C788.226,427.776,789.344,420.1,790.342,415.767Z" transform="translate(-705.825 -393.227)" fill="#ffc3bd"/>
          <path id="Trazado_125758" data-name="Trazado 125758" d="M784.718,471.878a2.447,2.447,0,0,1,.535,1.087,4.414,4.414,0,0,1,1.159-1.087,4.135,4.135,0,0,1,2.216,2.595,11.719,11.719,0,0,1-3.325-1.236,5.688,5.688,0,0,1-2.224.692C783.128,472.545,784.718,471.878,784.718,471.878Z" transform="translate(-710.692 -429.755)" fill="#472ea6"/>
          <path id="Trazado_125759" data-name="Trazado 125759" d="M792.63,461.733a9.681,9.681,0,0,1,2.116,4.662s10.235-2.558,9.755-9.229a10.387,10.387,0,0,0-2.837-.871S799.463,460.291,792.63,461.733Z" transform="translate(-716.911 -419.61)" fill="#bbabf5"/>
          <path id="Trazado_125760" data-name="Trazado 125760" d="M779.146,462.4a10.724,10.724,0,0,0-2.253,4.662s-5.25-4.778-.136-9.174a13.419,13.419,0,0,1,2.706-.568S776.066,460.078,779.146,462.4Z" transform="translate(-705.12 -420.278)" fill="#bbabf5"/>
          <path id="Trazado_125761" data-name="Trazado 125761" d="M791.887,429.217a17.022,17.022,0,0,1,.332,2.109c1.948-.392,4.549-2.466,4.821-4.456a9.033,9.033,0,0,0,.068-1.99Z" transform="translate(-716.427 -399.159)" opacity="0.2"/>
          <path id="Trazado_125762" data-name="Trazado 125762" d="M771.034,375.233c-4.815,3.414-2.121,11.423,1.986,8.359S774.958,372.451,771.034,375.233Z" transform="translate(-701.178 -366.466)" fill="#1a2e35"/>
          <path id="Trazado_125763" data-name="Trazado 125763" d="M787.528,377.845c-1.333,6.13-1.8,9.775-5.422,12.572a8.155,8.155,0,0,1-13.194-5.871c-.476-5.707,1.784-14.774,8.233-16.51A8.252,8.252,0,0,1,787.528,377.845Z" transform="translate(-701.43 -361.946)" fill="#ffc3bd"/>
          <path id="Trazado_125764" data-name="Trazado 125764" d="M783.609,362.537c-3.4-.939-12.162,1.292-15.273-2.026-3.336-3.559,1.532-5.289,2.965-4.053-1.816-2.076-1.138-4.3,1.433-4.1a3.118,3.118,0,0,1,2.473,2.224s-.313-3.635,2.912-3.386c2.93.227,2.938,4.176,2.938,4.176s6.992-1.977,9.322,4.7c4.4-.1,4.3,9.16-4.547,12.456C782.242,370.742,782.077,364.426,783.609,362.537Z" transform="translate(-700.35 -351.182)" fill="#1a2e35"/>
          <path id="Trazado_125765" data-name="Trazado 125765" d="M829.286,370.5a.89.89,0,0,1-.16-1.765,1.3,1.3,0,0,0,.515-.649,2.107,2.107,0,0,0,.1-1.665.89.89,0,0,1,1.619-.739,3.923,3.923,0,0,1-.193,3.338,2.6,2.6,0,0,1-1.719,1.466A.847.847,0,0,1,829.286,370.5Z" transform="translate(-740.195 -360.284)" fill="#1a2e35"/>
          <path id="Trazado_125766" data-name="Trazado 125766" d="M815.521,406.233a5.585,5.585,0,0,1-3.366,2.085c-1.733.305-2.26-1.289-1.494-2.837.69-1.394,2.422-3.231,4.025-2.834C816.264,403.039,816.549,404.883,815.521,406.233Z" transform="translate(-728.425 -384.65)" fill="#ffc3bd"/>
          <path id="Trazado_125767" data-name="Trazado 125767" d="M790.024,396.509c-.078.5-.408.879-.738.84s-.535-.479-.457-.982.408-.879.738-.839S790.1,396.006,790.024,396.509Z" transform="translate(-714.425 -380.049)" fill="#1a2e35"/>
          <path id="Trazado_125768" data-name="Trazado 125768" d="M773.67,394.565c-.077.5-.408.879-.738.839s-.535-.479-.457-.981.408-.879.738-.84S773.748,394.062,773.67,394.565Z" transform="translate(-703.779 -378.783)" fill="#1a2e35"/>
          <path id="Trazado_125769" data-name="Trazado 125769" d="M776.468,396.98a16.193,16.193,0,0,1-2.384,3.585,2.461,2.461,0,0,0,2.032.493Z" transform="translate(-704.837 -380.996)" fill="#ff847f"/>
          <path id="Trazado_125770" data-name="Trazado 125770" d="M785.251,413.169a4.377,4.377,0,0,0,3.174-1.307.149.149,0,1,0-.224-.2,4.188,4.188,0,0,1-3.506,1.172.149.149,0,0,0-.035.3A4.91,4.91,0,0,0,785.251,413.169Z" transform="translate(-711.636 -390.523)" fill="#1a2e35"/>
          <path id="Trazado_125771" data-name="Trazado 125771" d="M794.009,387.241a.3.3,0,0,0,.133-.068.3.3,0,0,0,.024-.422,2.868,2.868,0,0,0-2.51-.988.3.3,0,0,0-.243.345.3.3,0,0,0,.345.243,2.274,2.274,0,0,1,1.962.8A.3.3,0,0,0,794.009,387.241Z" transform="translate(-716.116 -373.68)" fill="#1a2e35"/>
          <path id="Trazado_125772" data-name="Trazado 125772" d="M769.689,386.71a.3.3,0,0,0,.273-.057,2.5,2.5,0,0,1,2.129-.578.3.3,0,0,0,.163-.574h0a3.082,3.082,0,0,0-2.671.694.3.3,0,0,0,.108.516Z" transform="translate(-701.835 -373.477)" fill="#1a2e35"/>
          <path id="Trazado_125773" data-name="Trazado 125773" d="M786.3,514.242l-3.5-2.175a2.219,2.219,0,0,0-3.07.738l-.412.683a2.218,2.218,0,0,0,.227,2.6l2.414,2.772s2.1,4.9,4.538,3.606l1.858-3.219Z" transform="translate(-708.035 -455.7)" fill="#ffc3bd"/>
          <path id="Trazado_125774" data-name="Trazado 125774" d="M800.9,530.79a14.768,14.768,0,0,0-1.829-3.26c-1.757,1.506-3.18,6.305-3.18,6.305l2.149.463A4,4,0,0,0,800.9,530.79Z" transform="translate(-719.03 -465.984)" fill="#472ea6"/>
        </g>
      </g>
      <g id="Grupo_59701" data-name="Grupo 59701" transform="translate(63.117 100.574)" opacity="0.5">
        <path id="Trazado_125775" data-name="Trazado 125775" d="M802.064,639.358H760.555c-2.722,0-4.483,2.693-3.936,6.015l5.181,31.4c.548,3.322,3.2,6.015,5.92,6.015h29.2Z" transform="translate(-756.519 -639.358)" fill="#727997"/>
        <path id="Trazado_125776" data-name="Trazado 125776" d="M802.064,639.358H760.555c-2.722,0-4.483,2.693-3.936,6.015l5.181,31.4c.548,3.322,3.2,6.015,5.92,6.015h29.2Z" transform="translate(-756.519 -639.358)" fill="#727997" opacity="0.5"/>
      </g>
    </g>
    <g id="Grupo_59708" data-name="Grupo 59708" transform="translate(98.99 241.299)">
      <g id="Grupo_59707" data-name="Grupo 59707" transform="translate(5.219 2.037)">
        <g id="Grupo_59703" data-name="Grupo 59703" transform="translate(13.595)">
          <path id="Trazado_125777" data-name="Trazado 125777" d="M336.786,692.273h1.2a.811.811,0,0,0,.776-.789l6.6-99.052H340.4l-4.394,98.949A.821.821,0,0,0,336.786,692.273Z" transform="translate(-336.007 -592.432)" fill="#929497"/>
          <path id="Trazado_125778" data-name="Trazado 125778" d="M336.786,692.273h1.2a.811.811,0,0,0,.776-.789l6.6-99.052H340.4l-4.394,98.949A.821.821,0,0,0,336.786,692.273Z" transform="translate(-336.007 -592.432)" fill="#929497" opacity="0.3"/>
        </g>
        <g id="Grupo_59704" data-name="Grupo 59704">
          <path id="Trazado_125779" data-name="Trazado 125779" d="M297.832,692.273h1.2a.81.81,0,0,0,.776-.789l6.6-99.052h-4.955l-4.393,98.949A.821.821,0,0,0,297.832,692.273Z" transform="translate(-297.053 -592.432)" fill="#929497"/>
          <path id="Trazado_125780" data-name="Trazado 125780" d="M297.832,692.273h1.2a.81.81,0,0,0,.776-.789l6.6-99.052h-4.955l-4.393,98.949A.821.821,0,0,0,297.832,692.273Z" transform="translate(-297.053 -592.432)" fill="#929497" opacity="0.3"/>
        </g>
        <g id="Grupo_59705" data-name="Grupo 59705" transform="translate(159.827)">
          <path id="Trazado_125781" data-name="Trazado 125781" d="M763.578,692.273h-1.2a.81.81,0,0,1-.776-.789l-6.6-99.052h4.955l4.393,98.949A.821.821,0,0,1,763.578,692.273Z" transform="translate(-755.007 -592.432)" fill="#929497"/>
          <path id="Trazado_125782" data-name="Trazado 125782" d="M763.578,692.273h-1.2a.81.81,0,0,1-.776-.789l-6.6-99.052h4.955l4.393,98.949A.821.821,0,0,1,763.578,692.273Z" transform="translate(-755.007 -592.432)" fill="#929497" opacity="0.3"/>
        </g>
        <g id="Grupo_59706" data-name="Grupo 59706" transform="translate(173.422)">
          <path id="Trazado_125783" data-name="Trazado 125783" d="M802.533,692.273h-1.2a.81.81,0,0,1-.776-.789l-6.6-99.052h4.955l4.393,98.949A.821.821,0,0,1,802.533,692.273Z" transform="translate(-793.962 -592.432)" fill="#929497"/>
          <path id="Trazado_125784" data-name="Trazado 125784" d="M802.533,692.273h-1.2a.81.81,0,0,1-.776-.789l-6.6-99.052h4.955l4.393,98.949A.821.821,0,0,1,802.533,692.273Z" transform="translate(-793.962 -592.432)" fill="#929497" opacity="0.3"/>
        </g>
      </g>
      <rect id="Rectángulo_32311" data-name="Rectángulo 32311" width="192.929" height="2.037" fill="#6d6e70"/>
    </g>
    <g id="Grupo_59723" data-name="Grupo 59723" transform="translate(66.12 152.297)">
      <g id="Grupo_59715" data-name="Grupo 59715" transform="translate(19.002)">
        <g id="Grupo_59714" data-name="Grupo 59714">
          <path id="Trazado_125785" data-name="Trazado 125785" d="M253.017,494.076,251.2,507.483c-.575,4.465-1.176,8.94-1.606,13.336-.06.553-.1,1.092-.145,1.635l-.067.814a1.741,1.741,0,0,0-.028-.4,1.7,1.7,0,0,0-.092-.38,1.545,1.545,0,0,0-.12-.28,1.117,1.117,0,0,0-.111-.18c-.141-.182-.157-.157-.119-.118a1.665,1.665,0,0,0,.272.228,8.049,8.049,0,0,0,1.059.62,42.453,42.453,0,0,0,5.871,2.179c4.2,1.272,8.6,2.374,12.945,3.446l-.492,3.819a96.665,96.665,0,0,1-13.865-1.435,40,40,0,0,1-7.125-1.881,15.078,15.078,0,0,1-1.975-.926,8.5,8.5,0,0,1-1.116-.757,6.108,6.108,0,0,1-1.276-1.36,5.172,5.172,0,0,1-.6-1.224,5.62,5.62,0,0,1-.19-.8,6.045,6.045,0,0,1-.047-.825l.02-.887c.014-.591.023-1.187.052-1.767.19-4.671.609-9.23,1.108-13.788s1.068-9.075,1.783-13.614Z" transform="translate(-242.363 -436.625)" fill="#903c38"/>
          <path id="Trazado_125786" data-name="Trazado 125786" d="M321.239,597.134l-2.932,2.679a2.27,2.27,0,0,1-2.515.369l-3.24-1.56s-4.805-.2-5.491-3.134l1.242-2.281,7.444-.827a3.472,3.472,0,0,1,2.193.488l3.068,1.873A1.5,1.5,0,0,1,321.239,597.134Z" transform="translate(-284.481 -501.345)" fill="#903c38"/>
          <path id="Trazado_125787" data-name="Trazado 125787" d="M293.868,417.259c.76,4.6,1.406,13-1.884,15.958a43.039,43.039,0,0,1,13.294,11.542c5.631-4.461.916-11.118.916-11.118-5.062-1.369-4.818-5.148-3.824-8.674Z" transform="translate(-274.666 -387.356)" fill="#903c38"/>
          <g id="Grupo_59709" data-name="Grupo 59709" transform="translate(14.128 42.348)">
            <path id="Trazado_125788" data-name="Trazado 125788" d="M302.945,459.681s-.424-3.9-2.552-5.827c-1.788-1.619-11.17-.72-14.126-.39a1.615,1.615,0,0,0-1.278.911l-2.144,4.478Z" transform="translate(-282.845 -452.916)" fill="#2cffe2"/>
            <path id="Trazado_125789" data-name="Trazado 125789" d="M302.945,459.681s-.424-3.9-2.552-5.827c-1.788-1.619-11.17-.72-14.126-.39a1.615,1.615,0,0,0-1.278.911l-2.144,4.478Z" transform="translate(-282.845 -452.916)" fill="#2cffe2" opacity="0.8"/>
          </g>
          <path id="Trazado_125790" data-name="Trazado 125790" d="M253.6,466.072c-5.79,1.884-7.033,9.646-6.513,15.687l11.685,7.188s2.837-8.822,2.813-13.532C261.565,470.4,257.535,464.793,253.6,466.072Z" transform="translate(-245.371 -419.013)" fill="#2cffe2"/>
          <g id="Grupo_59710" data-name="Grupo 59710" transform="translate(0.637 61.663)">
            <path id="Trazado_125791" data-name="Trazado 125791" d="M270.407,522.9a1.117,1.117,0,0,1-.767-.312,1.228,1.228,0,0,1-.128-.168.752.752,0,0,1-.1-.192,1.566,1.566,0,0,1-.064-.2.939.939,0,0,1-.023-.208,1.1,1.1,0,0,1,.319-.768,1.115,1.115,0,0,1,1.535,0,1.1,1.1,0,0,1,.32.768.9.9,0,0,1-.024.208.815.815,0,0,1-.064.2.693.693,0,0,1-.1.192c-.04.056-.088.112-.136.168A1.087,1.087,0,0,1,270.407,522.9Z" transform="translate(-260.549 -516.389)" fill="#fff"/>
            <path id="Trazado_125792" data-name="Trazado 125792" d="M254.884,516.014h.008a1.091,1.091,0,0,1-.7-.975h0a1.068,1.068,0,0,1-1.175.176h0a1.094,1.094,0,0,1-.632-1.007h0a1.065,1.065,0,0,1-1.184.1h0a1.08,1.08,0,0,1-.567-1.039h0a1.09,1.09,0,0,1-1.191.04h0a1.087,1.087,0,0,1-.368-1.487h0a1.091,1.091,0,0,1,1.494-.367h0a1.114,1.114,0,0,1,.52,1.016h0a1.074,1.074,0,0,1,1.135-.072h0a1.1,1.1,0,0,1,.576.983h0a1.081,1.081,0,0,1,1.128-.136h0a1.087,1.087,0,0,1,.631.943h0a1.109,1.109,0,0,1,1.12-.2h0a1.089,1.089,0,0,1,.607,1.408h0a1.076,1.076,0,0,1-1.007.687h0A1.184,1.184,0,0,1,254.884,516.014Z" transform="translate(-247.272 -510.239)" fill="#fff"/>
            <path id="Trazado_125793" data-name="Trazado 125793" d="M245.275,510.43a.98.98,0,0,1-.216-.024.805.805,0,0,1-.2-.064.715.715,0,0,1-.191-.1,1.245,1.245,0,0,1-.16-.136.811.811,0,0,1-.136-.16c-.04-.064-.072-.127-.1-.191a1.8,1.8,0,0,1-.064-.2,2.07,2.07,0,0,1-.016-.216,1.755,1.755,0,0,1,.016-.208,1.9,1.9,0,0,1,.064-.208.821.821,0,0,1,.1-.184,1.216,1.216,0,0,1,.136-.168,1.277,1.277,0,0,1,.16-.136,1.078,1.078,0,0,1,.191-.1,1.531,1.531,0,0,1,.2-.064,1.118,1.118,0,0,1,.976.3,1.274,1.274,0,0,1,.136.168,1.4,1.4,0,0,1,.1.184,1.021,1.021,0,0,1,.056.208.888.888,0,0,1,.023.208,1.02,1.02,0,0,1-.023.216.959.959,0,0,1-.056.2c-.032.064-.064.127-.1.191a.838.838,0,0,1-.136.16A1.092,1.092,0,0,1,245.275,510.43Z" transform="translate(-244.187 -508.262)" fill="#fff"/>
          </g>
          <path id="Trazado_125794" data-name="Trazado 125794" d="M296.4,475.354c-.489,6.65-1.969,17.849-5.613,36.7l-31.293-.931c.821-11.551-.418-20.165-3.25-40.382a6.572,6.572,0,0,1,5.843-7.446c2.01-.207,4.291-.378,6.59-.421a99.605,99.605,0,0,1,14.21.423c1.525.185,3.1.425,4.6.682A10.739,10.739,0,0,1,296.4,475.354Z" transform="translate(-251.356 -417.015)" fill="#2cffe2"/>
          <path id="Trazado_125795" data-name="Trazado 125795" d="M343.752,390.748c.074.617.461,1.079.864,1.03s.671-.588.6-1.205-.461-1.079-.864-1.03S343.678,390.13,343.752,390.748Z" transform="translate(-308.359 -369.31)" fill="#1a2e35"/>
          <path id="Trazado_125796" data-name="Trazado 125796" d="M344.986,388.579l1.432-.605S345.8,389.223,344.986,388.579Z" transform="translate(-309.17 -368.291)" fill="#1a2e35"/>
          <path id="Trazado_125797" data-name="Trazado 125797" d="M344.385,395.746a16.623,16.623,0,0,0,2.673,3.676,2.675,2.675,0,0,1-2.151.677Z" transform="translate(-308.779 -373.351)" fill="#740606"/>
          <path id="Trazado_125798" data-name="Trazado 125798" d="M339.248,376.431a.365.365,0,0,0-.459-.534,3.623,3.623,0,0,0-2.08,2.6.365.365,0,0,0,.723.1h0a2.894,2.894,0,0,1,1.669-2.044A.36.36,0,0,0,339.248,376.431Z" transform="translate(-303.78 -360.406)" fill="#1a2e35"/>
          <path id="Trazado_125799" data-name="Trazado 125799" d="M282.421,369.395c1.374,7.526,1.8,10.741,6.091,14.174,6.461,5.163,15.4,1.829,16.307-5.955.812-7.007-1.572-18.138-9.355-20.266A10.435,10.435,0,0,0,282.421,369.395Z" transform="translate(-268.324 -348.098)" fill="#903c38"/>
          <path id="Trazado_125800" data-name="Trazado 125800" d="M281.5,354.981c1.269,4.135,4.292,14.134-2.386,16.359-5.224,1.741-21.581,3.134-23.464-6.45-1.948-9.91,6.888-16.963,6.888-16.963s-7-5.742-2.515-12c5.781-8.062,19.623-3.5,23.731,2.193C287.753,343.662,281.5,354.981,281.5,354.981Z" transform="translate(-250.833 -331.577)" fill="#1a2e35"/>
          <path id="Trazado_125801" data-name="Trazado 125801" d="M265.754,402.591a23.3,23.3,0,0,1-8.736-1.724c-3.715-1.6-5.883-4.072-6.27-7.149-1.313-10.451,8.412-16.193,8.51-16.25l.387.67c-.094.055-9.378,5.549-8.13,15.483.443,3.525,3.4,5.5,5.808,6.534,4.748,2.044,10.881,2.033,12.369.942l.458.625A8.332,8.332,0,0,1,265.754,402.591Z" transform="translate(-247.742 -361.452)" fill="#1a2e35"/>
          <path id="Trazado_125802" data-name="Trazado 125802" d="M266.957,372.253c-.088,1.337-1.2,3.173,3.438,3.864s11.075.625,12.4-.49,2.624-3.781-.14-3.542S267.107,369.968,266.957,372.253Z" transform="translate(-258.258 -357.402)" fill="#472ea6"/>
          <path id="Trazado_125803" data-name="Trazado 125803" d="M322.311,394.348a6,6,0,0,0,3.548,2.9c2.019.591,3.054-1.208,2.515-3.127-.485-1.727-2.121-4.116-4.157-3.865A2.694,2.694,0,0,0,322.311,394.348Z" transform="translate(-294.168 -369.764)" fill="#903c38"/>
          <path id="Trazado_125804" data-name="Trazado 125804" d="M456.065,820l7.42-.141-3.593-18.521-7.42.141Z" transform="translate(-379.144 -637.391)" fill="#903c38"/>
          <path id="Trazado_125805" data-name="Trazado 125805" d="M468.226,831.705c1.963,7.391,9.176,15.216,9.176,15.216l-10.3-2.616-4.5-6.394.788-1.692Z" transform="translate(-385.741 -657.159)" fill="#903c38"/>
          <path id="Trazado_125806" data-name="Trazado 125806" d="M457.743,838.681a15.084,15.084,0,0,0,.149,2.587c.434,3.057,1.784,11.162,1.784,11.162l.7,0a72.476,72.476,0,0,1-.566-7.467c.1-2.011,1.394,1.544,2.961,3.556s4.388,3.842,8.953,3.985c5.345.167,7.475-.057,5.762-1.392a17.927,17.927,0,0,0-5.355-2.2,16.25,16.25,0,0,1-7.21-6.029,18.806,18.806,0,0,0-6.633-5.739C457.858,837.22,457.768,838.028,457.743,838.681Z" transform="translate(-382.57 -660.7)" fill="#1a2e35"/>
          <path id="Trazado_125807" data-name="Trazado 125807" d="M523.733,753.888l9.471.292-10.593-15.749-6.559,5.605Z" transform="translate(-420.534 -596.439)" fill="#903c38"/>
          <path id="Trazado_125808" data-name="Trazado 125808" d="M544.5,763.558c6.881,3.206,17.9,2.575,17.9,2.575l-8.958,7.188-7.683-.569-.811-1.707Z" transform="translate(-439.056 -612.796)" fill="#903c38"/>
          <path id="Trazado_125809" data-name="Trazado 125809" d="M538.765,773.749a15.04,15.04,0,0,0,1.991,1.652c2.513,1.75,9.3,6.234,9.3,6.234l.435-.547a71.875,71.875,0,0,1-5.832-4.664c-1.417-1.451,1.995-.039,4.439.1s5.531-.823,8.455-4.315c3.423-4.09,4.574-5.918,2.536-5.484s-4.925,2.7-4.925,2.7a14.412,14.412,0,0,1-8.879,1.546,16.628,16.628,0,0,0-8.309,1.291C537.763,772.659,538.3,773.283,538.765,773.749Z" transform="translate(-434.774 -614.82)" fill="#1a2e35"/>
          <path id="Trazado_125810" data-name="Trazado 125810" d="M282.69,598.321s50.662-7.494,55.907,5.492c9.126,22.595,22.013,48.484,22.013,48.484l-6.223,5.147S332.3,637,324.44,614.3c-9.386,3.037-39.248,12.808-50.186,12.808-11.681,0-16.453-9.96-12.234-26.5a3.322,3.322,0,0,1,3.241-2.488C272.616,598.155,282.69,598.321,282.69,598.321Z" transform="translate(-254.175 -503.826)" fill="#1a2e35"/>
          <path id="Trazado_125811" data-name="Trazado 125811" d="M294.98,608.214s41.58-1.253,41.931,13.479c.58,24.361,7.446,59.268,7.446,59.268l-7.585.706s-12.4-27.767-15.681-51.564c-14.811.961-28.467.3-39.4.3-12.258,0-13.27-13.462-1.339-29.169C287.64,601.232,294.98,608.214,294.98,608.214Z" transform="translate(-261.608 -507.122)" fill="#1a2e35"/>
          <path id="Trazado_125812" data-name="Trazado 125812" d="M262.784,595.517l-.884,2.777c-.116.214.135.443.5.454l32.207.958c.282.008.52-.123.543-.3l.365-2.793c.025-.193-.214-.365-.523-.374L263.3,595.3A.569.569,0,0,0,262.784,595.517Z" transform="translate(-255.063 -503.258)" fill="#fff"/>
          <g id="Grupo_59711" data-name="Grupo 59711" transform="translate(10.741 91.89)">
            <path id="Trazado_125813" data-name="Trazado 125813" d="M274.271,598.91l-.849-.025c-.169-.005-.3-.1-.28-.2l.506-3.627c.015-.106.165-.189.334-.184l.849.025c.169.005.295.1.28.2l-.506,3.628C274.59,598.832,274.44,598.915,274.271,598.91Z" transform="translate(-273.141 -594.871)" fill="#1a2e35"/>
            <path id="Trazado_125814" data-name="Trazado 125814" d="M346.693,601.064l-.849-.026c-.169,0-.3-.1-.28-.2l.506-3.628c.015-.106.165-.189.334-.184l.849.025c.169,0,.3.1.28.2l-.506,3.628C347.012,600.986,346.862,601.069,346.693,601.064Z" transform="translate(-320.287 -596.274)" fill="#1a2e35"/>
            <path id="Trazado_125815" data-name="Trazado 125815" d="M310.482,599.987l-.849-.026c-.169,0-.3-.1-.28-.2l.506-3.627c.015-.106.165-.189.334-.184l.849.025c.169,0,.3.1.28.2l-.506,3.628C310.8,599.909,310.651,599.992,310.482,599.987Z" transform="translate(-296.714 -595.573)" fill="#1a2e35"/>
          </g>
          <g id="Grupo_59712" data-name="Grupo 59712" transform="translate(54.549 61.121)">
            <path id="Trazado_125816" data-name="Trazado 125816" d="M407.19,506.707h20.227a.969.969,0,0,1,.93,1.24l-7.558,25.943a.969.969,0,0,1-.93.7H399.631a.97.97,0,0,1-.93-1.24l7.559-25.943A.969.969,0,0,1,407.19,506.707Z" transform="translate(-398.662 -506.707)" fill="#472ea6"/>
            <path id="Trazado_125817" data-name="Trazado 125817" d="M409.686,509.436l19.659.466-7.763,24.469-19.659-.466Z" transform="translate(-400.785 -508.484)" fill="#e1e1e1"/>
            <path id="Trazado_125818" data-name="Trazado 125818" d="M408.81,508.745l19.665.082-7.283,24.616-19.665-.082Z" transform="translate(-400.527 -508.034)" fill="#fff"/>
          </g>
          <path id="Trazado_125819" data-name="Trazado 125819" d="M357.095,510.205c.039.78.114,1.75.185,2.635.079.906.178,1.813.3,2.715.224,1.806.524,3.593.895,5.34a38.576,38.576,0,0,0,1.427,5.042,24.35,24.35,0,0,0,.975,2.3c.173.372.369.716.562,1.062l.292.491c-.024-.033-.059-.035-.032-.006a3.586,3.586,0,0,0,1.274.745,15.348,15.348,0,0,0,2.3.688,44.374,44.374,0,0,0,5.346.826c3.693.36,7.551.539,11.331.617l.382,3.832a72.374,72.374,0,0,1-11.92,1.347,42.565,42.565,0,0,1-6.233-.256,22,22,0,0,1-3.347-.677,9.976,9.976,0,0,1-3.825-1.974,6.834,6.834,0,0,1-1-1.085l-.514-.719c-.322-.475-.641-.954-.92-1.441a25.194,25.194,0,0,1-1.508-2.959A38.927,38.927,0,0,1,351,522.68a52.181,52.181,0,0,1-1.19-6.1q-.2-1.532-.33-3.071c-.091-1.047-.145-2.013-.156-3.173Z" transform="translate(-311.993 -447.863)" fill="#903c38"/>
          <path id="Trazado_125820" data-name="Trazado 125820" d="M345.153,475.095c5.035,4.74,3.822,17.094,3.822,17.094l-9.647,1.686s-5.956-8.857-3.862-12.571C337.645,477.437,342.429,472.53,345.153,475.095Z" transform="translate(-302.682 -424.544)" fill="#2cffe2"/>
          <g id="Grupo_59713" data-name="Grupo 59713" transform="translate(35.561 66.561)">
            <path id="Trazado_125821" data-name="Trazado 125821" d="M372.985,524.468a1.11,1.11,0,0,1-.767-.32.908.908,0,0,1-.136-.168,1.216,1.216,0,0,1-.1-.183,1.466,1.466,0,0,1-.064-.209,1.732,1.732,0,0,1-.016-.208,1.09,1.09,0,0,1,.312-.767,1.38,1.38,0,0,1,.168-.136.811.811,0,0,1,.184-.1,1.072,1.072,0,0,1,.208-.064,1.108,1.108,0,0,1,.976.3,1.1,1.1,0,0,1,.32.767.9.9,0,0,1-.023.208.931.931,0,0,1-.064.209.8.8,0,0,1-.1.183.927.927,0,0,1-.136.168A1.1,1.1,0,0,1,372.985,524.468Z" transform="translate(-362.255 -522.296)" fill="#fff"/>
            <path id="Trazado_125822" data-name="Trazado 125822" d="M349.884,526.084a1.085,1.085,0,0,1,.991-1.175h0a1.07,1.07,0,0,1,1.016.512h0a1.1,1.1,0,0,1,.871-.736h0a1.1,1.1,0,0,1,1.048.456h0a1.072,1.072,0,0,1,.823-.776h0a1.081,1.081,0,0,1,1.071.391h0a1.1,1.1,0,0,1,.784-.831v.008a1.079,1.079,0,0,1,1.328.767h0a1.087,1.087,0,0,1-.776,1.327h0a1.091,1.091,0,0,1-1.127-.375h0a1.1,1.1,0,0,1-.848.839h0a1.1,1.1,0,0,1-1.1-.447h0a1.082,1.082,0,0,1-.888.792h0a1.092,1.092,0,0,1-1.079-.5h0a1.1,1.1,0,0,1-.935.735h-.088A1.092,1.092,0,0,1,349.884,526.084Z" transform="translate(-347.918 -523.337)" fill="#fff"/>
            <path id="Trazado_125823" data-name="Trazado 125823" d="M345.343,529.3a1.018,1.018,0,0,1-.216-.024,1.474,1.474,0,0,1-.2-.064,1.44,1.44,0,0,1-.192-.1,1.321,1.321,0,0,1-.16-.136.706.706,0,0,1-.136-.168,1.386,1.386,0,0,1-.1-.184,1,1,0,0,1-.056-.208.886.886,0,0,1-.023-.208,1.022,1.022,0,0,1,.023-.216.936.936,0,0,1,.056-.2c.032-.064.064-.127.1-.191a.837.837,0,0,1,.136-.16,1.246,1.246,0,0,1,.16-.136.9.9,0,0,1,.192-.1.808.808,0,0,1,.2-.064,1.071,1.071,0,0,1,.975.3.8.8,0,0,1,.136.16c.04.064.072.127.1.191a1.788,1.788,0,0,1,.064.2,2.054,2.054,0,0,1,.016.216,1.735,1.735,0,0,1-.016.208,1.9,1.9,0,0,1-.064.208,1.389,1.389,0,0,1-.1.184.876.876,0,0,1-.136.168A1.09,1.09,0,0,1,345.343,529.3Z" transform="translate(-344.256 -525.442)" fill="#fff"/>
          </g>
          <path id="Trazado_125824" data-name="Trazado 125824" d="M446.483,562.649l-3.338-.225a3.767,3.767,0,0,0-2.354.631l-6.134,4.12-.046,2.6c1.966,2.286,6.318.24,6.318.24l4.037-.13a1.615,1.615,0,0,0,1.465-1.061l1.461-4.008A1.615,1.615,0,0,0,446.483,562.649Z" transform="translate(-367.516 -481.852)" fill="#903c38"/>
        </g>
      </g>
      <g id="Grupo_59722" data-name="Grupo 59722" transform="translate(0 77.735)">
        <g id="Grupo_59720" data-name="Grupo 59720" transform="translate(16.398 77.281)">
          <g id="Grupo_59716" data-name="Grupo 59716" transform="translate(11.594)">
            <path id="Trazado_125825" data-name="Trazado 125825" d="M268.851,815.212h.905a.786.786,0,0,0,.717-.735l5.565-38.729h-4.225l-3.685,38.472A.842.842,0,0,0,268.851,815.212Z" transform="translate(-268.123 -775.748)" fill="#727997"/>
            <path id="Trazado_125826" data-name="Trazado 125826" d="M268.851,815.212h.905a.786.786,0,0,0,.717-.735l5.565-38.729h-4.225l-3.685,38.472A.842.842,0,0,0,268.851,815.212Z" transform="translate(-268.123 -775.748)" fill="#727997" opacity="0.3"/>
          </g>
          <g id="Grupo_59717" data-name="Grupo 59717">
            <path id="Trazado_125827" data-name="Trazado 125827" d="M235.631,815.212h.906a.786.786,0,0,0,.717-.735l5.565-38.729h-4.225l-3.685,38.472A.842.842,0,0,0,235.631,815.212Z" transform="translate(-234.903 -775.748)" fill="#727997"/>
            <path id="Trazado_125828" data-name="Trazado 125828" d="M235.631,815.212h.906a.786.786,0,0,0,.717-.735l5.565-38.729h-4.225l-3.685,38.472A.842.842,0,0,0,235.631,815.212Z" transform="translate(-234.903 -775.748)" fill="#727997" opacity="0.3"/>
          </g>
          <g id="Grupo_59718" data-name="Grupo 59718" transform="translate(58.141)">
            <path id="Trazado_125829" data-name="Trazado 125829" d="M408.682,815.212h-.905a.786.786,0,0,1-.717-.735l-5.565-38.729h4.225l3.685,38.472A.842.842,0,0,1,408.682,815.212Z" transform="translate(-401.495 -775.748)" fill="#727997"/>
            <path id="Trazado_125830" data-name="Trazado 125830" d="M408.682,815.212h-.905a.786.786,0,0,1-.717-.735l-5.565-38.729h4.225l3.685,38.472A.842.842,0,0,1,408.682,815.212Z" transform="translate(-401.495 -775.748)" fill="#727997" opacity="0.3"/>
          </g>
          <g id="Grupo_59719" data-name="Grupo 59719" transform="translate(69.735)">
            <path id="Trazado_125831" data-name="Trazado 125831" d="M441.9,815.212H441a.787.787,0,0,1-.717-.735l-5.565-38.729h4.225l3.685,38.472A.842.842,0,0,1,441.9,815.212Z" transform="translate(-434.715 -775.748)" fill="#727997"/>
            <path id="Trazado_125832" data-name="Trazado 125832" d="M441.9,815.212H441a.787.787,0,0,1-.717-.735l-5.565-38.729h4.225l3.685,38.472A.842.842,0,0,1,441.9,815.212Z" transform="translate(-434.715 -775.748)" fill="#727997" opacity="0.3"/>
          </g>
        </g>
        <g id="Grupo_59721" data-name="Grupo 59721">
          <path id="Trazado_125833" data-name="Trazado 125833" d="M296.262,585.686H267.8c-5.05-17.537-23.221-31.372-41.829-31.372h-9.245c-19.478,0-32.048,15.156-28.076,33.851a37.972,37.972,0,0,0,3.622,9.865l4.489,27.207c.579,3.511,3.381,6.358,6.258,6.358h85.671c2.877,0,5.678-2.847,6.258-6.358l5.477-33.193C301,588.532,299.139,585.686,296.262,585.686Z" transform="translate(-187.916 -554.313)" fill="#727997"/>
          <path id="Trazado_125834" data-name="Trazado 125834" d="M296.262,585.686H267.8c-5.05-17.537-23.221-31.372-41.829-31.372h-9.245c-19.478,0-32.048,15.156-28.076,33.851a37.972,37.972,0,0,0,3.622,9.865l4.489,27.207c.579,3.511,3.381,6.358,6.258,6.358h85.671c2.877,0,5.678-2.847,6.258-6.358l5.477-33.193C301,588.532,299.139,585.686,296.262,585.686Z" transform="translate(-187.916 -554.313)" fill="#727997" opacity="0.5"/>
        </g>
      </g>
    </g>
    <g id="Grupo_59727" data-name="Grupo 59727" transform="translate(139.402 93.404)">
      <g id="Grupo_59724" data-name="Grupo 59724" transform="translate(0 40.491)">
        <rect id="Rectángulo_32312" data-name="Rectángulo 32312" width="6.53" height="0.8" transform="translate(24.82)" fill="#472ea6"/>
        <path id="Trazado_125835" data-name="Trazado 125835" d="M398.691,288.27h-.8v-3.934a5.5,5.5,0,0,1,5.489-5.488h14.576v.8H403.38a4.694,4.694,0,0,0-4.689,4.689Z" transform="translate(-397.891 -278.848)" fill="#472ea6"/>
        <rect id="Rectángulo_32313" data-name="Rectángulo 32313" width="78.277" height="33.967" rx="3.365" transform="translate(2.798 2.798)" fill="#472ea6"/>
        <path id="Trazado_125836" data-name="Trazado 125836" d="M486.124,333.963h-66a1.808,1.808,0,0,1-1.808-1.807h0a1.808,1.808,0,0,1,1.808-1.808h66a1.808,1.808,0,0,1,1.808,1.808h0A1.808,1.808,0,0,1,486.124,333.963Z" transform="translate(-411.187 -312.374)" fill="#fff"/>
        <path id="Trazado_125837" data-name="Trazado 125837" d="M472,355.474H420.123a1.808,1.808,0,0,1-1.808-1.807h0a1.808,1.808,0,0,1,1.808-1.808H472a1.808,1.808,0,0,1,1.807,1.808h0A1.808,1.808,0,0,1,472,355.474Z" transform="translate(-411.187 -326.378)" fill="#fff"/>
        <path id="Trazado_125838" data-name="Trazado 125838" d="M442.381,312.452H420.123a1.808,1.808,0,0,1-1.808-1.808h0a1.808,1.808,0,0,1,1.808-1.808h22.258a1.808,1.808,0,0,1,1.807,1.808h0A1.807,1.807,0,0,1,442.381,312.452Z" transform="translate(-411.187 -298.371)" fill="#fff"/>
        <path id="Trazado_125839" data-name="Trazado 125839" d="M526.92,312.452H504.662a1.808,1.808,0,0,1-1.808-1.808h0a1.808,1.808,0,0,1,1.808-1.808H526.92a1.808,1.808,0,0,1,1.807,1.808h0A1.807,1.807,0,0,1,526.92,312.452Z" transform="translate(-466.222 -298.371)" fill="#fff"/>
        <path id="Trazado_125840" data-name="Trazado 125840" d="M418.315,377.93v8.66a2.006,2.006,0,0,0,3.233,1.586L434.821,377.9Z" transform="translate(-411.187 -343.333)" fill="#472ea6"/>
      </g>
      <g id="Grupo_59726" data-name="Grupo 59726" transform="translate(43.536)">
        <g id="Grupo_59725" data-name="Grupo 59725">
          <path id="Trazado_125841" data-name="Trazado 125841" d="M599.368,163.974h-72.9a2.69,2.69,0,0,0-2.69,2.69v28.586a2.69,2.69,0,0,0,2.69,2.69h57.586l10.437,8.078a2.005,2.005,0,0,0,3.233-1.586v-6.492h1.64a2.69,2.69,0,0,0,2.69-2.69V166.664A2.69,2.69,0,0,0,599.368,163.974Z" transform="translate(-523.382 -163.574)" fill="#fff"/>
          <path id="Trazado_125842" data-name="Trazado 125842" d="M594.973,206.095a2.39,2.39,0,0,1-1.469-.506l-10.33-7.994H525.725a3.1,3.1,0,0,1-3.09-3.09V165.918a3.094,3.094,0,0,1,3.09-3.09h72.9a3.094,3.094,0,0,1,3.09,3.09V194.5a3.094,3.094,0,0,1-3.09,3.09h-1.239v6.091a2.412,2.412,0,0,1-2.409,2.408Zm-69.248-42.467a2.293,2.293,0,0,0-2.291,2.291V194.5a2.294,2.294,0,0,0,2.291,2.291h57.723l10.545,8.161a1.606,1.606,0,0,0,2.589-1.27V196.8h2.039a2.293,2.293,0,0,0,2.291-2.291V165.918a2.293,2.293,0,0,0-2.291-2.291Z" transform="translate(-522.635 -162.828)" fill="#472ea6"/>
        </g>
        <path id="Trazado_125843" data-name="Trazado 125843" d="M628.09,211.073h34.559a1.808,1.808,0,0,0,1.807-1.808h0a1.807,1.807,0,0,0-1.807-1.807H628.09a1.807,1.807,0,0,0-1.808,1.807h0A1.808,1.808,0,0,0,628.09,211.073Z" transform="translate(-590.109 -191.882)" fill="#472ea6"/>
        <path id="Trazado_125844" data-name="Trazado 125844" d="M558.958,211.073h17.11a1.808,1.808,0,0,0,1.807-1.808h0a1.807,1.807,0,0,0-1.807-1.807h-17.11a1.807,1.807,0,0,0-1.808,1.807h0A1.808,1.808,0,0,0,558.958,211.073Z" transform="translate(-545.104 -191.882)" fill="#472ea6"/>
        <rect id="Rectángulo_32314" data-name="Rectángulo 32314" width="55.492" height="3.615" rx="1.808" transform="translate(74.347 26.698) rotate(-180)" fill="#472ea6"/>
        <path id="Trazado_125845" data-name="Trazado 125845" d="M538,189.562h66a1.808,1.808,0,0,0,1.807-1.808h0A1.808,1.808,0,0,0,604,185.947H538a1.808,1.808,0,0,0-1.808,1.807h0A1.808,1.808,0,0,0,538,189.562Z" transform="translate(-531.458 -177.878)" fill="#472ea6"/>
      </g>
    </g>
  </g>
</svg>
