<svg xmlns="http://www.w3.org/2000/svg" width="375" height="279.008" viewBox="0 0 375 279.008">
  <g id="Grupo_59738" data-name="Grupo 59738" transform="translate(0 -55)">
    <g id="freepik--background-complete--inject-3" transform="translate(0 55)">
      <rect id="Rectángulo_32315" data-name="Rectángulo 32315" width="24.84" height="0.188" transform="translate(312.585 257.617)" fill="#ebebeb"/>
      <rect id="Rectángulo_32316" data-name="Rectángulo 32316" width="6.518" height="0.188" transform="translate(241.898 259.658)" fill="#ebebeb"/>
      <rect id="Rectángulo_32317" data-name="Rectángulo 32317" width="14.393" height="0.188" transform="translate(297.443 250.657)" fill="#ebebeb"/>
      <rect id="Rectángulo_32318" data-name="Rectángulo 32318" width="32.392" height="0.188" transform="translate(39.345 251.918)" fill="#ebebeb"/>
      <rect id="Rectángulo_32319" data-name="Rectángulo 32319" width="4.748" height="0.188" transform="translate(78.42 251.918)" fill="#ebebeb"/>
      <rect id="Rectángulo_32320" data-name="Rectángulo 32320" width="70.26" height="0.188" transform="translate(98.603 255.082)" fill="#ebebeb"/>
      <path id="Trazado_125846" data-name="Trazado 125846" d="M187.3,267.1H42.485a4.282,4.282,0,0,1-4.275-4.283V59.245A4.282,4.282,0,0,1,42.485,55H187.3a4.282,4.282,0,0,1,4.282,4.282h0V262.818A4.282,4.282,0,0,1,187.3,267.1ZM42.485,55.15a4.1,4.1,0,0,0-4.087,4.1V262.818a4.1,4.1,0,0,0,4.087,4.1H187.3a4.1,4.1,0,0,0,4.1-4.1V59.245a4.1,4.1,0,0,0-4.1-4.1Z" transform="translate(-9.553 -55)" fill="#ebebeb"/>
      <path id="Trazado_125847" data-name="Trazado 125847" d="M403.608,267.1H258.783a4.29,4.29,0,0,1-4.283-4.283V59.245A4.29,4.29,0,0,1,258.783,55H403.608a4.283,4.283,0,0,1,4.268,4.245V262.818A4.282,4.282,0,0,1,403.608,267.1ZM258.783,55.15a4.1,4.1,0,0,0-4.095,4.1V262.818a4.1,4.1,0,0,0,4.095,4.1H403.608a4.1,4.1,0,0,0,4.1-4.1V59.245a4.1,4.1,0,0,0-4.1-4.1Z" transform="translate(-63.625 -55)" fill="#ebebeb"/>
      <rect id="Rectángulo_32321" data-name="Rectángulo 32321" width="375" height="0.188" transform="translate(0 245.55)" fill="#ebebeb"/>
      <rect id="Rectángulo_32322" data-name="Rectángulo 32322" width="53.438" height="181.283" transform="translate(288.307 12.278)" fill="#fafafa"/>
      <rect id="Rectángulo_32323" data-name="Rectángulo 32323" width="66.81" height="115.53" transform="translate(276.293 76.447)" fill="#e0e0e0"/>
      <path id="Trazado_125848" data-name="Trazado 125848" d="M385.5,135.41v28.972h41.152V135.41Z" transform="translate(-96.375 -75.103)" fill="#e0e0e0"/>
      <rect id="Rectángulo_32324" data-name="Rectángulo 32324" width="8.55" height="8.55" transform="translate(280.575 80.73)" fill="#fafafa"/>
      <rect id="Rectángulo_32325" data-name="Rectángulo 32325" width="8.55" height="8.55" transform="translate(297.143 80.73)" fill="#fafafa"/>
      <rect id="Rectángulo_32326" data-name="Rectángulo 32326" width="8.55" height="8.55" transform="translate(313.71 80.73)" fill="#fafafa"/>
      <rect id="Rectángulo_32327" data-name="Rectángulo 32327" width="8.558" height="8.55" transform="translate(330.277 80.73)" fill="#f0f0f0"/>
      <rect id="Rectángulo_32328" data-name="Rectángulo 32328" width="8.55" height="8.558" transform="translate(280.575 96.27)" fill="#f0f0f0"/>
      <rect id="Rectángulo_32329" data-name="Rectángulo 32329" width="8.55" height="8.558" transform="translate(297.143 96.27)" fill="#f0f0f0"/>
      <rect id="Rectángulo_32330" data-name="Rectángulo 32330" width="8.55" height="8.558" transform="translate(313.71 96.27)" fill="#fafafa"/>
      <rect id="Rectángulo_32331" data-name="Rectángulo 32331" width="8.558" height="8.558" transform="translate(330.277 96.27)" fill="#fafafa"/>
      <rect id="Rectángulo_32332" data-name="Rectángulo 32332" width="8.55" height="8.55" transform="translate(280.575 111.81)" fill="#f0f0f0"/>
      <rect id="Rectángulo_32333" data-name="Rectángulo 32333" width="8.55" height="8.55" transform="translate(297.143 111.81)" fill="#fafafa"/>
      <rect id="Rectángulo_32334" data-name="Rectángulo 32334" width="8.55" height="8.55" transform="translate(313.71 111.81)" fill="#fafafa"/>
      <rect id="Rectángulo_32335" data-name="Rectángulo 32335" width="8.55" height="8.55" transform="translate(297.143 67.29)" fill="#fafafa"/>
      <rect id="Rectángulo_32336" data-name="Rectángulo 32336" width="8.55" height="8.55" transform="translate(313.71 67.29)" fill="#f0f0f0"/>
      <rect id="Rectángulo_32337" data-name="Rectángulo 32337" width="8.558" height="8.55" transform="translate(330.277 111.81)" fill="#f0f0f0"/>
      <rect id="Rectángulo_32338" data-name="Rectángulo 32338" width="8.55" height="8.55" transform="translate(280.575 127.35)" fill="#fafafa"/>
      <rect id="Rectángulo_32339" data-name="Rectángulo 32339" width="8.55" height="8.55" transform="translate(297.143 127.35)" fill="#f0f0f0"/>
      <rect id="Rectángulo_32340" data-name="Rectángulo 32340" width="8.55" height="8.55" transform="translate(313.71 127.35)" fill="#f0f0f0"/>
      <rect id="Rectángulo_32341" data-name="Rectángulo 32341" width="8.558" height="8.55" transform="translate(330.277 127.35)" fill="#fafafa"/>
      <rect id="Rectángulo_32342" data-name="Rectángulo 32342" width="8.55" height="8.558" transform="translate(280.575 142.897)" fill="#f0f0f0"/>
      <rect id="Rectángulo_32343" data-name="Rectángulo 32343" width="8.55" height="8.558" transform="translate(297.143 142.897)" fill="#fafafa"/>
      <rect id="Rectángulo_32344" data-name="Rectángulo 32344" width="8.55" height="8.558" transform="translate(313.71 142.897)" fill="#fafafa"/>
      <rect id="Rectángulo_32345" data-name="Rectángulo 32345" width="8.558" height="8.558" transform="translate(330.277 142.897)" fill="#f0f0f0"/>
      <rect id="Rectángulo_32346" data-name="Rectángulo 32346" width="8.55" height="8.55" transform="translate(280.575 158.438)" fill="#f0f0f0"/>
      <rect id="Rectángulo_32347" data-name="Rectángulo 32347" width="8.55" height="8.55" transform="translate(297.143 158.438)" fill="#fafafa"/>
      <rect id="Rectángulo_32348" data-name="Rectángulo 32348" width="8.55" height="8.55" transform="translate(313.71 158.438)" fill="#f0f0f0"/>
      <rect id="Rectángulo_32349" data-name="Rectángulo 32349" width="8.558" height="8.55" transform="translate(330.277 158.438)" fill="#fafafa"/>
      <rect id="Rectángulo_32350" data-name="Rectángulo 32350" width="8.55" height="8.558" transform="translate(280.575 173.978)" fill="#fafafa"/>
      <rect id="Rectángulo_32351" data-name="Rectángulo 32351" width="8.55" height="8.558" transform="translate(297.143 173.978)" fill="#fafafa"/>
      <rect id="Rectángulo_32352" data-name="Rectángulo 32352" width="8.55" height="8.558" transform="translate(313.71 173.978)" fill="#f0f0f0"/>
      <rect id="Rectángulo_32353" data-name="Rectángulo 32353" width="8.558" height="8.558" transform="translate(330.277 173.978)" fill="#f0f0f0"/>
      <rect id="Rectángulo_32354" data-name="Rectángulo 32354" width="53.438" height="181.283" transform="translate(288.203 12.278)" fill="#fff" opacity="0.1" style="isolation: isolate"/>
      <g id="Grupo_59729" data-name="Grupo 59729" transform="translate(300.735 12.278)" opacity="0.3">
        <path id="Trazado_125849" data-name="Trazado 125849" d="M436.658,71.37h-17.04L400.98,252.653h17.032Z" transform="translate(-400.98 -71.37)" fill="#fff"/>
      </g>
      <rect id="Rectángulo_32355" data-name="Rectángulo 32355" width="54.338" height="4.597" transform="translate(287.858 9.982)" fill="#e0e0e0"/>
      <rect id="Rectángulo_32356" data-name="Rectángulo 32356" width="54.338" height="4.598" transform="translate(287.858 191.978)" fill="#ebebeb"/>
      <path id="Trazado_125850" data-name="Trazado 125850" d="M439.435,257.33h-58.9v-195h58.9Zm-54.413-4.5H434.95v-186H385.022Z" transform="translate(-95.133 -56.833)" fill="#ebebeb"/>
      <rect id="Rectángulo_32357" data-name="Rectángulo 32357" width="53.438" height="181.283" transform="translate(230.018 12.278)" fill="#fafafa"/>
      <rect id="Rectángulo_32358" data-name="Rectángulo 32358" width="45.697" height="56.078" transform="translate(233.715 136.53)" fill="#e6e6e6"/>
      <path id="Trazado_125851" data-name="Trazado 125851" d="M361.755,245.33H345.27v5.85h16.485Z" transform="translate(-86.318 -102.582)" fill="#e6e6e6"/>
      <path id="Trazado_125852" data-name="Trazado 125852" d="M361.755,260.44H345.27v5.85h16.485Z" transform="translate(-86.318 -106.36)" fill="#fafafa"/>
      <path id="Trazado_125853" data-name="Trazado 125853" d="M361.755,275.55H345.27v5.85h16.485Z" transform="translate(-86.318 -110.137)" fill="#e6e6e6"/>
      <path id="Trazado_125854" data-name="Trazado 125854" d="M361.755,290.66H345.27v5.85h16.485Z" transform="translate(-86.318 -113.915)" fill="#fafafa"/>
      <path id="Trazado_125855" data-name="Trazado 125855" d="M333.408,245.33H316.93v5.85h16.478Z" transform="translate(-79.232 -102.582)" fill="#fafafa"/>
      <path id="Trazado_125856" data-name="Trazado 125856" d="M333.408,260.44H316.93v5.85h16.478Z" transform="translate(-79.232 -106.36)" fill="#fafafa"/>
      <path id="Trazado_125857" data-name="Trazado 125857" d="M333.408,275.55H316.93v5.85h16.478Z" transform="translate(-79.232 -110.137)" fill="#e6e6e6"/>
      <path id="Trazado_125858" data-name="Trazado 125858" d="M333.408,290.66H316.93v5.85h16.478Z" transform="translate(-79.232 -113.915)" fill="#fafafa"/>
      <rect id="Rectángulo_32359" data-name="Rectángulo 32359" width="53.438" height="181.283" transform="translate(229.845 12.278)" fill="#fff" opacity="0.1" style="isolation: isolate"/>
      <g id="Grupo_59730" data-name="Grupo 59730" transform="translate(242.445 12.278)" opacity="0.3">
        <path id="Trazado_125859" data-name="Trazado 125859" d="M358.938,71.37H341.9L323.26,252.653H340.3Z" transform="translate(-323.26 -71.37)" fill="#fff"/>
      </g>
      <rect id="Rectángulo_32360" data-name="Rectángulo 32360" width="54.337" height="4.597" transform="translate(229.567 9.982)" fill="#e0e0e0"/>
      <rect id="Rectángulo_32361" data-name="Rectángulo 32361" width="54.337" height="4.598" transform="translate(229.567 191.978)" fill="#ebebeb"/>
      <path id="Trazado_125860" data-name="Trazado 125860" d="M361.725,257.33h-58.9v-195h58.9Zm-54.42-4.5h49.927v-186H307.305Z" transform="translate(-75.705 -56.833)" fill="#ebebeb"/>
      <rect id="Rectángulo_32362" data-name="Rectángulo 32362" width="53.438" height="181.283" transform="translate(90 12.278)" fill="#fafafa"/>
      <rect id="Rectángulo_32363" data-name="Rectángulo 32363" width="53.438" height="181.283" transform="translate(89.895 12.278)" fill="#fff" opacity="0.1" style="isolation: isolate"/>
      <g id="Grupo_59731" data-name="Grupo 59731" transform="translate(102.435 12.278)" opacity="0.3">
        <path id="Trazado_125861" data-name="Trazado 125861" d="M172.258,71.37h-17.04L136.58,252.653h17.033Z" transform="translate(-136.58 -71.37)" fill="#fff"/>
      </g>
      <rect id="Rectángulo_32364" data-name="Rectángulo 32364" width="54.337" height="4.597" transform="translate(89.558 9.982)" fill="#e0e0e0"/>
      <rect id="Rectángulo_32365" data-name="Rectángulo 32365" width="54.337" height="4.598" transform="translate(89.558 191.978)" fill="#ebebeb"/>
      <path id="Trazado_125862" data-name="Trazado 125862" d="M175.035,257.33H116.13v-195h58.905Zm-54.413-4.5h49.92v-186h-49.92Z" transform="translate(-29.032 -56.833)" fill="#ebebeb"/>
      <rect id="Rectángulo_32366" data-name="Rectángulo 32366" width="53.438" height="181.283" transform="translate(31.792 12.278)" fill="#fafafa"/>
      <rect id="Rectángulo_32367" data-name="Rectángulo 32367" width="41.362" height="34.71" transform="translate(35.813 89.048)" fill="#e6e6e6"/>
      <rect id="Rectángulo_32368" data-name="Rectángulo 32368" width="5.295" height="5.295" transform="translate(38.46 93.375)" fill="#fafafa"/>
      <rect id="Rectángulo_32369" data-name="Rectángulo 32369" width="5.295" height="5.295" transform="translate(48.72 93.375)" fill="#fafafa"/>
      <rect id="Rectángulo_32370" data-name="Rectángulo 32370" width="5.295" height="5.295" transform="translate(58.98 93.375)" fill="#fafafa"/>
      <rect id="Rectángulo_32371" data-name="Rectángulo 32371" width="5.295" height="5.295" transform="translate(69.232 93.375)" fill="#fafafa"/>
      <rect id="Rectángulo_32372" data-name="Rectángulo 32372" width="5.295" height="5.295" transform="translate(38.46 102.997)" fill="#fafafa"/>
      <rect id="Rectángulo_32373" data-name="Rectángulo 32373" width="5.295" height="5.295" transform="translate(48.72 102.997)" fill="#fafafa"/>
      <rect id="Rectángulo_32374" data-name="Rectángulo 32374" width="5.295" height="5.295" transform="translate(58.98 102.997)" fill="#fafafa"/>
      <rect id="Rectángulo_32375" data-name="Rectángulo 32375" width="5.295" height="5.295" transform="translate(69.232 102.997)" fill="#e6e6e6"/>
      <rect id="Rectángulo_32376" data-name="Rectángulo 32376" width="5.295" height="5.295" transform="translate(38.46 112.612)" fill="#e6e6e6"/>
      <rect id="Rectángulo_32377" data-name="Rectángulo 32377" width="5.295" height="5.295" transform="translate(48.72 112.612)" fill="#e6e6e6"/>
      <rect id="Rectángulo_32378" data-name="Rectángulo 32378" width="5.295" height="5.295" transform="translate(58.98 112.612)" fill="#fafafa"/>
      <rect id="Rectángulo_32379" data-name="Rectángulo 32379" width="5.295" height="5.295" transform="translate(69.232 112.612)" fill="#e6e6e6"/>
      <rect id="Rectángulo_32380" data-name="Rectángulo 32380" width="41.362" height="34.71" transform="translate(35.813 123.322)" fill="#e6e6e6"/>
      <rect id="Rectángulo_32381" data-name="Rectángulo 32381" width="5.295" height="5.295" transform="translate(38.46 127.643)" fill="#fafafa"/>
      <rect id="Rectángulo_32382" data-name="Rectángulo 32382" width="5.295" height="5.295" transform="translate(48.72 127.643)" fill="#fafafa"/>
      <rect id="Rectángulo_32383" data-name="Rectángulo 32383" width="5.295" height="5.295" transform="translate(58.98 127.643)" fill="#fafafa"/>
      <rect id="Rectángulo_32384" data-name="Rectángulo 32384" width="5.295" height="5.295" transform="translate(69.232 127.643)" fill="#fafafa"/>
      <rect id="Rectángulo_32385" data-name="Rectángulo 32385" width="5.295" height="5.295" transform="translate(38.46 137.265)" fill="#fafafa"/>
      <rect id="Rectángulo_32386" data-name="Rectángulo 32386" width="5.295" height="5.295" transform="translate(48.72 137.265)" fill="#fafafa"/>
      <rect id="Rectángulo_32387" data-name="Rectángulo 32387" width="5.295" height="5.295" transform="translate(58.98 137.265)" fill="#fafafa"/>
      <rect id="Rectángulo_32388" data-name="Rectángulo 32388" width="5.295" height="5.295" transform="translate(69.232 137.265)" fill="#e6e6e6"/>
      <rect id="Rectángulo_32389" data-name="Rectángulo 32389" width="5.295" height="5.295" transform="translate(38.46 146.888)" fill="#e6e6e6"/>
      <rect id="Rectángulo_32390" data-name="Rectángulo 32390" width="5.295" height="5.295" transform="translate(48.72 146.888)" fill="#e6e6e6"/>
      <rect id="Rectángulo_32391" data-name="Rectángulo 32391" width="5.295" height="5.295" transform="translate(58.98 146.888)" fill="#fafafa"/>
      <rect id="Rectángulo_32392" data-name="Rectángulo 32392" width="5.295" height="5.295" transform="translate(69.232 146.888)" fill="#e6e6e6"/>
      <rect id="Rectángulo_32393" data-name="Rectángulo 32393" width="41.362" height="34.71" transform="translate(35.813 157.59)" fill="#e6e6e6"/>
      <rect id="Rectángulo_32394" data-name="Rectángulo 32394" width="5.295" height="5.295" transform="translate(38.46 161.918)" fill="#fafafa"/>
      <rect id="Rectángulo_32395" data-name="Rectángulo 32395" width="5.295" height="5.295" transform="translate(48.72 161.918)" fill="#fafafa"/>
      <rect id="Rectángulo_32396" data-name="Rectángulo 32396" width="5.295" height="5.295" transform="translate(58.98 161.918)" fill="#fafafa"/>
      <rect id="Rectángulo_32397" data-name="Rectángulo 32397" width="5.295" height="5.295" transform="translate(69.232 161.918)" fill="#fafafa"/>
      <rect id="Rectángulo_32398" data-name="Rectángulo 32398" width="5.295" height="5.295" transform="translate(38.46 171.54)" fill="#fafafa"/>
      <rect id="Rectángulo_32399" data-name="Rectángulo 32399" width="5.295" height="5.295" transform="translate(48.72 171.54)" fill="#fafafa"/>
      <rect id="Rectángulo_32400" data-name="Rectángulo 32400" width="5.295" height="5.295" transform="translate(58.98 171.54)" fill="#fafafa"/>
      <rect id="Rectángulo_32401" data-name="Rectángulo 32401" width="5.295" height="5.295" transform="translate(69.232 171.54)" fill="#e6e6e6"/>
      <rect id="Rectángulo_32402" data-name="Rectángulo 32402" width="5.295" height="5.295" transform="translate(38.46 181.162)" fill="#e6e6e6"/>
      <rect id="Rectángulo_32403" data-name="Rectángulo 32403" width="5.295" height="5.295" transform="translate(48.72 181.162)" fill="#e6e6e6"/>
      <rect id="Rectángulo_32404" data-name="Rectángulo 32404" width="5.295" height="5.295" transform="translate(58.98 181.162)" fill="#fafafa"/>
      <rect id="Rectángulo_32405" data-name="Rectángulo 32405" width="5.295" height="5.295" transform="translate(69.232 181.162)" fill="#e6e6e6"/>
      <rect id="Rectángulo_32406" data-name="Rectángulo 32406" width="53.438" height="181.283" transform="translate(31.088 12.278)" fill="#fff" opacity="0.1" style="isolation: isolate"/>
      <g id="Grupo_59732" data-name="Grupo 59732" transform="translate(44.228 12.278)" opacity="0.3">
        <path id="Trazado_125863" data-name="Trazado 125863" d="M94.64,71.37H77.608L58.97,252.653H76Z" transform="translate(-58.97 -71.37)" fill="#fff"/>
      </g>
      <rect id="Rectángulo_32407" data-name="Rectángulo 32407" width="54.337" height="4.597" transform="translate(31.35 9.982)" fill="#e0e0e0"/>
      <rect id="Rectángulo_32408" data-name="Rectángulo 32408" width="54.337" height="4.598" transform="translate(31.35 191.978)" fill="#ebebeb"/>
      <path id="Trazado_125864" data-name="Trazado 125864" d="M97.425,257.33H38.52v-195H97.425Zm-54.413-4.5h49.92v-186H43.012Z" transform="translate(-9.63 -56.833)" fill="#ebebeb"/>
      <path id="Trazado_125865" data-name="Trazado 125865" d="M243.015,322.413l-.6.075c-.038-.307-3.682-30.818,3.84-55.747,7.5-24.75,2.325-40.575,2.25-40.725l.578-.2c.052.157,5.25,16.132-2.25,41.092C239.347,291.723,242.977,322.113,243.015,322.413Z" transform="translate(-60.375 -97.705)" fill="#e0e0e0"/>
      <path id="Trazado_125866" data-name="Trazado 125866" d="M250.61,229.37a9.483,9.483,0,0,0-5.07-3.127l.143-.593a10.073,10.073,0,0,1,5.393,3.33Z" transform="translate(-61.385 -97.662)" fill="#e0e0e0"/>
      <rect id="Rectángulo_32409" data-name="Rectángulo 32409" width="1.988" height="0.607" transform="translate(190.067 135.209) rotate(-29.47)" fill="#e0e0e0"/>
      <path id="Trazado_125867" data-name="Trazado 125867" d="M248.835,250.025a14.39,14.39,0,0,0-7.785-7.56l.225-.555a15,15,0,0,1,8.115,7.867Z" transform="translate(-60.263 -101.728)" fill="#e0e0e0"/>
      <path id="Trazado_125868" data-name="Trazado 125868" d="M248.023,275.86h-.607a8.309,8.309,0,0,0-3.135-6.368l.375-.473A8.933,8.933,0,0,1,248.023,275.86Z" transform="translate(-61.07 -108.505)" fill="#e0e0e0"/>
      <path id="Trazado_125869" data-name="Trazado 125869" d="M247.28,283.433l-.57-.218a6.091,6.091,0,0,1,3.45-3.405l.21.57A5.427,5.427,0,0,0,247.28,283.433Z" transform="translate(-61.678 -111.202)" fill="#e0e0e0"/>
      <path id="Trazado_125870" data-name="Trazado 125870" d="M242.075,323.355l-.465-.383c.75-.892,1.3-4.275,1.6-6.09.067-.435.128-.8.18-1.073l.592.113c-.045.263-.1.63-.18,1.058C243.357,319.7,242.855,322.418,242.075,323.355Z" transform="translate(-60.403 -120.202)" fill="#e0e0e0"/>
      <path id="Trazado_125871" data-name="Trazado 125871" d="M239.843,337.287a6,6,0,0,0-5.783-3.99v-.607a6.608,6.608,0,0,1,6.39,4.41Z" transform="translate(-58.515 -124.422)" fill="#e0e0e0"/>
      <rect id="Rectángulo_32410" data-name="Rectángulo 32410" width="6.405" height="0.607" transform="translate(181.688 223.985) rotate(-48.21)" fill="#e0e0e0"/>
      <path id="Trazado_125872" data-name="Trazado 125872" d="M246.7,304.058c.967,3.128-5.775,9.09-5.775,9.09s-8.933-1.117-9.9-4.252,1.3-8.25,5.625-9.585S245.7,300.93,246.7,304.058Z" transform="translate(-57.701 -115.995)" fill="#f0f0f0"/>
      <path id="Trazado_125873" data-name="Trazado 125873" d="M258.289,252.073c-.855,3.323-7.245,5.685-7.245,5.685s-4.455-5.152-3.6-8.475,4.388-6.99,7.38-6.217S259.144,248.75,258.289,252.073Z" transform="translate(-61.834 -101.99)" fill="#ebebeb"/>
      <path id="Trazado_125874" data-name="Trazado 125874" d="M223.952,321.031c4,1.568,6.465,8.655,6.465,8.655s-6.607,3.563-10.62,2-8.25-6-7.11-8.9S219.94,319.471,223.952,321.031Z" transform="translate(-53.125 -121.284)" fill="#f5f5f5"/>
      <path id="Trazado_125875" data-name="Trazado 125875" d="M238.119,266.536a8.583,8.583,0,0,0,2.738,1.552,2.918,2.918,0,0,0,2.925-.69c.863-.99.63-2.52.09-3.712-1.072-2.362-5.025-6.367-8.062-5.25C231.429,260.123,236.162,265.088,238.119,266.536Z" transform="translate(-58.502 -105.811)" fill="#e6e6e6"/>
      <path id="Trazado_125876" data-name="Trazado 125876" d="M251.131,276.1c-.578.712-1.185,1.605-.87,2.467a1.83,1.83,0,0,0,2.018.99,5.42,5.42,0,0,0,2.167-1.057c1.545-1.08,4.717-3.33,2.692-5.437S252.339,274.6,251.131,276.1Z" transform="translate(-62.544 -109.356)" fill="#ebebeb"/>
      <path id="Trazado_125877" data-name="Trazado 125877" d="M233.7,237.322a1.59,1.59,0,0,0-1.448,1.17c-.127.75.51,1.44,1.125,1.913,1.538,1.185,6.15,4.38,7.185,1.3C241.54,238.792,235.742,237.075,233.7,237.322Z" transform="translate(-58.06 -100.575)" fill="#e0e0e0"/>
      <path id="Trazado_125878" data-name="Trazado 125878" d="M243.978,223.743c-.952.09-1.9-.255-2.857-.195s-2.018.825-1.8,1.762,1.268,1.147,2.145,1.208a17.455,17.455,0,0,0,4.5-.315,1.38,1.38,0,0,0,.907-.458c.39-.57-.225-1.335-.885-1.5a9.8,9.8,0,0,1-2-.473Z" transform="translate(-59.823 -97.135)" fill="#e6e6e6"/>
      <path id="Trazado_125879" data-name="Trazado 125879" d="M257.031,232.423c.96,0,1.883-.383,2.843-.383s2.063.69,1.912,1.635-1.193,1.237-2.07,1.35a17.12,17.12,0,0,1-4.5,0,1.4,1.4,0,0,1-.945-.4c-.42-.548.142-1.343.75-1.59a9.478,9.478,0,0,0,1.965-.607Z" transform="translate(-63.531 -99.26)" fill="#f0f0f0"/>
      <path id="Trazado_125880" data-name="Trazado 125880" d="M253.9,326.375a1.351,1.351,0,0,1,.817-.4.923.923,0,0,1,.81.795,2.668,2.668,0,0,1-.15,1.208c-.653,2.167-7.928,17.88-9.608,15.06-.99-1.672,1.447-7.193,2.167-8.76A22.772,22.772,0,0,1,253.9,326.375Z" transform="translate(-61.385 -122.743)" fill="#f0f0f0"/>
      <path id="Trazado_125881" data-name="Trazado 125881" d="M250.89,223.244a8.248,8.248,0,0,1,2.333-3.45c1.147-.832,3-.892,3.825.255.938,1.283,0,3.232-1.432,3.915a8.247,8.247,0,0,1-4.68.255,4.349,4.349,0,0,0-.038-.7Z" transform="translate(-62.723 -96.044)" fill="#e6e6e6"/>
      <path id="Trazado_125882" data-name="Trazado 125882" d="M246.768,373.55h0a70.127,70.127,0,0,1-23.55,0h0l-9.158-27h41.873Z" transform="translate(-53.515 -127.888)" fill="#f0f0f0"/>
      <circle id="Elipse_4107" data-name="Elipse 4107" cx="15.547" cy="15.547" r="15.547" transform="translate(170.105 40.794) rotate(-80.783)" fill="#e0e0e0"/>
      <circle id="Elipse_4108" data-name="Elipse 4108" cx="15.548" cy="15.548" r="15.548" transform="translate(171.357 11.746)" fill="#ebebeb"/>
      <path id="Trazado_125883" data-name="Trazado 125883" d="M257.51,87.36a12.48,12.48,0,1,1-12.48-12.48h0A12.48,12.48,0,0,1,257.51,87.36Z" transform="translate(-58.138 -59.97)" fill="#fff" opacity="0.8" style="isolation: isolate"/>
      <path id="Trazado_125884" data-name="Trazado 125884" d="M248.167,92.37a1.269,1.269,0,1,1,.008.007Z" transform="translate(-61.95 -63.803)" fill="#e0e0e0"/>
      <path id="Trazado_125885" data-name="Trazado 125885" d="M248.935,91.245l7.365-.225.023.765-6.675.2-.72,11.61-.757-.045Z" transform="translate(-62.043 -64.005)" fill="#e0e0e0"/>
    </g>
    <g id="freepik--Shadow--inject-3" transform="translate(42.082 317.027)">
      <ellipse id="freepik--path--inject-3" cx="145.418" cy="8.49" rx="145.418" ry="8.49" fill="#f5f5f5"/>
    </g>
    <g id="freepik--character-2--inject-3" transform="translate(180.973 138.738)">
      <path id="Trazado_125886" data-name="Trazado 125886" d="M404.262,328.838l3.81-60.645a39.12,39.12,0,0,0-36.59-41.5q-1.226-.078-2.455-.077h0a39.12,39.12,0,0,0-39.053,36.915L326,334.365h72.375A5.9,5.9,0,0,0,404.262,328.838Z" transform="translate(-262.473 -181.643)" fill="#7e57c2"/>
      <path id="Trazado_125887" data-name="Trazado 125887" d="M404.4,326.66l3.675-58.447a39.12,39.12,0,0,0-36.59-41.5q-1.226-.078-2.455-.077h0a39.12,39.12,0,0,0-39.053,36.915L326,334.37h70.193A8.25,8.25,0,0,0,404.4,326.66Z" transform="translate(-262.473 -181.648)" opacity="0.1" style="isolation: isolate"/>
      <path id="Trazado_125888" data-name="Trazado 125888" d="M388.71,334.365l4.155-66.173a39.128,39.128,0,0,0-36.606-41.5q-1.218-.076-2.439-.077h0a39.112,39.112,0,0,0-39.052,36.915l-4,70.83Z" transform="translate(-258.666 -181.643)" fill="#7e57c2"/>
      <path id="Trazado_125889" data-name="Trazado 125889" d="M415.513,381.675h1a1.132,1.132,0,0,0,1.065-1.013l1.5-10.372H413l1.5,10.372A1.14,1.14,0,0,0,415.513,381.675Z" transform="translate(-284.223 -217.56)" fill="#7e57c2"/>
      <path id="Trazado_125890" data-name="Trazado 125890" d="M415.513,381.675h1a1.132,1.132,0,0,0,1.065-1.013l1.5-10.372H413l1.5,10.372A1.14,1.14,0,0,0,415.513,381.675Z" transform="translate(-284.223 -217.56)" fill="#fff" opacity="0.7" style="isolation: isolate"/>
      <path id="Trazado_125891" data-name="Trazado 125891" d="M284.935,381.675h.9a1.079,1.079,0,0,0,.968-1.013l1.357-10.372h-5.52l1.342,10.372A1.08,1.08,0,0,0,284.935,381.675Z" transform="translate(-251.633 -217.56)" fill="#7e57c2"/>
      <path id="Trazado_125892" data-name="Trazado 125892" d="M284.935,381.675h.9a1.079,1.079,0,0,0,.968-1.013l1.357-10.372h-5.52l1.342,10.372A1.08,1.08,0,0,0,284.935,381.675Z" transform="translate(-251.633 -217.56)" fill="#fff" opacity="0.5" style="isolation: isolate"/>
      <path id="Trazado_125893" data-name="Trazado 125893" d="M322.543,381.675h.908a1.079,1.079,0,0,0,.967-1.013l1.335-10.372H320.24l1.32,10.372A1.08,1.08,0,0,0,322.543,381.675Z" transform="translate(-261.033 -217.56)" fill="#7e57c2"/>
      <path id="Trazado_125894" data-name="Trazado 125894" d="M322.543,381.675h.908a1.079,1.079,0,0,0,.967-1.013l1.335-10.372H320.24l1.32,10.372A1.08,1.08,0,0,0,322.543,381.675Z" transform="translate(-261.033 -217.56)" fill="#fff" opacity="0.7" style="isolation: isolate"/>
      <path id="Trazado_125895" data-name="Trazado 125895" d="M375.013,381.675h1a1.148,1.148,0,0,0,1.072-1.013l1.5-10.372H372.5l1.5,10.372A1.133,1.133,0,0,0,375.013,381.675Z" transform="translate(-274.098 -217.56)" fill="#7e57c2"/>
      <path id="Trazado_125896" data-name="Trazado 125896" d="M375.013,381.675h1a1.148,1.148,0,0,0,1.072-1.013l1.5-10.372H372.5l1.5,10.372A1.133,1.133,0,0,0,375.013,381.675Z" transform="translate(-274.098 -217.56)" fill="#fff" opacity="0.5" style="isolation: isolate"/>
      <path id="Trazado_125897" data-name="Trazado 125897" d="M317.883,321.275h-26.67l-1.763-25.71-.383-5.52h0L288.9,287.5a16.9,16.9,0,0,0-.263-1.988,2.315,2.315,0,0,0-.09-.443,1.478,1.478,0,0,0-.082-.315,15.38,15.38,0,0,0-4.057-6.908,13.094,13.094,0,0,0-8.332-3.75h25.912a13.014,13.014,0,0,1,9.082,3.75,15.4,15.4,0,0,1,4.065,6.908,1.474,1.474,0,0,1,.083.315,16.911,16.911,0,0,1,.353,2.43l.172,2.542h0Z" transform="translate(-249.991 -193.513)" fill="#7e57c2"/>
      <path id="Trazado_125898" data-name="Trazado 125898" d="M317.883,321.275h-26.67l-1.763-25.71-.383-5.52h0L288.9,287.5a16.9,16.9,0,0,0-.263-1.988,2.315,2.315,0,0,0-.09-.443,1.478,1.478,0,0,0-.082-.315,15.38,15.38,0,0,0-4.057-6.908,13.094,13.094,0,0,0-8.332-3.75h25.912a13.014,13.014,0,0,1,9.082,3.75,15.4,15.4,0,0,1,4.065,6.908,1.474,1.474,0,0,1,.083.315,16.911,16.911,0,0,1,.353,2.43l.172,2.542h0Z" transform="translate(-249.991 -193.513)" opacity="0.1" style="isolation: isolate"/>
      <g id="Grupo_59733" data-name="Grupo 59733" transform="translate(89.027 114.037)" opacity="0.1">
        <path id="Trazado_125899" data-name="Trazado 125899" d="M360,318.7h10.71c2.61,0,4.717,1.65,4.717,3.683v6.33c0,2.04-2.107,3.683-4.717,3.683H360Z" transform="translate(-360 -318.7)"/>
      </g>
      <rect id="Rectángulo_32411" data-name="Rectángulo 32411" width="55.305" height="13.702" rx="5.42" transform="translate(41.229 114.03)" fill="#7e57c2"/>
      <path id="Trazado_125900" data-name="Trazado 125900" d="M433.348,289.2a15.2,15.2,0,0,1-12.607,15L418,340.75c-.24,3.105-2.5,5.482-5.2,5.482H383.39c2.7,0,4.95-2.377,5.19-5.482l1.5-19.5,1.268-17.07a15.134,15.134,0,0,0,10.9-8,8.066,8.066,0,0,0,.4-.817,15,15,0,0,0,1.3-6.165,15.626,15.626,0,0,0-.315-3.1c-.082-.4-.187-.81-.3-1.208a15.412,15.412,0,0,0-2.52-4.942h0A15.233,15.233,0,0,0,388.76,274h29.415a14.93,14.93,0,0,1,6.788,1.605,15.085,15.085,0,0,1,5.25,4.327h0A15.154,15.154,0,0,1,433.348,289.2Z" transform="translate(-276.821 -193.488)" fill="#7e57c2"/>
      <path id="Trazado_125901" data-name="Trazado 125901" d="M433.348,289.2a15.2,15.2,0,0,1-12.607,15L418,340.75c-.24,3.105-2.5,5.482-5.2,5.482H383.39c2.7,0,4.95-2.377,5.19-5.482l1.5-19.5,1.268-17.07a15.134,15.134,0,0,0,10.9-8,8.066,8.066,0,0,0,.4-.817,15,15,0,0,0,1.3-6.165,15.626,15.626,0,0,0-.315-3.1c-.082-.4-.187-.81-.3-1.208a15.412,15.412,0,0,0-2.52-4.942h0A15.233,15.233,0,0,0,388.76,274h29.415a14.93,14.93,0,0,1,6.788,1.605,15.085,15.085,0,0,1,5.25,4.327h0A15.154,15.154,0,0,1,433.348,289.2Z" transform="translate(-276.821 -193.488)" opacity="0.1" style="isolation: isolate"/>
      <path id="Trazado_125902" data-name="Trazado 125902" d="M372.28,289.22c0,7.5-4.943,13.747-11.43,15l-2.5,36.54c-.218,3.105-2.25,5.49-4.71,5.49H275.08c-2.445,0-4.5-2.385-4.71-5.49l-2.512-36.608c-6.36-1.335-11.167-7.5-11.167-14.91a16.171,16.171,0,0,1,2.542-8.782,14.245,14.245,0,0,1,5.078-4.807,12.559,12.559,0,0,1,6.158-1.613,13.079,13.079,0,0,1,9.09,3.75,15.363,15.363,0,0,1,4.057,6.9,1.615,1.615,0,0,1,.083.33,16.608,16.608,0,0,1,.353,2.422l.18,2.543h0l2.138,31.275h55.98l2.317-33.75c.33-4.77,2.655-8.745,5.88-10.627a12.745,12.745,0,0,1,7.133-2.767,7.388,7.388,0,0,1,.825-.038,12.466,12.466,0,0,1,6,1.5,1.175,1.175,0,0,1,.165.09,14.134,14.134,0,0,1,4.77,4.328h0A16.222,16.222,0,0,1,372.28,289.22Z" transform="translate(-245.146 -193.498)" fill="#7e57c2"/>
      <path id="Trazado_125903" data-name="Trazado 125903" d="M341.04,346.22h-66c-2.445,0-4.5-2.385-4.71-5.49l-2.513-36.608c-6.36-1.335-11.168-7.5-11.168-14.91a16.171,16.171,0,0,1,2.543-8.782,14.245,14.245,0,0,1,5.077-4.808,12.559,12.559,0,0,1,6.157-1.613,13.079,13.079,0,0,1,9.09,3.75,15.363,15.363,0,0,1,4.057,6.9,1.611,1.611,0,0,1,.083.33,16.6,16.6,0,0,1,.352,2.423l.18,2.542h0l2.168,31.3h55.98Z" transform="translate(-245.136 -193.49)" fill="#fff" opacity="0.1" style="isolation: isolate"/>
      <path id="Trazado_125904" data-name="Trazado 125904" d="M337.448,228.6c-1.305.75-2.5,1.372-3.75,2.01s-2.482,1.223-3.75,1.808c-2.52,1.147-5.07,2.25-7.7,3.2q-3.969,1.476-8.07,2.55a51.6,51.6,0,0,1-8.67,1.552l-.622.06H304.6a70.191,70.191,0,0,1-7.35-1.275c-2.355-.525-4.687-1.042-7-1.635s-4.6-1.2-6.9-1.86-4.568-1.343-6.84-2.115l1.042-5.205c4.717.3,9.428.75,14.092,1.238l6.968.7c2.295.225,4.642.42,6.7.5H304.4a50.323,50.323,0,0,0,6.945-1.755c2.348-.75,4.7-1.6,7.043-2.61s4.672-2.04,6.982-3.143c1.185-.54,2.332-1.11,3.457-1.673s2.325-1.162,3.353-1.695Z" transform="translate(-250.101 -179.8)" fill="#263238"/>
      <path id="Trazado_125905" data-name="Trazado 125905" d="M337.448,228.6c-1.305.75-2.5,1.372-3.75,2.01s-2.482,1.223-3.75,1.808c-2.52,1.147-5.07,2.25-7.7,3.2q-3.969,1.476-8.07,2.55a51.6,51.6,0,0,1-8.67,1.552l-.622.06H304.6a70.191,70.191,0,0,1-7.35-1.275c-2.355-.525-4.687-1.042-7-1.635s-4.6-1.2-6.9-1.86-4.568-1.343-6.84-2.115l1.042-5.205c4.717.3,9.428.75,14.092,1.238l6.968.7c2.295.225,4.642.42,6.7.5H304.4a50.323,50.323,0,0,0,6.945-1.755c2.348-.75,4.7-1.6,7.043-2.61s4.672-2.04,6.982-3.143c1.185-.54,2.332-1.11,3.457-1.673s2.325-1.162,3.353-1.695Z" transform="translate(-250.101 -179.8)" opacity="0.1" style="isolation: isolate"/>
      <path id="Trazado_125906" data-name="Trazado 125906" d="M274.772,226.11a12.822,12.822,0,0,0-3.63-1.77l-1.943,7.582,5.82,2.445.66-.81a5.168,5.168,0,0,0-.688-7.276C274.92,226.223,274.848,226.166,274.772,226.11Z" transform="translate(-248.273 -181.073)" fill="#ffc3bd"/>
      <path id="Trazado_125907" data-name="Trazado 125907" d="M267.493,230.935l1.942-7.583-5.43-2.962-1.635,5.34Z" transform="translate(-246.566 -180.085)" fill="#ffc3bd"/>
      <path id="Trazado_125908" data-name="Trazado 125908" d="M333.41,238.242h.3c2.865-.307,11.287-1.725,17.378-7.732-.908-1.755-2.153-3.113-3.675-3.42C343.212,226.294,338.068,229.3,333.41,238.242Z" transform="translate(-264.326 -181.729)" opacity="0.2" style="isolation: isolate"/>
      <path id="Trazado_125909" data-name="Trazado 125909" d="M340,274.252c7.185-19.4,2.46-37.245,3.36-47.122a11.251,11.251,0,0,1,9.1-10.035c4.905-.945,10.973-2.01,16.755-2.79a11.311,11.311,0,0,1,12.855,11.385c-.5,29.25-9.877,48.562-9.877,48.562l-15.15-.067Z" transform="translate(-265.973 -178.537)" fill="#7e57c2"/>
      <path id="Trazado_125910" data-name="Trazado 125910" d="M340,274.252c7.185-19.4,2.46-37.245,3.36-47.122a11.251,11.251,0,0,1,9.1-10.035c4.905-.945,10.973-2.01,16.755-2.79a11.311,11.311,0,0,1,12.855,11.385c-.5,29.25-9.877,48.562-9.877,48.562l-15.15-.067Z" transform="translate(-265.973 -178.537)" fill="#fff" opacity="0.8" style="isolation: isolate"/>
      <g id="freepik--character-2--inject-102--inject-3" transform="translate(0 91.14)">
        <path id="Trazado_125911" data-name="Trazado 125911" d="M262.72,382.54l-1.92,12.623h6.1l4-12.623Z" transform="translate(-246.173 -311.763)" fill="#ffc3bd"/>
        <path id="Trazado_125912" data-name="Trazado 125912" d="M255.144,395.554l8.153-.2a.457.457,0,0,1,.507.4c0,.016,0,.032,0,.048v6a1.373,1.373,0,0,1-1.343,1.223c-2.835,0-4.185-.105-7.77,0a91.632,91.632,0,0,1-11.415-.75c-2.9-.495-2.115-3.217-.8-3.262,5.925-.217,9.24-1.455,11.37-3A2.193,2.193,0,0,1,255.144,395.554Z" transform="translate(-241.297 -314.966)" fill="#263238"/>
        <path id="Trazado_125913" data-name="Trazado 125913" d="M262.33,387.6l.773-5.063h8.182l-1.965,6.315Z" transform="translate(-246.556 -311.763)" opacity="0.2" style="isolation: isolate"/>
        <path id="Trazado_125914" data-name="Trazado 125914" d="M316.567,288.2s-49.612.495-50.385,16.207c-1.1,22.59-4.913,57-4.913,57l9.352,2.572s13.35-34.147,13.868-51.795c13.957-2.775,49.83,0,54.045-9.165a24.535,24.535,0,0,0,1.59-14.85Z" transform="translate(-246.291 -288.17)" fill="#7e57c2"/>
        <path id="Trazado_125915" data-name="Trazado 125915" d="M316.567,288.2s-49.612.495-50.385,16.207c-1.1,22.59-4.913,57-4.913,57l9.352,2.572s13.35-34.147,13.868-51.795c13.957-2.775,49.83,0,54.045-9.165a24.535,24.535,0,0,0,1.59-14.85Z" transform="translate(-246.291 -288.17)" opacity="0.6" style="isolation: isolate"/>
        <path id="Trazado_125916" data-name="Trazado 125916" d="M321.56,388.9l3.307,8.565h6.69l-2.3-9.008Z" transform="translate(-261.363 -313.242)" fill="#ffc3bd"/>
        <path id="Trazado_125917" data-name="Trazado 125917" d="M329.4,389.5l-1.3-6.593-8.453,1.05,2.168,5.73Z" transform="translate(-260.886 -311.855)" opacity="0.2" style="isolation: isolate"/>
        <path id="Trazado_125918" data-name="Trazado 125918" d="M319.3,396.69h8.543a.525.525,0,0,1,.563.48h0l.413,6.4a1.32,1.32,0,0,1-1.327,1.29c-3-.052-4.4-.217-8.152-.217-2.3,0-6.968.225-10.155.225s-3.1-3-1.755-3.232c6.075-1.215,8.423-2.887,10.56-4.5A2.25,2.25,0,0,1,319.3,396.69Z" transform="translate(-257.61 -315.3)" fill="#263238"/>
        <path id="Trazado_125919" data-name="Trazado 125919" d="M338.153,288.207s-45,3.053-43.89,18.75c1.207,17.19,19.23,57.053,19.23,57.053h9.067s-6-36.165-8.76-53.685c12.69,0,42.1,1.913,46.328-7.275A24.6,24.6,0,0,0,361.7,288.2Z" transform="translate(-254.534 -288.177)" fill="#7e57c2"/>
        <path id="Trazado_125920" data-name="Trazado 125920" d="M338.153,288.207s-45,3.053-43.89,18.75c1.207,17.19,19.23,57.053,19.23,57.053h9.067s-6-36.165-8.76-53.685c12.69,0,42.1,1.913,46.328-7.275A24.6,24.6,0,0,0,361.7,288.2Z" transform="translate(-254.534 -288.177)" opacity="0.5" style="isolation: isolate"/>
      </g>
      <path id="Trazado_125921" data-name="Trazado 125921" d="M360.1,200.16c1.035,4,1.358,9-4.237,11.063-1.553,2.475-2.31,5.085,3.667,4.155a18.4,18.4,0,0,0,12.068-6.825c-3.578-3.135-2.925-12.75-2.018-18.173Z" transform="translate(-269.663 -172.583)" fill="#ffc3bd"/>
      <path id="Trazado_125922" data-name="Trazado 125922" d="M355.143,213.14c-5.137.878-9.36,4.853-11.625,9.54s-2.812,10.027-2.768,15.24.638,10.4.495,15.608c-.158,6-1.605,10.252-3.675,15.908,0,1.342,2.032,2.1,3.75,2.452,3.585-7.823,5.94-15.308,5.693-23.9-.187-6.24-.27-13.35.75-19.5s8.377-14.183,8.025-15.292Z" transform="translate(-265.366 -178.273)" fill="#263238"/>
      <path id="Trazado_125923" data-name="Trazado 125923" d="M366.365,204.975a4.988,4.988,0,0,1-3.795.915,17.26,17.26,0,0,0-.21-2.91l6.21-5.1a14.059,14.059,0,0,1,.262,2.01A5.694,5.694,0,0,1,366.365,204.975Z" transform="translate(-271.563 -174.458)" opacity="0.3" style="isolation: isolate"/>
      <path id="Trazado_125924" data-name="Trazado 125924" d="M353.4,171.39c-6.563,3.712-6.63,14.2-4.605,20.25a9.09,9.09,0,0,0,15.923,2.67c3.21-4.057,2.745-8.153,2.587-15.2S359.965,167.685,353.4,171.39Z" transform="translate(-267.879 -167.498)" fill="#ffc3bd"/>
      <path id="Trazado_125925" data-name="Trazado 125925" d="M355.95,194.48c-2.115.908-4.432,2.085-6.57,1.83a9.083,9.083,0,0,0,15.75,2.25c2.647-3.33,3.465-5.58,2.715-11.64C363.735,191.735,360.473,192.53,355.95,194.48Z" transform="translate(-268.318 -171.718)" opacity="0.2" style="isolation: isolate"/>
      <path id="Trazado_125926" data-name="Trazado 125926" d="M366.3,174.062a6,6,0,0,0,.668,7.178c.592.622,1.32,1.1,1.89,1.74a5.133,5.133,0,0,1,1.29,3.645,3.75,3.75,0,0,1,3.563-3.172q-1.335,4.132-2.67,8.25a11.415,11.415,0,0,0,6.51-9C378.123,177.377,371.553,165.97,366.3,174.062Z" transform="translate(-272.327 -167.8)" fill="#263238"/>
      <path id="Trazado_125927" data-name="Trazado 125927" d="M345.815,173.28a4.6,4.6,0,0,0-1.042,1.957,1.814,1.814,0,0,0,.75,1.935,2.74,2.74,0,0,0,1.785.09l6-1.043c3.435-.6,6.87-1.192,10.26-2.01,1.5-.36,3.233-.937,3.832-2.378,1.942-4.687-6.353-5.295-9.127-5.167A18,18,0,0,0,345.815,173.28Z" transform="translate(-267.153 -166.65)" fill="#263238"/>
      <path id="Trazado_125928" data-name="Trazado 125928" d="M374.362,185.9c-1.965.443-2.805,3.27-2.753,5.085,0,2.063,1.5,3.4,3.24,2.16a6.354,6.354,0,0,0,2.46-3.96C377.662,187.24,376.334,185.455,374.362,185.9Z" transform="translate(-273.875 -171.445)" fill="#ffc3bd"/>
      <path id="Trazado_125929" data-name="Trazado 125929" d="M356.088,194.175a2.436,2.436,0,0,1-2.047.308c.75-1.7.66-1.312.892-4.193Z" transform="translate(-269.483 -172.56)" fill="#ed847e"/>
      <path id="Trazado_125930" data-name="Trazado 125930" d="M360.279,182.514a4,4,0,0,0-2.932-.75h0a.33.33,0,0,1-.367-.27.36.36,0,0,1,.285-.4,4.59,4.59,0,0,1,3.51.945h0a.337.337,0,0,1,0,.473.4.4,0,0,1-.15.1A.33.33,0,0,1,360.279,182.514Z" transform="translate(-270.217 -170.252)" fill="#263238"/>
      <path id="Trazado_125931" data-name="Trazado 125931" d="M348.393,184.132h0a.33.33,0,0,1-.09-.45,3.489,3.489,0,0,1,2.572-1.763h0a.308.308,0,0,1,.315.3v.008a.352.352,0,0,1-.323.368,2.826,2.826,0,0,0-2.025,1.417.338.338,0,0,1-.27.172A.263.263,0,0,1,348.393,184.132Z" transform="translate(-268.036 -170.468)" fill="#263238"/>
      <path id="Trazado_125932" data-name="Trazado 125932" d="M356,198.485a28.256,28.256,0,0,1,1.987,2.88l.465-.2c2.115-.915,2.715-2.19,2.745-3.322a4.815,4.815,0,0,0-.8-2.527,9.092,9.092,0,0,1-3.682,2.835C356.27,198.372,356,198.485,356,198.485Z" transform="translate(-269.973 -173.818)" fill="#2e353a"/>
      <path id="Trazado_125933" data-name="Trazado 125933" d="M356.93,198.155l.307.42a.63.63,0,0,0,.75.2,6.119,6.119,0,0,0,3-2.348.606.606,0,0,0,0-.51,4.714,4.714,0,0,0-.345-.6A9.428,9.428,0,0,1,356.93,198.155Z" transform="translate(-270.206 -173.818)" fill="#fff"/>
      <path id="Trazado_125934" data-name="Trazado 125934" d="M359.25,202.013c2.115-.915,2.715-2.19,2.745-3.323a6.14,6.14,0,0,0-2.092,1.583A3,3,0,0,0,359.25,202.013Z" transform="translate(-270.786 -174.66)" fill="#de5753"/>
      <path id="Trazado_125935" data-name="Trazado 125935" d="M351.486,188c-.367.067-.57.592-.465,1.155s.5.967.87.892.57-.585.465-1.147A1,1,0,0,0,351.486,188Z" transform="translate(-268.721 -171.988)" fill="#263238"/>
      <path id="Trazado_125936" data-name="Trazado 125936" d="M360.066,186.618c-.367.068-.57.585-.465,1.155s.5.967.87.892.57-.592.465-1.155S360.433,186.55,360.066,186.618Z" transform="translate(-270.866 -171.64)" fill="#263238"/>
      <path id="Trazado_125937" data-name="Trazado 125937" d="M347.87,191.705l4.733-1.065.082,2.01-4.4,1.05Z" transform="translate(-267.941 -172.648)" fill="#fff" opacity="0.9" style="isolation: isolate"/>
      <g id="Grupo_59734" data-name="Grupo 59734" transform="translate(86.102 16.087)" opacity="0.8">
        <path id="Trazado_125938" data-name="Trazado 125938" d="M356.1,189.69l.563,1.845,6.075-1.305-.36-2.13Z" transform="translate(-356.1 -188.1)" fill="#fff" opacity="0.9" style="isolation: isolate"/>
      </g>
      <path id="Trazado_125939" data-name="Trazado 125939" d="M354.21,191.278l-.03-.743,1.44-.315.21.7Z" transform="translate(-269.518 -172.543)" fill="#263238"/>
      <path id="Trazado_125940" data-name="Trazado 125940" d="M351.92,272.936s8.542,3.308,10.5,3.952a24.53,24.53,0,0,0,7.027,1.613,8.625,8.625,0,0,0,6.652-2.482c2.04-2.175,2.678-5.475,3.21-8.573q2.34-13.643,4.7-27.285c.75-4.5,2.722-11.25,2.557-13.793-.307-4.725-3.315-10.305-10.972-13.372-3-1.193-5.918-.75-8.423,2.25-1.5,1.785-5.865,6.09-6.937,13.672-.855,6.075-2.19,13.943-2.108,20.115C358.22,257.148,354.98,267.378,351.92,272.936Z" transform="translate(-268.953 -178.083)" fill="#263238"/>
      <path id="Trazado_125941" data-name="Trazado 125941" d="M384.3,226.486c.87,7.905-3.5,27.833-4.342,29.033-3.585,11.557-13.432,5.325-14.857,4.792-2.483-.915-5.01-2.707-7.373-3.9-4.582-2.25-8.925-4.11-13.185-6.937l2.4-4.74c4.673,1.59,17.9,5.01,20.078,5.543.945.247,4.628,2.175,4.59-.368.518-.848,1.238-17.355,2.82-23.19a4.918,4.918,0,0,1,.922-1.792l.143-.18a5.055,5.055,0,0,1,8.8,1.74Z" transform="translate(-267.108 -180.698)" fill="#263238"/>
      <path id="Trazado_125942" data-name="Trazado 125942" d="M384.3,226.486c.87,7.905-3.5,27.833-4.342,29.033-3.585,11.557-13.432,5.325-14.857,4.792-2.483-.915-5.01-2.707-7.373-3.9-4.582-2.25-8.925-4.11-13.185-6.937l2.4-4.74c4.673,1.59,17.9,5.01,20.078,5.543.945.247,4.628,2.175,4.59-.368.518-.848,1.238-17.355,2.82-23.19a4.918,4.918,0,0,1,.922-1.792l.143-.18a5.055,5.055,0,0,1,8.8,1.74Z" transform="translate(-267.108 -180.698)" fill="#fff" opacity="0.1" style="isolation: isolate"/>
      <path id="Trazado_125943" data-name="Trazado 125943" d="M337,257.845H314.8L312.26,228.88h22.2Z" transform="translate(-259.038 -182.208)" fill="#263238"/>
      <path id="Trazado_125944" data-name="Trazado 125944" d="M337,257.845H314.8L312.26,228.88h22.2Z" transform="translate(-259.038 -182.208)" fill="#fff" opacity="0.5" style="isolation: isolate"/>
      <path id="Trazado_125945" data-name="Trazado 125945" d="M335.945,257.655h-22.2L311.21,228.69h22.2Z" transform="translate(-258.776 -182.16)" fill="#7e57c2"/>
      <path id="Trazado_125946" data-name="Trazado 125946" d="M335.945,257.655h-22.2L311.21,228.69h22.2Z" transform="translate(-258.776 -182.16)" fill="#fff" opacity="0.8" style="isolation: isolate"/>
      <path id="Trazado_125947" data-name="Trazado 125947" d="M329.233,229.893H319.9l-.315-3.623h9.33Z" transform="translate(-260.868 -181.555)" fill="#7e57c2"/>
      <path id="Trazado_125948" data-name="Trazado 125948" d="M319.58,226.165l.915-.315h9.668l.135,1.537-.72.833-.045,1.26-.3.308-.323-3.622Z" transform="translate(-260.868 -181.45)" fill="#7e57c2"/>
      <path id="Trazado_125949" data-name="Trazado 125949" d="M319.58,226.165l.915-.315h9.668l.135,1.537-.72.833-.045,1.26-.3.308-.323-3.622Z" transform="translate(-260.868 -181.45)" opacity="0.5" style="isolation: isolate"/>
      <path id="Trazado_125950" data-name="Trazado 125950" d="M347.575,253.123l.5,2.708c-1.2,3.127-8.077,2.3-8.077,2.3v-8l6.068,1.41A2.023,2.023,0,0,1,347.575,253.123Z" transform="translate(-265.973 -187.52)" fill="#ffc3bd"/>
      <path id="Trazado_125951" data-name="Trazado 125951" d="M337.5,250.13l.03,8.018-6.09.15-1.395-7.05Z" transform="translate(-263.483 -187.52)" fill="#ffc3bd"/>
      <path id="Trazado_125952" data-name="Trazado 125952" d="M370.467,321.272l2.317-33.75c.33-4.77,2.655-8.745,5.88-10.627a12.745,12.745,0,0,1,7.133-2.768,7.388,7.388,0,0,1,.825-.038,12.467,12.467,0,0,1,6,1.5,1.172,1.172,0,0,1,.165.09,14.134,14.134,0,0,1,4.77,4.328h0a16.228,16.228,0,0,1,2.85,9.255c0,7.5-4.943,13.747-11.43,15l-2.512,36.51c-.218,3.1-2.25,5.49-4.71,5.49H369.17Z" transform="translate(-273.266 -193.51)" fill="#7e57c2"/>
      <path id="Trazado_125953" data-name="Trazado 125953" d="M370.467,321.272l2.317-33.75c.33-4.77,2.655-8.745,5.88-10.627a12.745,12.745,0,0,1,7.133-2.768,7.388,7.388,0,0,1,.825-.038,12.467,12.467,0,0,1,6,1.5,1.172,1.172,0,0,1,.165.09,14.134,14.134,0,0,1,4.77,4.328h0a16.228,16.228,0,0,1,2.85,9.255c0,7.5-4.943,13.747-11.43,15l-2.512,36.51c-.218,3.1-2.25,5.49-4.71,5.49H369.17Z" transform="translate(-273.266 -193.51)" fill="#fff" opacity="0.1" style="isolation: isolate"/>
    </g>
    <g id="freepik--text-balloon--inject-3" transform="translate(104.25 96.482)">
      <path id="Trazado_125954" data-name="Trazado 125954" d="M200,126.617v31.357a3,3,0,0,1-3,3H164.887l-11.475,8.873a2.19,2.19,0,0,1-3.51-1.755v-7.117H148.11a3,3,0,0,1-3-3V126.61a2.955,2.955,0,0,1,2.97-2.94h48.975A2.948,2.948,0,0,1,200,126.617Z" transform="translate(-140.527 -113.65)" fill="none" stroke="#7e57c2" stroke-miterlimit="10" stroke-width="1"/>
      <rect id="Rectángulo_32412" data-name="Rectángulo 32412" width="6.127" height="0.75" transform="translate(23.272 5.603)" fill="#7e57c2"/>
      <path id="Trazado_125955" data-name="Trazado 125955" d="M139.75,126.612H139v-3.7a5.153,5.153,0,0,1,5.152-5.145h13.673v.75H144.138a4.41,4.41,0,0,0-4.4,4.4Z" transform="translate(-139 -112.175)" fill="#7e57c2"/>
      <path id="Trazado_125956" data-name="Trazado 125956" d="M195.664,143.3a2.362,2.362,0,0,1-2.376-2.349c0-.062,0-.124.006-.186h0c.8-9.142,8.048-9.982,8.955-20.377.262-3-.833-4.125-2.925-4.125s-3.382,1.132-3.645,4.125l-.15,1.71a3.1,3.1,0,0,1-3.09,2.827h0a3.1,3.1,0,0,1-3.095-3.1c0-.089,0-.178.012-.267l.067-.75c.585-6.69,4.208-10.5,10.605-10.5s9.345,3.825,8.76,10.5c-.953,10.837-8.865,12.517-9.54,20.16a.566.566,0,0,1,0,.113,2.385,2.385,0,0,1-2.37,2.25Zm3.247,6.36h0a3.15,3.15,0,0,1-3.143,2.88h0a3.15,3.15,0,0,1-3.155-3.146c0-.094,0-.188.012-.282h0a3.15,3.15,0,0,1,3.15-2.88h0a3.157,3.157,0,0,1,3.146,3.169Q198.922,149.533,198.911,149.663Z" transform="translate(-151.586 -110.31)" fill="#7e57c2"/>
      <path id="Trazado_125957" data-name="Trazado 125957" d="M180.25,143.51H163a1.5,1.5,0,1,1,0-3h17.25a1.5,1.5,0,1,1,0,3Z" transform="translate(-144.625 -117.86)" fill="#7e57c2"/>
      <path id="Trazado_125958" data-name="Trazado 125958" d="M177.875,151.43H163.04a1.5,1.5,0,0,1,0-3h14.835a1.5,1.5,0,1,1,0,3Z" transform="translate(-144.635 -119.84)" fill="#7e57c2"/>
      <path id="Trazado_125959" data-name="Trazado 125959" d="M175.49,159.34H163.04a1.5,1.5,0,1,1,0-3h12.45a1.5,1.5,0,1,1,0,3Z" transform="translate(-144.635 -121.818)" fill="#7e57c2"/>
    </g>
    <g id="freepik--character-1--inject-3" transform="translate(34.125 152.1)">
      <path id="Trazado_125960" data-name="Trazado 125960" d="M127.817,323.51H116.86c-2.67,0-4.83,1.688-4.83,3.75v6.48c0,2.085,2.16,3.75,4.83,3.75h10.957Z" transform="translate(-62.132 -219.227)" fill="#7e57c2"/>
      <path id="Trazado_125961" data-name="Trazado 125961" d="M63.884,330.13l-3.81-60.645A39.112,39.112,0,0,1,96.657,228q1.226-.078,2.455-.077h0a39.12,39.12,0,0,1,39.06,36.915l3.99,70.83H69.749A5.9,5.9,0,0,1,63.884,330.13Z" transform="translate(-49.124 -195.33)" fill="#7e57c2"/>
      <path id="Trazado_125962" data-name="Trazado 125962" d="M63.749,327.932l-3.675-58.447A39.112,39.112,0,0,1,96.657,228q1.226-.078,2.455-.077h0a39.12,39.12,0,0,1,39.06,36.915l3.99,70.83H72A8.25,8.25,0,0,1,63.749,327.932Z" transform="translate(-49.124 -195.33)" opacity="0.1" style="isolation: isolate"/>
      <path id="Trazado_125963" data-name="Trazado 125963" d="M79.429,335.665l-4.155-66.18A39.112,39.112,0,0,1,111.857,228q1.23-.078,2.462-.077h0a39.12,39.12,0,0,1,39.052,36.915l4,70.83Z" transform="translate(-52.924 -195.33)" fill="#7e57c2"/>
      <path id="Trazado_125964" data-name="Trazado 125964" d="M77.99,382.973h-1a1.155,1.155,0,0,1-1.073-1.02l-1.5-10.373H80.5L79,381.953A1.14,1.14,0,0,1,77.99,382.973Z" transform="translate(-52.73 -231.245)" fill="#7e57c2"/>
      <path id="Trazado_125965" data-name="Trazado 125965" d="M77.99,382.973h-1a1.155,1.155,0,0,1-1.073-1.02l-1.5-10.373H80.5L79,381.953A1.14,1.14,0,0,1,77.99,382.973Z" transform="translate(-52.73 -231.245)" fill="#fff" opacity="0.7" style="isolation: isolate"/>
      <path id="Trazado_125966" data-name="Trazado 125966" d="M208.76,382.973h-.908a1.087,1.087,0,0,1-.967-1.02L205.55,371.58h5.512l-1.335,10.373A1.087,1.087,0,0,1,208.76,382.973Z" transform="translate(-85.512 -231.245)" fill="#7e57c2"/>
      <path id="Trazado_125967" data-name="Trazado 125967" d="M208.76,382.973h-.908a1.087,1.087,0,0,1-.967-1.02L205.55,371.58h5.512l-1.335,10.373A1.087,1.087,0,0,1,208.76,382.973Z" transform="translate(-85.512 -231.245)" fill="#fff" opacity="0.5" style="isolation: isolate"/>
      <path id="Trazado_125968" data-name="Trazado 125968" d="M171.145,382.973h-.915a1.087,1.087,0,0,1-.967-1.02L167.92,371.58h5.52L172.1,381.953A1.094,1.094,0,0,1,171.145,382.973Z" transform="translate(-76.105 -231.245)" fill="#7e57c2"/>
      <path id="Trazado_125969" data-name="Trazado 125969" d="M171.145,382.973h-.915a1.087,1.087,0,0,1-.967-1.02L167.92,371.58h5.52L172.1,381.953A1.094,1.094,0,0,1,171.145,382.973Z" transform="translate(-76.105 -231.245)" fill="#fff" opacity="0.7" style="isolation: isolate"/>
      <path id="Trazado_125970" data-name="Trazado 125970" d="M118.49,382.973h-1a1.148,1.148,0,0,1-1.073-1.02l-1.5-10.373H121l-1.5,10.373A1.14,1.14,0,0,1,118.49,382.973Z" transform="translate(-62.855 -231.245)" fill="#7e57c2"/>
      <path id="Trazado_125971" data-name="Trazado 125971" d="M118.49,382.973h-1a1.148,1.148,0,0,1-1.073-1.02l-1.5-10.373H121l-1.5,10.373A1.14,1.14,0,0,1,118.49,382.973Z" transform="translate(-62.855 -231.245)" fill="#fff" opacity="0.5" style="isolation: isolate"/>
      <path id="Trazado_125972" data-name="Trazado 125972" d="M163.71,322.535h26.67l1.762-25.687.375-5.52h0l.18-2.543a17.2,17.2,0,0,1,.255-1.987,2.269,2.269,0,0,1,.1-.435,1.543,1.543,0,0,1,.083-.322,15.363,15.363,0,0,1,4.058-6.9,13.088,13.088,0,0,1,8.325-3.75H179.6a13.053,13.053,0,0,0-9.09,3.75,15.363,15.363,0,0,0-4.057,6.9,1.543,1.543,0,0,0-.082.322,16.806,16.806,0,0,0-.353,2.423l-.173,2.543h0Z" transform="translate(-75.052 -207.197)" fill="#7e57c2"/>
      <path id="Trazado_125973" data-name="Trazado 125973" d="M163.71,322.535h26.67l1.762-25.687.375-5.52h0l.18-2.543a17.2,17.2,0,0,1,.255-1.987,2.269,2.269,0,0,1,.1-.435,1.543,1.543,0,0,1,.083-.322,15.363,15.363,0,0,1,4.058-6.9,13.088,13.088,0,0,1,8.325-3.75H179.6a13.053,13.053,0,0,0-9.09,3.75,15.363,15.363,0,0,0-4.057,6.9,1.543,1.543,0,0,0-.082.322,16.806,16.806,0,0,0-.353,2.423l-.173,2.543h0Z" transform="translate(-75.052 -207.197)" opacity="0.1" style="isolation: isolate"/>
      <g id="Grupo_59735" data-name="Grupo 59735" transform="translate(52.095 101.65)" opacity="0.1">
        <path id="Trazado_125974" data-name="Trazado 125974" d="M130.387,320H119.67c-2.6,0-4.71,1.65-4.71,3.682v6.337c0,2.033,2.107,3.683,4.71,3.683h10.717Z" transform="translate(-114.96 -320)"/>
      </g>
      <rect id="Rectángulo_32413" data-name="Rectángulo 32413" width="55.305" height="13.702" rx="5.42" transform="translate(60.015 101.643)" fill="#7e57c2"/>
      <path id="Trazado_125975" data-name="Trazado 125975" d="M45.5,290.508a15.2,15.2,0,0,0,12.608,15l2.768,36.518c.24,3.1,2.49,5.49,5.19,5.49H95.487c-2.7,0-4.95-2.385-5.19-5.49l-1.5-19.5-1.29-17.033a15.189,15.189,0,0,1-10.882-8c-.143-.27-.27-.548-.39-.825a14.931,14.931,0,0,1-1.312-6.158,15.107,15.107,0,0,1,.322-3.105c.082-.4.188-.81.293-1.2a15.543,15.543,0,0,1,2.527-4.95h0a15.252,15.252,0,0,1,5.25-4.327,15.059,15.059,0,0,1,6.75-1.605H60.695a15.224,15.224,0,0,0-12.053,5.932h0A15.159,15.159,0,0,0,45.5,290.508Z" transform="translate(-45.5 -207.18)" fill="#7e57c2"/>
      <path id="Trazado_125976" data-name="Trazado 125976" d="M45.5,290.508a15.2,15.2,0,0,0,12.608,15l2.768,36.518c.24,3.1,2.49,5.49,5.19,5.49H95.487c-2.7,0-4.95-2.385-5.19-5.49l-1.5-19.5-1.29-17.033a15.189,15.189,0,0,1-10.882-8c-.143-.27-.27-.548-.39-.825a14.931,14.931,0,0,1-1.312-6.158,15.107,15.107,0,0,1,.322-3.105c.082-.4.188-.81.293-1.2a15.543,15.543,0,0,1,2.527-4.95h0a15.252,15.252,0,0,1,5.25-4.327,15.059,15.059,0,0,1,6.75-1.605H60.695a15.224,15.224,0,0,0-12.053,5.932h0A15.159,15.159,0,0,0,45.5,290.508Z" transform="translate(-45.5 -207.18)" opacity="0.1" style="isolation: isolate"/>
      <path id="Trazado_125977" data-name="Trazado 125977" d="M84.72,290.515c0,7.5,4.943,13.755,11.43,15l2.505,36.547c.217,3.113,2.25,5.49,4.71,5.49H181.92c2.445,0,4.5-2.377,4.71-5.49l2.512-36.6c6.352-1.335,11.16-7.5,11.16-14.918a16.174,16.174,0,0,0-2.535-8.783,14.3,14.3,0,0,0-5.085-4.808,12.63,12.63,0,0,0-6.15-1.6,13.036,13.036,0,0,0-9.09,3.75,15.4,15.4,0,0,0-4.065,6.9,2.264,2.264,0,0,0-.075.323,15.807,15.807,0,0,0-.352,2.423l-.18,2.542h0l-2.137,31.23h-55.98l-2.317-33.75c-.338-4.77-2.655-8.745-5.88-10.627a12.851,12.851,0,0,0-7.132-2.767H98.5a12.475,12.475,0,0,0-6,1.5.891.891,0,0,0-.173.082,14.352,14.352,0,0,0-4.77,4.328h0A16.169,16.169,0,0,0,84.72,290.515Z" transform="translate(-55.305 -207.187)" fill="#7e57c2"/>
      <path id="Trazado_125978" data-name="Trazado 125978" d="M125.92,347.513h66c2.445,0,4.5-2.377,4.71-5.49l2.512-36.6c6.353-1.335,11.16-7.5,11.16-14.918a16.174,16.174,0,0,0-2.535-8.783,14.3,14.3,0,0,0-5.085-4.807,12.63,12.63,0,0,0-6.15-1.605,13.036,13.036,0,0,0-9.09,3.75,15.4,15.4,0,0,0-4.065,6.9,2.261,2.261,0,0,0-.075.323,15.808,15.808,0,0,0-.352,2.423l-.18,2.542h0l-2.137,31.23h-56Z" transform="translate(-65.282 -207.177)" fill="#fff" opacity="0.1" style="isolation: isolate"/>
      <path id="Trazado_125979" data-name="Trazado 125979" d="M153.13,383.777l6.4,1.77,5.745-15.038-6.4-1.77Z" transform="translate(-72.407 -230.535)" fill="#ffc3bd"/>
      <path id="Trazado_125980" data-name="Trazado 125980" d="M161.657,387.639a3.337,3.337,0,0,0-2.048-1.245l-6.562-1.282a.608.608,0,0,0-.75.4l-2.033,6a1.312,1.312,0,0,0,.8,1.677l.007,0h.045c2.43.96,4.073.63,7.867,1.365,2.347.45,7.26,2.01,10.545,1.875s3.277-3.383,1.9-3.622A16.778,16.778,0,0,1,161.657,387.639Z" transform="translate(-71.672 -234.622)" fill="#263238"/>
      <g id="Grupo_59736" data-name="Grupo 59736" transform="translate(83.505 138.205)" opacity="0.2">
        <path id="Trazado_125981" data-name="Trazado 125981" d="M166.2,370.518l-2.963,7.755-6.4-1.785,2.955-7.747Z" transform="translate(-156.84 -368.74)"/>
      </g>
      <path id="Trazado_125982" data-name="Trazado 125982" d="M134.6,292.958s38.52-.21,37.32,12.69c-.81,8.715-5,17.872-8.25,26.715-4.732,12.818-8.835,24-8.835,24l-8.775-3.038s7.882-37.065,13.193-40.86H126.676c-10.778,0-15.435-11.835-4.943-25.635C128.146,286.853,134.6,292.958,134.6,292.958Z" transform="translate(-63.084 -210.057)" fill="#7e57c2"/>
      <path id="Trazado_125983" data-name="Trazado 125983" d="M134.6,292.953s38.52-.21,37.32,12.69c.592,8.017-17.093,50.7-17.093,50.7l-8.775-3.038s7.883-37.065,13.193-40.86H126.676c-10.778,0-15.435-11.835-4.943-25.635C128.146,286.848,134.6,292.953,134.6,292.953Z" transform="translate(-63.084 -210.052)" opacity="0.6" style="isolation: isolate"/>
      <path id="Trazado_125984" data-name="Trazado 125984" d="M167.831,255.537c-4.74,4.328-14.048-5.917-15.548-7.132-3.21-2.625-12.645-11.43-12.15-14.49,1.5-9,16.26,3.75,20.527,12.54Z" transform="translate(-69.154 -196.059)" fill="#263238"/>
      <path id="Trazado_125985" data-name="Trazado 125985" d="M118.654,227.543c-2.378.5-4.95-.353-6.622,1.41a11.124,11.124,0,0,0-2.61,6.653,44.22,44.22,0,0,0,.525,10.095q.75,6.1,1.567,12.188a36.24,36.24,0,0,1-.382,10.028h0a1.612,1.612,0,0,0,.915,1.747s18.442.63,23.805.428c2.85-.105.893-7.605,1.77-12,.195-.975,2.1-4.98,2.385-6,1.32-4.837.443-8.167-.75-13.027-.893-3.533-1.26-8.625-3.06-9C132.956,229.4,125.269,226.133,118.654,227.543Z" transform="translate(-61.459 -195.148)" fill="#7e57c2"/>
      <path id="Trazado_125986" data-name="Trazado 125986" d="M118.654,227.543c-2.378.5-4.95-.353-6.622,1.41a11.124,11.124,0,0,0-2.61,6.653,44.22,44.22,0,0,0,.525,10.095q.75,6.1,1.567,12.188a36.24,36.24,0,0,1-.382,10.028h0a1.612,1.612,0,0,0,.915,1.747s18.442.63,23.805.428c2.85-.105.893-7.605,1.77-12,.195-.975,2.1-4.98,2.385-6,1.32-4.837.443-8.167-.75-13.027-.893-3.533-1.26-8.625-3.06-9C132.956,229.4,125.269,226.133,118.654,227.543Z" transform="translate(-61.459 -195.148)" fill="#fff" opacity="0.8" style="isolation: isolate"/>
      <path id="Trazado_125987" data-name="Trazado 125987" d="M115.463,231.43c-.248-.375-6.75-5.835-7.913.473-1.642,8.782,1.755,17.423,1.755,17.423s.75,9.5,3.54,10.455,5.385,1.185,6.315-.442a9.653,9.653,0,0,0,.93-4.058S119.776,237.97,115.463,231.43Z" transform="translate(-60.9 -195.569)" fill="#263238"/>
      <path id="Trazado_125988" data-name="Trazado 125988" d="M123.688,211.59c.667,4.042,1.23,11.43-1.658,14.033a37.926,37.926,0,0,1,11.693,10.147,6.112,6.112,0,0,0,2.145-6.825,5.956,5.956,0,0,0-3-3.585c-2.737-1.5-2.475-4.335-1.725-6.99Z" transform="translate(-64.632 -191.247)" fill="#e8bfbf"/>
      <path id="Trazado_125989" data-name="Trazado 125989" d="M125.47,220.74l2.632,1.012a8.63,8.63,0,0,0,3.54.57h0a5.648,5.648,0,0,0,0,2.5,5.055,5.055,0,0,1-5.25-1.68A8.7,8.7,0,0,1,125.47,220.74Z" transform="translate(-65.492 -193.535)" opacity="0.2" style="isolation: isolate"/>
      <path id="Trazado_125990" data-name="Trazado 125990" d="M210.868,365.558h7.17L210.53,347.58l-4.86,8.25Z" transform="translate(-85.542 -225.245)" fill="#ffc3bd"/>
      <path id="Trazado_125991" data-name="Trazado 125991" d="M217.533,368.637l-8.407-1.913a.593.593,0,0,0-.705.383l-2.348,6.465a1.29,1.29,0,0,0,.882,1.6h0c2.948.615,4.395.75,8.092,1.6,2.25.517,8.04,2.033,11.182,2.745s3.967-2.363,2.715-2.948c-5.61-2.6-8.647-5.078-10.275-7.193A2.024,2.024,0,0,0,217.533,368.637Z" transform="translate(-85.631 -230.026)" fill="#263238"/>
      <g id="Grupo_59737" data-name="Grupo 59737" transform="translate(120.128 122.335)" opacity="0.2">
        <path id="Trazado_125992" data-name="Trazado 125992" d="M210.53,347.58l3.2,7.658-6.45,3.6-1.6-3Z" transform="translate(-205.67 -347.58)"/>
      </g>
      <path id="Trazado_125993" data-name="Trazado 125993" d="M111.282,283.863l-.75,2.445c-.1.187.12.383.435.4l27.75.84c.255,0,.458-.1.48-.262l.323-2.46c0-.165-.2-.315-.458-.33l-27.3-.825A.5.5,0,0,0,111.282,283.863Z" transform="translate(-61.752 -209.265)" fill="#263238"/>
      <path id="Trazado_125994" data-name="Trazado 125994" d="M144.849,303.314c-9.128,3.893-19.028,7.777-24.413,7.777-10.785,0-20.363-7.785-10.155-25.5,6.42,0,17.573.18,17.573.18s21-6,36.285-4.23A17.249,17.249,0,0,1,179.056,295.3c3.87,19.5,9.833,40.59,9.833,40.59l-7.673,5.25S169.254,316,162.369,296.054C158.724,297.2,152.026,300.254,144.849,303.314Z" transform="translate(-60.609 -208.653)" fill="#7e57c2"/>
      <path id="Trazado_125995" data-name="Trazado 125995" d="M179.032,295.3a17.25,17.25,0,0,0-14.918-13.777c-15.255-1.74-36.285,4.23-36.285,4.23s-11.152-.2-17.572-.18c-10.373,17.64-.63,25.5,10.155,25.5,5.385,0,15.285-3.885,24.413-7.777,7.177-3.06,13.875-6.112,17.52-7.283,6.885,19.965,18.848,45.12,18.848,45.12l7.673-5.25S182.9,314.8,179.032,295.3Z" transform="translate(-60.584 -208.651)" opacity="0.5" style="isolation: isolate"/>
      <path id="Trazado_125996" data-name="Trazado 125996" d="M188.262,309.253a71.762,71.762,0,0,1-1.125,7.462c-.038-.083-.068-.158-.1-.24s0-.038,0-.06a1.307,1.307,0,0,0-.1-.24c-2.04-5.07-4.035-10.267-5.723-15.165h.052C185.637,302.863,188.615,305.5,188.262,309.253Z" transform="translate(-79.43 -213.602)" fill="#7e57c2"/>
      <path id="Trazado_125997" data-name="Trazado 125997" d="M188.262,309.253a71.762,71.762,0,0,1-1.125,7.462c-.038-.083-.068-.158-.1-.24s0-.038,0-.06a1.307,1.307,0,0,0-.1-.24c-2.04-5.07-4.035-10.267-5.723-15.165h.052C185.637,302.863,188.615,305.5,188.262,309.253Z" transform="translate(-79.43 -213.602)" opacity="0.6" style="isolation: isolate"/>
      <path id="Trazado_125998" data-name="Trazado 125998" d="M117.491,202.283c2.25,6.337,3.075,9.067,7.29,11.445,6.352,3.585,13.627-.585,13.312-7.5-.285-6.187-3.923-15.518-10.972-16.268a9.172,9.172,0,0,0-9.63,12.292Z" transform="translate(-63.356 -185.825)" fill="#e8bfbf"/>
      <path id="Trazado_125999" data-name="Trazado 125999" d="M132.85,204.924c.158.548.555.87.9.75s.48-.6.345-1.133-.548-.87-.9-.75S132.7,204.4,132.85,204.924Z" transform="translate(-67.323 -189.292)" fill="#263238"/>
      <path id="Trazado_126000" data-name="Trazado 126000" d="M140.7,202.444c.157.555.555.877.9.75s.48-.6.345-1.133-.555-.87-.893-.75A.9.9,0,0,0,140.7,202.444Z" transform="translate(-69.286 -188.672)" fill="#263238"/>
      <path id="Trazado_126001" data-name="Trazado 126001" d="M141,201.18l1.155-.75S141.787,201.608,141,201.18Z" transform="translate(-69.375 -188.457)" fill="#263238"/>
      <path id="Trazado_126002" data-name="Trazado 126002" d="M137.91,204.43a14.634,14.634,0,0,0,2.835,2.82,2.324,2.324,0,0,1-1.777.862Z" transform="translate(-68.602 -189.457)" fill="#ed847e"/>
      <path id="Trazado_126003" data-name="Trazado 126003" d="M111.12,208.674a19.062,19.062,0,0,1,1.042,3.533,4.9,4.9,0,0,1-4.163,5.1,4.7,4.7,0,0,0,5.423-2.452,6.4,6.4,0,0,1-3.173,3.495,6.8,6.8,0,0,0,5.438-2.618c-.353.915-.75,1.823-1.065,2.738a11.756,11.756,0,0,0,4.238-4.44,2.253,2.253,0,0,0,.172-2.385c-.525-.66-1.357-.615-2.122-.63s-1.687-.195-1.965-.907a1.825,1.825,0,0,1,.787-1.912,3.9,3.9,0,0,0,1.425-1.65,3.105,3.105,0,0,0-.105-1.545q-.518-2.07-1.02-4.147a4.3,4.3,0,0,0-.518-1.388c-1.5-2.25-3.172,1.05-3.75,2.168A9.833,9.833,0,0,0,111.12,208.674Z" transform="translate(-61.125 -188.024)" fill="#263238"/>
      <path id="Trazado_126004" data-name="Trazado 126004" d="M116.9,213.383a5.3,5.3,0,0,0,3.48,2.018c1.837.225,2.482-1.5,1.747-3.068-.668-1.44-2.423-3.277-4.155-2.79A2.368,2.368,0,0,0,116.9,213.383Z" transform="translate(-63.207 -190.715)" fill="#e8bfbf"/>
      <path id="Trazado_126005" data-name="Trazado 126005" d="M131.9,199.141a.352.352,0,0,1-.277.285,4,4,0,0,0-2.37,2.108.345.345,0,0,1-.45.173.337.337,0,0,1-.165-.443c.068-.068,1-2.145,2.858-2.505a.345.345,0,0,1,.39.27A.2.2,0,0,1,131.9,199.141Z" transform="translate(-66.278 -188.038)" fill="#263238"/>
      <path id="Trazado_126006" data-name="Trazado 126006" d="M138.162,197.269a.367.367,0,0,0-.285.075c-.083.09-.36.247-.2.33.915.465,2.182,1.23,3.158,1.073.165,0,.555-.173.473-.292a.481.481,0,0,0-.45-.143c-.75.1-1.807-.623-2.527-1A.689.689,0,0,0,138.162,197.269Z" transform="translate(-68.532 -187.666)" fill="#263238"/>
      <path id="Trazado_126007" data-name="Trazado 126007" d="M133.14,203.65l1.163-.75S133.935,204.092,133.14,203.65Z" transform="translate(-67.41 -189.075)" fill="#263238"/>
      <path id="Trazado_126008" data-name="Trazado 126008" d="M127.262,186.1a16.117,16.117,0,0,0-5.483-.473,12.944,12.944,0,0,0-7.268,2.512,11.851,11.851,0,0,0-3.967,6.345,18.334,18.334,0,0,0-.195,7.56,4.918,4.918,0,0,0,1.455,3.165,19.226,19.226,0,0,1,.683-3.982,6.48,6.48,0,0,1,2.25-3.308,3.52,3.52,0,0,0,1.2-1.065,4.381,4.381,0,0,0,.27-1.365,4.218,4.218,0,0,1,1.755-2.573,14.38,14.38,0,0,1,2.827-1.455c3.158-1.357,6.6-2.137,9.51-3.967A13.785,13.785,0,0,0,127.262,186.1Z" transform="translate(-61.637 -184.742)" fill="#263238"/>
      <path id="Trazado_126009" data-name="Trazado 126009" d="M115.091,195.862a4.965,4.965,0,0,0,2.677,1.673c1.245.285,4.357.21,4.545-.113s-.923-3.818-2.183-4.028a8.5,8.5,0,0,0,3.045,1.89,9.951,9.951,0,0,0,3.9,0c.66-.15-.817-2.88-1.89-3.66,3.233.675,6.653,1.447,9,3.75s3.36,5.948,3.24,9.345a4.651,4.651,0,0,0,1.732-3.69,13.779,13.779,0,0,1-.952,10.7c3.435-2.82,4.717-7.748,3.818-12.1a19.6,19.6,0,0,0-7.208-10.92,17.747,17.747,0,0,0-10.373-4.245C119.456,184.319,110.216,189.989,115.091,195.862Z" transform="translate(-62.553 -184.466)" fill="#263238"/>
      <path id="Trazado_126010" data-name="Trazado 126010" d="M117.566,223.342c0-.247.06-.577.09-.922a3.21,3.21,0,0,0-2.61-3.42h0a1.327,1.327,0,0,1-1.02-.87c-.578-1.68-.8-2.19-1.357-3.84-1.5-.367-3.308.2-4.875.36a13.665,13.665,0,0,0-.09,5.73,2.571,2.571,0,0,0,.48,1.17,20.445,20.445,0,0,0,4.68,2.88C114.213,224.842,116.111,223.469,117.566,223.342Z" transform="translate(-60.986 -191.891)" fill="#e8bfbf"/>
      <path id="Trazado_126011" data-name="Trazado 126011" d="M114.28,227.364s-4.132,26.663.128,30.75c2.5,2.385,4.658,1.065,6-.427a5.324,5.324,0,0,0,1.305-4.11l-2.9-27.315S115.96,224.574,114.28,227.364Z" transform="translate(-62.245 -194.789)" fill="#e8bfbf"/>
      <path id="Trazado_126012" data-name="Trazado 126012" d="M172.755,252.36a11.322,11.322,0,0,0,3.5-5.61,10.923,10.923,0,0,0,.15-2.325,129.256,129.256,0,0,0-1.4-13.688l-3.923-1.3s-1.223,6.75-1.5,10.44c-.052.75-.135,1.583-.225,2.49-.173,1.65-.382,3.465-.57,4.973Z" transform="translate(-76.32 -195.71)" fill="#e8bfbf"/>
      <path id="Trazado_126013" data-name="Trazado 126013" d="M174.634,259.036c1.207-1.1,1.41-2.437,2.032-5.25.593-2.685-.075-6-.63-5.5a.545.545,0,0,0-.15.232c-.952,2.25-4.658.277-5.708-.848a7.635,7.635,0,0,1-1.185-1.44,1.207,1.207,0,0,1,0-1.365c-1.14-.473-2.055,4.012-1.5,5.115l.285.832a11.6,11.6,0,0,0,2.055,3.705L171.9,257Z" transform="translate(-75.957 -199.558)" fill="#263238"/>
      <path id="Trazado_126014" data-name="Trazado 126014" d="M171.545,227.905l-.465-6.855a27.832,27.832,0,0,0,3.75,1.462c1.9.652,4.5-.495,3.9.75a52.127,52.127,0,0,1-3.195,5.37Z" transform="translate(-76.895 -193.612)" fill="#e8bfbf"/>
      <path id="Trazado_126015" data-name="Trazado 126015" d="M171.08,218.763l2.94-6.863,3.84,2.348c1.058,2.295.93,6.75.93,6.75S173.45,221.208,171.08,218.763Z" transform="translate(-76.895 -191.325)" fill="#e8bfbf"/>
      <path id="Trazado_126016" data-name="Trazado 126016" d="M137.3,213.661c.1.488.45.833.75.75s.488-.518.383-1-.45-.833-.75-.75S137.2,213.2,137.3,213.661Z" transform="translate(-68.443 -191.511)" fill="#263238"/>
      <path id="Trazado_126017" data-name="Trazado 126017" d="M114.647,322.535l-2.317-33.75c-.338-4.77-2.655-8.745-5.88-10.628a12.852,12.852,0,0,0-7.132-2.767h-.825a12.466,12.466,0,0,0-6,1.5.886.886,0,0,0-.173.082,14.336,14.336,0,0,0-4.77,4.327h0a16.165,16.165,0,0,0-2.85,9.255c0,7.5,4.943,13.755,11.43,15l2.5,36.548c.217,3.112,2.25,5.49,4.71,5.49h12.578Z" transform="translate(-55.3 -207.197)" fill="#7e57c2"/>
      <path id="Trazado_126018" data-name="Trazado 126018" d="M114.647,322.535l-2.317-33.75c-.338-4.77-2.655-8.745-5.88-10.628a12.852,12.852,0,0,0-7.132-2.767h-.825a12.466,12.466,0,0,0-6,1.5.886.886,0,0,0-.173.082,14.336,14.336,0,0,0-4.77,4.327h0a16.165,16.165,0,0,0-2.85,9.255c0,7.5,4.943,13.755,11.43,15l2.5,36.548c.217,3.112,2.25,5.49,4.71,5.49h12.578Z" transform="translate(-55.3 -207.197)" fill="#fff" opacity="0.1" style="isolation: isolate"/>
    </g>
    <g id="freepik--Table--inject-3" transform="translate(99 236.162)">
      <ellipse id="Elipse_4109" data-name="Elipse 4109" cx="25.155" cy="6.435" rx="25.155" ry="6.435" transform="translate(58.965 80.07)" fill="#263238"/>
      <ellipse id="Elipse_4110" data-name="Elipse 4110" cx="25.155" cy="5.362" rx="25.155" ry="5.362" transform="translate(58.965 80.07)" fill="#fff" opacity="0.3" style="isolation: isolate"/>
      <path id="Trazado_126019" data-name="Trazado 126019" d="M243.945,393.2H239.79l-4.8-51.765h13.755Z" transform="translate(-157.747 -307.77)" fill="#263238"/>
      <path id="Trazado_126020" data-name="Trazado 126020" d="M248.745,340.52c0,1.5-3.075,2.73-6.878,2.73s-6.878-1.223-6.878-2.73,3.083-2.73,6.878-2.73S248.745,339.013,248.745,340.52Z" transform="translate(-157.747 -306.86)" fill="#263238"/>
      <path id="Trazado_126021" data-name="Trazado 126021" d="M248.745,340.52c0,1.5-3.075,2.73-6.878,2.73s-6.878-1.223-6.878-2.73,3.083-2.73,6.878-2.73S248.745,339.013,248.745,340.52Z" transform="translate(-157.747 -306.86)" fill="#fff" opacity="0.7" style="isolation: isolate"/>
      <path id="Trazado_126022" data-name="Trazado 126022" d="M132,341.97a2.327,2.327,0,0,1,.8-1.62c5.813,5.85,42.69,10.357,87.315,10.357s81.5-4.5,87.322-10.357a2.327,2.327,0,0,1,.8,1.62c0,6.608-39.457,12-88.125,12S132,348.578,132,341.97Z" transform="translate(-132 -307.5)" fill="#fff" opacity="0.7" style="isolation: isolate"/>
      <path id="Trazado_126023" data-name="Trazado 126023" d="M133.11,341.05c5.813-5.85,42.69-10.35,87.315-10.35s81.5,4.5,87.322,10.35c-5.82,5.85-42.7,10.358-87.322,10.358S138.923,346.9,133.11,341.05Z" transform="translate(-132.277 -305.087)" fill="#fff" opacity="0.7" style="isolation: isolate"/>
      <path id="Trazado_126024" data-name="Trazado 126024" d="M132,338.2c0-6.615,39.45-12,88.118-12s88.125,5.355,88.125,12a2.294,2.294,0,0,1-.8,1.612c-5.82-5.85-42.7-10.35-87.322-10.35s-81.5,4.5-87.315,10.35A2.294,2.294,0,0,1,132,338.2Z" transform="translate(-132 -303.962)" fill="#fff" opacity="0.7" style="isolation: isolate"/>
      <path id="Trazado_126025" data-name="Trazado 126025" d="M282.335,333.648l-36.87-.7a.751.751,0,0,1-.67-.823l0-.017h0a.75.75,0,0,1,.686-.809l.019,0,36.87.7a.75.75,0,0,1,.677.816l0,.024h0a.75.75,0,0,1-.687.808Z" transform="translate(-160.198 -305.237)" fill="#263238"/>
      <path id="Trazado_126026" data-name="Trazado 126026" d="M282.335,333.648l-36.87-.7a.751.751,0,0,1-.67-.823l0-.017h0a.75.75,0,0,1,.686-.809l.019,0,36.87.7a.75.75,0,0,1,.677.816l0,.024h0a.75.75,0,0,1-.687.808Z" transform="translate(-160.198 -305.237)" fill="#fff" opacity="0.2" style="isolation: isolate"/>
      <path id="Trazado_126027" data-name="Trazado 126027" d="M312.592,330.3l-17.625,2.663a.75.75,0,0,1-.75-.712h0a.825.825,0,0,1,.607-.923l17.625-2.662a.75.75,0,0,1,.75.712h0A.825.825,0,0,1,312.592,330.3Z" transform="translate(-172.552 -304.577)" fill="#263238"/>
      <path id="Trazado_126028" data-name="Trazado 126028" d="M300.318,328.66h-37.26l-17.317,1.98,35.865.675Z" transform="translate(-160.435 -304.577)" fill="#263238"/>
      <path id="Trazado_126029" data-name="Trazado 126029" d="M300.318,328.66h-37.26l-17.317,1.98,35.865.675Z" transform="translate(-160.435 -304.577)" fill="#fff" opacity="0.6" style="isolation: isolate"/>
      <path id="Trazado_126030" data-name="Trazado 126030" d="M312.592,330.3l-17.625,2.663a.75.75,0,0,1-.75-.712h0a.825.825,0,0,1,.607-.923l17.625-2.662a.75.75,0,0,1,.75.712h0A.825.825,0,0,1,312.592,330.3Z" transform="translate(-172.552 -304.577)" fill="#fff" opacity="0.5" style="isolation: isolate"/>
      <path id="Trazado_126031" data-name="Trazado 126031" d="M280.976,323.312l-34.38-.645a2.67,2.67,0,0,1-2.332-2.67l-1.035-20.76a2.258,2.258,0,0,1,2.07-2.588l34.38.652a2.655,2.655,0,0,1,2.332,2.67l1.042,20.753A2.264,2.264,0,0,1,280.976,323.312Z" transform="translate(-159.806 -296.575)" fill="#7e57c2"/>
      <path id="Trazado_126032" data-name="Trazado 126032" d="M280.976,323.312l-34.38-.645a2.67,2.67,0,0,1-2.332-2.67l-1.035-20.76a2.258,2.258,0,0,1,2.07-2.588l34.38.652a2.655,2.655,0,0,1,2.332,2.67l1.042,20.753A2.264,2.264,0,0,1,280.976,323.312Z" transform="translate(-159.806 -296.575)" fill="#fff" opacity="0.2" style="isolation: isolate"/>
      <path id="Trazado_126033" data-name="Trazado 126033" d="M279.634,323.182l-34.38-.652a2.67,2.67,0,0,1-2.34-2.67l-1.035-20.722a2.259,2.259,0,0,1,2.077-2.587l34.372.645a2.67,2.67,0,0,1,2.34,2.67l1.05,20.73A2.278,2.278,0,0,1,279.634,323.182Z" transform="translate(-159.469 -296.55)" fill="#7e57c2"/>
      <path id="Trazado_126034" data-name="Trazado 126034" d="M279.634,323.182l-34.38-.652a2.67,2.67,0,0,1-2.34-2.67l-1.035-20.722a2.259,2.259,0,0,1,2.077-2.587l34.372.645a2.67,2.67,0,0,1,2.34,2.67l1.05,20.73A2.278,2.278,0,0,1,279.634,323.182Z" transform="translate(-159.469 -296.55)" fill="#fff" opacity="0.6" style="isolation: isolate"/>
      <path id="Trazado_126035" data-name="Trazado 126035" d="M262.354,312.622a4.057,4.057,0,0,0,3.968,3.645,3.293,3.293,0,0,0,3.349-3.235,3.243,3.243,0,0,0-.019-.41A4.073,4.073,0,0,0,265.684,309a3.293,3.293,0,0,0-3.346,3.238A3.459,3.459,0,0,0,262.354,312.622Z" transform="translate(-164.584 -299.662)" fill="#fff"/>
    </g>
  </g>
</svg>
