<?xml version="1.0" encoding="utf-8"?>
<!-- Generator: Adobe Illustrator 25.4.1, SVG Export Plug-In . SVG Version: 6.00 Build 0)  -->
<svg version="1.1" id="Capa_1" xmlns="http://www.w3.org/2000/svg" xmlns:xlink="http://www.w3.org/1999/xlink" x="0px" y="0px"
	 viewBox="0 0 746 488" style="enable-background:new 0 0 746 488;" xml:space="preserve">
<style type="text/css">
	.st0{fill:url(#Elipse_4116-2_00000160911931837192387930000000717523016328041879_);}
	.st1{fill:url(#Elipse_4116-2_00000130645435529335123200000004974055563373455512_);}
	.st2{fill:url(#Elipse_4116-2_00000114794522653188587260000008056802965918242989_);}
	.st3{fill:url(#Elipse_4116-2_00000090260490501680933330000004541423756305421752_);}
	.st4{fill:url(#Elipse_4116-2_00000129911148224833792830000009194481403406523032_);}
	.st5{fill:#FFFFFF;}
	.st6{fill:none;}
	.st7{fill:none;stroke:#4733A3;stroke-width:3;}
	.st8{fill:none;stroke:#3FFEE2;stroke-width:3;}
	.st9{enable-background:new    ;}
	.st10{fill:#12263F;}
	.st11{fill:#472EA6;}
</style>
<g transform="matrix(1, 0, 0, 1, 425, 12434)">
	
		<radialGradient id="Elipse_4116-2_00000106128606616060659510000005528228622844319143_" cx="229.4001" cy="-12336" r="92.5" gradientUnits="userSpaceOnUse">
		<stop  offset="0" style="stop-color:#555553"/>
		<stop  offset="0.1162" style="stop-color:#5C5C5A"/>
		<stop  offset="0.2808" style="stop-color:#6E6E6C"/>
		<stop  offset="0.4742" style="stop-color:#8C8C8B"/>
		<stop  offset="0.6895" style="stop-color:#B6B6B5"/>
		<stop  offset="0.9203" style="stop-color:#EBEBEB"/>
		<stop  offset="1" style="stop-color:#FFFFFF"/>
	</radialGradient>
	
		<circle id="Elipse_4116-2_00000004527100717030507210000014824985253576635265_" style="fill:url(#Elipse_4116-2_00000106128606616060659510000005528228622844319143_);" cx="226.4" cy="-12340" r="92.5"/>
</g>
<g transform="matrix(1, 0, 0, 1, 425, 12434)">
	
		<radialGradient id="Elipse_4116-2_00000065764160865511911810000009932298911298500508_" cx="-331" cy="-12336" r="92.5" gradientUnits="userSpaceOnUse">
		<stop  offset="0" style="stop-color:#555553"/>
		<stop  offset="0.1162" style="stop-color:#5C5C5A"/>
		<stop  offset="0.2808" style="stop-color:#6E6E6C"/>
		<stop  offset="0.4742" style="stop-color:#8C8C8B"/>
		<stop  offset="0.6895" style="stop-color:#B6B6B5"/>
		<stop  offset="0.9203" style="stop-color:#EBEBEB"/>
		<stop  offset="1" style="stop-color:#FFFFFF"/>
	</radialGradient>
	
		<circle id="Elipse_4116-2_00000013191252860559372460000012014674609914894491_" style="fill:url(#Elipse_4116-2_00000065764160865511911810000009932298911298500508_);" cx="-334" cy="-12340" r="92.5"/>
</g>
<g transform="matrix(1, 0, 0, 1, 425, 12434)">
	
		<radialGradient id="Elipse_4116-2_00000157310623836892601840000012436465411685251977_" cx="228.2022" cy="-12030.1641" r="86.4" gradientUnits="userSpaceOnUse">
		<stop  offset="0" style="stop-color:#555553"/>
		<stop  offset="0.1162" style="stop-color:#5C5C5A"/>
		<stop  offset="0.2808" style="stop-color:#6E6E6C"/>
		<stop  offset="0.4742" style="stop-color:#8C8C8B"/>
		<stop  offset="0.6895" style="stop-color:#B6B6B5"/>
		<stop  offset="0.9203" style="stop-color:#EBEBEB"/>
		<stop  offset="1" style="stop-color:#FFFFFF"/>
	</radialGradient>
	
		<circle id="Elipse_4116-2_00000140003871686475251900000014901701002606927020_" style="fill:url(#Elipse_4116-2_00000157310623836892601840000012436465411685251977_);" cx="225.4" cy="-12033.9" r="86.4"/>
</g>
<g transform="matrix(1, 0, 0, 1, 425, 12434)">
	
		<radialGradient id="Elipse_4116-2_00000115477267308570694080000015475955381898481329_" cx="-43.0684" cy="-12199.5576" r="125.85" gradientUnits="userSpaceOnUse">
		<stop  offset="0" style="stop-color:#555553"/>
		<stop  offset="0.1162" style="stop-color:#5C5C5A"/>
		<stop  offset="0.2808" style="stop-color:#6E6E6C"/>
		<stop  offset="0.4742" style="stop-color:#8C8C8B"/>
		<stop  offset="0.6895" style="stop-color:#B6B6B5"/>
		<stop  offset="0.9203" style="stop-color:#EBEBEB"/>
		<stop  offset="1" style="stop-color:#FFFFFF"/>
	</radialGradient>
	
		<circle id="Elipse_4116-2_00000074428866363261982200000010203256052383379892_" style="fill:url(#Elipse_4116-2_00000115477267308570694080000015475955381898481329_);" cx="-47.2" cy="-12205" r="125.8"/>
</g>
<g transform="matrix(1, 0, 0, 1, 425, 12434)">
	
		<radialGradient id="Elipse_4116-2_00000147181807768191523550000018357031807346715270_" cx="-324.1735" cy="-12031.3809" r="87.15" gradientUnits="userSpaceOnUse">
		<stop  offset="0" style="stop-color:#555553"/>
		<stop  offset="0.1162" style="stop-color:#5C5C5A"/>
		<stop  offset="0.2808" style="stop-color:#6E6E6C"/>
		<stop  offset="0.4742" style="stop-color:#8C8C8B"/>
		<stop  offset="0.6895" style="stop-color:#B6B6B5"/>
		<stop  offset="0.9203" style="stop-color:#EBEBEB"/>
		<stop  offset="1" style="stop-color:#FFFFFF"/>
	</radialGradient>
	
		<circle id="Elipse_4116-2_00000077312992824207279890000009020544523186454680_" style="fill:url(#Elipse_4116-2_00000147181807768191523550000018357031807346715270_);" cx="-327" cy="-12035.2" r="87.1"/>
</g>
<g transform="matrix(1, 0, 0, 1, 425, 12434)">
	<circle id="Elipse_4114-2" class="st5" cx="-45" cy="-12207" r="108"/>
</g>
<g transform="matrix(1, 0, 0, 1, 425, 12434)">
	<circle id="Elipse_4116-2" class="st5" cx="-332" cy="-12340" r="74"/>
</g>
<g transform="matrix(1, 0, 0, 1, 425, 12434)">
	<ellipse id="Elipse_4118-2" class="st5" cx="-326" cy="-12034.5" rx="72" ry="71.5"/>
</g>
<g transform="matrix(1, 0, 0, 1, 425, 12434)">
	<ellipse id="Elipse_4120-2" class="st5" cx="225.5" cy="-12034" rx="71.5" ry="71"/>
</g>
<g transform="matrix(1, 0, 0, 1, 425, 12434)">
	<ellipse id="Elipse_4122-2" class="st5" cx="229.5" cy="-12340" rx="77.5" ry="77"/>
</g>
<g id="Elipse_4115" transform="translate(669 12528)">
	<circle class="st6" cx="-292" cy="-12301" r="133"/>
	<circle class="st7" cx="-292" cy="-12301" r="131.5"/>
</g>
<g id="Elipse_4117" transform="translate(425 12437)">
	<circle class="st6" cx="-334" cy="-12343" r="91"/>
	<circle class="st8" cx="-334" cy="-12343" r="89.5"/>
</g>
<g id="Elipse_4119" transform="translate(434 12745)">
	<circle class="st6" cx="-336.5" cy="-12345.5" r="88.5"/>
	<circle class="st8" cx="-336.5" cy="-12345.5" r="87"/>
</g>
<g id="Elipse_4121" transform="translate(986 12746)">
	<circle class="st6" cx="-337" cy="-12346" r="88"/>
	<circle class="st8" cx="-337" cy="-12346" r="86.5"/>
</g>
<g id="Elipse_4123" transform="translate(983 12434)">
	<circle class="st6" cx="-331" cy="-12340" r="94"/>
	<circle class="st8" cx="-331" cy="-12340" r="92.5"/>
</g>
<g class="st9">
	<path class="st10" d="M338.8,232.7h-4.9v4h5.7v1.2h-7.2v-11.4h7.1v1.2h-5.6v3.7h4.9V232.7z"/>
	<path class="st10" d="M350.2,238h-1.5l-5.7-8.8v8.8h-1.5v-11.4h1.5l5.7,8.8v-8.8h1.5V238z"/>
	<path class="st10" d="M361.2,234.4c-0.1,1.2-0.6,2.1-1.3,2.8c-0.7,0.7-1.7,1-3,1s-2.4-0.5-3.2-1.4c-0.8-1-1.2-2.3-1.2-3.9v-1.1
		c0-1.1,0.2-2,0.6-2.8s0.9-1.4,1.6-1.8c0.7-0.4,1.5-0.6,2.4-0.6c1.2,0,2.2,0.3,2.9,1c0.7,0.7,1.2,1.6,1.3,2.8h-1.5
		c-0.1-0.9-0.4-1.6-0.8-2s-1-0.6-1.8-0.6c-1,0-1.7,0.4-2.3,1.1c-0.5,0.7-0.8,1.7-0.8,3v1.1c0,1.2,0.3,2.2,0.8,2.9s1.2,1.1,2.2,1.1
		c0.8,0,1.5-0.2,1.9-0.6s0.7-1,0.9-2H361.2z"/>
	<path class="st10" d="M371.2,226.6v7.7c0,1.1-0.3,2-1,2.6c-0.7,0.7-1.6,1.1-2.7,1.1h-0.4c-1.2,0-2.2-0.3-3-1
		c-0.7-0.7-1.1-1.6-1.1-2.8v-7.8h1.5v7.7c0,0.8,0.2,1.5,0.7,1.9s1.1,0.7,1.9,0.7s1.5-0.2,1.9-0.7c0.5-0.5,0.7-1.1,0.7-1.9v-7.7h1.5
		V226.6z"/>
	<path class="st10" d="M380,232.7h-4.9v4h5.7v1.2h-7.2v-11.4h7.1v1.2h-5.6v3.7h4.9V232.7z"/>
	<path class="st10" d="M386.1,232.9c-1.3-0.4-2.2-0.8-2.8-1.4s-0.9-1.2-0.9-2c0-0.9,0.4-1.6,1.1-2.2c0.7-0.6,1.6-0.9,2.8-0.9
		c0.8,0,1.5,0.2,2.1,0.5s1.1,0.7,1.4,1.2s0.5,1.1,0.5,1.7h-1.5c0-0.7-0.2-1.2-0.7-1.6s-1.1-0.6-1.9-0.6c-0.7,0-1.3,0.2-1.7,0.5
		s-0.6,0.8-0.6,1.4c0,0.5,0.2,0.9,0.6,1.2s1.1,0.6,2,0.9c0.9,0.3,1.7,0.6,2.2,0.9c0.5,0.3,0.9,0.7,1.2,1.1s0.4,0.9,0.4,1.5
		c0,0.9-0.4,1.7-1.1,2.2s-1.7,0.8-2.9,0.8c-0.8,0-1.5-0.1-2.2-0.4c-0.7-0.3-1.2-0.7-1.6-1.2s-0.6-1.1-0.6-1.8h1.5
		c0,0.7,0.3,1.2,0.8,1.6s1.2,0.6,2,0.6s1.4-0.2,1.8-0.5s0.6-0.8,0.6-1.3s-0.2-1-0.6-1.3S387.1,233.2,386.1,232.9z"/>
	<path class="st10" d="M400.1,227.9h-3.7V238h-1.5v-10.1h-3.6v-1.2h8.8L400.1,227.9L400.1,227.9z"/>
	<path class="st10" d="M407.4,235h-4.8l-1.1,3H400l4.3-11.4h1.3L410,238h-1.5L407.4,235z M403.1,233.8h3.9l-1.9-5.3L403.1,233.8z"/>
</g>
<g class="st9">
	<path class="st10" d="M631.7,96.4c-0.1,1.2-0.6,2.1-1.3,2.8c-0.7,0.7-1.7,1-3,1s-2.4-0.5-3.2-1.4c-0.8-1-1.2-2.3-1.2-3.9v-1.1
		c0-1.1,0.2-2,0.6-2.8c0.4-0.8,0.9-1.4,1.6-1.8c0.7-0.4,1.5-0.6,2.4-0.6c1.2,0,2.2,0.3,2.9,1s1.2,1.6,1.3,2.8h-1.5
		c-0.1-0.9-0.4-1.6-0.8-2c-0.4-0.4-1-0.6-1.8-0.6c-1,0-1.7,0.4-2.3,1.1c-0.5,0.7-0.8,1.7-0.8,3V95c0,1.2,0.3,2.2,0.8,2.9
		s1.2,1.1,2.2,1.1c0.8,0,1.5-0.2,1.9-0.6s0.7-1,0.9-2H631.7z"/>
	<path class="st10" d="M642.5,94.7c0,1.1-0.2,2.1-0.6,2.9s-0.9,1.5-1.6,1.9s-1.5,0.7-2.4,0.7s-1.7-0.2-2.4-0.7
		c-0.7-0.4-1.2-1.1-1.6-1.9s-0.6-1.8-0.6-2.8V94c0-1.1,0.2-2.1,0.6-2.9c0.4-0.8,0.9-1.5,1.6-1.9s1.5-0.7,2.4-0.7s1.7,0.2,2.4,0.7
		s1.2,1.1,1.6,1.9s0.6,1.8,0.6,2.9V94.7z M641,93.9c0-1.3-0.3-2.4-0.8-3.1s-1.3-1.1-2.3-1.1c-0.9,0-1.7,0.4-2.2,1.1s-0.8,1.7-0.8,3
		v0.8c0,1.3,0.3,2.3,0.8,3.1c0.5,0.7,1.3,1.1,2.3,1.1s1.7-0.4,2.2-1.1s0.8-1.7,0.8-3V93.9z"/>
	<path class="st10" d="M648.9,95.4h-2.7v4.6h-1.5V88.6h3.8c1.3,0,2.3,0.3,3,0.9s1,1.4,1,2.5c0,0.7-0.2,1.3-0.6,1.9s-0.9,0.9-1.6,1.2
		l2.7,4.8v0.1h-1.6L648.9,95.4z M646.2,94.2h2.3c0.7,0,1.3-0.2,1.8-0.6c0.4-0.4,0.7-0.9,0.7-1.5c0-0.7-0.2-1.2-0.6-1.6
		c-0.4-0.4-1-0.6-1.8-0.6h-2.3v4.3H646.2z"/>
	<path class="st10" d="M658.8,95.4h-2.7v4.6h-1.5V88.6h3.8c1.3,0,2.3,0.3,3,0.9s1,1.4,1,2.5c0,0.7-0.2,1.3-0.6,1.9s-0.9,0.9-1.6,1.2
		l2.7,4.8v0.1h-1.6L658.8,95.4z M656.1,94.2h2.3c0.7,0,1.3-0.2,1.8-0.6c0.4-0.4,0.7-0.9,0.7-1.5c0-0.7-0.2-1.2-0.6-1.6
		c-0.4-0.4-1-0.6-1.8-0.6h-2.3v4.3H656.1z"/>
	<path class="st10" d="M670.9,94.7H666v4h5.7v1.2h-7.2V88.6h7.1v1.2H666v3.7h4.9V94.7z"/>
	<path class="st10" d="M682.3,94.7c0,1.1-0.2,2.1-0.6,2.9s-0.9,1.5-1.6,1.9s-1.5,0.7-2.4,0.7s-1.7-0.2-2.4-0.7
		c-0.7-0.4-1.2-1.1-1.6-1.9s-0.6-1.8-0.6-2.8V94c0-1.1,0.2-2.1,0.6-2.9c0.4-0.8,0.9-1.5,1.6-1.9s1.5-0.7,2.4-0.7s1.7,0.2,2.4,0.7
		s1.2,1.1,1.6,1.9s0.6,1.8,0.6,2.9V94.7z M680.8,93.9c0-1.3-0.3-2.4-0.8-3.1s-1.3-1.1-2.3-1.1c-0.9,0-1.7,0.4-2.2,1.1
		s-0.8,1.7-0.8,3v0.8c0,1.3,0.3,2.3,0.8,3.1c0.5,0.7,1.3,1.1,2.3,1.1s1.7-0.4,2.2-1.1s0.8-1.7,0.8-3V93.9z"/>
</g>
<g class="st9">
	<path class="st10" d="M631.3,394.6l3.7,9.3l3.7-9.3h1.9V406h-1.5v-4.4l0.1-4.8l-3.7,9.2h-1.1l-3.7-9.2l0.1,4.8v4.4h-1.5v-11.4
		H631.3z"/>
	<path class="st10" d="M644.9,406h-1.5v-11.4h1.5V406z"/>
	<path class="st10" d="M651.4,399l2.7-4.4h1.8l-3.6,5.6l3.7,5.7h-1.8l-2.8-4.4l-2.8,4.4h-1.8l3.7-5.7l-3.6-5.6h1.8L651.4,399z"/>
	<path class="st10" d="M665.5,395.9h-3.7V406h-1.5v-10.1h-3.6v-1.2h8.8V395.9z"/>
	<path class="st10" d="M672.9,403h-4.8l-1.1,3h-1.5l4.3-11.4h1.3l4.4,11.4H674L672.9,403z M668.6,401.8h3.9l-1.9-5.3L668.6,401.8z"
		/>
</g>
<g class="st9">
	<path class="st10" d="M63.2,395.9h-3.7V406H58v-10.1h-3.6v-1.2h8.8V395.9z"/>
	<path class="st10" d="M71.3,400.7h-4.9v4h5.7v1.2h-7.2v-11.4H72v1.2h-5.6v3.7h4.9V400.7z"/>
	<path class="st10" d="M75.5,404.8h5.4v1.2H74v-11.4h1.5V404.8z"/>
	<path class="st10" d="M89,400.7h-4.9v4h5.7v1.2h-7.2v-11.4h7.1v1.2h-5.6v3.7H89V400.7z M86.8,391.5h1.8l-2.1,2.3h-1.2L86.8,391.5z"
		/>
	<path class="st10" d="M97.9,401h-4.8v5h-1.5v-11.4h7v1.2h-5.5v3.9h4.8V401z"/>
	<path class="st10" d="M109.3,400.7c0,1.1-0.2,2.1-0.6,2.9s-0.9,1.5-1.6,1.9s-1.5,0.7-2.4,0.7s-1.7-0.2-2.4-0.7
		c-0.7-0.4-1.2-1.1-1.6-1.9s-0.6-1.8-0.6-2.8V400c0-1.1,0.2-2.1,0.6-2.9s0.9-1.5,1.6-1.9s1.5-0.7,2.4-0.7s1.7,0.2,2.4,0.7
		s1.2,1.1,1.6,1.9s0.6,1.8,0.6,2.9V400.7z M107.8,399.9c0-1.3-0.3-2.4-0.8-3.1s-1.3-1.1-2.3-1.1c-0.9,0-1.7,0.4-2.2,1.1
		s-0.8,1.7-0.8,3v0.8c0,1.3,0.3,2.3,0.8,3.1c0.5,0.7,1.3,1.1,2.3,1.1s1.7-0.4,2.2-1.1s0.8-1.7,0.8-3V399.9z"/>
	<path class="st10" d="M120.2,406h-1.5l-5.7-8.8v8.8h-1.5v-11.4h1.5l5.7,8.8v-8.8h1.5V406z"/>
	<path class="st10" d="M131.7,400.7c0,1.1-0.2,2.1-0.6,2.9s-0.9,1.5-1.6,1.9s-1.5,0.7-2.4,0.7s-1.7-0.2-2.4-0.7
		c-0.7-0.4-1.2-1.1-1.6-1.9s-0.6-1.8-0.6-2.8V400c0-1.1,0.2-2.1,0.6-2.9s0.9-1.5,1.6-1.9s1.5-0.7,2.4-0.7s1.7,0.2,2.4,0.7
		s1.2,1.1,1.6,1.9s0.6,1.8,0.6,2.9V400.7z M130.2,399.9c0-1.3-0.3-2.4-0.8-3.1s-1.3-1.1-2.3-1.1c-0.9,0-1.7,0.4-2.2,1.1
		s-0.8,1.7-0.8,3v0.8c0,1.3,0.3,2.3,0.8,3.1c0.5,0.7,1.3,1.1,2.3,1.1s1.7-0.4,2.2-1.1s0.8-1.7,0.8-3V399.9z"/>
</g>
<g class="st9">
	<path class="st10" d="M56.8,95.5v4.5h-1.5V88.6h4.2c1.2,0,2.2,0.3,2.9,1c0.7,0.6,1.1,1.5,1.1,2.5c0,1.1-0.3,2-1,2.6s-1.7,0.9-3,0.9
		L56.8,95.5L56.8,95.5z M56.8,94.3h2.7c0.8,0,1.4-0.2,1.8-0.6c0.4-0.4,0.6-0.9,0.6-1.6s-0.2-1.2-0.6-1.6c-0.4-0.4-1-0.6-1.8-0.6
		h-2.8L56.8,94.3L56.8,94.3z"/>
	<path class="st10" d="M71.8,94.7h-4.9v4h5.7v1.2h-7.2V88.6h7.1v1.2h-5.6v3.7h4.9V94.7z"/>
	<path class="st10" d="M78.7,95.4H76v4.6h-1.5V88.6h3.8c1.3,0,2.3,0.3,3,0.9s1,1.4,1,2.5c0,0.7-0.2,1.3-0.6,1.9s-0.9,0.9-1.6,1.2
		l2.7,4.8v0.1h-1.6L78.7,95.4z M76,94.2h2.3c0.7,0,1.3-0.2,1.8-0.6c0.4-0.4,0.7-0.9,0.7-1.5c0-0.7-0.2-1.2-0.6-1.6s-1-0.6-1.8-0.6
		H76V94.2z"/>
	<path class="st10" d="M87.7,94.9c-1.3-0.4-2.2-0.8-2.8-1.4s-0.9-1.2-0.9-2c0-0.9,0.4-1.6,1.1-2.2s1.6-0.9,2.8-0.9
		c0.8,0,1.5,0.2,2.1,0.5s1.1,0.7,1.4,1.2s0.5,1.1,0.5,1.7h-1.5c0-0.7-0.2-1.2-0.7-1.6s-1.1-0.6-1.9-0.6c-0.7,0-1.3,0.2-1.7,0.5
		s-0.6,0.8-0.6,1.4c0,0.5,0.2,0.9,0.6,1.2c0.4,0.3,1.1,0.6,2,0.9s1.7,0.6,2.2,0.9s0.9,0.7,1.2,1.1s0.4,0.9,0.4,1.5
		c0,0.9-0.4,1.7-1.1,2.2s-1.7,0.8-2.9,0.8c-0.8,0-1.5-0.1-2.2-0.4s-1.2-0.7-1.6-1.2s-0.6-1.1-0.6-1.8H85c0,0.7,0.3,1.2,0.8,1.6
		s1.2,0.6,2,0.6s1.4-0.2,1.8-0.5s0.6-0.8,0.6-1.3s-0.2-1-0.6-1.3S88.7,95.2,87.7,94.9z"/>
	<path class="st10" d="M102.6,94.7c0,1.1-0.2,2.1-0.6,2.9s-0.9,1.5-1.6,1.9s-1.5,0.7-2.4,0.7s-1.7-0.2-2.4-0.7
		c-0.7-0.4-1.2-1.1-1.6-1.9s-0.6-1.8-0.6-2.8V94c0-1.1,0.2-2.1,0.6-2.9s0.9-1.5,1.6-1.9s1.5-0.7,2.4-0.7s1.7,0.2,2.4,0.7
		s1.2,1.1,1.6,1.9s0.6,1.8,0.6,2.9V94.7z M101.1,93.9c0-1.3-0.3-2.4-0.8-3.1S99,89.7,98,89.7c-0.9,0-1.7,0.4-2.2,1.1s-0.8,1.7-0.8,3
		v0.8c0,1.3,0.3,2.3,0.8,3.1c0.5,0.7,1.3,1.1,2.3,1.1s1.7-0.4,2.2-1.1s0.8-1.7,0.8-3V93.9z"/>
	<path class="st10" d="M113.6,100h-1.5l-5.7-8.8v8.8h-1.5V88.6h1.5l5.7,8.8v-8.8h1.5V100z"/>
	<path class="st10" d="M122.5,97h-4.8l-1.1,3h-1.5l4.3-11.4h1.3l4.4,11.4h-1.5L122.5,97z M118.2,95.8h3.9l-1.9-5.3L118.2,95.8z"/>
	<path class="st10" d="M128.2,98.8h5.4v1.2h-6.9V88.6h1.5L128.2,98.8L128.2,98.8z"/>
</g>
<path id="Uni贸n_8" class="st11" d="M209.5,349.5L240,319l-7.1-7.1l26.4-7.3L252,331l-7.1-7.1l-30.5,30.5L209.5,349.5z"/>
<path id="Uni贸n_10" class="st11" d="M192.9,131l30.5,30.5l-7.1,7.1l26.4,7.3l-7.3-26.4l-7.1,7.1l-30.5-30.5L192.9,131z"/>
<path id="Uni贸n_9" class="st11" d="M550.5,349.5L520,319l7.1-7.1l-26.4-7.3L508,331l7.1-7.1l30.5,30.5L550.5,349.5z"/>
<path id="Uni贸n_11" class="st11" d="M550.5,131L520,161.5l7.1,7.1l-26.4,7.3l7.3-26.4l7.1,7.1l30.5-30.5L550.5,131z"/>
</svg>
