<svg xmlns="http://www.w3.org/2000/svg" xmlns:xlink="http://www.w3.org/1999/xlink" width="746" height="488" viewBox="0 0 746 488">
  <defs>
    <filter id="Elipse_4114" x="266" y="113" width="234" height="234" filterUnits="userSpaceOnUse">
      <feOffset dx="3" dy="3" input="SourceAlpha"/>
      <feGaussianBlur stdDeviation="3" result="blur"/>
      <feFlood flood-opacity="0.161"/>
      <feComposite operator="in" in2="blur"/>
      <feComposite in="SourceGraphic"/>
    </filter>
    <filter id="Elipse_4116" x="13" y="14" width="166" height="166" filterUnits="userSpaceOnUse">
      <feOffset dx="3" dy="3" input="SourceAlpha"/>
      <feGaussianBlur stdDeviation="3" result="blur-2"/>
      <feFlood flood-opacity="0.161"/>
      <feComposite operator="in" in2="blur-2"/>
      <feComposite in="SourceGraphic"/>
    </filter>
    <filter id="Elipse_4118" x="21" y="322" width="162" height="161" filterUnits="userSpaceOnUse">
      <feOffset dx="3" dy="3" input="SourceAlpha"/>
      <feGaussianBlur stdDeviation="3" result="blur-3"/>
      <feFlood flood-opacity="0.161"/>
      <feComposite operator="in" in2="blur-3"/>
      <feComposite in="SourceGraphic"/>
    </filter>
    <filter id="Elipse_4120" x="573" y="323" width="161" height="160" filterUnits="userSpaceOnUse">
      <feOffset dx="3" dy="3" input="SourceAlpha"/>
      <feGaussianBlur stdDeviation="3" result="blur-4"/>
      <feFlood flood-opacity="0.161"/>
      <feComposite operator="in" in2="blur-4"/>
      <feComposite in="SourceGraphic"/>
    </filter>
    <filter id="Elipse_4122" x="571" y="11" width="173" height="172" filterUnits="userSpaceOnUse">
      <feOffset dx="3" dy="3" input="SourceAlpha"/>
      <feGaussianBlur stdDeviation="3" result="blur-5"/>
      <feFlood flood-opacity="0.161"/>
      <feComposite operator="in" in2="blur-5"/>
      <feComposite in="SourceGraphic"/>
    </filter>
  </defs>
  <g id="Grupo_59742" data-name="Grupo 59742" transform="translate(-425 -12434)">
    <g transform="matrix(1, 0, 0, 1, 425, 12434)" filter="url(#Elipse_4114)">
      <circle id="Elipse_4114-2" data-name="Elipse 4114" cx="108" cy="108" r="108" transform="translate(272 119)" fill="#fff"/>
    </g>
    <g transform="matrix(1, 0, 0, 1, 425, 12434)" filter="url(#Elipse_4116)">
      <circle id="Elipse_4116-2" data-name="Elipse 4116" cx="74" cy="74" r="74" transform="translate(19 20)" fill="#fff"/>
    </g>
    <g transform="matrix(1, 0, 0, 1, 425, 12434)" filter="url(#Elipse_4118)">
      <ellipse id="Elipse_4118-2" data-name="Elipse 4118" cx="72" cy="71.5" rx="72" ry="71.5" transform="translate(27 328)" fill="#fff"/>
    </g>
    <g transform="matrix(1, 0, 0, 1, 425, 12434)" filter="url(#Elipse_4120)">
      <ellipse id="Elipse_4120-2" data-name="Elipse 4120" cx="71.5" cy="71" rx="71.5" ry="71" transform="translate(579 329)" fill="#fff"/>
    </g>
    <g transform="matrix(1, 0, 0, 1, 425, 12434)" filter="url(#Elipse_4122)">
      <ellipse id="Elipse_4122-2" data-name="Elipse 4122" cx="77.5" cy="77" rx="77.5" ry="77" transform="translate(577 17)" fill="#fff"/>
    </g>
    <g id="Elipse_4115" data-name="Elipse 4115" transform="translate(669 12528)" fill="none" stroke="#4733a3" stroke-width="3">
      <circle cx="133" cy="133" r="133" stroke="none"/>
      <circle cx="133" cy="133" r="131.5" fill="none"/>
    </g>
    <g id="Elipse_4117" data-name="Elipse 4117" transform="translate(425 12437)" fill="none" stroke="#3ffee2" stroke-width="3">
      <circle cx="91" cy="91" r="91" stroke="none"/>
      <circle cx="91" cy="91" r="89.5" fill="none"/>
    </g>
    <g id="Elipse_4119" data-name="Elipse 4119" transform="translate(434 12745)" fill="none" stroke="#3ffee2" stroke-width="3">
      <circle cx="88.5" cy="88.5" r="88.5" stroke="none"/>
      <circle cx="88.5" cy="88.5" r="87" fill="none"/>
    </g>
    <g id="Elipse_4121" data-name="Elipse 4121" transform="translate(986 12746)" fill="none" stroke="#3ffee2" stroke-width="3">
      <circle cx="88" cy="88" r="88" stroke="none"/>
      <circle cx="88" cy="88" r="86.5" fill="none"/>
    </g>
    <g id="Elipse_4123" data-name="Elipse 4123" transform="translate(983 12434)" fill="none" stroke="#3ffee2" stroke-width="3">
      <circle cx="94" cy="94" r="94" stroke="none"/>
      <circle cx="94" cy="94" r="92.5" fill="none"/>
    </g>
    <text id="ENCUESTA_" data-name="ENCUESTA
" transform="translate(756 12655)" fill="#12263f" font-size="16" font-family="Roboto-Regular, Roboto"><tspan x="0" y="17">ENCUESTA</tspan></text>
    <text id="CORREO" transform="translate(1047 12517)" fill="#12263f" font-size="16" font-family="Roboto-Regular, Roboto"><tspan x="0" y="17">CORREO</tspan></text>
    <text id="MIXTA" transform="translate(1053 12823)" fill="#12263f" font-size="16" font-family="Roboto-Regular, Roboto"><tspan x="0" y="17">MIXTA</tspan></text>
    <text id="TELÉFONO" transform="translate(479 12823)" fill="#12263f" font-size="16" font-family="Roboto-Regular, Roboto"><tspan x="0" y="17">TELÉFONO</tspan></text>
    <text id="PERSONAL" transform="translate(479 12517)" fill="#12263f" font-size="16" font-family="Roboto-Regular, Roboto"><tspan x="0" y="17">PERSONAL</tspan></text>
    <path id="Unión_8" data-name="Unión 8" d="M7879.028,11767v-43.128H7869l13.5-23.874,13.5,23.874h-10.029V11767Z" transform="translate(3383.669 -1108.363) rotate(45)" fill="#472ea6"/>
    <path id="Unión_10" data-name="Unión 10" d="M10.029,0V43.128H0L13.5,67,27,43.128H16.971V0Z" transform="translate(610.766 12572.092) rotate(-45)" fill="#472ea6"/>
    <path id="Unión_9" data-name="Unión 9" d="M10.03,0V43.128H0L13.5,67,27,43.128H16.972V0Z" transform="translate(982.635 12776.386) rotate(135)" fill="#472ea6"/>
    <path id="Unión_11" data-name="Unión 11" d="M10.03,67V23.874H0L13.5,0,27,23.874H16.972V67Z" transform="translate(935.257 12619.47) rotate(-135)" fill="#472ea6"/>
  </g>
</svg>
