<svg xmlns="http://www.w3.org/2000/svg" width="232.277" height="337.077" viewBox="0 0 232.277 337.077">
  <g id="Grupo_59906" data-name="Grupo 59906" transform="translate(-130.249 -115.234)">
    <g id="Grupo_59878" data-name="Grupo 59878">
      <g id="Grupo_59862" data-name="Grupo 59862">
        <g id="Grupo_59861" data-name="Grupo 59861" style="isolation: isolate">
          <g id="Grupo_59858" data-name="Grupo 59858">
            <path id="Trazado_126244" data-name="Trazado 126244" d="M229.9,244.562l-49.6,28.825-49.925-28.824,49.6-28.825Z" fill="#882eab"/>
          </g>
          <g id="Grupo_59859" data-name="Grupo 59859">
            <path id="Trazado_126245" data-name="Trazado 126245" d="M229.9,244.562l-.13,135.258-49.6,28.825.13-135.258Z" fill="#b851e0"/>
          </g>
          <g id="Grupo_59860" data-name="Grupo 59860">
            <path id="Trazado_126246" data-name="Trazado 126246" d="M180.3,273.387l-.13,135.258L130.249,379.82l.13-135.258Z" fill="#9a34c2"/>
          </g>
        </g>
      </g>
      <g id="Grupo_59867" data-name="Grupo 59867">
        <g id="Grupo_59866" data-name="Grupo 59866" style="isolation: isolate">
          <g id="Grupo_59863" data-name="Grupo 59863">
            <path id="Trazado_126247" data-name="Trazado 126247" d="M314.065,181.5l-49.6,28.825L214.538,181.5l49.6-28.825Z" fill="#d1a624"/>
          </g>
          <g id="Grupo_59864" data-name="Grupo 59864">
            <path id="Trazado_126248" data-name="Trazado 126248" d="M314.065,181.5l-.13,205.359-49.6,28.825.13-205.359Z" fill="#ffd045"/>
          </g>
          <g id="Grupo_59865" data-name="Grupo 59865">
            <path id="Trazado_126249" data-name="Trazado 126249" d="M264.464,210.326l-.13,205.359-49.925-28.824.13-205.359Z" fill="#e3b018"/>
          </g>
        </g>
      </g>
      <g id="Grupo_59872" data-name="Grupo 59872">
        <g id="Grupo_59871" data-name="Grupo 59871" style="isolation: isolate">
          <g id="Grupo_59868" data-name="Grupo 59868">
            <path id="Trazado_126250" data-name="Trazado 126250" d="M362.526,280.161l-49.6,28.825L263,280.161l49.6-28.825Z" fill="#54bad8"/>
          </g>
          <g id="Grupo_59869" data-name="Grupo 59869">
            <path id="Trazado_126251" data-name="Trazado 126251" d="M362.526,280.161l-.13,119.562-49.6,28.825.13-119.562Z" fill="#4ab1cf"/>
          </g>
          <g id="Grupo_59870" data-name="Grupo 59870">
            <path id="Trazado_126252" data-name="Trazado 126252" d="M312.925,308.986l-.13,119.562L262.87,399.723,263,280.161Z" fill="#2989a3"/>
          </g>
        </g>
      </g>
      <g id="Grupo_59877" data-name="Grupo 59877">
        <g id="Grupo_59876" data-name="Grupo 59876" style="isolation: isolate">
          <g id="Grupo_59873" data-name="Grupo 59873">
            <path id="Trazado_126253" data-name="Trazado 126253" d="M279.2,362.547l-49.6,28.825-49.925-28.824,49.6-28.825Z" fill="#ce3b58"/>
          </g>
          <g id="Grupo_59874" data-name="Grupo 59874">
            <path id="Trazado_126254" data-name="Trazado 126254" d="M279.2,362.547l-.13,60.939-49.6,28.825.13-60.939Z" fill="#b8354f"/>
          </g>
          <g id="Grupo_59875" data-name="Grupo 59875">
            <path id="Trazado_126255" data-name="Trazado 126255" d="M229.6,391.372l-.13,60.939-49.925-28.824.13-60.939Z" fill="#802537"/>
          </g>
        </g>
      </g>
    </g>
    <g id="Grupo_59880" data-name="Grupo 59880">
      <path id="Trazado_126256" data-name="Trazado 126256" d="M226.07,358.417l2.1,3.537,4.925,2.862-2.1-3.537Z" fill="#f2889d"/>
      <path id="Trazado_126257" data-name="Trazado 126257" d="M248.2,293.377a2.179,2.179,0,0,0-2.2.216L209.958,314.4a6.765,6.765,0,0,0-3.069,5.32l.155,46.133a2.155,2.155,0,0,0,.9,1.975l4.925,2.862a2.154,2.154,0,0,1-.9-1.974l-.156-46.134a6.767,6.767,0,0,1,3.069-5.32l36.046-20.811a2.177,2.177,0,0,1,2.195-.217Z" fill="#f2889d"/>
      <g id="Grupo_59879" data-name="Grupo 59879">
        <path id="Trazado_126258" data-name="Trazado 126258" d="M250.929,296.456c1.705-.985,3.088-.2,3.094,1.762l.155,46.134a6.767,6.767,0,0,1-3.073,5.317l-15.933,9.2-2.075,5.948-2.1-3.537-15.938,9.2c-1.7.981-3.083.193-3.088-1.76l-.156-46.134a6.767,6.767,0,0,1,3.069-5.32Z" fill="#ffa8b9"/>
      </g>
    </g>
    <g id="Grupo_59882" data-name="Grupo 59882">
      <path id="Trazado_126259" data-name="Trazado 126259" d="M312.928,275.2l2.1,3.537,4.925,2.862-2.1-3.537Z" fill="#88cfe3"/>
      <path id="Trazado_126260" data-name="Trazado 126260" d="M335.056,210.162a2.172,2.172,0,0,0-2.194.216l-36.047,20.811a6.765,6.765,0,0,0-3.068,5.32l.155,46.134a2.156,2.156,0,0,0,.9,1.974l4.926,2.862a2.155,2.155,0,0,1-.9-1.974l-.155-46.134a6.766,6.766,0,0,1,3.069-5.32l36.046-20.811a2.175,2.175,0,0,1,2.194-.216Z" fill="#88cfe3"/>
      <g id="Grupo_59881" data-name="Grupo 59881">
        <path id="Trazado_126261" data-name="Trazado 126261" d="M337.787,213.24c1.7-.984,3.088-.2,3.093,1.763l.155,46.133a6.763,6.763,0,0,1-3.073,5.318l-15.932,9.2-2.075,5.948-2.1-3.537-15.937,9.2c-1.7.982-3.083.193-3.089-1.76l-.155-46.134a6.766,6.766,0,0,1,3.069-5.32Z" fill="#b8efff"/>
      </g>
    </g>
    <g id="Grupo_59884" data-name="Grupo 59884">
      <path id="Trazado_126262" data-name="Trazado 126262" d="M258.131,180.481l2.1,3.537,4.925,2.862-2.1-3.537Z" fill="#e8d499"/>
      <path id="Trazado_126263" data-name="Trazado 126263" d="M280.259,115.441a2.175,2.175,0,0,0-2.194.217l-36.046,20.811a6.764,6.764,0,0,0-3.069,5.32l.155,46.134a2.156,2.156,0,0,0,.9,1.974l4.926,2.862a2.152,2.152,0,0,1-.9-1.974l-.156-46.134a6.769,6.769,0,0,1,3.069-5.32L282.99,118.52a2.177,2.177,0,0,1,2.2-.216Z" fill="#e8d499"/>
      <g id="Grupo_59883" data-name="Grupo 59883">
        <path id="Trazado_126264" data-name="Trazado 126264" d="M282.99,118.52c1.705-.984,3.088-.2,3.093,1.763l.156,46.133a6.771,6.771,0,0,1-3.073,5.318l-15.933,9.2-2.075,5.948-2.1-3.536-15.938,9.2c-1.7.981-3.083.193-3.088-1.76l-.156-46.134a6.769,6.769,0,0,1,3.069-5.32Z" fill="#fff3cf"/>
      </g>
    </g>
    <g id="Grupo_59886" data-name="Grupo 59886">
      <path id="Trazado_126265" data-name="Trazado 126265" d="M174.12,236.841l2.1,3.537,4.925,2.862-2.1-3.537Z" fill="#c18dd6"/>
      <path id="Trazado_126266" data-name="Trazado 126266" d="M196.248,171.8a2.177,2.177,0,0,0-2.194.216l-36.047,20.811a6.765,6.765,0,0,0-3.068,5.321l.155,46.133a2.158,2.158,0,0,0,.9,1.975l4.926,2.862a2.152,2.152,0,0,1-.9-1.974l-.156-46.134a6.766,6.766,0,0,1,3.069-5.32l36.046-20.812a2.179,2.179,0,0,1,2.195-.216Z" fill="#c18dd6"/>
      <g id="Grupo_59885" data-name="Grupo 59885">
        <path id="Trazado_126267" data-name="Trazado 126267" d="M198.979,174.879c1.705-.984,3.088-.195,3.093,1.763l.156,46.134a6.767,6.767,0,0,1-3.073,5.317l-15.933,9.2-2.075,5.948-2.1-3.537-15.938,9.2c-1.7.982-3.083.194-3.088-1.759l-.156-46.134a6.766,6.766,0,0,1,3.069-5.32Z" fill="#ebbaff"/>
      </g>
    </g>
    <g id="Grupo_59893" data-name="Grupo 59893">
      <g id="Grupo_59888" data-name="Grupo 59888">
        <path id="Trazado_126269" data-name="Trazado 126269" d="M314.216,249.76c.617-.356,1.121-.069,1.123.648a2.467,2.467,0,0,1-1.116,1.934c-.624.36-1.128.072-1.13-.637A2.47,2.47,0,0,1,314.216,249.76Z" fill="#2989a3"/>
      </g>
      <g id="Grupo_59889" data-name="Grupo 59889">
        <path id="Trazado_126270" data-name="Trazado 126270" d="M318.609,247.224c.617-.356,1.121-.069,1.123.648a2.464,2.464,0,0,1-1.116,1.933c-.624.361-1.129.073-1.131-.636A2.469,2.469,0,0,1,318.609,247.224Z" fill="#2989a3"/>
      </g>
      <g id="Grupo_59890" data-name="Grupo 59890">
        <path id="Trazado_126271" data-name="Trazado 126271" d="M323,244.688c.624-.361,1.129-.073,1.131.644a2.469,2.469,0,0,1-1.123,1.937c-.624.36-1.129.073-1.131-.636A2.471,2.471,0,0,1,323,244.688Z" fill="#2989a3"/>
      </g>
      <g id="Grupo_59891" data-name="Grupo 59891">
        <path id="Trazado_126272" data-name="Trazado 126272" d="M327.394,242.151c.624-.36,1.129-.072,1.131.645a2.469,2.469,0,0,1-1.123,1.937c-.617.356-1.122.069-1.124-.64A2.47,2.47,0,0,1,327.394,242.151Z" fill="#2989a3"/>
      </g>
      <g id="Grupo_59892" data-name="Grupo 59892">
        <path id="Trazado_126273" data-name="Trazado 126273" d="M329.029,233.619c2.6-1.5,4.722-.294,4.73,2.7l.02,7.082a10.373,10.373,0,0,1-4.7,8.14l-.771.445-5.957,7.8a1.23,1.23,0,0,1-.335.3.561.561,0,0,1-.315.09c-.209-.019-.33-.2-.324-.47l.1-3.78-8.893,5.134c-2.6,1.5-4.721.287-4.73-2.7l-.02-7.082a10.363,10.363,0,0,1,4.7-8.14Zm3.49,10.506-.02-7.082c-.007-2.189-1.561-3.074-3.466-1.975l-16.491,9.522a7.6,7.6,0,0,0-3.443,5.963l.02,7.082c.006,2.189,1.561,3.066,3.465,1.967l9.544-5.51a.443.443,0,0,1,.457-.04.45.45,0,0,1,.182.427l-.085,3.145,5.1-6.681a1.194,1.194,0,0,1,.342-.313l.952-.55a7.582,7.582,0,0,0,3.443-5.955" fill="#2989a3"/>
      </g>
    </g>
    <g id="Grupo_59897" data-name="Grupo 59897">
      <g id="Grupo_59894" data-name="Grupo 59894">
        <path id="Trazado_126274" data-name="Trazado 126274" d="M264.094,137.4c5.722-3.3,10.392-.643,10.41,5.932.012,4.242-4.1,15.7-7.555,24.573a6.9,6.9,0,0,1-2.759,3.421c-1.152.664-2.19.58-2.769-.229-3.493-4.863-7.658-11.541-7.67-15.782C253.732,148.738,258.372,140.7,264.094,137.4Zm1.719,30.4c4.7-12.062,7.391-20.71,7.382-23.712-.016-5.746-4.1-8.078-9.1-5.191s-9.061,9.919-9.044,15.665c.008,3,2.738,8.521,7.492,15.124.347.476.955.531,1.64.135a4.058,4.058,0,0,0,1.627-2.021" fill="#d1a624"/>
      </g>
      <g id="Grupo_59895" data-name="Grupo 59895">
        <path id="Trazado_126275" data-name="Trazado 126275" d="M264.115,145.045c1.722-.994,3.12-.2,3.126,1.788a6.842,6.842,0,0,1-3.105,5.379c-1.728,1-3.126.2-3.132-1.778A6.844,6.844,0,0,1,264.115,145.045Z" fill="#d1a624"/>
      </g>
      <g id="Grupo_59896" data-name="Grupo 59896">
        <path id="Trazado_126276" data-name="Trazado 126276" d="M264.1,140.713c3.8-2.194,6.9-.427,6.914,3.94a15.159,15.159,0,0,1-6.869,11.9c-3.8,2.194-6.9.427-6.914-3.94A15.159,15.159,0,0,1,264.1,140.713Zm.041,14.334a12.279,12.279,0,0,0,5.564-9.638c-.01-3.538-2.522-4.977-5.6-3.2a12.3,12.3,0,0,0-5.57,9.648c.01,3.539,2.528,4.966,5.607,3.189" fill="#d1a624"/>
      </g>
    </g>
    <g id="Grupo_59898" data-name="Grupo 59898">
      <path id="Trazado_126277" data-name="Trazado 126277" d="M192.693,198.423l.037.195.045,16.04-.012.133-.144.4-.412.447-21.542,12.437-.1.046-.364-.055-.1-.317-.046-16.04.018-.171.054-.184.085-.189,9.118-13.07a6.765,6.765,0,0,1,2.081-2,2.785,2.785,0,0,1,2.107-.407l8.987,2.535.128.08Zm-12.688.342-8.4,12.035,8.559,1.8a6.226,6.226,0,0,1,1.287-1.009,3.677,3.677,0,0,1,1.283-.475l8.443-11.62-8.355-2.355a1.863,1.863,0,0,0-1.413.274,4.584,4.584,0,0,0-1.4,1.346M172.3,225.818l18.281-10.555-7.53-2.636a1.586,1.586,0,0,0-.224-.044,1.129,1.129,0,0,0-.249-.024,2.4,2.4,0,0,0-1.12.353,4.59,4.59,0,0,0-1.117.939c-.079.087-.151.178-.224.268-.1.136-.175.234-.242.335l-3,4.505-4.571,6.859m-1.1-13.512.038,13.414,7.835-11.751-7.873-1.663m20.429,1.635-.038-13.4-7.753,10.678,7.791,2.723" fill="#882eab"/>
    </g>
    <g id="Grupo_59905" data-name="Grupo 59905">
      <g id="Grupo_59902" data-name="Grupo 59902" style="isolation: isolate">
        <g id="Grupo_59899" data-name="Grupo 59899">
          <path id="Trazado_126278" data-name="Trazado 126278" d="M238.54,336.616c.3-.175.547-.037.548.312a1.191,1.191,0,0,1-.544.941l-12.129,7c-.3.175-.552.04-.553-.308a1.205,1.205,0,0,1,.55-.946Z" fill="#b8354f"/>
        </g>
        <g id="Grupo_59900" data-name="Grupo 59900">
          <path id="Trazado_126279" data-name="Trazado 126279" d="M238.53,333.1c.3-.175.547-.029.548.312a1.206,1.206,0,0,1-.544.949l-12.129,7c-.3.175-.552.032-.553-.316a1.216,1.216,0,0,1,.55-.945Z" fill="#b8354f"/>
        </g>
        <g id="Grupo_59901" data-name="Grupo 59901">
          <path id="Trazado_126280" data-name="Trazado 126280" d="M238.52,329.588c.3-.175.547-.036.548.312a1.2,1.2,0,0,1-.544.942l-12.129,7c-.3.175-.552.033-.553-.308a1.2,1.2,0,0,1,.55-.945Z" fill="#b8354f"/>
        </g>
      </g>
      <g id="Grupo_59903" data-name="Grupo 59903">
        <path id="Trazado_126281" data-name="Trazado 126281" d="M238.51,326.071c.3-.175.547-.037.548.312a1.2,1.2,0,0,1-.544.942l-12.129,7c-.3.175-.552.04-.553-.308a1.205,1.205,0,0,1,.55-.946Z" fill="#b8354f"/>
      </g>
      <g id="Grupo_59904" data-name="Grupo 59904">
        <path id="Trazado_126282" data-name="Trazado 126282" d="M240.376,313.922c.7-.406,1.275-.08,1.277.728l.071,25.1a2.794,2.794,0,0,1-1.268,2.2l-15.929,9.2c-.7.4-1.275.08-1.277-.728l-.058-20.317.012-.118.042-.185.1-.226,4.8-8.4.079-.122.084-.1.121-.111.1-.07Zm.257,26.459-.071-25.1c0-.119-.079-.164-.182-.1L229.088,321.7l.014,4.994a1.2,1.2,0,0,1-.544.942l-4.273,2.467.056,19.69c0,.118.085.16.182.1l15.929-9.2a.387.387,0,0,0,.181-.314M228,323.231l-2.96,5.176,2.97-1.715-.01-3.461" fill="#b8354f"/>
      </g>
    </g>
  </g>
</svg>
