<?xml version="1.0" encoding="utf-8"?>
<!-- Generator: Adobe Illustrator 25.4.1, SVG Export Plug-In . SVG Version: 6.00 Build 0)  -->
<svg version="1.1" id="Capa_1" xmlns="http://www.w3.org/2000/svg" xmlns:xlink="http://www.w3.org/1999/xlink" x="0px" y="0px"
	 viewBox="0 0 613.3 430.7" style="enable-background:new 0 0 613.3 430.7;" xml:space="preserve">
<style type="text/css">
	.st0{fill:url(#Trazado_126284_00000127745295688387560610000018336238267731317125_);}
	.st1{enable-background:new    ;}
	.st2{fill:#FFFFFF;}
	.st3{fill:none;stroke:#707070;}
	.st4{fill:#FD8F25;}
</style>
<g id="Grupo_60150" transform="translate(-824.263 -4039.397)">
	
		<linearGradient id="Trazado_126284_00000135683670827697552030000008434470778579263627_" gradientUnits="userSpaceOnUse" x1="736.9065" y1="4561.188" x2="736.9065" y2="4560.188" gradientTransform="matrix(613.3489 0 0 -430.6724 -450849.8125 1968417)">
		<stop  offset="0" style="stop-color:#472EA6"/>
		<stop  offset="1" style="stop-color:#7352F0"/>
	</linearGradient>
	<path id="Trazado_126284" style="fill:url(#Trazado_126284_00000135683670827697552030000008434470778579263627_);" d="
		M1397.1,4469.9c-39.4,0-537,0.3-537,0.2c-0.2-0.5-90.9-102.1,17-187.3c52.2-41.3-30.9-104.4,35.2-168.8
		c50.4-49,102.7,5.3,157.3-17.5c9.6-4,19.3-10.5,29-20.5c5.4-5.5,11.4-10.5,17.8-14.7c1-0.7,2-1.3,3-1.9c3.8-2.4,7.8-4.5,11.9-6.4
		c2.7-1.3,5.5-2.5,8.4-3.6l0,0c4.6-1.7,9.2-3.3,13.9-4.5c6.8-1.8,13.8-3.2,20.8-4.1c3.1-0.4,6.2-0.7,9.3-0.9
		c61-4.6,129.6,21.1,165.1,58.6c7.1,7.5,39.6,46.6,14,100.3c-16.1,33.9,48.2,78,63.2,121.5
		C1463.7,4429.7,1397.6,4468.6,1397.1,4469.9z"/>
	<g class="st1">
		<path class="st2" d="M923.8,4326.5h-5.1v3.4h5.9v2.1h-8.6v-12.8h8.6v2.1h-5.9v3.1h5.1V4326.5z"/>
		<path class="st2" d="M931.3,4329.4c0-0.3-0.2-0.6-0.5-0.7c-0.3-0.2-0.8-0.3-1.5-0.5c-2.3-0.5-3.4-1.4-3.4-2.9
			c0-0.8,0.4-1.5,1.1-2.1c0.7-0.6,1.6-0.8,2.7-0.8c1.2,0,2.2,0.3,2.9,0.9s1.1,1.3,1.1,2.2h-2.5c0-0.4-0.1-0.7-0.4-0.9
			c-0.2-0.2-0.6-0.4-1.1-0.4c-0.4,0-0.8,0.1-1,0.3s-0.4,0.4-0.4,0.7c0,0.3,0.1,0.5,0.4,0.7c0.3,0.2,0.7,0.3,1.3,0.4
			c0.6,0.1,1.2,0.3,1.6,0.4c1.3,0.5,2,1.3,2,2.6c0,0.9-0.4,1.6-1.1,2.1c-0.7,0.5-1.7,0.8-2.9,0.8c-0.8,0-1.5-0.1-2.1-0.4
			c-0.6-0.3-1.1-0.7-1.5-1.2c-0.4-0.5-0.5-1-0.5-1.6h2.4c0,0.5,0.2,0.8,0.5,1s0.7,0.4,1.2,0.4c0.5,0,0.9-0.1,1.1-0.3
			C931.1,4329.9,931.3,4329.7,931.3,4329.4z"/>
		<path class="st2" d="M938.4,4320.2v2.3h1.6v1.9h-1.6v4.7c0,0.4,0.1,0.6,0.2,0.8s0.4,0.2,0.8,0.2c0.3,0,0.5,0,0.7-0.1v1.9
			c-0.5,0.2-1,0.2-1.5,0.2c-1.8,0-2.7-0.9-2.7-2.7v-5.1h-1.4v-1.9h1.4v-2.3H938.4z"/>
		<path class="st2" d="M946.9,4332c-0.1-0.2-0.2-0.5-0.3-0.9c-0.6,0.7-1.4,1-2.4,1c-0.9,0-1.7-0.3-2.3-0.8s-0.9-1.2-0.9-2
			c0-1,0.4-1.8,1.1-2.3s1.8-0.8,3.2-0.8h1.2v-0.5c0-0.4-0.1-0.8-0.3-1.1s-0.6-0.4-1.1-0.4c-0.4,0-0.8,0.1-1,0.3s-0.4,0.5-0.4,0.8
			h-2.5c0-0.6,0.2-1.1,0.5-1.5s0.8-0.8,1.4-1.1c0.6-0.3,1.3-0.4,2.1-0.4c1.2,0,2.1,0.3,2.8,0.9c0.7,0.6,1,1.4,1,2.5v4.1
			c0,0.9,0.1,1.6,0.4,2v0.2H946.9z M944.8,4330.2c0.4,0,0.7-0.1,1-0.2c0.3-0.2,0.6-0.4,0.7-0.7v-1.6h-0.9c-1.3,0-1.9,0.4-2,1.3
			l0,0.1c0,0.3,0.1,0.6,0.3,0.8S944.5,4330.2,944.8,4330.2z"/>
		<path class="st2" d="M950.7,4327.2c0-1.5,0.3-2.7,1-3.5s1.6-1.3,2.7-1.3c0.9,0,1.7,0.3,2.3,1v-4.9h2.5v13.5H957l-0.1-1
			c-0.6,0.8-1.4,1.2-2.4,1.2c-1.1,0-2-0.4-2.7-1.3C951,4330,950.7,4328.7,950.7,4327.2z M953.2,4327.4c0,0.9,0.2,1.6,0.5,2.1
			c0.3,0.5,0.8,0.7,1.4,0.7c0.8,0,1.3-0.3,1.7-1v-3.8c-0.3-0.7-0.9-1-1.6-1C953.8,4324.4,953.2,4325.4,953.2,4327.4z"/>
		<path class="st2" d="M964,4332h-2.5v-9.5h2.5V4332z M963.2,4318.6h2.8l-2.4,2.7h-2.1L963.2,4318.6z"/>
		<path class="st2" d="M971.3,4329.4c0-0.3-0.2-0.6-0.5-0.7c-0.3-0.2-0.8-0.3-1.5-0.5c-2.3-0.5-3.4-1.4-3.4-2.9
			c0-0.8,0.4-1.5,1.1-2.1c0.7-0.6,1.6-0.8,2.7-0.8c1.2,0,2.2,0.3,2.9,0.9s1.1,1.3,1.1,2.2h-2.5c0-0.4-0.1-0.7-0.4-0.9
			c-0.2-0.2-0.6-0.4-1.1-0.4c-0.4,0-0.8,0.1-1,0.3s-0.4,0.4-0.4,0.7c0,0.3,0.1,0.5,0.4,0.7c0.3,0.2,0.7,0.3,1.3,0.4
			c0.6,0.1,1.2,0.3,1.6,0.4c1.3,0.5,2,1.3,2,2.6c0,0.9-0.4,1.6-1.1,2.1c-0.7,0.5-1.7,0.8-2.9,0.8c-0.8,0-1.5-0.1-2.1-0.4
			c-0.6-0.3-1.1-0.7-1.5-1.2c-0.4-0.5-0.5-1-0.5-1.6h2.4c0,0.5,0.2,0.8,0.5,1s0.7,0.4,1.2,0.4c0.5,0,0.9-0.1,1.1-0.3
			C971.2,4329.9,971.3,4329.7,971.3,4329.4z"/>
		<path class="st2" d="M978.5,4320.2v2.3h1.6v1.9h-1.6v4.7c0,0.4,0.1,0.6,0.2,0.8s0.4,0.2,0.8,0.2c0.3,0,0.5,0,0.7-0.1v1.9
			c-0.5,0.2-1,0.2-1.5,0.2c-1.8,0-2.7-0.9-2.7-2.7v-5.1h-1.4v-1.9h1.4v-2.3H978.5z"/>
		<path class="st2" d="M981.5,4320c0-0.4,0.1-0.7,0.4-0.9s0.6-0.4,1-0.4c0.4,0,0.8,0.1,1,0.4s0.4,0.6,0.4,0.9c0,0.4-0.1,0.7-0.4,0.9
			s-0.6,0.4-1,0.4s-0.8-0.1-1-0.4S981.5,4320.4,981.5,4320z M984.2,4332h-2.5v-9.5h2.5V4332z"/>
		<path class="st2" d="M990.2,4330.1c0.5,0,0.8-0.1,1.1-0.4s0.4-0.6,0.5-1h2.4c0,0.6-0.2,1.2-0.5,1.8c-0.3,0.5-0.8,1-1.4,1.2
			c-0.6,0.3-1.3,0.4-2,0.4c-1.4,0-2.4-0.4-3.2-1.3c-0.8-0.9-1.2-2.1-1.2-3.6v-0.2c0-1.5,0.4-2.6,1.2-3.5s1.8-1.3,3.2-1.3
			c1.2,0,2.1,0.3,2.9,1c0.7,0.7,1.1,1.6,1.1,2.7h-2.4c0-0.5-0.2-0.9-0.5-1.2c-0.3-0.3-0.7-0.5-1.2-0.5c-0.6,0-1,0.2-1.3,0.6
			c-0.3,0.4-0.5,1.1-0.5,2.1v0.3c0,1,0.1,1.7,0.4,2.1C989.2,4329.9,989.6,4330.1,990.2,4330.1z"/>
		<path class="st2" d="M1001.2,4332c-0.1-0.2-0.2-0.5-0.3-0.9c-0.6,0.7-1.4,1-2.4,1c-0.9,0-1.7-0.3-2.3-0.8s-0.9-1.2-0.9-2
			c0-1,0.4-1.8,1.1-2.3s1.8-0.8,3.2-0.8h1.2v-0.5c0-0.4-0.1-0.8-0.3-1.1s-0.6-0.4-1.1-0.4c-0.4,0-0.8,0.1-1,0.3s-0.4,0.5-0.4,0.8
			h-2.5c0-0.6,0.2-1.1,0.5-1.5s0.8-0.8,1.4-1.1c0.6-0.3,1.3-0.4,2.1-0.4c1.2,0,2.1,0.3,2.8,0.9c0.7,0.6,1,1.4,1,2.5v4.1
			c0,0.9,0.1,1.6,0.4,2v0.2H1001.2z M999.1,4330.2c0.4,0,0.7-0.1,1-0.2c0.3-0.2,0.6-0.4,0.7-0.7v-1.6h-0.9c-1.3,0-1.9,0.4-2,1.3
			l0,0.1c0,0.3,0.1,0.6,0.3,0.8S998.7,4330.2,999.1,4330.2z"/>
		<path class="st2" d="M1009.4,4327.2c0-1.5,0.3-2.7,1-3.5s1.6-1.3,2.7-1.3c0.9,0,1.7,0.3,2.3,1v-4.9h2.5v13.5h-2.3l-0.1-1
			c-0.6,0.8-1.4,1.2-2.4,1.2c-1.1,0-2-0.4-2.7-1.3C1009.7,4330,1009.4,4328.7,1009.4,4327.2z M1011.9,4327.4c0,0.9,0.2,1.6,0.5,2.1
			c0.3,0.5,0.8,0.7,1.4,0.7c0.8,0,1.3-0.3,1.7-1v-3.8c-0.3-0.7-0.9-1-1.6-1C1012.5,4324.4,1011.9,4325.4,1011.9,4327.4z"/>
		<path class="st2" d="M1024.3,4332.2c-1.4,0-2.5-0.4-3.4-1.3s-1.3-2-1.3-3.4v-0.2c0-1,0.2-1.8,0.6-2.6c0.4-0.8,0.9-1.3,1.6-1.7
			c0.7-0.4,1.4-0.6,2.3-0.6c1.3,0,2.3,0.4,3.1,1.2s1.1,2,1.1,3.5v1h-6.1c0.1,0.6,0.3,1.1,0.7,1.5s0.9,0.6,1.6,0.6
			c1,0,1.7-0.4,2.3-1.1l1.2,1.4c-0.4,0.5-0.9,1-1.5,1.3S1025.1,4332.2,1024.3,4332.2z M1024,4324.4c-0.5,0-0.9,0.2-1.2,0.5
			c-0.3,0.3-0.5,0.8-0.6,1.5h3.5v-0.2c0-0.6-0.2-1-0.5-1.3C1025,4324.5,1024.6,4324.4,1024,4324.4z"/>
		<path class="st2" d="M1034.8,4329.4c0-0.3-0.2-0.6-0.5-0.7c-0.3-0.2-0.8-0.3-1.5-0.5c-2.3-0.5-3.4-1.4-3.4-2.9
			c0-0.8,0.4-1.5,1.1-2.1c0.7-0.6,1.6-0.8,2.7-0.8c1.2,0,2.2,0.3,2.9,0.9s1.1,1.3,1.1,2.2h-2.5c0-0.4-0.1-0.7-0.4-0.9
			c-0.2-0.2-0.6-0.4-1.1-0.4c-0.4,0-0.8,0.1-1,0.3s-0.4,0.4-0.4,0.7c0,0.3,0.1,0.5,0.4,0.7c0.3,0.2,0.7,0.3,1.3,0.4
			c0.6,0.1,1.2,0.3,1.6,0.4c1.3,0.5,2,1.3,2,2.6c0,0.9-0.4,1.6-1.1,2.1c-0.7,0.5-1.7,0.8-2.9,0.8c-0.8,0-1.5-0.1-2.1-0.4
			c-0.6-0.3-1.1-0.7-1.5-1.2c-0.4-0.5-0.5-1-0.5-1.6h2.4c0,0.5,0.2,0.8,0.5,1s0.7,0.4,1.2,0.4c0.5,0,0.9-0.1,1.1-0.3
			C1034.7,4329.9,1034.8,4329.7,1034.8,4329.4z"/>
		<path class="st2" d="M1042.9,4330.1c0.5,0,0.8-0.1,1.1-0.4s0.4-0.6,0.5-1h2.4c0,0.6-0.2,1.2-0.5,1.8c-0.3,0.5-0.8,1-1.4,1.2
			c-0.6,0.3-1.3,0.4-2,0.4c-1.4,0-2.4-0.4-3.2-1.3c-0.8-0.9-1.2-2.1-1.2-3.6v-0.2c0-1.5,0.4-2.6,1.2-3.5s1.8-1.3,3.2-1.3
			c1.2,0,2.1,0.3,2.9,1c0.7,0.7,1.1,1.6,1.1,2.7h-2.4c0-0.5-0.2-0.9-0.5-1.2c-0.3-0.3-0.7-0.5-1.2-0.5c-0.6,0-1,0.2-1.3,0.6
			c-0.3,0.4-0.5,1.1-0.5,2.1v0.3c0,1,0.1,1.7,0.4,2.1C1041.8,4329.9,1042.3,4330.1,1042.9,4330.1z"/>
		<path class="st2" d="M1053.6,4324.9c-0.3,0-0.7-0.1-0.9-0.1c-1,0-1.6,0.3-1.9,1v6.2h-2.5v-9.5h2.4l0.1,1.1
			c0.5-0.9,1.2-1.3,2.1-1.3c0.3,0,0.5,0,0.8,0.1L1053.6,4324.9z"/>
		<path class="st2" d="M1054.9,4320c0-0.4,0.1-0.7,0.4-0.9s0.6-0.4,1-0.4c0.4,0,0.8,0.1,1,0.4s0.4,0.6,0.4,0.9
			c0,0.4-0.1,0.7-0.4,0.9s-0.6,0.4-1,0.4s-0.8-0.1-1-0.4S1054.9,4320.4,1054.9,4320z M1057.5,4332h-2.5v-9.5h2.5V4332z"/>
		<path class="st2" d="M1068.2,4327.3c0,1.5-0.3,2.6-1,3.5c-0.7,0.9-1.6,1.3-2.7,1.3c-1,0-1.7-0.3-2.3-1v4.5h-2.5v-13.2h2.4l0.1,0.9
			c0.6-0.7,1.4-1.1,2.4-1.1c1.2,0,2.1,0.4,2.7,1.3s1,2.1,1,3.6V4327.3z M1065.7,4327.1c0-0.9-0.2-1.6-0.5-2s-0.8-0.7-1.4-0.7
			c-0.8,0-1.3,0.3-1.6,0.9v3.9c0.3,0.6,0.9,0.9,1.7,0.9C1065.1,4330.1,1065.7,4329.1,1065.7,4327.1z"/>
		<path class="st2" d="M1072.8,4320.2v2.3h1.6v1.9h-1.6v4.7c0,0.4,0.1,0.6,0.2,0.8s0.4,0.2,0.8,0.2c0.3,0,0.5,0,0.7-0.1v1.9
			c-0.5,0.2-1,0.2-1.5,0.2c-1.8,0-2.7-0.9-2.7-2.7v-5.1h-1.4v-1.9h1.4v-2.3H1072.8z"/>
		<path class="st2" d="M1075.8,4320c0-0.4,0.1-0.7,0.4-0.9s0.6-0.4,1-0.4c0.4,0,0.8,0.1,1,0.4s0.4,0.6,0.4,0.9
			c0,0.4-0.1,0.7-0.4,0.9s-0.6,0.4-1,0.4s-0.8-0.1-1-0.4S1075.8,4320.4,1075.8,4320z M1078.5,4332h-2.5v-9.5h2.5V4332z"/>
		<path class="st2" d="M1084.2,4328.9l1.8-6.4h2.7l-3.2,9.5h-2.4l-3.2-9.5h2.7L1084.2,4328.9z"/>
		<path class="st2" d="M1095.1,4332c-0.1-0.2-0.2-0.5-0.3-0.9c-0.6,0.7-1.4,1-2.4,1c-0.9,0-1.7-0.3-2.3-0.8s-0.9-1.2-0.9-2
			c0-1,0.4-1.8,1.1-2.3s1.8-0.8,3.2-0.8h1.2v-0.5c0-0.4-0.1-0.8-0.3-1.1s-0.6-0.4-1.1-0.4c-0.4,0-0.8,0.1-1,0.3s-0.4,0.5-0.4,0.8
			h-2.5c0-0.6,0.2-1.1,0.5-1.5s0.8-0.8,1.4-1.1c0.6-0.3,1.3-0.4,2.1-0.4c1.2,0,2.1,0.3,2.8,0.9c0.7,0.6,1,1.4,1,2.5v4.1
			c0,0.9,0.1,1.6,0.4,2v0.2H1095.1z M1093,4330.2c0.4,0,0.7-0.1,1-0.2c0.3-0.2,0.6-0.4,0.7-0.7v-1.6h-0.9c-1.3,0-1.9,0.4-2,1.3
			l0,0.1c0,0.3,0.1,0.6,0.3,0.8S1092.6,4330.2,1093,4330.2z"/>
		<path class="st2" d="M1103.3,4327.2c0-0.9,0.2-1.8,0.5-2.5s0.9-1.3,1.6-1.7s1.5-0.6,2.4-0.6c1.3,0,2.3,0.4,3.1,1.2
			s1.3,1.9,1.4,3.2l0,0.7c0,1.5-0.4,2.6-1.2,3.5c-0.8,0.9-1.9,1.3-3.3,1.3s-2.5-0.4-3.3-1.3s-1.2-2.1-1.2-3.6V4327.2z
			 M1105.9,4327.3c0,0.9,0.2,1.6,0.5,2.1s0.8,0.7,1.5,0.7c0.6,0,1.1-0.2,1.4-0.7c0.3-0.5,0.5-1.2,0.5-2.3c0-0.9-0.2-1.6-0.5-2.1
			c-0.3-0.5-0.8-0.7-1.5-0.7c-0.6,0-1.1,0.2-1.4,0.7S1105.9,4326.3,1105.9,4327.3z"/>
		<path class="st2" d="M1118,4327.2c0-1.5,0.3-2.7,1-3.5s1.6-1.3,2.7-1.3c0.9,0,1.7,0.3,2.3,1v-4.9h2.5v13.5h-2.3l-0.1-1
			c-0.6,0.8-1.4,1.2-2.4,1.2c-1.1,0-2-0.4-2.7-1.3C1118.3,4330,1118,4328.7,1118,4327.2z M1120.5,4327.4c0,0.9,0.2,1.6,0.5,2.1
			c0.3,0.5,0.8,0.7,1.4,0.7c0.8,0,1.3-0.3,1.7-1v-3.8c-0.3-0.7-0.9-1-1.6-1C1121.1,4324.4,1120.5,4325.4,1120.5,4327.4z"/>
		<path class="st2" d="M1132.9,4332.2c-1.4,0-2.5-0.4-3.4-1.3s-1.3-2-1.3-3.4v-0.2c0-1,0.2-1.8,0.6-2.6c0.4-0.8,0.9-1.3,1.6-1.7
			c0.7-0.4,1.4-0.6,2.3-0.6c1.3,0,2.3,0.4,3.1,1.2s1.1,2,1.1,3.5v1h-6.1c0.1,0.6,0.3,1.1,0.7,1.5s0.9,0.6,1.6,0.6
			c1,0,1.7-0.4,2.3-1.1l1.2,1.4c-0.4,0.5-0.9,1-1.5,1.3S1133.7,4332.2,1132.9,4332.2z M1132.6,4324.4c-0.5,0-0.9,0.2-1.2,0.5
			c-0.3,0.3-0.5,0.8-0.6,1.5h3.5v-0.2c0-0.6-0.2-1-0.5-1.3C1133.6,4324.5,1133.2,4324.4,1132.6,4324.4z"/>
		<path class="st2" d="M1137.9,4327.2c0-1.5,0.3-2.7,1-3.5s1.6-1.3,2.7-1.3c0.9,0,1.7,0.3,2.3,1v-4.9h2.5v13.5h-2.3l-0.1-1
			c-0.6,0.8-1.4,1.2-2.4,1.2c-1.1,0-2-0.4-2.7-1.3C1138.2,4330,1137.9,4328.7,1137.9,4327.2z M1140.4,4327.4c0,0.9,0.2,1.6,0.5,2.1
			c0.3,0.5,0.8,0.7,1.4,0.7c0.8,0,1.3-0.3,1.7-1v-3.8c-0.3-0.7-0.9-1-1.6-1C1141,4324.4,1140.4,4325.4,1140.4,4327.4z"/>
		<path class="st2" d="M1154.1,4331c-0.6,0.8-1.5,1.1-2.6,1.1c-1,0-1.8-0.3-2.3-0.9s-0.8-1.4-0.8-2.6v-6.2h2.5v6.2
			c0,1,0.5,1.5,1.4,1.5c0.9,0,1.5-0.3,1.8-0.9v-6.7h2.5v9.5h-2.4L1154.1,4331z"/>
		<path class="st2" d="M1162.4,4330.1c0.5,0,0.8-0.1,1.1-0.4s0.4-0.6,0.5-1h2.4c0,0.6-0.2,1.2-0.5,1.8c-0.3,0.5-0.8,1-1.4,1.2
			c-0.6,0.3-1.3,0.4-2,0.4c-1.4,0-2.4-0.4-3.2-1.3c-0.8-0.9-1.2-2.1-1.2-3.6v-0.2c0-1.5,0.4-2.6,1.2-3.5s1.8-1.3,3.2-1.3
			c1.2,0,2.1,0.3,2.9,1c0.7,0.7,1.1,1.6,1.1,2.7h-2.4c0-0.5-0.2-0.9-0.5-1.2c-0.3-0.3-0.7-0.5-1.2-0.5c-0.6,0-1,0.2-1.3,0.6
			c-0.3,0.4-0.5,1.1-0.5,2.1v0.3c0,1,0.1,1.7,0.4,2.1C1161.4,4329.9,1161.8,4330.1,1162.4,4330.1z"/>
		<path class="st2" d="M1170.9,4320.2v2.3h1.6v1.9h-1.6v4.7c0,0.4,0.1,0.6,0.2,0.8s0.4,0.2,0.8,0.2c0.3,0,0.5,0,0.7-0.1v1.9
			c-0.5,0.2-1,0.2-1.5,0.2c-1.8,0-2.7-0.9-2.7-2.7v-5.1h-1.4v-1.9h1.4v-2.3H1170.9z"/>
		<path class="st2" d="M1173.9,4320c0-0.4,0.1-0.7,0.4-0.9s0.6-0.4,1-0.4c0.4,0,0.8,0.1,1,0.4s0.4,0.6,0.4,0.9
			c0,0.4-0.1,0.7-0.4,0.9s-0.6,0.4-1,0.4s-0.8-0.1-1-0.4S1173.9,4320.4,1173.9,4320z M1176.6,4332h-2.5v-9.5h2.5V4332z"/>
		<path class="st2" d="M1182.3,4328.9l1.8-6.4h2.7l-3.2,9.5h-2.4l-3.2-9.5h2.7L1182.3,4328.9z"/>
		<path class="st2" d="M1193.2,4332c-0.1-0.2-0.2-0.5-0.3-0.9c-0.6,0.7-1.4,1-2.4,1c-0.9,0-1.7-0.3-2.3-0.8s-0.9-1.2-0.9-2
			c0-1,0.4-1.8,1.1-2.3s1.8-0.8,3.2-0.8h1.2v-0.5c0-0.4-0.1-0.8-0.3-1.1s-0.6-0.4-1.1-0.4c-0.4,0-0.8,0.1-1,0.3s-0.4,0.5-0.4,0.8
			h-2.5c0-0.6,0.2-1.1,0.5-1.5s0.8-0.8,1.4-1.1c0.6-0.3,1.3-0.4,2.1-0.4c1.2,0,2.1,0.3,2.8,0.9c0.7,0.6,1,1.4,1,2.5v4.1
			c0,0.9,0.1,1.6,0.4,2v0.2H1193.2z M1191.1,4330.2c0.4,0,0.7-0.1,1-0.2c0.3-0.2,0.6-0.4,0.7-0.7v-1.6h-0.9c-1.3,0-1.9,0.4-2,1.3
			l0,0.1c0,0.3,0.1,0.6,0.3,0.8S1190.7,4330.2,1191.1,4330.2z"/>
		<path class="st2" d="M1198,4335.2l-1.3-0.7l0.3-0.6c0.4-0.7,0.6-1.4,0.6-2.1v-2h2.1l0,1.8c0,0.7-0.2,1.3-0.5,2
			S1198.5,4334.8,1198,4335.2z"/>
		<path class="st2" d="M1208.9,4332h-2.5v-13.5h2.5V4332z"/>
		<path class="st2" d="M1216.5,4332c-0.1-0.2-0.2-0.5-0.3-0.9c-0.6,0.7-1.4,1-2.4,1c-0.9,0-1.7-0.3-2.3-0.8s-0.9-1.2-0.9-2
			c0-1,0.4-1.8,1.1-2.3s1.8-0.8,3.2-0.8h1.2v-0.5c0-0.4-0.1-0.8-0.3-1.1s-0.6-0.4-1.1-0.4c-0.4,0-0.8,0.1-1,0.3s-0.4,0.5-0.4,0.8
			h-2.5c0-0.6,0.2-1.1,0.5-1.5s0.8-0.8,1.4-1.1c0.6-0.3,1.3-0.4,2.1-0.4c1.2,0,2.1,0.3,2.8,0.9c0.7,0.6,1,1.4,1,2.5v4.1
			c0,0.9,0.1,1.6,0.4,2v0.2H1216.5z M1214.4,4330.2c0.4,0,0.7-0.1,1-0.2c0.3-0.2,0.6-0.4,0.7-0.7v-1.6h-0.9c-1.3,0-1.9,0.4-2,1.3
			l0,0.1c0,0.3,0.1,0.6,0.3,0.8S1214,4330.2,1214.4,4330.2z"/>
		<path class="st2" d="M1229.1,4330.1c0.5,0,0.8-0.1,1.1-0.4s0.4-0.6,0.5-1h2.4c0,0.6-0.2,1.2-0.5,1.8c-0.3,0.5-0.8,1-1.4,1.2
			c-0.6,0.3-1.3,0.4-2,0.4c-1.4,0-2.4-0.4-3.2-1.3c-0.8-0.9-1.2-2.1-1.2-3.6v-0.2c0-1.5,0.4-2.6,1.2-3.5s1.8-1.3,3.2-1.3
			c1.2,0,2.1,0.3,2.9,1c0.7,0.7,1.1,1.6,1.1,2.7h-2.4c0-0.5-0.2-0.9-0.5-1.2c-0.3-0.3-0.7-0.5-1.2-0.5c-0.6,0-1,0.2-1.3,0.6
			c-0.3,0.4-0.5,1.1-0.5,2.1v0.3c0,1,0.1,1.7,0.4,2.1C1228,4329.9,1228.5,4330.1,1229.1,4330.1z"/>
		<path class="st2" d="M1240.2,4331c-0.6,0.8-1.5,1.1-2.6,1.1c-1,0-1.8-0.3-2.3-0.9s-0.8-1.4-0.8-2.6v-6.2h2.5v6.2
			c0,1,0.5,1.5,1.4,1.5c0.9,0,1.5-0.3,1.8-0.9v-6.7h2.5v9.5h-2.4L1240.2,4331z"/>
		<path class="st2" d="M1250.1,4332c-0.1-0.2-0.2-0.5-0.3-0.9c-0.6,0.7-1.4,1-2.4,1c-0.9,0-1.7-0.3-2.3-0.8s-0.9-1.2-0.9-2
			c0-1,0.4-1.8,1.1-2.3s1.8-0.8,3.2-0.8h1.2v-0.5c0-0.4-0.1-0.8-0.3-1.1s-0.6-0.4-1.1-0.4c-0.4,0-0.8,0.1-1,0.3s-0.4,0.5-0.4,0.8
			h-2.5c0-0.6,0.2-1.1,0.5-1.5s0.8-0.8,1.4-1.1c0.6-0.3,1.3-0.4,2.1-0.4c1.2,0,2.1,0.3,2.8,0.9c0.7,0.6,1,1.4,1,2.5v4.1
			c0,0.9,0.1,1.6,0.4,2v0.2H1250.1z M1248,4330.2c0.4,0,0.7-0.1,1-0.2c0.3-0.2,0.6-0.4,0.7-0.7v-1.6h-0.9c-1.3,0-1.9,0.4-2,1.3
			l0,0.1c0,0.3,0.1,0.6,0.3,0.8S1247.6,4330.2,1248,4330.2z"/>
		<path class="st2" d="M1256.9,4332h-2.5v-13.5h2.5V4332z"/>
	</g>
	<g class="st1">
		<path class="st2" d="M919,4345.2v2.3h1.6v1.9H919v4.7c0,0.4,0.1,0.6,0.2,0.8s0.4,0.2,0.8,0.2c0.3,0,0.5,0,0.7-0.1v1.9
			c-0.5,0.2-1,0.2-1.5,0.2c-1.8,0-2.7-0.9-2.7-2.7v-5.1h-1.4v-1.9h1.4v-2.3H919z"/>
		<path class="st2" d="M927.4,4349.9c-0.3,0-0.7-0.1-0.9-0.1c-1,0-1.6,0.3-1.9,1v6.2h-2.5v-9.5h2.4l0.1,1.1c0.5-0.9,1.2-1.3,2.1-1.3
			c0.3,0,0.5,0,0.8,0.1L927.4,4349.9z"/>
		<path class="st2" d="M933.9,4357c-0.1-0.2-0.2-0.5-0.3-0.9c-0.6,0.7-1.4,1-2.4,1c-0.9,0-1.7-0.3-2.3-0.8s-0.9-1.2-0.9-2
			c0-1,0.4-1.8,1.1-2.3s1.8-0.8,3.2-0.8h1.2v-0.5c0-0.4-0.1-0.8-0.3-1.1s-0.6-0.4-1.1-0.4c-0.4,0-0.8,0.1-1,0.3s-0.4,0.5-0.4,0.8
			h-2.5c0-0.6,0.2-1.1,0.5-1.5s0.8-0.8,1.4-1.1c0.6-0.3,1.3-0.4,2.1-0.4c1.2,0,2.1,0.3,2.8,0.9c0.7,0.6,1,1.4,1,2.5v4.1
			c0,0.9,0.1,1.6,0.4,2v0.2H933.9z M931.8,4355.2c0.4,0,0.7-0.1,1-0.2c0.3-0.2,0.6-0.4,0.7-0.7v-1.6h-0.9c-1.3,0-1.9,0.4-2,1.3
			l0,0.1c0,0.3,0.1,0.6,0.3,0.8S931.4,4355.2,931.8,4355.2z"/>
		<path class="st2" d="M946.6,4352.3c0,1.5-0.3,2.7-1,3.6c-0.7,0.9-1.6,1.3-2.7,1.3c-1,0-1.9-0.4-2.5-1.2l-0.1,1H938v-13.5h2.5v4.8
			c0.6-0.7,1.4-1,2.3-1c1.2,0,2.1,0.4,2.7,1.3c0.7,0.9,1,2.1,1,3.6V4352.3z M944,4352.1c0-1-0.2-1.7-0.5-2.1
			c-0.3-0.4-0.8-0.7-1.4-0.7c-0.8,0-1.4,0.3-1.7,1v3.8c0.3,0.7,0.9,1,1.7,1c0.8,0,1.4-0.4,1.6-1.2C944,4353.5,944,4352.9,944,4352.1
			z"/>
		<path class="st2" d="M953.7,4357c-0.1-0.2-0.2-0.5-0.3-0.9c-0.6,0.7-1.4,1-2.4,1c-0.9,0-1.7-0.3-2.3-0.8s-0.9-1.2-0.9-2
			c0-1,0.4-1.8,1.1-2.3s1.8-0.8,3.2-0.8h1.2v-0.5c0-0.4-0.1-0.8-0.3-1.1s-0.6-0.4-1.1-0.4c-0.4,0-0.8,0.1-1,0.3s-0.4,0.5-0.4,0.8
			H948c0-0.6,0.2-1.1,0.5-1.5s0.8-0.8,1.4-1.1c0.6-0.3,1.3-0.4,2.1-0.4c1.2,0,2.1,0.3,2.8,0.9c0.7,0.6,1,1.4,1,2.5v4.1
			c0,0.9,0.1,1.6,0.4,2v0.2H953.7z M951.6,4355.2c0.4,0,0.7-0.1,1-0.2c0.3-0.2,0.6-0.4,0.7-0.7v-1.6h-0.9c-1.3,0-1.9,0.4-2,1.3
			l0,0.1c0,0.3,0.1,0.6,0.3,0.8S951.2,4355.2,951.6,4355.2z"/>
		<path class="st2" d="M960.5,4347.5v10c0,1-0.3,1.9-0.8,2.4c-0.6,0.6-1.4,0.9-2.4,0.9c-0.4,0-0.9,0-1.3-0.1v-2
			c0.3,0.1,0.6,0.1,0.8,0.1c0.8,0,1.2-0.4,1.2-1.2v-10H960.5z M957.7,4345c0-0.4,0.1-0.7,0.4-0.9s0.6-0.4,1-0.4s0.8,0.1,1,0.4
			s0.4,0.6,0.4,0.9c0,0.4-0.1,0.7-0.4,0.9s-0.6,0.4-1,0.4s-0.8-0.1-1-0.4S957.7,4345.4,957.7,4345z"/>
		<path class="st2" d="M968,4357c-0.1-0.2-0.2-0.5-0.3-0.9c-0.6,0.7-1.4,1-2.4,1c-0.9,0-1.7-0.3-2.3-0.8s-0.9-1.2-0.9-2
			c0-1,0.4-1.8,1.1-2.3s1.8-0.8,3.2-0.8h1.2v-0.5c0-0.4-0.1-0.8-0.3-1.1s-0.6-0.4-1.1-0.4c-0.4,0-0.8,0.1-1,0.3s-0.4,0.5-0.4,0.8
			h-2.5c0-0.6,0.2-1.1,0.5-1.5s0.8-0.8,1.4-1.1c0.6-0.3,1.3-0.4,2.1-0.4c1.2,0,2.1,0.3,2.8,0.9c0.7,0.6,1,1.4,1,2.5v4.1
			c0,0.9,0.1,1.6,0.4,2v0.2H968z M965.9,4355.2c0.4,0,0.7-0.1,1-0.2c0.3-0.2,0.6-0.4,0.7-0.7v-1.6h-0.9c-1.3,0-1.9,0.4-2,1.3l0,0.1
			c0,0.3,0.1,0.6,0.3,0.8S965.5,4355.2,965.9,4355.2z"/>
		<path class="st2" d="M980.6,4355.1c0.5,0,0.8-0.1,1.1-0.4s0.4-0.6,0.5-1h2.4c0,0.6-0.2,1.2-0.5,1.8c-0.3,0.5-0.8,1-1.4,1.2
			c-0.6,0.3-1.3,0.4-2,0.4c-1.4,0-2.4-0.4-3.2-1.3c-0.8-0.9-1.2-2.1-1.2-3.6v-0.2c0-1.5,0.4-2.6,1.2-3.5s1.8-1.3,3.2-1.3
			c1.2,0,2.1,0.3,2.9,1c0.7,0.7,1.1,1.6,1.1,2.7h-2.4c0-0.5-0.2-0.9-0.5-1.2c-0.3-0.3-0.7-0.5-1.2-0.5c-0.6,0-1,0.2-1.3,0.6
			c-0.3,0.4-0.5,1.1-0.5,2.1v0.3c0,1,0.1,1.7,0.4,2.1C979.5,4354.9,979.9,4355.1,980.6,4355.1z"/>
		<path class="st2" d="M985.6,4352.2c0-0.9,0.2-1.8,0.5-2.5s0.9-1.3,1.6-1.7s1.5-0.6,2.4-0.6c1.3,0,2.3,0.4,3.1,1.2s1.3,1.9,1.4,3.2
			l0,0.7c0,1.5-0.4,2.6-1.2,3.5c-0.8,0.9-1.9,1.3-3.3,1.3s-2.5-0.4-3.3-1.3s-1.2-2.1-1.2-3.6V4352.2z M988.1,4352.3
			c0,0.9,0.2,1.6,0.5,2.1s0.8,0.7,1.5,0.7c0.6,0,1.1-0.2,1.4-0.7c0.3-0.5,0.5-1.2,0.5-2.3c0-0.9-0.2-1.6-0.5-2.1
			c-0.3-0.5-0.8-0.7-1.5-0.7c-0.6,0-1.1,0.2-1.4,0.7S988.1,4351.3,988.1,4352.3z"/>
		<path class="st2" d="M998.5,4347.5l0.1,1.1c0.7-0.8,1.6-1.3,2.7-1.3c1,0,1.8,0.3,2.2,0.9s0.7,1.5,0.8,2.7v6.1h-2.5v-6.1
			c0-0.5-0.1-0.9-0.4-1.2c-0.2-0.2-0.6-0.4-1.2-0.4c-0.7,0-1.3,0.3-1.6,0.9v6.7h-2.5v-9.5H998.5z"/>
		<path class="st2" d="M1014.7,4355.1c0.5,0,0.8-0.1,1.1-0.4s0.4-0.6,0.5-1h2.4c0,0.6-0.2,1.2-0.5,1.8c-0.3,0.5-0.8,1-1.4,1.2
			c-0.6,0.3-1.3,0.4-2,0.4c-1.4,0-2.4-0.4-3.2-1.3c-0.8-0.9-1.2-2.1-1.2-3.6v-0.2c0-1.5,0.4-2.6,1.2-3.5s1.8-1.3,3.2-1.3
			c1.2,0,2.1,0.3,2.9,1c0.7,0.7,1.1,1.6,1.1,2.7h-2.4c0-0.5-0.2-0.9-0.5-1.2c-0.3-0.3-0.7-0.5-1.2-0.5c-0.6,0-1,0.2-1.3,0.6
			c-0.3,0.4-0.5,1.1-0.5,2.1v0.3c0,1,0.1,1.7,0.4,2.1C1013.6,4354.9,1014.1,4355.1,1014.7,4355.1z"/>
		<path class="st2" d="M1025.6,4357c-0.1-0.2-0.2-0.5-0.3-0.9c-0.6,0.7-1.4,1-2.4,1c-0.9,0-1.7-0.3-2.3-0.8s-0.9-1.2-0.9-2
			c0-1,0.4-1.8,1.1-2.3s1.8-0.8,3.2-0.8h1.2v-0.5c0-0.4-0.1-0.8-0.3-1.1s-0.6-0.4-1.1-0.4c-0.4,0-0.8,0.1-1,0.3s-0.4,0.5-0.4,0.8
			h-2.5c0-0.6,0.2-1.1,0.5-1.5s0.8-0.8,1.4-1.1c0.6-0.3,1.3-0.4,2.1-0.4c1.2,0,2.1,0.3,2.8,0.9c0.7,0.6,1,1.4,1,2.5v4.1
			c0,0.9,0.1,1.6,0.4,2v0.2H1025.6z M1023.5,4355.2c0.4,0,0.7-0.1,1-0.2c0.3-0.2,0.6-0.4,0.7-0.7v-1.6h-0.9c-1.3,0-1.9,0.4-2,1.3
			l0,0.1c0,0.3,0.1,0.6,0.3,0.8S1023.1,4355.2,1023.5,4355.2z"/>
		<path class="st2" d="M1035.1,4349.9c-0.3,0-0.7-0.1-0.9-0.1c-1,0-1.6,0.3-1.9,1v6.2h-2.5v-9.5h2.4l0.1,1.1
			c0.5-0.9,1.2-1.3,2.1-1.3c0.3,0,0.5,0,0.8,0.1L1035.1,4349.9z"/>
		<path class="st2" d="M1041.6,4357c-0.1-0.2-0.2-0.5-0.3-0.9c-0.6,0.7-1.4,1-2.4,1c-0.9,0-1.7-0.3-2.3-0.8s-0.9-1.2-0.9-2
			c0-1,0.4-1.8,1.1-2.3s1.8-0.8,3.2-0.8h1.2v-0.5c0-0.4-0.1-0.8-0.3-1.1s-0.6-0.4-1.1-0.4c-0.4,0-0.8,0.1-1,0.3s-0.4,0.5-0.4,0.8
			h-2.5c0-0.6,0.2-1.1,0.5-1.5s0.8-0.8,1.4-1.1c0.6-0.3,1.3-0.4,2.1-0.4c1.2,0,2.1,0.3,2.8,0.9c0.7,0.6,1,1.4,1,2.5v4.1
			c0,0.9,0.1,1.6,0.4,2v0.2H1041.6z M1039.5,4355.2c0.4,0,0.7-0.1,1-0.2c0.3-0.2,0.6-0.4,0.7-0.7v-1.6h-0.9c-1.3,0-1.9,0.4-2,1.3
			l0,0.1c0,0.3,0.1,0.6,0.3,0.8S1039.1,4355.2,1039.5,4355.2z"/>
		<path class="st2" d="M1049.7,4355.1c0.5,0,0.8-0.1,1.1-0.4s0.4-0.6,0.5-1h2.4c0,0.6-0.2,1.2-0.5,1.8c-0.3,0.5-0.8,1-1.4,1.2
			c-0.6,0.3-1.3,0.4-2,0.4c-1.4,0-2.4-0.4-3.2-1.3c-0.8-0.9-1.2-2.1-1.2-3.6v-0.2c0-1.5,0.4-2.6,1.2-3.5s1.8-1.3,3.2-1.3
			c1.2,0,2.1,0.3,2.9,1c0.7,0.7,1.1,1.6,1.1,2.7h-2.4c0-0.5-0.2-0.9-0.5-1.2c-0.3-0.3-0.7-0.5-1.2-0.5c-0.6,0-1,0.2-1.3,0.6
			c-0.3,0.4-0.5,1.1-0.5,2.1v0.3c0,1,0.1,1.7,0.4,2.1C1048.6,4354.9,1049.1,4355.1,1049.7,4355.1z"/>
		<path class="st2" d="M1058.1,4345.2v2.3h1.6v1.9h-1.6v4.7c0,0.4,0.1,0.6,0.2,0.8s0.4,0.2,0.8,0.2c0.3,0,0.5,0,0.7-0.1v1.9
			c-0.5,0.2-1,0.2-1.5,0.2c-1.8,0-2.7-0.9-2.7-2.7v-5.1h-1.4v-1.9h1.4v-2.3H1058.1z"/>
		<path class="st2" d="M1065.6,4357.2c-1.4,0-2.5-0.4-3.4-1.3s-1.3-2-1.3-3.4v-0.2c0-1,0.2-1.8,0.6-2.6c0.4-0.8,0.9-1.3,1.6-1.7
			c0.7-0.4,1.4-0.6,2.3-0.6c1.3,0,2.3,0.4,3.1,1.2s1.1,2,1.1,3.5v1h-6.1c0.1,0.6,0.3,1.1,0.7,1.5s0.9,0.6,1.6,0.6
			c1,0,1.7-0.4,2.3-1.1l1.2,1.4c-0.4,0.5-0.9,1-1.5,1.3S1066.4,4357.2,1065.6,4357.2z M1065.3,4349.4c-0.5,0-0.9,0.2-1.2,0.5
			c-0.3,0.3-0.5,0.8-0.6,1.5h3.5v-0.2c0-0.6-0.2-1-0.5-1.3C1066.2,4349.5,1065.8,4349.4,1065.3,4349.4z"/>
		<path class="st2" d="M1076.3,4349.9c-0.3,0-0.7-0.1-0.9-0.1c-1,0-1.6,0.3-1.9,1v6.2h-2.5v-9.5h2.4l0.1,1.1
			c0.5-0.9,1.2-1.3,2.1-1.3c0.3,0,0.5,0,0.8,0.1L1076.3,4349.9z"/>
		<path class="st2" d="M1080.2,4357h-2.5v-9.5h2.5V4357z M1079.5,4343.6h2.8l-2.4,2.7h-2.1L1079.5,4343.6z"/>
		<path class="st2" d="M1087.6,4354.4c0-0.3-0.2-0.6-0.5-0.7c-0.3-0.2-0.8-0.3-1.5-0.5c-2.3-0.5-3.4-1.4-3.4-2.9
			c0-0.8,0.4-1.5,1.1-2.1c0.7-0.6,1.6-0.8,2.7-0.8c1.2,0,2.2,0.3,2.9,0.9s1.1,1.3,1.1,2.2h-2.5c0-0.4-0.1-0.7-0.4-0.9
			c-0.2-0.2-0.6-0.4-1.1-0.4c-0.4,0-0.8,0.1-1,0.3s-0.4,0.4-0.4,0.7c0,0.3,0.1,0.5,0.4,0.7c0.3,0.2,0.7,0.3,1.3,0.4
			c0.6,0.1,1.2,0.3,1.6,0.4c1.3,0.5,2,1.3,2,2.6c0,0.9-0.4,1.6-1.1,2.1c-0.7,0.5-1.7,0.8-2.9,0.8c-0.8,0-1.5-0.1-2.1-0.4
			c-0.6-0.3-1.1-0.7-1.5-1.2c-0.4-0.5-0.5-1-0.5-1.6h2.4c0,0.5,0.2,0.8,0.5,1s0.7,0.4,1.2,0.4c0.5,0,0.9-0.1,1.1-0.3
			C1087.4,4354.9,1087.6,4354.7,1087.6,4354.4z"/>
		<path class="st2" d="M1094.7,4345.2v2.3h1.6v1.9h-1.6v4.7c0,0.4,0.1,0.6,0.2,0.8s0.4,0.2,0.8,0.2c0.3,0,0.5,0,0.7-0.1v1.9
			c-0.5,0.2-1,0.2-1.5,0.2c-1.8,0-2.7-0.9-2.7-2.7v-5.1h-1.4v-1.9h1.4v-2.3H1094.7z"/>
		<path class="st2" d="M1097.7,4345c0-0.4,0.1-0.7,0.4-0.9s0.6-0.4,1-0.4c0.4,0,0.8,0.1,1,0.4s0.4,0.6,0.4,0.9
			c0,0.4-0.1,0.7-0.4,0.9s-0.6,0.4-1,0.4s-0.8-0.1-1-0.4S1097.7,4345.4,1097.7,4345z M1100.4,4357h-2.5v-9.5h2.5V4357z"/>
		<path class="st2" d="M1106.5,4355.1c0.5,0,0.8-0.1,1.1-0.4s0.4-0.6,0.5-1h2.4c0,0.6-0.2,1.2-0.5,1.8c-0.3,0.5-0.8,1-1.4,1.2
			c-0.6,0.3-1.3,0.4-2,0.4c-1.4,0-2.4-0.4-3.2-1.3c-0.8-0.9-1.2-2.1-1.2-3.6v-0.2c0-1.5,0.4-2.6,1.2-3.5s1.8-1.3,3.2-1.3
			c1.2,0,2.1,0.3,2.9,1c0.7,0.7,1.1,1.6,1.1,2.7h-2.4c0-0.5-0.2-0.9-0.5-1.2c-0.3-0.3-0.7-0.5-1.2-0.5c-0.6,0-1,0.2-1.3,0.6
			c-0.3,0.4-0.5,1.1-0.5,2.1v0.3c0,1,0.1,1.7,0.4,2.1C1105.4,4354.9,1105.9,4355.1,1106.5,4355.1z"/>
		<path class="st2" d="M1117.4,4357c-0.1-0.2-0.2-0.5-0.3-0.9c-0.6,0.7-1.4,1-2.4,1c-0.9,0-1.7-0.3-2.3-0.8s-0.9-1.2-0.9-2
			c0-1,0.4-1.8,1.1-2.3s1.8-0.8,3.2-0.8h1.2v-0.5c0-0.4-0.1-0.8-0.3-1.1s-0.6-0.4-1.1-0.4c-0.4,0-0.8,0.1-1,0.3s-0.4,0.5-0.4,0.8
			h-2.5c0-0.6,0.2-1.1,0.5-1.5s0.8-0.8,1.4-1.1c0.6-0.3,1.3-0.4,2.1-0.4c1.2,0,2.1,0.3,2.8,0.9c0.7,0.6,1,1.4,1,2.5v4.1
			c0,0.9,0.1,1.6,0.4,2v0.2H1117.4z M1115.3,4355.2c0.4,0,0.7-0.1,1-0.2c0.3-0.2,0.6-0.4,0.7-0.7v-1.6h-0.9c-1.3,0-1.9,0.4-2,1.3
			l0,0.1c0,0.3,0.1,0.6,0.3,0.8S1114.9,4355.2,1115.3,4355.2z"/>
		<path class="st2" d="M1126.7,4354.4c0-0.3-0.2-0.6-0.5-0.7c-0.3-0.2-0.8-0.3-1.5-0.5c-2.3-0.5-3.4-1.4-3.4-2.9
			c0-0.8,0.4-1.5,1.1-2.1c0.7-0.6,1.6-0.8,2.7-0.8c1.2,0,2.2,0.3,2.9,0.9s1.1,1.3,1.1,2.2h-2.5c0-0.4-0.1-0.7-0.4-0.9
			c-0.2-0.2-0.6-0.4-1.1-0.4c-0.4,0-0.8,0.1-1,0.3s-0.4,0.4-0.4,0.7c0,0.3,0.1,0.5,0.4,0.7c0.3,0.2,0.7,0.3,1.3,0.4
			c0.6,0.1,1.2,0.3,1.6,0.4c1.3,0.5,2,1.3,2,2.6c0,0.9-0.4,1.6-1.1,2.1c-0.7,0.5-1.7,0.8-2.9,0.8c-0.8,0-1.5-0.1-2.1-0.4
			c-0.6-0.3-1.1-0.7-1.5-1.2c-0.4-0.5-0.5-1-0.5-1.6h2.4c0,0.5,0.2,0.8,0.5,1s0.7,0.4,1.2,0.4c0.5,0,0.9-0.1,1.1-0.3
			C1126.6,4354.9,1126.7,4354.7,1126.7,4354.4z"/>
		<path class="st2" d="M1139.3,4355.1c0.5,0,0.8-0.1,1.1-0.4s0.4-0.6,0.5-1h2.4c0,0.6-0.2,1.2-0.5,1.8c-0.3,0.5-0.8,1-1.4,1.2
			c-0.6,0.3-1.3,0.4-2,0.4c-1.4,0-2.4-0.4-3.2-1.3c-0.8-0.9-1.2-2.1-1.2-3.6v-0.2c0-1.5,0.4-2.6,1.2-3.5s1.8-1.3,3.2-1.3
			c1.2,0,2.1,0.3,2.9,1c0.7,0.7,1.1,1.6,1.1,2.7h-2.4c0-0.5-0.2-0.9-0.5-1.2c-0.3-0.3-0.7-0.5-1.2-0.5c-0.6,0-1,0.2-1.3,0.6
			c-0.3,0.4-0.5,1.1-0.5,2.1v0.3c0,1,0.1,1.7,0.4,2.1C1138.2,4354.9,1138.6,4355.1,1139.3,4355.1z"/>
		<path class="st2" d="M1144.3,4352.2c0-0.9,0.2-1.8,0.5-2.5s0.9-1.3,1.6-1.7s1.5-0.6,2.4-0.6c1.3,0,2.3,0.4,3.1,1.2
			s1.3,1.9,1.4,3.2l0,0.7c0,1.5-0.4,2.6-1.2,3.5c-0.8,0.9-1.9,1.3-3.3,1.3s-2.5-0.4-3.3-1.3s-1.2-2.1-1.2-3.6V4352.2z
			 M1146.8,4352.3c0,0.9,0.2,1.6,0.5,2.1s0.8,0.7,1.5,0.7c0.6,0,1.1-0.2,1.4-0.7c0.3-0.5,0.5-1.2,0.5-2.3c0-0.9-0.2-1.6-0.5-2.1
			c-0.3-0.5-0.8-0.7-1.5-0.7c-0.6,0-1.1,0.2-1.4,0.7S1146.8,4351.3,1146.8,4352.3z"/>
		<path class="st2" d="M1157.2,4347.5l0.1,1.1c0.7-0.8,1.6-1.2,2.7-1.2c1.2,0,2.1,0.5,2.5,1.4c0.7-1,1.6-1.4,2.9-1.4
			c1,0,1.8,0.3,2.3,0.9c0.5,0.6,0.8,1.5,0.8,2.7v6.1h-2.5v-6.1c0-0.5-0.1-0.9-0.3-1.2c-0.2-0.2-0.6-0.4-1.1-0.4
			c-0.8,0-1.3,0.4-1.6,1.1l0,6.5h-2.5v-6.1c0-0.6-0.1-0.9-0.3-1.2s-0.6-0.4-1.1-0.4c-0.7,0-1.2,0.3-1.6,0.9v6.7h-2.5v-9.5H1157.2z"
			/>
		<path class="st2" d="M1170.1,4352.2c0-0.9,0.2-1.8,0.5-2.5s0.9-1.3,1.6-1.7s1.5-0.6,2.4-0.6c1.3,0,2.3,0.4,3.1,1.2
			s1.3,1.9,1.4,3.2l0,0.7c0,1.5-0.4,2.6-1.2,3.5c-0.8,0.9-1.9,1.3-3.3,1.3s-2.5-0.4-3.3-1.3s-1.2-2.1-1.2-3.6V4352.2z
			 M1172.6,4352.3c0,0.9,0.2,1.6,0.5,2.1s0.8,0.7,1.5,0.7c0.6,0,1.1-0.2,1.4-0.7c0.3-0.5,0.5-1.2,0.5-2.3c0-0.9-0.2-1.6-0.5-2.1
			c-0.3-0.5-0.8-0.7-1.5-0.7c-0.6,0-1.1,0.2-1.4,0.7S1172.6,4351.3,1172.6,4352.3z"/>
		<path class="st2" d="M1193.7,4352.3c0,1.5-0.3,2.6-1,3.5c-0.7,0.9-1.6,1.3-2.7,1.3c-1,0-1.7-0.3-2.3-1v4.5h-2.5v-13.2h2.4l0.1,0.9
			c0.6-0.7,1.4-1.1,2.4-1.1c1.2,0,2.1,0.4,2.7,1.3s1,2.1,1,3.6V4352.3z M1191.1,4352.1c0-0.9-0.2-1.6-0.5-2s-0.8-0.7-1.4-0.7
			c-0.8,0-1.3,0.3-1.6,0.9v3.9c0.3,0.6,0.9,0.9,1.7,0.9C1190.5,4355.1,1191.1,4354.1,1191.1,4352.1z"/>
		<path class="st2" d="M1200.6,4349.9c-0.3,0-0.7-0.1-0.9-0.1c-1,0-1.6,0.3-1.9,1v6.2h-2.5v-9.5h2.4l0.1,1.1
			c0.5-0.9,1.2-1.3,2.1-1.3c0.3,0,0.5,0,0.8,0.1L1200.6,4349.9z"/>
		<path class="st2" d="M1201.1,4352.2c0-0.9,0.2-1.8,0.5-2.5s0.9-1.3,1.6-1.7s1.5-0.6,2.4-0.6c1.3,0,2.3,0.4,3.1,1.2
			s1.3,1.9,1.4,3.2l0,0.7c0,1.5-0.4,2.6-1.2,3.5c-0.8,0.9-1.9,1.3-3.3,1.3s-2.5-0.4-3.3-1.3s-1.2-2.1-1.2-3.6V4352.2z
			 M1203.6,4352.3c0,0.9,0.2,1.6,0.5,2.1s0.8,0.7,1.5,0.7c0.6,0,1.1-0.2,1.4-0.7c0.3-0.5,0.5-1.2,0.5-2.3c0-0.9-0.2-1.6-0.5-2.1
			c-0.3-0.5-0.8-0.7-1.5-0.7c-0.6,0-1.1,0.2-1.4,0.7S1203.6,4351.3,1203.6,4352.3z"/>
		<path class="st2" d="M1214,4347.5l0.1,1.1c0.7-0.8,1.6-1.2,2.7-1.2c1.2,0,2.1,0.5,2.5,1.4c0.7-1,1.6-1.4,2.9-1.4
			c1,0,1.8,0.3,2.3,0.9c0.5,0.6,0.8,1.5,0.8,2.7v6.1h-2.5v-6.1c0-0.5-0.1-0.9-0.3-1.2c-0.2-0.2-0.6-0.4-1.1-0.4
			c-0.8,0-1.3,0.4-1.6,1.1l0,6.5h-2.5v-6.1c0-0.6-0.1-0.9-0.3-1.2s-0.6-0.4-1.1-0.4c-0.7,0-1.2,0.3-1.6,0.9v6.7h-2.5v-9.5H1214z"/>
		<path class="st2" d="M1231.6,4357.2c-1.4,0-2.5-0.4-3.4-1.3s-1.3-2-1.3-3.4v-0.2c0-1,0.2-1.8,0.6-2.6c0.4-0.8,0.9-1.3,1.6-1.7
			c0.7-0.4,1.4-0.6,2.3-0.6c1.3,0,2.3,0.4,3.1,1.2s1.1,2,1.1,3.5v1h-6.1c0.1,0.6,0.3,1.1,0.7,1.5s0.9,0.6,1.6,0.6
			c1,0,1.7-0.4,2.3-1.1l1.2,1.4c-0.4,0.5-0.9,1-1.5,1.3S1232.4,4357.2,1231.6,4357.2z M1231.3,4349.4c-0.5,0-0.9,0.2-1.2,0.5
			c-0.3,0.3-0.5,0.8-0.6,1.5h3.5v-0.2c0-0.6-0.2-1-0.5-1.3C1232.3,4349.5,1231.9,4349.4,1231.3,4349.4z"/>
		<path class="st2" d="M1236.6,4352.2c0-1.5,0.3-2.7,1-3.5s1.6-1.3,2.7-1.3c0.9,0,1.7,0.3,2.3,1v-4.9h2.5v13.5h-2.3l-0.1-1
			c-0.6,0.8-1.4,1.2-2.4,1.2c-1.1,0-2-0.4-2.7-1.3C1236.9,4355,1236.6,4353.7,1236.6,4352.2z M1239.1,4352.4c0,0.9,0.2,1.6,0.5,2.1
			c0.3,0.5,0.8,0.7,1.4,0.7c0.8,0,1.3-0.3,1.7-1v-3.8c-0.3-0.7-0.9-1-1.6-1C1239.7,4349.4,1239.1,4350.4,1239.1,4352.4z"/>
		<path class="st2" d="M1247.1,4345c0-0.4,0.1-0.7,0.4-0.9s0.6-0.4,1-0.4c0.4,0,0.8,0.1,1,0.4s0.4,0.6,0.4,0.9
			c0,0.4-0.1,0.7-0.4,0.9s-0.6,0.4-1,0.4s-0.8-0.1-1-0.4S1247.1,4345.4,1247.1,4345z M1249.8,4357h-2.5v-9.5h2.5V4357z"/>
		<path class="st2" d="M1251.5,4352.2c0-0.9,0.2-1.8,0.5-2.5s0.9-1.3,1.6-1.7s1.5-0.6,2.4-0.6c1.3,0,2.3,0.4,3.1,1.2
			s1.3,1.9,1.4,3.2l0,0.7c0,1.5-0.4,2.6-1.2,3.5c-0.8,0.9-1.9,1.3-3.3,1.3s-2.5-0.4-3.3-1.3s-1.2-2.1-1.2-3.6V4352.2z M1254,4352.3
			c0,0.9,0.2,1.6,0.5,2.1s0.8,0.7,1.5,0.7c0.6,0,1.1-0.2,1.4-0.7c0.3-0.5,0.5-1.2,0.5-2.3c0-0.9-0.2-1.6-0.5-2.1
			c-0.3-0.5-0.8-0.7-1.5-0.7c-0.6,0-1.1,0.2-1.4,0.7S1254,4351.3,1254,4352.3z"/>
		<path class="st2" d="M1267.2,4354.4c0-0.3-0.2-0.6-0.5-0.7c-0.3-0.2-0.8-0.3-1.5-0.5c-2.3-0.5-3.4-1.4-3.4-2.9
			c0-0.8,0.3-1.5,1-2.1c0.7-0.6,1.6-0.8,2.7-0.8c1.2,0,2.2,0.3,2.9,0.9s1.1,1.3,1.1,2.2h-2.5c0-0.4-0.1-0.7-0.4-0.9
			c-0.2-0.2-0.6-0.4-1.1-0.4c-0.4,0-0.8,0.1-1,0.3s-0.4,0.4-0.4,0.7c0,0.3,0.1,0.5,0.4,0.7c0.3,0.2,0.7,0.3,1.3,0.4
			c0.6,0.1,1.2,0.3,1.6,0.4c1.3,0.5,2,1.3,2,2.6c0,0.9-0.4,1.6-1.1,2.1c-0.7,0.5-1.7,0.8-2.9,0.8c-0.8,0-1.5-0.1-2.1-0.4
			c-0.6-0.3-1.1-0.7-1.5-1.2c-0.4-0.5-0.5-1-0.5-1.6h2.4c0,0.5,0.2,0.8,0.5,1s0.7,0.4,1.2,0.4c0.5,0,0.9-0.1,1.1-0.3
			C1267.1,4354.9,1267.2,4354.7,1267.2,4354.4z"/>
		<path class="st2" d="M1275.4,4352.2c0-0.9,0.2-1.8,0.5-2.5s0.9-1.3,1.6-1.7s1.5-0.6,2.4-0.6c1.3,0,2.3,0.4,3.1,1.2
			s1.3,1.9,1.4,3.2l0,0.7c0,1.5-0.4,2.6-1.2,3.5c-0.8,0.9-1.9,1.3-3.3,1.3s-2.5-0.4-3.3-1.3s-1.2-2.1-1.2-3.6V4352.2z M1278,4352.3
			c0,0.9,0.2,1.6,0.5,2.1s0.8,0.7,1.5,0.7c0.6,0,1.1-0.2,1.4-0.7c0.3-0.5,0.5-1.2,0.5-2.3c0-0.9-0.2-1.6-0.5-2.1
			c-0.3-0.5-0.8-0.7-1.5-0.7c-0.6,0-1.1,0.2-1.4,0.7S1278,4351.3,1278,4352.3z"/>
	</g>
	<g class="st1">
		<path class="st2" d="M919.5,4378.9l1.8-6.4h2.7l-3.2,9.5h-2.4l-3.2-9.5h2.7L919.5,4378.9z"/>
		<path class="st2" d="M930.5,4382c-0.1-0.2-0.2-0.5-0.3-0.9c-0.6,0.7-1.4,1-2.4,1c-0.9,0-1.7-0.3-2.3-0.8s-0.9-1.2-0.9-2
			c0-1,0.4-1.8,1.1-2.3s1.8-0.8,3.2-0.8h1.2v-0.5c0-0.4-0.1-0.8-0.3-1.1s-0.6-0.4-1.1-0.4c-0.4,0-0.8,0.1-1,0.3s-0.4,0.5-0.4,0.8
			h-2.5c0-0.6,0.2-1.1,0.5-1.5s0.8-0.8,1.4-1.1c0.6-0.3,1.3-0.4,2.1-0.4c1.2,0,2.1,0.3,2.8,0.9c0.7,0.6,1,1.4,1,2.5v4.1
			c0,0.9,0.1,1.6,0.4,2v0.2H930.5z M928.4,4380.2c0.4,0,0.7-0.1,1-0.2c0.3-0.2,0.6-0.4,0.7-0.7v-1.6h-0.9c-1.3,0-1.9,0.4-2,1.3
			l0,0.1c0,0.3,0.1,0.6,0.3,0.8S928,4380.2,928.4,4380.2z"/>
		<path class="st2" d="M939.9,4374.9c-0.3,0-0.7-0.1-0.9-0.1c-1,0-1.6,0.3-1.9,1v6.2h-2.5v-9.5h2.4l0.1,1.1c0.5-0.9,1.2-1.3,2.1-1.3
			c0.3,0,0.5,0,0.8,0.1L939.9,4374.9z"/>
		<path class="st2" d="M941.1,4370c0-0.4,0.1-0.7,0.4-0.9s0.6-0.4,1-0.4c0.4,0,0.8,0.1,1,0.4s0.4,0.6,0.4,0.9c0,0.4-0.1,0.7-0.4,0.9
			s-0.6,0.4-1,0.4s-0.8-0.1-1-0.4S941.1,4370.4,941.1,4370z M943.8,4382h-2.5v-9.5h2.5V4382z"/>
		<path class="st2" d="M951.4,4382c-0.1-0.2-0.2-0.5-0.3-0.9c-0.6,0.7-1.4,1-2.4,1c-0.9,0-1.7-0.3-2.3-0.8s-0.9-1.2-0.9-2
			c0-1,0.4-1.8,1.1-2.3s1.8-0.8,3.2-0.8h1.2v-0.5c0-0.4-0.1-0.8-0.3-1.1s-0.6-0.4-1.1-0.4c-0.4,0-0.8,0.1-1,0.3s-0.4,0.5-0.4,0.8
			h-2.5c0-0.6,0.2-1.1,0.5-1.5s0.8-0.8,1.4-1.1c0.6-0.3,1.3-0.4,2.1-0.4c1.2,0,2.1,0.3,2.8,0.9c0.7,0.6,1,1.4,1,2.5v4.1
			c0,0.9,0.1,1.6,0.4,2v0.2H951.4z M949.3,4380.2c0.4,0,0.7-0.1,1-0.2c0.3-0.2,0.6-0.4,0.7-0.7v-1.6h-0.9c-1.3,0-1.9,0.4-2,1.3
			l0,0.1c0,0.3,0.1,0.6,0.3,0.8S949,4380.2,949.3,4380.2z"/>
		<path class="st2" d="M964.1,4377.3c0,1.5-0.3,2.7-1,3.6c-0.7,0.9-1.6,1.3-2.7,1.3c-1,0-1.9-0.4-2.5-1.2l-0.1,1h-2.3v-13.5h2.5v4.8
			c0.6-0.7,1.4-1,2.3-1c1.2,0,2.1,0.4,2.7,1.3c0.7,0.9,1,2.1,1,3.6V4377.3z M961.6,4377.1c0-1-0.2-1.7-0.5-2.1
			c-0.3-0.4-0.8-0.7-1.4-0.7c-0.8,0-1.4,0.3-1.7,1v3.8c0.3,0.7,0.9,1,1.7,1c0.8,0,1.4-0.4,1.6-1.2
			C961.5,4378.5,961.6,4377.9,961.6,4377.1z"/>
		<path class="st2" d="M965.7,4370c0-0.4,0.1-0.7,0.4-0.9s0.6-0.4,1-0.4c0.4,0,0.8,0.1,1,0.4s0.4,0.6,0.4,0.9c0,0.4-0.1,0.7-0.4,0.9
			s-0.6,0.4-1,0.4s-0.8-0.1-1-0.4S965.7,4370.4,965.7,4370z M968.4,4382h-2.5v-9.5h2.5V4382z"/>
		<path class="st2" d="M973.2,4382h-2.5v-13.5h2.5V4382z"/>
		<path class="st2" d="M975.2,4370c0-0.4,0.1-0.7,0.4-0.9s0.6-0.4,1-0.4c0.4,0,0.8,0.1,1,0.4s0.4,0.6,0.4,0.9c0,0.4-0.1,0.7-0.4,0.9
			s-0.6,0.4-1,0.4s-0.8-0.1-1-0.4S975.2,4370.4,975.2,4370z M977.9,4382h-2.5v-9.5h2.5V4382z"/>
		<path class="st2" d="M979.6,4377.2c0-1.5,0.3-2.7,1-3.5s1.6-1.3,2.7-1.3c0.9,0,1.7,0.3,2.3,1v-4.9h2.5v13.5h-2.3l-0.1-1
			c-0.6,0.8-1.4,1.2-2.4,1.2c-1.1,0-2-0.4-2.7-1.3C980,4380,979.6,4378.7,979.6,4377.2z M982.2,4377.4c0,0.9,0.2,1.6,0.5,2.1
			c0.3,0.5,0.8,0.7,1.4,0.7c0.8,0,1.3-0.3,1.7-1v-3.8c-0.3-0.7-0.9-1-1.6-1C982.8,4374.4,982.2,4375.4,982.2,4377.4z"/>
		<path class="st2" d="M995.7,4382c-0.1-0.2-0.2-0.5-0.3-0.9c-0.6,0.7-1.4,1-2.4,1c-0.9,0-1.7-0.3-2.3-0.8s-0.9-1.2-0.9-2
			c0-1,0.4-1.8,1.1-2.3s1.8-0.8,3.2-0.8h1.2v-0.5c0-0.4-0.1-0.8-0.3-1.1s-0.6-0.4-1.1-0.4c-0.4,0-0.8,0.1-1,0.3s-0.4,0.5-0.4,0.8
			H990c0-0.6,0.2-1.1,0.5-1.5s0.8-0.8,1.4-1.1c0.6-0.3,1.3-0.4,2.1-0.4c1.2,0,2.1,0.3,2.8,0.9c0.7,0.6,1,1.4,1,2.5v4.1
			c0,0.9,0.1,1.6,0.4,2v0.2H995.7z M993.6,4380.2c0.4,0,0.7-0.1,1-0.2c0.3-0.2,0.6-0.4,0.7-0.7v-1.6h-0.9c-1.3,0-1.9,0.4-2,1.3
			l0,0.1c0,0.3,0.1,0.6,0.3,0.8S993.2,4380.2,993.6,4380.2z"/>
		<path class="st2" d="M999.4,4377.2c0-1.5,0.3-2.7,1-3.5s1.6-1.3,2.7-1.3c0.9,0,1.7,0.3,2.3,1v-4.9h2.5v13.5h-2.3l-0.1-1
			c-0.6,0.8-1.4,1.2-2.4,1.2c-1.1,0-2-0.4-2.7-1.3C999.8,4380,999.4,4378.7,999.4,4377.2z M1002,4377.4c0,0.9,0.2,1.6,0.5,2.1
			c0.3,0.5,0.8,0.7,1.4,0.7c0.8,0,1.3-0.3,1.7-1v-3.8c-0.3-0.7-0.9-1-1.6-1C1002.6,4374.4,1002,4375.4,1002,4377.4z"/>
		<path class="st2" d="M1014.1,4377.2c0-1.5,0.3-2.7,1-3.5s1.6-1.3,2.7-1.3c0.9,0,1.7,0.3,2.3,1v-4.9h2.5v13.5h-2.3l-0.1-1
			c-0.6,0.8-1.4,1.2-2.4,1.2c-1.1,0-2-0.4-2.7-1.3C1014.4,4380,1014.1,4378.7,1014.1,4377.2z M1016.6,4377.4c0,0.9,0.2,1.6,0.5,2.1
			c0.3,0.5,0.8,0.7,1.4,0.7c0.8,0,1.3-0.3,1.7-1v-3.8c-0.3-0.7-0.9-1-1.6-1C1017.2,4374.4,1016.6,4375.4,1016.6,4377.4z"/>
		<path class="st2" d="M1029,4382.2c-1.4,0-2.5-0.4-3.4-1.3s-1.3-2-1.3-3.4v-0.2c0-1,0.2-1.8,0.6-2.6c0.4-0.8,0.9-1.3,1.6-1.7
			c0.7-0.4,1.4-0.6,2.3-0.6c1.3,0,2.3,0.4,3.1,1.2s1.1,2,1.1,3.5v1h-6.1c0.1,0.6,0.3,1.1,0.7,1.5s0.9,0.6,1.6,0.6
			c1,0,1.7-0.4,2.3-1.1l1.2,1.4c-0.4,0.5-0.9,1-1.5,1.3S1029.8,4382.2,1029,4382.2z M1028.7,4374.4c-0.5,0-0.9,0.2-1.2,0.5
			c-0.3,0.3-0.5,0.8-0.6,1.5h3.5v-0.2c0-0.6-0.2-1-0.5-1.3C1029.6,4374.5,1029.2,4374.4,1028.7,4374.4z"/>
		<path class="st2" d="M1038.4,4377.2c0-1.5,0.3-2.7,1-3.5s1.6-1.3,2.7-1.3c0.9,0,1.7,0.3,2.3,1v-4.9h2.5v13.5h-2.3l-0.1-1
			c-0.6,0.8-1.4,1.2-2.4,1.2c-1.1,0-2-0.4-2.7-1.3C1038.7,4380,1038.4,4378.7,1038.4,4377.2z M1040.9,4377.4c0,0.9,0.2,1.6,0.5,2.1
			c0.3,0.5,0.8,0.7,1.4,0.7c0.8,0,1.3-0.3,1.7-1v-3.8c-0.3-0.7-0.9-1-1.6-1C1041.6,4374.4,1040.9,4375.4,1040.9,4377.4z"/>
		<path class="st2" d="M1054.5,4382c-0.1-0.2-0.2-0.5-0.3-0.9c-0.6,0.7-1.4,1-2.4,1c-0.9,0-1.7-0.3-2.3-0.8s-0.9-1.2-0.9-2
			c0-1,0.4-1.8,1.1-2.3s1.8-0.8,3.2-0.8h1.2v-0.5c0-0.4-0.1-0.8-0.3-1.1s-0.6-0.4-1.1-0.4c-0.4,0-0.8,0.1-1,0.3s-0.4,0.5-0.4,0.8
			h-2.5c0-0.6,0.2-1.1,0.5-1.5s0.8-0.8,1.4-1.1c0.6-0.3,1.3-0.4,2.1-0.4c1.2,0,2.1,0.3,2.8,0.9c0.7,0.6,1,1.4,1,2.5v4.1
			c0,0.9,0.1,1.6,0.4,2v0.2H1054.5z M1052.4,4380.2c0.4,0,0.7-0.1,1-0.2c0.3-0.2,0.6-0.4,0.7-0.7v-1.6h-0.9c-1.3,0-1.9,0.4-2,1.3
			l0,0.1c0,0.3,0.1,0.6,0.3,0.8S1052,4380.2,1052.4,4380.2z"/>
		<path class="st2" d="M1061.6,4370.2v2.3h1.6v1.9h-1.6v4.7c0,0.4,0.1,0.6,0.2,0.8s0.4,0.2,0.8,0.2c0.3,0,0.5,0,0.7-0.1v1.9
			c-0.5,0.2-1,0.2-1.5,0.2c-1.8,0-2.7-0.9-2.7-2.7v-5.1h-1.4v-1.9h1.4v-2.3H1061.6z"/>
		<path class="st2" d="M1064,4377.2c0-0.9,0.2-1.8,0.5-2.5s0.9-1.3,1.6-1.7s1.5-0.6,2.4-0.6c1.3,0,2.3,0.4,3.1,1.2s1.3,1.9,1.4,3.2
			l0,0.7c0,1.5-0.4,2.6-1.2,3.5c-0.8,0.9-1.9,1.3-3.3,1.3s-2.5-0.4-3.3-1.3s-1.2-2.1-1.2-3.6V4377.2z M1066.6,4377.3
			c0,0.9,0.2,1.6,0.5,2.1s0.8,0.7,1.5,0.7c0.6,0,1.1-0.2,1.4-0.7c0.3-0.5,0.5-1.2,0.5-2.3c0-0.9-0.2-1.6-0.5-2.1
			c-0.3-0.5-0.8-0.7-1.5-0.7c-0.6,0-1.1,0.2-1.4,0.7S1066.6,4376.3,1066.6,4377.3z"/>
		<path class="st2" d="M1079.7,4379.4c0-0.3-0.2-0.6-0.5-0.7c-0.3-0.2-0.8-0.3-1.5-0.5c-2.3-0.5-3.4-1.4-3.4-2.9
			c0-0.8,0.4-1.5,1.1-2.1c0.7-0.6,1.6-0.8,2.7-0.8c1.2,0,2.2,0.3,2.9,0.9s1.1,1.3,1.1,2.2h-2.5c0-0.4-0.1-0.7-0.4-0.9
			c-0.2-0.2-0.6-0.4-1.1-0.4c-0.4,0-0.8,0.1-1,0.3s-0.4,0.4-0.4,0.7c0,0.3,0.1,0.5,0.4,0.7c0.3,0.2,0.7,0.3,1.3,0.4
			c0.6,0.1,1.2,0.3,1.6,0.4c1.3,0.5,2,1.3,2,2.6c0,0.9-0.4,1.6-1.1,2.1c-0.7,0.5-1.7,0.8-2.9,0.8c-0.8,0-1.5-0.1-2.1-0.4
			c-0.6-0.3-1.1-0.7-1.5-1.2c-0.4-0.5-0.5-1-0.5-1.6h2.4c0,0.5,0.2,0.8,0.5,1s0.7,0.4,1.2,0.4c0.5,0,0.9-0.1,1.1-0.3
			C1079.6,4379.9,1079.7,4379.7,1079.7,4379.4z"/>
		<path class="st2" d="M1093.5,4379.4c0-0.3-0.2-0.6-0.5-0.7c-0.3-0.2-0.8-0.3-1.5-0.5c-2.3-0.5-3.4-1.4-3.4-2.9
			c0-0.8,0.4-1.5,1.1-2.1c0.7-0.6,1.6-0.8,2.7-0.8c1.2,0,2.2,0.3,2.9,0.9s1.1,1.3,1.1,2.2h-2.5c0-0.4-0.1-0.7-0.4-0.9
			c-0.2-0.2-0.6-0.4-1.1-0.4c-0.4,0-0.8,0.1-1,0.3s-0.4,0.4-0.4,0.7c0,0.3,0.1,0.5,0.4,0.7c0.3,0.2,0.7,0.3,1.3,0.4
			c0.6,0.1,1.2,0.3,1.6,0.4c1.3,0.5,2,1.3,2,2.6c0,0.9-0.4,1.6-1.1,2.1c-0.7,0.5-1.7,0.8-2.9,0.8c-0.8,0-1.5-0.1-2.1-0.4
			c-0.6-0.3-1.1-0.7-1.5-1.2c-0.4-0.5-0.5-1-0.5-1.6h2.4c0,0.5,0.2,0.8,0.5,1s0.7,0.4,1.2,0.4c0.5,0,0.9-0.1,1.1-0.3
			C1093.4,4379.9,1093.5,4379.7,1093.5,4379.4z"/>
		<path class="st2" d="M1097.6,4370c0-0.4,0.1-0.7,0.4-0.9s0.6-0.4,1-0.4c0.4,0,0.8,0.1,1,0.4s0.4,0.6,0.4,0.9
			c0,0.4-0.1,0.7-0.4,0.9s-0.6,0.4-1,0.4s-0.8-0.1-1-0.4S1097.6,4370.4,1097.6,4370z M1100.3,4382h-2.5v-9.5h2.5V4382z"/>
		<path class="st2" d="M1104.7,4372.5l0.1,1.1c0.7-0.8,1.6-1.3,2.7-1.3c1,0,1.8,0.3,2.2,0.9s0.7,1.5,0.8,2.7v6.1h-2.5v-6.1
			c0-0.5-0.1-0.9-0.4-1.2c-0.2-0.2-0.6-0.4-1.2-0.4c-0.7,0-1.3,0.3-1.6,0.9v6.7h-2.5v-9.5H1104.7z"/>
		<path class="st2" d="M1125.5,4377.3c0,1.5-0.3,2.6-1,3.5c-0.7,0.9-1.6,1.3-2.7,1.3c-1,0-1.7-0.3-2.3-1v4.5h-2.5v-13.2h2.4l0.1,0.9
			c0.6-0.7,1.4-1.1,2.4-1.1c1.2,0,2.1,0.4,2.7,1.3s1,2.1,1,3.6V4377.3z M1122.9,4377.1c0-0.9-0.2-1.6-0.5-2s-0.8-0.7-1.4-0.7
			c-0.8,0-1.3,0.3-1.6,0.9v3.9c0.3,0.6,0.9,0.9,1.7,0.9C1122.3,4380.1,1122.9,4379.1,1122.9,4377.1z"/>
		<path class="st2" d="M1132.4,4374.9c-0.3,0-0.7-0.1-0.9-0.1c-1,0-1.6,0.3-1.9,1v6.2h-2.5v-9.5h2.4l0.1,1.1
			c0.5-0.9,1.2-1.3,2.1-1.3c0.3,0,0.5,0,0.8,0.1L1132.4,4374.9z"/>
		<path class="st2" d="M1132.9,4377.2c0-0.9,0.2-1.8,0.5-2.5s0.9-1.3,1.6-1.7s1.5-0.6,2.4-0.6c1.3,0,2.3,0.4,3.1,1.2
			s1.3,1.9,1.4,3.2l0,0.7c0,1.5-0.4,2.6-1.2,3.5c-0.8,0.9-1.9,1.3-3.3,1.3s-2.5-0.4-3.3-1.3s-1.2-2.1-1.2-3.6V4377.2z
			 M1135.4,4377.3c0,0.9,0.2,1.6,0.5,2.1s0.8,0.7,1.5,0.7c0.6,0,1.1-0.2,1.4-0.7c0.3-0.5,0.5-1.2,0.5-2.3c0-0.9-0.2-1.6-0.5-2.1
			c-0.3-0.5-0.8-0.7-1.5-0.7c-0.6,0-1.1,0.2-1.4,0.7S1135.4,4376.3,1135.4,4377.3z"/>
		<path class="st2" d="M1144.2,4382v-7.6h-1.4v-1.9h1.4v-0.8c0-1.1,0.3-1.9,0.9-2.5c0.6-0.6,1.5-0.9,2.6-0.9c0.4,0,0.8,0.1,1.3,0.2
			l0,2c-0.2-0.1-0.5-0.1-0.8-0.1c-1,0-1.4,0.4-1.4,1.3v0.8h1.9v1.9h-1.9v7.6H1144.2z"/>
		<path class="st2" d="M1155.6,4381c-0.6,0.8-1.5,1.1-2.6,1.1c-1,0-1.8-0.3-2.3-0.9s-0.8-1.4-0.8-2.6v-6.2h2.5v6.2
			c0,1,0.5,1.5,1.4,1.5c0.9,0,1.5-0.3,1.8-0.9v-6.7h2.5v9.5h-2.4L1155.6,4381z"/>
		<path class="st2" d="M1162.3,4372.5l0.1,1.1c0.7-0.8,1.6-1.3,2.7-1.3c1,0,1.8,0.3,2.2,0.9s0.7,1.5,0.8,2.7v6.1h-2.5v-6.1
			c0-0.5-0.1-0.9-0.4-1.2c-0.2-0.2-0.6-0.4-1.2-0.4c-0.7,0-1.3,0.3-1.6,0.9v6.7h-2.5v-9.5H1162.3z"/>
		<path class="st2" d="M1169.7,4377.2c0-1.5,0.3-2.7,1-3.5s1.6-1.3,2.7-1.3c0.9,0,1.7,0.3,2.3,1v-4.9h2.5v13.5h-2.3l-0.1-1
			c-0.6,0.8-1.4,1.2-2.4,1.2c-1.1,0-2-0.4-2.7-1.3C1170,4380,1169.7,4378.7,1169.7,4377.2z M1172.2,4377.4c0,0.9,0.2,1.6,0.5,2.1
			c0.3,0.5,0.8,0.7,1.4,0.7c0.8,0,1.3-0.3,1.7-1v-3.8c-0.3-0.7-0.9-1-1.6-1C1172.8,4374.4,1172.2,4375.4,1172.2,4377.4z"/>
		<path class="st2" d="M1180.2,4370c0-0.4,0.1-0.7,0.4-0.9s0.6-0.4,1-0.4c0.4,0,0.8,0.1,1,0.4s0.4,0.6,0.4,0.9
			c0,0.4-0.1,0.7-0.4,0.9s-0.6,0.4-1,0.4s-0.8-0.1-1-0.4S1180.2,4370.4,1180.2,4370z M1182.9,4382h-2.5v-9.5h2.5V4382z"/>
		<path class="st2" d="M1187.9,4380h4.6v2h-7.9v-1.5l4.5-5.9h-4.3v-2h7.6v1.5L1187.9,4380z"/>
		<path class="st2" d="M1199.7,4382c-0.1-0.2-0.2-0.5-0.3-0.9c-0.6,0.7-1.4,1-2.4,1c-0.9,0-1.7-0.3-2.3-0.8s-0.9-1.2-0.9-2
			c0-1,0.4-1.8,1.1-2.3s1.8-0.8,3.2-0.8h1.2v-0.5c0-0.4-0.1-0.8-0.3-1.1s-0.6-0.4-1.1-0.4c-0.4,0-0.8,0.1-1,0.3s-0.4,0.5-0.4,0.8
			h-2.5c0-0.6,0.2-1.1,0.5-1.5s0.8-0.8,1.4-1.1c0.6-0.3,1.3-0.4,2.1-0.4c1.2,0,2.1,0.3,2.8,0.9c0.7,0.6,1,1.4,1,2.5v4.1
			c0,0.9,0.1,1.6,0.4,2v0.2H1199.7z M1197.6,4380.2c0.4,0,0.7-0.1,1-0.2c0.3-0.2,0.6-0.4,0.7-0.7v-1.6h-0.9c-1.3,0-1.9,0.4-2,1.3
			l0,0.1c0,0.3,0.1,0.6,0.3,0.8S1197.2,4380.2,1197.6,4380.2z"/>
		<path class="st2" d="M1209.2,4374.9c-0.3,0-0.7-0.1-0.9-0.1c-1,0-1.6,0.3-1.9,1v6.2h-2.5v-9.5h2.4l0.1,1.1
			c0.5-0.9,1.2-1.3,2.1-1.3c0.3,0,0.5,0,0.8,0.1L1209.2,4374.9z"/>
		<path class="st2" d="M1209.5,4385.2l-1.3-0.7l0.3-0.6c0.4-0.7,0.6-1.4,0.6-2.1v-2h2.1l0,1.8c0,0.7-0.2,1.3-0.5,2
			S1210,4384.8,1209.5,4385.2z"/>
		<path class="st2" d="M1226.3,4377.3c0,1.5-0.3,2.6-1,3.5c-0.7,0.9-1.6,1.3-2.7,1.3c-1,0-1.7-0.3-2.3-1v4.5h-2.5v-13.2h2.4l0.1,0.9
			c0.6-0.7,1.4-1.1,2.4-1.1c1.2,0,2.1,0.4,2.7,1.3s1,2.1,1,3.6V4377.3z M1223.8,4377.1c0-0.9-0.2-1.6-0.5-2s-0.8-0.7-1.4-0.7
			c-0.8,0-1.3,0.3-1.6,0.9v3.9c0.3,0.6,0.9,0.9,1.7,0.9C1223.1,4380.1,1223.8,4379.1,1223.8,4377.1z"/>
		<path class="st2" d="M1232.2,4382.2c-1.4,0-2.5-0.4-3.4-1.3s-1.3-2-1.3-3.4v-0.2c0-1,0.2-1.8,0.6-2.6c0.4-0.8,0.9-1.3,1.6-1.7
			c0.7-0.4,1.4-0.6,2.3-0.6c1.3,0,2.3,0.4,3.1,1.2s1.1,2,1.1,3.5v1h-6.1c0.1,0.6,0.3,1.1,0.7,1.5s0.9,0.6,1.6,0.6
			c1,0,1.7-0.4,2.3-1.1l1.2,1.4c-0.4,0.5-0.9,1-1.5,1.3S1233,4382.2,1232.2,4382.2z M1232,4374.4c-0.5,0-0.9,0.2-1.2,0.5
			c-0.3,0.3-0.5,0.8-0.6,1.5h3.5v-0.2c0-0.6-0.2-1-0.5-1.3C1232.9,4374.5,1232.5,4374.4,1232,4374.4z"/>
		<path class="st2" d="M1242.9,4374.9c-0.3,0-0.7-0.1-0.9-0.1c-1,0-1.6,0.3-1.9,1v6.2h-2.5v-9.5h2.4l0.1,1.1
			c0.5-0.9,1.2-1.3,2.1-1.3c0.3,0,0.5,0,0.8,0.1L1242.9,4374.9z"/>
		<path class="st2" d="M1243.4,4377.2c0-0.9,0.2-1.8,0.5-2.5s0.9-1.3,1.6-1.7s1.5-0.6,2.4-0.6c1.3,0,2.3,0.4,3.1,1.2
			s1.3,1.9,1.4,3.2l0,0.7c0,1.5-0.4,2.6-1.2,3.5c-0.8,0.9-1.9,1.3-3.3,1.3s-2.5-0.4-3.3-1.3s-1.2-2.1-1.2-3.6V4377.2z M1246,4377.3
			c0,0.9,0.2,1.6,0.5,2.1s0.8,0.7,1.5,0.7c0.6,0,1.1-0.2,1.4-0.7c0.3-0.5,0.5-1.2,0.5-2.3c0-0.9-0.2-1.6-0.5-2.1
			c-0.3-0.5-0.8-0.7-1.5-0.7c-0.6,0-1.1,0.2-1.4,0.7S1246,4376.3,1246,4377.3z"/>
	</g>
	<g class="st1">
		<path class="st2" d="M916.7,4407v-7.6h-1.4v-1.9h1.4v-0.8c0-1.1,0.3-1.9,0.9-2.5c0.6-0.6,1.5-0.9,2.6-0.9c0.4,0,0.8,0.1,1.3,0.2
			l0,2c-0.2-0.1-0.5-0.1-0.8-0.1c-1,0-1.4,0.4-1.4,1.3v0.8h1.9v1.9h-1.9v7.6H916.7z"/>
		<path class="st2" d="M927.9,4407c-0.1-0.2-0.2-0.5-0.3-0.9c-0.6,0.7-1.4,1-2.4,1c-0.9,0-1.7-0.3-2.3-0.8s-0.9-1.2-0.9-2
			c0-1,0.4-1.8,1.1-2.3s1.8-0.8,3.2-0.8h1.2v-0.5c0-0.4-0.1-0.8-0.3-1.1s-0.6-0.4-1.1-0.4c-0.4,0-0.8,0.1-1,0.3s-0.4,0.5-0.4,0.8
			h-2.5c0-0.6,0.2-1.1,0.5-1.5s0.8-0.8,1.4-1.1c0.6-0.3,1.3-0.4,2.1-0.4c1.2,0,2.1,0.3,2.8,0.9c0.7,0.6,1,1.4,1,2.5v4.1
			c0,0.9,0.1,1.6,0.4,2v0.2H927.9z M925.8,4405.2c0.4,0,0.7-0.1,1-0.2c0.3-0.2,0.6-0.4,0.7-0.7v-1.6h-0.9c-1.3,0-1.9,0.4-2,1.3
			l0,0.1c0,0.3,0.1,0.6,0.3,0.8S925.5,4405.2,925.8,4405.2z"/>
		<path class="st2" d="M936,4405.1c0.5,0,0.8-0.1,1.1-0.4s0.4-0.6,0.5-1h2.4c0,0.6-0.2,1.2-0.5,1.8c-0.3,0.5-0.8,1-1.4,1.2
			c-0.6,0.3-1.3,0.4-2,0.4c-1.4,0-2.4-0.4-3.2-1.3c-0.8-0.9-1.2-2.1-1.2-3.6v-0.2c0-1.5,0.4-2.6,1.2-3.5s1.8-1.3,3.2-1.3
			c1.2,0,2.1,0.3,2.9,1c0.7,0.7,1.1,1.6,1.1,2.7h-2.4c0-0.5-0.2-0.9-0.5-1.2c-0.3-0.3-0.7-0.5-1.2-0.5c-0.6,0-1,0.2-1.3,0.6
			c-0.3,0.4-0.5,1.1-0.5,2.1v0.3c0,1,0.1,1.7,0.4,2.1C935,4404.9,935.4,4405.1,936,4405.1z"/>
		<path class="st2" d="M941.4,4395c0-0.4,0.1-0.7,0.4-0.9s0.6-0.4,1-0.4c0.4,0,0.8,0.1,1,0.4s0.4,0.6,0.4,0.9c0,0.4-0.1,0.7-0.4,0.9
			s-0.6,0.4-1,0.4s-0.8-0.1-1-0.4S941.4,4395.4,941.4,4395z M944.1,4407h-2.5v-9.5h2.5V4407z"/>
		<path class="st2" d="M948.9,4407h-2.5v-13.5h2.5V4407z"/>
		<path class="st2" d="M951,4395c0-0.4,0.1-0.7,0.4-0.9s0.6-0.4,1-0.4c0.4,0,0.8,0.1,1,0.4s0.4,0.6,0.4,0.9c0,0.4-0.1,0.7-0.4,0.9
			s-0.6,0.4-1,0.4s-0.8-0.1-1-0.4S951,4395.4,951,4395z M953.7,4407h-2.5v-9.5h2.5V4407z"/>
		<path class="st2" d="M958.8,4395.2v2.3h1.6v1.9h-1.6v4.7c0,0.4,0.1,0.6,0.2,0.8s0.4,0.2,0.8,0.2c0.3,0,0.5,0,0.7-0.1v1.9
			c-0.5,0.2-1,0.2-1.5,0.2c-1.8,0-2.7-0.9-2.7-2.7v-5.1h-1.4v-1.9h1.4v-2.3H958.8z"/>
		<path class="st2" d="M967.4,4407c-0.1-0.2-0.2-0.5-0.3-0.9c-0.6,0.7-1.4,1-2.4,1c-0.9,0-1.7-0.3-2.3-0.8s-0.9-1.2-0.9-2
			c0-1,0.4-1.8,1.1-2.3s1.8-0.8,3.2-0.8h1.2v-0.5c0-0.4-0.1-0.8-0.3-1.1s-0.6-0.4-1.1-0.4c-0.4,0-0.8,0.1-1,0.3s-0.4,0.5-0.4,0.8
			h-2.5c0-0.6,0.2-1.1,0.5-1.5s0.8-0.8,1.4-1.1c0.6-0.3,1.3-0.4,2.1-0.4c1.2,0,2.1,0.3,2.8,0.9c0.7,0.6,1,1.4,1,2.5v4.1
			c0,0.9,0.1,1.6,0.4,2v0.2H967.4z M965.3,4405.2c0.4,0,0.7-0.1,1-0.2c0.3-0.2,0.6-0.4,0.7-0.7v-1.6h-0.9c-1.3,0-1.9,0.4-2,1.3
			l0,0.1c0,0.3,0.1,0.6,0.3,0.8S964.9,4405.2,965.3,4405.2z"/>
		<path class="st2" d="M973.9,4397.5l0.1,1.1c0.7-0.8,1.6-1.3,2.7-1.3c1,0,1.8,0.3,2.2,0.9s0.7,1.5,0.8,2.7v6.1h-2.5v-6.1
			c0-0.5-0.1-0.9-0.4-1.2c-0.2-0.2-0.6-0.4-1.2-0.4c-0.7,0-1.3,0.3-1.6,0.9v6.7h-2.5v-9.5H973.9z"/>
		<path class="st2" d="M981.2,4402.2c0-1.5,0.3-2.7,1-3.5s1.6-1.3,2.7-1.3c0.9,0,1.7,0.3,2.3,1v-4.9h2.5v13.5h-2.3l-0.1-1
			c-0.6,0.8-1.4,1.2-2.4,1.2c-1.1,0-2-0.4-2.7-1.3C981.5,4405,981.2,4403.7,981.2,4402.2z M983.7,4402.4c0,0.9,0.2,1.6,0.5,2.1
			c0.3,0.5,0.8,0.7,1.4,0.7c0.8,0,1.3-0.3,1.7-1v-3.8c-0.3-0.7-0.9-1-1.6-1C984.4,4399.4,983.7,4400.4,983.7,4402.4z"/>
		<path class="st2" d="M991.3,4402.2c0-0.9,0.2-1.8,0.5-2.5s0.9-1.3,1.6-1.7s1.5-0.6,2.4-0.6c1.3,0,2.3,0.4,3.1,1.2s1.3,1.9,1.4,3.2
			l0,0.7c0,1.5-0.4,2.6-1.2,3.5c-0.8,0.9-1.9,1.3-3.3,1.3s-2.5-0.4-3.3-1.3s-1.2-2.1-1.2-3.6V4402.2z M993.9,4402.3
			c0,0.9,0.2,1.6,0.5,2.1s0.8,0.7,1.5,0.7c0.6,0,1.1-0.2,1.4-0.7c0.3-0.5,0.5-1.2,0.5-2.3c0-0.9-0.2-1.6-0.5-2.1
			c-0.3-0.5-0.8-0.7-1.5-0.7c-0.6,0-1.1,0.2-1.4,0.7S993.9,4401.3,993.9,4402.3z"/>
		<path class="st2" d="M1009.1,4407h-2.5v-13.5h2.5V4407z"/>
		<path class="st2" d="M1016.7,4407c-0.1-0.2-0.2-0.5-0.3-0.9c-0.6,0.7-1.4,1-2.4,1c-0.9,0-1.7-0.3-2.3-0.8s-0.9-1.2-0.9-2
			c0-1,0.4-1.8,1.1-2.3s1.8-0.8,3.2-0.8h1.2v-0.5c0-0.4-0.1-0.8-0.3-1.1s-0.6-0.4-1.1-0.4c-0.4,0-0.8,0.1-1,0.3s-0.4,0.5-0.4,0.8
			h-2.5c0-0.6,0.2-1.1,0.5-1.5s0.8-0.8,1.4-1.1c0.6-0.3,1.3-0.4,2.1-0.4c1.2,0,2.1,0.3,2.8,0.9c0.7,0.6,1,1.4,1,2.5v4.1
			c0,0.9,0.1,1.6,0.4,2v0.2H1016.7z M1014.6,4405.2c0.4,0,0.7-0.1,1-0.2c0.3-0.2,0.6-0.4,0.7-0.7v-1.6h-0.9c-1.3,0-1.9,0.4-2,1.3
			l0,0.1c0,0.3,0.1,0.6,0.3,0.8S1014.2,4405.2,1014.6,4405.2z"/>
		<path class="st2" d="M1026,4404.4c0-0.3-0.2-0.6-0.5-0.7c-0.3-0.2-0.8-0.3-1.5-0.5c-2.3-0.5-3.4-1.4-3.4-2.9
			c0-0.8,0.4-1.5,1.1-2.1c0.7-0.6,1.6-0.8,2.7-0.8c1.2,0,2.2,0.3,2.9,0.9s1.1,1.3,1.1,2.2h-2.5c0-0.4-0.1-0.7-0.4-0.9
			c-0.2-0.2-0.6-0.4-1.1-0.4c-0.4,0-0.8,0.1-1,0.3s-0.4,0.4-0.4,0.7c0,0.3,0.1,0.5,0.4,0.7c0.3,0.2,0.7,0.3,1.3,0.4
			c0.6,0.1,1.2,0.3,1.6,0.4c1.3,0.5,2,1.3,2,2.6c0,0.9-0.4,1.6-1.1,2.1c-0.7,0.5-1.7,0.8-2.9,0.8c-0.8,0-1.5-0.1-2.1-0.4
			c-0.6-0.3-1.1-0.7-1.5-1.2c-0.4-0.5-0.5-1-0.5-1.6h2.4c0,0.5,0.2,0.8,0.5,1s0.7,0.4,1.2,0.4c0.5,0,0.9-0.1,1.1-0.3
			C1025.8,4404.9,1026,4404.7,1026,4404.4z"/>
		<path class="st2" d="M1038.5,4405.1c0.5,0,0.8-0.1,1.1-0.4s0.4-0.6,0.5-1h2.4c0,0.6-0.2,1.2-0.5,1.8c-0.3,0.5-0.8,1-1.4,1.2
			c-0.6,0.3-1.3,0.4-2,0.4c-1.4,0-2.4-0.4-3.2-1.3c-0.8-0.9-1.2-2.1-1.2-3.6v-0.2c0-1.5,0.4-2.6,1.2-3.5s1.8-1.3,3.2-1.3
			c1.2,0,2.1,0.3,2.9,1c0.7,0.7,1.1,1.6,1.1,2.7h-2.4c0-0.5-0.2-0.9-0.5-1.2c-0.3-0.3-0.7-0.5-1.2-0.5c-0.6,0-1,0.2-1.3,0.6
			c-0.3,0.4-0.5,1.1-0.5,2.1v0.3c0,1,0.1,1.7,0.4,2.1C1037.4,4404.9,1037.9,4405.1,1038.5,4405.1z"/>
		<path class="st2" d="M1043.5,4402.2c0-0.9,0.2-1.8,0.5-2.5s0.9-1.3,1.6-1.7s1.5-0.6,2.4-0.6c1.3,0,2.3,0.4,3.1,1.2
			s1.3,1.9,1.4,3.2l0,0.7c0,1.5-0.4,2.6-1.2,3.5c-0.8,0.9-1.9,1.3-3.3,1.3s-2.5-0.4-3.3-1.3s-1.2-2.1-1.2-3.6V4402.2z
			 M1046.1,4402.3c0,0.9,0.2,1.6,0.5,2.1s0.8,0.7,1.5,0.7c0.6,0,1.1-0.2,1.4-0.7c0.3-0.5,0.5-1.2,0.5-2.3c0-0.9-0.2-1.6-0.5-2.1
			c-0.3-0.5-0.8-0.7-1.5-0.7c-0.6,0-1.1,0.2-1.4,0.7S1046.1,4401.3,1046.1,4402.3z"/>
		<path class="st2" d="M1056.5,4397.5l0.1,1.1c0.7-0.8,1.6-1.2,2.7-1.2c1.2,0,2.1,0.5,2.5,1.4c0.7-1,1.6-1.4,2.9-1.4
			c1,0,1.8,0.3,2.3,0.9c0.5,0.6,0.8,1.5,0.8,2.7v6.1h-2.5v-6.1c0-0.5-0.1-0.9-0.3-1.2c-0.2-0.2-0.6-0.4-1.1-0.4
			c-0.8,0-1.3,0.4-1.6,1.1l0,6.5h-2.5v-6.1c0-0.6-0.1-0.9-0.3-1.2s-0.6-0.4-1.1-0.4c-0.7,0-1.2,0.3-1.6,0.9v6.7h-2.5v-9.5H1056.5z"
			/>
		<path class="st2" d="M1078.3,4402.3c0,1.5-0.3,2.6-1,3.5c-0.7,0.9-1.6,1.3-2.7,1.3c-1,0-1.7-0.3-2.3-1v4.5h-2.5v-13.2h2.4l0.1,0.9
			c0.6-0.7,1.4-1.1,2.4-1.1c1.2,0,2.1,0.4,2.7,1.3s1,2.1,1,3.6V4402.3z M1075.7,4402.1c0-0.9-0.2-1.6-0.5-2s-0.8-0.7-1.4-0.7
			c-0.8,0-1.3,0.3-1.6,0.9v3.9c0.3,0.6,0.9,0.9,1.7,0.9C1075.1,4405.1,1075.7,4404.1,1075.7,4402.1z"/>
		<path class="st2" d="M1085.3,4407c-0.1-0.2-0.2-0.5-0.3-0.9c-0.6,0.7-1.4,1-2.4,1c-0.9,0-1.7-0.3-2.3-0.8s-0.9-1.2-0.9-2
			c0-1,0.4-1.8,1.1-2.3s1.8-0.8,3.2-0.8h1.2v-0.5c0-0.4-0.1-0.8-0.3-1.1s-0.6-0.4-1.1-0.4c-0.4,0-0.8,0.1-1,0.3s-0.4,0.5-0.4,0.8
			h-2.5c0-0.6,0.2-1.1,0.5-1.5s0.8-0.8,1.4-1.1c0.6-0.3,1.3-0.4,2.1-0.4c1.2,0,2.1,0.3,2.8,0.9c0.7,0.6,1,1.4,1,2.5v4.1
			c0,0.9,0.1,1.6,0.4,2v0.2H1085.3z M1083.2,4405.2c0.4,0,0.7-0.1,1-0.2c0.3-0.2,0.6-0.4,0.7-0.7v-1.6h-0.9c-1.3,0-1.9,0.4-2,1.3
			l0,0.1c0,0.3,0.1,0.6,0.3,0.8S1082.9,4405.2,1083.2,4405.2z"/>
		<path class="st2" d="M1094.8,4399.9c-0.3,0-0.7-0.1-0.9-0.1c-1,0-1.6,0.3-1.9,1v6.2h-2.5v-9.5h2.4l0.1,1.1
			c0.5-0.9,1.2-1.3,2.1-1.3c0.3,0,0.5,0,0.8,0.1L1094.8,4399.9z"/>
		<path class="st2" d="M1101.3,4407c-0.1-0.2-0.2-0.5-0.3-0.9c-0.6,0.7-1.4,1-2.4,1c-0.9,0-1.7-0.3-2.3-0.8s-0.9-1.2-0.9-2
			c0-1,0.4-1.8,1.1-2.3s1.8-0.8,3.2-0.8h1.2v-0.5c0-0.4-0.1-0.8-0.3-1.1s-0.6-0.4-1.1-0.4c-0.4,0-0.8,0.1-1,0.3s-0.4,0.5-0.4,0.8
			h-2.5c0-0.6,0.2-1.1,0.5-1.5s0.8-0.8,1.4-1.1c0.6-0.3,1.3-0.4,2.1-0.4c1.2,0,2.1,0.3,2.8,0.9c0.7,0.6,1,1.4,1,2.5v4.1
			c0,0.9,0.1,1.6,0.4,2v0.2H1101.3z M1099.2,4405.2c0.4,0,0.7-0.1,1-0.2c0.3-0.2,0.6-0.4,0.7-0.7v-1.6h-0.9c-1.3,0-1.9,0.4-2,1.3
			l0,0.1c0,0.3,0.1,0.6,0.3,0.8S1098.8,4405.2,1099.2,4405.2z"/>
		<path class="st2" d="M1109.4,4405.1c0.5,0,0.8-0.1,1.1-0.4s0.4-0.6,0.5-1h2.4c0,0.6-0.2,1.2-0.5,1.8c-0.3,0.5-0.8,1-1.4,1.2
			c-0.6,0.3-1.3,0.4-2,0.4c-1.4,0-2.4-0.4-3.2-1.3c-0.8-0.9-1.2-2.1-1.2-3.6v-0.2c0-1.5,0.4-2.6,1.2-3.5s1.8-1.3,3.2-1.3
			c1.2,0,2.1,0.3,2.9,1c0.7,0.7,1.1,1.6,1.1,2.7h-2.4c0-0.5-0.2-0.9-0.5-1.2c-0.3-0.3-0.7-0.5-1.2-0.5c-0.6,0-1,0.2-1.3,0.6
			c-0.3,0.4-0.5,1.1-0.5,2.1v0.3c0,1,0.1,1.7,0.4,2.1C1108.3,4404.9,1108.8,4405.1,1109.4,4405.1z"/>
		<path class="st2" d="M1114.8,4395c0-0.4,0.1-0.7,0.4-0.9s0.6-0.4,1-0.4c0.4,0,0.8,0.1,1,0.4s0.4,0.6,0.4,0.9
			c0,0.4-0.1,0.7-0.4,0.9s-0.6,0.4-1,0.4s-0.8-0.1-1-0.4S1114.8,4395.4,1114.8,4395z M1117.5,4407h-2.5v-9.5h2.5V4407z"/>
		<path class="st2" d="M1119.2,4402.2c0-0.9,0.2-1.8,0.5-2.5s0.9-1.3,1.6-1.7s1.5-0.6,2.4-0.6c1.3,0,2.3,0.4,3.1,1.2
			s1.3,1.9,1.4,3.2l0,0.7c0,1.5-0.4,2.6-1.2,3.5c-0.8,0.9-1.9,1.3-3.3,1.3s-2.5-0.4-3.3-1.3s-1.2-2.1-1.2-3.6V4402.2z
			 M1121.7,4402.3c0,0.9,0.2,1.6,0.5,2.1s0.8,0.7,1.5,0.7c0.6,0,1.1-0.2,1.4-0.7c0.3-0.5,0.5-1.2,0.5-2.3c0-0.9-0.2-1.6-0.5-2.1
			c-0.3-0.5-0.8-0.7-1.5-0.7c-0.6,0-1.1,0.2-1.4,0.7S1121.7,4401.3,1121.7,4402.3z"/>
		<path class="st2" d="M1132.1,4397.5l0.1,1.1c0.7-0.8,1.6-1.3,2.7-1.3c1,0,1.8,0.3,2.2,0.9s0.7,1.5,0.8,2.7v6.1h-2.5v-6.1
			c0-0.5-0.1-0.9-0.4-1.2c-0.2-0.2-0.6-0.4-1.2-0.4c-0.7,0-1.3,0.3-1.6,0.9v6.7h-2.5v-9.5H1132.1z"/>
		<path class="st2" d="M1144.2,4407.2c-1.4,0-2.5-0.4-3.4-1.3s-1.3-2-1.3-3.4v-0.2c0-1,0.2-1.8,0.6-2.6c0.4-0.8,0.9-1.3,1.6-1.7
			c0.7-0.4,1.4-0.6,2.3-0.6c1.3,0,2.3,0.4,3.1,1.2s1.1,2,1.1,3.5v1h-6.1c0.1,0.6,0.3,1.1,0.7,1.5s0.9,0.6,1.6,0.6
			c1,0,1.7-0.4,2.3-1.1l1.2,1.4c-0.4,0.5-0.9,1-1.5,1.3S1145,4407.2,1144.2,4407.2z M1143.9,4399.4c-0.5,0-0.9,0.2-1.2,0.5
			c-0.3,0.3-0.5,0.8-0.6,1.5h3.5v-0.2c0-0.6-0.2-1-0.5-1.3C1144.9,4399.5,1144.5,4399.4,1143.9,4399.4z"/>
		<path class="st2" d="M1154.7,4404.4c0-0.3-0.2-0.6-0.5-0.7c-0.3-0.2-0.8-0.3-1.5-0.5c-2.3-0.5-3.4-1.4-3.4-2.9
			c0-0.8,0.3-1.5,1-2.1c0.7-0.6,1.6-0.8,2.7-0.8c1.2,0,2.2,0.3,2.9,0.9s1.1,1.3,1.1,2.2h-2.5c0-0.4-0.1-0.7-0.4-0.9
			c-0.2-0.2-0.6-0.4-1.1-0.4c-0.4,0-0.8,0.1-1,0.3s-0.4,0.4-0.4,0.7c0,0.3,0.1,0.5,0.4,0.7c0.3,0.2,0.7,0.3,1.3,0.4
			c0.6,0.1,1.2,0.3,1.6,0.4c1.3,0.5,2,1.3,2,2.6c0,0.9-0.4,1.6-1.1,2.1c-0.7,0.5-1.7,0.8-2.9,0.8c-0.8,0-1.5-0.1-2.1-0.4
			c-0.6-0.3-1.1-0.7-1.5-1.2c-0.4-0.5-0.5-1-0.5-1.6h2.4c0,0.5,0.2,0.8,0.5,1s0.7,0.4,1.2,0.4c0.5,0,0.9-0.1,1.1-0.3
			C1154.6,4404.9,1154.7,4404.7,1154.7,4404.4z"/>
		<path class="st2" d="M1162.9,4402.2c0-1.5,0.3-2.7,1-3.5s1.6-1.3,2.7-1.3c0.9,0,1.7,0.3,2.3,1v-4.9h2.5v13.5h-2.3l-0.1-1
			c-0.6,0.8-1.4,1.2-2.4,1.2c-1.1,0-2-0.4-2.7-1.3C1163.3,4405,1162.9,4403.7,1162.9,4402.2z M1165.5,4402.4c0,0.9,0.2,1.6,0.5,2.1
			c0.3,0.5,0.8,0.7,1.4,0.7c0.8,0,1.3-0.3,1.7-1v-3.8c-0.3-0.7-0.9-1-1.6-1C1166.1,4399.4,1165.5,4400.4,1165.5,4402.4z"/>
		<path class="st2" d="M1177.8,4407.2c-1.4,0-2.5-0.4-3.4-1.3s-1.3-2-1.3-3.4v-0.2c0-1,0.2-1.8,0.6-2.6c0.4-0.8,0.9-1.3,1.6-1.7
			c0.7-0.4,1.4-0.6,2.3-0.6c1.3,0,2.3,0.4,3.1,1.2s1.1,2,1.1,3.5v1h-6.1c0.1,0.6,0.3,1.1,0.7,1.5s0.9,0.6,1.6,0.6
			c1,0,1.7-0.4,2.3-1.1l1.2,1.4c-0.4,0.5-0.9,1-1.5,1.3S1178.6,4407.2,1177.8,4407.2z M1177.6,4399.4c-0.5,0-0.9,0.2-1.2,0.5
			c-0.3,0.3-0.5,0.8-0.6,1.5h3.5v-0.2c0-0.6-0.2-1-0.5-1.3C1178.5,4399.5,1178.1,4399.4,1177.6,4399.4z"/>
		<path class="st2" d="M1190.4,4407h-2.5v-13.5h2.5V4407z"/>
		<path class="st2" d="M1192.1,4402.2c0-0.9,0.2-1.8,0.5-2.5s0.9-1.3,1.6-1.7s1.5-0.6,2.4-0.6c1.3,0,2.3,0.4,3.1,1.2
			s1.3,1.9,1.4,3.2l0,0.7c0,1.5-0.4,2.6-1.2,3.5c-0.8,0.9-1.9,1.3-3.3,1.3s-2.5-0.4-3.3-1.3s-1.2-2.1-1.2-3.6V4402.2z
			 M1194.6,4402.3c0,0.9,0.2,1.6,0.5,2.1s0.8,0.7,1.5,0.7c0.6,0,1.1-0.2,1.4-0.7c0.3-0.5,0.5-1.2,0.5-2.3c0-0.9-0.2-1.6-0.5-2.1
			c-0.3-0.5-0.8-0.7-1.5-0.7c-0.6,0-1.1,0.2-1.4,0.7S1194.6,4401.3,1194.6,4402.3z"/>
		<path class="st2" d="M1207.8,4404.4c0-0.3-0.2-0.6-0.5-0.7c-0.3-0.2-0.8-0.3-1.5-0.5c-2.3-0.5-3.4-1.4-3.4-2.9
			c0-0.8,0.3-1.5,1-2.1c0.7-0.6,1.6-0.8,2.7-0.8c1.2,0,2.2,0.3,2.9,0.9s1.1,1.3,1.1,2.2h-2.5c0-0.4-0.1-0.7-0.4-0.9
			c-0.2-0.2-0.6-0.4-1.1-0.4c-0.4,0-0.8,0.1-1,0.3s-0.4,0.4-0.4,0.7c0,0.3,0.1,0.5,0.4,0.7c0.3,0.2,0.7,0.3,1.3,0.4
			c0.6,0.1,1.2,0.3,1.6,0.4c1.3,0.5,2,1.3,2,2.6c0,0.9-0.4,1.6-1.1,2.1c-0.7,0.5-1.7,0.8-2.9,0.8c-0.8,0-1.5-0.1-2.1-0.4
			c-0.6-0.3-1.1-0.7-1.5-1.2c-0.4-0.5-0.5-1-0.5-1.6h2.4c0,0.5,0.2,0.8,0.5,1s0.7,0.4,1.2,0.4c0.5,0,0.9-0.1,1.1-0.3
			C1207.7,4404.9,1207.8,4404.7,1207.8,4404.4z"/>
		<path class="st2" d="M1218.8,4398.5c0.7-0.8,1.5-1.2,2.5-1.2c2.1,0,3.1,1.2,3.1,3.6v6.1h-2.5v-6c0-0.5-0.1-0.9-0.4-1.2
			c-0.2-0.3-0.6-0.4-1.2-0.4c-0.7,0-1.3,0.3-1.6,0.9v6.8h-2.5v-13.5h2.5V4398.5z"/>
		<path class="st2" d="M1230.8,4407.2c-1.4,0-2.5-0.4-3.4-1.3s-1.3-2-1.3-3.4v-0.2c0-1,0.2-1.8,0.6-2.6c0.4-0.8,0.9-1.3,1.6-1.7
			c0.7-0.4,1.4-0.6,2.3-0.6c1.3,0,2.3,0.4,3.1,1.2s1.1,2,1.1,3.5v1h-6.1c0.1,0.6,0.3,1.1,0.7,1.5s0.9,0.6,1.6,0.6
			c1,0,1.7-0.4,2.3-1.1l1.2,1.4c-0.4,0.5-0.9,1-1.5,1.3S1231.6,4407.2,1230.8,4407.2z M1230.5,4399.4c-0.5,0-0.9,0.2-1.2,0.5
			c-0.3,0.3-0.5,0.8-0.6,1.5h3.5v-0.2c0-0.6-0.2-1-0.5-1.3C1231.5,4399.5,1231.1,4399.4,1230.5,4399.4z"/>
		<path class="st2" d="M1240.1,4405.1c0.5,0,0.8-0.1,1.1-0.4s0.4-0.6,0.5-1h2.4c0,0.6-0.2,1.2-0.5,1.8c-0.3,0.5-0.8,1-1.4,1.2
			c-0.6,0.3-1.3,0.4-2,0.4c-1.4,0-2.4-0.4-3.2-1.3c-0.8-0.9-1.2-2.1-1.2-3.6v-0.2c0-1.5,0.4-2.6,1.2-3.5s1.8-1.3,3.2-1.3
			c1.2,0,2.1,0.3,2.9,1c0.7,0.7,1.1,1.6,1.1,2.7h-2.4c0-0.5-0.2-0.9-0.5-1.2c-0.3-0.3-0.7-0.5-1.2-0.5c-0.6,0-1,0.2-1.3,0.6
			c-0.3,0.4-0.5,1.1-0.5,2.1v0.3c0,1,0.1,1.7,0.4,2.1C1239.1,4404.9,1239.5,4405.1,1240.1,4405.1z"/>
		<path class="st2" d="M1248,4398.5c0.7-0.8,1.5-1.2,2.5-1.2c2.1,0,3.1,1.2,3.1,3.6v6.1h-2.5v-6c0-0.5-0.1-0.9-0.4-1.2
			c-0.2-0.3-0.6-0.4-1.2-0.4c-0.7,0-1.3,0.3-1.6,0.9v6.8h-2.5v-13.5h2.5V4398.5z"/>
		<path class="st2" d="M1255.2,4402.2c0-0.9,0.2-1.8,0.5-2.5s0.9-1.3,1.6-1.7s1.5-0.6,2.4-0.6c1.3,0,2.3,0.4,3.1,1.2
			s1.3,1.9,1.4,3.2l0,0.7c0,1.5-0.4,2.6-1.2,3.5c-0.8,0.9-1.9,1.3-3.3,1.3s-2.5-0.4-3.3-1.3s-1.2-2.1-1.2-3.6V4402.2z
			 M1257.8,4402.3c0,0.9,0.2,1.6,0.5,2.1s0.8,0.7,1.5,0.7c0.6,0,1.1-0.2,1.4-0.7c0.3-0.5,0.5-1.2,0.5-2.3c0-0.9-0.2-1.6-0.5-2.1
			c-0.3-0.5-0.8-0.7-1.5-0.7c-0.6,0-1.1,0.2-1.4,0.7S1257.8,4401.3,1257.8,4402.3z"/>
		<path class="st2" d="M1271,4404.4c0-0.3-0.2-0.6-0.5-0.7c-0.3-0.2-0.8-0.3-1.5-0.5c-2.3-0.5-3.4-1.4-3.4-2.9c0-0.8,0.3-1.5,1-2.1
			c0.7-0.6,1.6-0.8,2.7-0.8c1.2,0,2.2,0.3,2.9,0.9s1.1,1.3,1.1,2.2h-2.5c0-0.4-0.1-0.7-0.4-0.9c-0.2-0.2-0.6-0.4-1.1-0.4
			c-0.4,0-0.8,0.1-1,0.3s-0.4,0.4-0.4,0.7c0,0.3,0.1,0.5,0.4,0.7c0.3,0.2,0.7,0.3,1.3,0.4c0.6,0.1,1.2,0.3,1.6,0.4
			c1.3,0.5,2,1.3,2,2.6c0,0.9-0.4,1.6-1.1,2.1c-0.7,0.5-1.7,0.8-2.9,0.8c-0.8,0-1.5-0.1-2.1-0.4c-0.6-0.3-1.1-0.7-1.5-1.2
			c-0.4-0.5-0.5-1-0.5-1.6h2.4c0,0.5,0.2,0.8,0.5,1s0.7,0.4,1.2,0.4c0.5,0,0.9-0.1,1.1-0.3C1270.8,4404.9,1271,4404.7,1271,4404.4z"
			/>
		<path class="st2" d="M1275.2,4405.8c0-0.4,0.1-0.7,0.4-1s0.6-0.4,1-0.4c0.4,0,0.8,0.1,1,0.4s0.4,0.6,0.4,1c0,0.4-0.1,0.7-0.4,1
			c-0.3,0.2-0.6,0.4-1,0.4c-0.4,0-0.8-0.1-1-0.4C1275.3,4406.5,1275.2,4406.2,1275.2,4405.8z"/>
	</g>
	<g id="Elipse_4068" transform="translate(1020 4101)">
		<ellipse class="st2" cx="88.5" cy="89" rx="88.5" ry="89"/>
		<ellipse class="st3" cx="88.5" cy="89" rx="88" ry="88.5"/>
	</g>
	<path id="Trazado_126286" class="st4" d="M1146.3,4146h-15.1c-1.6,0-2.9,1.3-2.9,2.9c0,0,0,0,0,0v26.2h-9.3v-8.8
		c0-1.6-1.3-2.9-2.9-2.9c0,0,0,0,0,0h-15.1c-1.6,0-2.9,1.3-2.9,2.9v23.5h-9.3v-9c0-1.6-1.3-2.9-2.9-2.9c0,0,0,0,0,0h-15.1
		c-1.6,0-2.9,1.3-2.9,2.9v43.7c0,1.6,1.3,2.9,2.9,2.9h75.7c1.6,0,2.9-1.3,2.9-2.9v-75.7C1149.2,4147.3,1147.9,4146,1146.3,4146z
		 M1134.1,4151.8h9.3v58.2h-9.3V4151.8z M1128.3,4181v29.1h-9.3V4181L1128.3,4181z M1103.8,4169.3h9.3v40.8h-9.3V4169.3z
		 M1098,4195.7v14.3h-9.3v-14.3H1098z M1082.9,4183.8v26.2h-9.3v-26.2H1082.9z"/>
</g>
</svg>
