<svg xmlns="http://www.w3.org/2000/svg" xmlns:xlink="http://www.w3.org/1999/xlink" width="232.239" height="232.239" viewBox="0 0 232.239 232.239">
  <defs>
    <clipPath id="clip-path">
      <circle id="Elipse_4134" data-name="Elipse 4134" cx="116.12" cy="116.12" r="116.12" fill="#fd8f25"/>
    </clipPath>
    <linearGradient id="linear-gradient" x1="0.5" y1="-0.042" x2="0.5" y2="0.858" gradientUnits="objectBoundingBox">
      <stop offset="0" stop-color="#0b5b96"/>
      <stop offset="1" stop-color="#482c5b"/>
    </linearGradient>
    <linearGradient id="linear-gradient-2" x1="-0.097" y1="0.882" x2="0.751" y2="0.427" gradientUnits="objectBoundingBox">
      <stop offset="0" stop-color="#232d59"/>
      <stop offset="1" stop-color="#303c84"/>
    </linearGradient>
    <linearGradient id="linear-gradient-3" x1="0.609" y1="1.086" x2="0.427" y2="0.152" xlink:href="#linear-gradient-2"/>
  </defs>
  <g id="Grupo_59921" data-name="Grupo 59921" transform="translate(-1982.333 312.181)">
    <circle id="Elipse_4129" data-name="Elipse 4129" cx="116.12" cy="116.12" r="116.12" transform="translate(1982.333 -312.181)" fill="#fd8f25"/>
    <g id="Grupo_59920" data-name="Grupo 59920" transform="translate(1982.333 -312.181)" clip-path="url(#clip-path)">
      <g id="Grupo_59919" data-name="Grupo 59919" transform="translate(20.789 20.523)">
        <g id="Grupo_59907" data-name="Grupo 59907" transform="translate(30.86 157.622)" opacity="0.16">
          <path id="Trazado_126287" data-name="Trazado 126287" d="M2114.9,144.656l.279-.216c-.158.122-.308.241-.459.36Z" transform="translate(-2114.72 -144.44)" fill="#224d8f"/>
        </g>
        <g id="Grupo_59908" data-name="Grupo 59908" transform="translate(141.541)">
          <rect id="Rectángulo_32457" data-name="Rectángulo 32457" width="1.39" height="6.621" transform="matrix(0.004, -1, 1, 0.004, 0.55, 37.046)" fill="#54bded"/>
          <path id="Trazado_126288" data-name="Trazado 126288" d="M2407.337,7.041l.01-2.259a.343.343,0,0,0-.686,0l-.01,2.259a.343.343,0,1,0,.686,0Z" transform="translate(-2403.438 98.564)" fill="#302c6f"/>
          <path id="Trazado_126289" data-name="Trazado 126289" d="M2405.649,7.488l-.585-1.789,1.959-.028-.613,1.821Z" transform="translate(-2402.47 97.812)" fill="#54bded"/>
          <path id="Trazado_126290" data-name="Trazado 126290" d="M2398.834-13.321l6.873.03-2.483,7.379-1.959.028Z" transform="translate(-2398.671 109.395)" fill="#54bded"/>
          <path id="Trazado_126291" data-name="Trazado 126291" d="M2399.025-164.807l6.612.029a.352.352,0,0,1,.35.353l-.256,58.52a.791.791,0,0,1-.794.788l-5.734-.025a.791.791,0,0,1-.788-.794l.256-58.52A.352.352,0,0,1,2399.025-164.807Z" transform="translate(-2398.415 201.78)" fill="#302c6f"/>
          <path id="Trazado_126292" data-name="Trazado 126292" d="M2399.095-224.274l.143-32.68a2.641,2.641,0,0,1,2.645-2.622l2.048.009a2.642,2.642,0,0,1,2.623,2.645l-.143,32.681a.352.352,0,0,1-.354.35l-6.612-.029A.352.352,0,0,1,2399.095-224.274Z" transform="translate(-2398.829 259.576)" fill="#302c6f"/>
        </g>
        <path id="Trazado_126293" data-name="Trazado 126293" d="M2403.2-233.932l.046-10.645a.99.99,0,0,0-.983-.992.99.99,0,0,0-.992.984l-.047,10.645a.991.991,0,0,0,.984.992A.991.991,0,0,0,2403.2-233.932Z" transform="translate(-2258.586 251.034)" fill="#54bded"/>
        <path id="Trazado_126294" data-name="Trazado 126294" d="M2121.834,119.507a5.97,5.97,0,0,0,7.033-4.624l3.191-15.444A5.952,5.952,0,1,0,2120.4,97.03l-3.191,15.444A5.97,5.97,0,0,0,2121.834,119.507Z" transform="translate(-2085.303 44.991)" fill="#f88b79"/>
        <path id="Trazado_126295" data-name="Trazado 126295" d="M2141.436,116.258a4.542,4.542,0,0,1,4.868-.446l1.313.61a5.543,5.543,0,0,0-1.511,2.378l-2.9,9.1-3.937,3.537-1.63-12.232Z" transform="translate(-2097.835 30.951)" fill="#ffb29f"/>
        <path id="Trazado_126296" data-name="Trazado 126296" d="M2112.77,84.37l9.636-7.47,1.63,12.232-3.767,3.384Z" transform="translate(-2082.67 54.372)" fill="#ffb29f"/>
        <path id="Trazado_126297" data-name="Trazado 126297" d="M2175.439,163.618l.215,9.462c.043,1.878-1.867,3.469-4.321,3.6-2.412.129-4.4-1.381-4.24-3.226l1.259-14.857Z" transform="translate(-2115.794 4.548)" fill="#fb9e8c"/>
        <path id="Trazado_126298" data-name="Trazado 126298" d="M2193.617,162.455l.181,7.978c.036,1.584-1.574,2.925-3.643,3.035-2.034.108-3.707-1.164-3.575-2.72l1.061-12.526Z" transform="translate(-2127.68 4.777)" fill="#fb9e8c"/>
        <path id="Trazado_126299" data-name="Trazado 126299" d="M2244.937-63.177l-101.432-.1a7.347,7.347,0,0,1-7.318-7.333l.147-150.4a7.347,7.347,0,0,1,7.333-7.318l101.432.1a7.348,7.348,0,0,1,7.318,7.333l-.147,150.4A7.348,7.348,0,0,1,2244.937-63.177Z" transform="translate(-2096.952 240.518)" fill="url(#linear-gradient)"/>
        <path id="Trazado_126300" data-name="Trazado 126300" d="M2250.222-54.71l-93.706-2.351-3.052-140.284h96.759Z" transform="translate(-2107.487 221.624)" fill="#0f2c4f"/>
        <rect id="Rectángulo_32458" data-name="Rectángulo 32458" width="96.759" height="142.635" transform="translate(48.723 21.928)" fill="#fff"/>
        <path id="Trazado_126301" data-name="Trazado 126301" d="M2063.508,240.19l-3.182,10.875,22.439,6.039.111-.364a35.711,35.711,0,0,1,3.443-7.774l-22.737-9.238Z" transform="translate(-2050.687 -44.93)" fill="#fff"/>
        <path id="Trazado_126302" data-name="Trazado 126302" d="M2111,66.067a5.586,5.586,0,0,0-6.962,3.629l-2.9,9.1-5.87,18.4a1.068,1.068,0,0,1-2.021.041L2091,91.087a3.752,3.752,0,0,1,1.013-4.072l1.519-1.37-7.6-8.076-1.58,1.225c-5.094,3.949-7.75,5.323-8.762,11.689l-6.918,43.183,22.737,9.238a35.739,35.739,0,0,1,2.086-3.143l9.482-12.708a19.718,19.718,0,0,0,3.914-11.537l.182-14.011a15.866,15.866,0,0,1,.612-4.16l6.946-24.247A5.688,5.688,0,0,0,2111,66.067Z" transform="translate(-2055.777 61.132)" fill="#ffb29f"/>
        <g id="Grupo_59909" data-name="Grupo 59909" transform="translate(9.198 126.613)">
          <path id="Trazado_126303" data-name="Trazado 126303" d="M2072.981,125.069l2.313-14.655a15.729,15.729,0,0,1,.978-3.561,10.469,10.469,0,0,1,1.993-3.095,22.678,22.678,0,0,1,2.757-2.47l2.937-2.266-2.949,2.25a22.813,22.813,0,0,0-2.775,2.457,10.52,10.52,0,0,0-2.02,3.1,15.782,15.782,0,0,0-1,3.571l-2.4,14.643-4.8,28.771.523.212Z" transform="translate(-2064.573 -85.733)" fill="#fb9e8c"/>
          <path id="Trazado_126304" data-name="Trazado 126304" d="M2149.646,69.975a6.027,6.027,0,0,0-2.494-4.017,5.84,5.84,0,0,0-4.629-.839,5.916,5.916,0,0,0-3.741,2.808,5.807,5.807,0,0,0-.481,1.1l-.341,1.094-.68,2.184-1.359,4.368-5.449,17.468-.689,2.181a1.228,1.228,0,0,1-.57.877,1.031,1.031,0,0,1-1.014-.041,1.612,1.612,0,0,1-.547-.923l-.4-1.073-.789-2.147-.789-2.147a3.972,3.972,0,0,1-.3-2.209,3.7,3.7,0,0,1,1-1.988c.549-.522,1.125-1.027,1.686-1.541l.028-.026c-.052.01-.1.026-.146.033-.543.491-1.093.969-1.63,1.474a3.786,3.786,0,0,0-1.034,2.032,4.081,4.081,0,0,0,.3,2.263l1.554,4.3.389,1.076c.07.181.118.355.206.541a1.124,1.124,0,0,0,.394.458,1.184,1.184,0,0,0,1.168.053,1.386,1.386,0,0,0,.652-.966l.7-2.177,5.674-17.4,2.133-6.522.355-1.085a5.236,5.236,0,0,1,.451-.988,5.341,5.341,0,0,1,3.409-2.487,5.2,5.2,0,0,1,4.106.8,5.319,5.319,0,0,1,2.148,3.576,5.512,5.512,0,0,1-.1,2.123c-.183.7-.421,1.456-.629,2.181l-2.582,8.777-2.572,8.78-1.272,4.394a16.636,16.636,0,0,0-.734,4.645l-.144,9.148-.073,4.574a19.335,19.335,0,0,1-.531,4.4,19.028,19.028,0,0,1-1.52,4.155,22.132,22.132,0,0,1-2.409,3.754l-5.451,7.348-2.725,3.674a41.4,41.4,0,0,0-2.61,3.819c-.061.1-.114.208-.174.311l1.017.413c.032-.053.059-.108.091-.161a40.217,40.217,0,0,1,2.571-3.715l8.238-10.976a23.293,23.293,0,0,0,2.542-3.922,19.87,19.87,0,0,0,1.6-4.425,20.573,20.573,0,0,0,.538-4.663l.047-4.574.093-9.148a15.53,15.53,0,0,1,.667-4.365l1.248-4.4,2.467-8.81,2.457-8.813c.2-.743.417-1.449.607-2.223A6.274,6.274,0,0,0,2149.646,69.975Z" transform="translate(-2099.464 -64.958)" fill="#fb9e8c"/>
          <path id="Trazado_126305" data-name="Trazado 126305" d="M2081.735,256.29l-21.645-5.666,3-10.542.005-.019c0-.016.06-.39.06-.39l-.523-.212-.08.479-3.256,10.837-.1.349.356.1,22.4,6.194.487.135.145-.485a35.508,35.508,0,0,1,3.553-8.061l-1.016-.413A36.559,36.559,0,0,0,2081.735,256.29Z" transform="translate(-2059.194 -171.381)" fill="#fff"/>
        </g>
        <path id="Trazado_126306" data-name="Trazado 126306" d="M2161.11,76.073l.428-1.738c.077-.289.128-.581.216-.871a1.867,1.867,0,0,1,.482-.763,2.13,2.13,0,0,1,1.692-.589c.619.1,1.171.266,1.761.4l1.742.417.871.209a2.338,2.338,0,0,1,.9.409,2.211,2.211,0,0,1,.894,1.76,2.036,2.036,0,0,1-.066.513l-.122.439-.245.86-.255.857a5.748,5.748,0,0,1-.329.884,4.977,4.977,0,0,1-1.135,1.5,4.449,4.449,0,0,1-3.441,1.2,3.917,3.917,0,0,1-2.91-2.015A4.625,4.625,0,0,1,2161.11,76.073Zm0,0a4.385,4.385,0,0,0,.554,3.424,3.692,3.692,0,0,0,2.865,1.753,4.082,4.082,0,0,0,3.052-1.273,4.651,4.651,0,0,0,.966-1.373,13.1,13.1,0,0,0,.528-1.657l.256-.859.123-.422a1.449,1.449,0,0,0,.053-.371,1.68,1.68,0,0,0-.63-1.339,1.988,1.988,0,0,0-.7-.366l-.855-.263-1.712-.527c-.567-.163-1.149-.378-1.7-.5a1.951,1.951,0,0,0-1.61.462,1.793,1.793,0,0,0-.492.717c-.094.279-.165.573-.242.86Z" transform="translate(-2112.061 57.298)" fill="#fb9e8c"/>
        <path id="Trazado_126307" data-name="Trazado 126307" d="M2224.73-209.857a5.484,5.484,0,0,0,5.457,5.189h38.6a5.484,5.484,0,0,0,5.457-5.189Z" transform="translate(-2150.951 229.254)" fill="#0f2c4f"/>
        <path id="Trazado_126308" data-name="Trazado 126308" d="M2278.333-238.316h-26.4c-.857,0-1.552.952-1.552,2.125v12.054c0,1.174.695,2.125,1.552,2.125h26.4c.857,0,1.552-.952,1.552-2.125v-12.054C2279.885-237.364,2279.19-238.316,2278.333-238.316Z" transform="translate(-2166.593 246.61)" fill="#92b9eb"/>
        <rect id="Rectángulo_32459" data-name="Rectángulo 32459" width="3.775" height="1.182" transform="translate(58.187 89.182)" fill="#d8dffa"/>
        <rect id="Rectángulo_32460" data-name="Rectángulo 32460" width="16.589" height="1.182" transform="translate(91.654 95.703)" fill="#d8dffa"/>
        <path id="Trazado_126309" data-name="Trazado 126309" d="M2184.763-42.83v1.182h16.647l-1.34-1.182Z" transform="translate(-2126.576 127.391)" fill="#d8dffa"/>
        <path id="Trazado_126310" data-name="Trazado 126310" d="M2236.4-46.574h-17.294l2.083,1.837H2236.4Z" transform="translate(-2147.522 129.674)" fill="#d8dffa"/>
        <rect id="Rectángulo_32461" data-name="Rectángulo 32461" width="15.936" height="1.837" transform="translate(92.816 83.067)" fill="#d8dffa"/>
        <path id="Trazado_126311" data-name="Trazado 126311" d="M2184.763-36.908v1.182h19.266l-1.34-1.182Z" transform="translate(-2126.576 123.779)" fill="#d8dffa"/>
        <path id="Trazado_126312" data-name="Trazado 126312" d="M2262.635-37.37h-33.1l2.083,1.837h31.013Z" transform="translate(-2153.884 124.061)" fill="#d8dffa"/>
        <path id="Trazado_126313" data-name="Trazado 126313" d="M2210.646-30.986V-29.8h11.787l-1.34-1.182Z" transform="translate(-2142.361 120.167)" fill="#d8dffa"/>
        <path id="Trazado_126314" data-name="Trazado 126314" d="M2269-28.166H2239.97l2.083,1.837H2269Z" transform="translate(-2160.245 118.448)" fill="#d8dffa"/>
        <rect id="Rectángulo_32462" data-name="Rectángulo 32462" width="50.056" height="1.182" transform="translate(58.187 93.435)" fill="#d8dffa"/>
        <rect id="Rectángulo_32463" data-name="Rectángulo 32463" width="31.071" height="1.182" transform="translate(58.187 95.746)" fill="#d8dffa"/>
        <rect id="Rectángulo_32464" data-name="Rectángulo 32464" width="48.495" height="1.182" transform="translate(58.187 98.056)" fill="#d8dffa"/>
        <rect id="Rectángulo_32465" data-name="Rectángulo 32465" width="7.351" height="1.182" transform="translate(58.187 100.857)" fill="#d8dffa"/>
        <rect id="Rectángulo_32466" data-name="Rectángulo 32466" width="40.245" height="1.182" transform="translate(67.998 100.843)" fill="#d8dffa"/>
        <rect id="Rectángulo_32467" data-name="Rectángulo 32467" width="12.01" height="1.098" transform="translate(125.739 32.895)" fill="#d8dffa"/>
        <rect id="Rectángulo_32468" data-name="Rectángulo 32468" width="12.01" height="1.098" transform="translate(125.739 35.04)" fill="#d8dffa"/>
        <rect id="Rectángulo_32469" data-name="Rectángulo 32469" width="12.01" height="1.098" transform="translate(125.739 37.185)" fill="#d8dffa"/>
        <rect id="Rectángulo_32470" data-name="Rectángulo 32470" width="28.616" height="1.098" transform="translate(109.133 39.331)" fill="#d8dffa"/>
        <rect id="Rectángulo_32471" data-name="Rectángulo 32471" width="22.5" height="1.098" transform="translate(115.248 43.28)" fill="#d8dffa"/>
        <path id="Trazado_126315" data-name="Trazado 126315" d="M2331.022-141.433h1l-1-.705Z" transform="translate(-2215.774 187.955)" fill="#d8dffa"/>
        <path id="Trazado_126316" data-name="Trazado 126316" d="M2353.523-143.144h-22.5v.392l1,.705h21.5Z" transform="translate(-2215.774 188.568)" fill="#d8dffa"/>
        <path id="Trazado_126317" data-name="Trazado 126317" d="M2340.761-135.254l-.383-.271.071.271Z" transform="translate(-2221.48 183.922)" fill="#d8dffa"/>
        <path id="Trazado_126318" data-name="Trazado 126318" d="M2334.673-136.818l-1.17-.827h-2.48v1.1h3.721Z" transform="translate(-2215.774 185.215)" fill="#d8dffa"/>
        <path id="Trazado_126319" data-name="Trazado 126319" d="M2337.379-137.645l1.17.827-.218-.827Z" transform="translate(-2219.651 185.215)" fill="#d8dffa"/>
        <path id="Trazado_126320" data-name="Trazado 126320" d="M2358.888-136.547v-1.1H2339.82l.218.827.383.271Z" transform="translate(-2221.139 185.215)" fill="#d8dffa"/>
        <rect id="Rectángulo_32472" data-name="Rectángulo 32472" width="13.629" height="1.098" transform="translate(109.133 32.895)" fill="#d8dffa"/>
        <rect id="Rectángulo_32473" data-name="Rectángulo 32473" width="13.629" height="1.098" transform="translate(109.133 35.04)" fill="#d8dffa"/>
        <rect id="Rectángulo_32474" data-name="Rectángulo 32474" width="13.629" height="1.098" transform="translate(109.133 37.185)" fill="#d8dffa"/>
        <path id="Trazado_126321" data-name="Trazado 126321" d="M2322.434-148.642h-.612l.612.433Z" transform="translate(-2210.163 191.922)" fill="#d8dffa"/>
        <path id="Trazado_126322" data-name="Trazado 126322" d="M2347.878-130.979h-6.3l.29,1.1h6.013Z" transform="translate(-2222.21 181.15)" fill="#d8dffa"/>
        <path id="Trazado_126323" data-name="Trazado 126323" d="M2348.761-125.48h-5.738l.289,1.1h5.448Z" transform="translate(-2223.094 177.796)" fill="#d8dffa"/>
        <path id="Trazado_126324" data-name="Trazado 126324" d="M2349.645-119.982h-5.173l.289,1.1h4.884Z" transform="translate(-2223.977 174.443)" fill="#d8dffa"/>
        <path id="Trazado_126325" data-name="Trazado 126325" d="M2362.609-114.482h-16.688l.289,1.1h16.4Z" transform="translate(-2224.86 171.089)" fill="#d8dffa"/>
        <path id="Trazado_126326" data-name="Trazado 126326" d="M2363.492-108.984h-16.123l.289,1.1h15.834Z" transform="translate(-2225.743 167.736)" fill="#d8dffa"/>
        <path id="Trazado_126327" data-name="Trazado 126327" d="M2364.375-103.485h-15.558l.289,1.1h15.269Z" transform="translate(-2226.626 164.382)" fill="#d8dffa"/>
        <path id="Trazado_126328" data-name="Trazado 126328" d="M2365.259-97.986h-14.993l.289,1.1h14.7Z" transform="translate(-2227.51 161.029)" fill="#d8dffa"/>
        <path id="Trazado_126329" data-name="Trazado 126329" d="M2352.844-91.026v-1.1h-1.034l.289,1.1Z" transform="translate(-2228.452 157.454)" fill="#d8dffa"/>
        <path id="Trazado_126330" data-name="Trazado 126330" d="M2352.656-86.626h-.188l-.2,1.1h.675Z" transform="translate(-2228.732 154.1)" fill="#d8dffa"/>
        <path id="Trazado_126331" data-name="Trazado 126331" d="M2353.728-85.528v-1.1h-.469l.289,1.1Z" transform="translate(-2229.335 154.1)" fill="#d8dffa"/>
        <path id="Trazado_126332" data-name="Trazado 126332" d="M2352.522-81.126h-1.042l-.2,1.1h1.24Z" transform="translate(-2228.13 150.746)" fill="#d8dffa"/>
        <path id="Trazado_126333" data-name="Trazado 126333" d="M2351.92-75.628h-1.428l-.2,1.1h1.626Z" transform="translate(-2227.527 147.393)" fill="#d8dffa"/>
        <path id="Trazado_126334" data-name="Trazado 126334" d="M2350.715-64.63h-2.2l-.2,1.1h2.4Z" transform="translate(-2226.323 140.686)" fill="#d8dffa"/>
        <g id="Grupo_59910" data-name="Grupo 59910" transform="translate(109.133 40.914)">
          <path id="Trazado_126335" data-name="Trazado 126335" d="M2319.49-154.706h-4.142v1.8h5.146V-154Z" transform="translate(-2315.349 154.706)" fill="#d8dffa"/>
          <rect id="Rectángulo_32475" data-name="Rectángulo 32475" width="5.147" height="1.8" transform="translate(0 2.336)" fill="#d8dffa"/>
          <rect id="Rectángulo_32476" data-name="Rectángulo 32476" width="8.292" height="1.8" transform="translate(0 6.376)" fill="#d8dffa"/>
          <rect id="Rectángulo_32477" data-name="Rectángulo 32477" width="13.863" height="1.8" transform="translate(0 11.302)" fill="#d8dffa"/>
          <rect id="Rectángulo_32478" data-name="Rectángulo 32478" width="13.863" height="1.8" transform="translate(0 14.821)" fill="#d8dffa"/>
          <rect id="Rectángulo_32479" data-name="Rectángulo 32479" width="13.863" height="1.8" transform="translate(0 18.339)" fill="#d8dffa"/>
          <rect id="Rectángulo_32480" data-name="Rectángulo 32480" width="4.066" height="1.8" transform="translate(9.797 21.858)" fill="#d8dffa"/>
          <rect id="Rectángulo_32481" data-name="Rectángulo 32481" width="13.863" height="1.801" transform="translate(0 25.377)" fill="#d8dffa"/>
          <rect id="Rectángulo_32482" data-name="Rectángulo 32482" width="6.003" height="1.8" transform="translate(0 32.414)" fill="#d8dffa"/>
          <rect id="Rectángulo_32483" data-name="Rectángulo 32483" width="13.863" height="1.8" transform="translate(0 36.165)" fill="#d8dffa"/>
        </g>
        <path id="Trazado_126336" data-name="Trazado 126336" d="M2363.469-59.131h-15.94l-.2,1.1h16.138Z" transform="translate(-2225.72 137.332)" fill="#d8dffa"/>
        <g id="Grupo_59911" data-name="Grupo 59911" transform="translate(86.215 12.39)">
          <circle id="Elipse_4130" data-name="Elipse 4130" cx="1.87" cy="1.87" r="1.87" fill="#0f2c4f"/>
          <circle id="Elipse_4131" data-name="Elipse 4131" cx="1.87" cy="1.87" r="1.87" transform="translate(20.908)" fill="#0f2c4f"/>
        </g>
        <path id="Trazado_126337" data-name="Trazado 126337" d="M2082.44,274.894a11.987,11.987,0,0,0-6.928-13.857l-28.721-12.278-11.173,26.135Z" transform="translate(-2035.619 -50.438)" fill="url(#linear-gradient-2)"/>
        <circle id="Elipse_4132" data-name="Elipse 4132" cx="2.801" cy="2.801" r="2.801" transform="translate(35.146 216.967)" fill="#172635"/>
        <g id="Grupo_59912" data-name="Grupo 59912" transform="translate(139.333 6.811)">
          <path id="Trazado_126338" data-name="Trazado 126338" d="M2393.342-208.051a.586.586,0,0,1-.585-.588l.135-30.966a2.527,2.527,0,0,1,2.524-2.513l1.383.006a.586.586,0,0,1,.583.588.586.586,0,0,1-.586.583l-1.374-.006a1.357,1.357,0,0,0-1.36,1.348l-.135,30.965A.586.586,0,0,1,2393.342-208.051Z" transform="translate(-2392.757 242.118)" fill="#54bded"/>
        </g>
        <path id="Trazado_126339" data-name="Trazado 126339" d="M2277.568-162.682l-1.168,1.168,2.163-.087C2278.243-161.968,2277.915-162.331,2277.568-162.682Z" transform="translate(-2182.462 200.484)" fill="#fc619d"/>
        <path id="Trazado_126340" data-name="Trazado 126340" d="M2273.723-167.735l-2.505.1L2261.586-158c.14.126.285.245.42.38a10.193,10.193,0,0,1,.094,14.317l10.5,10.452A25.7,25.7,0,0,0,2273.723-167.735Z" transform="translate(-2173.428 203.566)" fill="#fc619d"/>
        <path id="Trazado_126341" data-name="Trazado 126341" d="M2227.935-105.612c-.033.034-.06.07-.094.1a10.2,10.2,0,0,1-14.42,0c-.135-.135-.254-.28-.38-.42l-6.654,6.655-.821,7.232a25.706,25.706,0,0,0,32.75-2.993c.041-.041.079-.084.119-.126Z" transform="translate(-2139.263 165.873)" fill="#4877bc"/>
        <path id="Trazado_126342" data-name="Trazado 126342" d="M2255.121-173.519a20.52,20.52,0,0,0-14.574-6.029l.132,10.532,5.079-3.006-2.154.087,2.154-.087,1.528-.9-1.528.9,8.353-.337,1.084-1.084C2255.169-173.468,2255.146-173.494,2255.121-173.519Z" transform="translate(-2160.596 210.77)" fill="#a4b9dd"/>
        <path id="Trazado_126343" data-name="Trazado 126343" d="M2243.288-163.3l.036,2.866a10.154,10.154,0,0,1,7.1,2.592l9.632-9.632-10.429.421Z" transform="translate(-2162.269 203.408)" fill="#a4b9dd"/>
        <path id="Trazado_126344" data-name="Trazado 126344" d="M2217.865-179.548a20.524,20.524,0,0,0-14.51,6l8.316,8.278.027-.016.586-1.124-.586,1.124,6.3-3.728Z" transform="translate(-2137.914 210.77)" fill="#4877bc"/>
        <path id="Trazado_126345" data-name="Trazado 126345" d="M2221.822-140.139c.014.013.029-.017.029-.017Z" transform="translate(-2149.177 186.746)" fill="#4877bc"/>
        <path id="Trazado_126346" data-name="Trazado 126346" d="M2228.692-147.98l-.031-2.474-6.788,4.018-.016.03.941.937A8.761,8.761,0,0,1,2228.692-147.98Z" transform="translate(-2149.198 193.027)" fill="#4877bc"/>
        <path id="Trazado_126347" data-name="Trazado 126347" d="M2214.773-143.67l-1.091-1.086-4.523,8.679-1.489,13.124,6.655-6.655a10.188,10.188,0,0,1,.38-14C2214.727-143.63,2214.751-143.648,2214.773-143.67Z" transform="translate(-2140.546 189.552)" fill="#4877bc"/>
        <path id="Trazado_126348" data-name="Trazado 126348" d="M2197.567-146.981l1.017-1.951.116-1.023-.116,1.023,3.622-6.951c-.012-.012-.957.547-.957.547l.945-.559-8.316-8.278-.032.03a20.588,20.588,0,0,0,0,29.116c.025.025.052.048.077.073l3.469-3.468,1.192-10.511Z" transform="translate(-2128.438 201.393)" fill="#4877bc"/>
        <g id="Grupo_59913" data-name="Grupo 59913" transform="translate(63.589 108.715)">
          <rect id="Rectángulo_32484" data-name="Rectángulo 32484" width="6.512" height="14.244" transform="translate(0 31.722)" fill="#4877bc"/>
          <rect id="Rectángulo_32485" data-name="Rectángulo 32485" width="6.512" height="19.531" transform="translate(9.743 26.435)" fill="#fc619d"/>
          <rect id="Rectángulo_32486" data-name="Rectángulo 32486" width="6.512" height="10.56" transform="translate(19.486 35.407)" fill="#a4b9dd"/>
          <rect id="Rectángulo_32487" data-name="Rectángulo 32487" width="6.512" height="37.115" transform="translate(29.229 8.852)" fill="#4877bc"/>
          <rect id="Rectángulo_32488" data-name="Rectángulo 32488" width="6.512" height="22.616" transform="translate(38.972 23.35)" fill="#fc619d"/>
          <rect id="Rectángulo_32489" data-name="Rectángulo 32489" width="6.512" height="35.385" transform="translate(48.715 10.581)" fill="#a4b9dd"/>
          <rect id="Rectángulo_32490" data-name="Rectángulo 32490" width="6.512" height="45.967" transform="translate(58.458)" fill="#4877bc"/>
        </g>
        <g id="Grupo_59914" data-name="Grupo 59914" transform="translate(58.773 49.242)" opacity="0.16">
          <path id="Trazado_126349" data-name="Trazado 126349" d="M2281.758-52.212c-1.054-.4-2.22-.808-3.537-1.3l-1.874-.7-11.423-4.263-4.5-1.681a4.537,4.537,0,0,0-3.884.346l-5.822-8.565a8.438,8.438,0,0,0-9.792-3.179l-3.474-5.512a31.78,31.78,0,0,0,7.084-41.67,31.4,31.4,0,0,0-43.514-9.655,31.792,31.792,0,0,0-9.9,43.691,31.382,31.382,0,0,0,41.268,10.951l3.917,6.217a8.434,8.434,0,0,0,.5,8.617l7.06,10.386L2239.6-43.5a3.261,3.261,0,0,0,.728,4.27q.183.146.375.276a5.62,5.62,0,0,0,5.882.125l-.382,12.51a2.759,2.759,0,0,0,2.08,2.758,4.338,4.338,0,0,0,4.721-1.02l.1-.106a13.841,13.841,0,0,0,1.339-1.624l-.026.087,4.542,8.092a3.666,3.666,0,0,0,3.6,1.9,3.141,3.141,0,0,0,2.3-1.4l.975,1.435a6.54,6.54,0,0,0,.582.725l1.216,3.728a19.717,19.717,0,0,0,2.817,5.507c.208.286.434.558.657.833h1.913a8.737,8.737,0,0,0,8.737-8.737Zm-50.863-26.676a26.424,26.424,0,0,1-9.5,3.483,26.243,26.243,0,0,1-26.747-12.433,26.64,26.64,0,0,1,9.143-36.4,26.563,26.563,0,0,1,7.438-3.077,26.265,26.265,0,0,1,28.807,12.028A26.637,26.637,0,0,1,2230.895-78.888Z" transform="translate(-2186.265 133.36)" fill="#224d8f"/>
        </g>
        <g id="Grupo_59918" data-name="Grupo 59918" transform="translate(64.253 34.711)">
          <path id="Trazado_126350" data-name="Trazado 126350" d="M2409.573,61.311a5.969,5.969,0,0,1-8.091-2.321L2393.838,45.2a5.952,5.952,0,0,1,10.413-5.77l7.644,13.795A5.969,5.969,0,0,1,2409.573,61.311Z" transform="translate(-2317.883 44.383)" fill="#f88b79"/>
          <path id="Trazado_126351" data-name="Trazado 126351" d="M2381.236,16.585a4.544,4.544,0,0,0-4.781,1.023l-1.071.973a5.545,5.545,0,0,1,2.151,1.821l5.479,7.821,4.811,2.205-2.085-12.163Z" transform="translate(-2307.081 56.62)" fill="#ffb29f"/>
          <path id="Trazado_126352" data-name="Trazado 126352" d="M2375,92.83l4.632,8.254a3.49,3.49,0,0,0,4.641,1.395,3.083,3.083,0,0,0,1.145-4.465L2377.1,85.687Z" transform="translate(-2306.849 14.303)" fill="#f08c7a"/>
          <g id="Grupo_59915" data-name="Grupo 59915">
            <path id="Trazado_126353" data-name="Trazado 126353" d="M2323.369-15.2l5.1-3.252-7.281-11.556-5.1,3.252Z" transform="translate(-2270.919 84.863)" fill="#423d88"/>
            <path id="Trazado_126354" data-name="Trazado 126354" d="M2248.677-112.289a31.792,31.792,0,0,0,9.9-43.691,31.4,31.4,0,0,0-43.513-9.655,31.792,31.792,0,0,0-9.9,43.691A31.4,31.4,0,0,0,2248.677-112.289Zm-39.982-12.795a26.64,26.64,0,0,1,9.143-36.4,26.563,26.563,0,0,1,7.437-3.077,26.265,26.265,0,0,1,28.808,12.028,26.636,26.636,0,0,1-9.143,36.4,26.417,26.417,0,0,1-9.5,3.482A26.242,26.242,0,0,1,2208.695-125.083Z" transform="translate(-2200.311 170.606)" fill="#302c6f"/>
          </g>
          <path id="Trazado_126355" data-name="Trazado 126355" d="M2354.377,63.943l-.438,14.34a2.759,2.759,0,0,0,2.08,2.759,4.339,4.339,0,0,0,4.722-1.021l.1-.106a13.865,13.865,0,0,0,3.774-7.853l-6.857-10.073Z" transform="translate(-2294.002 28.755)" fill="#fb9e8c"/>
          <path id="Trazado_126356" data-name="Trazado 126356" d="M2340.661,46.36l-4.417,5.209a3.261,3.261,0,0,0,.728,4.27c.122.1.246.19.375.277a5.644,5.644,0,0,0,6.057.035l2.85-1.723Z" transform="translate(-2282.91 38.287)" fill="#ffb29f"/>
          <path id="Trazado_126357" data-name="Trazado 126357" d="M2368.79,42.054l-3.061,2.081a6.581,6.581,0,0,1-9.116-1.738L2327.575-.318a8.438,8.438,0,0,1,2.228-11.688,8.438,8.438,0,0,1,11.688,2.228l29.037,42.715A6.582,6.582,0,0,1,2368.79,42.054Z" transform="translate(-2277.042 74.764)" fill="#17416d"/>
          <path id="Trazado_126358" data-name="Trazado 126358" d="M2418.211,74.12l-19.667-39.585c-2.861-5.775-5.806-6.3-11.844-8.55l-1.874-.7-4.854,9.974,1.858.855a3.752,3.752,0,0,1,2.179,3.586l-.309,6.533a1.068,1.068,0,0,1-1.942.562l-11.08-15.816-5.479-7.821a5.587,5.587,0,0,0-7.728-1.393,5.688,5.688,0,0,0-1.373,7.793l13.849,21.08a15.851,15.851,0,0,1,1.822,3.789l4.345,13.322a19.719,19.719,0,0,0,7.17,9.849l12.836,9.31a35.62,35.62,0,0,1,2.837,2.3l19.329-14.975Z" transform="translate(-2294.73 53.884)" fill="#ffb29f"/>
          <path id="Trazado_126359" data-name="Trazado 126359" d="M2486.792,157.781l-19.33,14.975a35.673,35.673,0,0,1,5.69,6.478l.215.314,19.625-12.445Z" transform="translate(-2363.236 -29.665)" fill="#fff"/>
          <g id="Grupo_59916" data-name="Grupo 59916" transform="translate(60.029 74.348)">
            <path id="Trazado_126360" data-name="Trazado 126360" d="M2418.821,57.8l.016-.034-.033-.015Z" transform="translate(-2393.589 -43.007)" fill="#fb9e8c"/>
            <path id="Trazado_126361" data-name="Trazado 126361" d="M2482.553,212.139c-.092-.138-.2-.269-.29-.407l-.417.261Z" transform="translate(-2432.037 -136.915)" fill="#fb9e8c"/>
            <path id="Trazado_126362" data-name="Trazado 126362" d="M2531.884,180.848l-.309.193.2.309Z" transform="translate(-2462.364 -118.08)" fill="#fb9e8c"/>
            <path id="Trazado_126363" data-name="Trazado 126363" d="M2398.631,88.191A41.36,41.36,0,0,0,2395,85.322l-3.7-2.7-7.391-5.392a22.057,22.057,0,0,1-3.417-2.866,18.971,18.971,0,0,1-2.688-3.514,19.4,19.4,0,0,1-1.817-4.045l-1.43-4.345-2.861-8.69a16.635,16.635,0,0,0-2.083-4.216L2367.1,45.74l-5.069-7.617-5.078-7.61c-.414-.631-.865-1.276-1.25-1.895a5.521,5.521,0,0,1-.73-2,5.32,5.32,0,0,1,.986-4.054,5.2,5.2,0,0,1,3.681-1.986,5.338,5.338,0,0,1,4,1.36,5.208,5.208,0,0,1,.725.809l.662.93,1.325,1.864L2369,29.273l10.6,14.919,1.317,1.87a1.387,1.387,0,0,0,.91.728,1.183,1.183,0,0,0,1.1-.4,1.122,1.122,0,0,0,.24-.554c.028-.2.022-.385.035-.578l.051-1.143.1-2.285.1-2.285a4.083,4.083,0,0,0-.39-2.249,3.786,3.786,0,0,0-1.591-1.632c-.679-.33-1.363-.629-2.045-.945l-.016.034-.017-.049.033.015,4.809-9.949,1.871.692-1.872-.7c-.007,0-4.889,9.963-4.889,9.963l-.017.033.034.016c.689.324,1.39.635,2.069.97a3.694,3.694,0,0,1,1.544,1.6,3.969,3.969,0,0,1,.366,2.2l-.114,2.285-.115,2.284-.057,1.142a1.615,1.615,0,0,1-.247,1.043,1.033,1.033,0,0,1-.956.341,1.23,1.23,0,0,1-.8-.668l-1.307-1.877-10.4-15.054-2.6-3.766-1.3-1.882-.652-.943a5.743,5.743,0,0,0-.785-.9,5.913,5.913,0,0,0-4.407-1.567,5.84,5.84,0,0,0-4.169,2.179,6.029,6.029,0,0,0-1.185,4.577,6.261,6.261,0,0,0,.8,2.281c.411.682.827,1.292,1.241,1.942l4.969,7.682,4.977,7.676,2.5,3.83a15.544,15.544,0,0,1,1.936,3.968l2.812,8.706,1.406,4.353a20.555,20.555,0,0,0,1.9,4.292,19.879,19.879,0,0,0,2.84,3.75,23.347,23.347,0,0,0,3.594,2.987l7.421,5.351,3.711,2.676a40.379,40.379,0,0,1,3.56,2.781c.011.011.023.023.035.033l.871-.675C2398.751,88.309,2398.694,88.247,2398.631,88.191Z" transform="translate(-2354.176 -19.962)" fill="#fb9e8c"/>
            <path id="Trazado_126364" data-name="Trazado 126364" d="M2492.6,166.619l-6.264-9.274-.443.343,5.906,9.02.309-.193-.107.5-.2-.309-18.984,11.856c.094.137.2.268.289.407l-.707-.146.417-.261a36.51,36.51,0,0,0-5.589-6.414l-.871.675a35.468,35.468,0,0,1,5.891,6.731l.283.419.425-.273,19.539-12.58.311-.2Z" transform="translate(-2422.591 -103.747)" fill="#fff"/>
            <path id="Trazado_126365" data-name="Trazado 126365" d="M2442.854,36.888a10.461,10.461,0,0,1,2.824,2.362,15.736,15.736,0,0,1,1.994,3.108l6.57,13.3,13.029,26.662c.018.03.116.181.116.181l.443-.343-.07-.1.009.018-.018-.03c.008.012-13.359-26.458-13.359-26.458l-6.646-13.266a15.791,15.791,0,0,0-2.021-3.111,10.511,10.511,0,0,0-2.85-2.357,22.768,22.768,0,0,0-3.382-1.52l-3.486-1.27,3.478,1.289A22.734,22.734,0,0,1,2442.854,36.888Z" transform="translate(-2404.083 -28.561)" fill="#fb9e8c"/>
            <path id="Trazado_126366" data-name="Trazado 126366" d="M2517.4,157.094l-.009-.018C2517.381,157.064,2517.4,157.094,2517.4,157.094Z" transform="translate(-2453.712 -103.581)" fill="#fb9e8c"/>
          </g>
          <g id="Grupo_59917" data-name="Grupo 59917" transform="translate(61.57 76.593)">
            <path id="Trazado_126367" data-name="Trazado 126367" d="M2367.031,28.829l-.946-1.52c-.159-.251-.313-.511-.487-.749a1.793,1.793,0,0,0-.683-.538,1.954,1.954,0,0,0-1.675.039c-.493.281-.985.659-1.478.984l-1.478,1.012-.738.506a1.978,1.978,0,0,0-.561.557,1.68,1.68,0,0,0-.2,1.466,1.435,1.435,0,0,0,.16.339l.243.366.5.744a13.1,13.1,0,0,0,1,1.425,4.651,4.651,0,0,0,1.331,1.023,4.08,4.08,0,0,0,3.292.307,3.691,3.691,0,0,0,2.213-2.527A4.385,4.385,0,0,0,2367.031,28.829Zm0,0a4.629,4.629,0,0,1,.573,3.454,3.919,3.919,0,0,1-2.179,2.79,4.447,4.447,0,0,1-3.641-.118,4.983,4.983,0,0,1-1.53-1.1,5.8,5.8,0,0,1-.577-.747l-.5-.742-.49-.748-.247-.383a2.018,2.018,0,0,1-.216-.471,2.212,2.212,0,0,1,.33-1.946,2.34,2.34,0,0,1,.736-.657l.769-.459,1.539-.917c.523-.3,1-.626,1.563-.9a2.13,2.13,0,0,1,1.791.059,1.865,1.865,0,0,1,.687.584c.17.25.305.514.465.767Z" transform="translate(-2358.126 -25.717)" fill="#fb9e8c"/>
          </g>
          <path id="Trazado_126368" data-name="Trazado 126368" d="M2413.351,25.606l-11.423-4.263,2.085,12.162,4.6,2.11Z" transform="translate(-2323.27 53.544)" fill="#ffb29f"/>
        </g>
        <path id="Trazado_126369" data-name="Trazado 126369" d="M2469.276,222.751h32.943V195.824l-25-32.564-24.165,19.1a12.429,12.429,0,0,0-2.045,17.458Z" transform="translate(-2287.314 1.705)" fill="url(#linear-gradient-3)"/>
        <circle id="Elipse_4133" data-name="Elipse 4133" cx="3.809" cy="3.809" r="3.809" transform="matrix(0.222, -0.975, 0.975, 0.222, 166.357, 197.31)" fill="#172635"/>
      </g>
    </g>
  </g>
</svg>
