<svg xmlns="http://www.w3.org/2000/svg" width="509.266" height="597.026" viewBox="0 0 509.266 597.026">
  <g id="Grupo_59458" data-name="Grupo 59458" transform="translate(-290.733 -3918)">
    <g id="Grupo_59424" data-name="Grupo 59424" transform="translate(-44.267)">
      <rect id="Rectángulo_31641" data-name="Rectángulo 31641" width="190" height="86" rx="18" transform="translate(335 3972)" fill="#472ea6"/>
      <rect id="Rectángulo_31642" data-name="Rectángulo 31642" width="190" height="86" rx="18" transform="translate(335 4190)" fill="#472ea6"/>
      <text id="Investigación_exploratoria_" data-name="Investigación exploratoria
" transform="translate(361 3987)" fill="#fff" font-size="16" font-family="Roboto-Regular, Roboto"><tspan x="22.172" y="17">Investigación </tspan><tspan x="27.305" y="41">exploratoria</tspan></text>
      <text id="Tipo_de_investigación_" data-name="Tipo de investigación
" transform="translate(361 4098)" fill="#12263f" font-size="16" font-family="Roboto-Regular, Roboto"><tspan x="43.004" y="17">Tipo de </tspan><tspan x="22.406" y="41">investigación</tspan></text>
      <text id="Investigación_concluyente_" data-name="Investigación concluyente
" transform="translate(361 4209)" fill="#fff" font-size="16" font-family="Roboto-Regular, Roboto"><tspan x="22.172" y="17">Investigación </tspan><tspan x="26.508" y="41">concluyente</tspan></text>
      <path id="Trazado_125245" data-name="Trazado 125245" d="M-7175-7239v39.638h123.486V-7739.7h-23.63" transform="translate(7869 11700)" fill="none" stroke="#707070" stroke-width="1"/>
      <path id="Polígono_6" data-name="Polígono 6" d="M3.8,0l3.8,6.073H0Z" transform="translate(790.464 3964.091) rotate(-90)" fill="#707070"/>
      <path id="Polígono_7" data-name="Polígono 7" d="M3.8,0l3.8,6.073H0Z" transform="translate(426.705 4058)" fill="#707070"/>
      <path id="Polígono_8" data-name="Polígono 8" d="M3.8,0l3.8,6.073H0Z" transform="translate(433.795 4190) rotate(180)" fill="#707070"/>
      <path id="Polígono_9" data-name="Polígono 9" d="M3.8,0l3.8,6.073H0Z" transform="translate(698.091 4035) rotate(180)" fill="#707070"/>
      <path id="Polígono_10" data-name="Polígono 10" d="M3.8,0l3.8,6.073H0Z" transform="translate(698.295 4164) rotate(180)" fill="#707070"/>
      <path id="Polígono_11" data-name="Polígono 11" d="M3.8,0l3.8,6.073H0Z" transform="translate(698.295 4277) rotate(180)" fill="#707070"/>
      <path id="Polígono_12" data-name="Polígono 12" d="M3.8,0l3.8,6.073H0Z" transform="translate(698.295 4394) rotate(180)" fill="#707070"/>
      <line id="Línea_160" data-name="Línea 160" y2="451" transform="translate(694.5 4004.5)" fill="none" stroke="#707070" stroke-width="1"/>
      <rect id="Rectángulo_31643" data-name="Rectángulo 31643" width="190" height="86" rx="18" transform="translate(599 3918)" fill="#bbabf5"/>
      <rect id="Rectángulo_31644" data-name="Rectángulo 31644" width="190" height="86" rx="18" transform="translate(599 4035)" fill="#bbabf5"/>
      <rect id="Rectángulo_31645" data-name="Rectángulo 31645" width="190" height="86" rx="18" transform="translate(599 4164)" fill="#bbabf5"/>
      <rect id="Rectángulo_31646" data-name="Rectángulo 31646" width="190" height="86" rx="18" transform="translate(599 4277)" fill="#bbabf5"/>
      <rect id="Rectángulo_31647" data-name="Rectángulo 31647" width="190" height="86" rx="18" transform="translate(599 4394)" fill="#bbabf5"/>
      <text id="Reconocer_y_definir_el_problema_de_decisión_" data-name="Reconocer y definir el problema de decisión
" transform="translate(615 3932)" fill="#12263f" font-size="16" font-family="Roboto-Regular, Roboto"><tspan x="3.828" y="17">Reconocer y definir el </tspan><tspan x="3.656" y="41">problema de decisión</tspan></text>
      <text id="Identificar_curso_de_acción_" data-name="Identificar curso
 de acción " transform="translate(625 4059)" fill="#12263f" font-size="16" font-family="Roboto-Regular, Roboto"><tspan x="11.957" y="17">Identificar curso</tspan><tspan x="33.145" y="41" xml:space="preserve"> de acción </tspan></text>
      <text id="Evaluar_cursos_de_acción" data-name="Evaluar cursos
 de acción" transform="translate(621 4187)" fill="#12263f" font-size="16" font-family="Roboto-Regular, Roboto"><tspan x="17.379" y="17">Evaluar cursos</tspan><tspan x="33.145" y="41" xml:space="preserve"> de acción</tspan></text>
      <text id="Seleccionar_un_curso_de_acción_" data-name="Seleccionar un curso de acción 
" transform="translate(625 4296)" fill="#12263f" font-size="16" font-family="Roboto-Regular, Roboto"><tspan x="17.18" y="17">Seleccionar un </tspan><tspan x="13.152" y="41">curso de acción </tspan></text>
      <text id="Medir_el_desempeño_" data-name="Medir el desempeño
" transform="translate(625 4413)" fill="#12263f" font-size="16" font-family="Roboto-Regular, Roboto"><tspan x="40.957" y="17">Medir el </tspan><tspan x="27.672" y="41">desempeño</tspan></text>
      <line id="Línea_161" data-name="Línea 161" y1="39" transform="translate(430.5 4059.5)" fill="none" stroke="#707070" stroke-width="1"/>
      <line id="Línea_162" data-name="Línea 162" y1="39" transform="translate(430.5 4151)" fill="none" stroke="#707070" stroke-width="1"/>
      <path id="Trazado_125246" data-name="Trazado 125246" d="M-7272.95-7743.5h-23.7V-7621h27.859" transform="translate(7869 11700)" fill="none" stroke="#707070" stroke-width="1"/>
      <path id="Trazado_125247" data-name="Trazado 125247" d="M-7272.95-7743.5h-23.7v237.885h27.859" transform="translate(7868 11950.5)" fill="none" stroke="#707070" stroke-width="1"/>
      <line id="Línea_163" data-name="Línea 163" x2="47" transform="translate(525.5 4015.5)" fill="none" stroke="#707070" stroke-width="1"/>
      <line id="Línea_164" data-name="Línea 164" x2="47" transform="translate(525.5 4237)" fill="none" stroke="#707070" stroke-width="1"/>
      <line id="Línea_165" data-name="Línea 165" x2="28" transform="translate(571.5 4320.5)" fill="none" stroke="#707070" stroke-width="1"/>
      <line id="Línea_166" data-name="Línea 166" x1="271.766" transform="translate(545.719 4140.526)" fill="none" stroke="#707070" stroke-width="1" stroke-dasharray="6 6"/>
      <line id="Línea_167" data-name="Línea 167" x1="271.766" transform="translate(572.5 4140.526)" fill="none" stroke="#707070" stroke-width="1" stroke-dasharray="6 6"/>
      <line id="Línea_168" data-name="Línea 168" x1="271.766" transform="translate(572.5 4514.526)" fill="none" stroke="#707070" stroke-width="1" stroke-dasharray="6 6"/>
      <line id="Línea_169" data-name="Línea 169" y2="374" transform="translate(842.5 4140.5)" fill="none" stroke="#707070" stroke-width="1"/>
    </g>
  </g>
</svg>
