<svg xmlns="http://www.w3.org/2000/svg" width="428" height="527.549" viewBox="0 0 428 527.549">
  <g id="Grupo_59512" data-name="Grupo 59512" transform="translate(-439 -4706.451)">
    <path id="Trazado_125576" data-name="Trazado 125576" d="M-7335-6541.5v-335.931h242.727V-6511.8" transform="translate(7869 11700)" fill="none" stroke="#707070" stroke-width="1"/>
    <rect id="Rectángulo_31648" data-name="Rectángulo 31648" width="190" height="86" rx="18" transform="translate(562.733 4706.451)" fill="#fd8f25"/>
    <rect id="Rectángulo_31649" data-name="Rectángulo 31649" width="190" height="48" rx="18" transform="translate(439 4849)" fill="#472ea6"/>
    <rect id="Rectángulo_31651" data-name="Rectángulo 31651" width="190" height="48" rx="18" transform="translate(677 4849)" fill="#472ea6"/>
    <rect id="Rectángulo_31650" data-name="Rectángulo 31650" width="190" height="48" rx="18" transform="translate(439 4924)" fill="#bbabf5"/>
    <rect id="Rectángulo_31655" data-name="Rectángulo 31655" width="190" height="48" rx="18" transform="translate(676 4915)" fill="#bbabf5"/>
    <rect id="Rectángulo_31656" data-name="Rectángulo 31656" width="190" height="48" rx="18" transform="translate(676 4980)" fill="#bbabf5"/>
    <rect id="Rectángulo_31657" data-name="Rectángulo 31657" width="190" height="48" rx="18" transform="translate(676 5046)" fill="#bbabf5"/>
    <rect id="Rectángulo_31658" data-name="Rectángulo 31658" width="190" height="48" rx="18" transform="translate(676 5112)" fill="#bbabf5"/>
    <rect id="Rectángulo_31659" data-name="Rectángulo 31659" width="190" height="48" rx="18" transform="translate(676 5178)" fill="#bbabf5"/>
    <rect id="Rectángulo_31652" data-name="Rectángulo 31652" width="190" height="48" rx="18" transform="translate(439 4992)" fill="#bbabf5"/>
    <rect id="Rectángulo_31653" data-name="Rectángulo 31653" width="190" height="48" rx="18" transform="translate(439 5058)" fill="#bbabf5"/>
    <rect id="Rectángulo_31654" data-name="Rectángulo 31654" width="190" height="48" rx="18" transform="translate(439 5124)" fill="#bbabf5"/>
    <text id="Datos_primarios" data-name="Datos primarios" transform="translate(599 4727.451)" fill="#fff" font-size="16" font-family="Roboto-Bold, Roboto" font-weight="700"><tspan x="-20.711" y="17">Datos </tspan><tspan x="-34.434" y="41">primarios</tspan></text>
    <text id="Cuantitativos" transform="translate(481 4861)" fill="#fff" font-size="16" font-family="Roboto-Regular, Roboto"><tspan x="-46.961" y="17">Cuantitativos</tspan></text>
    <text id="Encuesta" transform="translate(481 4937)" fill="#12263f" font-size="16" font-family="Roboto-Regular, Roboto"><tspan x="-32.887" y="17">Encuesta</tspan></text>
    <text id="Entrevistas" transform="translate(721 4927)" fill="#12263f" font-size="16" font-family="Roboto-Regular, Roboto"><tspan x="-39.5" y="17">Entrevistas</tspan></text>
    <text id="Focus_group" data-name="Focus group" transform="translate(717 4994)" fill="#12263f" font-size="16" font-family="Roboto-Regular, Roboto"><tspan x="-44.184" y="17">Focus group</tspan></text>
    <text id="Observación" transform="translate(714 5060)" fill="#12263f" font-size="16" font-family="Roboto-Regular, Roboto"><tspan x="-44.402" y="17">Observación</tspan></text>
    <text id="T._proyectivas" data-name="T. proyectivas" transform="translate(721 5126)" fill="#12263f" font-size="16" font-family="Roboto-Regular, Roboto"><tspan x="-48.746" y="17">T. proyectivas</tspan></text>
    <text id="Test_mercado_" data-name="Test mercado
" transform="translate(717 5189)" fill="#12263f" font-size="16" font-family="Roboto-Regular, Roboto"><tspan x="-49.227" y="17">Test mercado</tspan><tspan x="0" y="41"></tspan></text>
    <text id="Paneles" transform="translate(481 5006)" fill="#12263f" font-size="16" font-family="Roboto-Regular, Roboto"><tspan x="-28.313" y="17">Paneles</tspan></text>
    <text id="BBDD" transform="translate(481 5069)" fill="#12263f" font-size="16" font-family="Roboto-Regular, Roboto"><tspan x="-20.453" y="17">BBDD</tspan></text>
    <text id="Experimentos_" data-name="Experimentos 
" transform="translate(481 5136)" fill="#12263f" font-size="16" font-family="Roboto-Regular, Roboto"><tspan x="-48.773" y="17">Experimentos </tspan><tspan x="0" y="41"></tspan></text>
    <text id="Cualitativos_" data-name="Cualitativos 
" transform="translate(714 4861)" fill="#fff" font-size="16" font-family="Roboto-Regular, Roboto"><tspan x="-41.875" y="17">Cualitativos </tspan><tspan x="0" y="41"></tspan></text>
    <line id="Línea_170" data-name="Línea 170" y1="30" transform="translate(657.5 4792.5)" fill="none" stroke="#707070" stroke-width="1"/>
  </g>
</svg>
