<svg xmlns="http://www.w3.org/2000/svg" xmlns:xlink="http://www.w3.org/1999/xlink" width="264" height="235" viewBox="0 0 264 235">
  <defs>
    <filter id="Elipse_4052" x="30" y="0" width="234" height="235" filterUnits="userSpaceOnUse">
      <feOffset dy="3" input="SourceAlpha"/>
      <feGaussianBlur stdDeviation="3" result="blur"/>
      <feFlood flood-opacity="0.161"/>
      <feComposite operator="in" in2="blur"/>
      <feComposite in="SourceGraphic"/>
    </filter>
    <clipPath id="clip-path">
      <rect id="Rectángulo_4401" data-name="Rectángulo 4401" width="59.191" height="54.502" fill="none"/>
    </clipPath>
  </defs>
  <g id="Grupo_60139" data-name="Grupo 60139" transform="translate(-415 -6812.5)">
    <g transform="matrix(1, 0, 0, 1, 415, 6812.5)" filter="url(#Elipse_4052)">
      <g id="Elipse_4052-2" data-name="Elipse 4052" transform="translate(39 6)" fill="#fb8f36" stroke="#fff" stroke-width="4">
        <ellipse cx="108" cy="108.5" rx="108" ry="108.5" stroke="none"/>
        <ellipse cx="108" cy="108.5" rx="106" ry="106.5" fill="none"/>
      </g>
    </g>
    <text id="Determinación_del_problema_a_investigar." data-name="Determinación del problema a investigar." transform="translate(496 6896.5)" fill="#12263f" font-size="16" font-family="Roboto-Regular, Roboto"><tspan x="-64.539" y="17">Determinación del </tspan><tspan x="-40.043" y="41">problema a </tspan><tspan x="-36.32" y="65">investigar.</tspan></text>
    <g id="Elipse_4093" data-name="Elipse 4093" transform="translate(473.32 6838.153)" fill="none" stroke="#fff" stroke-linecap="round" stroke-miterlimit="10" stroke-width="2" stroke-dasharray="6 6">
      <circle cx="88.846" cy="88.846" r="88.846" stroke="none"/>
      <circle cx="88.846" cy="88.846" r="89.846" fill="none"/>
    </g>
    <g id="Elipse_4094" data-name="Elipse 4094" transform="translate(415 6890.5)" fill="#fff" stroke="#4733a3" stroke-width="1">
      <circle cx="40.5" cy="40.5" r="40.5" stroke="none"/>
      <circle cx="40.5" cy="40.5" r="40" fill="none"/>
    </g>
    <g id="Grupo_17444" data-name="Grupo 17444" transform="translate(425 6902.5)">
      <path id="Trazado_35915" data-name="Trazado 35915" d="M42.794,116.542l-1.2-.669,5.965-10.737,3.037,3.175L55.9,98.95l3.138,4.366,6.229-12.182,3.116,4.815,3.825-5.618,1.139.775L68.355,98.44l-2.947-4.554-6.171,12.067-3.2-4.452-5.162,9.1-3.025-3.163Z" transform="translate(-36.593 -79.478)" fill="#3d4451"/>
      <g id="Grupo_17443" data-name="Grupo 17443">
        <g id="Grupo_17442" data-name="Grupo 17442" clip-path="url(#clip-path)">
          <path id="Trazado_35916" data-name="Trazado 35916" d="M37.563,405.383c0,1.212-8.409,2.2-18.782,2.2S0,406.6,0,405.383s8.409-2.195,18.782-2.195,18.782.983,18.782,2.195" transform="translate(0 -354.748)" fill="#7eb9c7"/>
          <rect id="Rectángulo_4397" data-name="Rectángulo 4397" width="6.475" height="28.244" transform="translate(28.194 21.023)" fill="#fdc345"/>
          <path id="Trazado_35917" data-name="Trazado 35917" d="M237.351,199.425h-7.677V169.979h7.677Zm-6.476-1.2h5.274V171.18h-5.274Z" transform="translate(-202.08 -149.557)" fill="#3d4451"/>
          <rect id="Rectángulo_4398" data-name="Rectángulo 4398" width="5.829" height="21.08" transform="translate(19.579 28.187)" fill="#f04f4c"/>
          <path id="Trazado_35918" data-name="Trazado 35918" d="M164.992,251.892h-7.03V229.611h7.03Zm-5.829-1.2h4.627V230.812h-4.627Z" transform="translate(-138.984 -202.025)" fill="#3d4451"/>
          <rect id="Rectángulo_4399" data-name="Rectángulo 4399" width="4.735" height="8.68" transform="translate(4.221 40.587)" fill="#c7ddeb"/>
          <path id="Trazado_35919" data-name="Trazado 35919" d="M36.83,343.462h-5.7v-9.641h5.7ZM32.1,342.5h3.774v-7.719H32.1Z" transform="translate(-27.393 -293.715)" fill="#3d4451"/>
          <rect id="Rectángulo_4400" data-name="Rectángulo 4400" width="5.31" height="15.298" transform="translate(11.731 33.968)" fill="#7eb9c7"/>
          <path id="Trazado_35920" data-name="Trazado 35920" d="M99.913,294.993H93.642v-16.26h6.271Zm-5.31-.961h4.349V279.694H94.6Z" transform="translate(-82.392 -245.245)" fill="#3d4451"/>
          <path id="Trazado_35921" data-name="Trazado 35921" d="M84.26,11.6a20.738,20.738,0,1,0,0,29.328,20.738,20.738,0,0,0,0-29.328M81.854,38.521a17.336,17.336,0,1,1,0-24.517,17.336,17.336,0,0,1,0,24.517" transform="translate(-42.988 -4.861)" fill="#c7ddeb"/>
          <path id="Trazado_35922" data-name="Trazado 35922" d="M387.388,353.643a2,2,0,0,1,.205,2.778l-1.884,1.884a2,2,0,0,1-2.778-.206l-7.167-7.167a1.948,1.948,0,0,1-.168-2.74l1.884-1.884a1.948,1.948,0,0,1,2.74.167Z" transform="translate(-330.043 -304.274)" fill="#c7ddeb"/>
          <path id="Trazado_35923" data-name="Trazado 35923" d="M61.945,42.813a21.394,21.394,0,1,1,15.14-6.261,21.345,21.345,0,0,1-15.14,6.261m0-41.466A20.064,20.064,0,1,0,76.133,7.224,19.933,19.933,0,0,0,61.945,1.347" transform="translate(-35.664)" fill="#3d4451"/>
          <path id="Trazado_35924" data-name="Trazado 35924" d="M87.9,65.232A17.868,17.868,0,1,1,100.538,60,17.82,17.82,0,0,1,87.9,65.232m0-34.719a16.851,16.851,0,1,0,11.921,4.93A16.805,16.805,0,0,0,87.9,30.513" transform="translate(-61.617 -25.953)" fill="#3d4451"/>
          <path id="Trazado_35925" data-name="Trazado 35925" d="M336.264,287.57l-5.814-5.814,3.729-3.729,5.814,5.814Zm-4.659-5.814,4.659,4.659,2.573-2.573-4.659-4.659Z" transform="translate(-290.749 -244.624)" fill="#3d4451"/>
          <path id="Trazado_35926" data-name="Trazado 35926" d="M384.071,336.858l-.108,0a2.533,2.533,0,0,1-1.684-.745l-7.167-7.166a2.448,2.448,0,0,1-.727-1.672,2.24,2.24,0,0,1,.653-1.659l2.023-2.023a2.253,2.253,0,0,1,1.66-.654,2.447,2.447,0,0,1,1.672.726l7.167,7.166a2.534,2.534,0,0,1,.745,1.685,2.212,2.212,0,0,1-.634,1.685l-2.023,2.023a2.2,2.2,0,0,1-1.577.637m-5.411-13.22a1.541,1.541,0,0,0-1.1.448l-2.023,2.023a1.544,1.544,0,0,0-.448,1.145,1.747,1.747,0,0,0,.521,1.193l7.167,7.167a1.858,1.858,0,0,0,1.218.54,1.522,1.522,0,0,0,1.158-.429l2.023-2.023a1.518,1.518,0,0,0,.429-1.158,1.859,1.859,0,0,0-.54-1.218l-7.167-7.167a1.748,1.748,0,0,0-1.193-.521h-.043" transform="translate(-329.405 -284.137)" fill="#3d4451"/>
          <path id="Trazado_35927" data-name="Trazado 35927" d="M381.956,335.03l-.121,0a2.821,2.821,0,0,1-1.876-.83l-7.167-7.167a2.736,2.736,0,0,1-.811-1.869,2.526,2.526,0,0,1,.738-1.871l2.023-2.023a2.538,2.538,0,0,1,1.871-.738,2.735,2.735,0,0,1,1.869.811l7.167,7.167a2.822,2.822,0,0,1,.829,1.876,2.5,2.5,0,0,1-.719,1.9l-2.023,2.023a2.485,2.485,0,0,1-1.78.721m-5.411-13.22a1.254,1.254,0,0,0-.9.364l-2.023,2.023a1.257,1.257,0,0,0-.363.933,1.461,1.461,0,0,0,.436,1l7.167,7.167a1.565,1.565,0,0,0,1.026.456,1.232,1.232,0,0,0,.941-.345l2.023-2.023a1.232,1.232,0,0,0,.345-.941,1.567,1.567,0,0,0-.456-1.026l-7.167-7.167a1.459,1.459,0,0,0-1-.436h-.036" transform="translate(-327.289 -282.021)" fill="#3d4451"/>
          <path id="Trazado_35928" data-name="Trazado 35928" d="M400.052,365.872a.351.351,0,0,1-.248-.1l-6.722-6.722a.351.351,0,0,1,.5-.5l6.722,6.722a.351.351,0,0,1-.248.6" transform="translate(-345.765 -315.382)" fill="#3d4451"/>
          <path id="Trazado_35929" data-name="Trazado 35929" d="M287.016,91.633a1.516,1.516,0,1,1-1.516-1.516,1.516,1.516,0,0,1,1.516,1.516" transform="translate(-249.866 -79.29)" fill="#f04f4c"/>
          <path id="Trazado_35930" data-name="Trazado 35930" d="M280.96,89.228a2.135,2.135,0,1,1,2.136-2.135,2.138,2.138,0,0,1-2.136,2.135m0-3.031a.9.9,0,1,0,.9.9.9.9,0,0,0-.9-.9" transform="translate(-245.325 -74.75)" fill="#3d4451"/>
          <path id="Trazado_35931" data-name="Trazado 35931" d="M39.885,294.039a1.516,1.516,0,1,1-1.516-1.516,1.515,1.515,0,0,1,1.516,1.516" transform="translate(-32.426 -257.378)" fill="#f04f4c"/>
          <path id="Trazado_35932" data-name="Trazado 35932" d="M33.829,291.634a2.135,2.135,0,1,1,2.136-2.135,2.138,2.138,0,0,1-2.136,2.135m0-3.031a.9.9,0,1,0,.9.9.9.9,0,0,0-.9-.9" transform="translate(-27.885 -252.838)" fill="#3d4451"/>
        </g>
      </g>
    </g>
  </g>
</svg>
