<?xml version="1.0" encoding="utf-8"?>
<!-- Generator: Adobe Illustrator 25.4.1, SVG Export Plug-In . SVG Version: 6.00 Build 0)  -->
<svg version="1.1" id="Capa_1" xmlns="http://www.w3.org/2000/svg" xmlns:xlink="http://www.w3.org/1999/xlink" x="0px" y="0px"
	 viewBox="0 0 264 235" style="enable-background:new 0 0 264 235;" xml:space="preserve">
<style type="text/css">
	.st0{fill:#FB8F36;}
	.st1{fill:none;stroke:#FFFFFF;stroke-width:4;}
	.st2{enable-background:new    ;}
	.st3{fill:#12263F;}
	.st4{fill:none;}
	.st5{fill:none;stroke:#FFFFFF;stroke-width:2;stroke-linecap:round;stroke-miterlimit:10;stroke-dasharray:6,6;}
	.st6{fill:#FFFFFF;}
	.st7{fill:none;stroke:#4733A3;}
	.st8{fill:#3D4451;}
	.st9{clip-path:url(#SVGID_00000132782928792588438680000006074350853700620472_);}
	.st10{fill:#7EB9C7;}
	.st11{fill:#FDC345;}
	.st12{fill:#F04F4C;}
	.st13{fill:#C7DDEB;}
</style>
<g transform="matrix(1, 0, 0, 1, 415, 6812.5)">
	<g id="Elipse_4052-2" transform="translate(39 6)">
		<ellipse class="st0" cx="-307" cy="-6704" rx="108" ry="108.5"/>
		<ellipse class="st1" cx="-307" cy="-6704" rx="106" ry="106.5"/>
	</g>
</g>
<g class="st2">
	<path class="st3" d="M81.8,101V89.6H85c1,0,1.9,0.2,2.6,0.7c0.8,0.4,1.3,1.1,1.8,1.9s0.6,1.7,0.6,2.8v0.7c0,1.1-0.2,2-0.6,2.8
		s-1,1.4-1.8,1.9c-0.8,0.4-1.7,0.7-2.7,0.7H81.8z M83.3,90.9v8.9h1.6c1.2,0,2.1-0.4,2.7-1.1c0.6-0.7,1-1.7,1-3.1V95
		c0-1.3-0.3-2.3-0.9-3c-0.6-0.7-1.5-1.1-2.6-1.1H83.3z"/>
	<path class="st3" d="M95.6,101.2c-1.1,0-2.1-0.4-2.8-1.1s-1.1-1.8-1.1-3v-0.3c0-0.8,0.2-1.6,0.5-2.2s0.8-1.2,1.3-1.5
		c0.6-0.4,1.2-0.6,1.9-0.6c1.1,0,2,0.4,2.6,1.1s0.9,1.8,0.9,3.1v0.6h-5.7c0,0.8,0.3,1.5,0.7,2c0.5,0.5,1.1,0.8,1.8,0.8
		c0.5,0,0.9-0.1,1.3-0.3c0.4-0.2,0.7-0.5,0.9-0.8l0.9,0.7C98.1,100.6,97,101.2,95.6,101.2z M95.4,93.6c-0.6,0-1.1,0.2-1.5,0.6
		c-0.4,0.4-0.6,1-0.7,1.8h4.2v-0.1c0-0.7-0.2-1.3-0.6-1.7C96.5,93.8,96,93.6,95.4,93.6z"/>
	<path class="st3" d="M102.5,90.5v2h1.6v1.1h-1.6v5.2c0,0.3,0.1,0.6,0.2,0.8c0.1,0.2,0.4,0.3,0.7,0.3c0.2,0,0.4,0,0.7-0.1v1.2
		c-0.4,0.1-0.8,0.2-1.1,0.2c-0.6,0-1.1-0.2-1.5-0.6s-0.5-0.9-0.5-1.7v-5.2h-1.5v-1.1h1.5v-2H102.5z"/>
	<path class="st3" d="M109.3,101.2c-1.1,0-2.1-0.4-2.8-1.1s-1.1-1.8-1.1-3v-0.3c0-0.8,0.2-1.6,0.5-2.2s0.8-1.2,1.3-1.5
		c0.6-0.4,1.2-0.6,1.9-0.6c1.1,0,2,0.4,2.6,1.1s0.9,1.8,0.9,3.1v0.6h-5.7c0,0.8,0.3,1.5,0.7,2c0.5,0.5,1.1,0.8,1.8,0.8
		c0.5,0,0.9-0.1,1.3-0.3c0.4-0.2,0.7-0.5,0.9-0.8l0.9,0.7C111.8,100.6,110.7,101.2,109.3,101.2z M109.1,93.6c-0.6,0-1.1,0.2-1.5,0.6
		c-0.4,0.4-0.6,1-0.7,1.8h4.2v-0.1c0-0.7-0.2-1.3-0.6-1.7C110.2,93.8,109.7,93.6,109.1,93.6z"/>
	<path class="st3" d="M118.3,93.8c-0.2,0-0.5-0.1-0.7-0.1c-0.9,0-1.6,0.4-1.9,1.2v6h-1.4v-8.5h1.4l0,1c0.5-0.8,1.1-1.1,2-1.1
		c0.3,0,0.5,0,0.6,0.1V93.8z"/>
	<path class="st3" d="M121,92.5l0,0.9c0.6-0.7,1.5-1.1,2.5-1.1c1.2,0,2,0.5,2.4,1.4c0.3-0.4,0.6-0.7,1.1-1c0.5-0.2,1-0.4,1.6-0.4
		c1.9,0,2.8,1,2.8,2.9v5.7h-1.4v-5.6c0-0.6-0.1-1.1-0.4-1.4c-0.3-0.3-0.7-0.4-1.4-0.4c-0.5,0-1,0.2-1.3,0.5
		c-0.4,0.3-0.6,0.8-0.6,1.3v5.6h-1.5v-5.5c0-1.2-0.6-1.8-1.8-1.8c-0.9,0-1.6,0.4-1.9,1.2v6.2h-1.4v-8.5H121z"/>
	<path class="st3" d="M133.7,90.3c0-0.2,0.1-0.4,0.2-0.6s0.4-0.2,0.6-0.2s0.5,0.1,0.6,0.2s0.2,0.4,0.2,0.6s-0.1,0.4-0.2,0.6
		s-0.4,0.2-0.6,0.2s-0.5-0.1-0.6-0.2S133.7,90.5,133.7,90.3z M135.3,101h-1.4v-8.5h1.4V101z"/>
	<path class="st3" d="M138.9,92.5l0,1.1c0.6-0.8,1.5-1.2,2.5-1.2c1.8,0,2.7,1,2.7,3v5.6h-1.4v-5.6c0-0.6-0.1-1.1-0.4-1.4
		s-0.7-0.4-1.3-0.4c-0.5,0-0.9,0.1-1.2,0.4s-0.6,0.6-0.8,1v6h-1.4v-8.5H138.9z"/>
	<path class="st3" d="M151.6,101c-0.1-0.2-0.2-0.5-0.2-0.9c-0.7,0.7-1.5,1-2.4,1c-0.8,0-1.5-0.2-2.1-0.7s-0.8-1.1-0.8-1.8
		c0-0.9,0.3-1.6,1-2.1s1.6-0.7,2.8-0.7h1.4v-0.7c0-0.5-0.2-0.9-0.5-1.2s-0.7-0.4-1.3-0.4c-0.5,0-0.9,0.1-1.3,0.4s-0.5,0.6-0.5,0.9
		h-1.5c0-0.4,0.1-0.8,0.4-1.2s0.7-0.7,1.2-0.9s1.1-0.3,1.7-0.3c1,0,1.7,0.2,2.3,0.7s0.8,1.2,0.9,2V99c0,0.8,0.1,1.4,0.3,1.9v0.1
		H151.6z M149.2,99.9c0.5,0,0.9-0.1,1.3-0.4s0.7-0.5,0.9-0.9v-1.7h-1.1c-1.8,0-2.7,0.5-2.7,1.6c0,0.5,0.2,0.8,0.5,1.1
		S148.7,99.9,149.2,99.9z"/>
	<path class="st3" d="M158.5,100c0.5,0,1-0.2,1.4-0.5s0.6-0.7,0.6-1.2h1.4c0,0.5-0.2,0.9-0.5,1.4s-0.7,0.8-1.2,1s-1.1,0.4-1.6,0.4
		c-1.2,0-2.1-0.4-2.7-1.2s-1-1.8-1-3.2v-0.2c0-0.8,0.2-1.6,0.5-2.2s0.7-1.1,1.3-1.5s1.2-0.5,2-0.5c0.9,0,1.7,0.3,2.4,0.9
		s1,1.3,1,2.2h-1.4c0-0.5-0.2-1-0.6-1.3s-0.8-0.5-1.4-0.5c-0.7,0-1.3,0.3-1.7,0.8s-0.6,1.3-0.6,2.3v0.3c0,1,0.2,1.7,0.6,2.2
		S157.7,100,158.5,100z"/>
	<path class="st3" d="M163.5,90.3c0-0.2,0.1-0.4,0.2-0.6s0.4-0.2,0.6-0.2s0.5,0.1,0.6,0.2s0.2,0.4,0.2,0.6s-0.1,0.4-0.2,0.6
		s-0.4,0.2-0.6,0.2s-0.5-0.1-0.6-0.2S163.5,90.5,163.5,90.3z M165,101h-1.4v-8.5h1.4V101z"/>
	<path class="st3" d="M167,96.7c0-0.8,0.2-1.6,0.5-2.2s0.8-1.2,1.4-1.5s1.2-0.5,2-0.5c1.2,0,2.1,0.4,2.8,1.2s1.1,1.9,1.1,3.2v0.1
		c0,0.8-0.2,1.6-0.5,2.2s-0.8,1.2-1.4,1.5s-1.3,0.5-2,0.5c-1.1,0-2.1-0.4-2.8-1.2s-1.1-1.9-1.1-3.2V96.7z M168.4,96.9
		c0,0.9,0.2,1.7,0.7,2.3s1,0.9,1.7,0.9c0.7,0,1.3-0.3,1.8-0.9s0.6-1.4,0.6-2.4c0-0.9-0.2-1.7-0.7-2.3s-1-0.9-1.8-0.9
		c-0.7,0-1.3,0.3-1.7,0.9S168.4,95.8,168.4,96.9z M171.5,89h1.8l-2.1,2.3l-1.2,0L171.5,89z"/>
	<path class="st3" d="M177.8,92.5l0,1.1c0.6-0.8,1.5-1.2,2.5-1.2c1.8,0,2.7,1,2.7,3v5.6h-1.4v-5.6c0-0.6-0.1-1.1-0.4-1.4
		s-0.7-0.4-1.3-0.4c-0.5,0-0.9,0.1-1.2,0.4s-0.6,0.6-0.8,1v6h-1.4v-8.5H177.8z"/>
	<path class="st3" d="M188.9,96.7c0-1.3,0.3-2.3,0.9-3.1s1.4-1.2,2.4-1.2c1,0,1.8,0.3,2.4,1V89h1.4v12h-1.3l-0.1-0.9
		c-0.6,0.7-1.4,1.1-2.4,1.1c-1,0-1.8-0.4-2.4-1.2s-0.9-1.8-0.9-3.1V96.7z M190.4,96.9c0,1,0.2,1.7,0.6,2.2s0.9,0.8,1.6,0.8
		c0.9,0,1.6-0.4,2-1.2v-3.9c-0.4-0.8-1.1-1.2-2-1.2c-0.7,0-1.3,0.3-1.7,0.8S190.4,95.8,190.4,96.9z"/>
	<path class="st3" d="M201.8,101.2c-1.1,0-2.1-0.4-2.8-1.1s-1.1-1.8-1.1-3v-0.3c0-0.8,0.2-1.6,0.5-2.2s0.8-1.2,1.3-1.5
		s1.2-0.6,1.9-0.6c1.1,0,2,0.4,2.6,1.1s0.9,1.8,0.9,3.1v0.6h-5.7c0,0.8,0.3,1.5,0.7,2s1.1,0.8,1.8,0.8c0.5,0,0.9-0.1,1.3-0.3
		s0.7-0.5,0.9-0.8l0.9,0.7C204.3,100.6,203.2,101.2,201.8,101.2z M201.6,93.6c-0.6,0-1.1,0.2-1.5,0.6s-0.6,1-0.7,1.8h4.2v-0.1
		c0-0.7-0.2-1.3-0.6-1.7S202.2,93.6,201.6,93.6z"/>
	<path class="st3" d="M208.3,101h-1.4V89h1.4V101z"/>
</g>
<g class="st2">
	<path class="st3" d="M113.2,120.9c0,1.3-0.3,2.3-0.9,3.1c-0.6,0.8-1.4,1.2-2.4,1.2c-1,0-1.8-0.3-2.4-1v4.1h-1.4v-11.7h1.3l0.1,0.9
		c0.6-0.7,1.4-1.1,2.5-1.1c1,0,1.8,0.4,2.4,1.1c0.6,0.8,0.9,1.8,0.9,3.2V120.9z M111.8,120.7c0-1-0.2-1.7-0.6-2.3s-1-0.8-1.7-0.8
		c-0.9,0-1.5,0.4-2,1.2v4c0.4,0.8,1.1,1.2,2,1.2c0.7,0,1.2-0.3,1.7-0.8C111.6,122.6,111.8,121.8,111.8,120.7z"/>
	<path class="st3" d="M119.1,117.8c-0.2,0-0.5-0.1-0.7-0.1c-0.9,0-1.6,0.4-1.9,1.2v6H115v-8.5h1.4l0,1c0.5-0.8,1.1-1.1,2-1.1
		c0.3,0,0.5,0,0.6,0.1V117.8z"/>
	<path class="st3" d="M119.9,120.7c0-0.8,0.2-1.6,0.5-2.2c0.3-0.7,0.8-1.2,1.4-1.5c0.6-0.4,1.2-0.5,2-0.5c1.2,0,2.1,0.4,2.8,1.2
		s1.1,1.9,1.1,3.2v0.1c0,0.8-0.2,1.6-0.5,2.2c-0.3,0.7-0.8,1.2-1.4,1.5s-1.3,0.5-2,0.5c-1.1,0-2.1-0.4-2.8-1.2s-1.1-1.9-1.1-3.2
		V120.7z M121.4,120.9c0,0.9,0.2,1.7,0.7,2.3c0.4,0.6,1,0.9,1.7,0.9c0.7,0,1.3-0.3,1.8-0.9c0.4-0.6,0.6-1.4,0.6-2.4
		c0-0.9-0.2-1.7-0.7-2.3c-0.4-0.6-1-0.9-1.8-0.9c-0.7,0-1.3,0.3-1.7,0.9S121.4,119.8,121.4,120.9z"/>
	<path class="st3" d="M136.6,120.9c0,1.3-0.3,2.3-0.9,3.1s-1.4,1.2-2.4,1.2c-1.1,0-1.9-0.4-2.5-1.1l-0.1,1h-1.3v-12h1.4v4.5
		c0.6-0.7,1.4-1.1,2.4-1.1c1,0,1.8,0.4,2.4,1.2s0.9,1.8,0.9,3.2V120.9z M135.1,120.7c0-1-0.2-1.7-0.6-2.3c-0.4-0.5-0.9-0.8-1.6-0.8
		c-1,0-1.6,0.4-2.1,1.3v3.7c0.4,0.9,1.1,1.3,2.1,1.3c0.7,0,1.2-0.3,1.6-0.8C134.9,122.6,135.1,121.8,135.1,120.7z"/>
	<path class="st3" d="M140,125h-1.4v-12h1.4V125z"/>
	<path class="st3" d="M145.8,125.2c-1.1,0-2.1-0.4-2.8-1.1s-1.1-1.8-1.1-3v-0.3c0-0.8,0.2-1.6,0.5-2.2s0.8-1.2,1.3-1.5
		c0.6-0.4,1.2-0.6,1.9-0.6c1.1,0,2,0.4,2.6,1.1s0.9,1.8,0.9,3.1v0.6h-5.7c0,0.8,0.3,1.5,0.7,2c0.5,0.5,1.1,0.8,1.8,0.8
		c0.5,0,0.9-0.1,1.3-0.3c0.4-0.2,0.7-0.5,0.9-0.8l0.9,0.7C148.3,124.6,147.2,125.2,145.8,125.2z M145.6,117.6
		c-0.6,0-1.1,0.2-1.5,0.6c-0.4,0.4-0.6,1-0.7,1.8h4.2v-0.1c0-0.7-0.2-1.3-0.6-1.7C146.7,117.8,146.2,117.6,145.6,117.6z"/>
	<path class="st3" d="M152.1,116.5l0,0.9c0.6-0.7,1.5-1.1,2.5-1.1c1.2,0,2,0.5,2.4,1.4c0.3-0.4,0.6-0.7,1.1-1c0.5-0.2,1-0.4,1.6-0.4
		c1.9,0,2.8,1,2.8,2.9v5.7h-1.4v-5.6c0-0.6-0.1-1.1-0.4-1.4c-0.3-0.3-0.7-0.4-1.4-0.4c-0.5,0-1,0.2-1.3,0.5
		c-0.4,0.3-0.6,0.8-0.6,1.3v5.6H156v-5.5c0-1.2-0.6-1.8-1.8-1.8c-0.9,0-1.6,0.4-1.9,1.2v6.2h-1.4v-8.5H152.1z"/>
	<path class="st3" d="M170,125c-0.1-0.2-0.2-0.5-0.2-0.9c-0.7,0.7-1.5,1-2.4,1c-0.8,0-1.5-0.2-2.1-0.7c-0.5-0.5-0.8-1.1-0.8-1.8
		c0-0.9,0.3-1.6,1-2.1c0.7-0.5,1.6-0.7,2.8-0.7h1.4v-0.7c0-0.5-0.2-0.9-0.5-1.2c-0.3-0.3-0.7-0.4-1.3-0.4c-0.5,0-0.9,0.1-1.3,0.4
		c-0.3,0.3-0.5,0.6-0.5,0.9h-1.5c0-0.4,0.1-0.8,0.4-1.2c0.3-0.4,0.7-0.7,1.2-0.9c0.5-0.2,1.1-0.3,1.7-0.3c1,0,1.7,0.2,2.3,0.7
		c0.6,0.5,0.8,1.2,0.9,2v3.9c0,0.8,0.1,1.4,0.3,1.9v0.1H170z M167.6,123.9c0.5,0,0.9-0.1,1.3-0.4s0.7-0.5,0.9-0.9v-1.7h-1.1
		c-1.8,0-2.7,0.5-2.7,1.6c0,0.5,0.2,0.8,0.5,1.1C166.7,123.8,167.1,123.9,167.6,123.9z"/>
	<path class="st3" d="M182.7,125c-0.1-0.2-0.2-0.5-0.2-0.9c-0.7,0.7-1.5,1-2.4,1c-0.8,0-1.5-0.2-2.1-0.7c-0.5-0.5-0.8-1.1-0.8-1.8
		c0-0.9,0.3-1.6,1-2.1c0.7-0.5,1.6-0.7,2.8-0.7h1.4v-0.7c0-0.5-0.2-0.9-0.5-1.2c-0.3-0.3-0.7-0.4-1.3-0.4c-0.5,0-0.9,0.1-1.3,0.4
		c-0.3,0.3-0.5,0.6-0.5,0.9h-1.5c0-0.4,0.1-0.8,0.4-1.2c0.3-0.4,0.7-0.7,1.2-0.9c0.5-0.2,1.1-0.3,1.7-0.3c1,0,1.7,0.2,2.3,0.7
		c0.6,0.5,0.8,1.2,0.9,2v3.9c0,0.8,0.1,1.4,0.3,1.9v0.1H182.7z M180.3,123.9c0.5,0,0.9-0.1,1.3-0.4s0.7-0.5,0.9-0.9v-1.7h-1.1
		c-1.8,0-2.7,0.5-2.7,1.6c0,0.5,0.2,0.8,0.5,1.1C179.4,123.8,179.8,123.9,180.3,123.9z"/>
</g>
<g class="st2">
	<path class="st3" d="M109.8,138.3c0-0.2,0.1-0.4,0.2-0.6c0.1-0.2,0.4-0.2,0.6-0.2s0.5,0.1,0.6,0.2c0.1,0.2,0.2,0.4,0.2,0.6
		s-0.1,0.4-0.2,0.6c-0.1,0.2-0.4,0.2-0.6,0.2s-0.5-0.1-0.6-0.2C109.9,138.7,109.8,138.5,109.8,138.3z M111.4,149h-1.4v-8.5h1.4V149z
		"/>
	<path class="st3" d="M115,140.5l0,1.1c0.6-0.8,1.5-1.2,2.5-1.2c1.8,0,2.7,1,2.7,3v5.6h-1.4v-5.6c0-0.6-0.1-1.1-0.4-1.4
		s-0.7-0.4-1.3-0.4c-0.5,0-0.9,0.1-1.2,0.4c-0.4,0.2-0.6,0.6-0.8,1v6h-1.4v-8.5H115z"/>
	<path class="st3" d="M125.3,147l2.1-6.5h1.5l-3,8.5h-1.1l-3.1-8.5h1.5L125.3,147z"/>
	<path class="st3" d="M133.8,149.2c-1.1,0-2.1-0.4-2.8-1.1s-1.1-1.8-1.1-3v-0.3c0-0.8,0.2-1.6,0.5-2.2s0.8-1.2,1.3-1.5
		c0.6-0.4,1.2-0.6,1.9-0.6c1.1,0,2,0.4,2.6,1.1s0.9,1.8,0.9,3.1v0.6h-5.7c0,0.8,0.3,1.5,0.7,2c0.5,0.5,1.1,0.8,1.8,0.8
		c0.5,0,0.9-0.1,1.3-0.3s0.7-0.5,0.9-0.8l0.9,0.7C136.2,148.6,135.2,149.2,133.8,149.2z M133.6,141.6c-0.6,0-1.1,0.2-1.5,0.6
		c-0.4,0.4-0.6,1-0.7,1.8h4.2v-0.1c0-0.7-0.2-1.3-0.6-1.7S134.2,141.6,133.6,141.6z"/>
	<path class="st3" d="M143.7,146.8c0-0.4-0.1-0.7-0.4-0.9s-0.8-0.4-1.5-0.6s-1.3-0.3-1.7-0.6s-0.7-0.5-1-0.8s-0.3-0.7-0.3-1.1
		c0-0.7,0.3-1.3,0.9-1.8s1.3-0.7,2.2-0.7c1,0,1.7,0.2,2.3,0.7s0.9,1.1,0.9,1.9h-1.5c0-0.4-0.2-0.7-0.5-1s-0.8-0.4-1.3-0.4
		c-0.5,0-0.9,0.1-1.2,0.3s-0.4,0.5-0.4,0.9c0,0.3,0.1,0.6,0.4,0.8s0.8,0.3,1.5,0.5s1.3,0.4,1.8,0.6s0.8,0.5,1,0.8s0.3,0.7,0.3,1.2
		c0,0.8-0.3,1.4-0.9,1.8s-1.4,0.7-2.4,0.7c-0.7,0-1.3-0.1-1.8-0.4s-0.9-0.6-1.2-1s-0.4-0.9-0.4-1.4h1.4c0,0.5,0.2,0.9,0.6,1.2
		s0.8,0.4,1.4,0.4c0.5,0,1-0.1,1.3-0.3S143.7,147.1,143.7,146.8z"/>
	<path class="st3" d="M148.9,138.5v2h1.6v1.1h-1.6v5.2c0,0.3,0.1,0.6,0.2,0.8c0.1,0.2,0.4,0.3,0.7,0.3c0.2,0,0.4,0,0.7-0.1v1.2
		c-0.4,0.1-0.8,0.2-1.1,0.2c-0.6,0-1.1-0.2-1.5-0.6s-0.5-0.9-0.5-1.7v-5.2H146v-1.1h1.5v-2H148.9z"/>
	<path class="st3" d="M152.2,138.3c0-0.2,0.1-0.4,0.2-0.6s0.4-0.2,0.6-0.2s0.5,0.1,0.6,0.2s0.2,0.4,0.2,0.6s-0.1,0.4-0.2,0.6
		s-0.4,0.2-0.6,0.2s-0.5-0.1-0.6-0.2S152.2,138.5,152.2,138.3z M153.8,149h-1.4v-8.5h1.4V149z"/>
	<path class="st3" d="M155.7,144.7c0-1.3,0.3-2.4,0.9-3.1s1.4-1.2,2.4-1.2c1,0,1.8,0.4,2.4,1.1l0.1-0.9h1.3v8.2c0,1.1-0.3,2-1,2.6
		s-1.5,0.9-2.6,0.9c-0.6,0-1.2-0.1-1.8-0.4s-1-0.6-1.3-1.1l0.8-0.9c0.6,0.8,1.4,1.1,2.3,1.1c0.7,0,1.3-0.2,1.6-0.6s0.6-1,0.6-1.7
		v-0.7c-0.6,0.7-1.4,1-2.4,1c-1,0-1.8-0.4-2.4-1.2S155.7,146.1,155.7,144.7z M157.2,144.9c0,1,0.2,1.7,0.6,2.2s0.9,0.8,1.6,0.8
		c0.9,0,1.6-0.4,2-1.2v-3.9c-0.4-0.8-1.1-1.2-2-1.2c-0.7,0-1.3,0.3-1.6,0.8S157.2,143.8,157.2,144.9z"/>
	<path class="st3" d="M170.3,149c-0.1-0.2-0.2-0.5-0.2-0.9c-0.7,0.7-1.5,1-2.4,1c-0.8,0-1.5-0.2-2.1-0.7s-0.8-1.1-0.8-1.8
		c0-0.9,0.3-1.6,1-2.1s1.6-0.7,2.8-0.7h1.4v-0.7c0-0.5-0.2-0.9-0.5-1.2s-0.7-0.4-1.3-0.4c-0.5,0-0.9,0.1-1.3,0.4s-0.5,0.6-0.5,0.9
		H165c0-0.4,0.1-0.8,0.4-1.2s0.7-0.7,1.2-0.9s1.1-0.3,1.7-0.3c1,0,1.7,0.2,2.3,0.7s0.8,1.2,0.9,2v3.9c0,0.8,0.1,1.4,0.3,1.9v0.1
		H170.3z M167.9,147.9c0.5,0,0.9-0.1,1.3-0.4s0.7-0.5,0.9-0.9v-1.7h-1.1c-1.8,0-2.7,0.5-2.7,1.6c0,0.5,0.2,0.8,0.5,1.1
		S167.4,147.9,167.9,147.9z"/>
	<path class="st3" d="M177.9,141.8c-0.2,0-0.5-0.1-0.7-0.1c-0.9,0-1.6,0.4-1.9,1.2v6h-1.4v-8.5h1.4l0,1c0.5-0.8,1.1-1.1,2-1.1
		c0.3,0,0.5,0,0.6,0.1V141.8z"/>
	<path class="st3" d="M178.3,148.2c0-0.2,0.1-0.5,0.2-0.6s0.4-0.2,0.7-0.2s0.5,0.1,0.7,0.2s0.2,0.4,0.2,0.6c0,0.2-0.1,0.4-0.2,0.6
		s-0.4,0.2-0.7,0.2s-0.5-0.1-0.7-0.2S178.3,148.5,178.3,148.2z"/>
</g>
<g id="Elipse_4093" transform="translate(473.32 6838.153)">
	<circle class="st4" cx="-326.3" cy="-6723.7" r="88.8"/>
	<circle class="st5" cx="-326.3" cy="-6723.7" r="89.8"/>
</g>
<g id="Elipse_4094" transform="translate(415 6890.5)">
	<circle class="st6" cx="-374.5" cy="-6772" r="40.5"/>
	<circle class="st7" cx="-374.5" cy="-6772" r="40"/>
</g>
<g id="Grupo_17444" transform="translate(425 6902.5)">
	<path id="Trazado_35915" class="st8" d="M-408.8-6775.4l-1.2-0.7l6-10.7l3,3.2l5.3-9.4l3.1,4.4l6.2-12.2l3.1,4.8l3.8-5.6l1.1,0.8
		l-5,7.3l-2.9-4.6l-6.2,12.1l-3.2-4.5l-5.2,9.1l-3-3.2L-408.8-6775.4z"/>
	<g id="Grupo_17443">
		<g>
			<defs>
				<rect id="SVGID_1_" x="-415" y="-6812.5" width="59.2" height="54.5"/>
			</defs>
			<clipPath id="SVGID_00000125582978057711259650000014854286565981575102_">
				<use xlink:href="#SVGID_1_"  style="overflow:visible;"/>
			</clipPath>
			<g id="Grupo_17442" style="clip-path:url(#SVGID_00000125582978057711259650000014854286565981575102_);">
				<path id="Trazado_35916" class="st10" d="M-377.4-6761.9c0,1.2-8.4,2.2-18.8,2.2c-10.4,0-18.8-1-18.8-2.2
					c0-1.2,8.4-2.2,18.8-2.2C-385.8-6764.1-377.4-6763.1-377.4-6761.9"/>
				<rect id="Rect치ngulo_4397" x="-386.8" y="-6791.5" class="st11" width="6.5" height="28.2"/>
				<path id="Trazado_35917" class="st8" d="M-379.7-6762.6h-7.7v-29.4h7.7V-6762.6z M-386.2-6763.8h5.3v-27h-5.3V-6763.8z"/>
				<rect id="Rect치ngulo_4398" x="-395.4" y="-6784.3" class="st12" width="5.8" height="21.1"/>
				<path id="Trazado_35918" class="st8" d="M-389-6762.6h-7v-22.3h7V-6762.6z M-394.8-6763.8h4.6v-19.9h-4.6V-6763.8z"/>
				<rect id="Rect치ngulo_4399" x="-410.8" y="-6771.9" class="st13" width="4.7" height="8.7"/>
				<path id="Trazado_35919" class="st8" d="M-405.6-6762.8h-5.7v-9.6h5.7V-6762.8z M-410.3-6763.7h3.8v-7.7h-3.8V-6763.7z"/>
				<rect id="Rect치ngulo_4400" x="-403.3" y="-6778.5" class="st10" width="5.3" height="15.3"/>
				<path id="Trazado_35920" class="st8" d="M-397.5-6762.8h-6.3v-16.3h6.3V-6762.8z M-402.8-6763.7h4.3v-14.3h-4.4L-402.8-6763.7z"
					/>
				<path id="Trazado_35921" class="st13" d="M-373.7-6805.8c-8.1-8.1-21.2-8.1-29.3,0c-8.1,8.1-8.1,21.2,0,29.3
					c8.1,8.1,21.2,8.1,29.3,0S-365.6-6797.7-373.7-6805.8C-373.7-6805.8-373.7-6805.8-373.7-6805.8 M-376.1-6778.8
					c-6.8,6.8-17.7,6.8-24.5,0c-6.8-6.8-6.8-17.7,0-24.5c6.8-6.8,17.7-6.8,24.5,0C-369.4-6796.6-369.4-6785.6-376.1-6778.8
					C-376.1-6778.8-376.1-6778.8-376.1-6778.8"/>
				<path id="Trazado_35922" class="st13" d="M-357.7-6763.1c0.8,0.7,0.9,1.9,0.2,2.8l-1.9,1.9c-0.8,0.7-2.1,0.6-2.8-0.2l-7.2-7.2
					c-0.8-0.7-0.9-1.9-0.2-2.7l1.9-1.9c0.8-0.7,2-0.6,2.7,0.2L-357.7-6763.1z"/>
				<path id="Trazado_35923" class="st8" d="M-388.7-6769.7c-11.8,0-21.4-9.6-21.4-21.4c0-11.8,9.6-21.4,21.4-21.4
					c11.8,0,21.4,9.6,21.4,21.4c0,5.7-2.3,11.1-6.3,15.1C-377.6-6771.9-383-6769.7-388.7-6769.7 M-388.7-6811.2
					c-11.1,0-20.1,9-20.1,20.1s9,20.1,20.1,20.1c11.1,0,20.1-9,20.1-20.1c0-5.3-2.1-10.4-5.9-14.2
					C-378.3-6809.1-383.4-6811.2-388.7-6811.2"/>
				<path id="Trazado_35924" class="st8" d="M-388.7-6773.2c-9.9,0-17.9-8-17.9-17.9s8-17.9,17.9-17.9c9.9,0,17.9,8,17.9,17.9
					c0,4.7-1.9,9.3-5.2,12.6C-379.4-6775.1-384-6773.2-388.7-6773.2 M-388.7-6807.9c-9.3,0-16.8,7.6-16.8,16.9
					c0,9.3,7.6,16.8,16.9,16.8c9.3,0,16.8-7.6,16.8-16.9c0-4.5-1.8-8.8-4.9-11.9C-380-6806.2-384.2-6807.9-388.7-6807.9"/>
				<path id="Trazado_35925" class="st8" d="M-369.5-6769.6l-5.8-5.8l3.7-3.7l5.8,5.8L-369.5-6769.6z M-374.1-6775.4l4.7,4.7
					l2.6-2.6l-4.7-4.7L-374.1-6775.4z"/>
				<path id="Trazado_35926" class="st8" d="M-360.3-6759.8h-0.1c-0.6,0-1.2-0.3-1.7-0.7l-7.2-7.2c-0.4-0.4-0.7-1-0.7-1.7
					c0-0.6,0.2-1.2,0.7-1.7l2-2c0.4-0.4,1-0.7,1.7-0.7c0.6,0,1.2,0.3,1.7,0.7l7.2,7.2c0.5,0.4,0.7,1,0.7,1.7c0,0.6-0.2,1.2-0.6,1.7
					l-2,2C-359.2-6760-359.7-6759.8-360.3-6759.8 M-365.7-6773c-0.4,0-0.8,0.2-1.1,0.4l-2,2c-0.3,0.3-0.5,0.7-0.4,1.1
					c0,0.4,0.2,0.9,0.5,1.2l7.2,7.2c0.3,0.3,0.8,0.5,1.2,0.5c0.4,0,0.8-0.1,1.2-0.4l2-2c0.3-0.3,0.5-0.7,0.4-1.2
					c0-0.5-0.2-0.9-0.5-1.2l-7.2-7.2C-364.8-6772.8-365.3-6773-365.7-6773L-365.7-6773"/>
				<path id="Trazado_35927" class="st8" d="M-360.3-6759.5h-0.1c-0.7,0-1.4-0.3-1.9-0.8l-7.2-7.2c-0.5-0.5-0.8-1.2-0.8-1.9
					c0-0.7,0.2-1.4,0.7-1.9l2-2c0.5-0.5,1.2-0.8,1.9-0.7c0.7,0,1.4,0.3,1.9,0.8l7.2,7.2c0.5,0.5,0.8,1.2,0.8,1.9
					c0,0.7-0.2,1.4-0.7,1.9l-2,2C-359-6759.7-359.7-6759.5-360.3-6759.5 M-365.7-6772.7c-0.3,0-0.7,0.1-0.9,0.4l-2,2
					c-0.2,0.2-0.4,0.6-0.4,0.9c0,0.4,0.2,0.7,0.4,1l7.2,7.2c0.3,0.3,0.6,0.4,1,0.5c0.3,0,0.7-0.1,0.9-0.3l2-2
					c0.2-0.3,0.4-0.6,0.3-0.9c0-0.4-0.2-0.8-0.5-1l-7.2-7.2C-365-6772.5-365.3-6772.7-365.7-6772.7L-365.7-6772.7"/>
				<path id="Trazado_35928" class="st8" d="M-360.7-6762c-0.1,0-0.2,0-0.2-0.1l-6.7-6.7c-0.1-0.1-0.1-0.4,0-0.5s0.4-0.1,0.5,0
					l6.7,6.7c0.1,0.1,0.1,0.4,0,0.5C-360.5-6762-360.6-6762-360.7-6762"/>
				<path id="Trazado_35929" class="st12" d="M-377.9-6800.2c0,0.8-0.7,1.5-1.5,1.5c-0.8,0-1.5-0.7-1.5-1.5c0-0.8,0.7-1.5,1.5-1.5
					l0,0C-378.5-6801.7-377.9-6801-377.9-6800.2"/>
				<path id="Trazado_35930" class="st8" d="M-379.4-6798c-1.2,0-2.1-1-2.1-2.1c0-1.2,1-2.1,2.1-2.1c1.2,0,2.1,1,2.1,2.1
					C-377.2-6799-378.2-6798-379.4-6798 M-379.4-6801.1c-0.5,0-0.9,0.4-0.9,0.9s0.4,0.9,0.9,0.9c0.5,0,0.9-0.4,0.9-0.9c0,0,0,0,0,0
					C-378.5-6800.6-378.9-6801.1-379.4-6801.1"/>
				<path id="Trazado_35931" class="st12" d="M-407.5-6775.8c0,0.8-0.7,1.5-1.5,1.5c-0.8,0-1.5-0.7-1.5-1.5c0-0.8,0.7-1.5,1.5-1.5
					c0,0,0,0,0,0C-408.2-6777.4-407.5-6776.7-407.5-6775.8C-407.5-6775.8-407.5-6775.8-407.5-6775.8"/>
				<path id="Trazado_35932" class="st8" d="M-409.1-6773.7c-1.2,0-2.1-1-2.1-2.1s1-2.1,2.1-2.1c1.2,0,2.1,1,2.1,2.1
					C-406.9-6774.7-407.9-6773.7-409.1-6773.7 M-409.1-6776.7c-0.5,0-0.9,0.4-0.9,0.9s0.4,0.9,0.9,0.9c0.5,0,0.9-0.4,0.9-0.9l0,0
					C-408.2-6776.3-408.6-6776.7-409.1-6776.7"/>
			</g>
		</g>
	</g>
</g>
</svg>
