<?xml version="1.0" encoding="utf-8"?>
<!-- Generator: Adobe Illustrator 25.4.1, SVG Export Plug-In . SVG Version: 6.00 Build 0)  -->
<svg version="1.1" id="Capa_1" xmlns="http://www.w3.org/2000/svg" xmlns:xlink="http://www.w3.org/1999/xlink" x="0px" y="0px"
	 viewBox="0 0 264 235" style="enable-background:new 0 0 264 235;" xml:space="preserve">
<style type="text/css">
	.st0{fill:#FB8F36;}
	.st1{fill:none;stroke:#FFFFFF;stroke-width:4;}
	.st2{enable-background:new    ;}
	.st3{fill:#12263F;}
	.st4{fill:none;}
	.st5{fill:none;stroke:#FFFFFF;stroke-width:2;stroke-linecap:round;stroke-miterlimit:10;stroke-dasharray:6,6;}
	.st6{fill:#FFFFFF;}
	.st7{fill:none;stroke:#4733A3;}
	.st8{clip-path:url(#SVGID_00000034808949293262952000000005982969372545524874_);}
	.st9{fill:#7EB9C7;}
	.st10{fill:#3D4451;}
	.st11{fill:#C7DDEB;}
	.st12{fill:#FDC345;}
</style>
<g transform="matrix(1, 0, 0, 1, 955, 6812.5)">
	<g id="Elipse_4098-2" transform="translate(39 6)">
		<ellipse class="st0" cx="-847" cy="-6704" rx="108" ry="108.5"/>
		<ellipse class="st1" cx="-847" cy="-6704" rx="106" ry="106.5"/>
	</g>
</g>
<g class="st2">
	<path class="st3" d="M99.7,101.7c0,1.1-0.2,2.1-0.6,2.9s-0.9,1.5-1.6,1.9s-1.5,0.7-2.4,0.7c-0.9,0-1.7-0.2-2.4-0.7
		c-0.7-0.4-1.2-1.1-1.6-1.9s-0.6-1.8-0.6-2.8V101c0-1.1,0.2-2.1,0.6-2.9c0.4-0.8,0.9-1.5,1.6-1.9s1.5-0.7,2.4-0.7
		c0.9,0,1.7,0.2,2.4,0.7s1.2,1.1,1.6,1.9s0.6,1.8,0.6,2.9V101.7z M98.2,100.9c0-1.3-0.3-2.4-0.8-3.1c-0.5-0.7-1.3-1.1-2.3-1.1
		c-0.9,0-1.7,0.4-2.2,1.1c-0.5,0.7-0.8,1.7-0.8,3v0.8c0,1.3,0.3,2.3,0.8,3.1c0.5,0.7,1.3,1.1,2.3,1.1c1,0,1.7-0.4,2.2-1.1
		s0.8-1.7,0.8-3V100.9z"/>
	<path class="st3" d="M108.9,102.9c0,1.3-0.3,2.3-0.9,3.1s-1.4,1.2-2.4,1.2c-1.1,0-1.9-0.4-2.5-1.1l-0.1,1h-1.3V95h1.4v4.5
		c0.6-0.7,1.4-1.1,2.4-1.1c1,0,1.8,0.4,2.4,1.2s0.9,1.8,0.9,3.2V102.9z M107.5,102.7c0-1-0.2-1.7-0.6-2.3c-0.4-0.5-0.9-0.8-1.6-0.8
		c-1,0-1.6,0.4-2.1,1.3v3.7c0.4,0.9,1.1,1.3,2.1,1.3c0.7,0,1.2-0.3,1.6-0.8C107.3,104.6,107.5,103.8,107.5,102.7z"/>
	<path class="st3" d="M112.7,96.5v2h1.6v1.1h-1.6v5.2c0,0.3,0.1,0.6,0.2,0.8c0.1,0.2,0.4,0.3,0.7,0.3c0.2,0,0.4,0,0.7-0.1v1.2
		c-0.4,0.1-0.8,0.2-1.1,0.2c-0.6,0-1.1-0.2-1.5-0.6s-0.5-0.9-0.5-1.7v-5.2h-1.5v-1.1h1.5v-2H112.7z"/>
	<path class="st3" d="M119.5,107.2c-1.1,0-2.1-0.4-2.8-1.1s-1.1-1.8-1.1-3v-0.3c0-0.8,0.2-1.6,0.5-2.2s0.8-1.2,1.3-1.5
		c0.6-0.4,1.2-0.6,1.9-0.6c1.1,0,2,0.4,2.6,1.1s0.9,1.8,0.9,3.1v0.6H117c0,0.8,0.3,1.5,0.7,2c0.5,0.5,1.1,0.8,1.8,0.8
		c0.5,0,0.9-0.1,1.3-0.3c0.4-0.2,0.7-0.5,0.9-0.8l0.9,0.7C121.9,106.6,120.9,107.2,119.5,107.2z M119.3,99.6c-0.6,0-1.1,0.2-1.5,0.6
		c-0.4,0.4-0.6,1-0.7,1.8h4.2v-0.1c0-0.7-0.2-1.3-0.6-1.7C120.4,99.8,119.9,99.6,119.3,99.6z"/>
	<path class="st3" d="M125.8,98.5l0,1.1c0.6-0.8,1.5-1.2,2.5-1.2c1.8,0,2.7,1,2.7,3v5.6h-1.4v-5.6c0-0.6-0.1-1.1-0.4-1.4
		s-0.7-0.4-1.3-0.4c-0.5,0-0.9,0.1-1.2,0.4c-0.4,0.2-0.6,0.6-0.8,1v6h-1.4v-8.5H125.8z"/>
	<path class="st3" d="M136.6,106c0.5,0,1-0.2,1.4-0.5s0.6-0.7,0.6-1.2h1.4c0,0.5-0.2,0.9-0.5,1.4s-0.7,0.8-1.2,1s-1.1,0.4-1.6,0.4
		c-1.2,0-2.1-0.4-2.7-1.2s-1-1.8-1-3.2v-0.2c0-0.8,0.2-1.6,0.5-2.2s0.7-1.1,1.3-1.5s1.2-0.5,2-0.5c0.9,0,1.7,0.3,2.4,0.9
		s1,1.3,1,2.2h-1.4c0-0.5-0.2-1-0.6-1.3s-0.8-0.5-1.4-0.5c-0.7,0-1.3,0.3-1.7,0.8s-0.6,1.3-0.6,2.3v0.3c0,1,0.2,1.7,0.6,2.2
		S135.9,106,136.6,106z"/>
	<path class="st3" d="M141.6,96.3c0-0.2,0.1-0.4,0.2-0.6s0.4-0.2,0.6-0.2s0.5,0.1,0.6,0.2s0.2,0.4,0.2,0.6s-0.1,0.4-0.2,0.6
		s-0.4,0.2-0.6,0.2s-0.5-0.1-0.6-0.2S141.6,96.5,141.6,96.3z M143.2,107h-1.4v-8.5h1.4V107z"/>
	<path class="st3" d="M145.1,102.7c0-0.8,0.2-1.6,0.5-2.2s0.8-1.2,1.4-1.5s1.2-0.5,2-0.5c1.2,0,2.1,0.4,2.8,1.2s1.1,1.9,1.1,3.2v0.1
		c0,0.8-0.2,1.6-0.5,2.2s-0.8,1.2-1.4,1.5s-1.3,0.5-2,0.5c-1.1,0-2.1-0.4-2.8-1.2s-1.1-1.9-1.1-3.2V102.7z M146.6,102.9
		c0,0.9,0.2,1.7,0.7,2.3s1,0.9,1.7,0.9c0.7,0,1.3-0.3,1.8-0.9s0.6-1.4,0.6-2.4c0-0.9-0.2-1.7-0.7-2.3s-1-0.9-1.8-0.9
		c-0.7,0-1.3,0.3-1.7,0.9S146.6,101.8,146.6,102.9z M149.6,95h1.8l-2.1,2.3l-1.2,0L149.6,95z"/>
	<path class="st3" d="M156,98.5l0,1.1c0.6-0.8,1.5-1.2,2.5-1.2c1.8,0,2.7,1,2.7,3v5.6h-1.4v-5.6c0-0.6-0.1-1.1-0.4-1.4
		s-0.7-0.4-1.3-0.4c-0.5,0-0.9,0.1-1.2,0.4s-0.6,0.6-0.8,1v6h-1.4v-8.5H156z"/>
	<path class="st3" d="M167.1,102.7c0-1.3,0.3-2.3,0.9-3.1s1.4-1.2,2.4-1.2c1,0,1.8,0.3,2.4,1V95h1.4v12h-1.3l-0.1-0.9
		c-0.6,0.7-1.4,1.1-2.4,1.1c-1,0-1.8-0.4-2.4-1.2s-0.9-1.8-0.9-3.1V102.7z M168.5,102.9c0,1,0.2,1.7,0.6,2.2s0.9,0.8,1.6,0.8
		c0.9,0,1.6-0.4,2-1.2v-3.9c-0.4-0.8-1.1-1.2-2-1.2c-0.7,0-1.3,0.3-1.7,0.8S168.5,101.8,168.5,102.9z"/>
	<path class="st3" d="M180,107.2c-1.1,0-2.1-0.4-2.8-1.1s-1.1-1.8-1.1-3v-0.3c0-0.8,0.2-1.6,0.5-2.2s0.8-1.2,1.3-1.5
		s1.2-0.6,1.9-0.6c1.1,0,2,0.4,2.6,1.1s0.9,1.8,0.9,3.1v0.6h-5.7c0,0.8,0.3,1.5,0.7,2s1.1,0.8,1.8,0.8c0.5,0,0.9-0.1,1.3-0.3
		s0.7-0.5,0.9-0.8l0.9,0.7C182.4,106.6,181.4,107.2,180,107.2z M179.8,99.6c-0.6,0-1.1,0.2-1.5,0.6s-0.6,1-0.7,1.8h4.2v-0.1
		c0-0.7-0.2-1.3-0.6-1.7S180.4,99.6,179.8,99.6z"/>
	<path class="st3" d="M190.5,107H189V95h1.4V107z"/>
	<path class="st3" d="M198,107c-0.1-0.2-0.2-0.5-0.2-0.9c-0.7,0.7-1.5,1-2.4,1c-0.8,0-1.5-0.2-2.1-0.7s-0.8-1.1-0.8-1.8
		c0-0.9,0.3-1.6,1-2.1s1.6-0.7,2.8-0.7h1.4v-0.7c0-0.5-0.2-0.9-0.5-1.2s-0.7-0.4-1.3-0.4c-0.5,0-0.9,0.1-1.3,0.4s-0.5,0.6-0.5,0.9
		h-1.5c0-0.4,0.1-0.8,0.4-1.2s0.7-0.7,1.2-0.9s1.1-0.3,1.7-0.3c1,0,1.7,0.2,2.3,0.7s0.8,1.2,0.9,2v3.9c0,0.8,0.1,1.4,0.3,1.9v0.1
		H198z M195.6,105.9c0.5,0,0.9-0.1,1.3-0.4s0.7-0.5,0.9-0.9v-1.7h-1.1c-1.8,0-2.7,0.5-2.7,1.6c0,0.5,0.2,0.8,0.5,1.1
		S195.1,105.9,195.6,105.9z"/>
</g>
<g class="st2">
	<path class="st3" d="M101.1,120.3c0-0.2,0.1-0.4,0.2-0.6c0.1-0.2,0.4-0.2,0.6-0.2s0.5,0.1,0.6,0.2c0.1,0.2,0.2,0.4,0.2,0.6
		s-0.1,0.4-0.2,0.6c-0.1,0.2-0.4,0.2-0.6,0.2s-0.5-0.1-0.6-0.2C101.2,120.7,101.1,120.5,101.1,120.3z M102.7,131h-1.4v-8.5h1.4V131z
		"/>
	<path class="st3" d="M106.4,122.5l0,1.1c0.6-0.8,1.5-1.2,2.5-1.2c1.8,0,2.7,1,2.7,3v5.6h-1.4v-5.6c0-0.6-0.1-1.1-0.4-1.4
		s-0.7-0.4-1.3-0.4c-0.5,0-0.9,0.1-1.2,0.4c-0.4,0.2-0.6,0.6-0.8,1v6H105v-8.5H106.4z"/>
	<path class="st3" d="M114.6,131v-7.3h-1.3v-1.1h1.3v-0.9c0-0.9,0.2-1.6,0.7-2.1s1.2-0.7,2.1-0.7c0.3,0,0.7,0,1,0.1l-0.1,1.2
		c-0.2,0-0.5-0.1-0.8-0.1c-0.5,0-0.8,0.1-1.1,0.4c-0.3,0.3-0.4,0.7-0.4,1.2v0.9h1.8v1.1H116v7.3H114.6z"/>
	<path class="st3" d="M119,126.7c0-0.8,0.2-1.6,0.5-2.2c0.3-0.7,0.8-1.2,1.4-1.5c0.6-0.4,1.2-0.5,2-0.5c1.2,0,2.1,0.4,2.8,1.2
		s1.1,1.9,1.1,3.2v0.1c0,0.8-0.2,1.6-0.5,2.2c-0.3,0.7-0.8,1.2-1.4,1.5s-1.3,0.5-2,0.5c-1.1,0-2.1-0.4-2.8-1.2s-1.1-1.9-1.1-3.2
		V126.7z M120.5,126.9c0,0.9,0.2,1.7,0.7,2.3c0.4,0.6,1,0.9,1.7,0.9c0.7,0,1.3-0.3,1.8-0.9c0.4-0.6,0.6-1.4,0.6-2.4
		c0-0.9-0.2-1.7-0.7-2.3c-0.4-0.6-1-0.9-1.8-0.9c-0.7,0-1.3,0.3-1.7,0.9S120.5,125.8,120.5,126.9z"/>
	<path class="st3" d="M132.6,123.8c-0.2,0-0.5-0.1-0.7-0.1c-0.9,0-1.6,0.4-1.9,1.2v6h-1.4v-8.5h1.4l0,1c0.5-0.8,1.1-1.1,2-1.1
		c0.3,0,0.5,0,0.6,0.1V123.8z"/>
	<path class="st3" d="M135.3,122.5l0,0.9c0.6-0.7,1.5-1.1,2.5-1.1c1.2,0,2,0.5,2.4,1.4c0.3-0.4,0.6-0.7,1.1-1s1-0.4,1.6-0.4
		c1.9,0,2.8,1,2.8,2.9v5.7h-1.4v-5.6c0-0.6-0.1-1.1-0.4-1.4s-0.7-0.4-1.4-0.4c-0.5,0-1,0.2-1.3,0.5s-0.6,0.8-0.6,1.3v5.6h-1.5v-5.5
		c0-1.2-0.6-1.8-1.8-1.8c-0.9,0-1.6,0.4-1.9,1.2v6.2h-1.4v-8.5H135.3z"/>
	<path class="st3" d="M153.2,131c-0.1-0.2-0.2-0.5-0.2-0.9c-0.7,0.7-1.5,1-2.4,1c-0.8,0-1.5-0.2-2.1-0.7s-0.8-1.1-0.8-1.8
		c0-0.9,0.3-1.6,1-2.1s1.6-0.7,2.8-0.7h1.4v-0.7c0-0.5-0.2-0.9-0.5-1.2s-0.7-0.4-1.3-0.4c-0.5,0-0.9,0.1-1.3,0.4s-0.5,0.6-0.5,0.9
		h-1.5c0-0.4,0.1-0.8,0.4-1.2s0.7-0.7,1.2-0.9s1.1-0.3,1.7-0.3c1,0,1.7,0.2,2.3,0.7s0.8,1.2,0.9,2v3.9c0,0.8,0.1,1.4,0.3,1.9v0.1
		H153.2z M150.8,129.9c0.5,0,0.9-0.1,1.3-0.4s0.7-0.5,0.9-0.9v-1.7h-1.1c-1.8,0-2.7,0.5-2.7,1.6c0,0.5,0.2,0.8,0.5,1.1
		S150.3,129.9,150.8,129.9z"/>
	<path class="st3" d="M160.1,130c0.5,0,1-0.2,1.4-0.5s0.6-0.7,0.6-1.2h1.4c0,0.5-0.2,0.9-0.5,1.4s-0.7,0.8-1.2,1s-1.1,0.4-1.6,0.4
		c-1.2,0-2.1-0.4-2.7-1.2s-1-1.8-1-3.2v-0.2c0-0.8,0.2-1.6,0.5-2.2s0.7-1.1,1.3-1.5s1.2-0.5,2-0.5c0.9,0,1.7,0.3,2.4,0.9
		s1,1.3,1,2.2H162c0-0.5-0.2-1-0.6-1.3s-0.8-0.5-1.4-0.5c-0.7,0-1.3,0.3-1.7,0.8s-0.6,1.3-0.6,2.3v0.3c0,1,0.2,1.7,0.6,2.2
		S159.3,130,160.1,130z"/>
	<path class="st3" d="M165,120.3c0-0.2,0.1-0.4,0.2-0.6s0.4-0.2,0.6-0.2s0.5,0.1,0.6,0.2s0.2,0.4,0.2,0.6s-0.1,0.4-0.2,0.6
		s-0.4,0.2-0.6,0.2s-0.5-0.1-0.6-0.2S165,120.5,165,120.3z M166.6,131h-1.4v-8.5h1.4V131z"/>
	<path class="st3" d="M168.5,126.7c0-0.8,0.2-1.6,0.5-2.2s0.8-1.2,1.4-1.5s1.2-0.5,2-0.5c1.2,0,2.1,0.4,2.8,1.2s1.1,1.9,1.1,3.2v0.1
		c0,0.8-0.2,1.6-0.5,2.2s-0.8,1.2-1.4,1.5s-1.3,0.5-2,0.5c-1.1,0-2.1-0.4-2.8-1.2s-1.1-1.9-1.1-3.2V126.7z M170,126.9
		c0,0.9,0.2,1.7,0.7,2.3s1,0.9,1.7,0.9c0.7,0,1.3-0.3,1.8-0.9s0.6-1.4,0.6-2.4c0-0.9-0.2-1.7-0.7-2.3s-1-0.9-1.8-0.9
		c-0.7,0-1.3,0.3-1.7,0.9S170,125.8,170,126.9z M173,119h1.8l-2.1,2.3l-1.2,0L173,119z"/>
	<path class="st3" d="M179.4,122.5l0,1.1c0.6-0.8,1.5-1.2,2.5-1.2c1.8,0,2.7,1,2.7,3v5.6h-1.4v-5.6c0-0.6-0.1-1.1-0.4-1.4
		s-0.7-0.4-1.3-0.4c-0.5,0-0.9,0.1-1.2,0.4s-0.6,0.6-0.8,1v6H178v-8.5H179.4z"/>
	<path class="st3" d="M186.9,130.2c0-0.2,0.1-0.5,0.2-0.6s0.4-0.2,0.7-0.2s0.5,0.1,0.7,0.2s0.2,0.4,0.2,0.6c0,0.2-0.1,0.4-0.2,0.6
		s-0.4,0.2-0.7,0.2s-0.5-0.1-0.7-0.2S186.9,130.5,186.9,130.2z"/>
</g>
<g id="Elipse_4099" transform="translate(1013.32 6838.153)">
	<circle class="st4" cx="-866.3" cy="-6723.7" r="88.8"/>
	<circle class="st5" cx="-866.3" cy="-6723.7" r="89.8"/>
</g>
<g id="Elipse_4100" transform="translate(955 6890.5)">
	<circle class="st6" cx="-914.5" cy="-6772" r="40.5"/>
	<circle class="st7" cx="-914.5" cy="-6772" r="40"/>
</g>
<g id="Grupo_17448" transform="translate(957 6900.594)">
	<g>
		<defs>
			<rect id="SVGID_1_" x="-955" y="-6812.5" width="63" height="48.8"/>
		</defs>
		<clipPath id="SVGID_00000016754383189592775610000007069050923325737363_">
			<use xlink:href="#SVGID_1_"  style="overflow:visible;"/>
		</clipPath>
		<g id="Grupo_17447" style="clip-path:url(#SVGID_00000016754383189592775610000007069050923325737363_);">
			<path id="Trazado_35944" class="st9" d="M-952.3-6766.3c0.9-4.6,4.8-8.7,9.4-8.7c4.1,0,7.7,3,9,7l0.7-0.1
				c0.4-1.2,0.8-2.1,1.1-3.3l0.9-2.8c0.2-1,0.6-2,1.2-3c0.6-0.9,2-1.7,3-0.9c1.1,0.9,0.1,2.4-0.9,3l-2.5,10.8c0,0-4.6,0-4.6,0
				c-0.1,0-0.2,0-0.4,0l-15.3,0c-1,0-1.8-0.8-1.8-1.7C-952.3-6766.1-952.3-6766.2-952.3-6766.3"/>
			<path id="Trazado_35945" class="st10" d="M-929.8-6764.1l-1.5-0.2l1.6-11.7l0.5-0.1c0.1,0,0.3-0.1,0.4-0.2
				c0.1-0.1,0.3-0.1,0.4-0.2c1.3-0.5,2.5-1.8,2.2-2.8c-0.1-0.3-0.4-0.5-0.7-0.6c-0.9-0.3-1.9-0.2-2.7,0.1c-1.3,0.5-2.5,1.8-2.2,2.8
				c0,0.1,0.1,0.2,0.2,0.3l0.4,0.4l-2.5,5.9l-0.8-1.3c-1.7-3.1-5-5.1-8.6-5.3h0c-2.5,0.1-4.9,1.2-6.7,3c-2.4,2.6-3.7,6.1-3.6,9.6
				l-1.6,0c-0.2-4,1.3-7.9,4-10.7c2-2.1,4.8-3.4,7.8-3.5h0c3.6,0.1,7,1.9,9.1,4.8l1-2.3c-0.1-0.1-0.1-0.3-0.2-0.4
				c-0.7-1.7,0.7-3.9,3-4.8c1.2-0.6,2.7-0.6,3.9-0.1c0.7,0.3,1.2,0.8,1.5,1.5c0.7,1.7-0.7,3.9-3,4.8c-0.1,0-0.2,0.1-0.3,0.1
				c-0.1,0-0.2,0.1-0.2,0.1L-929.8-6764.1z"/>
			<path id="Trazado_35946" class="st6" d="M-943.8-6777.6c3.6,0.2,6.6-2.5,6.8-6.1c0.2-3.5-2.5-6.6-6.1-6.8s-6.6,2.5-6.8,6.1
				c0,0.2,0,0.4,0,0.7C-949.8-6780.4-947.1-6777.7-943.8-6777.6"/>
			<path id="Trazado_35947" class="st10" d="M-943.5-6776.9c-0.1,0-0.2,0-0.4,0c-3.9-0.2-6.9-3.5-6.7-7.4c0.2-3.9,3.5-6.9,7.4-6.7
				s6.9,3.5,6.7,7.4C-936.6-6779.9-939.7-6776.9-943.5-6776.9 M-943.5-6789.8c-3.2,0-5.8,2.6-5.8,5.8c0,3.2,2.6,5.8,5.8,5.8
				s5.8-2.6,5.8-5.8c0-3.1-2.4-5.6-5.5-5.8C-943.3-6789.8-943.4-6789.8-943.5-6789.8"/>
			<path id="Trazado_35948" class="st9" d="M-943.7-6778.2c2.6,0.1,4.8-1.9,4.9-4.4c0.1-2.6-1.9-4.8-4.4-4.9s-4.8,1.9-4.9,4.4
				c0,0.2,0,0.3,0,0.5C-948.1-6780.3-946.1-6778.4-943.7-6778.2"/>
			<path id="Trazado_35949" class="st10" d="M-949.9-6763.7c-0.3,0-0.6-0.3-0.6-0.6l0,0v-5.6c0-0.3,0.3-0.6,0.6-0.5
				c0.3,0,0.5,0.2,0.5,0.5v5.6C-949.4-6763.9-949.6-6763.7-949.9-6763.7L-949.9-6763.7"/>
			<path id="Trazado_35950" class="st6" d="M-905.1-6777.2c3.8,0.2,7-2.7,7.2-6.4s-2.7-7-6.4-7.2s-7,2.7-7.2,6.4c0,0.2,0,0.5,0,0.7
				C-911.4-6780.1-908.6-6777.4-905.1-6777.2"/>
			<path id="Trazado_35951" class="st10" d="M-904.8-6776.5c-0.1,0-0.3,0-0.4,0c-4.1-0.2-7.3-3.7-7.1-7.8c0.2-4.1,3.7-7.3,7.8-7.1
				c4.1,0.2,7.3,3.7,7.1,7.8C-897.5-6779.6-900.8-6776.5-904.8-6776.5 M-905.1-6777.8c3.4,0.2,6.3-2.4,6.5-5.9
				c0.2-3.4-2.4-6.3-5.9-6.5c-3.4-0.2-6.3,2.4-6.5,5.9c0,0.2,0,0.4,0,0.6C-910.8-6780.5-908.2-6778-905.1-6777.8L-905.1-6777.8z"/>
			<path id="Trazado_35952" class="st6" d="M-916.5-6764.3c0.8-5.8,6.3-12.1,12.1-12.1s10.9,5.7,11.8,11.8"/>
			<path id="Trazado_35953" class="st10" d="M-915.9-6764.2l-1.2-0.2c0.5-3.2,2-6.2,4.3-8.6c2.5-2.6,5.5-4.1,8.4-4.1h0
				c3.1,0.1,6.1,1.5,8.2,3.8c2.2,2.4,3.7,5.3,4.2,8.6l-1.2,0.2c-0.9-6.1-6-11.3-11.2-11.3h0c-2.9,0.2-5.6,1.5-7.5,3.7
				C-914-6769.9-915.4-6767.1-915.9-6764.2"/>
			<path id="Trazado_35954" class="st9" d="M-905.1-6777.6c2.9,0.1,5.3-2.1,5.4-5c0.1-2.9-2.1-5.3-5-5.4s-5.3,2.1-5.4,5
				c0,0.2,0,0.3,0,0.5C-909.9-6779.9-907.7-6777.7-905.1-6777.6"/>
			<path id="Trazado_35955" class="st9" d="M-895-6766.1c-1-4.4-4.9-8.4-9.6-8.4c-0.7,0-1.5,0.1-2.2,0.3v10.1l10,0
				c1,0,1.8-0.7,1.8-1.6C-895-6765.8-895-6766-895-6766.1"/>
			<path id="Trazado_35956" class="st11" d="M-909.9-6808.3h-20.3c-1.6-0.1-3,1.2-3.1,2.8v7.2c0.1,1.6,1.4,2.9,3.1,2.8h2.4l-0.4,5.6
				l4.8-5.6h13.5c1.6,0.1,3-1.2,3.1-2.8v-7.2C-906.9-6807.1-908.3-6808.4-909.9-6808.3"/>
			<path id="Trazado_35957" class="st10" d="M-932.3-6787.6l0.5-8.2h-2c-2.2,0-4-1.8-4-4v-8.7c0-2.2,1.8-4,4-4h22.6c2.2,0,4,1.8,4,4
				v8.7c0,2.2-1.8,4-4,4h-14.7L-932.3-6787.6z M-933.8-6811.2c-1.5,0-2.8,1.2-2.8,2.8v8.7c0,1.5,1.2,2.8,2.8,2.8h3.3l-0.3,5.5
				l4.3-5.5h15.3c1.5,0,2.8-1.2,2.8-2.8v-8.7c0-1.5-1.2-2.8-2.8-2.8H-933.8z"/>
			<path id="Trazado_35958" class="st11" d="M-906.6-6764v-8.4c0-0.3-0.1-0.5-0.3-0.5h-10.9c-0.2,0-0.3,0.2-0.3,0.5v8.4H-906.6z"/>
			<path id="Trazado_35959" class="st10" d="M-919.6-6764h-1.3v-9.9c0-0.6,0.4-1,1-1.1h12.9c0.6,0,1,0.5,1,1.1v9.4h-1.3v-9.2h-12.4
				V-6764z"/>
			<path id="Trazado_35960" class="st12" d="M-909.7-6775.4h-2.3c0-0.1,0-0.1,0-0.2c0-0.8-0.7-1.5-1.6-1.5c-0.8,0-1.4,0.7-1.5,1.5
				c0,0.1,0,0.1,0,0.2h-2c-0.5,0-0.9,0.4-0.9,0.8v1.3c0,0.5,0.4,0.9,0.9,0.8h7.3c0.5,0,0.9-0.4,0.9-0.8v-1.3
				C-908.9-6775-909.3-6775.4-909.7-6775.4"/>
			<path id="Trazado_35961" class="st10" d="M-917-6772c-0.7,0-1.3-0.6-1.3-1.3c0,0,0,0,0,0v-1.3c0-0.7,0.6-1.3,1.3-1.3c0,0,0,0,0,0
				h1.5c0.1-0.4,0.3-0.8,0.6-1.1c0.4-0.4,0.9-0.6,1.4-0.6l0,0c1,0,1.8,0.7,2,1.6h1.8c0.7,0,1.3,0.6,1.3,1.3c0,0,0,0,0,0v1.3
				c0,0.3-0.1,0.7-0.4,0.9c-0.2,0.2-0.6,0.4-0.9,0.4H-917z M-913.5-6776.6L-913.5-6776.6c-0.3,0-0.6,0.1-0.8,0.3
				c-0.2,0.2-0.3,0.5-0.3,0.7c0,0,0,0.1,0,0.1l0.1,0.5h-2.5c-0.2,0-0.4,0.2-0.4,0.4v1.3c0,0.2,0.2,0.4,0.4,0.4h7.3
				c0.1,0,0.2,0,0.3-0.1c0.1-0.1,0.1-0.2,0.1-0.3v-1.3c0-0.2-0.2-0.4-0.4-0.4h-2.7l0.1-0.5c0,0,0-0.1,0-0.1
				C-912.4-6776.1-912.9-6776.6-913.5-6776.6"/>
			<path id="Trazado_35962" class="st9" d="M-911.3-6764c-0.1-2.3,1.7-4.1,4-4.2c2.3-0.1,4.1,1.7,4.2,4c0,0.1,0,0.1,0,0.2"/>
			<path id="Trazado_35963" class="st10" d="M-902.7-6764h-1c0.1-2-1.5-3.6-3.4-3.7c-2-0.1-3.6,1.5-3.7,3.4c0,0.1,0,0.2,0,0.3h-1
				c-0.1-2.5,1.9-4.6,4.4-4.7c2.5-0.1,4.6,1.9,4.7,4.4C-902.6-6764.2-902.6-6764.1-902.7-6764"/>
			<path id="Trazado_35964" class="st10" d="M-919.2-6806.1h-13.4c-0.4,0-0.7-0.3-0.7-0.7c0-0.4,0.3-0.7,0.7-0.7h13.4
				c0.4,0,0.7,0.3,0.7,0.7C-918.5-6806.4-918.8-6806.1-919.2-6806.1"/>
			<path id="Trazado_35965" class="st10" d="M-912.4-6806h-3.2c-0.4,0-0.7-0.3-0.7-0.7c0-0.4,0.3-0.7,0.7-0.7h3.2
				c0.4,0,0.7,0.3,0.7,0.7C-911.7-6806.3-912-6806-912.4-6806"/>
			<path id="Trazado_35966" class="st10" d="M-929-6801.6h-3.2c-0.4,0-0.7-0.3-0.7-0.7c0-0.4,0.3-0.7,0.7-0.7l0,0h3.2
				c0.4,0,0.7,0.3,0.7,0.7C-928.3-6801.9-928.6-6801.6-929-6801.6"/>
			<path id="Trazado_35967" class="st10" d="M-919.3-6801.6h-6.8c-0.4,0-0.7-0.3-0.7-0.7c0-0.4,0.3-0.7,0.7-0.7h6.8
				c0.4,0,0.7,0.3,0.7,0.7C-918.6-6801.9-918.9-6801.6-919.3-6801.6"/>
			<path id="Trazado_35968" class="st10" d="M-913.6-6801.6h-2.8c-0.4,0-0.7-0.3-0.7-0.7c0-0.4,0.3-0.7,0.7-0.7h2.8
				c0.4,0,0.7,0.3,0.7,0.7C-912.8-6801.9-913.2-6801.6-913.6-6801.6"/>
		</g>
	</g>
</g>
</svg>
