<svg id="Grupo_17536" data-name="Grupo 17536" xmlns="http://www.w3.org/2000/svg" xmlns:xlink="http://www.w3.org/1999/xlink" width="463.073" height="461.548" viewBox="0 0 463.073 461.548">
  <defs>
    <clipPath id="clip-path">
      <rect id="Rectángulo_4471" data-name="Rectángulo 4471" width="463.073" height="461.548" fill="none"/>
    </clipPath>
    <clipPath id="clip-path-5">
      <rect id="Rectángulo_4447" data-name="Rectángulo 4447" width="72.482" height="79.951" transform="translate(149.936 246.46)" fill="none"/>
    </clipPath>
    <clipPath id="clip-path-6">
      <rect id="Rectángulo_4448" data-name="Rectángulo 4448" width="231.239" height="316.051" transform="translate(63.117 18.795)" fill="none"/>
    </clipPath>
    <clipPath id="clip-path-8">
      <rect id="Rectángulo_4450" data-name="Rectángulo 4450" width="238.244" height="137.383" transform="translate(95.355 49.612)" fill="none"/>
    </clipPath>
    <clipPath id="clip-path-9">
      <rect id="Rectángulo_4451" data-name="Rectángulo 4451" width="238.244" height="150.724" transform="translate(95.355 36.345)" fill="none"/>
    </clipPath>
    <clipPath id="clip-path-10">
      <rect id="Rectángulo_4452" data-name="Rectángulo 4452" width="232.71" height="147.312" transform="translate(100.889 39.757)" fill="none"/>
    </clipPath>
    <clipPath id="clip-path-11">
      <rect id="Rectángulo_4453" data-name="Rectángulo 4453" width="6.16" height="16.9" transform="translate(95.359 170.169)" fill="none"/>
    </clipPath>
    <clipPath id="clip-path-12">
      <rect id="Rectángulo_4454" data-name="Rectángulo 4454" width="40.468" height="29.145" transform="translate(107.534 172.735)" fill="none"/>
    </clipPath>
    <clipPath id="clip-path-13">
      <rect id="Rectángulo_4455" data-name="Rectángulo 4455" width="140.197" height="87.123" transform="translate(175.546 154.337)" fill="none"/>
    </clipPath>
    <clipPath id="clip-path-14">
      <rect id="Rectángulo_4456" data-name="Rectángulo 4456" width="2.087" height="2.695" transform="translate(175.546 205.932)" fill="none"/>
    </clipPath>
    <clipPath id="clip-path-15">
      <rect id="Rectángulo_4457" data-name="Rectángulo 4457" width="37.058" height="27.341" transform="translate(176.34 274.04)" fill="none"/>
    </clipPath>
    <clipPath id="clip-path-16">
      <rect id="Rectángulo_4458" data-name="Rectángulo 4458" width="37.059" height="23.938" transform="translate(225.084 249.243)" fill="none"/>
    </clipPath>
    <clipPath id="clip-path-17">
      <rect id="Rectángulo_4459" data-name="Rectángulo 4459" width="7.497" height="12.717" transform="translate(270.643 199.417)" fill="none"/>
    </clipPath>
    <clipPath id="clip-path-18">
      <rect id="Rectángulo_4460" data-name="Rectángulo 4460" width="7.885" height="24.624" transform="translate(298.69 182.939)" fill="none"/>
    </clipPath>
    <clipPath id="clip-path-20">
      <rect id="Rectángulo_4462" data-name="Rectángulo 4462" width="65.757" height="39.671" transform="translate(238.817 334.141)" fill="none"/>
    </clipPath>
    <clipPath id="clip-path-21">
      <rect id="Rectángulo_4463" data-name="Rectángulo 4463" width="98.645" height="56.952" transform="translate(143.562 359.702)" fill="none"/>
    </clipPath>
    <clipPath id="clip-path-22">
      <rect id="Rectángulo_4464" data-name="Rectángulo 4464" width="89.111" height="30.423" transform="translate(148.329 364.471)" fill="none"/>
    </clipPath>
    <clipPath id="clip-path-23">
      <rect id="Rectángulo_4465" data-name="Rectángulo 4465" width="88.311" height="41.335" transform="translate(148.729 370.549)" fill="none"/>
    </clipPath>
    <clipPath id="clip-path-24">
      <rect id="Rectángulo_4466" data-name="Rectángulo 4466" width="37.701" height="45.496" transform="translate(143.562 383.779)" fill="none"/>
    </clipPath>
    <clipPath id="clip-path-26">
      <rect id="Rectángulo_4468" data-name="Rectángulo 4468" width="11.087" height="6.816" transform="translate(337.323 163.44)" fill="none"/>
    </clipPath>
    <clipPath id="clip-path-27">
      <rect id="Rectángulo_4469" data-name="Rectángulo 4469" width="8.967" height="6.961" transform="translate(337.824 161.61)" fill="none"/>
    </clipPath>
  </defs>
  <g id="Grupo_17535" data-name="Grupo 17535" clip-path="url(#clip-path)">
    <g id="Grupo_17466" data-name="Grupo 17466">
      <g id="Grupo_17465" data-name="Grupo 17465" clip-path="url(#clip-path)">
        <path id="Trazado_36000" data-name="Trazado 36000" d="M305.629,363.109a12.606,12.606,0,0,0-1.85-6.5,14.178,14.178,0,0,0-.794-1.216c-.013-.019-.027-.038-.041-.056a13.14,13.14,0,0,0-.868-1.065c-.027-.029-.055-.057-.082-.087a11.386,11.386,0,0,0-.936-.907c-.029-.025-.058-.046-.087-.071a9.277,9.277,0,0,0-1.029-.755q-.3-.189-.6-.336c-.092-.047-.181-.081-.272-.121s-.209-.1-.311-.138c-.151-.057-.3-.1-.445-.142-.039-.011-.08-.028-.119-.038a4.547,4.547,0,0,0-.513-.1l-.031-.006a3.241,3.241,0,0,0-1.91.292h0l-.012,0v0c-5.289,2.653-35.772,22.046-49.8,30.79l-6.953,4.22a1.556,1.556,0,0,0-.512.486c-.018.024-.035.049-.053.075a2.051,2.051,0,0,0-.158.3c-.028.066-.051.138-.074.21a2.381,2.381,0,0,0-.08.271c-.013.057-.02.121-.029.182-.32.173-.71.385-1.149.63l-1.028.555a40.441,40.441,0,0,0-7.928-5.877c-9.615-5.55-22.357-8.608-35.876-8.608s-26.262,3.058-35.876,8.608c-9.961,5.751-15.446,13.518-15.446,21.87s5.485,16.116,15.445,21.867c9.615,5.55,22.356,8.608,35.876,8.608s26.262-3.058,35.877-8.608c9.961-5.751,15.446-13.517,15.446-21.867a20.126,20.126,0,0,0-3.262-10.806l.917-.5a2.054,2.054,0,0,0,1.969.193l.043-.023c4.762-2.622,51.162-22.4,60.648-27.484h0l.006,0h0c1.111-.6,1.829-1.924,1.894-3.845m-82.048,56.737c-8.3,4.794-19.487,7.435-31.491,7.435S168.9,424.64,160.6,419.846c-7.133-4.117-11.061-9.187-11.061-14.271s3.928-10.157,11.061-14.274c8.3-4.794,19.485-7.434,31.491-7.434s23.189,2.64,31.491,7.434c7.133,4.117,11.061,9.187,11.061,14.274s-3.928,10.154-11.061,14.271" fill="#e0e0e0"/>
        <path id="Trazado_36001" data-name="Trazado 36001" d="M312.715,245.639l-47.068-27.231a9.571,9.571,0,0,0-8.661,0L17.9,356.445c-2.392,1.381-2.392,3.62,0,5l47.066,27.232a9.569,9.569,0,0,0,8.66,0l89.6-51.729L177,344.953c7.292,4.211,19.117,4.212,26.411,0l41.057-23.531c7.294-4.209,7.295-11.035,0-15.245l-13.763-8,82.011-47.54c2.392-1.381,2.392-3.619,0-5" fill="#e0e0e0"/>
        <path id="Trazado_36002" data-name="Trazado 36002" d="M424.307,329.053c18.023,10.406,18.022,27.277,0,37.683s-47.245,10.4-65.268,0-18.023-27.277,0-37.683,47.245-10.4,65.268,0" fill="#e0e0e0"/>
      </g>
    </g>
    <g id="Grupo_17474" data-name="Grupo 17474">
      <g id="Grupo_17473" data-name="Grupo 17473" clip-path="url(#clip-path)">
        <path id="Trazado_36003" data-name="Trazado 36003" d="M203.411,340.984l35.374-20.453c3.647-2.106,5.47-4.864,5.47-7.623s.015-4.921.015-4.921l-33.286-18.893a7.783,7.783,0,0,1-3.521-6.1V239.381l-61.786,35.7,0,43.613a7.785,7.785,0,0,0,3.522,6.1L177,340.985c7.293,4.21,19.117,4.209,26.41,0" fill="#37474f"/>
        <path id="Trazado_36004" data-name="Trazado 36004" d="M160.51,326.42v4.9l-11.324-6.525a7.794,7.794,0,0,1-3.517-6.1V275.086L157.44,268.3c.244,2.989.508,6.079.752,9.088l-8.254,4.778v34.074a7.739,7.739,0,0,0,3.518,6.1Z" fill="#263238"/>
        <path id="Trazado_36005" data-name="Trazado 36005" d="M149.936,316.242a7.786,7.786,0,0,0,3.521,6.1L177,336.065c7.292,4.211,19.117,4.212,26.411,0L238.8,315.616c7.294-4.208,7.295-11.034,0-15.245l-23.556-13.734a7.785,7.785,0,0,1-3.521-6.1V246.46l-61.788,35.7Z" fill="#455a64"/>
        <g id="Grupo_17469" data-name="Grupo 17469" opacity="0.15">
          <g id="Grupo_17468" data-name="Grupo 17468">
            <g id="Grupo_17467" data-name="Grupo 17467" clip-path="url(#clip-path-5)">
              <path id="Trazado_36006" data-name="Trazado 36006" d="M222.418,290.783v0l-7.172-4.141a7.783,7.783,0,0,1-3.521-6.1V246.46l-61.789,35.7v34.079a7.783,7.783,0,0,0,3.522,6.1l7.048,4.069Z"/>
            </g>
          </g>
        </g>
        <path id="Trazado_36007" data-name="Trazado 36007" d="M244.264,307.991v4.92c0,2.765-1.83,5.509-5.469,7.623l-35.38,20.443a26.488,26.488,0,0,1-12.6,3.131v-4.9a26.477,26.477,0,0,0,12.6-3.131l35.38-20.462c3.639-2.1,5.469-4.859,5.469-7.624" fill="#37474f"/>
        <path id="Trazado_36008" data-name="Trazado 36008" d="M50.73,363.293a9.44,9.44,0,0,0,8.531-.158L298.21,225.181a9.727,9.727,0,0,0,4.4-7.623V8.409A9.441,9.441,0,0,0,298.481.942a9.437,9.437,0,0,0-8.53.158L51.005,139.054a9.732,9.732,0,0,0-4.4,7.624l0,209.149a9.439,9.439,0,0,0,4.129,7.466" fill="#455a64"/>
        <path id="Trazado_36009" data-name="Trazado 36009" d="M59.262,363.13,298.209,225.176a9.727,9.727,0,0,0,4.4-7.624V8.4c0-2.807-1.971-3.944-4.4-2.541L59.265,143.817a9.727,9.727,0,0,0-4.4,7.624l0,209.147c0,2.808,1.971,3.945,4.4,2.542" fill="#37474f"/>
        <path id="Trazado_36010" data-name="Trazado 36010" d="M63.117,332.96l0-178.779a5.836,5.836,0,0,1,2.641-4.574L291.707,19.156c1.459-.842,2.641-.16,2.641,1.525l.008,178.782a5.836,5.836,0,0,1-2.641,4.574L65.758,334.485c-1.459.842-2.641.16-2.641-1.525" fill="#e8e8e8"/>
        <g id="Grupo_17472" data-name="Grupo 17472" transform="translate(0 0)" opacity="0.7">
          <g id="Grupo_17471" data-name="Grupo 17471">
            <g id="Grupo_17470" data-name="Grupo 17470" clip-path="url(#clip-path-6)">
              <path id="Trazado_36011" data-name="Trazado 36011" d="M63.117,332.96l0-178.779a5.836,5.836,0,0,1,2.641-4.574L291.707,19.156c1.459-.842,2.641-.16,2.641,1.525l.008,178.782a5.836,5.836,0,0,1-2.641,4.574L65.758,334.485c-1.459.842-2.641.16-2.641-1.525" fill="#fff"/>
            </g>
          </g>
        </g>
        <path id="Trazado_36012" data-name="Trazado 36012" d="M178.285,285.689a2.6,2.6,0,0,1-1.325-.344,3.369,3.369,0,0,1-1.461-3.106,9.549,9.549,0,0,1,4.381-7.586,3,3,0,0,1,4.88,2.817,9.548,9.548,0,0,1-4.38,7.586,4.247,4.247,0,0,1-2.1.633m3.688-10.669a3.259,3.259,0,0,0-1.593.5,8.588,8.588,0,0,0-3.881,6.72,2.035,2.035,0,0,0,3.381,1.951,8.587,8.587,0,0,0,3.88-6.72,2.438,2.438,0,0,0-.96-2.241,1.632,1.632,0,0,0-.827-.209" fill="#27debf"/>
      </g>
    </g>
    <g id="Grupo_17509" data-name="Grupo 17509">
      <g id="Grupo_17508" data-name="Grupo 17508" clip-path="url(#clip-path)">
        <path id="Trazado_36013" data-name="Trazado 36013" d="M333.6,52.8,100.889,187V358.509a2.97,2.97,0,0,0,4.448,2.579l4.148-2.4L329.26,231.972a9.584,9.584,0,0,0,4.339-7.511Z" fill="#f0f0f0"/>
        <path id="Trazado_36014" data-name="Trazado 36014" d="M332.6,54.53V224.461a8.626,8.626,0,0,1-3.838,6.645L108.986,357.827l-4.148,2.394a1.921,1.921,0,0,1-.973.266,2.01,2.01,0,0,1-1.377-.56,1.946,1.946,0,0,1-.6-1.418V187.573L332.6,54.53m1-1.731L100.889,187V358.509a2.977,2.977,0,0,0,2.975,2.978,2.938,2.938,0,0,0,1.473-.4l4.148-2.4L329.26,231.972a9.584,9.584,0,0,0,4.339-7.511Z" fill="#e0e0e0"/>
        <g id="Grupo_17477" data-name="Grupo 17477" opacity="0.8">
          <g id="Grupo_17476" data-name="Grupo 17476">
            <g id="Grupo_17475" data-name="Grupo 17475" clip-path="url(#clip-path-8)">
              <path id="Trazado_36015" data-name="Trazado 36015" d="M328.079,49.612,95.354,183.8l5.535,3.2L333.6,52.8Z" fill="#455a64"/>
            </g>
          </g>
        </g>
        <path id="Trazado_36016" data-name="Trazado 36016" d="M102.448,361.128a3,3,0,0,1-1.558-2.619V187l-5.534-3.2-.007,170.566a4.83,4.83,0,0,0,.042.633,4.6,4.6,0,0,0,2.264,3.359L102.223,361Z" fill="#ebebeb"/>
        <path id="Trazado_36017" data-name="Trazado 36017" d="M95.355,183.875V172.3a4.818,4.818,0,0,1,2.158-3.761L325.921,36.87a4.757,4.757,0,0,1,4.324-.011l1.189.687A4.786,4.786,0,0,1,333.6,41.3V52.887L100.889,187.068Z" fill="#27debf"/>
        <g id="Grupo_17480" data-name="Grupo 17480" opacity="0.3">
          <g id="Grupo_17479" data-name="Grupo 17479">
            <g id="Grupo_17478" data-name="Grupo 17478" clip-path="url(#clip-path-9)">
              <path id="Trazado_36018" data-name="Trazado 36018" d="M95.355,183.875V172.3a4.818,4.818,0,0,1,2.158-3.761L325.921,36.87a4.757,4.757,0,0,1,4.324-.011l1.189.687A4.786,4.786,0,0,1,333.6,41.3V52.887L100.889,187.068Z"/>
            </g>
          </g>
        </g>
        <path id="Trazado_36019" data-name="Trazado 36019" d="M100.888,175.5a4.815,4.815,0,0,1,2.159-3.761L331.44,40.058c1.192-.7,2.158-.142,2.158,1.238V52.888L100.888,187.069Z" fill="#27debf"/>
        <g id="Grupo_17483" data-name="Grupo 17483" opacity="0.4">
          <g id="Grupo_17482" data-name="Grupo 17482">
            <g id="Grupo_17481" data-name="Grupo 17481" clip-path="url(#clip-path-10)">
              <path id="Trazado_36020" data-name="Trazado 36020" d="M100.888,175.5a4.815,4.815,0,0,1,2.159-3.761L331.44,40.058c1.192-.7,2.158-.142,2.158,1.238V52.888L100.888,187.069Z"/>
            </g>
          </g>
        </g>
        <path id="Trazado_36021" data-name="Trazado 36021" d="M101.519,173.359a4.467,4.467,0,0,0-.63,2.14v11.57l-5.53-3.19V172.3a4.43,4.43,0,0,1,.63-2.13Z" fill="#27debf"/>
        <g id="Grupo_17486" data-name="Grupo 17486" opacity="0.5">
          <g id="Grupo_17485" data-name="Grupo 17485">
            <g id="Grupo_17484" data-name="Grupo 17484" clip-path="url(#clip-path-11)">
              <path id="Trazado_36022" data-name="Trazado 36022" d="M101.519,173.359a4.467,4.467,0,0,0-.63,2.14v11.57l-5.53-3.19V172.3a4.43,4.43,0,0,1,.63-2.13Z"/>
            </g>
          </g>
        </g>
        <path id="Trazado_36023" data-name="Trazado 36023" d="M323.444,52.363c0,1.3.909,1.82,2.031,1.172a4.486,4.486,0,0,0,2.031-3.517c0-1.3-.909-1.821-2.031-1.173a4.49,4.49,0,0,0-2.031,3.518" fill="#fafafa"/>
        <path id="Trazado_36024" data-name="Trazado 36024" d="M315.32,57.053c0,1.295.909,1.82,2.031,1.172a4.486,4.486,0,0,0,2.031-3.517c0-1.3-.909-1.821-2.031-1.173a4.49,4.49,0,0,0-2.031,3.518" fill="#fafafa"/>
        <path id="Trazado_36025" data-name="Trazado 36025" d="M307.2,61.743c0,1.295.909,1.82,2.031,1.172a4.489,4.489,0,0,0,2.031-3.517c0-1.3-.91-1.821-2.031-1.173a4.49,4.49,0,0,0-2.031,3.518" fill="#fafafa"/>
        <path id="Trazado_36026" data-name="Trazado 36026" d="M100.889,187.072V358.509a2.97,2.97,0,0,0,4.448,2.578l4.148-2.4,50.855-29.322V152.789l-59.452,34.28Z" fill="#fafafa"/>
        <path id="Trazado_36027" data-name="Trazado 36027" d="M164.4,155.685v166.51L328.72,227.327V60.816Z" fill="#fafafa"/>
        <path id="Trazado_36028" data-name="Trazado 36028" d="M146.732,172.908l-37.926,21.915a2.809,2.809,0,0,0-1.271,2.2v3.948c0,.811.569,1.139,1.271.734l37.926-21.916a2.807,2.807,0,0,0,1.271-2.2v-3.948c0-.81-.569-1.138-1.271-.733" fill="#27debf"/>
        <g id="Grupo_17489" data-name="Grupo 17489" opacity="0.8">
          <g id="Grupo_17488" data-name="Grupo 17488">
            <g id="Grupo_17487" data-name="Grupo 17487" clip-path="url(#clip-path-12)">
              <path id="Trazado_36029" data-name="Trazado 36029" d="M146.732,172.908l-37.926,21.915a2.809,2.809,0,0,0-1.271,2.2v3.948c0,.811.569,1.139,1.271.734l37.926-21.916a2.807,2.807,0,0,0,1.271-2.2v-3.948c0-.81-.569-1.138-1.271-.733" fill="#fafafa"/>
            </g>
          </g>
        </g>
        <path id="Trazado_36030" data-name="Trazado 36030" d="M155.176,174.475l-1.118-1.076a4.982,4.982,0,0,0,.356-1.786,2.113,2.113,0,0,0-.836-1.919,1.325,1.325,0,0,0-1.361.059,4.467,4.467,0,0,0-1.756,3.633,2.114,2.114,0,0,0,.836,1.919,1.176,1.176,0,0,0,.6.161,1.524,1.524,0,0,0,.761-.221,3.029,3.029,0,0,0,.993-1.018l.916.881a.435.435,0,0,0,.305.124.44.44,0,0,0,.3-.757m-2.959.007a.476.476,0,0,1-.48.061c-.183-.106-.4-.472-.4-1.157a3.644,3.644,0,0,1,1.316-2.87.645.645,0,0,1,.318-.1.322.322,0,0,1,.163.042c.182.106.4.471.4,1.157a3.639,3.639,0,0,1-1.316,2.869" fill="#455a64"/>
        <path id="Trazado_36031" data-name="Trazado 36031" d="M108.458,213.294l-.851.491c-.05.029-.09,0-.09-.069v-2.3a.218.218,0,0,1,.09-.173l.851-.491c.05-.029.091,0,.091.068v2.3a.218.218,0,0,1-.091.173" fill="#455a64"/>
        <path id="Trazado_36032" data-name="Trazado 36032" d="M109.733,212.557l-.851.491c-.05.029-.09,0-.09-.069v-2.3a.218.218,0,0,1,.09-.174l.851-.491c.05-.029.091,0,.091.069v2.3a.217.217,0,0,1-.091.173" fill="#455a64"/>
        <path id="Trazado_36033" data-name="Trazado 36033" d="M111.008,211.822l-.851.491c-.05.029-.09,0-.09-.069v-2.3a.218.218,0,0,1,.09-.173l.851-.491c.05-.029.091,0,.091.068v2.3a.218.218,0,0,1-.091.173" fill="#455a64"/>
        <path id="Trazado_36034" data-name="Trazado 36034" d="M108.458,216.263l-.851.491c-.05.029-.09,0-.09-.069v-2.3a.218.218,0,0,1,.09-.174l.851-.491c.05-.029.091,0,.091.068v2.3a.217.217,0,0,1-.091.173" fill="#455a64"/>
        <path id="Trazado_36035" data-name="Trazado 36035" d="M109.733,215.528l-.851.491c-.05.029-.09,0-.09-.069v-2.3a.216.216,0,0,1,.09-.173l.851-.491c.05-.029.091,0,.091.068v2.3a.219.219,0,0,1-.091.174" fill="#455a64"/>
        <path id="Trazado_36036" data-name="Trazado 36036" d="M111.008,214.791l-.851.491c-.05.029-.09,0-.09-.068v-2.3a.218.218,0,0,1,.09-.174l.851-.491c.05-.029.091,0,.091.068v2.3a.217.217,0,0,1-.091.173" fill="#455a64"/>
        <path id="Trazado_36037" data-name="Trazado 36037" d="M108.593,224.11l-1.047-.638c-.04-.025-.04-.117,0-.188l1.047-1.847c.051-.089.124-.076.124.023v2.484c0,.1-.073.2-.124.166" fill="#455a64"/>
        <path id="Trazado_36038" data-name="Trazado 36038" d="M108.153,222.7l1.379-.8v.655l-1.379.8c-.117.068-.213-.025-.213-.205a.562.562,0,0,1,.213-.45" fill="#455a64"/>
        <path id="Trazado_36039" data-name="Trazado 36039" d="M109.789,221.755l.47-.271v.655l-.47.271Z" fill="#455a64"/>
        <path id="Trazado_36040" data-name="Trazado 36040" d="M111.527,221.079v2.411a.562.562,0,0,1-.212.451c-.118.067-.213-.022-.213-.205v-2.083l-.583.336v-.655l.8-.46c.116-.067.212.025.212.205" fill="#455a64"/>
        <path id="Trazado_36041" data-name="Trazado 36041" d="M109,229.512a4.563,4.563,0,0,0-1.452,3.9c.173,1.256.918,1.208,1,1.79.009.063.05.086.1.06l.932-.529a.237.237,0,0,0,.1-.171c.1-.767,1.049-1.7,1.056-3.564.006-1.434-.779-2.135-1.725-1.485" fill="#455a64"/>
        <path id="Trazado_36042" data-name="Trazado 36042" d="M109.558,236.235l-.9.52c-.062.035-.112,0-.112-.084v-.829a.266.266,0,0,1,.112-.213l.9-.52c.061-.036.112,0,.112.084v.829a.27.27,0,0,1-.112.213" fill="#455a64"/>
        <path id="Trazado_36043" data-name="Trazado 36043" d="M109.217,210.062a5.463,5.463,0,0,0-1.631,3.451,3.614,3.614,0,0,0,.238,1.887l-.3,1.573c-.025.13.046.2.121.117l.906-.989a1.408,1.408,0,0,0,1.32-.387,5.463,5.463,0,0,0,1.633-3.456c.214-2.2-.934-3.306-2.284-2.2m.326,5.155c-.834.482-1.513-.171-1.513-1.456a4,4,0,0,1,1.513-3.2c.834-.481,1.513.172,1.513,1.456a4,4,0,0,1-1.513,3.2" fill="#455a64"/>
        <path id="Trazado_36044" data-name="Trazado 36044" d="M109.217,240.41a5.46,5.46,0,0,0-1.631,3.451,3.614,3.614,0,0,0,.238,1.887l-.3,1.573c-.025.13.046.2.121.117l.906-.989a1.411,1.411,0,0,0,1.32-.387A5.463,5.463,0,0,0,111.5,242.6c.214-2.2-.934-3.3-2.284-2.195m.326,5.155c-.834.481-1.513-.171-1.513-1.456a4,4,0,0,1,1.513-3.2c.834-.482,1.513.172,1.513,1.456a4,4,0,0,1-1.513,3.2" fill="#455a64"/>
        <path id="Trazado_36045" data-name="Trazado 36045" d="M110.5,251.529a2.1,2.1,0,0,1-.8,1.69c-.441.255-.8-.089-.8-.768a2.108,2.108,0,0,1,.8-1.691c.441-.254.8.09.8.769" fill="#455a64"/>
        <path id="Trazado_36046" data-name="Trazado 36046" d="M111.868,251.771a1.4,1.4,0,0,1-.532,1.126c-.294.169-.531-.06-.531-.512a1.4,1.4,0,0,1,.531-1.126c.294-.169.532.06.532.512" fill="#455a64"/>
        <path id="Trazado_36047" data-name="Trazado 36047" d="M110.641,256.373l-1.885,1.088v-2.386a1.635,1.635,0,0,1,.682-1.3l.52-.3c.377-.218.683.013.683.516Z" fill="#455a64"/>
        <path id="Trazado_36048" data-name="Trazado 36048" d="M111.42,253.172l-.519.3v2.75l.979-.565V253.52c0-.339-.206-.494-.46-.348" fill="#455a64"/>
        <path id="Trazado_36049" data-name="Trazado 36049" d="M107.529,254.277c0,.452.238.681.532.512a1.4,1.4,0,0,0,.531-1.126c0-.452-.237-.681-.531-.512a1.4,1.4,0,0,0-.532,1.126" fill="#455a64"/>
        <path id="Trazado_36050" data-name="Trazado 36050" d="M107.977,255.16l.519-.3v2.75l-.979.565v-2.137a1.1,1.1,0,0,1,.46-.879" fill="#455a64"/>
        <path id="Trazado_36051" data-name="Trazado 36051" d="M116.741,207.9l22.207-12.821c.6-.345,1.083-.1,1.083.547a2.321,2.321,0,0,1-1.083,1.8l-22.207,12.821c-.6.345-1.083.1-1.083-.548a2.321,2.321,0,0,1,1.083-1.8" fill="#e0e0e0"/>
        <path id="Trazado_36052" data-name="Trazado 36052" d="M116.741,218.35l22.207-12.821c.6-.345,1.083-.1,1.083.548a2.321,2.321,0,0,1-1.083,1.8L116.741,220.7c-.6.345-1.083.1-1.083-.547a2.321,2.321,0,0,1,1.083-1.8" fill="#e0e0e0"/>
        <path id="Trazado_36053" data-name="Trazado 36053" d="M116.741,228.8l22.207-12.821c.6-.345,1.083-.1,1.083.548a2.32,2.32,0,0,1-1.083,1.8l-22.207,12.822c-.6.345-1.083.1-1.083-.548a2.321,2.321,0,0,1,1.083-1.8" fill="#e0e0e0"/>
        <path id="Trazado_36054" data-name="Trazado 36054" d="M116.741,239.256l22.207-12.821c.6-.346,1.083-.1,1.083.548a2.321,2.321,0,0,1-1.083,1.8L116.741,241.6c-.6.345-1.083.1-1.083-.547a2.321,2.321,0,0,1,1.083-1.8" fill="#e0e0e0"/>
        <path id="Trazado_36055" data-name="Trazado 36055" d="M116.741,249.709l22.207-12.821c.6-.346,1.083-.1,1.083.548a2.32,2.32,0,0,1-1.083,1.8l-22.207,12.822c-.6.345-1.083.1-1.083-.548a2.321,2.321,0,0,1,1.083-1.8" fill="#e0e0e0"/>
        <path id="Trazado_36056" data-name="Trazado 36056" d="M120.8,258.244l22.207-12.821c.6-.346,1.083-.1,1.083.548a2.323,2.323,0,0,1-1.082,1.8L120.8,260.589c-.6.345-1.083.1-1.083-.547a2.321,2.321,0,0,1,1.083-1.8" fill="#455a64"/>
        <path id="Trazado_36057" data-name="Trazado 36057" d="M120.8,265.3l22.207-12.821c.6-.346,1.083-.1,1.083.548a2.323,2.323,0,0,1-1.082,1.8L120.8,267.651c-.6.344-1.083.1-1.083-.548a2.321,2.321,0,0,1,1.083-1.8" fill="#e0e0e0"/>
        <path id="Trazado_36058" data-name="Trazado 36058" d="M120.8,272.366l22.207-12.821c.6-.345,1.083-.1,1.083.548a2.321,2.321,0,0,1-1.082,1.8L120.8,274.712c-.6.345-1.083.1-1.083-.548a2.321,2.321,0,0,1,1.083-1.8" fill="#e0e0e0"/>
        <path id="Trazado_36059" data-name="Trazado 36059" d="M125.125,276.854l22.207-12.821c.6-.346,1.083-.1,1.083.548a2.321,2.321,0,0,1-1.082,1.8L125.125,279.2c-.6.345-1.083.1-1.083-.548a2.321,2.321,0,0,1,1.083-1.8" fill="#e0e0e0"/>
        <path id="Trazado_36060" data-name="Trazado 36060" d="M119.935,282.929l1.8-3.182c.069-.121.069-.281,0-.323l-1.8-1.1c-.087-.054-.214.115-.214.284v4.282c0,.169.127.192.214.038" fill="#455a64"/>
        <path id="Trazado_36061" data-name="Trazado 36061" d="M125.125,283.891l22.207-12.821c.6-.346,1.083-.1,1.083.548a2.323,2.323,0,0,1-1.082,1.8l-22.208,12.822c-.6.345-1.083.1-1.083-.548a2.321,2.321,0,0,1,1.083-1.8" fill="#e0e0e0"/>
        <path id="Trazado_36062" data-name="Trazado 36062" d="M119.935,289.966l1.8-3.182c.069-.121.069-.281,0-.323l-1.8-1.1c-.087-.054-.214.115-.214.284v4.282c0,.169.127.192.214.038" fill="#455a64"/>
        <path id="Trazado_36063" data-name="Trazado 36063" d="M125.125,290.928l22.207-12.821c.6-.346,1.083-.1,1.083.548a2.323,2.323,0,0,1-1.082,1.8l-22.208,12.821c-.6.345-1.083.1-1.083-.547a2.321,2.321,0,0,1,1.083-1.8" fill="#e0e0e0"/>
        <path id="Trazado_36064" data-name="Trazado 36064" d="M119.935,297l1.8-3.182c.069-.121.069-.281,0-.323l-1.8-1.1c-.087-.053-.214.116-.214.285v4.281c0,.17.127.193.214.039" fill="#455a64"/>
        <path id="Trazado_36065" data-name="Trazado 36065" d="M125.125,297.964l22.207-12.821c.6-.346,1.083-.1,1.083.547a2.323,2.323,0,0,1-1.082,1.8l-22.208,12.821c-.6.345-1.083.1-1.083-.548a2.321,2.321,0,0,1,1.083-1.8" fill="#e0e0e0"/>
        <path id="Trazado_36066" data-name="Trazado 36066" d="M119.935,304.039l1.8-3.182c.069-.122.069-.281,0-.323l-1.8-1.1c-.087-.053-.214.116-.214.285V304c0,.17.127.193.214.039" fill="#455a64"/>
        <path id="Trazado_36067" data-name="Trazado 36067" d="M125.125,305l22.207-12.821c.6-.346,1.083-.1,1.083.548a2.323,2.323,0,0,1-1.082,1.8l-22.208,12.822c-.6.345-1.083.1-1.083-.548a2.321,2.321,0,0,1,1.083-1.8" fill="#e0e0e0"/>
        <path id="Trazado_36068" data-name="Trazado 36068" d="M119.935,311.075l1.8-3.182c.069-.121.069-.281,0-.323l-1.8-1.1c-.087-.054-.214.115-.214.284v4.282c0,.169.127.192.214.038" fill="#455a64"/>
        <path id="Trazado_36069" data-name="Trazado 36069" d="M125.125,312.037l22.207-12.821c.6-.346,1.083-.1,1.083.548a2.323,2.323,0,0,1-1.082,1.8l-22.208,12.821c-.6.345-1.083.1-1.083-.547a2.321,2.321,0,0,1,1.083-1.8" fill="#e0e0e0"/>
        <path id="Trazado_36070" data-name="Trazado 36070" d="M119.935,318.112l1.8-3.182c.069-.121.069-.281,0-.323l-1.8-1.1c-.087-.054-.214.115-.214.284v4.282c0,.169.127.192.214.038" fill="#455a64"/>
        <path id="Trazado_36071" data-name="Trazado 36071" d="M125.125,319.074l22.207-12.821c.6-.346,1.083-.1,1.083.547a2.323,2.323,0,0,1-1.082,1.8l-22.208,12.821c-.6.345-1.083.1-1.083-.548a2.321,2.321,0,0,1,1.083-1.8" fill="#e0e0e0"/>
        <path id="Trazado_36072" data-name="Trazado 36072" d="M119.935,325.149l1.8-3.182c.069-.122.069-.281,0-.323l-1.8-1.1c-.087-.053-.214.116-.214.285v4.281c0,.17.127.193.214.039" fill="#455a64"/>
        <path id="Trazado_36073" data-name="Trazado 36073" d="M125.125,326.11l22.207-12.821c.6-.346,1.083-.1,1.083.547a2.323,2.323,0,0,1-1.082,1.8l-22.208,12.821c-.6.345-1.083.1-1.083-.548a2.321,2.321,0,0,1,1.083-1.8" fill="#e0e0e0"/>
        <path id="Trazado_36074" data-name="Trazado 36074" d="M119.935,332.185l1.8-3.182c.069-.122.069-.281,0-.323l-1.8-1.1c-.087-.053-.214.115-.214.285v4.281c0,.17.127.193.214.039" fill="#455a64"/>
        <path id="Trazado_36075" data-name="Trazado 36075" d="M169.547,178.52l72.99-42.141a2.392,2.392,0,0,0,1.082-1.875V115.9c0-.69-.484-.97-1.082-.625L169.547,157.4a2.392,2.392,0,0,0-1.083,1.875V177.9c0,.69.485.97,1.083.625" fill="#f0f0f0"/>
        <path id="Trazado_36076" data-name="Trazado 36076" d="M175.912,165.388a.207.207,0,0,1,.007-.044l.479-2-.662.382a.031.031,0,0,1-.042,0,.074.074,0,0,1-.017-.054v-.362a.186.186,0,0,1,.017-.075.115.115,0,0,1,.042-.052l1.061-.613a.033.033,0,0,1,.043,0,.079.079,0,0,1,.017.055v.318a.87.87,0,0,1-.036.194l-.48,2a.425.425,0,0,1-.025.071.094.094,0,0,1-.04.049l-.311.18c-.015.008-.028.008-.037,0a.062.062,0,0,1-.016-.049" fill="#455a64"/>
        <path id="Trazado_36077" data-name="Trazado 36077" d="M177.683,162.022a.539.539,0,0,1,.286-.09.284.284,0,0,1,.2.087.5.5,0,0,1,.118.227,1.467,1.467,0,0,1,.045.327c0,.1.005.2.005.306s0,.208-.005.3a2.251,2.251,0,0,1-.045.38,1.624,1.624,0,0,1-.118.363,1.377,1.377,0,0,1-.2.316,1.072,1.072,0,0,1-.286.241.554.554,0,0,1-.287.09.283.283,0,0,1-.2-.086.521.521,0,0,1-.117-.229,1.58,1.58,0,0,1-.046-.326c0-.093,0-.191,0-.3s0-.209,0-.31a2.493,2.493,0,0,1,.046-.38,1.711,1.711,0,0,1,.117-.363,1.446,1.446,0,0,1,.2-.317,1.058,1.058,0,0,1,.287-.24m.237,1.38c.006-.2.006-.388,0-.574a1.147,1.147,0,0,0-.017-.147.252.252,0,0,0-.039-.1.1.1,0,0,0-.071-.043.2.2,0,0,0-.11.034.37.37,0,0,0-.112.1.466.466,0,0,0-.071.125.874.874,0,0,0-.04.147,1.246,1.246,0,0,0-.015.167q-.011.288,0,.572a.889.889,0,0,0,.014.149.252.252,0,0,0,.04.1.106.106,0,0,0,.072.042.188.188,0,0,0,.112-.034.362.362,0,0,0,.11-.1.469.469,0,0,0,.072-.125.6.6,0,0,0,.04-.148,1.218,1.218,0,0,0,.015-.165" fill="#455a64"/>
        <path id="Trazado_36078" data-name="Trazado 36078" d="M179.217,161.638c0,.09,0,.175,0,.26a1.25,1.25,0,0,1-.025.2.869.869,0,0,1-.065.192.76.76,0,0,1-.107.166.6.6,0,0,1-.151.124.321.321,0,0,1-.151.05.146.146,0,0,1-.106-.043.269.269,0,0,1-.065-.117.766.766,0,0,1-.027-.174c0-.043,0-.085,0-.126s0-.084,0-.133a1.249,1.249,0,0,1,.027-.205.9.9,0,0,1,.065-.191.67.67,0,0,1,.106-.166.551.551,0,0,1,.151-.124.307.307,0,0,1,.151-.051.146.146,0,0,1,.1.044.261.261,0,0,1,.066.116.769.769,0,0,1,.026.174m.555-.722a.351.351,0,0,1,.032-.067.135.135,0,0,1,.047-.045l.183-.1a.041.041,0,0,1,.039-.005.053.053,0,0,1,.014.042l0,.019a.107.107,0,0,1-.006.024l-1.1,2.854a.453.453,0,0,1-.032.066.139.139,0,0,1-.048.045l-.182.1c-.017.009-.029.011-.039,0a.05.05,0,0,1-.015-.042l0-.017a.086.086,0,0,1,.007-.025Zm-.994,1.218a.291.291,0,0,0,.023.12c.013.024.035.024.068.006a.145.145,0,0,0,.067-.084.568.568,0,0,0,.024-.147,2.112,2.112,0,0,0,0-.225.309.309,0,0,0-.024-.12c-.013-.022-.034-.024-.067-.005a.148.148,0,0,0-.068.083.539.539,0,0,0-.023.147,1.687,1.687,0,0,0,0,.225m1.469.106c0,.088,0,.175,0,.259a1.16,1.16,0,0,1-.026.205.912.912,0,0,1-.064.191.741.741,0,0,1-.108.166.578.578,0,0,1-.15.124.316.316,0,0,1-.152.051.143.143,0,0,1-.106-.044.269.269,0,0,1-.064-.116.714.714,0,0,1-.027-.174c0-.044-.005-.086-.005-.125s0-.085.005-.135a1.149,1.149,0,0,1,.027-.205.953.953,0,0,1,.064-.191.664.664,0,0,1,.106-.165.581.581,0,0,1,.152-.126.306.306,0,0,1,.15-.048.142.142,0,0,1,.107.042.273.273,0,0,1,.064.117.714.714,0,0,1,.027.174m-.44.5a.309.309,0,0,0,.024.12c.012.022.035.024.068,0a.15.15,0,0,0,.067-.083.584.584,0,0,0,.024-.147,2.13,2.13,0,0,0,0-.226.3.3,0,0,0-.024-.119c-.013-.023-.035-.025-.067-.007a.156.156,0,0,0-.068.084.583.583,0,0,0-.024.147,2.122,2.122,0,0,0,0,.226" fill="#455a64"/>
        <path id="Trazado_36079" data-name="Trazado 36079" d="M175.9,159.655l-.733-1.13a14.732,14.732,0,0,0-1.732,4.668l1.185-.092a10.844,10.844,0,0,1,1.28-3.446" fill="#455a64"/>
        <path id="Trazado_36080" data-name="Trazado 36080" d="M177.968,157.421v-1.915a8.3,8.3,0,0,0-2.8,3.019l.733,1.129a6.156,6.156,0,0,1,2.067-2.233" fill="#455a64"/>
        <path id="Trazado_36081" data-name="Trazado 36081" d="M174.447,164.875a9.666,9.666,0,0,1,.173-1.774l-1.184.091a13.019,13.019,0,0,0-.233,2.4,9.138,9.138,0,0,0,.233,2.132l1.184-1.276a6.779,6.779,0,0,1-.173-1.575" fill="#455a64"/>
        <path id="Trazado_36082" data-name="Trazado 36082" d="M182.5,157.959a3.928,3.928,0,0,0-1.731-2.667,2.777,2.777,0,0,0-2.8.214v1.915a2.049,2.049,0,0,1,2.068-.153,2.9,2.9,0,0,1,1.28,1.967,6.779,6.779,0,0,1,.173,1.575,9.656,9.656,0,0,1-.173,1.774,10.883,10.883,0,0,1-1.28,3.447,6.15,6.15,0,0,1-2.068,2.233,2.047,2.047,0,0,1-2.068.154,2.9,2.9,0,0,1-1.28-1.967l-1.184,1.276a3.938,3.938,0,0,0,1.731,2.668,2.783,2.783,0,0,0,2.8-.215,8.323,8.323,0,0,0,2.8-3.019,14.707,14.707,0,0,0,1.731-4.668,13.019,13.019,0,0,0,.233-2.4,9.138,9.138,0,0,0-.233-2.132" fill="#27debf"/>
        <path id="Trazado_36083" data-name="Trazado 36083" d="M189.858,152.714l22.207-12.821c.6-.346,1.083-.1,1.083.548a2.321,2.321,0,0,1-1.083,1.8L189.858,155.06c-.6.344-1.083.1-1.083-.548a2.321,2.321,0,0,1,1.083-1.8" fill="#455a64"/>
        <path id="Trazado_36084" data-name="Trazado 36084" d="M189.858,157.442l38.456-22.2c.6-.345,1.082-.1,1.082.548a2.321,2.321,0,0,1-1.082,1.8l-38.456,22.2c-.6.345-1.083.1-1.083-.547a2.321,2.321,0,0,1,1.083-1.8" fill="#e0e0e0"/>
        <path id="Trazado_36085" data-name="Trazado 36085" d="M248.749,132.784l72.99-42.141a2.391,2.391,0,0,0,1.082-1.875V70.161c0-.69-.484-.97-1.082-.625l-72.99,42.133a2.392,2.392,0,0,0-1.082,1.875v18.615c0,.69.484.97,1.082.625" fill="#f0f0f0"/>
        <path id="Trazado_36086" data-name="Trazado 36086" d="M255.473,117.946a1.378,1.378,0,0,1,.055-.388,1.552,1.552,0,0,1,.146-.352,1.4,1.4,0,0,1,.209-.288,1.024,1.024,0,0,1,.241-.2.569.569,0,0,1,.242-.081.32.32,0,0,1,.208.046.4.4,0,0,1,.145.185.815.815,0,0,1,.055.325,1.182,1.182,0,0,1-.015.191,1.457,1.457,0,0,1-.038.179c-.014.058-.032.115-.051.171s-.038.109-.058.161l-.421,1.142a.467.467,0,0,0-.024.057.112.112,0,0,1-.045.051l-.354.2a.023.023,0,0,1-.031,0,.068.068,0,0,1-.013-.046.081.081,0,0,1,0-.029.058.058,0,0,1,.008-.021l.284-.78a.47.47,0,0,1-.208.03.323.323,0,0,1-.175-.074.447.447,0,0,1-.119-.182.872.872,0,0,1-.045-.3m.89-.514a.286.286,0,0,0-.02-.113.133.133,0,0,0-.052-.065.145.145,0,0,0-.077-.017.206.206,0,0,0-.09.029.363.363,0,0,0-.09.075.539.539,0,0,0-.076.106.55.55,0,0,0-.054.126.464.464,0,0,0-.021.136.273.273,0,0,0,.021.114.144.144,0,0,0,.054.064.114.114,0,0,0,.076.017.21.21,0,0,0,.09-.029.4.4,0,0,0,.09-.074.72.72,0,0,0,.077-.106.584.584,0,0,0,.052-.126.5.5,0,0,0,.02-.137" fill="#455a64"/>
        <path id="Trazado_36087" data-name="Trazado 36087" d="M257.609,115.863a.539.539,0,0,1,.286-.09.282.282,0,0,1,.2.088.494.494,0,0,1,.118.226,1.537,1.537,0,0,1,.045.328c0,.1,0,.2,0,.305s0,.208,0,.3a2.371,2.371,0,0,1-.045.38,1.624,1.624,0,0,1-.118.363,1.411,1.411,0,0,1-.2.316,1.072,1.072,0,0,1-.286.241.554.554,0,0,1-.287.09.287.287,0,0,1-.2-.086.533.533,0,0,1-.118-.229,1.584,1.584,0,0,1-.045-.327c0-.092-.005-.19-.005-.3s0-.21.005-.31a2.492,2.492,0,0,1,.045-.38,1.774,1.774,0,0,1,.118-.363,1.447,1.447,0,0,1,.2-.317,1.077,1.077,0,0,1,.287-.24m.236,1.38c.007-.2.007-.389,0-.574a1.019,1.019,0,0,0-.016-.148.253.253,0,0,0-.039-.1.1.1,0,0,0-.071-.043.19.19,0,0,0-.11.034.4.4,0,0,0-.112.094.5.5,0,0,0-.071.125.811.811,0,0,0-.04.149,1.221,1.221,0,0,0-.015.166c-.007.192-.007.383,0,.572a.879.879,0,0,0,.014.149.242.242,0,0,0,.04.1.1.1,0,0,0,.072.043.188.188,0,0,0,.112-.034.373.373,0,0,0,.11-.094.49.49,0,0,0,.072-.126.574.574,0,0,0,.04-.148,1.079,1.079,0,0,0,.014-.165" fill="#455a64"/>
        <path id="Trazado_36088" data-name="Trazado 36088" d="M259.144,115.478c0,.09,0,.175,0,.26a1.252,1.252,0,0,1-.025.2.894.894,0,0,1-.065.191.742.742,0,0,1-.107.167.6.6,0,0,1-.151.124.321.321,0,0,1-.151.05.146.146,0,0,1-.106-.043.264.264,0,0,1-.065-.117.767.767,0,0,1-.027-.174c0-.043,0-.085,0-.126s0-.084,0-.133a1.277,1.277,0,0,1,.027-.206.908.908,0,0,1,.065-.19.67.67,0,0,1,.106-.166.551.551,0,0,1,.151-.124.307.307,0,0,1,.151-.051.142.142,0,0,1,.105.044.261.261,0,0,1,.066.116.772.772,0,0,1,.026.174m.555-.722a.352.352,0,0,1,.032-.067.136.136,0,0,1,.047-.045l.183-.1a.036.036,0,0,1,.039,0,.05.05,0,0,1,.014.041l0,.019a.1.1,0,0,1-.006.024l-1.1,2.854a.535.535,0,0,1-.032.067.158.158,0,0,1-.048.044l-.182.105c-.017.009-.029.011-.039,0a.049.049,0,0,1-.015-.041l0-.019a.089.089,0,0,1,.007-.024Zm-.994,1.218a.287.287,0,0,0,.023.12c.013.024.035.025.068.006a.145.145,0,0,0,.067-.084.575.575,0,0,0,.024-.147,2.112,2.112,0,0,0,0-.225.309.309,0,0,0-.024-.12c-.013-.022-.034-.024-.067-.005a.145.145,0,0,0-.068.083.54.54,0,0,0-.023.147,1.7,1.7,0,0,0,0,.225m1.469.105q.006.133,0,.261a1.255,1.255,0,0,1-.026.2.914.914,0,0,1-.064.191.778.778,0,0,1-.108.166.578.578,0,0,1-.15.124.313.313,0,0,1-.152.05.139.139,0,0,1-.106-.043.264.264,0,0,1-.064-.116.724.724,0,0,1-.027-.174c0-.044-.005-.086-.005-.125s0-.085.005-.135a1.165,1.165,0,0,1,.027-.205.9.9,0,0,1,.064-.191.665.665,0,0,1,.106-.165.562.562,0,0,1,.152-.126.3.3,0,0,1,.15-.048.143.143,0,0,1,.107.042.279.279,0,0,1,.064.117.715.715,0,0,1,.027.173m-.44.5a.309.309,0,0,0,.024.12c.012.023.035.024.068,0a.154.154,0,0,0,.067-.083.539.539,0,0,0,.023-.147,1.7,1.7,0,0,0,0-.226.289.289,0,0,0-.023-.119c-.013-.023-.035-.025-.067-.007a.156.156,0,0,0-.068.084.583.583,0,0,0-.024.147,2.13,2.13,0,0,0,0,.226" fill="#455a64"/>
        <path id="Trazado_36089" data-name="Trazado 36089" d="M257.829,111.3v-1.916a8.318,8.318,0,0,0-2.8,3.02l.734,1.129a6.156,6.156,0,0,1,2.067-2.233" fill="#455a64"/>
        <path id="Trazado_36090" data-name="Trazado 36090" d="M262.362,111.837a3.931,3.931,0,0,0-1.731-2.667,2.775,2.775,0,0,0-2.8.214V111.3a2.047,2.047,0,0,1,2.067-.153,2.892,2.892,0,0,1,1.28,1.967,6.723,6.723,0,0,1,.174,1.575,9.572,9.572,0,0,1-.174,1.774A10.831,10.831,0,0,1,259.9,119.9a6.189,6.189,0,0,1-2.07,2.238,2.049,2.049,0,0,1-2.068.154,2.9,2.9,0,0,1-1.28-1.967,6.783,6.783,0,0,1-.174-1.575,9.678,9.678,0,0,1,.174-1.775,10.869,10.869,0,0,1,1.28-3.446l-.733-1.13a14.7,14.7,0,0,0-1.731,4.667,13.029,13.029,0,0,0-.234,2.4,9.138,9.138,0,0,0,.234,2.133,3.93,3.93,0,0,0,1.731,2.667,2.78,2.78,0,0,0,2.8-.214,8.323,8.323,0,0,0,2.8-3.019l0,0,0,0a14.731,14.731,0,0,0,1.731-4.668,13.107,13.107,0,0,0,.233-2.4,9.193,9.193,0,0,0-.233-2.132" fill="#27debf"/>
        <path id="Trazado_36091" data-name="Trazado 36091" d="M269.7,106.592l22.207-12.82c.6-.346,1.082-.1,1.082.548a2.32,2.32,0,0,1-1.082,1.8L269.7,108.938c-.6.345-1.082.1-1.082-.547a2.322,2.322,0,0,1,1.083-1.8" fill="#455a64"/>
        <path id="Trazado_36092" data-name="Trazado 36092" d="M269.7,111.32l38.455-22.2c.6-.345,1.082-.1,1.082.548a2.318,2.318,0,0,1-1.082,1.8l-38.456,22.2c-.6.345-1.082.1-1.082-.548a2.318,2.318,0,0,1,1.083-1.8" fill="#e0e0e0"/>
        <path id="Trazado_36093" data-name="Trazado 36093" d="M176.983,183.623l15.577-9.02c.6-.345,1.082-.1,1.082.547a2.323,2.323,0,0,1-1.082,1.8l-15.577,9.02c-.6.345-1.083.1-1.083-.548a2.321,2.321,0,0,1,1.083-1.8" fill="#455a64"/>
        <path id="Trazado_36094" data-name="Trazado 36094" d="M322.282,105.561h0m-.459.265V224.792a1.423,1.423,0,0,1-.582,1.009L169.466,313.424V194.458a1.421,1.421,0,0,1,.583-1.009l1.9-1.1a3.4,3.4,0,0,0,1.582-2.741v-6.881a1.421,1.421,0,0,1,.583-1.009L195.9,169.147v6.4a1.634,1.634,0,0,0,1.6,1.773,1.96,1.96,0,0,0,.984-.282l123.341-71.207M196.358,168.881h0m125.865-64.314a.98.98,0,0,0-.483.148L197.982,176.167a.986.986,0,0,1-.484.148c-.355,0-.6-.284-.6-.773v-6.881c0-.49-.243-.773-.6-.773a.986.986,0,0,0-.483.148L173.61,180.857a2.393,2.393,0,0,0-1.083,1.875v6.881a2.4,2.4,0,0,1-1.082,1.875l-1.9,1.095a2.393,2.393,0,0,0-1.083,1.875V313.91c0,.49.244.773.6.773a.986.986,0,0,0,.483-.148l152.193-87.868a2.4,2.4,0,0,0,1.082-1.875V105.34c0-.49-.245-.773-.6-.773" fill="#e0e0e0"/>
        <path id="Trazado_36095" data-name="Trazado 36095" d="M178.252,199.652a1.05,1.05,0,0,1-.531-.139,1.252,1.252,0,0,1-.567-1.134v-4.536a2.906,2.906,0,0,1,1.333-2.307l12.069-6.96a1.151,1.151,0,0,1,1.833,1.059v4.536a2.9,2.9,0,0,1-1.333,2.307l-12.069,6.96a1.487,1.487,0,0,1-.735.214m.735-7.25a1.9,1.9,0,0,0-.833,1.441v4.536c0,.171.047.256.068.268a.378.378,0,0,0,.265-.076l12.069-6.959a1.9,1.9,0,0,0,.833-1.441v-4.536c0-.171-.046-.255-.067-.268s-.117-.009-.266.076Z" fill="#e0e0e0"/>
        <path id="Trazado_36096" data-name="Trazado 36096" d="M179.7,194.269l7.866-4.564c.4-.23.72-.067.72.364a1.545,1.545,0,0,1-.72,1.2l-7.866,4.564c-.4.23-.722.067-.722-.365a1.547,1.547,0,0,1,.722-1.2" fill="#e0e0e0"/>
        <path id="Trazado_36097" data-name="Trazado 36097" d="M189.4,188.957l.652.926c.025.035.074.007.1-.057l.652-1.679c.032-.081,0-.155-.048-.126l-1.305.753a.16.16,0,0,0-.049.183" fill="#455a64"/>
        <path id="Trazado_36098" data-name="Trazado 36098" d="M176.59,243.6c.576-.333,1.044-.063,1.044.6a2.309,2.309,0,0,1-1.044,1.808c-.577.333-1.044.063-1.044-.6a2.307,2.307,0,0,1,1.044-1.808" fill="#27debf"/>
        <path id="Trazado_36099" data-name="Trazado 36099" d="M184.714,234.217c.576-.333,1.043-.063,1.043.6a2.308,2.308,0,0,1-1.043,1.808c-.577.333-1.044.063-1.044-.6a2.306,2.306,0,0,1,1.044-1.808" fill="#27debf"/>
        <path id="Trazado_36100" data-name="Trazado 36100" d="M192.837,229.526c.577-.333,1.044-.063,1.044.6a2.306,2.306,0,0,1-1.044,1.808c-.576.333-1.043.063-1.043-.6a2.309,2.309,0,0,1,1.043-1.808" fill="#27debf"/>
        <path id="Trazado_36101" data-name="Trazado 36101" d="M200.962,226.9c.577-.333,1.044-.063,1.044.6a2.306,2.306,0,0,1-1.044,1.808c-.577.333-1.044.063-1.044-.6a2.306,2.306,0,0,1,1.044-1.808" fill="#27debf"/>
        <path id="Trazado_36102" data-name="Trazado 36102" d="M209.1,218.449c.577-.333,1.044-.063,1.044.6a2.306,2.306,0,0,1-1.044,1.808c-.577.333-1.044.063-1.044-.6a2.307,2.307,0,0,1,1.044-1.808" fill="#27debf"/>
        <path id="Trazado_36103" data-name="Trazado 36103" d="M217.21,215.455c.577-.333,1.044-.063,1.044.6a2.307,2.307,0,0,1-1.044,1.808c-.577.332-1.044.063-1.044-.6a2.306,2.306,0,0,1,1.044-1.808" fill="#27debf"/>
        <path id="Trazado_36104" data-name="Trazado 36104" d="M225.333,206.073c.576-.333,1.044-.063,1.044.6a2.306,2.306,0,0,1-1.044,1.808c-.577.333-1.044.063-1.044-.6a2.307,2.307,0,0,1,1.044-1.808" fill="#27debf"/>
        <path id="Trazado_36105" data-name="Trazado 36105" d="M233.458,203.729c.576-.333,1.043-.063,1.043.6a2.307,2.307,0,0,1-1.043,1.808c-.577.333-1.044.063-1.044-.6a2.306,2.306,0,0,1,1.044-1.808" fill="#27debf"/>
        <path id="Trazado_36106" data-name="Trazado 36106" d="M241.582,177.931c.576-.333,1.043-.063,1.043.6a2.309,2.309,0,0,1-1.043,1.808c-.577.332-1.044.063-1.044-.6a2.306,2.306,0,0,1,1.044-1.808" fill="#27debf"/>
        <path id="Trazado_36107" data-name="Trazado 36107" d="M249.706,192c.576-.333,1.044-.063,1.044.6a2.31,2.31,0,0,1-1.044,1.808c-.577.332-1.044.063-1.044-.6A2.306,2.306,0,0,1,249.706,192" fill="#27debf"/>
        <path id="Trazado_36108" data-name="Trazado 36108" d="M257.83,192c.576-.333,1.044-.063,1.044.6a2.31,2.31,0,0,1-1.044,1.808c-.577.332-1.044.063-1.044-.6A2.306,2.306,0,0,1,257.83,192" fill="#27debf"/>
        <path id="Trazado_36109" data-name="Trazado 36109" d="M265.954,192c.576-.333,1.044-.063,1.044.6a2.309,2.309,0,0,1-1.044,1.808c-.577.333-1.044.063-1.044-.6A2.307,2.307,0,0,1,265.954,192" fill="#27debf"/>
        <path id="Trazado_36110" data-name="Trazado 36110" d="M274.078,177.931c.577-.333,1.043-.063,1.043.6a2.3,2.3,0,0,1-1.043,1.808c-.577.333-1.044.063-1.044-.6a2.307,2.307,0,0,1,1.044-1.808" fill="#27debf"/>
        <path id="Trazado_36111" data-name="Trazado 36111" d="M282.2,175.236c.576-.333,1.043-.063,1.043.6a2.308,2.308,0,0,1-1.043,1.808c-.578.333-1.044.063-1.044-.6a2.3,2.3,0,0,1,1.044-1.808" fill="#27debf"/>
        <path id="Trazado_36112" data-name="Trazado 36112" d="M290.355,163.86c.576-.333,1.044-.063,1.044.6a2.31,2.31,0,0,1-1.044,1.808c-.577.332-1.044.063-1.044-.6a2.306,2.306,0,0,1,1.044-1.808" fill="#27debf"/>
        <path id="Trazado_36113" data-name="Trazado 36113" d="M298.451,163.86c.576-.333,1.044-.063,1.044.6a2.31,2.31,0,0,1-1.044,1.808c-.576.332-1.044.063-1.044-.6a2.309,2.309,0,0,1,1.044-1.808" fill="#27debf"/>
        <path id="Trazado_36114" data-name="Trazado 36114" d="M306.575,163.86c.576-.333,1.044-.063,1.044.6a2.31,2.31,0,0,1-1.044,1.808c-.576.332-1.044.063-1.044-.6a2.308,2.308,0,0,1,1.044-1.808" fill="#27debf"/>
        <path id="Trazado_36115" data-name="Trazado 36115" d="M314.7,159.17c.576-.333,1.044-.063,1.044.6a2.309,2.309,0,0,1-1.044,1.808c-.576.333-1.044.063-1.044-.6a2.31,2.31,0,0,1,1.044-1.808" fill="#27debf"/>
        <path id="Trazado_36116" data-name="Trazado 36116" d="M176.568,245.065a.25.25,0,0,1-.188-.414l8.2-9.427a.25.25,0,0,1,.063-.053l8.066-4.655,8.112-2.633,8.08-8.4a.254.254,0,0,1,.094-.061l8.064-2.972,8.083-9.333a.252.252,0,0,1,.12-.077l7.995-2.307,8.084-25.669a.247.247,0,0,1,.211-.173.256.256,0,0,1,.244.123l8.051,13.946,8-.011,7.96.011,8.051-13.946A.264.264,0,0,1,274,178.9l8.047-2.669,8.077-11.31a.25.25,0,0,1,.2-.1h16.181l8.067-4.657a.25.25,0,1,1,.25.432l-8.125,4.691a.25.25,0,0,1-.125.034H290.455l-8.05,11.27a.243.243,0,0,1-.124.092l-8.034,2.666-8.076,13.989a.252.252,0,0,1-.217.125l-8.1-.011-8.145.011a.252.252,0,0,1-.217-.125l-7.838-13.579L233.7,205.009a.248.248,0,0,1-.169.165l-8.052,2.324-8.077,9.326a.24.24,0,0,1-.1.071l-8.071,2.974-8.084,8.4a.255.255,0,0,1-.1.065l-8.124,2.631-7.982,4.614-8.176,9.4a.248.248,0,0,1-.188.086" fill="#27debf"/>
        <path id="Trazado_36117" data-name="Trazado 36117" d="M176.59,249.993a.5.5,0,0,1-.25-.933l138.109-79.737a.5.5,0,0,1,.5.866L176.84,249.926a.494.494,0,0,1-.25.067" fill="#e0e0e0"/>
        <path id="Trazado_36118" data-name="Trazado 36118" d="M176.59,238.907c.576-.333,1.044-.063,1.044.6a2.31,2.31,0,0,1-1.044,1.808c-.577.332-1.044.063-1.044-.6a2.306,2.306,0,0,1,1.044-1.808" fill="#27debf"/>
        <path id="Trazado_36119" data-name="Trazado 36119" d="M184.713,224.836c.577-.333,1.044-.063,1.044.6a2.307,2.307,0,0,1-1.044,1.808c-.577.332-1.044.063-1.044-.6a2.306,2.306,0,0,1,1.044-1.808" fill="#27debf"/>
        <path id="Trazado_36120" data-name="Trazado 36120" d="M192.838,223.079c.576-.333,1.043-.063,1.043.6a2.307,2.307,0,0,1-1.043,1.808c-.577.333-1.044.063-1.044-.6a2.307,2.307,0,0,1,1.044-1.808" fill="#27debf"/>
        <path id="Trazado_36121" data-name="Trazado 36121" d="M200.961,206.073c.577-.333,1.044-.063,1.044.6a2.306,2.306,0,0,1-1.044,1.808c-.576.333-1.044.063-1.044-.6a2.307,2.307,0,0,1,1.044-1.808" fill="#27debf"/>
        <path id="Trazado_36122" data-name="Trazado 36122" d="M209.1,210.764c.577-.333,1.044-.063,1.044.6a2.306,2.306,0,0,1-1.044,1.808c-.577.333-1.044.063-1.044-.6a2.307,2.307,0,0,1,1.044-1.808" fill="#27debf"/>
        <path id="Trazado_36123" data-name="Trazado 36123" d="M217.211,208.419c.577-.333,1.044-.063,1.044.6a2.306,2.306,0,0,1-1.044,1.808c-.576.333-1.044.063-1.044-.6a2.307,2.307,0,0,1,1.044-1.808" fill="#27debf"/>
        <path id="Trazado_36124" data-name="Trazado 36124" d="M225.333,201.384c.576-.333,1.044-.063,1.044.6a2.306,2.306,0,0,1-1.044,1.808c-.577.333-1.044.063-1.044-.6a2.306,2.306,0,0,1,1.044-1.808" fill="#27debf"/>
        <path id="Trazado_36125" data-name="Trazado 36125" d="M233.457,192c.576-.333,1.044-.063,1.044.6a2.307,2.307,0,0,1-1.044,1.808c-.576.332-1.043.063-1.043-.6A2.307,2.307,0,0,1,233.457,192" fill="#27debf"/>
        <path id="Trazado_36126" data-name="Trazado 36126" d="M241.582,189.658c.576-.333,1.043-.063,1.043.6a2.307,2.307,0,0,1-1.043,1.808c-.577.333-1.044.063-1.044-.6a2.306,2.306,0,0,1,1.044-1.808" fill="#27debf"/>
        <path id="Trazado_36127" data-name="Trazado 36127" d="M249.705,182.622c.577-.333,1.044-.063,1.044.6a2.307,2.307,0,0,1-1.044,1.808c-.576.332-1.044.063-1.044-.6a2.309,2.309,0,0,1,1.044-1.808" fill="#27debf"/>
        <path id="Trazado_36128" data-name="Trazado 36128" d="M257.829,182.622c.577-.333,1.044-.063,1.044.6a2.306,2.306,0,0,1-1.044,1.808c-.576.333-1.044.063-1.044-.6a2.31,2.31,0,0,1,1.044-1.808" fill="#27debf"/>
        <path id="Trazado_36129" data-name="Trazado 36129" d="M265.954,163.86c.576-.333,1.044-.063,1.044.6a2.309,2.309,0,0,1-1.044,1.808c-.577.333-1.044.063-1.044-.6a2.306,2.306,0,0,1,1.044-1.808" fill="#27debf"/>
        <path id="Trazado_36130" data-name="Trazado 36130" d="M274.078,173.174c.576-.333,1.044-.063,1.044.6a2.309,2.309,0,0,1-1.044,1.808c-.577.333-1.044.063-1.044-.6a2.307,2.307,0,0,1,1.044-1.808" fill="#27debf"/>
        <path id="Trazado_36131" data-name="Trazado 36131" d="M282.2,163.86c.576-.333,1.043-.063,1.043.6a2.307,2.307,0,0,1-1.043,1.808c-.578.333-1.044.063-1.044-.6a2.3,2.3,0,0,1,1.044-1.808" fill="#27debf"/>
        <path id="Trazado_36132" data-name="Trazado 36132" d="M290.326,159.17c.577-.333,1.044-.063,1.044.6a2.306,2.306,0,0,1-1.044,1.808c-.576.333-1.043.063-1.043-.6a2.309,2.309,0,0,1,1.043-1.808" fill="#27debf"/>
        <path id="Trazado_36133" data-name="Trazado 36133" d="M298.45,159.17c.577-.333,1.044-.063,1.044.6a2.306,2.306,0,0,1-1.043,1.807c-.577.333-1.044.064-1.044-.6a2.307,2.307,0,0,1,1.043-1.808" fill="#27debf"/>
        <path id="Trazado_36134" data-name="Trazado 36134" d="M306.575,154.479c.576-.333,1.044-.063,1.044.6a2.31,2.31,0,0,1-1.044,1.808c-.576.332-1.044.063-1.044-.6a2.308,2.308,0,0,1,1.044-1.808" fill="#27debf"/>
        <path id="Trazado_36135" data-name="Trazado 36135" d="M314.7,154.479c.576-.333,1.044-.063,1.044.6a2.31,2.31,0,0,1-1.044,1.808c-.576.332-1.044.063-1.044-.6a2.308,2.308,0,0,1,1.044-1.808" fill="#27debf"/>
        <path id="Trazado_36136" data-name="Trazado 36136" d="M176.59,240.363a.245.245,0,0,1-.125-.034.249.249,0,0,1-.091-.341l8.182-14.105a.248.248,0,0,1,.164-.12l7.945-1.7,8.071-16.9a.246.246,0,0,1,.151-.131.251.251,0,0,1,.2.022l8.042,4.643,7.96-2.306,8.071-6.994,8.11-9.361a.244.244,0,0,1,.119-.077l8.073-2.33,8.082-7a.252.252,0,0,1,.164-.061h7.96l8.058-18.61a.251.251,0,0,1,.419-.065l7.935,9.163,7.934-9.163a.257.257,0,0,1,.065-.053l8.152-4.707a.249.249,0,0,1,.125-.033h8.057l8.038-4.641a.259.259,0,0,1,.125-.033H314.7a.25.25,0,0,1,0,.5h-8.058l-8.038,4.64a.25.25,0,0,1-.125.034h-8.056l-8.059,4.652-8.1,9.349a.261.261,0,0,1-.379,0l-7.863-9.08-7.966,18.4a.25.25,0,0,1-.229.151H249.8l-8.052,6.975a.25.25,0,0,1-.1.051l-8.054,2.325-8.086,9.331-8.138,7.055a.25.25,0,0,1-.095.051l-8.115,2.351a.262.262,0,0,1-.194-.024l-7.9-4.561-8.006,16.762a.252.252,0,0,1-.174.137l-7.958,1.7-8.126,14.009a.249.249,0,0,1-.216.125" fill="#27debf"/>
        <g id="Grupo_17492" data-name="Grupo 17492" opacity="0.3">
          <g id="Grupo_17491" data-name="Grupo 17491">
            <g id="Grupo_17490" data-name="Grupo 17490" clip-path="url(#clip-path-13)">
              <path id="Trazado_36137" data-name="Trazado 36137" d="M176.59,238.907c.576-.333,1.044-.063,1.044.6a2.31,2.31,0,0,1-1.044,1.808c-.577.332-1.044.063-1.044-.6a2.306,2.306,0,0,1,1.044-1.808"/>
              <path id="Trazado_36138" data-name="Trazado 36138" d="M184.713,224.836c.577-.333,1.044-.063,1.044.6a2.307,2.307,0,0,1-1.044,1.808c-.577.332-1.044.063-1.044-.6a2.306,2.306,0,0,1,1.044-1.808"/>
              <path id="Trazado_36139" data-name="Trazado 36139" d="M192.838,223.079c.576-.333,1.043-.063,1.043.6a2.307,2.307,0,0,1-1.043,1.808c-.577.333-1.044.063-1.044-.6a2.307,2.307,0,0,1,1.044-1.808"/>
              <path id="Trazado_36140" data-name="Trazado 36140" d="M200.961,206.073c.577-.333,1.044-.063,1.044.6a2.306,2.306,0,0,1-1.044,1.808c-.576.333-1.044.063-1.044-.6a2.307,2.307,0,0,1,1.044-1.808"/>
              <path id="Trazado_36141" data-name="Trazado 36141" d="M209.1,210.764c.577-.333,1.044-.063,1.044.6a2.306,2.306,0,0,1-1.044,1.808c-.577.333-1.044.063-1.044-.6a2.307,2.307,0,0,1,1.044-1.808"/>
              <path id="Trazado_36142" data-name="Trazado 36142" d="M217.211,208.419c.577-.333,1.044-.063,1.044.6a2.306,2.306,0,0,1-1.044,1.808c-.576.333-1.044.063-1.044-.6a2.307,2.307,0,0,1,1.044-1.808"/>
              <path id="Trazado_36143" data-name="Trazado 36143" d="M225.333,201.384c.576-.333,1.044-.063,1.044.6a2.306,2.306,0,0,1-1.044,1.808c-.577.333-1.044.063-1.044-.6a2.306,2.306,0,0,1,1.044-1.808"/>
              <path id="Trazado_36144" data-name="Trazado 36144" d="M233.457,192c.576-.333,1.044-.063,1.044.6a2.307,2.307,0,0,1-1.044,1.808c-.576.332-1.043.063-1.043-.6A2.307,2.307,0,0,1,233.457,192"/>
              <path id="Trazado_36145" data-name="Trazado 36145" d="M241.582,189.658c.576-.333,1.043-.063,1.043.6a2.307,2.307,0,0,1-1.043,1.808c-.577.333-1.044.063-1.044-.6a2.306,2.306,0,0,1,1.044-1.808"/>
              <path id="Trazado_36146" data-name="Trazado 36146" d="M249.705,182.622c.577-.333,1.044-.063,1.044.6a2.307,2.307,0,0,1-1.044,1.808c-.576.332-1.044.063-1.044-.6a2.309,2.309,0,0,1,1.044-1.808"/>
              <path id="Trazado_36147" data-name="Trazado 36147" d="M257.829,182.622c.577-.333,1.044-.063,1.044.6a2.306,2.306,0,0,1-1.044,1.808c-.576.333-1.044.063-1.044-.6a2.31,2.31,0,0,1,1.044-1.808"/>
              <path id="Trazado_36148" data-name="Trazado 36148" d="M265.954,163.86c.576-.333,1.044-.063,1.044.6a2.309,2.309,0,0,1-1.044,1.808c-.577.333-1.044.063-1.044-.6a2.306,2.306,0,0,1,1.044-1.808"/>
              <path id="Trazado_36149" data-name="Trazado 36149" d="M274.078,173.174c.576-.333,1.044-.063,1.044.6a2.309,2.309,0,0,1-1.044,1.808c-.577.333-1.044.063-1.044-.6a2.307,2.307,0,0,1,1.044-1.808"/>
              <path id="Trazado_36150" data-name="Trazado 36150" d="M282.2,163.86c.576-.333,1.043-.063,1.043.6a2.307,2.307,0,0,1-1.043,1.808c-.578.333-1.044.063-1.044-.6a2.3,2.3,0,0,1,1.044-1.808"/>
              <path id="Trazado_36151" data-name="Trazado 36151" d="M290.326,159.17c.577-.333,1.044-.063,1.044.6a2.306,2.306,0,0,1-1.044,1.808c-.576.333-1.043.063-1.043-.6a2.309,2.309,0,0,1,1.043-1.808"/>
              <path id="Trazado_36152" data-name="Trazado 36152" d="M298.45,159.17c.577-.333,1.044-.063,1.044.6a2.306,2.306,0,0,1-1.043,1.807c-.577.333-1.044.064-1.044-.6a2.307,2.307,0,0,1,1.043-1.808"/>
              <path id="Trazado_36153" data-name="Trazado 36153" d="M306.575,154.479c.576-.333,1.044-.063,1.044.6a2.31,2.31,0,0,1-1.044,1.808c-.576.332-1.044.063-1.044-.6a2.308,2.308,0,0,1,1.044-1.808"/>
              <path id="Trazado_36154" data-name="Trazado 36154" d="M314.7,154.479c.576-.333,1.044-.063,1.044.6a2.31,2.31,0,0,1-1.044,1.808c-.576.332-1.044.063-1.044-.6a2.308,2.308,0,0,1,1.044-1.808"/>
              <path id="Trazado_36155" data-name="Trazado 36155" d="M176.59,240.363a.245.245,0,0,1-.125-.034.249.249,0,0,1-.091-.341l8.182-14.105a.248.248,0,0,1,.164-.12l7.945-1.7,8.071-16.9a.246.246,0,0,1,.151-.131.251.251,0,0,1,.2.022l8.042,4.643,7.96-2.306,8.071-6.994,8.11-9.361a.244.244,0,0,1,.119-.077l8.073-2.33,8.082-7a.252.252,0,0,1,.164-.061h7.96l8.058-18.61a.251.251,0,0,1,.419-.065l7.935,9.163,7.934-9.163a.257.257,0,0,1,.065-.053l8.152-4.707a.249.249,0,0,1,.125-.033h8.057l8.038-4.641a.259.259,0,0,1,.125-.033H314.7a.25.25,0,0,1,0,.5h-8.058l-8.038,4.64a.25.25,0,0,1-.125.034h-8.056l-8.059,4.652-8.1,9.349a.261.261,0,0,1-.379,0l-7.863-9.08-7.966,18.4a.25.25,0,0,1-.229.151H249.8l-8.052,6.975a.25.25,0,0,1-.1.051l-8.054,2.325-8.086,9.331-8.138,7.055a.25.25,0,0,1-.095.051l-8.115,2.351a.262.262,0,0,1-.194-.024l-7.9-4.561-8.006,16.762a.252.252,0,0,1-.174.137l-7.958,1.7-8.126,14.009a.249.249,0,0,1-.216.125"/>
            </g>
          </g>
        </g>
        <path id="Trazado_36156" data-name="Trazado 36156" d="M180.845,204.1l7.866-4.564c.4-.23.721-.067.721.364a1.549,1.549,0,0,1-.721,1.2l-7.866,4.564c-.4.23-.722.067-.722-.365a1.55,1.55,0,0,1,.722-1.2" fill="#e0e0e0"/>
        <path id="Trazado_36157" data-name="Trazado 36157" d="M176.589,206.074c.577-.333,1.044-.063,1.044.6a2.306,2.306,0,0,1-1.044,1.808c-.576.333-1.043.063-1.043-.6a2.309,2.309,0,0,1,1.043-1.808" fill="#27debf"/>
        <g id="Grupo_17495" data-name="Grupo 17495" opacity="0.3">
          <g id="Grupo_17494" data-name="Grupo 17494">
            <g id="Grupo_17493" data-name="Grupo 17493" clip-path="url(#clip-path-14)">
              <path id="Trazado_36158" data-name="Trazado 36158" d="M176.589,206.074c.577-.333,1.044-.063,1.044.6a2.306,2.306,0,0,1-1.044,1.808c-.576.333-1.043.063-1.043-.6a2.309,2.309,0,0,1,1.043-1.808"/>
            </g>
          </g>
        </g>
        <path id="Trazado_36159" data-name="Trazado 36159" d="M180.845,208.781l7.866-4.565c.4-.23.721-.066.721.365a1.549,1.549,0,0,1-.721,1.2l-7.866,4.565c-.4.23-.722.066-.722-.365a1.548,1.548,0,0,1,.722-1.2" fill="#e0e0e0"/>
        <path id="Trazado_36160" data-name="Trazado 36160" d="M176.589,210.764c.577-.333,1.044-.063,1.044.6a2.307,2.307,0,0,1-1.044,1.808c-.576.332-1.043.063-1.043-.6a2.307,2.307,0,0,1,1.043-1.808" fill="#27debf"/>
        <path id="Trazado_36161" data-name="Trazado 36161" d="M176.59,273.263a.25.25,0,0,1-.18-.423l4.123-4.24,4.047-.513,4.086-5.28,4.091.562,3.975-3.589,4.057-2.433,4.137-5.733,4.108,1.288,3.948-3.528a.251.251,0,0,1,.334.374l-4.161,3.717-4.034-1.265-4.031,5.55-4.063,2.43-4.108,3.716-4.034-.554-4.037,5.216-4.078.517-4,4.112a.251.251,0,0,1-.18.076" fill="#27debf"/>
        <path id="Trazado_36162" data-name="Trazado 36162" d="M178.2,259.545a1.182,1.182,0,0,1,.1-.09.686.686,0,0,1,.111-.077,1.162,1.162,0,0,1,.614-.186.741.741,0,0,1,.488.185,1.177,1.177,0,0,1,.32.514,2.456,2.456,0,0,1,.117.8,3.832,3.832,0,0,1-.117.935,4.337,4.337,0,0,1-.32.886,3.71,3.71,0,0,1-.488.75,2.391,2.391,0,0,1-.614.524,1.2,1.2,0,0,1-.617.185.748.748,0,0,1-.487-.185,1.182,1.182,0,0,1-.321-.515,2.465,2.465,0,0,1-.115-.8,3.347,3.347,0,0,1,.038-.515,4.45,4.45,0,0,1,.1-.489c.042-.159.088-.314.14-.465s.1-.3.154-.437l1.082-3.078c.02-.041.042-.092.066-.152a.268.268,0,0,1,.118-.137l.34-.2a.06.06,0,0,1,.086.009.2.2,0,0,1,.033.124.288.288,0,0,1-.01.077.355.355,0,0,1-.021.058Zm-.762,2.6a1.56,1.56,0,0,0,.068.483.8.8,0,0,0,.194.328.464.464,0,0,0,.305.13.76.76,0,0,0,.409-.121,1.531,1.531,0,0,0,.406-.349,2.3,2.3,0,0,0,.306-.484,2.858,2.858,0,0,0,.194-.551,2.428,2.428,0,0,0,.067-.561,1.564,1.564,0,0,0-.067-.482.791.791,0,0,0-.194-.328.449.449,0,0,0-.306-.129.738.738,0,0,0-.406.12,1.527,1.527,0,0,0-.409.349,2.316,2.316,0,0,0-.305.484,2.861,2.861,0,0,0-.194.551,2.441,2.441,0,0,0-.068.56" fill="#455a64"/>
        <path id="Trazado_36163" data-name="Trazado 36163" d="M180.96,260.678a1.239,1.239,0,0,0,.083.245.334.334,0,0,0,.16.167.476.476,0,0,0,.282.025,1.463,1.463,0,0,0,.455-.188,1.736,1.736,0,0,0,.351-.272,1.8,1.8,0,0,0,.292-.383,2.137,2.137,0,0,0,.2-.477,2,2,0,0,0,.075-.56,1.188,1.188,0,0,0-.071-.457.4.4,0,0,0-.194-.218.448.448,0,0,0-.288-.012,1.461,1.461,0,0,0-.363.154l-.493.285a.085.085,0,0,1-.113-.008.2.2,0,0,1-.048-.147V258.5a.484.484,0,0,1,.033-.171c.022-.058.042-.111.063-.159l1.069-2.394-1.711.988a.086.086,0,0,1-.113-.007.2.2,0,0,1-.048-.147v-.328a.467.467,0,0,1,.048-.2.287.287,0,0,1,.113-.139l2.342-1.352a.086.086,0,0,1,.113.007.2.2,0,0,1,.047.147v.329a.616.616,0,0,1-.029.177,1.614,1.614,0,0,1-.078.2l-1.052,2.356a1.269,1.269,0,0,1,.544-.172.618.618,0,0,1,.422.131.923.923,0,0,1,.273.428,2.215,2.215,0,0,1,.1.716,3.469,3.469,0,0,1-.119.908,3.7,3.7,0,0,1-.319.8,3.321,3.321,0,0,1-.468.661,2.475,2.475,0,0,1-.575.468,1.725,1.725,0,0,1-.686.254.712.712,0,0,1-.476-.1.753.753,0,0,1-.279-.36,1.571,1.571,0,0,1-.1-.533.384.384,0,0,1,.039-.166.243.243,0,0,1,.093-.112l.273-.159c.044-.025.079-.025.1,0a.183.183,0,0,1,.051.1" fill="#455a64"/>
        <path id="Trazado_36164" data-name="Trazado 36164" d="M184.5,258.635a1.329,1.329,0,0,0,.083.247.34.34,0,0,0,.161.167.462.462,0,0,0,.282.024,1.361,1.361,0,0,0,.455-.19,1.7,1.7,0,0,0,.351-.268,1.828,1.828,0,0,0,.291-.385,2.184,2.184,0,0,0,.2-.475,2.011,2.011,0,0,0,.074-.56,1.18,1.18,0,0,0-.071-.459.389.389,0,0,0-.193-.217.429.429,0,0,0-.288-.012,1.362,1.362,0,0,0-.363.154l-.494.285a.087.087,0,0,1-.112-.009.194.194,0,0,1-.048-.145v-.33a.479.479,0,0,1,.033-.17c.022-.06.042-.111.063-.16l1.069-2.392-1.712.988a.088.088,0,0,1-.113-.008.2.2,0,0,1-.047-.146v-.331a.476.476,0,0,1,.047-.2.3.3,0,0,1,.113-.139l2.342-1.352a.087.087,0,0,1,.113.008.2.2,0,0,1,.048.147v.329a.659.659,0,0,1-.029.177,1.784,1.784,0,0,1-.078.2l-1.052,2.356a1.241,1.241,0,0,1,.543-.173.612.612,0,0,1,.423.132.9.9,0,0,1,.273.427,2.221,2.221,0,0,1,.1.717,3.452,3.452,0,0,1-.119.9,3.713,3.713,0,0,1-.319.806,3.228,3.228,0,0,1-.469.661,2.4,2.4,0,0,1-.574.468,1.715,1.715,0,0,1-.686.254.72.72,0,0,1-.477-.1.761.761,0,0,1-.279-.36,1.552,1.552,0,0,1-.1-.533.381.381,0,0,1,.039-.166.26.26,0,0,1,.092-.112l.274-.158c.044-.025.079-.025.1,0a.186.186,0,0,1,.05.1" fill="#455a64"/>
        <path id="Trazado_36165" data-name="Trazado 36165" d="M177.325,276.492l35.1-20.342c.4-.23.722-.067.722.365a1.548,1.548,0,0,1-.722,1.2l-35.1,20.342c-.4.23-.722.066-.721-.365a1.547,1.547,0,0,1,.721-1.2" fill="#e0e0e0"/>
        <path id="Trazado_36166" data-name="Trazado 36166" d="M177.325,253.027l7.866-4.565c.4-.23.721-.066.721.365a1.544,1.544,0,0,1-.721,1.2l-7.866,4.565c-.4.23-.722.066-.721-.365a1.547,1.547,0,0,1,.721-1.2" fill="#e0e0e0"/>
        <path id="Trazado_36167" data-name="Trazado 36167" d="M176.59,301.382a.251.251,0,0,1-.18-.424l4.123-4.239,4.074-.516,4.1-3.586,3.954-1.078,4.123-8.208,4.135,2.024,3.987-3.514.068-.013,3.959-.751,4-6.911a.25.25,0,1,1,.433.25l-4.111,7.11-4.116.781L201,285.951,197.012,284l-4,7.966-4.114,1.121-4.077,3.595-4.051.515-4,4.112a.251.251,0,0,1-.18.076" fill="#27debf"/>
        <g id="Grupo_17498" data-name="Grupo 17498" opacity="0.3">
          <g id="Grupo_17497" data-name="Grupo 17497">
            <g id="Grupo_17496" data-name="Grupo 17496" clip-path="url(#clip-path-15)">
              <path id="Trazado_36168" data-name="Trazado 36168" d="M176.59,301.382a.251.251,0,0,1-.18-.424l4.123-4.239,4.074-.516,4.1-3.586,3.954-1.078,4.123-8.208,4.135,2.024,3.987-3.514.068-.013,3.959-.751,4-6.911a.25.25,0,1,1,.433.25l-4.111,7.11-4.116.781L201,285.951,197.012,284l-4,7.966-4.114,1.121-4.077,3.595-4.051.515-4,4.112a.251.251,0,0,1-.18.076"/>
            </g>
          </g>
        </g>
        <path id="Trazado_36169" data-name="Trazado 36169" d="M178.665,291.42a.476.476,0,0,1-.047.2.3.3,0,0,1-.113.139l-.244.14a.087.087,0,0,1-.114-.007.2.2,0,0,1-.046-.147V286.7l-.963,1.682a.231.231,0,0,1-.119.124.092.092,0,0,1-.108-.03l-.142-.2a.239.239,0,0,1-.033-.165.5.5,0,0,1,.063-.2l1.271-2.237a.444.444,0,0,1,.1-.119.988.988,0,0,1,.1-.064l.244-.14a.087.087,0,0,1,.113.007.2.2,0,0,1,.047.147Z" fill="#455a64"/>
        <path id="Trazado_36170" data-name="Trazado 36170" d="M181.263,286.8a3.817,3.817,0,0,0,.268-.658,2.617,2.617,0,0,0,.088-.718,1.092,1.092,0,0,0-.184-.706c-.122-.145-.317-.141-.582.013a1.308,1.308,0,0,0-.354.3,1.788,1.788,0,0,0-.244.393,2.59,2.59,0,0,0-.154.455c-.037.158-.068.319-.093.479a.58.58,0,0,1-.061.191.294.294,0,0,1-.092.108l-.275.158a.069.069,0,0,1-.091-.006.16.16,0,0,1-.038-.12,3.435,3.435,0,0,1,.1-.745,4.094,4.094,0,0,1,.274-.788,3.7,3.7,0,0,1,.436-.72,2.073,2.073,0,0,1,.592-.524,1.092,1.092,0,0,1,.576-.178.591.591,0,0,1,.416.182,1.067,1.067,0,0,1,.253.475,2.616,2.616,0,0,1,.087.711,4.918,4.918,0,0,1-.03.547,3.5,3.5,0,0,1-.1.51,4.82,4.82,0,0,1-.176.519c-.071.174-.158.362-.262.561l-1.325,2.67,1.819-1.05a.086.086,0,0,1,.113.008.2.2,0,0,1,.048.146v.329a.482.482,0,0,1-.048.2.3.3,0,0,1-.113.138l-2.562,1.479a.085.085,0,0,1-.112-.008.192.192,0,0,1-.049-.146v-.328a.6.6,0,0,1,.031-.192,1.743,1.743,0,0,1,.1-.234Z" fill="#455a64"/>
        <path id="Trazado_36171" data-name="Trazado 36171" d="M185.965,283.482c0,.271.006.529.006.77s0,.5-.006.777a6.2,6.2,0,0,1-.1,1.049,4.584,4.584,0,0,1-.275.959,3.283,3.283,0,0,1-.467.8,2.337,2.337,0,0,1-.675.582,1.159,1.159,0,0,1-.675.2.658.658,0,0,1-.466-.262,1.55,1.55,0,0,1-.276-.64,4.473,4.473,0,0,1-.1-.936q0-.409-.005-.771t.005-.776a6.279,6.279,0,0,1,.1-1.05,4.545,4.545,0,0,1,.276-.961,3.409,3.409,0,0,1,.466-.8,2.34,2.34,0,0,1,.675-.587,1.125,1.125,0,0,1,.675-.192.681.681,0,0,1,.467.266,1.563,1.563,0,0,1,.275.64,4.411,4.411,0,0,1,.1.938m-2.473,2.975a1.869,1.869,0,0,0,.253,1.134q.24.273.7,0a1.679,1.679,0,0,0,.7-.817,3.713,3.713,0,0,0,.253-1.426q.006-.417.006-.778c0-.242,0-.5-.006-.77a1.893,1.893,0,0,0-.253-1.14c-.16-.185-.394-.187-.7-.01a1.684,1.684,0,0,0-.7.824,3.746,3.746,0,0,0-.253,1.432q-.006.414-.006.776c0,.242,0,.5.006.771" fill="#455a64"/>
        <path id="Trazado_36172" data-name="Trazado 36172" d="M177.325,304.61l35.1-20.342c.4-.23.722-.066.722.365a1.548,1.548,0,0,1-.722,1.2l-35.1,20.342c-.4.23-.722.067-.721-.365a1.549,1.549,0,0,1,.721-1.2" fill="#e0e0e0"/>
        <path id="Trazado_36173" data-name="Trazado 36173" d="M177.325,281.145l7.866-4.564c.4-.23.721-.067.721.364a1.548,1.548,0,0,1-.721,1.2l-7.866,4.564c-.4.23-.722.067-.721-.365a1.549,1.549,0,0,1,.721-1.2" fill="#e0e0e0"/>
        <path id="Trazado_36174" data-name="Trazado 36174" d="M225.334,245.063a.25.25,0,0,1-.156-.445l4.062-3.241,4.092-4.674,4.152-.6,3.962-.9,4.1-4.844,4.037.714,4.048-6.411,4.115.065,3.979-3.557a.251.251,0,0,1,.334.374l-4.126,3.687-4.028-.066-4.077,6.459-4.086-.722-4.024,4.752-4.144.934-3.99.579-4,4.566-4.1,3.271a.248.248,0,0,1-.156.055" fill="#27debf"/>
        <path id="Trazado_36175" data-name="Trazado 36175" d="M226.941,231.345a1.175,1.175,0,0,1,.1-.09.683.683,0,0,1,.111-.077,1.171,1.171,0,0,1,.614-.186.741.741,0,0,1,.488.185,1.177,1.177,0,0,1,.32.514,2.456,2.456,0,0,1,.117.8,3.832,3.832,0,0,1-.117.935,4.367,4.367,0,0,1-.32.887,3.73,3.73,0,0,1-.488.749,2.391,2.391,0,0,1-.614.524,1.2,1.2,0,0,1-.617.185.748.748,0,0,1-.487-.185,1.176,1.176,0,0,1-.321-.515,2.465,2.465,0,0,1-.115-.8,3.347,3.347,0,0,1,.038-.515,4.455,4.455,0,0,1,.1-.489c.042-.159.088-.314.14-.465s.1-.3.154-.437l1.082-3.078q.03-.062.066-.153a.27.27,0,0,1,.118-.136l.34-.2a.06.06,0,0,1,.086.009.2.2,0,0,1,.033.124.288.288,0,0,1-.01.077.354.354,0,0,1-.021.058Zm-.762,2.6a1.56,1.56,0,0,0,.068.483.8.8,0,0,0,.194.328.464.464,0,0,0,.305.13.76.76,0,0,0,.409-.121,1.531,1.531,0,0,0,.406-.349,2.3,2.3,0,0,0,.306-.484,2.861,2.861,0,0,0,.194-.551,2.428,2.428,0,0,0,.067-.561,1.564,1.564,0,0,0-.067-.482.8.8,0,0,0-.194-.329.453.453,0,0,0-.306-.128.738.738,0,0,0-.406.12,1.526,1.526,0,0,0-.409.349,2.315,2.315,0,0,0-.305.484,2.851,2.851,0,0,0-.194.55,2.456,2.456,0,0,0-.068.561" fill="#455a64"/>
        <path id="Trazado_36176" data-name="Trazado 36176" d="M231.059,229.874a3.981,3.981,0,0,0,.268-.658,2.656,2.656,0,0,0,.088-.718,1.092,1.092,0,0,0-.184-.706c-.123-.144-.318-.14-.583.013a1.32,1.32,0,0,0-.354.3,1.863,1.863,0,0,0-.243.393,2.514,2.514,0,0,0-.155.455c-.037.158-.068.319-.092.479a.61.61,0,0,1-.061.192.3.3,0,0,1-.093.107l-.274.158a.07.07,0,0,1-.091-.006.158.158,0,0,1-.039-.12,3.5,3.5,0,0,1,.1-.745,4.163,4.163,0,0,1,.274-.788,3.707,3.707,0,0,1,.437-.72,2.042,2.042,0,0,1,.591-.524,1.089,1.089,0,0,1,.577-.178.6.6,0,0,1,.416.182,1.088,1.088,0,0,1,.254.475,2.665,2.665,0,0,1,.085.711,4.927,4.927,0,0,1-.029.547,3.645,3.645,0,0,1-.1.51,4.281,4.281,0,0,1-.176.518q-.106.263-.261.562l-1.325,2.67,1.818-1.05a.087.087,0,0,1,.114.008.2.2,0,0,1,.047.146v.329a.473.473,0,0,1-.047.2.293.293,0,0,1-.114.139l-2.562,1.478a.083.083,0,0,1-.112-.007.194.194,0,0,1-.048-.147v-.327a.6.6,0,0,1,.03-.192,1.82,1.82,0,0,1,.1-.233Z" fill="#455a64"/>
        <path id="Trazado_36177" data-name="Trazado 36177" d="M235.1,224.5a.088.088,0,0,1,.113.007.2.2,0,0,1,.047.147v.33a1.132,1.132,0,0,1-.017.183c-.012.069-.028.142-.047.221l-1.321,6.006a1.361,1.361,0,0,1-.061.187.268.268,0,0,1-.111.132l-.274.158a.074.074,0,0,1-.1-.006.176.176,0,0,1-.042-.131c0-.012,0-.027,0-.043a.6.6,0,0,1,.016-.078l1.325-6.019-1.949,1.127a.088.088,0,0,1-.114-.008.2.2,0,0,1-.048-.147v-.33a.466.466,0,0,1,.048-.2.309.309,0,0,1,.114-.139Z" fill="#455a64"/>
        <path id="Trazado_36178" data-name="Trazado 36178" d="M226.069,248.292l35.1-20.342c.4-.23.722-.067.722.365a1.545,1.545,0,0,1-.722,1.2l-35.1,20.342c-.4.23-.722.066-.722-.365a1.548,1.548,0,0,1,.722-1.2" fill="#e0e0e0"/>
        <path id="Trazado_36179" data-name="Trazado 36179" d="M226.069,224.827l7.866-4.565c.4-.23.721-.066.721.365a1.549,1.549,0,0,1-.721,1.2l-7.866,4.565c-.4.23-.722.066-.722-.365a1.548,1.548,0,0,1,.722-1.2" fill="#e0e0e0"/>
        <path id="Trazado_36180" data-name="Trazado 36180" d="M225.334,273.181a.244.244,0,0,1-.13-.037.25.25,0,0,1-.084-.343l4.152-6.81,4.176.773,3.929-1.074,4.065-4.959,4.038-1.018,4.105-7.315,4.2,1.218,3.944-.747,4-3.563a.25.25,0,0,1,.332.374l-4.1,3.653-.068.014-4.131.783-3.928-1.14-4.018,7.154-4.087,1.033-4.06,4.952-.077.021-4.117,1.125-.056-.01-3.892-.719-3.973,6.514a.251.251,0,0,1-.214.121" fill="#27debf"/>
        <g id="Grupo_17501" data-name="Grupo 17501" opacity="0.3">
          <g id="Grupo_17500" data-name="Grupo 17500">
            <g id="Grupo_17499" data-name="Grupo 17499" clip-path="url(#clip-path-16)">
              <path id="Trazado_36181" data-name="Trazado 36181" d="M225.334,273.181a.244.244,0,0,1-.13-.037.25.25,0,0,1-.084-.343l4.152-6.81,4.176.773,3.929-1.074,4.065-4.959,4.038-1.018,4.105-7.315,4.2,1.218,3.944-.747,4-3.563a.25.25,0,0,1,.332.374l-4.1,3.653-.068.014-4.131.783-3.928-1.14-4.018,7.154-4.087,1.033-4.06,4.952-.077.021-4.117,1.125-.056-.01-3.892-.719-3.973,6.514a.251.251,0,0,1-.214.121"/>
            </g>
          </g>
        </g>
        <path id="Trazado_36182" data-name="Trazado 36182" d="M227.212,261.384a.47.47,0,0,1-.083.061c-.036.024-.061.042-.077.05a1.206,1.206,0,0,1-.552.178.728.728,0,0,1-.476-.142,1.069,1.069,0,0,1-.336-.483,2.374,2.374,0,0,1-.128-.852,3.726,3.726,0,0,1,.119-.928A4.334,4.334,0,0,1,226,258.4a3.675,3.675,0,0,1,.476-.728,2.175,2.175,0,0,1,.573-.5,1.219,1.219,0,0,1,.621-.194.689.689,0,0,1,.47.183,1.128,1.128,0,0,1,.3.51,2.718,2.718,0,0,1,.1.8,2.683,2.683,0,0,1-.046.489q-.048.261-.119.522c-.048.173-.1.344-.155.509s-.107.32-.154.456l-1.082,3.078c-.021.042-.041.092-.066.152a.262.262,0,0,1-.119.137l-.339.2a.06.06,0,0,1-.086-.01.2.2,0,0,1-.032-.122.305.305,0,0,1,.008-.079.32.32,0,0,1,.022-.058Zm.768-2.585a1.591,1.591,0,0,0-.068-.491.713.713,0,0,0-.191-.315.434.434,0,0,0-.295-.11.775.775,0,0,0-.374.116,1.466,1.466,0,0,0-.377.319,2.072,2.072,0,0,0-.292.448,2.528,2.528,0,0,0-.189.533,2.433,2.433,0,0,0-.068.571,1.54,1.54,0,0,0,.068.495.7.7,0,0,0,.189.313.441.441,0,0,0,.292.111.733.733,0,0,0,.377-.118,1.41,1.41,0,0,0,.374-.317,2.045,2.045,0,0,0,.295-.45,2.583,2.583,0,0,0,.191-.53,2.458,2.458,0,0,0,.068-.575" fill="#455a64"/>
        <path id="Trazado_36183" data-name="Trazado 36183" d="M229.525,260.7a1.318,1.318,0,0,0,.083.246.342.342,0,0,0,.16.167.464.464,0,0,0,.283.024,1.393,1.393,0,0,0,.455-.189,1.718,1.718,0,0,0,.35-.27,1.794,1.794,0,0,0,.292-.383,2.176,2.176,0,0,0,.2-.477,1.964,1.964,0,0,0,.075-.56,1.193,1.193,0,0,0-.071-.458.4.4,0,0,0-.193-.218.445.445,0,0,0-.289-.011,1.37,1.37,0,0,0-.362.154l-.494.285A.085.085,0,0,1,229.9,259a.2.2,0,0,1-.049-.147v-.329a.512.512,0,0,1,.033-.171c.023-.058.042-.111.063-.159l1.07-2.393-1.712.988a.086.086,0,0,1-.113-.008.2.2,0,0,1-.048-.146v-.329a.485.485,0,0,1,.048-.2.3.3,0,0,1,.113-.138l2.342-1.352a.087.087,0,0,1,.113.007.2.2,0,0,1,.047.147v.33a.615.615,0,0,1-.029.176,1.627,1.627,0,0,1-.078.2l-1.052,2.356a1.246,1.246,0,0,1,.544-.172.611.611,0,0,1,.422.131.921.921,0,0,1,.274.428,2.252,2.252,0,0,1,.1.717,3.465,3.465,0,0,1-.119.906,3.711,3.711,0,0,1-.319.807,3.336,3.336,0,0,1-.468.659,2.42,2.42,0,0,1-.574.468,1.713,1.713,0,0,1-.687.254.712.712,0,0,1-.476-.1.757.757,0,0,1-.279-.359,1.562,1.562,0,0,1-.1-.534.4.4,0,0,1,.038-.166.249.249,0,0,1,.093-.112l.274-.158c.044-.025.078-.025.1,0a.186.186,0,0,1,.051.1" fill="#455a64"/>
        <path id="Trazado_36184" data-name="Trazado 36184" d="M226.069,276.409l35.1-20.342c.4-.23.722-.066.722.365a1.545,1.545,0,0,1-.722,1.2l-35.1,20.342c-.4.23-.722.066-.722-.365a1.548,1.548,0,0,1,.722-1.2" fill="#e0e0e0"/>
        <path id="Trazado_36185" data-name="Trazado 36185" d="M226.069,252.945l7.866-4.564c.4-.231.721-.067.721.364a1.547,1.547,0,0,1-.721,1.2l-7.866,4.565c-.4.23-.722.066-.722-.365a1.55,1.55,0,0,1,.722-1.2" fill="#e0e0e0"/>
        <path id="Trazado_36186" data-name="Trazado 36186" d="M278.14,199.417a4.587,4.587,0,0,1,4.631-.345l-4.631,12.485Z" fill="#27debf"/>
        <path id="Trazado_36187" data-name="Trazado 36187" d="M273.51,204.418a13.775,13.775,0,0,1,4.63-5v12.139Z" fill="#27debf"/>
        <path id="Trazado_36188" data-name="Trazado 36188" d="M270.644,212.135a24.32,24.32,0,0,1,2.866-7.716l4.63,7.138Z" fill="#27debf"/>
        <g id="Grupo_17504" data-name="Grupo 17504" opacity="0.3">
          <g id="Grupo_17503" data-name="Grupo 17503">
            <g id="Grupo_17502" data-name="Grupo 17502" clip-path="url(#clip-path-17)">
              <path id="Trazado_36189" data-name="Trazado 36189" d="M273.51,204.418a24.3,24.3,0,0,0-2.866,7.716l7.5-.578V199.417a13.775,13.775,0,0,0-4.63,5"/>
            </g>
          </g>
        </g>
        <path id="Trazado_36190" data-name="Trazado 36190" d="M282.771,199.072a6.493,6.493,0,0,1,2.866,4.406l-7.5,8.079Z" fill="#27debf"/>
        <path id="Trazado_36191" data-name="Trazado 36191" d="M270.644,219.635a15.084,15.084,0,0,1-.389-3.526,21.532,21.532,0,0,1,.389-3.974l7.5-.579Z" fill="#27debf"/>
        <path id="Trazado_36192" data-name="Trazado 36192" d="M285.637,210.978a24.32,24.32,0,0,1-2.866,7.716l-4.631-7.138Z" fill="#27debf"/>
        <path id="Trazado_36193" data-name="Trazado 36193" d="M278.14,223.7a4.585,4.585,0,0,1-4.63.345l4.63-12.485Z" fill="#27debf"/>
        <path id="Trazado_36194" data-name="Trazado 36194" d="M270.644,219.635l7.5-8.079-4.63,12.485a6.494,6.494,0,0,1-2.866-4.406" fill="#27debf"/>
        <path id="Trazado_36195" data-name="Trazado 36195" d="M285.637,203.477a15.093,15.093,0,0,1,.389,3.527,21.548,21.548,0,0,1-.389,3.974l-7.5.578Z" fill="#27debf"/>
        <path id="Trazado_36196" data-name="Trazado 36196" d="M282.771,218.7a13.768,13.768,0,0,1-4.631,5V211.557Z" fill="#27debf"/>
        <path id="Trazado_36197" data-name="Trazado 36197" d="M274.207,229.887l7.866-4.565c.4-.23.722-.066.722.365a1.545,1.545,0,0,1-.722,1.2l-7.866,4.564c-.4.231-.722.067-.721-.364a1.547,1.547,0,0,1,.721-1.2" fill="#455a64"/>
        <path id="Trazado_36198" data-name="Trazado 36198" d="M272.473,235.594l11.335-6.577c.4-.23.722-.067.722.365a1.548,1.548,0,0,1-.722,1.2l-11.335,6.576c-.4.23-.722.067-.722-.364a1.548,1.548,0,0,1,.722-1.2" fill="#e0e0e0"/>
        <path id="Trazado_36199" data-name="Trazado 36199" d="M272.473,240.295l11.335-6.577c.4-.23.722-.067.722.365a1.548,1.548,0,0,1-.722,1.2l-11.335,6.576c-.4.23-.722.067-.722-.364a1.548,1.548,0,0,1,.722-1.2" fill="#e0e0e0"/>
        <path id="Trazado_36200" data-name="Trazado 36200" d="M272.473,245l11.335-6.577c.4-.23.722-.067.722.365a1.548,1.548,0,0,1-.722,1.2l-11.335,6.576c-.4.231-.722.067-.722-.364a1.548,1.548,0,0,1,.722-1.2" fill="#e0e0e0"/>
        <path id="Trazado_36201" data-name="Trazado 36201" d="M306.575,182.939a4.585,4.585,0,0,1,4.63-.345l-4.63,12.485Z" fill="#27debf"/>
        <path id="Trazado_36202" data-name="Trazado 36202" d="M301.945,187.94a13.758,13.758,0,0,1,4.63-5v12.14Z" fill="#27debf"/>
        <path id="Trazado_36203" data-name="Trazado 36203" d="M299.078,195.656a24.372,24.372,0,0,1,2.866-7.715l4.63,7.138Z" fill="#27debf"/>
        <path id="Trazado_36204" data-name="Trazado 36204" d="M311.2,182.594A6.491,6.491,0,0,1,314.071,187l-7.5,8.079Z" fill="#27debf"/>
        <path id="Trazado_36205" data-name="Trazado 36205" d="M299.078,203.158a15.087,15.087,0,0,1-.388-3.526,21.549,21.549,0,0,1,.388-3.975l7.5-.578Z" fill="#27debf"/>
        <path id="Trazado_36206" data-name="Trazado 36206" d="M314.072,194.5a24.3,24.3,0,0,1-2.867,7.716l-4.63-7.138Z" fill="#27debf"/>
        <path id="Trazado_36207" data-name="Trazado 36207" d="M306.575,207.219a4.585,4.585,0,0,1-4.63.345l4.63-12.485Z" fill="#27debf"/>
        <path id="Trazado_36208" data-name="Trazado 36208" d="M299.078,203.158l7.5-8.079-4.63,12.485a6.5,6.5,0,0,1-2.866-4.406" fill="#27debf"/>
        <g id="Grupo_17507" data-name="Grupo 17507" opacity="0.3">
          <g id="Grupo_17506" data-name="Grupo 17506">
            <g id="Grupo_17505" data-name="Grupo 17505" clip-path="url(#clip-path-18)">
              <path id="Trazado_36209" data-name="Trazado 36209" d="M301.945,187.94a24.33,24.33,0,0,0-2.867,7.716,21.636,21.636,0,0,0-.388,3.975,15.141,15.141,0,0,0,.388,3.526,6.5,6.5,0,0,0,2.867,4.406l4.63-12.484v-12.14a13.758,13.758,0,0,0-4.63,5"/>
            </g>
          </g>
        </g>
        <path id="Trazado_36210" data-name="Trazado 36210" d="M314.072,187a15.1,15.1,0,0,1,.388,3.527,21.547,21.547,0,0,1-.388,3.974l-7.5.578Z" fill="#27debf"/>
        <path id="Trazado_36211" data-name="Trazado 36211" d="M311.2,202.217a13.758,13.758,0,0,1-4.63,5V195.079Z" fill="#27debf"/>
        <path id="Trazado_36212" data-name="Trazado 36212" d="M302.642,213.471l7.866-4.565c.4-.23.721-.066.721.365a1.544,1.544,0,0,1-.721,1.2l-7.866,4.564c-.4.231-.722.067-.722-.364a1.548,1.548,0,0,1,.722-1.2" fill="#455a64"/>
        <path id="Trazado_36213" data-name="Trazado 36213" d="M300.908,219.178l11.335-6.577c.4-.23.722-.067.722.365a1.548,1.548,0,0,1-.722,1.2l-11.336,6.576c-.4.23-.721.067-.721-.364a1.548,1.548,0,0,1,.722-1.2" fill="#e0e0e0"/>
        <path id="Trazado_36214" data-name="Trazado 36214" d="M300.908,223.879l11.335-6.577c.4-.23.722-.067.722.365a1.548,1.548,0,0,1-.722,1.2l-11.336,6.576c-.4.23-.721.067-.721-.364a1.548,1.548,0,0,1,.722-1.2" fill="#e0e0e0"/>
        <path id="Trazado_36215" data-name="Trazado 36215" d="M300.908,228.58,312.243,222c.4-.23.722-.067.722.365a1.548,1.548,0,0,1-.722,1.2l-11.336,6.576c-.4.231-.721.067-.721-.364a1.548,1.548,0,0,1,.722-1.2" fill="#e0e0e0"/>
      </g>
    </g>
    <g id="Grupo_17526" data-name="Grupo 17526">
      <g id="Grupo_17525" data-name="Grupo 17525" clip-path="url(#clip-path)">
        <path id="Trazado_36216" data-name="Trazado 36216" d="M306.423,345.713a13.35,13.35,0,0,0-5.687-10.658c-1.614-1.006-3.1-1.153-4.21-.583l0,0c-6.69,3.357-53.706,33.506-56.713,34.99l-.038.02a2.144,2.144,0,0,0-.955,1.939,6.725,6.725,0,0,0,2.866,5.37,2.132,2.132,0,0,0,2.146.281l.043-.022c4.762-2.622,51.163-22.4,60.65-27.483l0,0,.005,0c1.11-.6,1.829-1.925,1.893-3.846" fill="#27debf"/>
        <g id="Grupo_17512" data-name="Grupo 17512" opacity="0.1">
          <g id="Grupo_17511" data-name="Grupo 17511">
            <g id="Grupo_17510" data-name="Grupo 17510" clip-path="url(#clip-path-20)">
              <path id="Trazado_36217" data-name="Trazado 36217" d="M304.575,339.212a12.058,12.058,0,0,0-3.838-4.157c-1.609-1-3.092-1.151-4.2-.588-.223.123-.292.163-.136.074-6.108,3.124-41.1,25.446-52.873,32.7l-.078.048c-.164.1-.32.2-.476.293l-.144.089-.269.164-.315.193-.024.014c-1.246.76-2.085,1.256-2.411,1.416l-.038.02a1.52,1.52,0,0,0-.276.213,2.353,2.353,0,0,0-.678,1.726,4.8,4.8,0,0,0,.033.673c.011.086.027.174.041.261.023.137.049.274.082.412.026.11.054.219.086.329.038.129.082.257.129.386.034.1.066.192.1.287l.021.046Z"/>
            </g>
          </g>
        </g>
        <path id="Trazado_36218" data-name="Trazado 36218" d="M241.671,376.789a6.7,6.7,0,0,1-2.854-5.349c.066-1.933,1.448-2.671,3.088-1.649a6.7,6.7,0,0,1,2.854,5.349c-.065,1.931-1.447,2.67-3.088,1.649" fill="#27debf"/>
        <path id="Trazado_36219" data-name="Trazado 36219" d="M227.621,378.082a5.147,5.147,0,0,0,2.193,4.11,1.641,1.641,0,0,0,1.633.221h0l.006,0h0l11.373-6.055.008,0,0,0a1.639,1.639,0,0,0,.726-1.48,5.148,5.148,0,0,0-2.192-4.11,1.639,1.639,0,0,0-1.641-.218L228.359,376.6h0a1.631,1.631,0,0,0-.739,1.486" fill="#37474f"/>
        <path id="Trazado_36220" data-name="Trazado 36220" d="M228.36,376.6a1.631,1.631,0,0,0-.739,1.486,4.453,4.453,0,0,0,.343,1.754l14.666-7.824a4.408,4.408,0,0,0-1.259-1.252,1.635,1.635,0,0,0-1.64-.218L228.36,376.6Z" fill="#263238"/>
        <path id="Trazado_36221" data-name="Trazado 36221" d="M242.21,388.178c0-7.288-4.815-14.575-14.446-20.136-19.262-11.12-50.492-11.12-69.753,0-9.631,5.561-14.447,12.848-14.447,20.135V401.6c0,7.288,4.816,14.575,14.447,20.135,19.262,11.121,50.491,11.121,69.753,0,9.631-5.56,14.446-12.847,14.446-20.135V388.177ZM160.4,372.173c8.6-4.966,20.141-7.7,32.491-7.7s23.89,2.736,32.492,7.7c7.778,4.49,12.06,10.175,12.06,16.005s-4.283,11.514-12.06,16.005c-8.6,4.966-20.141,7.7-32.492,7.7s-23.888-2.735-32.491-7.7c-7.777-4.491-12.061-10.175-12.061-16.005s4.283-11.515,12.061-16.005" fill="#27debf"/>
        <g id="Grupo_17515" data-name="Grupo 17515" opacity="0.3">
          <g id="Grupo_17514" data-name="Grupo 17514">
            <g id="Grupo_17513" data-name="Grupo 17513" clip-path="url(#clip-path-21)">
              <path id="Trazado_36222" data-name="Trazado 36222" d="M158.008,408.313c19.261,11.121,50.49,11.121,69.752,0s19.262-29.151,0-40.271-50.492-11.121-69.753,0-19.261,29.151,0,40.271m-9.676-20.135c0-5.831,4.283-11.515,12.061-16.005,8.6-4.967,20.141-7.7,32.491-7.7s23.89,2.735,32.491,7.7c7.778,4.49,12.061,10.174,12.061,16.005s-4.284,11.514-12.061,16c-8.6,4.967-20.141,7.7-32.491,7.7s-23.889-2.735-32.491-7.7c-7.777-4.49-12.061-10.174-12.061-16" fill="#fff"/>
            </g>
          </g>
        </g>
        <path id="Trazado_36223" data-name="Trazado 36223" d="M148.329,388.177a13.227,13.227,0,0,0,1.926,6.716c1.957-3.386,5.4-6.563,10.141-9.292,8.6-4.97,20.14-7.708,32.493-7.708s23.888,2.738,32.483,7.708c4.742,2.729,8.185,5.906,10.151,9.292a13.313,13.313,0,0,0,1.916-6.716c0-5.829-4.282-11.515-12.067-16.008-8.6-4.961-20.138-7.7-32.483-7.7s-23.9,2.738-32.493,7.7c-7.783,4.493-12.067,10.179-12.067,16.008" fill="#27debf"/>
        <g id="Grupo_17518" data-name="Grupo 17518" opacity="0.1">
          <g id="Grupo_17517" data-name="Grupo 17517">
            <g id="Grupo_17516" data-name="Grupo 17516" clip-path="url(#clip-path-22)">
              <path id="Trazado_36224" data-name="Trazado 36224" d="M148.329,388.177a13.227,13.227,0,0,0,1.926,6.716c1.957-3.386,5.4-6.563,10.141-9.292,8.6-4.97,20.14-7.708,32.493-7.708s23.888,2.738,32.483,7.708c4.742,2.729,8.185,5.906,10.151,9.292a13.313,13.313,0,0,0,1.916-6.716c0-5.829-4.282-11.515-12.067-16.008-8.6-4.961-20.138-7.7-32.483-7.7s-23.9,2.738-32.493,7.7c-7.783,4.493-12.067,10.179-12.067,16.008"/>
            </g>
          </g>
        </g>
        <g id="Grupo_17521" data-name="Grupo 17521" opacity="0.4">
          <g id="Grupo_17520" data-name="Grupo 17520">
            <g id="Grupo_17519" data-name="Grupo 17519" clip-path="url(#clip-path-23)">
              <path id="Trazado_36225" data-name="Trazado 36225" d="M160.393,378.251c8.6-4.966,20.141-7.7,32.491-7.7s23.89,2.736,32.491,7.7c6.418,3.7,10.449,8.224,11.665,12.966-1.216,4.742-5.247,9.261-11.665,12.966-8.6,4.966-20.141,7.7-32.491,7.7s-23.889-2.735-32.491-7.7c-6.418-3.705-10.448-8.224-11.665-12.966,1.217-4.742,5.247-9.261,11.665-12.966" fill="#fff"/>
            </g>
          </g>
        </g>
        <g id="Grupo_17524" data-name="Grupo 17524" opacity="0.1">
          <g id="Grupo_17523" data-name="Grupo 17523">
            <g id="Grupo_17522" data-name="Grupo 17522" clip-path="url(#clip-path-24)">
              <path id="Trazado_36226" data-name="Trazado 36226" d="M181.264,415.862v13.413a64.57,64.57,0,0,1-23.25-7.537c-9.634-5.561-14.453-12.85-14.453-20.138V388.177a16.918,16.918,0,0,1,.593-4.4h.008c-2.336,8.672,2.281,17.85,13.852,24.537a64.753,64.753,0,0,0,23.25,7.546"/>
            </g>
          </g>
        </g>
      </g>
    </g>
    <g id="Grupo_17534" data-name="Grupo 17534">
      <g id="Grupo_17533" data-name="Grupo 17533" clip-path="url(#clip-path)">
        <path id="Trazado_36227" data-name="Trazado 36227" d="M416.345,333.9c.584.236.707,1.361.746,3.593.029,1.689.324,4.642-1.665,5.185s-4.877.178-6.108-1.441c-1.536-2.02-2.565-3.792-4.767-6.264-1.909-2.145-3.981-4.154-4.706-7.117-.653-2.679-.033-3.821,1.8-4.554,2.522-1.008,6.368,2.558,8.312,3.15,1.676.51,5.8,7.212,6.387,7.448" fill="#263238"/>
        <path id="Trazado_36228" data-name="Trazado 36228" d="M416.392,331.832l-.062,2.738a6.7,6.7,0,0,1-6.922.031c-.114-.267-.63-3.932-.63-3.932Z" fill="#ffa8a7"/>
        <path id="Trazado_36229" data-name="Trazado 36229" d="M393.82,349.174s.731,2.4,1.108,4.49c.3,1.663.719,4.44.112,5.672s-2.887,1.984-6.391,1.879c-2.27-.069-5.843,1.393-8.295,2.69-2.533,1.34-7.749,1.778-10.388,1.408-3.11-.436-6.3-2.317-6.775-3.62s.225-2.629,7.645-5.6c.067-.027,10.291-3.1,13.935-6.943Z" fill="#263238"/>
        <path id="Trazado_36230" data-name="Trazado 36230" d="M393.886,346.215s-.056,2.031-.071,3.193-1.427,2.86-4.973,2.653c-2.491-.145-4.217-.854-4.071-2.9l.066-2.96Z" fill="#ffa8a7"/>
        <path id="Trazado_36231" data-name="Trazado 36231" d="M418.991,295.543a74.427,74.427,0,0,0-2.912-14.331s1.255-12.279,1.986-23.931c.79-12.587,1.523-19.068-.952-37.246,0,0-38.59-3.466-39.643,11.08s.442,51.67.779,58.078,1.314,12.092,2.4,22.491c1.074,10.263,4.187,34.512,4.187,34.512a9.6,9.6,0,0,0,9.049.018s3.516-29.054,3.382-36.442a63.116,63.116,0,0,0-2.436-16.176s1.042-11.99,1.957-22.42,1.75-15.43,2.01-19.97l.884-.413s.487,18.039.823,24.447,1.215,12.566,2.8,24.49c1.374,10.345,5.665,32.264,5.665,32.264,4.587,2.615,7.422-.162,7.422-.162s3.651-27.316,2.6-36.289" fill="#37474f"/>
        <path id="Trazado_36232" data-name="Trazado 36232" d="M398.8,251.206s9.971-4.637,15.006-8.909c0,0-4.729,6.354-10.809,9.081,0,0-2.643,22.336-2.623,21.892l-.738-22.078Z" fill="#263238"/>
        <path id="Trazado_36233" data-name="Trazado 36233" d="M391.888,168.184l1.5,13.324,12.583-.635-1.4-15.549Z" fill="#ffa8a7"/>
        <path id="Trazado_36234" data-name="Trazado 36234" d="M410.719,173.285c4.684-.216,7.062.487,9.167,4.528s2.928,16.114,3.66,22.339.915,10.616-1.647,11.257-12.535.915-12.535.915Z" fill="#37474f"/>
        <path id="Trazado_36235" data-name="Trazado 36235" d="M418.625,180.191c-.679-3.729-5.581-7.647-10.171-6.9q-1.6.26-3.115.526c-.551,2.242-6.693,3.644-12.561,2.263-1.768.464-7.591,1.554-9.064,2.043-4.217,1.4-5.958,5.551-6.614,19.306,0,0,.337,31.146.172,37.35,10.414,4.4,21.343,4.513,27.413,3.329,12.634-2.464,14.268-7.645,14.268-7.645l-1.881-14.249s3.088-27.587,1.553-36.022" fill="#455a64"/>
        <path id="Trazado_36236" data-name="Trazado 36236" d="M392.384,172.578l.094.838a18.675,18.675,0,0,0,7.726,0c4.088-.909,4.913-2.064,4.913-2.064l-.085-.951s1.018-.377,1.552,1.189a17.352,17.352,0,0,1,.592,1.911s.471,2.862-4.336,4.321a14.859,14.859,0,0,1-11.968-1.308l-1.884.4s1.629-3.757,2.123-4.519a1.251,1.251,0,0,1,1.178-.653Z" fill="#37474f"/>
        <path id="Trazado_36237" data-name="Trazado 36237" d="M353.971,158.291l-24.95,13.021,12.4,33.9L364.7,192.166Z" fill="#455a64"/>
        <path id="Trazado_36238" data-name="Trazado 36238" d="M352.827,161.61l-20.932,10.923,10.972,29.143L362.4,190.733Z" fill="#f5f5f5"/>
        <g id="Grupo_17529" data-name="Grupo 17529" opacity="0.15">
          <g id="Grupo_17528" data-name="Grupo 17528">
            <g id="Grupo_17527" data-name="Grupo 17527" clip-path="url(#clip-path-26)">
              <path id="Trazado_36239" data-name="Trazado 36239" d="M348.41,164.754,348,163.717c-.224-.572-1.966-.231-3.891.763l-3.686,1.9c-1.925.994-3.3,2.264-3.08,2.836l.405,1.037Z"/>
            </g>
          </g>
        </g>
        <path id="Trazado_36240" data-name="Trazado 36240" d="M348.005,160.606c-.139-.358-.9-.3-1.693.131l-1.444.779s-.889-2.24-4.209-.69-2.561,4.146-2.561,4.146l-1.532.844c-.846.466-1.449,1.139-1.346,1.5l.186.659,12.853-6.706s-.115-.308-.254-.666" fill="#27debf"/>
        <path id="Trazado_36241" data-name="Trazado 36241" d="M346.618,162.111c-1.2.588-1.666.872-1.322,1.754.393,1.009.759,1.732.759,1.732l-5.685,2.974s-.474-1.282-.681-1.776-.623-.731-1.527-.258l-.338-.357,8.967-4.57Z" fill="#27debf"/>
        <g id="Grupo_17532" data-name="Grupo 17532" opacity="0.3">
          <g id="Grupo_17531" data-name="Grupo 17531">
            <g id="Grupo_17530" data-name="Grupo 17530" clip-path="url(#clip-path-27)">
              <path id="Trazado_36242" data-name="Trazado 36242" d="M346.618,162.111c-1.2.588-1.666.872-1.322,1.754.393,1.009.759,1.732.759,1.732l-5.685,2.974s-.474-1.282-.681-1.776-.623-.731-1.527-.258l-.338-.357,8.967-4.57Z"/>
            </g>
          </g>
        </g>
        <path id="Trazado_36243" data-name="Trazado 36243" d="M348.654,164.808s-.182-.464-.4-1.037-1.966-.231-3.891.763l-3.686,1.9c-1.925.994-3.3,2.264-3.081,2.836L338,170.31Z" fill="#27debf"/>
        <path id="Trazado_36244" data-name="Trazado 36244" d="M383.714,178.122c-5.76.5-8.214,1.55-12.537,9.348-4.693,8.463-13.714,23.778-14.859,25.712-1.591,2.69-1.891,6.781-.518,9.253,1.283,2.307,5.353,3.363,9.969-1.85,5.487-6.2,15.7-21.339,15.7-21.339s8.674-11.444,2.247-21.124" fill="#ffa8a7"/>
        <path id="Trazado_36245" data-name="Trazado 36245" d="M358.187,224.209c-4.415-.536-14.728-14.526-17.66-19.1a32.589,32.589,0,0,0-8.935-9.427c-4.674-3.453-3.993-8.758-1.954-13.62.706-1.684,3.1-.588,3.1-.588l.844,2.307,1.461,4c.99.919,1.554,1.219,1.62.945.125-.515-.728-2.665-.706-4.9.024-2.694,1.911-.923,2.474.021a33.288,33.288,0,0,1,1.991,4.452c.943,2.411.553,4.852,1.7,6.5s16.532,16.385,16.532,16.385Z" fill="#ffa8a7"/>
        <path id="Trazado_36246" data-name="Trazado 36246" d="M384.825,177.821c-3.49-.086-7.684.471-10.932,4.69s-16.248,27.169-16.248,27.169l-7.3-6.539a12.708,12.708,0,0,0-5.609,7.929,78.891,78.891,0,0,0,6.606,8.965c3.083,3.385,6.523,5.73,9.342,4.691s5.7-3.274,11.772-11.726,12.7-18.431,12.7-18.431,4.184-9.748-.333-16.748" fill="#37474f"/>
        <path id="Trazado_36247" data-name="Trazado 36247" d="M383.024,151.873s-3.142,4.767-2.784,5.235,2.67.891,2.67.891Z" fill="#f28f8f"/>
        <path id="Trazado_36248" data-name="Trazado 36248" d="M384.493,154.936a3.743,3.743,0,1,1,3.743-3.743,3.747,3.747,0,0,1-3.743,3.743m0-6.655a2.911,2.911,0,1,0,2.911,2.912,2.914,2.914,0,0,0-2.911-2.912" fill="#263238"/>
        <path id="Trazado_36249" data-name="Trazado 36249" d="M391.746,138.686c-6.356,1.341-8.192,4.135-8.791,14.234-.626,10.553.451,13.87,1.837,15.29.936.959,6.137,1.133,8.76.409,3.284-.9,10.7-3.535,14.179-8.843,4.088-6.245,5.162-14.708.786-18.18-6.16-4.887-14.183-3.456-16.771-2.91" fill="#ffa8a7"/>
        <path id="Trazado_36250" data-name="Trazado 36250" d="M391.971,168.916l-.3-1.944a12.575,12.575,0,0,1-6.518,1.478c1.212.6,4.377.769,6.813.466" fill="#f28f8f"/>
        <path id="Trazado_36251" data-name="Trazado 36251" d="M381.1,150.41l11.3,1.462-.455.8L381.1,151.259Z" fill="#263238"/>
        <path id="Trazado_36252" data-name="Trazado 36252" d="M381.871,142.762a3.528,3.528,0,0,0,1.435-.087,2.266,2.266,0,0,0,.776,2.65,3.2,3.2,0,0,0,2.849.378,2.756,2.756,0,0,0-.311,1.966,3.187,3.187,0,0,0,3.293,2.376c.066,1.477.086,2.921,1.663,3.594,0,0,1.005-3.9,4.291-3.41,3.31.494,3.757,4.712,1.672,7.275-2.073,2.546-4.005,1.592-4.03,1.58.193.1.258,1.34.327,1.575a11.318,11.318,0,0,0,.845,2.133,10.182,10.182,0,0,0,2.974,3.487,7.324,7.324,0,0,0,5.966,1.66,6.415,6.415,0,0,0,4.345-3.5,3.764,3.764,0,0,1,.71-1.263,4.147,4.147,0,0,1,1.62-.7,4.764,4.764,0,0,0,2.691-6.716,4.364,4.364,0,0,0,1.669-7.622,5.234,5.234,0,0,0,2.252-5.679,5.321,5.321,0,0,0-3.758-3.6c-1.284-.371-.791-.573-1.188-1.83a4.608,4.608,0,0,0-5.854-3.02,4.44,4.44,0,0,0-3.176-3.415,4.378,4.378,0,0,0-2.243-.088c-.528.137-1.611.627-1.81,1.132-.668-.658-.886-1.526-1.7-2.124a4.818,4.818,0,0,0-7.1,1.518,5.925,5.925,0,0,0-4.44-1.868,4.853,4.853,0,0,0-4.047,2.472,4.121,4.121,0,0,0,.546,4.622,4.741,4.741,0,0,0-2.457,2.125,2.982,2.982,0,0,0,.346,3.319,2.589,2.589,0,0,0,1.241.923,3.683,3.683,0,0,0,.6.139" fill="#263238"/>
        <path id="Trazado_36253" data-name="Trazado 36253" d="M391.507,155.865l.117-4.415a2.208,2.208,0,0,0-.117,4.415" fill="#263238"/>
      </g>
    </g>
  </g>
</svg>
