<svg xmlns="http://www.w3.org/2000/svg" width="88" height="88" viewBox="0 0 88 88">
  <g id="Grupo_60145" data-name="Grupo 60145" transform="translate(-600 -11846)">
    <circle id="Elipse_4111" data-name="Elipse 4111" cx="44" cy="44" r="44" transform="translate(600 11846)" fill="#472ea6"/>
    <g id="Grupo_59740" data-name="Grupo 59740" transform="translate(88.059 11714.845)">
      <path id="Trazado_126038" data-name="Trazado 126038" d="M536.524,161.044l18.865,15.8,18.865-15.8Z" transform="translate(0.273)" fill="#fff"/>
      <path id="Trazado_126039" data-name="Trazado 126039" d="M556.568,179.492c-.007.006-.015.007-.022.013a1.366,1.366,0,0,1-.375.215l-.087.029a1.427,1.427,0,0,1-.418.072h-.007a1.427,1.427,0,0,1-.418-.072l-.088-.029a1.377,1.377,0,0,1-.374-.215.236.236,0,0,1-.023-.013L534.8,162.776v26.217h41.733V162.776Z" transform="translate(0 0.273)" fill="#fff"/>
    </g>
  </g>
</svg>
