<svg xmlns="http://www.w3.org/2000/svg" width="88" height="88" viewBox="0 0 88 88">
  <g id="Grupo_60146" data-name="Grupo 60146" transform="translate(-600 -11954)">
    <circle id="Elipse_4112" data-name="Elipse 4112" cx="44" cy="44" r="44" transform="translate(600 11954)" fill="#472ea6"/>
    <path id="Trazado_126036" data-name="Trazado 126036" d="M177.13,162.73c.247,6.385,4.552,12.558,8.193,17.544a64.966,64.966,0,0,0,11.576,12.2,54.438,54.438,0,0,0,8.911,5.929c1.923,1.006,3.212,1.629,5.447.993,3.43-.974,11.324-5.02,10-9.452-.672-2.247-3.408-4.448-5.139-5.872-2.091-1.719-5.759-4.749-8.206-1.921-1.466,1.413-2.985,4.649-5.283,4.873-2.464.24-4.653-2.615-6.188-4.179a60.768,60.768,0,0,1-6.816-8.314c-1.9-3.1.474-4.375,2.775-6.058,1.053-.771,2.392-1.5,2.9-2.764.958-2.363-1.293-5.285-2.587-7.1a29.007,29.007,0,0,0-4.2-4.691c-2.041-1.842-4.291-.378-6,1.088A18.384,18.384,0,0,0,177.13,162.73Z" transform="translate(444.733 11824.707)" fill="#fff"/>
  </g>
</svg>
