<svg xmlns="http://www.w3.org/2000/svg" width="88" height="88" viewBox="0 0 88 88">
  <g id="Grupo_60147" data-name="Grupo 60147" transform="translate(-600 -12062)">
    <circle id="Elipse_4113" data-name="Elipse 4113" cx="44" cy="44" r="44" transform="translate(600 12062)" fill="#472ea6"/>
    <path id="Trazado_126037" data-name="Trazado 126037" d="M313.852,195.379a21.794,21.794,0,0,1-7.536-1.3c-7.918-2.933-15.069-11.777-12.727-22.393a23.557,23.557,0,0,1,23.763-18.215,18.71,18.71,0,0,1,15.029,9.133c3.071,5.544,2.426,12.876-1.534,17.432-1.962,2.256-5.537,4.432-9.152,3.153a5.162,5.162,0,0,1-2.967-2.969q-.135-.31-.243-.639a13.007,13.007,0,0,1-2.247,2.513c-3.488,3.038-9.212,4.168-12.378.693-1.875-2.056-2.272-5.279-1.088-8.844a16.156,16.156,0,0,1,8.994-9.964,8.643,8.643,0,0,1,6.464-.259c2.177.908,4,3.417,3.3,6.046a1.334,1.334,0,1,1-2.577-.693,2.749,2.749,0,0,0-1.746-2.888,6.209,6.209,0,0,0-4.446.273,13.454,13.454,0,0,0-7.452,8.329c-.322.967-1.234,4.272.527,6.2,1.986,2.177,6.154,1.27,8.654-.907a11.241,11.241,0,0,0,3.3-5.091,16.771,16.771,0,0,1,1.151-2.525,1.334,1.334,0,0,1,2.37,1.214,7.3,7.3,0,0,0-.128,5.479,2.641,2.641,0,0,0,1.41,1.514c2.2.78,4.723-.638,6.245-2.388a12.976,12.976,0,0,0,1.214-14.388,15.992,15.992,0,0,0-12.859-7.763,20.892,20.892,0,0,0-20.993,16.127c-2.017,9.141,4.187,16.773,11.048,19.314,6.556,2.428,18.283,1.389,23.834-8.518a1.334,1.334,0,1,1,2.328,1.3A22.157,22.157,0,0,1,313.852,195.379Z" transform="translate(330.274 11931.594)" fill="#fff"/>
  </g>
</svg>
