<svg xmlns="http://www.w3.org/2000/svg" width="411.367" height="337.096" viewBox="0 0 411.367 337.096">
  <g id="Grupo_59795" data-name="Grupo 59795" transform="translate(0 0)">
    <g id="Grupo_59744" data-name="Grupo 59744" transform="translate(0 152.275)">
      <g id="Grupo_59743" data-name="Grupo 59743" transform="translate(0)">
        <path id="Trazado_126040" data-name="Trazado 126040" d="M2536.02,1240.347a4.564,4.564,0,0,1-.619,6.391l-104.7,86.806v-.979l104.222-86.408a3.811,3.811,0,0,0,.516-5.332l-22.306-27.285a4.555,4.555,0,0,1,3.511-7.435l41.37-.161,93.62-.363a4.557,4.557,0,0,1,4.462,5.558l-16.081,71.507-4.164,18.507v0l-8.971,39.888a4.557,4.557,0,0,1-7.973,1.884l-21.313-26.068-6.226-7.617a3.8,3.8,0,0,0-5.367-.523l-98.522,81.683H2486.3l99.22-82.262a4.555,4.555,0,0,1,6.435.624l6.223,7.612,21.315,26.073a3.8,3.8,0,0,0,6.652-1.57l9.1-40.465,4-17.765,16.12-71.677a3.8,3.8,0,0,0-3.708-4.637h-.016l-93.006.361-41.981.163a3.8,3.8,0,0,0-2.931,6.207Z" transform="translate(-2430.7 -1205.58)" fill="#66192d"/>
      </g>
    </g>
    <g id="Grupo_59745" data-name="Grupo 59745" transform="translate(0 138.518)">
      <path id="Trazado_126041" data-name="Trazado 126041" d="M2264.472,1305.919v39.108h78.189l88.7-73.543.584-.484,26.631-22.079a4.177,4.177,0,0,1,5.9.573l4.532,5.544.607.74v0l2.3,2.808,20.106,24.591a4.178,4.178,0,0,0,7.31-1.726l29.214-129.909a4.178,4.178,0,0,0-4.09-5.1l-12.289.049h0l-11.521.044-13.738.054h0l-5.1.019h0l-7.864.03-3.222.012-18.931.074h0l-12.316.049h0l-50,.193a4.177,4.177,0,0,0-3.218,6.821l5.537,6.775.616.751,16.151,19.759a4.174,4.174,0,0,1-.568,5.858Z" transform="translate(-2264.472 -1146.45)" fill="#553e93"/>
    </g>
    <g id="Grupo_59746" data-name="Grupo 59746" transform="translate(0 41.417)">
      <path id="Trazado_126042" data-name="Trazado 126042" d="M2885.4,797.7v52.279l87.2-73.366a2.185,2.185,0,0,1,3.087.3l12.235,14.966a2.187,2.187,0,0,0,3.827-.905l13.321-59.228a2.187,2.187,0,0,0-2.143-2.664l-61.545.237a2.188,2.188,0,0,0-1.687,3.571l9.813,12a2.188,2.188,0,0,1-.3,3.069Z" transform="translate(-2885.398 -729.08)" fill="#786ab5"/>
    </g>
    <g id="Grupo_59747" data-name="Grupo 59747" transform="translate(40.364 229.337)">
      <path id="Trazado_126043" data-name="Trazado 126043" d="M2489.857,1644.578h72.086l59.216-49.1a1.989,1.989,0,0,1,2.813.272L2640.6,1616.1a1.993,1.993,0,0,0,3.487-.823l12.847-57.134,4.248-18.891a1.989,1.989,0,0,0-1.947-2.429l-.433,0-.775,0-77.8.3a1.991,1.991,0,0,0-1.535,3.25l13.631,16.674a1.99,1.99,0,0,1-.272,2.794Z" transform="translate(-2489.857 -1536.82)" fill="#ff8548"/>
    </g>
    <g id="Grupo_59749" data-name="Grupo 59749" transform="translate(241.615 237.762)">
      <g id="Grupo_59748" data-name="Grupo 59748">
        <path id="Trazado_126044" data-name="Trazado 126044" d="M1723.862,1592.487a5.43,5.43,0,0,1-.749,7.747l-90.094,72.13h-1.205l90.824-72.719a4.672,4.672,0,0,0,.647-6.67l-9.076-10.723a5.427,5.427,0,0,1,4.125-8.934l59.468-.221,18.312-.068h.021a5.429,5.429,0,0,1,5.288,6.658l-16.834,72.28a5.43,5.43,0,0,1-9.432,2.28l-13.049-15.415a4.649,4.649,0,0,0-6.489-.628l-42.666,34.16h-1.208l43.4-34.749a5.4,5.4,0,0,1,7.538.728l13.047,15.413a4.674,4.674,0,0,0,8.122-1.959l16.834-72.279a4.673,4.673,0,0,0-4.553-5.735h-.016l-18.484.067h0l-59.3.221a4.673,4.673,0,0,0-3.55,7.694Z" transform="translate(-1631.814 -1573.03)" fill="#66192d"/>
      </g>
    </g>
    <g id="Grupo_59750" data-name="Grupo 59750" transform="translate(129.693 90.674)">
      <path id="Trazado_126045" data-name="Trazado 126045" d="M2663.583,945.87a8.982,8.982,0,0,1,9.05-5.007c6.487.717,5.715,6.456,8.8,5.917s7.413,0,8.34,3.586,5.1,1.614,5.251,4.662-4.788,5.2-10.5,2.51-8.494,2.089-16.525,1.224-9.026-1.941-13.78-1.4-4.641-3.241-2.478-5.752S2662.656,949.337,2663.583,945.87Z" transform="translate(-2650.31 -940.801)" fill="#c8c1e1"/>
    </g>
    <g id="Grupo_59751" data-name="Grupo 59751" transform="translate(107.402 0)">
      <path id="Trazado_126046" data-name="Trazado 126046" d="M2705.753,557.644s3.332-7.441,11.763-6.508,7.427,8.391,11.442,7.691,9.635,0,10.84,4.662,6.625,2.1,6.825,6.06-6.223,6.759-13.65,3.263-11.041,2.716-21.479,1.591-11.732-2.523-17.91-1.824-6.032-4.213-3.222-7.476S2704.548,562.15,2705.753,557.644Z" transform="translate(-2688.501 -551.055)" fill="#c8c1e1"/>
    </g>
    <g id="Grupo_59752" data-name="Grupo 59752" transform="translate(307.568 130.15)">
      <path id="Trazado_126047" data-name="Trazado 126047" d="M1724.024,1120.631a19.928,19.928,0,0,0-19.923-10.024c-14.28,1.436-12.58,12.924-19.38,11.847s-16.32,0-18.36,7.18-11.22,3.231-11.56,9.334,10.54,10.411,23.12,5.026,18.7,4.184,36.38,2.451,19.871-3.886,30.335-2.81,10.217-6.488,5.456-11.515S1726.064,1127.572,1724.024,1120.631Z" transform="translate(-1654.792 -1110.482)" fill="#c8c1e1"/>
    </g>
    <g id="Grupo_59753" data-name="Grupo 59753" transform="translate(283.405 103.515)">
      <path id="Trazado_126048" data-name="Trazado 126048" d="M2008.1,1000.917a9.8,9.8,0,0,0-9.78-4.864c-7.01.7-6.175,6.27-9.513,5.748s-8.011,0-9.012,3.484-5.507,1.568-5.674,4.528,5.173,5.051,11.349,2.438,9.179,2.03,17.858,1.189,9.754-1.886,14.891-1.363,5.015-3.148,2.678-5.587S2009.1,1004.285,2008.1,1000.917Z" transform="translate(-1974.112 -995.993)" fill="#c8c1e1"/>
    </g>
    <g id="Grupo_59754" data-name="Grupo 59754" transform="translate(323.823 61.537)">
      <path id="Trazado_126049" data-name="Trazado 126049" d="M1800.893,821.434a11.684,11.684,0,0,0-11.664-5.8c-8.36.831-7.365,7.478-11.346,6.855s-9.554,0-10.749,4.154-6.568,1.869-6.767,5.4,6.171,6.024,13.535,2.908,10.948,2.421,21.3,1.418,11.633-2.249,17.759-1.626,5.981-3.755,3.194-6.663S1802.088,825.45,1800.893,821.434Z" transform="translate(-1760.364 -815.561)" fill="#c8c1e1"/>
    </g>
    <g id="Grupo_59793" data-name="Grupo 59793" transform="translate(200.266 0.34)">
      <g id="Grupo_59755" data-name="Grupo 59755" transform="translate(6.495 10.907)">
        <path id="Trazado_126050" data-name="Trazado 126050" d="M2367.449,599.4s-2.1,4.69-9.566,3.119-17.328,3.888-13.806,8.642-10.847,2.477-10.284,11.735,7.185,16.742,20.709,11.8,20.57-29.266,20.57-29.266Z" transform="translate(-2333.777 -599.396)" fill="#66192d"/>
      </g>
      <g id="Grupo_59756" data-name="Grupo 59756" transform="translate(51.092 10.8)">
        <path id="Trazado_126051" data-name="Trazado 126051" d="M2213.182,612.269c5.389,1.725,15.937,4.7,15.937,4.7.463-.415-.521-18.035-.521-18.035l5.863.272s5.646,21.481-.177,25.811c-5.978,4.446-20.128-1.553-20.128-1.553S2209.71,611.157,2213.182,612.269Z" transform="translate(-2211.856 -598.936)" fill="#ffb27d"/>
      </g>
      <g id="Grupo_59757" data-name="Grupo 59757" transform="translate(68.218 28.708)">
        <path id="Trazado_126052" data-name="Trazado 126052" d="M2242.652,680.189a.126.126,0,0,1-.105-.056c-.858-1.291-.731-3.987-.725-4.1a.129.129,0,0,1,.133-.12.126.126,0,0,1,.12.133c0,.027-.129,2.727.683,3.948a.126.126,0,0,1-.105.2Z" transform="translate(-2241.812 -675.912)" fill="#ef8062"/>
      </g>
      <g id="Grupo_59758" data-name="Grupo 59758" transform="translate(21.123 59.184)">
        <path id="Trazado_126053" data-name="Trazado 126053" d="M2290.747,813.344c.5,2.054,8.961,4.1,19.154,1.777s16.549-3.316,17.506-6.14a36.168,36.168,0,0,0-19.327-1.3C2297.886,810.007,2290.244,811.29,2290.747,813.344Z" transform="translate(-2290.723 -806.906)" fill="#66192d"/>
      </g>
      <g id="Grupo_59759" data-name="Grupo 59759" transform="translate(21.122 22.668)">
        <path id="Trazado_126054" data-name="Trazado 126054" d="M2307.263,665.249c5.177-3.248,4.1-10.794,4.1-10.794a122.413,122.413,0,0,0-14.809-3.8,28.3,28.3,0,0,0-5.446-.706c-18.526.01-21.1,41.807-21.172,42.6a152.717,152.717,0,0,1,36.684-4.012C2308.417,673.617,2307.432,665.99,2307.263,665.249Z" transform="translate(-2269.939 -649.951)" fill="#ff8548"/>
      </g>
      <g id="Grupo_59760" data-name="Grupo 59760" transform="translate(49.452 22.85)">
        <path id="Trazado_126055" data-name="Trazado 126055" d="M2276.231,665.143s5.533-6.537,7.2-10.088a62.08,62.08,0,0,0-13.1-4.321Z" transform="translate(-2270.336 -650.733)" fill="#ff8548"/>
      </g>
      <g id="Grupo_59761" data-name="Grupo 59761" transform="translate(24.028 22.696)">
        <path id="Trazado_126056" data-name="Trazado 126056" d="M2358.206,650.359s-15.53-1.805-23.56,3.608l10.022,7.81Z" transform="translate(-2334.646 -650.07)" fill="#ff8548"/>
      </g>
      <g id="Grupo_59762" data-name="Grupo 59762" transform="translate(23.353 26.225)">
        <path id="Trazado_126057" data-name="Trazado 126057" d="M2402.51,673.215c-.979,1.326-4.083.777-6.934-1.226s-4.367-4.7-3.388-6.029,4.084-.777,6.934,1.226S2403.489,671.889,2402.51,673.215Z" transform="translate(-2391.891 -665.237)" fill="#66192d"/>
      </g>
      <g id="Grupo_59766" data-name="Grupo 59766" transform="translate(0 26.962)">
        <g id="Grupo_59764" data-name="Grupo 59764" transform="translate(3.339)">
          <g id="Grupo_59763" data-name="Grupo 59763">
            <path id="Trazado_126058" data-name="Trazado 126058" d="M2408.513,708.084a108.122,108.122,0,0,1,17.442-28.532,32.133,32.133,0,0,1,3.755-3.912c.992-.853.5-3.551-1.05-5.244-1.457-1.589-4.272-2.269-4.866-1.888a28.445,28.445,0,0,0-4.364,4.374c-7.115,7.953-12.145,16.928-17.892,32.052Z" transform="translate(-2401.539 -668.404)" fill="#ffb27d"/>
          </g>
        </g>
        <g id="Grupo_59765" data-name="Grupo 59765" transform="translate(0 35.227)">
          <path id="Trazado_126059" data-name="Trazado 126059" d="M2492.7,823.347a18.3,18.3,0,0,1,2.607-3.526s5.653,1.434,5.813,1.981c.369,1.259.521,3.886.865,5.151.149.549.521,2.423-.021,2.623-.47.174-1.494-1.2-1.9-1.91-1.319,3.453-4.864,7.876-2.651.43l-.013,0c-.3.731-2.064,5.373-2.931,4.58-.766-.7.406-4.239.881-5.446l-.034-.018c-.594,1.184-2.345,4.6-2.856,3.713-.641-1.113.967-4.747.967-4.747s-1.315,3.311-2.216,2.11c-.614-.819.678-3.389,1.228-4.522A2.009,2.009,0,0,1,2492.7,823.347Z" transform="translate(-2491.046 -819.82)" fill="#ffb27d"/>
        </g>
      </g>
      <g id="Grupo_59767" data-name="Grupo 59767" transform="translate(41.927 10.944)">
        <path id="Trazado_126060" data-name="Trazado 126060" d="M2330.8,614.542c-2.133.974-5.883-1.452-7.475-3.262.005,0,2.043-.368,2.381-1.062a38.424,38.424,0,0,0,1.319-3.929l-.006-.664,1.739-6.072.431,5.993.107,1.463.006.073.11,1.525,0,.028.037.508.073,1.028c.062.836.318,1.084,1.327,1.288C2330.846,611.461,2332.613,613.712,2330.8,614.542Z" transform="translate(-2323.321 -599.555)" fill="#ffb27d"/>
      </g>
      <g id="Grupo_59768" data-name="Grupo 59768" transform="translate(35.193 131.921)">
        <path id="Trazado_126061" data-name="Trazado 126061" d="M2338.376,1119.555s.066,2.524,1.861,3.237,6.993,1.355,5.051,2.977c-1.115.931-6.368.33-7.851.33s-2.876.615-3.978-.33c-1.213-1.04,0-6.214,0-6.214a6.156,6.156,0,0,0,2.431.606A4.9,4.9,0,0,0,2338.376,1119.555Z" transform="translate(-2332.919 -1119.555)" fill="#66192d"/>
      </g>
      <g id="Grupo_59769" data-name="Grupo 59769" transform="translate(5.075 131.921)">
        <path id="Trazado_126062" data-name="Trazado 126062" d="M2467.833,1119.552s.066,2.524,1.861,3.236,6.993,1.355,5.051,2.978c-1.115.931-6.368.33-7.851.33s-2.876.615-3.978-.33c-1.213-1.04,0-6.214,0-6.214a6.154,6.154,0,0,0,2.431.606A4.9,4.9,0,0,0,2467.833,1119.552Z" transform="translate(-2462.375 -1119.552)" fill="#66192d"/>
      </g>
      <g id="Grupo_59770" data-name="Grupo 59770" transform="translate(31.891 62.667)">
        <path id="Trazado_126063" data-name="Trazado 126063" d="M2327.753,821.9a1.5,1.5,0,0,1,1.47,1.517c-.042,3.559-.441,13.481-3.215,29.354-2.558,14.634-5.577,29.38-7.058,36.45a5.711,5.711,0,0,1-5.412,4.479l-1.423.054a4.736,4.736,0,0,1-4.978-5.015l3.594-47.829s-5.962-16.606-1.963-17.627C2314.424,821.835,2324.09,821.836,2327.753,821.9Z" transform="translate(-2307.125 -821.877)" fill="#ff443c"/>
      </g>
      <g id="Grupo_59771" data-name="Grupo 59771" transform="translate(3.735 62.667)">
        <path id="Trazado_126064" data-name="Trazado 126064" d="M2378.7,821.877l-32.479,68.277c-1.252,2.782-13.868,4.348-10.849-3.058l18.016-61.3c.27-.742,7.192-1.913,7.914-2.119C2365.211,822.553,2378.7,821.877,2378.7,821.877Z" transform="translate(-2334.903 -821.877)" fill="#ff443c"/>
      </g>
      <g id="Grupo_59772" data-name="Grupo 59772" transform="translate(34.776 68.651)">
        <path id="Trazado_126065" data-name="Trazado 126065" d="M2334.363,868.24a.168.168,0,0,1-.06-.011.164.164,0,0,1-.093-.212l4.346-11.157a17.757,17.757,0,0,1,5.308-7.506,9.926,9.926,0,0,1,3.041-1.747.164.164,0,0,1,.092.314c-.052.015-5.175,1.606-8.135,9.059l-4.346,11.156A.164.164,0,0,1,2334.363,868.24Z" transform="translate(-2334.199 -847.599)" fill="#020202"/>
      </g>
      <g id="Grupo_59777" data-name="Grupo 59777" transform="translate(55.233 0)">
        <g id="Grupo_59773" data-name="Grupo 59773" transform="translate(0 8.19)">
          <path id="Trazado_126066" data-name="Trazado 126066" d="M2228.8,594.409l14.441-2.439a1.354,1.354,0,0,0,1.108-1.56l-.263-1.563a1.351,1.351,0,0,0-1.557-1.11l-14.441,2.439a1.353,1.353,0,0,0-1.108,1.56l.263,1.563A1.351,1.351,0,0,0,2228.8,594.409Z" transform="translate(-2226.965 -587.718)" fill="#553e93"/>
        </g>
        <g id="Grupo_59774" data-name="Grupo 59774" transform="translate(8.402 5.485)">
          <path id="Trazado_126067" data-name="Trazado 126067" d="M2190.69,585.457l13.937-2.354a1.771,1.771,0,0,0,1.449-2.041l-.587-3.492a1.768,1.768,0,0,0-2.036-1.453l-13.937,2.353a1.771,1.771,0,0,0-1.449,2.041l.587,3.492A1.768,1.768,0,0,0,2190.69,585.457Z" transform="translate(-2188.042 -576.093)" fill="#ff443c"/>
        </g>
        <g id="Grupo_59775" data-name="Grupo 59775" transform="translate(19.859 1.22)">
          <path id="Trazado_126068" data-name="Trazado 126068" d="M2107.286,570.443l22.1-3.733a1.452,1.452,0,0,0,1.188-1.673l-1.02-6.07a1.449,1.449,0,0,0-1.669-1.19l-22.1,3.732a1.452,1.452,0,0,0-1.188,1.673l1.02,6.07A1.449,1.449,0,0,0,2107.286,570.443Z" transform="translate(-2104.576 -557.757)" fill="#786ab5"/>
        </g>
        <g id="Grupo_59776" data-name="Grupo 59776" transform="translate(43.333)">
          <path id="Trazado_126069" data-name="Trazado 126069" d="M2097.974,563.165l1.1-.185a1.113,1.113,0,0,0,.911-1.283l-1.387-8.254a1.111,1.111,0,0,0-1.28-.913l-1.1.185a1.113,1.113,0,0,0-.911,1.283l1.387,8.254A1.111,1.111,0,0,0,2097.974,563.165Z" transform="translate(-2095.292 -552.515)" fill="#553e93"/>
        </g>
      </g>
      <g id="Grupo_59779" data-name="Grupo 59779" transform="translate(66.985 5.396)">
        <g id="Grupo_59778" data-name="Grupo 59778" transform="translate(0)">
          <path id="Trazado_126070" data-name="Trazado 126070" d="M2228.879,575.853a1.534,1.534,0,0,1,2.06.735c.724,1.744-.043,4.613-.517,3.514a10.309,10.309,0,0,1-.6-2.079s.539,3.47-.312,3.323-1.315-2.972-1.315-2.972.223,3.317-.535,2.918-1.118-2.377-1.118-2.377.342,2.681-.529,2.2-.708-2.469-.832-3.325c-.116-.809.366-1.146,1.153-1.2a2.269,2.269,0,0,1,1.274-.419c.2.036.365-.174.5-.211A5.088,5.088,0,0,1,2228.879,575.853Z" transform="translate(-2225.162 -575.707)" fill="#ffb27d"/>
        </g>
      </g>
      <g id="Grupo_59780" data-name="Grupo 59780" transform="translate(45.626 18.055)">
        <path id="Trazado_126071" data-name="Trazado 126071" d="M2335.206,632.064a5.877,5.877,0,0,1-2.386-1.943h.189l2.088.418Z" transform="translate(-2332.82 -630.121)" fill="#66192d"/>
      </g>
      <g id="Grupo_59781" data-name="Grupo 59781" transform="translate(40.166 10.907)">
        <path id="Trazado_126072" data-name="Trazado 126072" d="M2348.763,599.4a6.387,6.387,0,0,1,.1,3.016c-.426,3.036,3.261,3.787,4.034,2.834.1-.118-.791-5.066-.791-5.066l-1.215-.484Z" transform="translate(-2348.763 -599.396)" fill="#66192d"/>
      </g>
      <g id="Grupo_59782" data-name="Grupo 59782" transform="translate(41.835 4.93)">
        <path id="Trazado_126073" data-name="Trazado 126073" d="M2320.057,579.849c-.565-3.8-3.646-6.53-6.88-6.1s-5.4,3.862-4.833,7.661,3.646,6.53,6.88,6.1S2320.623,583.648,2320.057,579.849Z" transform="translate(-2308.254 -573.706)" fill="#ffb27d"/>
      </g>
      <g id="Grupo_59783" data-name="Grupo 59783" transform="translate(39.93 3.866)">
        <path id="Trazado_126074" data-name="Trazado 126074" d="M2317.344,571.531c-.131.233,1.317,3.649-5.443,5.413s-3.807-6.743,1.247-7.6c7.3-1.239,9.065,3.315,8.611,5.1S2317.344,571.531,2317.344,571.531Z" transform="translate(-2307.959 -569.133)" fill="#66192d"/>
      </g>
      <g id="Grupo_59784" data-name="Grupo 59784" transform="translate(41.39 10.449)">
        <path id="Trazado_126075" data-name="Trazado 126075" d="M2351.147,597.43s-2.394,3.2-.988,5.958c0,0-1.885-1.48-2.015-2.109a23.475,23.475,0,0,1-.037-2.976Z" transform="translate(-2348.074 -597.43)" fill="#66192d"/>
      </g>
      <g id="Grupo_59785" data-name="Grupo 59785" transform="translate(42.045 11.08)">
        <path id="Trazado_126076" data-name="Trazado 126076" d="M2345.994,602.631a1.333,1.333,0,1,0-.635-2A1.5,1.5,0,0,0,2345.994,602.631Z" transform="translate(-2345.177 -600.142)" fill="#ffb27d"/>
      </g>
      <g id="Grupo_59787" data-name="Grupo 59787" transform="translate(46.642 11.542)">
        <g id="Grupo_59786" data-name="Grupo 59786" transform="translate(0)">
          <path id="Trazado_126077" data-name="Trazado 126077" d="M2332.7,602.43a.126.126,0,0,0-.021-.242,1.5,1.5,0,0,0-1.67.6.126.126,0,0,0,.032.179.152.152,0,0,0,.188-.03,2.377,2.377,0,0,1,1.387-.5A.142.142,0,0,0,2332.7,602.43Z" transform="translate(-2330.986 -602.126)" fill="#080435"/>
        </g>
      </g>
      <g id="Grupo_59789" data-name="Grupo 59789" transform="translate(50.856 11.044)">
        <g id="Grupo_59788" data-name="Grupo 59788" transform="translate(0)">
          <path id="Trazado_126078" data-name="Trazado 126078" d="M2314.193,600.536a.137.137,0,0,0,.107-.053.124.124,0,0,0-.029-.179,1.512,1.512,0,0,0-1.783-.055.125.125,0,0,0-.043.177.153.153,0,0,0,.186.041,2.412,2.412,0,0,1,1.481.044A.141.141,0,0,0,2314.193,600.536Z" transform="translate(-2312.425 -599.985)" fill="#080435"/>
        </g>
      </g>
      <g id="Grupo_59790" data-name="Grupo 59790" transform="translate(51.347 12.546)">
        <path id="Trazado_126079" data-name="Trazado 126079" d="M2314.765,606.872a.488.488,0,0,0,.244.644.518.518,0,0,0,.567-.419.487.487,0,0,0-.244-.643A.517.517,0,0,0,2314.765,606.872Z" transform="translate(-2314.734 -606.441)" fill="#080435"/>
      </g>
      <g id="Grupo_59791" data-name="Grupo 59791" transform="translate(47.826 14.962)">
        <path id="Trazado_126080" data-name="Trazado 126080" d="M2321.844,616.828s-.242,1.842-1.668,1.938a1.9,1.9,0,0,1-1.9-1.5A6.1,6.1,0,0,0,2321.844,616.828Z" transform="translate(-2318.274 -616.828)" fill="#fff"/>
      </g>
      <g id="Grupo_59792" data-name="Grupo 59792" transform="translate(46.678 13.2)">
        <path id="Trazado_126081" data-name="Trazado 126081" d="M2330.859,609.7a.068.068,0,0,1-.034-.126,2.435,2.435,0,0,1,1.722-.266.068.068,0,0,1-.035.13,2.341,2.341,0,0,0-1.62.252A.067.067,0,0,1,2330.859,609.7Z" transform="translate(-2330.791 -609.252)" fill="#020202"/>
      </g>
    </g>
    <g id="Grupo_59794" data-name="Grupo 59794" transform="translate(196.956 208.264)">
      <path id="Trazado_126082" data-name="Trazado 126082" d="M1707.517,1575.072h72.089l84.633-70.169a1.991,1.991,0,0,1,2.813.272l16.632,20.343a1.991,1.991,0,0,0,3.485-.821l10.825-48.137h0l.168-.754,6.1-27.134a1.992,1.992,0,0,0-1.949-2.431l-79,.307a1.991,1.991,0,0,0-1.536,3.25l13.629,16.672a1.987,1.987,0,0,1-.27,2.794Z" transform="translate(-1707.517 -1446.24)" fill="#ffba41"/>
    </g>
  </g>
</svg>
