<?xml version="1.0" encoding="utf-8"?>
<!-- Generator: Adobe Illustrator 25.4.1, SVG Export Plug-In . SVG Version: 6.00 Build 0)  -->
<svg version="1.1" id="Capa_1" xmlns="http://www.w3.org/2000/svg" xmlns:xlink="http://www.w3.org/1999/xlink" x="0px" y="0px"
	 viewBox="0 0 778 420" style="enable-background:new 0 0 778 420;" xml:space="preserve">
<style type="text/css">
	.st0{fill:#FFFFFF;}
	.st1{fill:#FD8F25;}
	.st2{fill:#BBABF5;}
	.st3{enable-background:new    ;}
	.st4{fill:#12263F;}
	.st5{fill:#707070;}
	.st6{fill:none;stroke:#707070;stroke-width:1.0004;stroke-miterlimit:4.0016;}
	.st7{fill:none;stroke:#707070;stroke-width:1.0008;stroke-miterlimit:4.0032;}
</style>
<g transform="matrix(1, 0, 0, 1, 329, 1666)">
	<path id="Rectángulo_32418-2" class="st0" d="M-295.9-1666h711.9c18.3,0,33.1,15.3,33.1,34.2v351.6c0,18.9-14.8,34.2-33.1,34.2
		h-711.9c-18.3,0-33.1-15.3-33.1-34.2v-351.6C-329-1650.7-314.2-1666-295.9-1666z"/>
</g>
<path id="Rectángulo_31641" class="st1" d="M312,193h154c9.9,0,18,8.1,18,18v50c0,9.9-8.1,18-18,18H312c-9.9,0-18-8.1-18-18v-50
	C294,201.1,302.1,193,312,193z"/>
<path id="Rectángulo_32419" class="st2" d="M312,40h154c9.9,0,18,8.1,18,18v50c0,9.9-8.1,18-18,18H312c-9.9,0-18-8.1-18-18V58
	C294,48.1,302.1,40,312,40z"/>
<path id="Rectángulo_32420" class="st2" d="M58,40h154c9.9,0,18,8.1,18,18v50c0,9.9-8.1,18-18,18H58c-9.9,0-18-8.1-18-18V58
	C40,48.1,48.1,40,58,40z"/>
<path id="Rectángulo_32421" class="st2" d="M58,297h154c9.9,0,18,8.1,18,18v50c0,9.9-8.1,18-18,18H58c-9.9,0-18-8.1-18-18v-50
	C40,305.1,48.1,297,58,297z"/>
<path id="Rectángulo_32422" class="st2" d="M563,297h154c9.9,0,18,8.1,18,18v50c0,9.9-8.1,18-18,18H563c-9.9,0-18-8.1-18-18v-50
	C545,305.1,553.1,297,563,297z"/>
<path id="Rectángulo_32423" class="st2" d="M563,40h154c9.9,0,18,8.1,18,18v50c0,9.9-8.1,18-18,18H563c-9.9,0-18-8.1-18-18V58
	C545,48.1,553.1,40,563,40z"/>
<g class="st3">
	<path class="st4" d="M345.8,236.7c0,1.1-0.2,2.1-0.6,2.9s-0.9,1.5-1.6,1.9s-1.5,0.7-2.4,0.7c-0.9,0-1.7-0.2-2.4-0.7
		c-0.7-0.4-1.2-1.1-1.6-1.9s-0.6-1.8-0.6-2.8V236c0-1.1,0.2-2.1,0.6-2.9c0.4-0.8,0.9-1.5,1.6-1.9s1.5-0.7,2.4-0.7
		c0.9,0,1.7,0.2,2.4,0.7s1.2,1.1,1.6,1.9s0.6,1.8,0.6,2.9V236.7z M344.4,235.9c0-1.3-0.3-2.4-0.8-3.1c-0.5-0.7-1.3-1.1-2.3-1.1
		c-0.9,0-1.7,0.4-2.2,1.1c-0.5,0.7-0.8,1.7-0.8,3v0.8c0,1.3,0.3,2.3,0.8,3.1c0.5,0.7,1.3,1.1,2.3,1.1c1,0,1.7-0.4,2.2-1.1
		s0.8-1.7,0.8-3V235.9z"/>
	<path class="st4" d="M348.1,242v-11.4h3.7c1.2,0,2.2,0.3,2.8,0.8c0.6,0.5,0.9,1.3,0.9,2.3c0,0.5-0.2,1-0.5,1.4
		c-0.3,0.4-0.7,0.7-1.2,0.9c0.6,0.2,1.1,0.5,1.5,1c0.4,0.5,0.5,1.1,0.5,1.7c0,1-0.3,1.8-1,2.4c-0.7,0.6-1.6,0.9-2.8,0.9H348.1z
		 M349.6,235.5h2.3c0.7,0,1.2-0.2,1.6-0.5c0.4-0.3,0.6-0.8,0.6-1.3c0-0.6-0.2-1.1-0.5-1.4c-0.4-0.3-0.9-0.4-1.7-0.4h-2.2V235.5z
		 M349.6,236.7v4.1h2.5c0.7,0,1.2-0.2,1.7-0.5c0.4-0.4,0.6-0.9,0.6-1.5c0-1.4-0.7-2.1-2.2-2.1H349.6z"/>
	<path class="st4" d="M361.4,236.9c-1.3-0.4-2.2-0.8-2.8-1.4s-0.9-1.2-0.9-2c0-0.9,0.4-1.6,1.1-2.2c0.7-0.6,1.6-0.9,2.8-0.9
		c0.8,0,1.5,0.2,2.1,0.5c0.6,0.3,1.1,0.7,1.4,1.2s0.5,1.1,0.5,1.7h-1.5c0-0.7-0.2-1.2-0.7-1.6s-1.1-0.6-1.9-0.6
		c-0.7,0-1.3,0.2-1.7,0.5s-0.6,0.8-0.6,1.4c0,0.5,0.2,0.9,0.6,1.2c0.4,0.3,1.1,0.6,2,0.9c0.9,0.3,1.7,0.6,2.2,0.9
		c0.5,0.3,0.9,0.7,1.2,1.1s0.4,0.9,0.4,1.5c0,0.9-0.4,1.7-1.1,2.2s-1.7,0.8-2.9,0.8c-0.8,0-1.5-0.1-2.2-0.4
		c-0.7-0.3-1.2-0.7-1.6-1.2s-0.6-1.1-0.6-1.8h1.5c0,0.7,0.3,1.2,0.8,1.6s1.2,0.6,2,0.6c0.8,0,1.4-0.2,1.8-0.5s0.6-0.8,0.6-1.3
		s-0.2-1-0.6-1.3S362.4,237.2,361.4,236.9z"/>
	<path class="st4" d="M374,236.7H369v4h5.7v1.2h-7.2v-11.4h7.1v1.2H369v3.7h4.9V236.7z"/>
	<path class="st4" d="M380.8,237.4h-2.7v4.6h-1.5v-11.4h3.8c1.3,0,2.3,0.3,3,0.9c0.7,0.6,1,1.4,1,2.5c0,0.7-0.2,1.3-0.6,1.9
		s-0.9,0.9-1.6,1.2l2.7,4.8v0.1h-1.6L380.8,237.4z M378.1,236.2h2.3c0.7,0,1.3-0.2,1.8-0.6c0.4-0.4,0.7-0.9,0.7-1.5
		c0-0.7-0.2-1.2-0.6-1.6c-0.4-0.4-1-0.6-1.8-0.6h-2.3V236.2z"/>
	<path class="st4" d="M390.1,240l3.2-9.4h1.6l-4.2,11.4h-1.3l-4.2-11.4h1.6L390.1,240z"/>
	<path class="st4" d="M402.2,239h-4.8l-1.1,3h-1.5l4.3-11.4h1.3l4.4,11.4h-1.5L402.2,239z M397.9,237.8h3.9l-1.9-5.3L397.9,237.8z"
		/>
	<path class="st4" d="M414.7,238.4c-0.1,1.2-0.6,2.1-1.3,2.8c-0.7,0.7-1.7,1-3,1c-1.3,0-2.4-0.5-3.2-1.4c-0.8-1-1.2-2.3-1.2-3.9
		v-1.1c0-1.1,0.2-2,0.6-2.8c0.4-0.8,0.9-1.4,1.6-1.8c0.7-0.4,1.5-0.6,2.4-0.6c1.2,0,2.2,0.3,2.9,1c0.7,0.7,1.2,1.6,1.3,2.8h-1.5
		c-0.1-0.9-0.4-1.6-0.8-2c-0.4-0.4-1-0.6-1.8-0.6c-1,0-1.7,0.4-2.3,1.1c-0.5,0.7-0.8,1.7-0.8,3v1.1c0,1.2,0.3,2.2,0.8,2.9
		s1.2,1.1,2.2,1.1c0.8,0,1.5-0.2,1.9-0.6s0.7-1,0.9-2H414.7z"/>
	<path class="st4" d="M418.4,242h-1.5v-11.4h1.5V242z"/>
	<path class="st4" d="M429.9,236.7c0,1.1-0.2,2.1-0.6,2.9s-0.9,1.5-1.6,1.9s-1.5,0.7-2.4,0.7c-0.9,0-1.7-0.2-2.4-0.7
		c-0.7-0.4-1.2-1.1-1.6-1.9s-0.6-1.8-0.6-2.8V236c0-1.1,0.2-2.1,0.6-2.9c0.4-0.8,0.9-1.5,1.6-1.9s1.5-0.7,2.4-0.7
		c0.9,0,1.7,0.2,2.4,0.7s1.2,1.1,1.6,1.9s0.6,1.8,0.6,2.9V236.7z M428.4,235.9c0-1.3-0.3-2.4-0.8-3.1c-0.5-0.7-1.3-1.1-2.3-1.1
		c-0.9,0-1.7,0.4-2.2,1.1c-0.5,0.7-0.8,1.7-0.8,3v0.8c0,1.3,0.3,2.3,0.8,3.1c0.5,0.7,1.3,1.1,2.3,1.1c1,0,1.7-0.4,2.2-1.1
		s0.8-1.7,0.8-3V235.9z M426,227.6h1.8l-2.1,2.3l-1.2,0L426,227.6z"/>
	<path class="st4" d="M440.9,242h-1.5l-5.7-8.8v8.8h-1.5v-11.4h1.5l5.7,8.8v-8.8h1.5V242z"/>
</g>
<g class="st3">
	<path class="st4" d="M100.8,83h-1.5l-5.7-8.8V83H92V71.6h1.5l5.7,8.8v-8.8h1.5V83z"/>
	<path class="st4" d="M109.7,80H105l-1.1,3h-1.5l4.3-11.4h1.3l4.4,11.4h-1.5L109.7,80z M105.4,78.8h3.9l-1.9-5.3L105.4,78.8z"/>
	<path class="st4" d="M120.7,72.9h-3.7V83h-1.5V72.9h-3.6v-1.2h8.8V72.9z"/>
	<path class="st4" d="M130.4,71.6v7.7c0,1.1-0.3,2-1,2.6c-0.7,0.7-1.6,1.1-2.7,1.1l-0.4,0c-1.2,0-2.2-0.3-3-1
		c-0.7-0.7-1.1-1.6-1.1-2.8v-7.8h1.5v7.7c0,0.8,0.2,1.5,0.7,1.9s1.1,0.7,1.9,0.7c0.8,0,1.5-0.2,1.9-0.7c0.5-0.5,0.7-1.1,0.7-1.9
		v-7.7H130.4z"/>
	<path class="st4" d="M137,78.4h-2.7V83h-1.5V71.6h3.8c1.3,0,2.3,0.3,3,0.9c0.7,0.6,1,1.4,1,2.5c0,0.7-0.2,1.3-0.6,1.9
		s-0.9,0.9-1.6,1.2l2.7,4.8V83h-1.6L137,78.4z M134.3,77.2h2.3c0.7,0,1.3-0.2,1.8-0.6c0.4-0.4,0.7-0.9,0.7-1.5
		c0-0.7-0.2-1.2-0.6-1.6c-0.4-0.4-1-0.6-1.8-0.6h-2.3V77.2z"/>
	<path class="st4" d="M148.9,80h-4.8l-1.1,3h-1.5l4.3-11.4h1.3l4.4,11.4H150L148.9,80z M144.6,78.8h3.9l-1.9-5.3L144.6,78.8z"/>
	<path class="st4" d="M154.6,81.8h5.4V83h-6.9V71.6h1.5V81.8z"/>
	<path class="st4" d="M174.4,77.7c0,1.1-0.2,2.1-0.6,2.9s-0.9,1.5-1.6,1.9s-1.5,0.7-2.4,0.7c-0.9,0-1.7-0.2-2.4-0.7
		c-0.7-0.4-1.2-1.1-1.6-1.9s-0.6-1.8-0.6-2.8V77c0-1.1,0.2-2.1,0.6-2.9c0.4-0.8,0.9-1.5,1.6-1.9s1.5-0.7,2.4-0.7
		c0.9,0,1.7,0.2,2.4,0.7s1.2,1.1,1.6,1.9s0.6,1.8,0.6,2.9V77.7z M172.9,76.9c0-1.3-0.3-2.4-0.8-3.1c-0.5-0.7-1.3-1.1-2.3-1.1
		c-0.9,0-1.7,0.4-2.2,1.1c-0.5,0.7-0.8,1.7-0.8,3v0.8c0,1.3,0.3,2.3,0.8,3.1c0.5,0.7,1.3,1.1,2.3,1.1c1,0,1.7-0.4,2.2-1.1
		s0.8-1.7,0.8-3V76.9z"/>
</g>
<g class="st3">
	<path class="st4" d="M100.3,104h-4.8l-1.1,3H93l4.3-11.4h1.3L103,107h-1.5L100.3,104z M96,102.8h3.9L98,97.5L96,102.8z"/>
	<path class="st4" d="M108.7,102.4H106v4.6h-1.5V95.6h3.8c1.3,0,2.3,0.3,3,0.9c0.7,0.6,1,1.4,1,2.5c0,0.7-0.2,1.3-0.6,1.9
		s-0.9,0.9-1.6,1.2l2.7,4.8v0.1h-1.6L108.7,102.4z M106,101.2h2.3c0.7,0,1.3-0.2,1.8-0.6c0.4-0.4,0.7-0.9,0.7-1.5
		c0-0.7-0.2-1.2-0.6-1.6c-0.4-0.4-1-0.6-1.8-0.6H106V101.2z"/>
	<path class="st4" d="M121.6,96.9h-3.7V107h-1.5V96.9h-3.6v-1.2h8.8V96.9z"/>
	<path class="st4" d="M124.9,107h-1.5V95.6h1.5V107z"/>
	<path class="st4" d="M133.9,102h-4.8v5h-1.5V95.6h7v1.2h-5.5v3.9h4.8V102z"/>
	<path class="st4" d="M138.1,107h-1.5V95.6h1.5V107z"/>
	<path class="st4" d="M149.2,103.4c-0.1,1.2-0.6,2.1-1.3,2.8c-0.7,0.7-1.7,1-3,1c-1.3,0-2.4-0.5-3.2-1.4c-0.8-1-1.2-2.3-1.2-3.9
		v-1.1c0-1.1,0.2-2,0.6-2.8c0.4-0.8,0.9-1.4,1.6-1.8c0.7-0.4,1.5-0.6,2.4-0.6c1.2,0,2.2,0.3,2.9,1c0.7,0.7,1.2,1.6,1.3,2.8h-1.5
		c-0.1-0.9-0.4-1.6-0.8-2c-0.4-0.4-1-0.6-1.8-0.6c-1,0-1.7,0.4-2.3,1.1c-0.5,0.7-0.8,1.7-0.8,3v1.1c0,1.2,0.3,2.2,0.8,2.9
		s1.2,1.1,2.2,1.1c0.8,0,1.5-0.2,1.9-0.6s0.7-1,0.9-2H149.2z"/>
	<path class="st4" d="M152.8,107h-1.5V95.6h1.5V107z"/>
	<path class="st4" d="M161.9,104h-4.8l-1.1,3h-1.5l4.3-11.4h1.3l4.4,11.4h-1.5L161.9,104z M157.5,102.8h3.9l-1.9-5.3L157.5,102.8z"
		/>
	<path class="st4" d="M167.5,105.8h5.4v1.2H166V95.6h1.5V105.8z"/>
</g>
<g class="st3">
	<path class="st4" d="M347.6,72.7c0,1.1-0.2,2.1-0.6,2.9s-0.9,1.5-1.6,1.9s-1.5,0.7-2.4,0.7c-0.9,0-1.7-0.2-2.4-0.7
		c-0.7-0.4-1.2-1.1-1.6-1.9s-0.6-1.8-0.6-2.8V72c0-1.1,0.2-2.1,0.6-2.9c0.4-0.8,0.9-1.5,1.6-1.9s1.5-0.7,2.4-0.7
		c0.9,0,1.7,0.2,2.4,0.7s1.2,1.1,1.6,1.9s0.6,1.8,0.6,2.9V72.7z M346.1,71.9c0-1.3-0.3-2.4-0.8-3.1c-0.5-0.7-1.3-1.1-2.3-1.1
		c-0.9,0-1.7,0.4-2.2,1.1c-0.5,0.7-0.8,1.7-0.8,3v0.8c0,1.3,0.3,2.3,0.8,3.1c0.5,0.7,1.3,1.1,2.3,1.1c1,0,1.7-0.4,2.2-1.1
		s0.8-1.7,0.8-3V71.9z"/>
	<path class="st4" d="M358.2,74.4c-0.1,1.2-0.6,2.1-1.3,2.8c-0.7,0.7-1.7,1-3,1c-1.3,0-2.4-0.5-3.2-1.4c-0.8-1-1.2-2.3-1.2-3.9v-1.1
		c0-1.1,0.2-2,0.6-2.8c0.4-0.8,0.9-1.4,1.6-1.8c0.7-0.4,1.5-0.6,2.4-0.6c1.2,0,2.2,0.3,2.9,1c0.7,0.7,1.2,1.6,1.3,2.8h-1.5
		c-0.1-0.9-0.4-1.6-0.8-2c-0.4-0.4-1-0.6-1.8-0.6c-1,0-1.7,0.4-2.3,1.1c-0.5,0.7-0.8,1.7-0.8,3v1.1c0,1.2,0.3,2.2,0.8,2.9
		s1.2,1.1,2.2,1.1c0.8,0,1.5-0.2,1.9-0.6s0.7-1,0.9-2H358.2z"/>
	<path class="st4" d="M368.3,66.6v7.7c0,1.1-0.3,2-1,2.6c-0.7,0.7-1.6,1.1-2.7,1.1l-0.4,0c-1.2,0-2.2-0.3-3-1
		c-0.7-0.7-1.1-1.6-1.1-2.8v-7.8h1.5v7.7c0,0.8,0.2,1.5,0.7,1.9s1.1,0.7,1.9,0.7c0.8,0,1.5-0.2,1.9-0.7c0.5-0.5,0.7-1.1,0.7-1.9
		v-7.7H368.3z"/>
	<path class="st4" d="M372.2,76.8h5.4V78h-6.9V66.6h1.5V76.8z"/>
	<path class="st4" d="M385,67.9h-3.7V78h-1.5V67.9h-3.6v-1.2h8.8V67.9z"/>
	<path class="st4" d="M392.3,75h-4.8l-1.1,3h-1.5l4.3-11.4h1.3L395,78h-1.5L392.3,75z M388,73.8h3.9l-1.9-5.3L388,73.8z"/>
	<path class="st4" d="M409.2,72.7c0,1.1-0.2,2.1-0.6,2.9s-0.9,1.5-1.6,1.9s-1.5,0.7-2.4,0.7c-0.9,0-1.7-0.2-2.4-0.7
		s-1.2-1.1-1.6-1.9s-0.6-1.8-0.6-2.8V72c0-1.1,0.2-2.1,0.6-2.9s0.9-1.5,1.6-1.9s1.5-0.7,2.4-0.7c0.9,0,1.7,0.2,2.4,0.7
		s1.2,1.1,1.6,1.9s0.6,1.8,0.6,2.9V72.7z M407.7,71.9c0-1.3-0.3-2.4-0.8-3.1s-1.3-1.1-2.3-1.1c-0.9,0-1.7,0.4-2.2,1.1
		s-0.8,1.7-0.8,3v0.8c0,1.3,0.3,2.3,0.8,3.1s1.3,1.1,2.3,1.1c1,0,1.7-0.4,2.2-1.1s0.8-1.7,0.8-3V71.9z"/>
	<path class="st4" d="M424.1,78h-1.5l-5.7-8.8V78h-1.5V66.6h1.5l5.7,8.8v-8.8h1.5V78z"/>
	<path class="st4" d="M435.6,72.7c0,1.1-0.2,2.1-0.6,2.9s-0.9,1.5-1.6,1.9s-1.5,0.7-2.4,0.7c-0.9,0-1.7-0.2-2.4-0.7
		s-1.2-1.1-1.6-1.9s-0.6-1.8-0.6-2.8V72c0-1.1,0.2-2.1,0.6-2.9s0.9-1.5,1.6-1.9s1.5-0.7,2.4-0.7c0.9,0,1.7,0.2,2.4,0.7
		s1.2,1.1,1.6,1.9s0.6,1.8,0.6,2.9V72.7z M434.1,71.9c0-1.3-0.3-2.4-0.8-3.1s-1.3-1.1-2.3-1.1c-0.9,0-1.7,0.4-2.2,1.1
		s-0.8,1.7-0.8,3v0.8c0,1.3,0.3,2.3,0.8,3.1s1.3,1.1,2.3,1.1c1,0,1.7-0.4,2.2-1.1s0.8-1.7,0.8-3V71.9z"/>
</g>
<g class="st3">
	<path class="st4" d="M368.3,96.7c0,1.1-0.2,2.1-0.6,2.9s-0.9,1.5-1.6,1.9s-1.5,0.7-2.4,0.7c-0.9,0-1.7-0.2-2.4-0.7
		c-0.7-0.4-1.2-1.1-1.6-1.9s-0.6-1.8-0.6-2.8V96c0-1.1,0.2-2.1,0.6-2.9c0.4-0.8,0.9-1.5,1.6-1.9s1.5-0.7,2.4-0.7
		c0.9,0,1.7,0.2,2.4,0.7s1.2,1.1,1.6,1.9s0.6,1.8,0.6,2.9V96.7z M366.8,95.9c0-1.3-0.3-2.4-0.8-3.1c-0.5-0.7-1.3-1.1-2.3-1.1
		c-0.9,0-1.7,0.4-2.2,1.1c-0.5,0.7-0.8,1.7-0.8,3v0.8c0,1.3,0.3,2.3,0.8,3.1c0.5,0.7,1.3,1.1,2.3,1.1c1,0,1.7-0.4,2.2-1.1
		s0.8-1.7,0.8-3V95.9z"/>
	<path class="st4" d="M378.9,98.4c-0.1,1.2-0.6,2.1-1.3,2.8c-0.7,0.7-1.7,1-3,1c-1.3,0-2.4-0.5-3.2-1.4c-0.8-1-1.2-2.3-1.2-3.9v-1.1
		c0-1.1,0.2-2,0.6-2.8c0.4-0.8,0.9-1.4,1.6-1.8c0.7-0.4,1.5-0.6,2.4-0.6c1.2,0,2.2,0.3,2.9,1c0.7,0.7,1.2,1.6,1.3,2.8h-1.5
		c-0.1-0.9-0.4-1.6-0.8-2c-0.4-0.4-1-0.6-1.8-0.6c-1,0-1.7,0.4-2.3,1.1c-0.5,0.7-0.8,1.7-0.8,3v1.1c0,1.2,0.3,2.2,0.8,2.9
		s1.2,1.1,2.2,1.1c0.8,0,1.5-0.2,1.9-0.6s0.7-1,0.9-2H378.9z"/>
	<path class="st4" d="M389,90.6v7.7c0,1.1-0.3,2-1,2.6s-1.6,1.1-2.7,1.1l-0.4,0c-1.2,0-2.2-0.3-3-1c-0.7-0.7-1.1-1.6-1.1-2.8v-7.8
		h1.5v7.7c0,0.8,0.2,1.5,0.7,1.9s1.1,0.7,1.9,0.7c0.8,0,1.5-0.2,1.9-0.7s0.7-1.1,0.7-1.9v-7.7H389z"/>
	<path class="st4" d="M392.8,100.8h5.4v1.2h-6.9V90.6h1.5V100.8z"/>
	<path class="st4" d="M405.6,91.9H402V102h-1.5V91.9h-3.6v-1.2h8.8V91.9z"/>
	<path class="st4" d="M413,99h-4.8l-1.1,3h-1.5l4.3-11.4h1.3l4.4,11.4h-1.5L413,99z M408.7,97.8h3.9l-1.9-5.3L408.7,97.8z"/>
</g>
<g class="st3">
	<path class="st4" d="M585.9,60.7H581v4h5.7V66h-7.2V54.6h7.1v1.2H581v3.7h4.9V60.7z"/>
	<path class="st4" d="M591.9,60.9c-1.3-0.4-2.2-0.8-2.8-1.4s-0.9-1.2-0.9-2c0-0.9,0.4-1.6,1.1-2.2c0.7-0.6,1.6-0.9,2.8-0.9
		c0.8,0,1.5,0.2,2.1,0.5c0.6,0.3,1.1,0.7,1.4,1.2s0.5,1.1,0.5,1.7h-1.5c0-0.7-0.2-1.2-0.7-1.6s-1.1-0.6-1.9-0.6
		c-0.7,0-1.3,0.2-1.7,0.5s-0.6,0.8-0.6,1.4c0,0.5,0.2,0.9,0.6,1.2c0.4,0.3,1.1,0.6,2,0.9c0.9,0.3,1.7,0.6,2.2,0.9
		c0.5,0.3,0.9,0.7,1.2,1.1s0.4,0.9,0.4,1.5c0,0.9-0.4,1.7-1.1,2.2s-1.7,0.8-2.9,0.8c-0.8,0-1.5-0.1-2.2-0.4
		c-0.7-0.3-1.2-0.7-1.6-1.2s-0.6-1.1-0.6-1.8h1.5c0,0.7,0.3,1.2,0.8,1.6s1.2,0.6,2,0.6c0.8,0,1.4-0.2,1.8-0.5s0.6-0.8,0.6-1.3
		s-0.2-1-0.6-1.3S593,61.2,591.9,60.9z"/>
	<path class="st4" d="M605.9,55.9h-3.7V66h-1.5V55.9h-3.6v-1.2h8.8V55.9z"/>
	<path class="st4" d="M611.8,61.4h-2.7V66h-1.5V54.6h3.8c1.3,0,2.3,0.3,3,0.9c0.7,0.6,1,1.4,1,2.5c0,0.7-0.2,1.3-0.6,1.9
		s-0.9,0.9-1.6,1.2l2.7,4.8V66h-1.6L611.8,61.4z M609.1,60.2h2.3c0.7,0,1.3-0.2,1.8-0.6c0.4-0.4,0.7-0.9,0.7-1.5
		c0-0.7-0.2-1.2-0.6-1.6c-0.4-0.4-1-0.6-1.8-0.6h-2.3V60.2z"/>
	<path class="st4" d="M625.5,54.6v7.7c0,1.1-0.3,2-1,2.6c-0.7,0.7-1.6,1.1-2.7,1.1l-0.4,0c-1.2,0-2.2-0.3-3-1
		c-0.7-0.7-1.1-1.6-1.1-2.8v-7.8h1.5v7.7c0,0.8,0.2,1.5,0.7,1.9s1.1,0.7,1.9,0.7c0.8,0,1.5-0.2,1.9-0.7c0.5-0.5,0.7-1.1,0.7-1.9
		v-7.7H625.5z"/>
	<path class="st4" d="M636.2,62.4c-0.1,1.2-0.6,2.1-1.3,2.8c-0.7,0.7-1.7,1-3,1c-1.3,0-2.4-0.5-3.2-1.4c-0.8-1-1.2-2.3-1.2-3.9v-1.1
		c0-1.1,0.2-2,0.6-2.8c0.4-0.8,0.9-1.4,1.6-1.8c0.7-0.4,1.5-0.6,2.4-0.6c1.2,0,2.2,0.3,2.9,1c0.7,0.7,1.2,1.6,1.3,2.8h-1.5
		c-0.1-0.9-0.4-1.6-0.8-2c-0.4-0.4-1-0.6-1.8-0.6c-1,0-1.7,0.4-2.3,1.1c-0.5,0.7-0.8,1.7-0.8,3v1.1c0,1.2,0.3,2.2,0.8,2.9
		s1.2,1.1,2.2,1.1c0.8,0,1.5-0.2,1.9-0.6s0.7-1,0.9-2H636.2z"/>
	<path class="st4" d="M645.9,55.9h-3.7V66h-1.5V55.9h-3.6v-1.2h8.8V55.9z"/>
	<path class="st4" d="M655.6,54.6v7.7c0,1.1-0.3,2-1,2.6c-0.7,0.7-1.6,1.1-2.7,1.1l-0.4,0c-1.2,0-2.2-0.3-3-1
		c-0.7-0.7-1.1-1.6-1.1-2.8v-7.8h1.5v7.7c0,0.8,0.2,1.5,0.7,1.9s1.1,0.7,1.9,0.7c0.8,0,1.5-0.2,1.9-0.7c0.5-0.5,0.7-1.1,0.7-1.9
		v-7.7H655.6z"/>
	<path class="st4" d="M662.1,61.4h-2.7V66H658V54.6h3.8c1.3,0,2.3,0.3,3,0.9c0.7,0.6,1,1.4,1,2.5c0,0.7-0.2,1.3-0.6,1.9
		s-0.9,0.9-1.6,1.2l2.7,4.8V66h-1.6L662.1,61.4z M659.5,60.2h2.3c0.7,0,1.3-0.2,1.8-0.6c0.4-0.4,0.7-0.9,0.7-1.5
		c0-0.7-0.2-1.2-0.6-1.6c-0.4-0.4-1-0.6-1.8-0.6h-2.3V60.2z"/>
	<path class="st4" d="M674.1,63h-4.8l-1.1,3h-1.5l4.3-11.4h1.3l4.4,11.4h-1.5L674.1,63z M669.8,61.8h3.9l-1.9-5.3L669.8,61.8z"/>
	<path class="st4" d="M678.3,66V54.6h3.2c1,0,1.9,0.2,2.6,0.7c0.8,0.4,1.3,1.1,1.8,1.9s0.6,1.7,0.6,2.8v0.7c0,1.1-0.2,2-0.6,2.8
		s-1,1.4-1.8,1.9c-0.8,0.4-1.7,0.7-2.7,0.7H678.3z M679.8,55.9v8.9h1.6c1.2,0,2.1-0.4,2.7-1.1c0.6-0.7,1-1.7,1-3.1V60
		c0-1.3-0.3-2.3-0.9-3c-0.6-0.7-1.5-1.1-2.6-1.1H679.8z"/>
	<path class="st4" d="M695,63h-4.8l-1.1,3h-1.5l4.3-11.4h1.3l4.4,11.4h-1.5L695,63z M690.7,61.8h3.9l-1.9-5.3L690.7,61.8z"/>
</g>
<g class="st3">
	<path class="st4" d="M629.4,84.7c0,1.1-0.2,2.1-0.6,2.9s-0.9,1.5-1.6,1.9s-1.5,0.7-2.4,0.7c-0.9,0-1.7-0.2-2.4-0.7
		c-0.7-0.4-1.2-1.1-1.6-1.9s-0.6-1.8-0.6-2.8V84c0-1.1,0.2-2.1,0.6-2.9c0.4-0.8,0.9-1.5,1.6-1.9s1.5-0.7,2.4-0.7
		c0.9,0,1.7,0.2,2.4,0.7s1.2,1.1,1.6,1.9s0.6,1.8,0.6,2.9V84.7z M627.9,83.9c0-1.3-0.3-2.4-0.8-3.1c-0.5-0.7-1.3-1.1-2.3-1.1
		c-0.9,0-1.7,0.4-2.2,1.1c-0.5,0.7-0.8,1.7-0.8,3v0.8c0,1.3,0.3,2.3,0.8,3.1c0.5,0.7,1.3,1.1,2.3,1.1c1,0,1.7-0.4,2.2-1.1
		s0.8-1.7,0.8-3V83.9z"/>
	<path class="st4" d="M644.4,90h-1.5l-5.7-8.8V90h-1.5V78.6h1.5l5.7,8.8v-8.8h1.5V90z"/>
	<path class="st4" d="M655.8,84.7c0,1.1-0.2,2.1-0.6,2.9s-0.9,1.5-1.6,1.9s-1.5,0.7-2.4,0.7c-0.9,0-1.7-0.2-2.4-0.7
		c-0.7-0.4-1.2-1.1-1.6-1.9s-0.6-1.8-0.6-2.8V84c0-1.1,0.2-2.1,0.6-2.9c0.4-0.8,0.9-1.5,1.6-1.9s1.5-0.7,2.4-0.7
		c0.9,0,1.7,0.2,2.4,0.7s1.2,1.1,1.6,1.9s0.6,1.8,0.6,2.9V84.7z M654.3,83.9c0-1.3-0.3-2.4-0.8-3.1c-0.5-0.7-1.3-1.1-2.3-1.1
		c-0.9,0-1.7,0.4-2.2,1.1c-0.5,0.7-0.8,1.7-0.8,3v0.8c0,1.3,0.3,2.3,0.8,3.1c0.5,0.7,1.3,1.1,2.3,1.1c1,0,1.7-0.4,2.2-1.1
		s0.8-1.7,0.8-3V83.9z"/>
</g>
<g class="st3">
	<path class="st4" d="M585.9,108.7H581v4h5.7v1.2h-7.2v-11.4h7.1v1.2H581v3.7h4.9V108.7z"/>
	<path class="st4" d="M591.9,108.9c-1.3-0.4-2.2-0.8-2.8-1.4s-0.9-1.2-0.9-2c0-0.9,0.4-1.6,1.1-2.2c0.7-0.6,1.6-0.9,2.8-0.9
		c0.8,0,1.5,0.2,2.1,0.5c0.6,0.3,1.1,0.7,1.4,1.2s0.5,1.1,0.5,1.7h-1.5c0-0.7-0.2-1.2-0.7-1.6s-1.1-0.6-1.9-0.6
		c-0.7,0-1.3,0.2-1.7,0.5s-0.6,0.8-0.6,1.4c0,0.5,0.2,0.9,0.6,1.2c0.4,0.3,1.1,0.6,2,0.9c0.9,0.3,1.7,0.6,2.2,0.9
		c0.5,0.3,0.9,0.7,1.2,1.1s0.4,0.9,0.4,1.5c0,0.9-0.4,1.7-1.1,2.2s-1.7,0.8-2.9,0.8c-0.8,0-1.5-0.1-2.2-0.4
		c-0.7-0.3-1.2-0.7-1.6-1.2s-0.6-1.1-0.6-1.8h1.5c0,0.7,0.3,1.2,0.8,1.6s1.2,0.6,2,0.6c0.8,0,1.4-0.2,1.8-0.5s0.6-0.8,0.6-1.3
		s-0.2-1-0.6-1.3S593,109.2,591.9,108.9z"/>
	<path class="st4" d="M605.9,103.9h-3.7V114h-1.5v-10.1h-3.6v-1.2h8.8V103.9z"/>
	<path class="st4" d="M611.8,109.4h-2.7v4.6h-1.5v-11.4h3.8c1.3,0,2.3,0.3,3,0.9c0.7,0.6,1,1.4,1,2.5c0,0.7-0.2,1.3-0.6,1.9
		s-0.9,0.9-1.6,1.2l2.7,4.8v0.1h-1.6L611.8,109.4z M609.1,108.2h2.3c0.7,0,1.3-0.2,1.8-0.6c0.4-0.4,0.7-0.9,0.7-1.5
		c0-0.7-0.2-1.2-0.6-1.6c-0.4-0.4-1-0.6-1.8-0.6h-2.3V108.2z"/>
	<path class="st4" d="M625.5,102.6v7.7c0,1.1-0.3,2-1,2.6c-0.7,0.7-1.6,1.1-2.7,1.1l-0.4,0c-1.2,0-2.2-0.3-3-1
		c-0.7-0.7-1.1-1.6-1.1-2.8v-7.8h1.5v7.7c0,0.8,0.2,1.5,0.7,1.9s1.1,0.7,1.9,0.7c0.8,0,1.5-0.2,1.9-0.7c0.5-0.5,0.7-1.1,0.7-1.9
		v-7.7H625.5z"/>
	<path class="st4" d="M636.2,110.4c-0.1,1.2-0.6,2.1-1.3,2.8c-0.7,0.7-1.7,1-3,1c-1.3,0-2.4-0.5-3.2-1.4c-0.8-1-1.2-2.3-1.2-3.9
		v-1.1c0-1.1,0.2-2,0.6-2.8c0.4-0.8,0.9-1.4,1.6-1.8c0.7-0.4,1.5-0.6,2.4-0.6c1.2,0,2.2,0.3,2.9,1c0.7,0.7,1.2,1.6,1.3,2.8h-1.5
		c-0.1-0.9-0.4-1.6-0.8-2c-0.4-0.4-1-0.6-1.8-0.6c-1,0-1.7,0.4-2.3,1.1c-0.5,0.7-0.8,1.7-0.8,3v1.1c0,1.2,0.3,2.2,0.8,2.9
		s1.2,1.1,2.2,1.1c0.8,0,1.5-0.2,1.9-0.6s0.7-1,0.9-2H636.2z"/>
	<path class="st4" d="M645.9,103.9h-3.7V114h-1.5v-10.1h-3.6v-1.2h8.8V103.9z"/>
	<path class="st4" d="M655.6,102.6v7.7c0,1.1-0.3,2-1,2.6c-0.7,0.7-1.6,1.1-2.7,1.1l-0.4,0c-1.2,0-2.2-0.3-3-1
		c-0.7-0.7-1.1-1.6-1.1-2.8v-7.8h1.5v7.7c0,0.8,0.2,1.5,0.7,1.9s1.1,0.7,1.9,0.7c0.8,0,1.5-0.2,1.9-0.7c0.5-0.5,0.7-1.1,0.7-1.9
		v-7.7H655.6z"/>
	<path class="st4" d="M662.1,109.4h-2.7v4.6H658v-11.4h3.8c1.3,0,2.3,0.3,3,0.9c0.7,0.6,1,1.4,1,2.5c0,0.7-0.2,1.3-0.6,1.9
		s-0.9,0.9-1.6,1.2l2.7,4.8v0.1h-1.6L662.1,109.4z M659.5,108.2h2.3c0.7,0,1.3-0.2,1.8-0.6c0.4-0.4,0.7-0.9,0.7-1.5
		c0-0.7-0.2-1.2-0.6-1.6c-0.4-0.4-1-0.6-1.8-0.6h-2.3V108.2z"/>
	<path class="st4" d="M674.1,111h-4.8l-1.1,3h-1.5l4.3-11.4h1.3l4.4,11.4h-1.5L674.1,111z M669.8,109.8h3.9l-1.9-5.3L669.8,109.8z"
		/>
	<path class="st4" d="M678.3,114v-11.4h3.2c1,0,1.9,0.2,2.6,0.7c0.8,0.4,1.3,1.1,1.8,1.9s0.6,1.7,0.6,2.8v0.7c0,1.1-0.2,2-0.6,2.8
		s-1,1.4-1.8,1.9c-0.8,0.4-1.7,0.7-2.7,0.7H678.3z M679.8,103.9v8.9h1.6c1.2,0,2.1-0.4,2.7-1.1c0.6-0.7,1-1.7,1-3.1V108
		c0-1.3-0.3-2.3-0.9-3c-0.6-0.7-1.5-1.1-2.6-1.1H679.8z"/>
	<path class="st4" d="M695,111h-4.8l-1.1,3h-1.5l4.3-11.4h1.3l4.4,11.4h-1.5L695,111z M690.7,109.8h3.9l-1.9-5.3L690.7,109.8z"/>
</g>
<g class="st3">
	<path class="st4" d="M606.6,332h-1.5v-5.3h-5.7v5.3h-1.5v-11.4h1.5v4.9h5.7v-4.9h1.5V332z"/>
	<path class="st4" d="M617.3,320.6v7.7c0,1.1-0.3,2-1,2.6s-1.6,1.1-2.7,1.1l-0.4,0c-1.2,0-2.2-0.3-3-1s-1.1-1.6-1.1-2.8v-7.8h1.5
		v7.7c0,0.8,0.2,1.5,0.7,1.9s1.1,0.7,1.9,0.7c0.8,0,1.5-0.2,1.9-0.7s0.7-1.1,0.7-1.9v-7.7H617.3z"/>
	<path class="st4" d="M621.6,320.6l3.7,9.3l3.7-9.3h1.9V332h-1.5v-4.4l0.1-4.8l-3.7,9.2h-1.1l-3.7-9.2l0.1,4.8v4.4h-1.5v-11.4H621.6
		z"/>
	<path class="st4" d="M639.9,329h-4.8l-1.1,3h-1.5l4.3-11.4h1.3l4.4,11.4H641L639.9,329z M635.6,327.8h3.9l-1.9-5.3L635.6,327.8z"/>
	<path class="st4" d="M652.8,332h-1.5l-5.7-8.8v8.8H644v-11.4h1.5l5.7,8.8v-8.8h1.5V332z"/>
	<path class="st4" d="M661.7,329H657l-1.1,3h-1.5l4.3-11.4h1.3l4.4,11.4h-1.5L661.7,329z M657.4,327.8h3.9l-1.9-5.3L657.4,327.8z"/>
	<path class="st4" d="M678.6,326.7c0,1.1-0.2,2.1-0.6,2.9s-0.9,1.5-1.6,1.9s-1.5,0.7-2.4,0.7c-0.9,0-1.7-0.2-2.4-0.7
		s-1.2-1.1-1.6-1.9s-0.6-1.8-0.6-2.8V326c0-1.1,0.2-2.1,0.6-2.9s0.9-1.5,1.6-1.9s1.5-0.7,2.4-0.7c0.9,0,1.7,0.2,2.4,0.7
		s1.2,1.1,1.6,1.9s0.6,1.8,0.6,2.9V326.7z M677.1,325.9c0-1.3-0.3-2.4-0.8-3.1s-1.3-1.1-2.3-1.1c-0.9,0-1.7,0.4-2.2,1.1
		s-0.8,1.7-0.8,3v0.8c0,1.3,0.3,2.3,0.8,3.1s1.3,1.1,2.3,1.1c1,0,1.7-0.4,2.2-1.1s0.8-1.7,0.8-3V325.9z"/>
</g>
<g class="st3">
	<path class="st4" d="M601,344.6l3.7,9.3l3.7-9.3h1.9V356h-1.5v-4.4l0.1-4.8l-3.7,9.2h-1.1l-3.7-9.2l0.1,4.8v4.4h-1.5v-11.4H601z"/>
	<path class="st4" d="M619.5,350.7h-4.9v4h5.7v1.2H613v-11.4h7.1v1.2h-5.6v3.7h4.9V350.7z"/>
	<path class="st4" d="M630.5,352.4c-0.1,1.2-0.6,2.1-1.3,2.8c-0.7,0.7-1.7,1-3,1c-1.3,0-2.4-0.5-3.2-1.4c-0.8-1-1.2-2.3-1.2-3.9
		v-1.1c0-1.1,0.2-2,0.6-2.8c0.4-0.8,0.9-1.4,1.6-1.8c0.7-0.4,1.5-0.6,2.4-0.6c1.2,0,2.2,0.3,2.9,1c0.7,0.7,1.2,1.6,1.3,2.8H629
		c-0.1-0.9-0.4-1.6-0.8-2c-0.4-0.4-1-0.6-1.8-0.6c-1,0-1.7,0.4-2.3,1.1c-0.5,0.7-0.8,1.7-0.8,3v1.1c0,1.2,0.3,2.2,0.8,2.9
		s1.2,1.1,2.2,1.1c0.8,0,1.5-0.2,1.9-0.6s0.7-1,0.9-2H630.5z"/>
	<path class="st4" d="M638.8,353h-4.8l-1.1,3h-1.5l4.3-11.4h1.3l4.4,11.4h-1.5L638.8,353z M634.5,351.8h3.9l-1.9-5.3L634.5,351.8z
		 M637.2,341.6h1.8l-2.1,2.3l-1.2,0L637.2,341.6z"/>
	<path class="st4" d="M651.7,356h-1.5l-5.7-8.8v8.8H643v-11.4h1.5l5.7,8.8v-8.8h1.5V356z"/>
	<path class="st4" d="M656,356h-1.5v-11.4h1.5V356z"/>
	<path class="st4" d="M667.1,352.4c-0.1,1.2-0.6,2.1-1.3,2.8c-0.7,0.7-1.7,1-3,1c-1.3,0-2.4-0.5-3.2-1.4c-0.8-1-1.2-2.3-1.2-3.9
		v-1.1c0-1.1,0.2-2,0.6-2.8c0.4-0.8,0.9-1.4,1.6-1.8c0.7-0.4,1.5-0.6,2.4-0.6c1.2,0,2.2,0.3,2.9,1c0.7,0.7,1.2,1.6,1.3,2.8h-1.5
		c-0.1-0.9-0.4-1.6-0.8-2c-0.4-0.4-1-0.6-1.8-0.6c-1,0-1.7,0.4-2.3,1.1c-0.5,0.7-0.8,1.7-0.8,3v1.1c0,1.2,0.3,2.2,0.8,2.9
		s1.2,1.1,2.2,1.1c0.8,0,1.5-0.2,1.9-0.6s0.7-1,0.9-2H667.1z"/>
	<path class="st4" d="M675.4,353h-4.8l-1.1,3h-1.5l4.3-11.4h1.3l4.4,11.4h-1.5L675.4,353z M671.1,351.8h3.9l-1.9-5.3L671.1,351.8z"
		/>
</g>
<g class="st3">
	<path class="st4" d="M82,341v-11.4h3.2c1,0,1.9,0.2,2.6,0.7c0.8,0.4,1.3,1.1,1.8,1.9s0.6,1.7,0.6,2.8v0.7c0,1.1-0.2,2-0.6,2.8
		s-1,1.4-1.8,1.9c-0.8,0.4-1.7,0.7-2.7,0.7H82z M83.5,330.9v8.9h1.6c1.2,0,2.1-0.4,2.7-1.1c0.6-0.7,1-1.7,1-3.1V335
		c0-1.3-0.3-2.3-0.9-3c-0.6-0.7-1.5-1.1-2.6-1.1H83.5z"/>
	<path class="st4" d="M94.1,341h-1.5v-11.4h1.5V341z"/>
	<path class="st4" d="M101,336.4h-2.7v4.6h-1.5v-11.4h3.8c1.3,0,2.3,0.3,3,0.9c0.7,0.6,1,1.4,1,2.5c0,0.7-0.2,1.3-0.6,1.9
		s-0.9,0.9-1.6,1.2l2.7,4.8v0.1h-1.6L101,336.4z M98.3,335.2h2.3c0.7,0,1.3-0.2,1.8-0.6c0.4-0.4,0.7-0.9,0.7-1.5
		c0-0.7-0.2-1.2-0.6-1.6c-0.4-0.4-1-0.6-1.8-0.6h-2.3V335.2z"/>
	<path class="st4" d="M113.1,335.7h-4.9v4h5.7v1.2h-7.2v-11.4h7.1v1.2h-5.6v3.7h4.9V335.7z"/>
	<path class="st4" d="M124.2,337.4c-0.1,1.2-0.6,2.1-1.3,2.8c-0.7,0.7-1.7,1-3,1c-1.3,0-2.4-0.5-3.2-1.4c-0.8-1-1.2-2.3-1.2-3.9
		v-1.1c0-1.1,0.2-2,0.6-2.8c0.4-0.8,0.9-1.4,1.6-1.8c0.7-0.4,1.5-0.6,2.4-0.6c1.2,0,2.2,0.3,2.9,1c0.7,0.7,1.2,1.6,1.3,2.8h-1.5
		c-0.1-0.9-0.4-1.6-0.8-2c-0.4-0.4-1-0.6-1.8-0.6c-1,0-1.7,0.4-2.3,1.1c-0.5,0.7-0.8,1.7-0.8,3v1.1c0,1.2,0.3,2.2,0.8,2.9
		s1.2,1.1,2.2,1.1c0.8,0,1.5-0.2,1.9-0.6s0.7-1,0.9-2H124.2z"/>
	<path class="st4" d="M133.8,330.9h-3.7V341h-1.5v-10.1H125v-1.2h8.8V330.9z"/>
	<path class="st4" d="M141.2,338h-4.8l-1.1,3h-1.5l4.3-11.4h1.3l4.4,11.4h-1.5L141.2,338z M136.9,336.8h3.9l-1.9-5.3L136.9,336.8z"
		/>
	<path class="st4" d="M158.1,335.7c0,1.1-0.2,2.1-0.6,2.9s-0.9,1.5-1.6,1.9s-1.5,0.7-2.4,0.7c-0.9,0-1.7-0.2-2.4-0.7
		c-0.7-0.4-1.2-1.1-1.6-1.9s-0.6-1.8-0.6-2.8V335c0-1.1,0.2-2.1,0.6-2.9c0.4-0.8,0.9-1.5,1.6-1.9s1.5-0.7,2.4-0.7
		c0.9,0,1.7,0.2,2.4,0.7s1.2,1.1,1.6,1.9s0.6,1.8,0.6,2.9V335.7z M156.6,334.9c0-1.3-0.3-2.4-0.8-3.1c-0.5-0.7-1.3-1.1-2.3-1.1
		c-0.9,0-1.7,0.4-2.2,1.1c-0.5,0.7-0.8,1.7-0.8,3v0.8c0,1.3,0.3,2.3,0.8,3.1c0.5,0.7,1.3,1.1,2.3,1.1c1,0,1.7-0.4,2.2-1.1
		s0.8-1.7,0.8-3V334.9z"/>
	<path class="st4" d="M173,341h-1.5l-5.7-8.8v8.8h-1.5v-11.4h1.5l5.7,8.8v-8.8h1.5V341z"/>
	<path class="st4" d="M184.4,335.7c0,1.1-0.2,2.1-0.6,2.9s-0.9,1.5-1.6,1.9s-1.5,0.7-2.4,0.7c-0.9,0-1.7-0.2-2.4-0.7
		c-0.7-0.4-1.2-1.1-1.6-1.9s-0.6-1.8-0.6-2.8V335c0-1.1,0.2-2.1,0.6-2.9c0.4-0.8,0.9-1.5,1.6-1.9s1.5-0.7,2.4-0.7
		c0.9,0,1.7,0.2,2.4,0.7s1.2,1.1,1.6,1.9s0.6,1.8,0.6,2.9V335.7z M182.9,334.9c0-1.3-0.3-2.4-0.8-3.1c-0.5-0.7-1.3-1.1-2.3-1.1
		c-0.9,0-1.7,0.4-2.2,1.1c-0.5,0.7-0.8,1.7-0.8,3v0.8c0,1.3,0.3,2.3,0.8,3.1c0.5,0.7,1.3,1.1,2.3,1.1c1,0,1.7-0.4,2.2-1.1
		s0.8-1.7,0.8-3V334.9z"/>
</g>
<g class="st3">
	<path class="st4" d="M102.7,365v-11.4h3.2c1,0,1.9,0.2,2.6,0.7c0.8,0.4,1.3,1.1,1.8,1.9s0.6,1.7,0.6,2.8v0.7c0,1.1-0.2,2-0.6,2.8
		s-1,1.4-1.8,1.9c-0.8,0.4-1.7,0.7-2.7,0.7H102.7z M104.2,354.9v8.9h1.6c1.2,0,2.1-0.4,2.7-1.1c0.6-0.7,1-1.7,1-3.1V359
		c0-1.3-0.3-2.3-0.9-3c-0.6-0.7-1.5-1.1-2.6-1.1H104.2z"/>
	<path class="st4" d="M114.8,365h-1.5v-11.4h1.5V365z"/>
	<path class="st4" d="M121.7,360.4H119v4.6h-1.5v-11.4h3.8c1.3,0,2.3,0.3,3,0.9c0.7,0.6,1,1.4,1,2.5c0,0.7-0.2,1.3-0.6,1.9
		s-0.9,0.9-1.6,1.2l2.7,4.8v0.1h-1.6L121.7,360.4z M119,359.2h2.3c0.7,0,1.3-0.2,1.8-0.6c0.4-0.4,0.7-0.9,0.7-1.5
		c0-0.7-0.2-1.2-0.6-1.6c-0.4-0.4-1-0.6-1.8-0.6H119V359.2z"/>
	<path class="st4" d="M133.8,359.7h-4.9v4h5.7v1.2h-7.2v-11.4h7.1v1.2h-5.6v3.7h4.9V359.7z"/>
	<path class="st4" d="M144.8,361.4c-0.1,1.2-0.6,2.1-1.3,2.8c-0.7,0.7-1.7,1-3,1c-1.3,0-2.4-0.5-3.2-1.4c-0.8-1-1.2-2.3-1.2-3.9
		v-1.1c0-1.1,0.2-2,0.6-2.8c0.4-0.8,0.9-1.4,1.6-1.8c0.7-0.4,1.5-0.6,2.4-0.6c1.2,0,2.2,0.3,2.9,1c0.7,0.7,1.2,1.6,1.3,2.8h-1.5
		c-0.1-0.9-0.4-1.6-0.8-2c-0.4-0.4-1-0.6-1.8-0.6c-1,0-1.7,0.4-2.3,1.1c-0.5,0.7-0.8,1.7-0.8,3v1.1c0,1.2,0.3,2.2,0.8,2.9
		s1.2,1.1,2.2,1.1c0.8,0,1.5-0.2,1.9-0.6s0.7-1,0.9-2H144.8z"/>
	<path class="st4" d="M154.5,354.9h-3.7V365h-1.5v-10.1h-3.6v-1.2h8.8V354.9z"/>
	<path class="st4" d="M161.9,362h-4.8l-1.1,3h-1.5l4.3-11.4h1.3l4.4,11.4h-1.5L161.9,362z M157.5,360.8h3.9l-1.9-5.3L157.5,360.8z"
		/>
</g>
<g id="Grupo_59801" transform="translate(63 73)">
	<path id="Polígono_26" class="st5" d="M212.9,111.3l-11.5-1l7.4-9.8L212.9,111.3z"/>
	<line id="Línea_175" class="st6" x1="206.9" y1="106.8" x2="167" y2="76.7"/>
</g>
<g id="Grupo_59803" transform="translate(908.401 1839.699)">
	<path id="Polígono_26-2" class="st5" d="M-409.3-1655.4l4.1-10.8l7.4,9.8L-409.3-1655.4z"/>
	<line id="Línea_175-2" class="st6" x1="-403.4" y1="-1659.9" x2="-363.4" y2="-1690"/>
</g>
<g id="Grupo_59805" transform="matrix(0.602, -0.799, 0.799, 0.602, 777.509, 1859.238)">
	<path id="Polígono_26-3" class="st5" d="M1101.2-1316l4.1-10.8l7.4,9.8L1101.2-1316z"/>
	<line id="Línea_175-3" class="st7" x1="1107.2" y1="-1320.5" x2="1147.2" y2="-1350.6"/>
</g>
<g id="Grupo_59802" transform="translate(-1205.757 1980.241) rotate(-71)">
	<path id="Polígono_26-4" class="st5" d="M2089.4,860.6l-11.5-1l7.4-9.8L2089.4,860.6z"/>
	<line id="Línea_175-4" class="st6" x1="2083.4" y1="856.1" x2="2043.5" y2="826"/>
</g>
<g id="Grupo_59804" transform="translate(920.668 2019.875) rotate(-109)">
	<path id="Polígono_26-5" class="st5" d="M1778.3,164.6l-4.1,10.8l-7.4-9.8L1778.3,164.6z"/>
	<line id="Línea_175-5" class="st6" x1="1772.3" y1="169.1" x2="1732.4" y2="199.2"/>
</g>
</svg>
