<svg xmlns="http://www.w3.org/2000/svg" width="279.498" height="178.75" viewBox="0 0 279.498 178.75">
  <g id="Grupo_59857" data-name="Grupo 59857" transform="translate(-249.332 -275.695)">
    <g id="Grupo_59810" data-name="Grupo 59810" transform="translate(291.805 353.83)">
      <path id="Trazado_126090" data-name="Trazado 126090" d="M678.484,980.005s-14.389-13.232-30.421-14.783-26.226,3.431-23.688,7.054,20.723-2.733,32.574.2A127.476,127.476,0,0,1,678.484,980.005Z" transform="translate(-623.989 -964.931)" fill="#afcdfb" opacity="0.3"/>
      <path id="Trazado_126091" data-name="Trazado 126091" d="M804.313,1078.787s-11.295-8.706-23.045-8.819-18.843,4.153-16.769,6.625,14.888-3.3,23.686-1.918A93,93,0,0,1,804.313,1078.787Z" transform="translate(-748.253 -1058.058)" fill="#afcdfb" opacity="0.3"/>
    </g>
    <path id="Trazado_126092" data-name="Trazado 126092" d="M782.834,1154.778c-2.014-4.693,5.463-8.65,5.463-8.65s9.783,3.256,11.2,2.4-7.821-4.417-7.821-4.417c2.3-2.218,11.087-4.2,11.087-4.2s5.846,8.208,7.006,7.027-5.547-7-5.547-7c2.989-1.188,7.474-.156,7.474-.156,6.452,2.357,3.092,10.52,3.092,10.52a16.382,16.382,0,0,0,6.264,4.6h0a11.874,11.874,0,0,1,2.009.956l-.658.521q-.29-.2-.583-.37l0,0-.008,0c-.126-.066-.305-.159-.526-.272h0c-.513-.234-.879-.418-1.132-.56l0,0c-1.582-.759-3.725-1.682-4.572-1.561a1.629,1.629,0,0,0-.1-.414l.1.414c.786,3.308-4.531,8.173-8.18,10.015s-2.982-.127-2.43-2.9,4.394-5.2,4.995-6.595-1.376-.744-3.341,1.074-1.354,4.74-4.481,7.74-10.739-1.32-10.739-1.32c2.908-1.124,6.074-5.728,5.6-6.66s-6.611,4.057-7.769,4.581S784.848,1159.471,782.834,1154.778Z" transform="translate(-472.717 -765.76)" fill="#afcdfb" opacity="0.3"/>
    <g id="Grupo_59818" data-name="Grupo 59818" transform="translate(331.359 306.92)">
      <path id="Trazado_126093" data-name="Trazado 126093" d="M1514.113,553.854s10.439-7.7,29.3,2.794c0,0,9.757,3.71,11.993,13.208a17.189,17.189,0,0,0,3.335,6.888,21.511,21.511,0,0,1,4.755,11.789,20.129,20.129,0,0,0,2.478,8.137,24.779,24.779,0,0,1,2.708,14.544s6.034,6.508,2.64,21.013a20.612,20.612,0,0,1-3.472,17.293s1.553,10.463-7.465,13.971c0,0-4.76,10.881-18.932,11.542a18.339,18.339,0,0,0-5.973,1.326c-2.7,1.083-7.544,2.139-14.507.309-11.314-2.975-10.179-9.841-10.179-9.841V555.522Z" transform="translate(-1449.785 -551.129)" fill="#f78248"/>
      <path id="Trazado_126094" data-name="Trazado 126094" d="M1031.143,553.854s-10.439-7.7-29.3,2.794c0,0-10.222,3.886-12.138,13.888a12.389,12.389,0,0,1-2.782,5.718,21.533,21.533,0,0,0-5.223,13.3,12.828,12.828,0,0,1-1.946,6.313,23.287,23.287,0,0,0-3.309,12.121,12.779,12.779,0,0,1-1.366,5.562c-1.526,3.041-3.38,9.125-1.144,18.676a20.781,20.781,0,0,0,1.613,14.354,16.851,16.851,0,0,1,1.824,6.237,12.333,12.333,0,0,0,5.012,9.371,17.778,17.778,0,0,1,4.185,4.065A21.949,21.949,0,0,0,1003,674.985a27.047,27.047,0,0,1,7.244,1.553c2.773,1.013,7.463,1.862,14.044.131,11.314-2.975,10.179-9.841,10.179-9.841V555.522Z" transform="translate(-972.902 -551.129)" fill="#f78248"/>
      <path id="Trazado_126095" data-name="Trazado 126095" d="M1223.536,1048.163c-5.039-.613-9.083-3.49-12.022-8.548l-.035-.061a5.166,5.166,0,0,1,1.758-6.939,4.453,4.453,0,0,0,1.15-.991,23.486,23.486,0,0,1-11.22-1.788,16.856,16.856,0,0,1-6.039-4.563,10.658,10.658,0,0,0,3.335,6.1,11.647,11.647,0,0,0,4.377,2.138c1.518.334,2.162,1.839,2.722,3.27a29.058,29.058,0,0,0,1.877,3.92,21.778,21.778,0,0,0,4.661,5.721,13.493,13.493,0,0,0-6.35,5.7,12.519,12.519,0,0,0-1.539,4.356,18.816,18.816,0,0,1,3.936-4.819,12.21,12.21,0,0,1,8.659-3.018A20.73,20.73,0,0,0,1223.536,1048.163Z" transform="translate(-1171.708 -971.521)" fill="#ea7147"/>
      <g id="Grupo_59811" data-name="Grupo 59811" transform="translate(18.401 75.106)">
        <path id="Trazado_126096" data-name="Trazado 126096" d="M1147.187,1230.136q-.391,0-.784-.023a11.517,11.517,0,0,1-8.745-4.761,10.451,10.451,0,0,1-1.379-11.3l.044-.092c.518-1.078.808.94.746,2.131-.133,2.556,1.881,6.5,4.387,8.639,2.9,2.474,7.6,2.418,11.182,2.538,1.341.045,2.473.134,1.276.935A12.909,12.909,0,0,1,1147.187,1230.136Z" transform="translate(-1135.217 -1213.651)" fill="#ea7147"/>
      </g>
      <g id="Grupo_59812" data-name="Grupo 59812" transform="translate(9.537 92.299)">
        <path id="Trazado_126097" data-name="Trazado 126097" d="M1070.6,1378.133a2.645,2.645,0,0,1-3.474-.924,57.271,57.271,0,0,0-10.1-11.9h0a32.234,32.234,0,0,1,13.572,12.822Z" transform="translate(-1057.033 -1365.311)" fill="#ea7147"/>
      </g>
      <path id="Trazado_126098" data-name="Trazado 126098" d="M1030.038,1100.573c1.018-1.939,3.693-2.661,5.766-2.924a29.172,29.172,0,0,1,5.924.121c-.325-.037-5.432-4.756-11.224-1.082-.364-3.483-4.649-5-4.649-5a12.952,12.952,0,0,1,1.305,2.327,8.385,8.385,0,0,1,.729,4.894,6.365,6.365,0,0,1-3.424,4.155S1028.527,1103.854,1030.038,1100.573Z" transform="translate(-1018.619 -1030.404)" fill="#ea7147"/>
      <path id="Trazado_126099" data-name="Trazado 126099" d="M1292.8,927.941c2.1-.622,4.482.792,6.116,2.1a29.163,29.163,0,0,1,4.044,4.331c-.2-.259-.378-7.211-7.05-8.8,2.244-2.689.347-6.822.347-6.822a12.96,12.96,0,0,1-.758,2.558,8.386,8.386,0,0,1-3,3.934,6.365,6.365,0,0,1-5.366.442S1289.4,929.145,1292.8,927.941Z" transform="translate(-1251.512 -877.07)" fill="#ea7147"/>
      <g id="Grupo_59816" data-name="Grupo 59816" transform="translate(70.203 25.083)">
        <path id="Trazado_126100" data-name="Trazado 126100" d="M1611.1,991.856c5.458-.664,9.84-3.78,13.024-9.261l.038-.065a5.6,5.6,0,0,0-1.9-7.518,4.821,4.821,0,0,1-1.245-1.074A25.44,25.44,0,0,0,1633.167,972a18.258,18.258,0,0,0,6.542-4.943,11.545,11.545,0,0,1-3.613,6.613,12.62,12.62,0,0,1-4.742,2.316c-1.645.362-2.342,1.992-2.949,3.542a31.491,31.491,0,0,1-2.033,4.246,23.585,23.585,0,0,1-5.049,6.2,14.617,14.617,0,0,1,6.879,6.176,13.558,13.558,0,0,1,1.668,4.719,20.385,20.385,0,0,0-4.264-5.22,13.227,13.227,0,0,0-9.38-3.269A22.451,22.451,0,0,1,1611.1,991.856Z" transform="translate(-1608.956 -944.989)" fill="#ea7147"/>
        <g id="Grupo_59813" data-name="Grupo 59813" transform="translate(14.668 50.023)">
          <path id="Trazado_126101" data-name="Trazado 126101" d="M1728.8,1230.136q.391,0,.784-.023a11.517,11.517,0,0,0,8.745-4.761,10.451,10.451,0,0,0,1.379-11.3l-.044-.092c-.518-1.078-.808.94-.746,2.131.133,2.556-1.881,6.5-4.387,8.639-2.9,2.474-7.6,2.418-11.182,2.538-1.341.045-2.473.134-1.276.935A12.91,12.91,0,0,0,1728.8,1230.136Z" transform="translate(-1721.565 -1213.651)" fill="#ea7147"/>
        </g>
        <g id="Grupo_59814" data-name="Grupo 59814" transform="translate(0 9.105)">
          <path id="Trazado_126102" data-name="Trazado 126102" d="M1598.117,867.452q.285-.1.566-.217a8.812,8.812,0,0,0,5.133-5.714,8.115,8.115,0,0,0-1.967-8.606l-.056-.056c-.662-.655-.343.893.016,1.747.77,1.832.337,5.229-.931,7.431-1.467,2.549-4.914,3.711-7.5,4.714-.968.376-1.771.73-.686,1.009A10.037,10.037,0,0,0,1598.117,867.452Z" transform="translate(-1592.176 -852.701)" fill="#ea7147"/>
        </g>
        <g id="Grupo_59815" data-name="Grupo 59815" transform="translate(23.768 71.594)">
          <path id="Trazado_126103" data-name="Trazado 126103" d="M1801.839,1411.8a2.651,2.651,0,0,0,3.592.22,58.022,58.022,0,0,1,13.425-8.09h0a32.617,32.617,0,0,0-17.017,7.87Z" transform="translate(-1801.839 -1403.934)" fill="#ea7147"/>
        </g>
        <path id="Trazado_126104" data-name="Trazado 126104" d="M1733.255,781.278c-1.018-1.939-3.693-2.661-5.766-2.924a29.159,29.159,0,0,0-5.924.121c.325-.038,5.433-4.756,11.225-1.082.364-3.483,4.649-5,4.649-5a12.971,12.971,0,0,0-1.305,2.327,8.388,8.388,0,0,0-.728,4.894,6.365,6.365,0,0,0,3.424,4.155S1734.766,784.559,1733.255,781.278Z" transform="translate(-1706.897 -772.388)" fill="#ea7147"/>
        <path id="Trazado_126105" data-name="Trazado 126105" d="M1861.112,1100.573c-1.018-1.939-3.693-2.661-5.766-2.924a29.173,29.173,0,0,0-5.924.121c.325-.037,5.432-4.756,11.224-1.082.364-3.483,4.649-5,4.649-5a12.974,12.974,0,0,0-1.305,2.327,8.384,8.384,0,0,0-.729,4.894,6.366,6.366,0,0,0,3.424,4.155S1862.624,1103.854,1861.112,1100.573Z" transform="translate(-1820.26 -1055.486)" fill="#ea7147"/>
      </g>
      <g id="Grupo_59817" data-name="Grupo 59817" transform="translate(60.017 4.39)">
        <rect id="Rectángulo_32425" data-name="Rectángulo 32425" width="113.773" height="2.546" transform="translate(0 113.772) rotate(-89.865)" fill="#ea7147"/>
      </g>
    </g>
    <g id="Grupo_59822" data-name="Grupo 59822" transform="translate(423.13 360.462)">
      <path id="Trazado_126106" data-name="Trazado 126106" d="M2097.081,1198.456s-.321-.72-.528-1.062-1.094-1.341-1.245-1.115-.754,1.75-.434,2.176-.021,1.169,1.574,1.618Z" transform="translate(-2059.372 -1176.656)" fill="#ffb27d"/>
      <path id="Trazado_126107" data-name="Trazado 126107" d="M2127.329,1175.6s-8.164,6.815-11.347,6.184a62.757,62.757,0,0,1-6.31-1.8l-.764,1.954s3.426,4.647,7,4.678a20.345,20.345,0,0,0,9.708-2.417Z" transform="translate(-2071.898 -1158.35)" fill="#6980e0"/>
      <path id="Trazado_126108" data-name="Trazado 126108" d="M2324.244,1800.04s-.237,3.823-.977,3.878c-.1.007-3.751.007-3.751.007l-4.663-.027a1.513,1.513,0,0,1,1.394-1.361c1.363-.238,3.645-1.2,4.47-3C2321.585,1797.645,2324.244,1800.04,2324.244,1800.04Z" transform="translate(-2254.496 -1710.911)" fill="#20497a"/>
      <path id="Trazado_126109" data-name="Trazado 126109" d="M2276.332,1442.861a9.724,9.724,0,0,1-2.524.474,9.269,9.269,0,0,1-2.357-.336,64.515,64.515,0,0,0-1.735-8.268c-.77-2.981-1.87-6.813-3.434-11.575a156.678,156.678,0,0,1-5.761-21.59c-.006-.038-.009-.057-.009-.057l.014-.006,13.3-5.839s-1.644,18.14.453,25.1a29.292,29.292,0,0,1,.761,3.336C2276.363,1431.663,2276.332,1442.861,2276.332,1442.861Z" transform="translate(-2206.315 -1353.466)" fill="#f99746"/>
      <path id="Trazado_126110" data-name="Trazado 126110" d="M2269.786,1434.731c-.77-2.981-1.87-6.813-3.434-11.575a156.678,156.678,0,0,1-5.761-21.59c0-.021,0-.042.005-.064l13.3-5.839s-1.644,18.14.454,25.1C2274.641,1421.738,2269.786,1434.731,2269.786,1434.731Z" transform="translate(-2206.385 -1353.466)" fill="#ed7d2b"/>
      <path id="Trazado_126111" data-name="Trazado 126111" d="M2232.623,1800.04s-.237,3.823-.977,3.878c-.1.007-3.751.007-3.751.007l-4.663-.027a1.513,1.513,0,0,1,1.394-1.361c1.363-.238,3.645-1.2,4.47-3C2229.964,1797.645,2232.623,1800.04,2232.623,1800.04Z" transform="translate(-2173.261 -1710.911)" fill="#20497a"/>
      <path id="Trazado_126112" data-name="Trazado 126112" d="M2239.538,1399.434a189.336,189.336,0,0,0,1.861,26.187c2.034,14.432,1.344,20.559,1.344,20.559a13.841,13.841,0,0,0,1.961.5,8.9,8.9,0,0,0,2.91-.337s2.911-14.438,2.076-21.662,3.986-24.788,3.986-24.788Z" transform="translate(-2187.715 -1356.809)" fill="#f99746"/>
      <path id="Trazado_126113" data-name="Trazado 126113" d="M2278.053,1106.556l-1.815,2.34-3.81.207c-.021-.307-.077-1.584-.126-2.742,0-.068-.005-.137-.008-.2-.041-.985-.057-2.066-.057-2.066l3.021-2.1,1.133-.869c0,.021.177,1.065.178,1.219C2276.582,1105.354,2278.053,1106.556,2278.053,1106.556Z" transform="translate(-2216.71 -1092.32)" fill="#ffb27d"/>
      <path id="Trazado_126114" data-name="Trazado 126114" d="M2232.688,1177.09c.053,6.2.467,20.718.771,21.014,3.231,3.119,17.445-.855,18.2-4.292s-2.864-44.063-8.384-45.686c-1.145-.336-7.269,1.643-7.269,1.643a38.856,38.856,0,0,0-1.59,5.713c-.233,1.186-1,9.648-1.44,15.3-.118,1.507-.214,2.815-.27,3.732C2232.683,1174.9,2232.677,1175.819,2232.688,1177.09Z" transform="translate(-2181.64 -1133.956)" fill="#8c9df4"/>
      <path id="Trazado_126115" data-name="Trazado 126115" d="M2276.185,1108.473c-.44,1.448-2.959,3.22-4.022,3.905,0-.068-.005-.137-.008-.2-.041-.985-.075-2.976-.075-2.976l3.039-1.185C2275.868,1107.82,2276.366,1107.877,2276.185,1108.473Z" transform="translate(-2216.571 -1098.337)" fill="#fca56b"/>
      <path id="Trazado_126116" data-name="Trazado 126116" d="M2257.76,1049.728s5.643,1.76,6.685-1.771,2.472-5.682-1.087-6.955-4.66-.133-5.294.961S2256.319,1049.179,2257.76,1049.728Z" transform="translate(-2203.249 -1038.513)" fill="#ffb27d"/>
      <path id="Trazado_126117" data-name="Trazado 126117" d="M2263.767,1026.545s.36,4.109,1.21,3.93,1.971-.208,1.846,1.031,1.047,3.34,1.827,3.335c2.628-.016,5.522-7.085,4.8-8.364C2271.377,1022.788,2260.767,1022.044,2263.767,1026.545Z" transform="translate(-2208.731 -1023.434)" fill="#163560"/>
      <path id="Trazado_126118" data-name="Trazado 126118" d="M2263.5,1135.665c.073-.031,4.2-1.882,4.683-1.723s1.084,1.634,1.084,1.634l-7.269,1.643A3.609,3.609,0,0,1,2263.5,1135.665Z" transform="translate(-2207.636 -1121.406)" fill="#6980e0"/>
      <g id="Grupo_59820" data-name="Grupo 59820" transform="translate(0 2.602)">
        <path id="Trazado_126119" data-name="Trazado 126119" d="M2037.914,1307.892l21.223,22.539a1.114,1.114,0,0,0,1.57.016l1.444-1.358a1.115,1.115,0,0,0,.08-1.568l-21.265-22.58c-.41-.436-.766-.093-1.22.334l-1.444,1.358C2037.848,1307.059,2037.5,1307.456,2037.914,1307.892Z" transform="translate(-2008.789 -1275.451)" fill="#1f4d84"/>
        <path id="Trazado_126120" data-name="Trazado 126120" d="M2141.984,1418.721l9.557,10.158a1.136,1.136,0,0,0,1.6.049l1.444-1.358a1.136,1.136,0,0,0,.049-1.6l-9.556-10.158Z" transform="translate(-2101.224 -1373.931)" fill="#ed7d2b"/>
        <path id="Trazado_126121" data-name="Trazado 126121" d="M1787.357,1076.954a18.137,18.137,0,1,0,.782-25.636c-.1.091-.191.182-.284.275A18.134,18.134,0,0,0,1787.357,1076.954Zm1.556-24.814a17.011,17.011,0,1,1-.732,24.04A16.933,16.933,0,0,1,1788.913,1052.139Z" transform="translate(-1782.43 -1046.391)" fill="#163560"/>
        <g id="Grupo_59819" data-name="Grupo 59819" transform="translate(1.13 1.13)" opacity="0.3">
          <path id="Trazado_126122" data-name="Trazado 126122" d="M1797.016,1085.014a17.015,17.015,0,1,0,.733-24.04A16.923,16.923,0,0,0,1797.016,1085.014Z" transform="translate(-1792.396 -1056.355)" fill="#b3cff9"/>
        </g>
      </g>
      <path id="Trazado_126123" data-name="Trazado 126123" d="M2232.688,1234.248c13.486-9.133,12.387-21.694,12.387-21.694-5.262,2.969-10.478,10-12.1,15.389-.118,1.507-.214,2.815-.27,3.732C2232.683,1232.054,2232.677,1232.977,2232.688,1234.248Z" transform="translate(-2181.64 -1191.115)" fill="#6980e0"/>
      <g id="Grupo_59821" data-name="Grupo 59821" transform="translate(35.498 15.813)">
        <path id="Trazado_126124" data-name="Trazado 126124" d="M2099.23,1355.278a3.482,3.482,0,0,1-1.628-1.006s-.383.026.063.844c.037.069.12.244.183.369a.079.079,0,0,1-.067.114,8.492,8.492,0,0,0-2.04.043c-.138.029-.178.359-.173.5a1.275,1.275,0,0,0,.269.871,4.455,4.455,0,0,0,1.611.844,4.87,4.87,0,0,0,2.493-.313l.816-.378-.253-1.517-.205.043C2099.973,1355.759,2099.57,1355.361,2099.23,1355.278Z" transform="translate(-2095.568 -1332.58)" fill="#ffb27d"/>
        <path id="Trazado_126125" data-name="Trazado 126125" d="M2155.5,1162.926s11.456,2.181-3.371,18.771c-2.371,2.653-15.183,6.108-15.183,6.108s-1.3-1.105-.645-2c0,0,8.821-6.405,10.762-7.424.873-.458,3.388-10.224,4.812-12.576A6.416,6.416,0,0,1,2155.5,1162.926Z" transform="translate(-2131.525 -1162.926)" fill="#8c9df4"/>
      </g>
      <path id="Trazado_126126" data-name="Trazado 126126" d="M2100.174,1195.674a5.849,5.849,0,0,1-.448-1.094,6.048,6.048,0,0,0-.739-1.673c-.078-.078-.334.023-.365.357a1.947,1.947,0,0,0,.184.725,8.15,8.15,0,0,1,.242,1.44C2099.226,1196.005,2100.174,1195.674,2100.174,1195.674Z" transform="translate(-2062.776 -1173.673)" fill="#ffb27d"/>
    </g>
    <g id="Grupo_59824" data-name="Grupo 59824" transform="translate(355.07 383.708)">
      <path id="Trazado_126127" data-name="Trazado 126127" d="M1464.305,1345.555a3.038,3.038,0,0,0-5.476-.726,2.749,2.749,0,0,0-.41,1.381c-.074,2.9,5.654,14.147,6.414,15.141,1.384,1.81,9.739,6.164,9.739,6.164l1.776-.259a13.163,13.163,0,0,1-2.043-1.668c-2.147-2.143-5.276-5.627-5.849-6.11C1467.472,1358.65,1465.77,1350.258,1464.305,1345.555Z" transform="translate(-1427.089 -1330.377)" fill="#ed985f"/>
      <path id="Trazado_126128" data-name="Trazado 126128" d="M1488.455,1236.64a28.461,28.461,0,0,0-4.261,2.083c-1.922,2.133-1.374,4.916-.274,4.942.706.017.569,1.19.569,1.19l7.86-3.325S1491.4,1236.012,1488.455,1236.64Z" transform="translate(-1448.815 -1235.672)" fill="#233862"/>
      <path id="Trazado_126129" data-name="Trazado 126129" d="M1444.5,1229.889s-2.626-2.708-5.482-.587c-2.476,1.839-.327,4.738-3.431,5.749-1.547.5-4.071,1.612-3.127,6.044.636,2.983,10.028,6.087,9.477,8.595,0,0,3.2-5,.844-7.448-1.119-1.164-2.531-4.093-2.406-4.567S1444.5,1229.889,1444.5,1229.889Z" transform="translate(-1403.892 -1228.49)" fill="#233862"/>
      <path id="Trazado_126130" data-name="Trazado 126130" d="M1304,1489.12l-1.7-.25a20.108,20.108,0,0,1-6.571-13.025,15.152,15.152,0,0,1-.041-2.622.459.459,0,0,0-.059-.289l0,0c-.183-.281-.639-.984-1.255-1.983-.608-.985-1.648-2.847-2.793-4.936-2.062-3.763-4.463-8.263-5.286-9.7-2.624-4.568-1.359-7.64-1.359-7.64s7.32-.724,9.326-2.478l.722,1.114s1.586,7.021,1.511,7.053l.238.729a122.059,122.059,0,0,1,3.476,12.624,20.871,20.871,0,0,1,.549,5.454,9.581,9.581,0,0,0,.13,2C1301.588,1480.207,1304,1489.12,1304,1489.12Z" transform="translate(-1272.996 -1421.516)" fill="#2b478b"/>
      <path id="Trazado_126131" data-name="Trazado 126131" d="M1431.175,1812.935h-7.1a3.9,3.9,0,0,1,.2-1.9c.355-.787.861-.812.065-2.047a4.322,4.322,0,0,0,2.926.518,8.692,8.692,0,0,0,1.23,1.873C1428.964,1811.71,1431.032,1811.591,1431.175,1812.935Z" transform="translate(-1396.608 -1743.179)" fill="#2b4570"/>
      <path id="Trazado_126132" data-name="Trazado 126132" d="M1296.725,1455.093c-.62,3.418-2.084,9.108-5.151,10.919-2.062-3.763-4.463-8.263-5.286-9.7-2.624-4.568-1.359-7.64-1.359-7.64s7.32-.724,9.326-2.478l.722,1.114s1.586,7.021,1.511,7.053Z" transform="translate(-1272.996 -1421.516)" fill="#233862"/>
      <path id="Trazado_126133" data-name="Trazado 126133" d="M1208.168,1437.621l.024-1.327c-2.644.333-9.118-3.16-9.118-3.16s-2.766,1.84-3.145,7.094c-.185,2.565-1.354,13.411-1.484,16.65-.047,1.174-.063,2.011-.068,2.346a.008.008,0,0,1,0,0,.462.462,0,0,1-.112.273,15.128,15.128,0,0,0-1.433,2.2c-4.035,7.507-1.925,17.708-1.925,17.708l.937-.238s3.412-10.575,5.641-15.149a9.591,9.591,0,0,1,1.01-1.729,20.863,20.863,0,0,0,2.594-4.829,126.236,126.236,0,0,0,4.387-13.147C1205.558,1444.329,1208.168,1437.621,1208.168,1437.621Z" transform="translate(-1189.416 -1409.935)" fill="#2b478b"/>
      <path id="Trazado_126134" data-name="Trazado 126134" d="M1476.381,1309.219h0a.024.024,0,0,1,0,.006s0,0,0,0-.005.008-.009.013l0,0c-.036.06-.132.209-.274.415q-.02.027-.039.058c-.225.323-.548.767-.923,1.209a6.2,6.2,0,0,1-1.7,1.5h0c-.178-.145-3.418-2.884-3.182-2.784a8.017,8.017,0,0,0,3.62-2.521C1474.411,1306.433,1476.381,1309.219,1476.381,1309.219Z" transform="translate(-1437.561 -1298.113)" fill="#ffb27d"/>
      <path id="Trazado_126135" data-name="Trazado 126135" d="M1480.292,1354.776a21.793,21.793,0,0,1,1.165,2.8c.405,1.3,1.42,5.431,1.42,5.431a6.954,6.954,0,0,1-5,2.248s-1.565-2.45-1.014-4.662S1480.292,1354.776,1480.292,1354.776Z" transform="translate(-1443.336 -1340.46)" fill="#6980e0"/>
      <path id="Trazado_126136" data-name="Trazado 126136" d="M1503.35,1308.266l0,.006s0,0,0,0l-.009.013,0,0c-.039.057-.14.208-.274.415-.013.018-.026.038-.039.058-.225.323-.548.767-.923,1.209-1.527-1.041-1.524-3.007-1.4-4.038l2.654,2.328Z" transform="translate(-1464.53 -1297.158)" fill="#ed985f"/>
      <path id="Trazado_126137" data-name="Trazado 126137" d="M1502.562,1272.315s-4.008-2.23-2.581-4.7,1.871-4.429,4.49-3.11,2.568,2.548,2.292,3.49S1503.641,1272.831,1502.562,1272.315Z" transform="translate(-1463.668 -1260.042)" fill="#ffb27d"/>
      <path id="Trazado_126138" data-name="Trazado 126138" d="M1504.146,1263.925c-.184-1.1-.742-1.2-1.131-1.13a3.205,3.205,0,0,0-3.9-1.492,5.457,5.457,0,0,1-3.159,1.9s.465.865,2.381,1.4a3.276,3.276,0,0,0,1.891-.151,10.7,10.7,0,0,1-2.72,1.025c2.525.231,4.928-2.078,5.177-2.325a3.594,3.594,0,0,1,.2,1.655c-.166.744-.827,2.092-.424,2.266C1502.462,1267.071,1504.422,1265.573,1504.146,1263.925Z" transform="translate(-1460.373 -1257.419)" fill="#233862"/>
      <path id="Trazado_126139" data-name="Trazado 126139" d="M1189.194,1812.534h-7.1a3.9,3.9,0,0,1,.2-1.9c.355-.787.911-1.145.778-2.1a2.555,2.555,0,0,0,2.212.846,7.78,7.78,0,0,0,1.231,1.6C1186.984,1811.31,1189.051,1811.191,1189.194,1812.534Z" transform="translate(-1182.059 -1742.778)" fill="#2b4570"/>
      <path id="Trazado_126140" data-name="Trazado 126140" d="M1246.893,1338.061a17.275,17.275,0,0,1-3.505.635,23.644,23.644,0,0,0-4.8.746,6.418,6.418,0,0,0-1.346.735h0a.4.4,0,0,0-.04.03,4.348,4.348,0,0,0-.556.48,3.044,3.044,0,0,0-.651.966c-.37.914.12,3.449.434,4.835a1.259,1.259,0,0,1-.644,1.4q-1.064.55-2.092,1.016l-.108.048c.007-.141.009-.281.009-.417a12.874,12.874,0,0,0-.12-1.751,7.335,7.335,0,0,1-1.4,2.809c-9.523,3.821-16.176,2.16-16.067.257.376-6.609,4.833-12.23,4.833-12.23,8.312-9.666,25.126-12.211,25.126-12.211s.805-.1,1.777,1.071c1.4,1.682,1.467,2.121,1.467,2.121S1249.579,1337.123,1246.893,1338.061Z" transform="translate(-1212.158 -1314.417)" fill="#8c9df4"/>
      <path id="Trazado_126141" data-name="Trazado 126141" d="M1419.669,1364.042a23.7,23.7,0,0,0-4.8.745,19.678,19.678,0,0,1,2.5-10.8S1419.26,1361.71,1419.669,1364.042Z" transform="translate(-1388.44 -1339.763)" fill="#6980e0"/>
      <path id="Trazado_126142" data-name="Trazado 126142" d="M1372.928,1466.034a1.259,1.259,0,0,1-.644,1.4q-1.064.55-2.092,1.016c-.036-.117-.069-.239-.1-.369a6.43,6.43,0,0,1-.12-1.751,9.505,9.505,0,0,1,3.172-6.093,3.041,3.041,0,0,0-.651.966C1372.124,1462.113,1372.614,1464.648,1372.928,1466.034Z" transform="translate(-1348.659 -1433.962)" fill="#6980e0"/>
      <path id="Trazado_126143" data-name="Trazado 126143" d="M1480.289,1318.41s.732-.926,1.227-.9c0,0,2,2.8,2.017,4.087C1483.533,1321.6,1481.037,1318.28,1480.289,1318.41Z" transform="translate(-1446.481 -1307.422)" fill="#6980e0"/>
      <path id="Trazado_126144" data-name="Trazado 126144" d="M1604.561,1554.282s-1.064.019-1.294-.014a6.86,6.86,0,0,0-.83-.141,3.541,3.541,0,0,0-.851.143.631.631,0,0,1-.127.012h-1.765a1.057,1.057,0,0,1-.371-.4c-.083-.135-.095-.456-.286-.562-1.068-.6,1.776-.259,1.776-.259a11,11,0,0,1,1.95.091A19.491,19.491,0,0,1,1604.561,1554.282Z" transform="translate(-1551.555 -1516.186)" fill="#ed985f"/>
      <path id="Trazado_126145" data-name="Trazado 126145" d="M1606.488,1558.771a8.2,8.2,0,0,1,1.378.513l.311.2s.18-.2-.1-.424a1.361,1.361,0,0,1-.575-.856C1607.484,1557.805,1606.261,1558.15,1606.488,1558.771Z" transform="translate(-1558.348 -1520.674)" fill="#ed985f"/>
      <path id="Trazado_126146" data-name="Trazado 126146" d="M1719.107,1565.4h0a4.619,4.619,0,0,1-4.619-4.619v-29.172h9.238v29.172A4.619,4.619,0,0,1,1719.107,1565.4Z" transform="translate(-1654.13 -1497.245)" fill="#c7d8ff"/>
      <path id="Trazado_126147" data-name="Trazado 126147" d="M1728.393,1709.873h0a3.432,3.432,0,0,1-3.432-3.432v-10.376h6.864v10.376A3.432,3.432,0,0,1,1728.393,1709.873Z" transform="translate(-1663.416 -1643.059)" fill="#d14842"/>
      <path id="Rectángulo_32426" data-name="Rectángulo 32426" d="M0,0H9.238a0,0,0,0,1,0,0V29.172a4.619,4.619,0,0,1-4.619,4.619h0A4.619,4.619,0,0,1,0,29.172V0A0,0,0,0,1,0,0Z" transform="translate(74.15 34.362)" fill="#c7d8ff"/>
      <path id="Trazado_126148" data-name="Trazado 126148" d="M1850.05,1687.352h0a3.432,3.432,0,0,1-3.432-3.432v-13.255h6.864v13.255A3.432,3.432,0,0,1,1850.05,1687.352Z" transform="translate(-1771.281 -1620.538)" fill="#d14842"/>
      <path id="Trazado_126149" data-name="Trazado 126149" d="M1550.616,1382.545h0a4.619,4.619,0,0,1-2.46-6.052l11.343-26.876,8.511,3.592-11.343,26.876A4.619,4.619,0,0,1,1550.616,1382.545Z" transform="translate(-1506.331 -1335.886)" fill="#c7d8ff"/>
      <path id="Trazado_126150" data-name="Trazado 126150" d="M1560.358,1445.057l-.651-.275a3.079,3.079,0,0,1-1.639-4.033l8.183-19.39,7.375.178-9.234,21.881A3.079,3.079,0,0,1,1560.358,1445.057Z" transform="translate(-1515.226 -1399.495)" fill="#d14842"/>
      <path id="Trazado_126151" data-name="Trazado 126151" d="M1552.64,1592.159a4.343,4.343,0,0,0,1.363.833c.589.145,1.258,1.832,1.365,2.073s-.562-.107-.83-.518-.45-.571-.529-.482a3.145,3.145,0,0,0,.493,1.838c.446.625.714,1.178.393,1.142s-2.23-.5-2.623-1.659-.1-1.2-1.007-2.394S1552.64,1592.159,1552.64,1592.159Z" transform="translate(-1509.223 -1550.887)" fill="#ffb27d"/>
      <path id="Trazado_126152" data-name="Trazado 126152" d="M1435.154,1343.473s-4.677.462-5.051,3.5,4.483,15.415,5.179,16.536c1.267,2.04,8.725,9.034,8.725,9.034l1.375-.833s-5.291-8.957-6.11-9.795C1437.987,1360.6,1436.738,1344.526,1435.154,1343.473Z" transform="translate(-1401.966 -1330.438)" fill="#ffb27d"/>
      <path id="Trazado_126153" data-name="Trazado 126153" d="M1433.7,1345.909s.48-7.835-5.516-5.94.931,15.37.931,15.37,3.52-.174,4.768-3.245Z" transform="translate(-1398.117 -1327.069)" fill="#8c9df4"/>
      <g id="Grupo_59823" data-name="Grupo 59823" transform="translate(45.298 64.169)">
        <rect id="Rectángulo_32427" data-name="Rectángulo 32427" width="41.923" height="1.509" fill="#94b0ed"/>
        <rect id="Rectángulo_32428" data-name="Rectángulo 32428" width="1.963" height="4.851" transform="translate(0 1.138)" fill="#94b0ed"/>
        <rect id="Rectángulo_32429" data-name="Rectángulo 32429" width="2.236" height="5.989" transform="translate(39.687)" fill="#94b0ed"/>
      </g>
      <path id="Trazado_126154" data-name="Trazado 126154" d="M1719.375,1527.773h-9.265a.411.411,0,0,1-.41-.41h0a.411.411,0,0,1,.41-.41h9.265a.411.411,0,0,1,.41.41h0A.411.411,0,0,1,1719.375,1527.773Z" transform="translate(-1649.885 -1493.119)" fill="#abc1ef"/>
      <path id="Trazado_126155" data-name="Trazado 126155" d="M1842.091,1527.773h-9.264a.411.411,0,0,1-.41-.41h0a.411.411,0,0,1,.41-.41h9.264a.411.411,0,0,1,.41.41h0A.411.411,0,0,1,1842.091,1527.773Z" transform="translate(-1758.69 -1493.119)" fill="#abc1ef"/>
      <path id="Trazado_126156" data-name="Trazado 126156" d="M1654.376,1351.86l-8.705-3.171a.411.411,0,0,1-.245-.525h0a.411.411,0,0,1,.525-.245l8.7,3.171a.411.411,0,0,1,.245.525h0A.411.411,0,0,1,1654.376,1351.86Z" transform="translate(-1592.875 -1334.359)" fill="#abc1ef"/>
    </g>
    <g id="Grupo_59833" data-name="Grupo 59833" transform="translate(280.426 386.758)">
      <path id="Trazado_126157" data-name="Trazado 126157" d="M843.376,1783.6c-.1.276-8.328.586-8.366-.285,0-.014,0-.029,0-.044s0-.047,0-.074a2.379,2.379,0,0,1,.019-.27.01.01,0,0,1,0-.006c.023-.171.06-.341.1-.508a5.744,5.744,0,0,1,.258-.739,3.014,3.014,0,0,0,.279-1.169c-.059-1.2-.49-3.716-.49-3.716l2.367-.263a20.966,20.966,0,0,0,.823,4.255,4.493,4.493,0,0,0,2.8,1.959c.126.036.252.072.377.106C842.535,1783.124,843.468,1783.36,843.376,1783.6Z" transform="translate(-799.708 -1717.453)" fill="#f4a36c"/>
      <path id="Trazado_126158" data-name="Trazado 126158" d="M843.456,1823.876c-.1.276-.873.89-2.821.806s-1.568-.427-2.964-.306-2.622.075-2.661-.8c0-.014,0-.029,0-.044,0-.084.008-.2.021-.343a.01.01,0,0,1,0-.006c.023-.171.06-.341.1-.508a5.743,5.743,0,0,1,.258-.739c.883.234,2.053,1.281,3.276,1.44a6.684,6.684,0,0,0,2.864-.251l.013-.017C842.725,1823.326,843.549,1823.631,843.456,1823.876Z" transform="translate(-799.708 -1757.715)" fill="#0f2549"/>
      <g id="Grupo_59826" data-name="Grupo 59826" transform="translate(38.224 20.425)">
        <path id="Trazado_126159" data-name="Trazado 126159" d="M908.889,1445.393h0a1.343,1.343,0,0,1-1.342-1.343v-8.479h2.685v8.479A1.342,1.342,0,0,1,908.889,1445.393Z" transform="translate(-902.247 -1435.572)" fill="#cde3fd"/>
        <path id="Trazado_126160" data-name="Trazado 126160" d="M911.587,1487.383h0a1,1,0,0,1-1-1v-3.016h1.995v3.016A1,1,0,0,1,911.587,1487.383Z" transform="translate(-904.945 -1477.951)" fill="#94b7ea"/>
        <path id="Trazado_126161" data-name="Trazado 126161" d="M944.248,1445.393h0a1.342,1.342,0,0,1-1.342-1.343v-8.479h2.685v8.479A1.342,1.342,0,0,1,944.248,1445.393Z" transform="translate(-933.597 -1435.572)" fill="#cde3fd"/>
        <path id="Trazado_126162" data-name="Trazado 126162" d="M946.946,1480.838h0a1,1,0,0,1-1-1v-3.853h1.995v3.853A1,1,0,0,1,946.946,1480.838Z" transform="translate(-936.295 -1471.406)" fill="#94b7ea"/>
        <path id="Trazado_126163" data-name="Trazado 126163" d="M876.9,1445.393h0a1.342,1.342,0,0,1-1.342-1.343v-8.479h2.685v8.479A1.343,1.343,0,0,1,876.9,1445.393Z" transform="translate(-873.881 -1435.572)" fill="#cde3fd"/>
        <path id="Trazado_126164" data-name="Trazado 126164" d="M879.594,1480.838h0a1,1,0,0,1-1-1v-3.853h1.995v3.853A1,1,0,0,1,879.594,1480.838Z" transform="translate(-876.579 -1471.406)" fill="#94b7ea"/>
        <g id="Grupo_59825" data-name="Grupo 59825" transform="translate(0 8.407)">
          <rect id="Rectángulo_32430" data-name="Rectángulo 32430" width="0.755" height="2.242" fill="#77a4e5"/>
          <rect id="Rectángulo_32431" data-name="Rectángulo 32431" width="0.755" height="2.242" transform="translate(12.912)" fill="#77a4e5"/>
          <rect id="Rectángulo_32432" data-name="Rectángulo 32432" width="13.667" height="0.655" fill="#77a4e5"/>
        </g>
      </g>
      <path id="Trazado_126165" data-name="Trazado 126165" d="M633.417,1255.866a4.426,4.426,0,0,0-3.142-.3c-3.36,1.032-1.741,3.793-3.443,4.9s-3.259,4.489-2.185,6.22,2.647,3.207,3.6,2.026a7.92,7.92,0,0,0,1.92-5.055c.007-2.02.818-6.125,2.207-5.81S633.417,1255.866,633.417,1255.866Z" transform="translate(-612.879 -1255.399)" fill="#233862"/>
      <path id="Trazado_126166" data-name="Trazado 126166" d="M686.578,1261.91s-1.621-3.619-4.978-2.981-3.818,6.932-1.606,7.743C681.533,1267.237,686.578,1261.91,686.578,1261.91Z" transform="translate(-661.063 -1258.462)" fill="#233862"/>
      <path id="Trazado_126167" data-name="Trazado 126167" d="M558.055,1438.418h-9.222l-5.6-19.359a5.831,5.831,0,0,0-5.468-4.209l-9.7-.169a4.188,4.188,0,0,0-4.383,4.836l2.6,43.568a.536.536,0,0,0,.542.574h.04a.35.35,0,0,0,.36-.291l.383-21.5H544.2l3.075,21.5a.35.35,0,0,0,.36.291h.04a.537.537,0,0,0,.542-.574l-2.125-21.219h11.965a.8.8,0,0,0,.8-.8v-1.856A.8.8,0,0,0,558.055,1438.418Z" transform="translate(-523.614 -1396.623)" fill="#94b0ed" opacity="0.5"/>
      <path id="Trazado_126168" data-name="Trazado 126168" d="M653.332,1417.389l3.1,7.85s2.989,3.522,5.391,2.387l-7.6-14.761Z" transform="translate(-638.627 -1395.013)" fill="#abddda"/>
      <path id="Trazado_126169" data-name="Trazado 126169" d="M631.619,1509.432c-2.253-2.24-16.246-8.158-20.971-8.664l-5.4-1.974a31.726,31.726,0,0,0-2.236,10.308c-.016,2.349,2.882,3.895.689,3.895,0,0,19.114-.076,19.848,0,1.2.124.525,2.954.921,5.68s5.4,14.172,5.4,14.172a8.746,8.746,0,0,0,2.129.427,2.127,2.127,0,0,0,1.059-.285S634.354,1512.151,631.619,1509.432Z" transform="translate(-594.011 -1471.202)" fill="#233862"/>
      <path id="Trazado_126170" data-name="Trazado 126170" d="M799.858,1785.684c.038.871,8.264.561,8.366.285.091-.245-.841-.48-1.838-.754-.125-.034-.251-.07-.377-.105a4.494,4.494,0,0,1-2.8-1.959,20.977,20.977,0,0,1-.824-4.255l-2.367.263s.432,2.52.491,3.716a7.617,7.617,0,0,1-.537,1.907A3.408,3.408,0,0,0,799.858,1785.684Z" transform="translate(-768.541 -1719.55)" fill="#ffb27d"/>
      <path id="Trazado_126171" data-name="Trazado 126171" d="M802.52,1832.519c1.4-.121,1.016.221,2.964.305s2.719-.53,2.821-.806c.091-.245-.731-.549-1.918-.764l-.013.018a5.464,5.464,0,0,1-2.875.428c-1.3-.169-2.623-.755-3.522-.879a3.408,3.408,0,0,0-.119.9C799.9,1832.594,801.123,1832.639,802.52,1832.519Z" transform="translate(-768.541 -1765.589)" fill="#304f7f"/>
      <path id="Trazado_126172" data-name="Trazado 126172" d="M617.733,1505.487c-1.323-1.383-10.093-4.219-14.541-5.668-1.071-.349-11.483-5.509-11.483-5.509s-1.646,14.709.34,14.729c3.72.037,18.125.693,18.689.733,1.705.122.809,4.069,1.484,7.2.69,3.2,2.687,11.9,2.687,11.9a8.744,8.744,0,0,0,2.129.427,2.129,2.129,0,0,0,1.059-.285S620.4,1508.274,617.733,1505.487Z" transform="translate(-583.422 -1467.226)" fill="#2b478b"/>
      <path id="Trazado_126173" data-name="Trazado 126173" d="M675.928,1328.283s-.084.595-.219,1.331c-.08.441-.179.935-.288,1.38a7.37,7.37,0,0,1-.286.95c-.354.878-.634,1.733-.47,1.907a4.751,4.751,0,0,1-2.9-.585,5.247,5.247,0,0,1-1.367-2.723c.529-.1,1.148-.213,2.233-2.96l.194.125Z" transform="translate(-653.759 -1319.4)" fill="#ffb27d"/>
      <path id="Trazado_126174" data-name="Trazado 126174" d="M693.352,1331.578c-.08.441-.179.935-.288,1.38a6.274,6.274,0,0,1-2.765-3.16Z" transform="translate(-671.403 -1321.365)" fill="#ed975d"/>
      <path id="Trazado_126175" data-name="Trazado 126175" d="M692.386,1285.22s-4.615-.776-4.088-3.642.287-4.9,3.256-4.523,3.338,1.573,3.4,2.573S693.6,1285.348,692.386,1285.22Z" transform="translate(-669.592 -1274.56)" fill="#ffb27d"/>
      <path id="Trazado_126176" data-name="Trazado 126176" d="M689.185,1276.134s-3.052,2.459-5.078,2.6-2.221-.8-2.221-.8a9.228,9.228,0,0,0,1.444-2.256,1.42,1.42,0,0,1,1.2-.8C685.974,1274.8,688.708,1274.838,689.185,1276.134Z" transform="translate(-663.945 -1272.651)" fill="#233862"/>
      <path id="Trazado_126177" data-name="Trazado 126177" d="M729.97,1279.494a7.31,7.31,0,0,1,1.25,1.715,5.614,5.614,0,0,1,.053,2.988s1.646-2.956.819-4.446A1.237,1.237,0,0,0,729.97,1279.494Z" transform="translate(-706.577 -1276.302)" fill="#233862"/>
      <path id="Trazado_126178" data-name="Trazado 126178" d="M605.06,1356.607c0-1.937-2.883-3.764-2.883-3.764s-.7,1.924-4.1-1.61c-.12-.125-8.033,5.1-8.033,5.1s-1.326,6.777-1.618,9.875a76.531,76.531,0,0,0,.23,16.7s11.421,2.034,18.963-9.794c0,0-2.666-6.1-2.666-7.8C604.948,1364.219,605.058,1357.476,605.06,1356.607Z" transform="translate(-580.774 -1340.368)" fill="#8c9df4"/>
      <path id="Trazado_126179" data-name="Trazado 126179" d="M603.012,1497.867s3.227,4.309,12.519,3.555l-4.328-4.1Z" transform="translate(-594.011 -1469.898)" fill="#6980e0"/>
      <path id="Trazado_126180" data-name="Trazado 126180" d="M644.411,1446.584l-1.051,1.357a53.588,53.588,0,0,1-5.449-2.088c-2.27-.9-1.2-6.557-.482-4.64C638.387,1443.766,641.575,1445.144,644.411,1446.584Z" transform="translate(-623.738 -1419.8)" fill="#6980e0"/>
      <g id="Grupo_59828" data-name="Grupo 59828" transform="translate(15.994 9.618)">
        <rect id="Rectángulo_32433" data-name="Rectángulo 32433" width="3.219" height="11.693" transform="translate(17.197 11.896) rotate(155.266)" fill="#314387"/>
        <rect id="Rectángulo_32434" data-name="Rectángulo 32434" width="1.538" height="5.587" transform="matrix(-0.908, 0.418, -0.418, -0.908, 13.26, 5.075)" fill="#314387"/>
        <g id="Grupo_59827" data-name="Grupo 59827" transform="translate(3.759 3.827)">
          <path id="Trazado_126181" data-name="Trazado 126181" d="M698.1,1389.935l2.555-.394a21.656,21.656,0,0,1,.524-8.55c1.244-3.743,5.478-4.432,5.521-4.438L706.31,1374c-.238.036-5.846.951-7.583,6.178A23.952,23.952,0,0,0,698.1,1389.935Z" transform="translate(-697.86 -1373.998)" fill="#314387"/>
        </g>
        <path id="Rectángulo_32435" data-name="Rectángulo 32435" d="M0,0H11.05a0,0,0,0,1,0,0V0a2.94,2.94,0,0,1-2.94,2.94H2.444A2.444,2.444,0,0,1,0,.5V0A0,0,0,0,1,0,0Z" transform="translate(11.05 21.635) rotate(180)" fill="#314387"/>
        <rect id="Rectángulo_32436" data-name="Rectángulo 32436" width="11.958" height="0.862" transform="translate(17.483 16.193) rotate(180)" fill="#314387"/>
        <rect id="Rectángulo_32437" data-name="Rectángulo 32437" width="8.293" height="1.47" transform="translate(17.483 21.635) rotate(180)" fill="#314387"/>
        <rect id="Rectángulo_32438" data-name="Rectángulo 32438" width="2.621" height="0.598" transform="translate(15.042 20.166) rotate(180)" fill="#314387"/>
      </g>
      <g id="Grupo_59829" data-name="Grupo 59829" transform="translate(21.579 27.746)">
        <path id="Trazado_126182" data-name="Trazado 126182" d="M746.585,1508.219a5.919,5.919,0,0,0,.85.925.626.626,0,0,0,.346.074l-.432-.777Z" transform="translate(-742.887 -1507.304)" fill="#ffb27d"/>
        <path id="Trazado_126183" data-name="Trazado 126183" d="M745.28,1500.715l1.862.9a.332.332,0,0,1-.309.119,4.443,4.443,0,0,1-.807-.222Z" transform="translate(-741.73 -1500.651)" fill="#ffb27d"/>
        <path id="Trazado_126184" data-name="Trazado 126184" d="M713.968,1500.625s3.057-.681,3.55-.409a7.182,7.182,0,0,1,1.849,1.6c.151.344-1.1-.261-1.5-.37a3.617,3.617,0,0,0-1.3.284,4.315,4.315,0,0,1-2.326.233Z" transform="translate(-713.968 -1500.151)" fill="#ffb27d"/>
      </g>
      <g id="Grupo_59832" data-name="Grupo 59832" transform="translate(10.71 31.057)">
        <rect id="Rectángulo_32439" data-name="Rectángulo 32439" width="43.285" height="1.222" transform="translate(0.764)" fill="#2557a0"/>
        <g id="Grupo_59830" data-name="Grupo 59830" transform="translate(41.3 0.866)">
          <path id="Trazado_126185" data-name="Trazado 126185" d="M984.964,1572.76c-.089-.127-.276-.392-1.445-18.129-.576-8.736-1.112-17.519-1.117-17.607l.457-.028c.584,9.574,2.17,34.62,2.5,35.532a.132.132,0,0,0-.018-.032Z" transform="translate(-982.402 -1536.996)" fill="#2557a0"/>
        </g>
        <g id="Grupo_59831" data-name="Grupo 59831" transform="translate(0 0.865)">
          <path id="Trazado_126186" data-name="Trazado 126186" d="M618.482,1572.561l-.375-.264a.153.153,0,0,0-.018.031c.328-.908,1.971-25.818,2.577-35.339l.457.029c-.005.087-.562,8.822-1.157,17.51C618.758,1572.17,618.572,1572.434,618.482,1572.561Z" transform="translate(-618.09 -1536.99)" fill="#2557a0"/>
        </g>
      </g>
      <path id="Trazado_126187" data-name="Trazado 126187" d="M602.515,1351.251s-4.664,0-6.212,1.548c-2.426,2.428-4.278,13.046-2.506,15.178,2,2.4,13.335,2.526,13.335,2.526s.272-.494-.335-1.9c-.127-.295-7.406-3.221-7.626-3.61a31.518,31.518,0,0,1-.167-6.77C599.254,1357.311,602.515,1351.251,602.515,1351.251Z" transform="translate(-585.217 -1340.385)" fill="#8c9df4"/>
    </g>
    <g id="Grupo_59836" data-name="Grupo 59836" transform="translate(386.535 275.695)">
      <g id="Grupo_59834" data-name="Grupo 59834" transform="translate(0 0)">
        <path id="Trazado_126188" data-name="Trazado 126188" d="M1648.151,690.492a.665.665,0,0,1,.119.712l0,0a4.428,4.428,0,0,1-1.4,1.534c-.084.068-.159.13-.224.187l-.05.045-.039.035c-.615.567-.383.7-1.488,1.846-1.259,1.31-2.126,1.333-2.372,1.214-.209-.1.215-.8.685-1.577l.069-.114c.062-.1.125-.209.187-.314.551-.94.409-1.381.279-2.779-.106-1.137-1.768-6.35-1.768-6.35l2.413-.416s.727,4.151,1.527,4.79c.428.341.907.345,1.319.6l.086.054A3.169,3.169,0,0,1,1648.151,690.492Z" transform="translate(-1621.455 -638.173)" fill="#ffb27d"/>
        <path id="Trazado_126189" data-name="Trazado 126189" d="M1652.022,733.056a.665.665,0,0,1,.119.712.005.005,0,0,1,0,0,5.123,5.123,0,0,1-1.4,1.529c-.083.069-.157.133-.222.192l-.05.045-.039.035c-.615.567-.383.7-1.487,1.846-1.259,1.31-2.126,1.333-2.373,1.214-.208-.1.215-.8.685-1.577a5.367,5.367,0,0,0,2.244-1.654c.73-.932,1.227-2.12,1.724-2.85l.142-.026A3.167,3.167,0,0,1,1652.022,733.056Z" transform="translate(-1625.326 -680.737)" fill="#233862"/>
        <path id="Trazado_126190" data-name="Trazado 126190" d="M1466.862,683.242c-.149.745-1.211.62-2.4.331s-.9.055-2.592-.132-2.2-.816-2.251-1.067c-.046-.223.788-.3,1.683-.4l.338-.04a7.3,7.3,0,0,0,2.667-1.314,10.719,10.719,0,0,0,2.166-2.573l2.315.183s-1.215,1.845-1.685,2.647a2.8,2.8,0,0,0-.227,1.578A2.964,2.964,0,0,1,1466.862,683.242Z" transform="translate(-1459.621 -632.43)" fill="#ffb27d"/>
        <path id="Trazado_126191" data-name="Trazado 126191" d="M1464.466,714.287c-1.186-.29-.9.055-2.592-.132s-2.2-.816-2.251-1.067c-.046-.223.788-.3,1.683-.4l.008.017a4.757,4.757,0,0,0,2.417.751c1.145.028,2.358-.3,3.149-.287a2.964,2.964,0,0,1-.018.792C1466.713,714.7,1465.652,714.577,1464.466,714.287Z" transform="translate(-1459.621 -663.144)" fill="#233862"/>
        <path id="Trazado_126192" data-name="Trazado 126192" d="M1601.755,564.317l2.164,5.823,2.825,7.6a4.575,4.575,0,0,0,1.5-.137,6.5,6.5,0,0,0,1.452-.706s-.784-8.164-2.248-12.85a8.347,8.347,0,0,0-1.259-2.724C1603.921,558.645,1601.755,564.317,1601.755,564.317Z" transform="translate(-1585.642 -528.307)" fill="#233862"/>
        <path id="Trazado_126193" data-name="Trazado 126193" d="M1521.077,502.666c1.232-.4,4.446-.006,7.932.625a2.365,2.365,0,0,0,2.442-1.1h0l8.773-.685s3.5,6.948.889,10.476c-1.523,2.062-6.655,1.766-8.21,1.448-4.274-.876-9.133-3.415-9.764-3.541-1.031-.206-1.444,1.856-2.475,4.022s-9.695,9.592-9.695,9.592a7.63,7.63,0,0,1-1.882-.193,1.855,1.855,0,0,1-.808-.51S1517.88,503.7,1521.077,502.666Z" transform="translate(-1502.764 -475.905)" fill="#2b478b"/>
        <path id="Trazado_126194" data-name="Trazado 126194" d="M1691.156,454.254c-.038,5.041-1.339,7.358-1.339,7.358a16.577,16.577,0,0,1-13.795-11.9,4.071,4.071,0,0,0,3.306-1.494l9.508-6.066.578-.369.595-.379s.178.961.395,2.51a79.22,79.22,0,0,1,.732,8.425C1691.154,452.972,1691.162,453.613,1691.156,454.254Z" transform="translate(-1651.491 -422.616)" fill="#8c9df4"/>
        <path id="Trazado_126195" data-name="Trazado 126195" d="M1695.294,289.9c3.124,1.72,9.462,5.286,9.5,5.263,0,0,2.329.878,3.651,0,2.2-1.463,3.384-5.4-.644-8.788-2.009-1.69-3.436-2.1-3.653-4.8-.118-1.47-2.135-6.333-5.483-5.842a4.655,4.655,0,0,1-.809.049,3.112,3.112,0,0,0-1.676.436C1694.293,277.335,1690.61,289.231,1695.294,289.9Z" transform="translate(-1666.555 -275.695)" fill="#152949"/>
        <path id="Trazado_126196" data-name="Trazado 126196" d="M1733.111,349.628a4.13,4.13,0,0,0,2.574.079,4.59,4.59,0,0,0,1.7-2.037c-.444-.021-.95-.73-1.306-2.954l-.189.068-3.177,1.143s.23,1.02.379,1.99C1733.218,348.732,1733.285,349.512,1733.111,349.628Z" transform="translate(-1701.754 -336.891)" fill="#ffb27d"/>
        <path id="Trazado_126197" data-name="Trazado 126197" d="M1732.713,346.456s.127.55.312,1.578a3.588,3.588,0,0,0,2.865-2.721Z" transform="translate(-1701.754 -337.421)" fill="#ed975d"/>
        <path id="Trazado_126198" data-name="Trazado 126198" d="M1711.081,304.515s4.347-.583,3.942-3.285-.117-4.6-2.91-4.338-3.176,1.37-3.26,2.3S1709.94,304.6,1711.081,304.515Z" transform="translate(-1680.596 -294.468)" fill="#ffb27d"/>
        <path id="Trazado_126199" data-name="Trazado 126199" d="M1710.284,295.848s2.783,2.4,4.676,2.592a3.629,3.629,0,0,0,2.61-.414,7.392,7.392,0,0,1-1.787-2.421,1.332,1.332,0,0,0-1.1-.785C1713.333,294.7,1710.771,294.649,1710.284,295.848Z" transform="translate(-1681.868 -292.6)" fill="#152949"/>
        <path id="Trazado_126200" data-name="Trazado 126200" d="M1708.05,298.379a6.855,6.855,0,0,0-1.224,1.568,5.263,5.263,0,0,0-.143,2.8s-1.45-2.821-.629-4.191A1.159,1.159,0,0,1,1708.05,298.379Z" transform="translate(-1677.894 -295.347)" fill="#152949"/>
        <path id="Trazado_126201" data-name="Trazado 126201" d="M1703.927,378.2c.131,8.8.036,6.961,1,7.8a3.7,3.7,0,0,0,1.742.378c2.7.179,7.442-.265,7.623-.764.622-1.725.183-2.262.7-4.9.054-.281.121-.585.2-.916.433-1.814.854-2.432-.682-5.347a23.823,23.823,0,0,0-2.943-4.724c-3.675,2.182-4,.366-4,.366S1703.863,373.9,1703.927,378.2Z" transform="translate(-1676.231 -359.055)" fill="#8c9df4"/>
        <path id="Trazado_126202" data-name="Trazado 126202" d="M1620.844,597.072l2.825,7.6a4.578,4.578,0,0,0,1.5-.137,6.506,6.506,0,0,0,1.452-.706s-.784-8.164-2.248-12.85Z" transform="translate(-1602.567 -555.239)" fill="#2b478b"/>
        <path id="Trazado_126203" data-name="Trazado 126203" d="M1691.11,372.955s-3.334.488-3.81,2.327c-.423,1.634-1.937,10.893-1.937,10.893s.682,1.6,1.57.714,2.795-9.247,2.795-9.247Z" transform="translate(-1659.772 -361.929)" fill="#8c9df4"/>
        <path id="Trazado_126204" data-name="Trazado 126204" d="M1718.829,504.895a5.14,5.14,0,0,1-.741.805.545.545,0,0,1-.3.065l.376-.677Z" transform="translate(-1688.52 -478.912)" fill="#ffb27d"/>
        <path id="Trazado_126205" data-name="Trazado 126205" d="M1715.429,498.359l-1.622.788a.289.289,0,0,0,.269.1,3.861,3.861,0,0,0,.7-.193Z" transform="translate(-1684.991 -473.117)" fill="#ffb27d"/>
        <path id="Trazado_126206" data-name="Trazado 126206" d="M1747.718,452.241c-2.508-.2-8.837-2.331-7.755-3.837.5-.7,3.852-1.006,5.583-3.213.466-.595-.058-2.217-.127-3.137-.029-.4-.009-.683.127-.748s.286.106.451.379a13.717,13.717,0,0,1,.906,2.15l.083-.02A79.215,79.215,0,0,1,1747.718,452.241Z" transform="translate(-1708.073 -422.521)" fill="#6980e0"/>
        <path id="Trazado_126207" data-name="Trazado 126207" d="M1718.52,498.28s-2.662-.593-3.092-.356a6.257,6.257,0,0,0-1.611,1.4c-.131.3.956-.227,1.31-.322a3.15,3.15,0,0,1,1.131.248,3.757,3.757,0,0,0,2.026.2Z" transform="translate(-1684.991 -472.682)" fill="#ffb27d"/>
        <path id="Trazado_126208" data-name="Trazado 126208" d="M1752.7,369.731s3.55.236,4.787,1.962c1.742,2.43,3.612,12.819,1.631,14.2-2.23,1.555-8.565.372-8.565.372s-.594-1.762.1-1.828c1.887-.18,5.575-.965,5.54-1.789-.053-1.252-2.377-5.408-2.377-6.233S1752.7,369.731,1752.7,369.731Z" transform="translate(-1717.367 -359.071)" fill="#8c9df4"/>
      </g>
      <g id="Grupo_59835" data-name="Grupo 59835" transform="translate(12.88 17.871)">
        <path id="Trazado_126209" data-name="Trazado 126209" d="M1605.951,514.69h16.94v.374H1606.1Z" transform="translate(-1602.242 -505.468)" fill="#f99746"/>
        <path id="Trazado_126210" data-name="Trazado 126210" d="M1589.923,442.932h-12.829l-3.859-9.6h12.809Z" transform="translate(-1573.235 -433.335)" fill="#f99746"/>
        <path id="Trazado_126211" data-name="Trazado 126211" d="M1635.65,470.885a.444.444,0,0,1,.436-.611.875.875,0,0,1,.786.611.445.445,0,0,1-.436.611A.875.875,0,0,1,1635.65,470.885Z" transform="translate(-1628.552 -466.086)" fill="#fff"/>
      </g>
    </g>
    <g id="Grupo_59856" data-name="Grupo 59856" transform="translate(306.875 299.681)">
      <rect id="Rectángulo_32440" data-name="Rectángulo 32440" width="71.886" height="48.135" rx="24.068" transform="translate(0 0)" fill="#aec3ff" opacity="0.8"/>
      <g id="Grupo_59846" data-name="Grupo 59846" transform="translate(6.205 4.674)">
        <path id="Trazado_126212" data-name="Trazado 126212" d="M919.93,529.057s2.088-1.562,5.861.567a4.166,4.166,0,0,1,2.4,2.679,3.507,3.507,0,0,0,.667,1.4,4.4,4.4,0,0,1,.951,2.392,4.124,4.124,0,0,0,.5,1.651,5.085,5.085,0,0,1,.542,2.951s1.207,1.32.528,4.263a4.231,4.231,0,0,1-.695,3.508,2.68,2.68,0,0,1-1.493,2.834,4.321,4.321,0,0,1-3.787,2.342,3.625,3.625,0,0,0-1.195.269,4.515,4.515,0,0,1-2.9.063c-2.263-.6-2.036-2-2.036-2V529.4Z" transform="translate(-907.062 -528.505)" fill="#9db0f4"/>
        <path id="Trazado_126213" data-name="Trazado 126213" d="M823.317,529.057s-2.088-1.562-5.86.567a4.128,4.128,0,0,0-2.428,2.817,2.529,2.529,0,0,1-.557,1.16,4.4,4.4,0,0,0-1.045,2.7,2.629,2.629,0,0,1-.389,1.281,4.774,4.774,0,0,0-.662,2.459,2.621,2.621,0,0,1-.273,1.128,5.591,5.591,0,0,0-.229,3.789,4.27,4.27,0,0,0,.323,2.912,3.454,3.454,0,0,1,.365,1.265,2.513,2.513,0,0,0,1,1.9,3.578,3.578,0,0,1,.837.825,4.377,4.377,0,0,0,3.286,1.771,5.354,5.354,0,0,1,1.449.315,4.59,4.59,0,0,0,2.809.027c2.263-.6,2.036-2,2.036-2V529.4Z" transform="translate(-811.666 -528.505)" fill="#9db0f4"/>
        <g id="Grupo_59845" data-name="Grupo 59845" transform="translate(1.169 0.891)">
          <path id="Trazado_126214" data-name="Trazado 126214" d="M855.36,617.911a3.441,3.441,0,0,1-2.605-1.879l-.008-.013a1.144,1.144,0,0,1,.381-1.525.971.971,0,0,0,.249-.218,5.023,5.023,0,0,1-2.431-.393,3.662,3.662,0,0,1-1.309-1,2.355,2.355,0,0,0,.723,1.342,2.511,2.511,0,0,0,.949.47c.329.073.468.4.59.719a6.428,6.428,0,0,0,.407.861,4.772,4.772,0,0,0,1.01,1.257,2.941,2.941,0,0,0-1.376,1.253,2.774,2.774,0,0,0-.333.957,4.127,4.127,0,0,1,.853-1.059,2.624,2.624,0,0,1,1.876-.663A4.43,4.43,0,0,0,855.36,617.911Z" transform="translate(-846.502 -604.205)" fill="#496bad" opacity="0.8"/>
          <g id="Grupo_59837" data-name="Grupo 59837" transform="translate(2.512 14.346)">
            <path id="Trazado_126215" data-name="Trazado 126215" d="M846.53,666.249q-.078,0-.157,0a2.3,2.3,0,0,1-1.749-.966,2.145,2.145,0,0,1-.276-2.293l.009-.019c.1-.219.162.191.149.432a2.6,2.6,0,0,0,.877,1.753,3.634,3.634,0,0,0,2.237.515c.268.009.495.027.255.19A2.556,2.556,0,0,1,846.53,666.249Z" transform="translate(-844.136 -662.905)" fill="#496bad" opacity="0.8"/>
          </g>
          <g id="Grupo_59838" data-name="Grupo 59838" transform="translate(6.866 6.045)">
            <path id="Trazado_126216" data-name="Trazado 126216" d="M883.776,592.674q-.057-.02-.113-.044a1.779,1.779,0,0,1-1.027-1.159,1.662,1.662,0,0,1,.393-1.746l.011-.011c.132-.133.069.181,0,.355a2.013,2.013,0,0,0,.186,1.507,2.815,2.815,0,0,0,1.5.956c.194.076.354.148.137.2A1.982,1.982,0,0,1,883.776,592.674Z" transform="translate(-882.543 -589.682)" fill="#496bad" opacity="0.8"/>
          </g>
          <g id="Grupo_59839" data-name="Grupo 59839" transform="translate(0.739 17.833)">
            <path id="Trazado_126217" data-name="Trazado 126217" d="M831.211,696.272a.525.525,0,0,1-.7-.187,11.572,11.572,0,0,0-2.02-2.414h0a6.478,6.478,0,0,1,2.715,2.6Z" transform="translate(-828.496 -693.671)" fill="#496bad" opacity="0.8"/>
          </g>
          <path id="Trazado_126218" data-name="Trazado 126218" d="M888.7,688.147a1.48,1.48,0,0,1-.444-1.219,5.751,5.751,0,0,1,.172-1.173,1.955,1.955,0,0,0-.5,2.2c-.71-.016-1.124.8-1.124.8a2.635,2.635,0,0,1,.5-.2,1.722,1.722,0,0,1,1-.021,1.287,1.287,0,0,1,.751.785A1.029,1.029,0,0,0,888.7,688.147Z" transform="translate(-879.458 -668.82)" fill="#496bad" opacity="0.8"/>
          <path id="Trazado_126219" data-name="Trazado 126219" d="M848.672,575.193a1.48,1.48,0,0,1,1.153-.593,5.75,5.75,0,0,1,1.185.025,1.954,1.954,0,0,0-2.245-.22c-.073-.707-.93-1.015-.93-1.015a2.634,2.634,0,0,1,.261.472,1.723,1.723,0,0,1,.146.993,1.288,1.288,0,0,1-.685.843A1.03,1.03,0,0,0,848.672,575.193Z" transform="translate(-844.658 -569.192)" fill="#496bad" opacity="0.8"/>
          <path id="Trazado_126220" data-name="Trazado 126220" d="M823.095,639.965a1.481,1.481,0,0,1,1.154-.593,5.761,5.761,0,0,1,1.185.024,1.955,1.955,0,0,0-2.245-.219c-.073-.707-.93-1.015-.93-1.015a2.651,2.651,0,0,1,.261.472,1.724,1.724,0,0,1,.146.993,1.288,1.288,0,0,1-.685.843A1.029,1.029,0,0,0,823.095,639.965Z" transform="translate(-821.98 -626.621)" fill="#496bad" opacity="0.8"/>
          <path id="Trazado_126221" data-name="Trazado 126221" d="M884.792,539.352a1.848,1.848,0,0,0,.555-1.522,7.18,7.18,0,0,0-.215-1.464,2.44,2.44,0,0,1,.622,2.747c.887-.02,1.4.994,1.4.994a3.292,3.292,0,0,0-.626-.25,2.15,2.15,0,0,0-1.253-.025,1.608,1.608,0,0,0-.937.98A1.286,1.286,0,0,1,884.792,539.352Z" transform="translate(-877.212 -536.365)" fill="#496bad" opacity="0.8"/>
          <path id="Trazado_126222" data-name="Trazado 126222" d="M859.858,706.651a1.725,1.725,0,0,0,.518-1.421,6.708,6.708,0,0,0-.2-1.367,2.279,2.279,0,0,1,.581,2.565c.828-.019,1.31.928,1.31.928a3.093,3.093,0,0,0-.584-.233,2.009,2.009,0,0,0-1.17-.024,1.5,1.5,0,0,0-.875.915A1.2,1.2,0,0,1,859.858,706.651Z" transform="translate(-855.135 -684.874)" fill="#496bad" opacity="0.8"/>
          <g id="Grupo_59843" data-name="Grupo 59843" transform="translate(12.216 0.001)">
            <path id="Trazado_126223" data-name="Trazado 126223" d="M939.332,617.911a3.441,3.441,0,0,0,2.605-1.879l.008-.013a1.144,1.144,0,0,0-.381-1.525.971.971,0,0,1-.249-.218,5.023,5.023,0,0,0,2.431-.393,3.663,3.663,0,0,0,1.309-1,2.355,2.355,0,0,1-.723,1.342,2.51,2.51,0,0,1-.948.47c-.329.073-.469.4-.59.719a6.428,6.428,0,0,1-.407.861,4.775,4.775,0,0,1-1.01,1.257,2.94,2.94,0,0,1,1.376,1.253,2.78,2.78,0,0,1,.334.957,4.127,4.127,0,0,0-.853-1.059,2.623,2.623,0,0,0-1.876-.663A4.43,4.43,0,0,1,939.332,617.911Z" transform="translate(-938.245 -604.206)" fill="#496bad" opacity="0.8"/>
            <g id="Grupo_59840" data-name="Grupo 59840" transform="translate(3.592 14.345)">
              <path id="Trazado_126224" data-name="Trazado 126224" d="M962.876,666.249q.078,0,.157,0a2.3,2.3,0,0,0,1.749-.966,2.145,2.145,0,0,0,.276-2.293l-.009-.019c-.1-.219-.162.191-.149.432a2.6,2.6,0,0,1-.878,1.753,3.633,3.633,0,0,1-2.237.515c-.268.009-.495.027-.255.19A2.556,2.556,0,0,0,962.876,666.249Z" transform="translate(-961.429 -662.905)" fill="#496bad" opacity="0.8"/>
            </g>
            <g id="Grupo_59841" data-name="Grupo 59841" transform="translate(0.658 6.044)">
              <path id="Trazado_126225" data-name="Trazado 126225" d="M936.735,592.674q.057-.02.113-.044a1.78,1.78,0,0,0,1.027-1.159,1.662,1.662,0,0,0-.394-1.746l-.011-.011c-.132-.133-.069.181,0,.355a2.011,2.011,0,0,1-.186,1.507,2.816,2.816,0,0,1-1.5.956c-.194.076-.354.148-.137.2A1.982,1.982,0,0,0,936.735,592.674Z" transform="translate(-935.546 -589.682)" fill="#496bad" opacity="0.8"/>
            </g>
            <g id="Grupo_59842" data-name="Grupo 59842" transform="translate(6.186 17.989)">
              <path id="Trazado_126226" data-name="Trazado 126226" d="M984.3,696.651a.525.525,0,0,0,.719.045,11.57,11.57,0,0,1,2.686-1.641h0a6.478,6.478,0,0,0-3.4,1.6Z" transform="translate(-984.305 -695.054)" fill="#496bad" opacity="0.8"/>
            </g>
            <path id="Trazado_126227" data-name="Trazado 126227" d="M932.688,688.147a1.48,1.48,0,0,0,.444-1.219,5.75,5.75,0,0,0-.172-1.173,1.955,1.955,0,0,1,.5,2.2c.71-.016,1.124.8,1.124.8a2.638,2.638,0,0,0-.5-.2,1.723,1.723,0,0,0-1-.021,1.288,1.288,0,0,0-.751.785A1.03,1.03,0,0,1,932.688,688.147Z" transform="translate(-931.985 -668.821)" fill="#496bad" opacity="0.8"/>
            <path id="Trazado_126228" data-name="Trazado 126228" d="M963.768,575.193a1.481,1.481,0,0,0-1.153-.593,5.752,5.752,0,0,0-1.185.025,1.955,1.955,0,0,1,2.245-.22c.073-.707.93-1.015.93-1.015a2.634,2.634,0,0,0-.261.472,1.724,1.724,0,0,0-.146.993,1.288,1.288,0,0,0,.685.843A1.03,1.03,0,0,1,963.768,575.193Z" transform="translate(-957.837 -569.193)" fill="#496bad" opacity="0.8"/>
            <path id="Trazado_126229" data-name="Trazado 126229" d="M989.344,639.965a1.481,1.481,0,0,0-1.153-.593,5.759,5.759,0,0,0-1.185.024,1.955,1.955,0,0,1,2.245-.219c.073-.707.93-1.015.93-1.015a2.642,2.642,0,0,0-.261.472,1.722,1.722,0,0,0-.146.993,1.288,1.288,0,0,0,.685.843A1.03,1.03,0,0,1,989.344,639.965Z" transform="translate(-980.514 -626.622)" fill="#496bad" opacity="0.8"/>
            <path id="Trazado_126230" data-name="Trazado 126230" d="M932.1,539.352a1.848,1.848,0,0,1-.555-1.522,7.18,7.18,0,0,1,.215-1.464,2.441,2.441,0,0,0-.622,2.747c-.887-.02-1.4.994-1.4.994a3.286,3.286,0,0,1,.626-.25,2.15,2.15,0,0,1,1.253-.025,1.608,1.608,0,0,1,.937.98A1.286,1.286,0,0,0,932.1,539.352Z" transform="translate(-929.74 -536.366)" fill="#496bad" opacity="0.8"/>
            <path id="Trazado_126231" data-name="Trazado 126231" d="M958.536,706.651a1.726,1.726,0,0,1-.518-1.421,6.711,6.711,0,0,1,.2-1.367,2.279,2.279,0,0,0-.581,2.565c-.828-.019-1.31.928-1.31.928a3.087,3.087,0,0,1,.584-.233,2.008,2.008,0,0,1,1.169-.024,1.5,1.5,0,0,1,.875.915A1.2,1.2,0,0,0,958.536,706.651Z" transform="translate(-953.314 -684.875)" fill="#496bad" opacity="0.8"/>
          </g>
          <g id="Grupo_59844" data-name="Grupo 59844" transform="translate(10.836)">
            <rect id="Rectángulo_32441" data-name="Rectángulo 32441" width="23.08" height="0.509" transform="translate(0 23.08) rotate(-89.862)" fill="#496bad" opacity="0.8"/>
          </g>
        </g>
      </g>
      <g id="Grupo_59847" data-name="Grupo 59847" transform="translate(32.884 3.623)">
        <rect id="Rectángulo_32442" data-name="Rectángulo 32442" width="19.065" height="1.941" fill="#2b478b"/>
        <rect id="Rectángulo_32443" data-name="Rectángulo 32443" width="15.261" height="0.971" transform="translate(0 4.687)" fill="#9db0f4"/>
        <rect id="Rectángulo_32444" data-name="Rectángulo 32444" width="9.963" height="0.971" transform="translate(0 7.302)" fill="#2b478b"/>
        <rect id="Rectángulo_32445" data-name="Rectángulo 32445" width="9.963" height="0.971" transform="translate(11.455 7.302)" fill="#9db0f4"/>
        <rect id="Rectángulo_32446" data-name="Rectángulo 32446" width="9.204" height="0.971" transform="translate(16.816 4.687)" fill="#2b478b"/>
        <rect id="Rectángulo_32447" data-name="Rectángulo 32447" width="8.848" height="1.941" transform="translate(20.206)" fill="#f78248"/>
      </g>
      <g id="Grupo_59848" data-name="Grupo 59848" transform="translate(5.789 35.085)">
        <rect id="Rectángulo_32448" data-name="Rectángulo 32448" width="15.228" height="1.551" fill="#2b478b"/>
        <rect id="Rectángulo_32449" data-name="Rectángulo 32449" width="12.189" height="0.775" transform="translate(0 3.743)" fill="#9db0f4"/>
        <rect id="Rectángulo_32450" data-name="Rectángulo 32450" width="7.958" height="0.775" transform="translate(0 5.832)" fill="#9db0f4"/>
        <rect id="Rectángulo_32451" data-name="Rectángulo 32451" width="7.958" height="0.775" transform="translate(9.149 5.832)" fill="#2b478b"/>
        <rect id="Rectángulo_32452" data-name="Rectángulo 32452" width="7.351" height="0.775" transform="translate(13.431 3.743)" fill="#9db0f4"/>
        <rect id="Rectángulo_32453" data-name="Rectángulo 32453" width="7.067" height="1.551" transform="translate(16.139)" fill="#f78248"/>
      </g>
      <g id="Grupo_59850" data-name="Grupo 59850" transform="translate(34.738 17.02)">
        <path id="Trazado_126232" data-name="Trazado 126232" d="M1200.752,637.749a1.15,1.15,0,1,1-1.626.01A1.15,1.15,0,0,1,1200.752,637.749Z" transform="translate(-1183.441 -637.417)" fill="#fff"/>
        <path id="Trazado_126233" data-name="Trazado 126233" d="M1158.427,680.174a1.279,1.279,0,1,1-1.809.011A1.279,1.279,0,0,1,1158.427,680.174Z" transform="translate(-1145.718 -675)" fill="#fff"/>
        <path id="Trazado_126234" data-name="Trazado 126234" d="M1110.788,658.144a1.092,1.092,0,1,1-1.544.009A1.092,1.092,0,0,1,1110.788,658.144Z" transform="translate(-1103.762 -655.515)" fill="#fff"/>
        <path id="Trazado_126235" data-name="Trazado 126235" d="M1065.216,684.265a1.092,1.092,0,1,1-1.544.009A1.092,1.092,0,0,1,1065.216,684.265Z" transform="translate(-1063.357 -678.675)" fill="#fff"/>
        <g id="Grupo_59849" data-name="Grupo 59849" transform="translate(1.044 1.083)">
          <path id="Trazado_126236" data-name="Trazado 126236" d="M1072.563,652.17l5.211-2.987,5.534,2.67,4.645-4.883.141.134-4.742,4.986-5.569-2.687-5.122,2.936Z" transform="translate(-1072.563 -646.97)" fill="#fff"/>
        </g>
      </g>
      <g id="Grupo_59852" data-name="Grupo 59852" transform="translate(54.384 16.918)">
        <path id="Trazado_126237" data-name="Trazado 126237" d="M1237.062,694.042a.953.953,0,1,1,1.328-.23A.953.953,0,0,1,1237.062,694.042Z" transform="translate(-1236.657 -685.985)" fill="#fff"/>
        <path id="Trazado_126238" data-name="Trazado 126238" d="M1264.058,652.042a1.06,1.06,0,1,1,1.478-.256A1.061,1.061,0,0,1,1264.058,652.042Z" transform="translate(-1260.553 -648.573)" fill="#fff"/>
        <path id="Trazado_126239" data-name="Trazado 126239" d="M1308.631,665.75a.905.905,0,1,1,1.261-.219A.905.905,0,0,1,1308.631,665.75Z" transform="translate(-1300.131 -660.977)" fill="#fff"/>
        <path id="Trazado_126240" data-name="Trazado 126240" d="M1342.316,638.163a.905.905,0,1,1,1.261-.219A.905.905,0,0,1,1342.316,638.163Z" transform="translate(-1329.998 -636.518)" fill="#fff"/>
        <g id="Grupo_59851" data-name="Grupo 59851" transform="translate(0.887 0.843)">
          <path id="Trazado_126241" data-name="Trazado 126241" d="M1256.482,644.079l-3.852,3.154-4.889-1.426-3.13,4.628-.133-.09,3.2-4.725,4.921,1.435,3.786-3.1Z" transform="translate(-1244.478 -643.954)" fill="#fff"/>
        </g>
      </g>
      <g id="Grupo_59854" data-name="Grupo 59854" transform="translate(36.594 32.639)">
        <g id="Grupo_59853" data-name="Grupo 59853">
          <path id="Trazado_126242" data-name="Trazado 126242" d="M1087.873,783.186l-1.111-5.833-.485,2.492h-6.547v-.394h6.222l.814-4.182,1.162,6.1.523-2.059h1.13l.771-3.591.987,5.476.519-2.1h2.335l.859-2.818.752,4.934.6-2.116h1.932l.567-3.094,1.22,4.868.442-1.774h2.5l.131,1.478,1.376-5.38.9,3.917h4.064v.394h-4.377l-.61-2.644-1.546,6.044-.3-3.414h-1.83l-.749,3.005-1.161-4.634-.3,1.628h-1.963l-1.019,3.568-.763-5.008-.439,1.44h-2.318l-.888,3.587-.961-5.327-.419,1.951h-1.142Z" transform="translate(-1079.73 -775.194)" fill="#fff"/>
        </g>
      </g>
      <g id="Grupo_59855" data-name="Grupo 59855" transform="translate(34.629 30.234)">
        <path id="Trazado_126243" data-name="Trazado 126243" d="M1096.006,768.21H1062.4V753.977h33.608Zm-33.391-.217h33.173v-13.8h-33.173Z" transform="translate(-1062.398 -753.977)" fill="#fff"/>
      </g>
    </g>
    <rect id="Rectángulo_32454" data-name="Rectángulo 32454" width="279.498" height="0.895" rx="0.447" transform="translate(249.332 453.418)" fill="#233862"/>
  </g>
</svg>
