<svg id="Grupo_59421" data-name="Grupo 59421" xmlns="http://www.w3.org/2000/svg" width="350.191" height="346.293" viewBox="0 0 350.191 346.293">
  <path id="Trazado_125125" data-name="Trazado 125125" d="M235.925,1000.775q5.566,1.12,11.156,2.113h3.9Z" transform="translate(-163.373 -693.017)" fill="#bfd2ff"/>
  <path id="Trazado_125126" data-name="Trazado 125126" d="M1093.831,569.615a8.553,8.553,0,0,0-2.2-3.779L1089.9,564.5a8.523,8.523,0,0,0-4.322-1.169h-.423a8.8,8.8,0,0,0-8.563,8.563q.153,1.138.306,2.277a8.554,8.554,0,0,0,2.2,3.779l1.733,1.339a8.521,8.521,0,0,0,4.322,1.169h.423a8.8,8.8,0,0,0,8.563-8.563Q1093.984,570.753,1093.831,569.615Z" transform="translate(-745.512 -390.091)" fill="#e6edff"/>
  <g id="Grupo_59339" data-name="Grupo 59339" transform="translate(28.057 179.979)">
    <rect id="Rectángulo_31599" data-name="Rectángulo 31599" width="211.261" height="125.63" rx="9.786" transform="translate(16.239 0) rotate(0.273)" fill="#63738f"/>
    <path id="Trazado_125127" data-name="Trazado 125127" d="M486.282,592.941a.967.967,0,1,1-.962-.971A.967.967,0,0,1,486.282,592.941Z" transform="translate(-363.46 -589.906)" fill="#333842"/>
    <path id="Trazado_125128" data-name="Trazado 125128" d="M333.773,995.215h0L91.238,994.058h0a10.084,10.084,0,0,0,10.036,10.132l222.368,1.061A10.084,10.084,0,0,0,333.773,995.215Z" transform="translate(-91.238 -868.344)" fill="#3e4d66"/>
    <path id="Trazado_125129" data-name="Trazado 125129" d="M353.513,719.13l-188.486-.9a6.316,6.316,0,0,1-6.286-6.346l.5-104.118a6.316,6.316,0,0,1,6.346-6.286l188.486.9a6.316,6.316,0,0,1,6.286,6.346l-.5,104.119A6.317,6.317,0,0,1,353.513,719.13Z" transform="translate(-137.982 -596.491)" fill="#fefeff"/>
  </g>
  <g id="Grupo_59365" data-name="Grupo 59365">
    <g id="Grupo_59340" data-name="Grupo 59340" transform="translate(285.533 43.309)">
      <rect id="Rectángulo_31600" data-name="Rectángulo 31600" width="6.922" height="27.292" transform="translate(0.899 45.188) rotate(-90)" fill="#ffb861"/>
      <rect id="Rectángulo_31601" data-name="Rectángulo 31601" width="6.921" height="40.648" transform="translate(0.899 34.488) rotate(-90)" fill="#96b3ff"/>
      <rect id="Rectángulo_31602" data-name="Rectángulo 31602" width="6.922" height="59.08" transform="translate(0.899 23.788) rotate(-90)" fill="#ff6ea1"/>
      <rect id="Rectángulo_31603" data-name="Rectángulo 31603" width="6.921" height="33.24" transform="translate(0.899 13.088) rotate(-90)" fill="#3fd4c7"/>
      <path id="Trazado_125130" data-name="Trazado 125130" d="M928.5,140.834v50.074h64.32" transform="translate(-928.504 -140.834)" fill="none" stroke="#333842" stroke-linecap="round" stroke-miterlimit="10" stroke-width="0.676"/>
    </g>
    <g id="Grupo_59341" data-name="Grupo 59341" transform="translate(285.533 103.395)">
      <rect id="Rectángulo_31604" data-name="Rectángulo 31604" width="41.944" height="3.946" transform="translate(21.7)" fill="#e0e9ff"/>
      <rect id="Rectángulo_31605" data-name="Rectángulo 31605" width="41.944" height="3.945" transform="translate(21.7 7.42)" fill="#e0e9ff"/>
      <rect id="Rectángulo_31606" data-name="Rectángulo 31606" width="41.944" height="3.961" transform="translate(21.7 14.84)" fill="#e0e9ff"/>
      <rect id="Rectángulo_31607" data-name="Rectángulo 31607" width="18.146" height="18.801" fill="#e0e9ff"/>
      <rect id="Rectángulo_31608" data-name="Rectángulo 31608" width="63.644" height="3.946" transform="translate(0 22.26)" fill="#e0e9ff"/>
      <rect id="Rectángulo_31609" data-name="Rectángulo 31609" width="63.644" height="3.946" transform="translate(0 29.68)" fill="#e0e9ff"/>
    </g>
    <g id="Grupo_59344" data-name="Grupo 59344" transform="translate(186.86)">
      <g id="Grupo_59343" data-name="Grupo 59343">
        <g id="Grupo_59342" data-name="Grupo 59342">
          <path id="Trazado_125131" data-name="Trazado 125131" d="M623.755.211a20.107,20.107,0,0,0-3.746,1.125,3.272,3.272,0,0,1,.216.278,3.342,3.342,0,0,1-5.667,3.545,3.25,3.25,0,0,1-.169-.343,20.363,20.363,0,0,0-2.694,2.855,3.3,3.3,0,0,1,.346.141,3.345,3.345,0,1,1-3.489,5.668,20.118,20.118,0,0,0-.915,3.849,3.28,3.28,0,0,1,.414-.057,3.344,3.344,0,1,1-.238,6.649,20.131,20.131,0,0,0,1.138,3.829,3.336,3.336,0,1,1,3.92,5.376,3.3,3.3,0,0,1-.462.228,20.389,20.389,0,0,0,2.923,2.761,3.341,3.341,0,1,1,5.792,3.119,20.107,20.107,0,0,0,3.933.922,3.342,3.342,0,1,1,6.573-.209,20.126,20.126,0,0,0,3.866-1.173,3.292,3.292,0,0,1-.324-.417,3.343,3.343,0,1,1,5.9-3.068,20.4,20.4,0,0,0,2.742-2.942,3.344,3.344,0,1,1,3.087-5.817,20.1,20.1,0,0,0,.89-3.892,3.25,3.25,0,0,1-.447.061,3.344,3.344,0,1,1,.2-6.652,20.07,20.07,0,0,0-1.16-3.784,3.27,3.27,0,0,1-.32.248,3.342,3.342,0,1,1-3.545-5.667,3.277,3.277,0,0,1,.357-.176,20.347,20.347,0,0,0-2.873-2.678,3.194,3.194,0,0,1-.137.336,3.342,3.342,0,1,1-5.9-3.135,3.348,3.348,0,0,1,.206-.309A20.106,20.106,0,0,0,630.365,0a3.215,3.215,0,0,1,.046.338,3.342,3.342,0,0,1-6.68.236A3.226,3.226,0,0,1,623.755.211Zm3.453,6.257a13.62,13.62,0,1,1-13.13,14.094A13.62,13.62,0,0,1,627.208,6.467Z" transform="translate(-607.637)" fill="#bfd2ff"/>
        </g>
      </g>
    </g>
    <g id="Grupo_59346" data-name="Grupo 59346" transform="translate(0 8.495)">
      <rect id="Rectángulo_31610" data-name="Rectángulo 31610" width="93.734" height="77.809" transform="translate(77.809 0) rotate(90)" fill="#e0e9ff"/>
      <g id="Grupo_59345" data-name="Grupo 59345" transform="translate(10.692 13.072)">
        <rect id="Rectángulo_31611" data-name="Rectángulo 31611" width="8.681" height="20.539" transform="translate(5.109 23.923)" fill="#3fd4c7"/>
        <rect id="Rectángulo_31612" data-name="Rectángulo 31612" width="8.681" height="30.59" transform="translate(18.529 13.871)" fill="#fefeff"/>
        <rect id="Rectángulo_31613" data-name="Rectángulo 31613" width="8.681" height="44.462" transform="translate(31.949)" fill="#96b3ff"/>
        <rect id="Rectángulo_31614" data-name="Rectángulo 31614" width="8.681" height="25.016" transform="translate(45.369 19.446)" fill="#628aec"/>
        <path id="Trazado_125132" data-name="Trazado 125132" d="M34.768,72.826v43.856H91.837" transform="translate(-34.768 -71.997)" fill="none" stroke="#333842" stroke-linecap="round" stroke-miterlimit="10" stroke-width="0.75"/>
      </g>
      <rect id="Rectángulo_31615" data-name="Rectángulo 31615" width="58.426" height="5.595" transform="translate(9.567 66.116)" fill="#fefeff"/>
      <rect id="Rectángulo_31616" data-name="Rectángulo 31616" width="58.426" height="5.595" transform="translate(9.567 76.374)" fill="#fefeff"/>
    </g>
    <g id="Grupo_59354" data-name="Grupo 59354" transform="translate(48.067 118.77)">
      <g id="Grupo_59353" data-name="Grupo 59353" transform="translate(6.664 4.986)">
        <g id="Grupo_59347" data-name="Grupo 59347" transform="translate(1.724 1.065)">
          <path id="Trazado_125133" data-name="Trazado 125133" d="M246.554,408.291l-10.777,22L216.2,405.9,198.565,428.49l-13-14.048-1.981,1.833,15.158,16.378,17.486-22.406L236.333,435.3l12.239-24.991Z" transform="translate(-183.582 -405.899)" fill="#fff"/>
        </g>
        <g id="Grupo_59348" data-name="Grupo 59348" transform="translate(50.875 24.499)">
          <path id="Trazado_125134" data-name="Trazado 125134" d="M350.346,485.566a3.465,3.465,0,1,0-3.465,3.465A3.465,3.465,0,0,0,350.346,485.566Z" transform="translate(-343.415 -482.1)" fill="#ff6ea1"/>
        </g>
        <g id="Grupo_59349" data-name="Grupo 59349" transform="translate(62.326)">
          <path id="Trazado_125135" data-name="Trazado 125135" d="M387.581,405.9a3.466,3.466,0,1,0-3.466,3.466A3.466,3.466,0,0,0,387.581,405.9Z" transform="translate(-380.65 -402.434)" fill="#3fd4c7"/>
        </g>
        <g id="Grupo_59350" data-name="Grupo 59350" transform="translate(30.754 0)">
          <circle id="Elipse_4086" data-name="Elipse 4086" cx="3.466" cy="3.466" r="3.466" fill="#333842"/>
        </g>
        <g id="Grupo_59351" data-name="Grupo 59351" transform="translate(13.741 21.86)">
          <circle id="Elipse_4087" data-name="Elipse 4087" cx="3.466" cy="3.466" r="3.466" fill="#ffb861"/>
        </g>
        <g id="Grupo_59352" data-name="Grupo 59352" transform="translate(0 7.718)">
          <path id="Trazado_125136" data-name="Trazado 125136" d="M184.908,431a3.466,3.466,0,1,0-3.465,3.465A3.466,3.466,0,0,0,184.908,431Z" transform="translate(-177.977 -427.53)" fill="#628aec"/>
        </g>
      </g>
      <path id="Trazado_125137" data-name="Trazado 125137" d="M156.306,386.221V432.5h77.9" transform="translate(-156.306 -386.221)" fill="none" stroke="#333842" stroke-linecap="round" stroke-miterlimit="10" stroke-width="0.75"/>
    </g>
    <g id="Grupo_59358" data-name="Grupo 59358" transform="translate(59.528 199.329)">
      <g id="Grupo_59355" data-name="Grupo 59355" transform="translate(0.311 33.495)">
        <circle id="Elipse_4088" data-name="Elipse 4088" cx="26.752" cy="26.752" r="26.752" transform="translate(0 8.485) rotate(-9.125)" fill="#bfc5d4"/>
        <path id="Trazado_125138" data-name="Trazado 125138" d="M242.452,841.745l-20.865-7.277a22.1,22.1,0,0,0,32.234,26.225Z" transform="translate(-212.431 -810.677)" fill="#628aec"/>
        <path id="Trazado_125139" data-name="Trazado 125139" d="M295.934,856.792l11.516,18.859a22.1,22.1,0,0,0,10.581-18.859Z" transform="translate(-264.768 -826.136)" fill="#e0e9ff"/>
        <path id="Trazado_125140" data-name="Trazado 125140" d="M296.346,816.7l22.095-.305a22.1,22.1,0,0,0-7.141-15.963Z" transform="translate(-265.053 -787.105)" fill="#fefeff"/>
      </g>
      <g id="Grupo_59356" data-name="Grupo 59356">
        <rect id="Rectángulo_31617" data-name="Rectángulo 31617" width="61.934" height="3.429" transform="translate(0 20.319)" fill="#333842"/>
        <rect id="Rectángulo_31618" data-name="Rectángulo 31618" width="61.934" height="3.429" transform="translate(0 13.546)" fill="#333842"/>
        <rect id="Rectángulo_31619" data-name="Rectángulo 31619" width="61.934" height="3.429" transform="translate(0 6.773)" fill="#333842"/>
        <rect id="Rectángulo_31620" data-name="Rectángulo 31620" width="61.934" height="3.429" fill="#333842"/>
        <rect id="Rectángulo_31621" data-name="Rectángulo 31621" width="61.934" height="3.429" transform="translate(0 26.605)" fill="#333842"/>
      </g>
      <g id="Grupo_59357" data-name="Grupo 59357" transform="translate(75.629 79.202)">
        <rect id="Rectángulo_31622" data-name="Rectángulo 31622" width="107.377" height="3.429" transform="translate(0 13.546)" fill="#333842"/>
        <rect id="Rectángulo_31623" data-name="Rectángulo 31623" width="107.377" height="3.429" transform="translate(0 6.773)" fill="#333842"/>
        <rect id="Rectángulo_31624" data-name="Rectángulo 31624" width="107.377" height="3.429" fill="#333842"/>
      </g>
    </g>
    <g id="Grupo_59359" data-name="Grupo 59359" transform="translate(94.576 2.414)">
      <circle id="Elipse_4089" data-name="Elipse 4089" cx="25.868" cy="25.868" r="25.868" transform="translate(0 9.728) rotate(-10.839)" fill="#e0e9ff"/>
      <path id="Trazado_125141" data-name="Trazado 125141" d="M355.868,91.735,335.694,84.7a21.366,21.366,0,0,0,31.169,25.357Z" transform="translate(-326.212 -61.066)" fill="#ff6ea1"/>
      <path id="Trazado_125142" data-name="Trazado 125142" d="M407.582,106.283l11.135,18.236a21.367,21.367,0,0,0,10.231-18.236Z" transform="translate(-376.819 -76.013)" fill="#3fd4c7"/>
      <path id="Trazado_125143" data-name="Trazado 125143" d="M407.981,67.514l21.364-.3a21.365,21.365,0,0,0-6.905-15.436Z" transform="translate(-377.095 -38.273)" fill="#fefeff"/>
    </g>
    <g id="Grupo_59364" data-name="Grupo 59364" transform="translate(134.968 63.272)">
      <rect id="Rectángulo_31625" data-name="Rectángulo 31625" width="137.109" height="206.926" fill="#e0e9ff"/>
      <g id="Grupo_59363" data-name="Grupo 59363" transform="translate(14.032 14.548)">
        <g id="Grupo_59360" data-name="Grupo 59360" transform="translate(0 32.874)">
          <rect id="Rectángulo_31626" data-name="Rectángulo 31626" width="9.751" height="41.063" transform="translate(29.044 52.258)" fill="#ffb861"/>
          <rect id="Rectángulo_31627" data-name="Rectángulo 31627" width="9.751" height="61.158" transform="translate(70.946 32.162)" fill="#ff6ea1"/>
          <rect id="Rectángulo_31628" data-name="Rectángulo 31628" width="9.751" height="88.891" transform="translate(91.896 4.43)" fill="#3fd4c7"/>
          <path id="Trazado_125144" data-name="Trazado 125144" d="M506,414.063c21.577-5.641,61.5-26.855,78.117-46.695" transform="translate(-499.396 -365.089)" fill="none" stroke="#333842" stroke-linecap="round" stroke-miterlimit="10" stroke-width="0.75"/>
          <rect id="Rectángulo_31629" data-name="Rectángulo 31629" width="9.751" height="50.013" transform="translate(49.995 43.308)" fill="#fefeff"/>
          <rect id="Rectángulo_31630" data-name="Rectángulo 31630" width="9.751" height="36.312" transform="translate(8.093 57.009)" fill="#628aec"/>
          <path id="Trazado_125145" data-name="Trazado 125145" d="M594.929,453.285H484.522V359.956" transform="translate(-484.522 -359.956)" fill="none" stroke="#333842" stroke-linecap="round" stroke-miterlimit="10" stroke-width="0.75"/>
        </g>
        <g id="Grupo_59362" data-name="Grupo 59362">
          <g id="Grupo_59361" data-name="Grupo 59361" transform="translate(0.014)">
            <rect id="Rectángulo_31631" data-name="Rectángulo 31631" width="111.748" height="6.732" fill="#fefeff"/>
            <rect id="Rectángulo_31632" data-name="Rectángulo 31632" width="64.496" height="6.732" transform="translate(23.626 10.878)" fill="#fefeff"/>
          </g>
          <rect id="Rectángulo_31633" data-name="Rectángulo 31633" width="111.777" height="6.188" transform="translate(0 134.831)" fill="#fefeff"/>
          <rect id="Rectángulo_31634" data-name="Rectángulo 31634" width="111.777" height="6.188" transform="translate(0 146.176)" fill="#fefeff"/>
          <rect id="Rectángulo_31635" data-name="Rectángulo 31635" width="111.777" height="6.188" transform="translate(0 157.52)" fill="#fefeff"/>
          <rect id="Rectángulo_31636" data-name="Rectángulo 31636" width="49.634" height="6.188" transform="translate(0 169.78)" fill="#fefeff"/>
        </g>
      </g>
    </g>
  </g>
  <g id="Grupo_59387" data-name="Grupo 59387" transform="translate(269.285 161.833)">
    <g id="Grupo_59372" data-name="Grupo 59372" transform="translate(0 55.196)">
      <g id="Grupo_59368" data-name="Grupo 59368">
        <path id="Trazado_125146" data-name="Trazado 125146" d="M878.746,1011.188c1.769-.177,3.519-.521,5.287-.7,1.492-.153,2.991-.238,4.477-.458a13.213,13.213,0,0,0,3.153-.788c.637-.266.228-1.938.136-2.4a15.265,15.265,0,0,1-.169-3.458c-1.7-.031-3.4-.064-5.09-.136a2.291,2.291,0,0,0-.935.09,3.11,3.11,0,0,0-1,.823,17.976,17.976,0,0,1-4.711,2.987,8.789,8.789,0,0,0-4.116,3.787.962.962,0,0,0-.111.457Q877.21,1011.342,878.746,1011.188Z" transform="translate(-875.668 -911.749)" fill="#333842"/>
        <g id="Grupo_59367" data-name="Grupo 59367" transform="translate(9.199)">
          <g id="Grupo_59366" data-name="Grupo 59366">
            <path id="Trazado_125147" data-name="Trazado 125147" d="M929.987,708.76l-.053-.064a8.053,8.053,0,0,0-8.325-2.656c-7.708,2.279-7.719,14.121-8.518,21.065q-1.268,11.017-2.636,22.021c-1.732,13.938-2.9,34.277-4.875,48.177a9.326,9.326,0,0,0,3.668.893c2.33.291,3.105.078,3.866-.508,2.27-12.639,7.446-31.341,10.031-43.906,1.359-6.605,2.357-9.8,3.8-16.381,1.08-4.916,1.486-9.989,2.8-14.848.6-2.211,2.1-4.287,2.346-6.493A10.058,10.058,0,0,0,929.987,708.76Z" transform="translate(-905.58 -705.742)" fill="#4f5d7a"/>
          </g>
        </g>
        <line id="Línea_154" data-name="Línea 154" x1="2.938" y1="0.658" transform="translate(21.574 57.234)" fill="none" stroke="#333842" stroke-linecap="round" stroke-linejoin="round" stroke-width="0.75"/>
        <line id="Línea_155" data-name="Línea 155" x1="3.534" y2="1.639" transform="translate(20.948 57.883)" fill="none" stroke="#333842" stroke-linecap="round" stroke-linejoin="round" stroke-width="0.75"/>
      </g>
      <g id="Grupo_59371" data-name="Grupo 59371" transform="translate(27.129 2.451)">
        <path id="Trazado_125148" data-name="Trazado 125148" d="M983.109,1012.707a1.122,1.122,0,0,0,.127.029c.34,0,.679.016,1.018.031.087,0,.172.005.256.013.405.021.811.045,1.216.077,3.157.25,6.386.816,9.5.882a8.476,8.476,0,0,0,3.221-.393c2.548-.995-.557-2.3-1.568-2.875a34.57,34.57,0,0,0-3.115-1.683,23.832,23.832,0,0,1-4.12-2.366,19.409,19.409,0,0,1-5.548.535C983.142,1006.911,981.723,1012.261,983.109,1012.707Z" transform="translate(-976.798 -916.408)" fill="#333842"/>
        <g id="Grupo_59370" data-name="Grupo 59370" transform="translate(0.003)">
          <g id="Grupo_59369" data-name="Grupo 59369">
            <path id="Trazado_125149" data-name="Trazado 125149" d="M979.631,728.216c-.448-3.109-2.776-13.831-6.307-14.414a7.758,7.758,0,0,0-6.9,2.419,11.311,11.311,0,0,0-2.225,5.542,57.438,57.438,0,0,0-.132,10.433c.209,5.429,1.307,15.683,1.307,15.683s5.356,45.062,4.961,56.185c2.05,2.845,8.161.192,8.188-.133.716-8.758.7-28.564.872-35.343C979.581,761.292,980.676,735.467,979.631,728.216Z" transform="translate(-963.897 -713.712)" fill="#616e87"/>
          </g>
        </g>
        <path id="Trazado_125150" data-name="Trazado 125150" d="M965.032,778.7q-.572-8.252-1.144-16.5" transform="translate(-963.888 -747.284)" fill="none" stroke="#333842" stroke-miterlimit="10" stroke-width="0.75"/>
      </g>
      <path id="Trazado_125151" data-name="Trazado 125151" d="M957.772,722.1c-.62-3.689-2.88-13.267-6.213-13.817a7.835,7.835,0,0,0-3.211.186,8.034,8.034,0,0,0-8.119-2.428c-5.347,1.581-6.989,7.763-7.761,13.719a22.328,22.328,0,0,0,9.708,3.543v0c.069.01.138.015.207.025q.552.075,1.1.131l.379.038c.434.039.866.073,1.3.1l.2.009q.57.029,1.132.04l.368.007c.414.005.826.007,1.231,0h.054A35.041,35.041,0,0,0,957.772,722.1Z" transform="translate(-915 -705.743)" fill="#3c4966"/>
    </g>
    <g id="Grupo_59373" data-name="Grupo 59373" transform="translate(27.609 11.857)">
      <path id="Trazado_125152" data-name="Trazado 125152" d="M972.489,568.45c.035.312.057.622.072.918q.1,1.782.19,3.565a32.593,32.593,0,0,1,.192,3.66c-.106,1.707-.472,3.345-2.063,4.179a3.8,3.8,0,0,1-3.169.014,3.537,3.537,0,0,1-2.063-1.728,5.291,5.291,0,0,1-.2-1.794c.01-1.984-.034-3.969.046-5.952A9.948,9.948,0,0,1,966,567.48c.753-1.617,2.686-3.205,4.481-2.5C971.9,565.538,972.331,567.024,972.489,568.45Z" transform="translate(-965.448 -564.809)" fill="#f7b699"/>
      <path id="Trazado_125153" data-name="Trazado 125153" d="M970.375,573.206a8.7,8.7,0,0,0,2.152-4.289c-.012-.156-.019-.308-.037-.466-.158-1.426-.591-2.913-2-3.469-1.8-.707-3.728.881-4.481,2.5a9.947,9.947,0,0,0-.507,3.833c-.044,1.073-.05,2.147-.049,3.222A4.942,4.942,0,0,0,970.375,573.206Z" transform="translate(-965.448 -564.809)" fill="#c46e58"/>
    </g>
    <g id="Grupo_59374" data-name="Grupo 59374" transform="translate(16.728 22.51)">
      <path id="Trazado_125154" data-name="Trazado 125154" d="M955.992,643.549l-2.416-12.261.828-27.546c-.221,0,.119-2.439-.628-2.914-1.155-.735-4.86-1.255-5.329-1.378a5.437,5.437,0,0,1-.119,1.444,5.516,5.516,0,0,1-1.682,1.972c-1.957,1.46-4.425,1.323-5.478-1.708a6.7,6.7,0,0,1-.224-1.6,23.751,23.751,0,0,0-3.839.962,3.733,3.733,0,0,0-2.528,3.276l-1.271,27.423-3.242,10.335C937.9,647.839,946.933,647.782,955.992,643.549Z" transform="translate(-930.064 -599.45)" fill="#fff"/>
      <path id="Trazado_125155" data-name="Trazado 125155" d="M970.982,684.488a29.507,29.507,0,0,0,11.826-11.168" transform="translate(-958.399 -650.604)" fill="none" stroke="#333842" stroke-linecap="round" stroke-miterlimit="10" stroke-width="0.299"/>
      <path id="Trazado_125156" data-name="Trazado 125156" d="M964.385,710.953a36.622,36.622,0,0,0,12.266-14.537" transform="translate(-953.831 -666.597)" fill="none" stroke="#333842" stroke-linecap="round" stroke-miterlimit="10" stroke-width="0.299"/>
      <path id="Trazado_125157" data-name="Trazado 125157" d="M970.941,617.438a4.748,4.748,0,0,0,4.543-.1" transform="translate(-958.371 -611.839)" fill="none" stroke="#333842" stroke-linecap="round" stroke-miterlimit="10" stroke-width="0.299"/>
    </g>
    <g id="Grupo_59378" data-name="Grupo 59378" transform="translate(10.787 22.633)">
      <g id="Grupo_59375" data-name="Grupo 59375" transform="translate(0.128 1.191)">
        <path id="Trazado_125158" data-name="Trazado 125158" d="M919.062,607.3c-3.932,4.571-7.508,14.557-7.881,20.512a6.515,6.515,0,0,0,1.048,4.226,3.965,3.965,0,0,0,3.853,1.676c1.534-.315,2.618-1.676,3.394-3.036a49.574,49.574,0,0,0,3.591-10.183c.557-2.7,1.771-5.232,2.254-7.984.3-1.712,1.907-9.746-2.011-8.692a4.838,4.838,0,0,0-1.764,1.041A20.617,20.617,0,0,0,919.062,607.3Z" transform="translate(-911.163 -603.722)" fill="#6c7995"/>
      </g>
      <g id="Grupo_59376" data-name="Grupo 59376" transform="translate(3.836)">
        <path id="Trazado_125159" data-name="Trazado 125159" d="M927.866,649.266c.522.265,1.056.5,1.6.719,1.737-13.178,6.479-50.032,6.477-50.133a22.131,22.131,0,0,0-3.6.906,3.864,3.864,0,0,0-2.671,3.212l-1.148,15.874L926.939,634.7l-3.72,11.219A18.739,18.739,0,0,0,927.866,649.266Z" transform="translate(-923.219 -599.851)" fill="#6c7995"/>
        <path id="Trazado_125160" data-name="Trazado 125160" d="M953.941,599.851l-4.479,3.785,2.524.554-2.77,6.094,2.119,10.027Z" transform="translate(-941.221 -599.851)" fill="#abc0d4"/>
        <path id="Trazado_125161" data-name="Trazado 125161" d="M940.307,619.792s-2.468,6.639-2.512,9.787c-.026,1.817-1.709,17.518-1.709,17.518" transform="translate(-932.128 -613.66)" fill="none" stroke="#333842" stroke-miterlimit="10" stroke-width="0.299"/>
      </g>
      <g id="Grupo_59377" data-name="Grupo 59377" transform="translate(0 21.35)">
        <path id="Trazado_125162" data-name="Trazado 125162" d="M921.272,676.535a5.263,5.263,0,1,1-5.263-5.263A5.263,5.263,0,0,1,921.272,676.535Z" transform="translate(-910.746 -670.659)" fill="#6c7995"/>
        <path id="Trazado_125163" data-name="Trazado 125163" d="M922.664,672.86a5.016,5.016,0,0,1,6.381,5.66" transform="translate(-918.999 -671.619)" fill="none" stroke="#333842" stroke-miterlimit="10" stroke-width="0.299"/>
        <path id="Trazado_125164" data-name="Trazado 125164" d="M931.494,669.277a5.525,5.525,0,0,1,2.513,2.751" transform="translate(-925.114 -669.277)" fill="none" stroke="#333842" stroke-miterlimit="10" stroke-width="0.299"/>
      </g>
    </g>
    <g id="Grupo_59382" data-name="Grupo 59382" transform="translate(35.585 22.552)">
      <path id="Trazado_125165" data-name="Trazado 125165" d="M995.312,650.611a26.6,26.6,0,0,0,5.92-2.118l-2.6-13.694-1.59-31.05c-.224,0,.017-2.4-.753-2.86-1.092-.654-4.071-1.119-4.906-1.28v51.7C992.716,651.135,994.029,650.9,995.312,650.611Z" transform="translate(-991.386 -599.602)" fill="#6c7995"/>
      <g id="Grupo_59380" data-name="Grupo 59380" transform="translate(1.57 1.028)">
        <g id="Grupo_59379" data-name="Grupo 59379">
          <path id="Trazado_125166" data-name="Trazado 125166" d="M1003.7,607.231c1.976,2.909,3.152,6.731,4.36,10.019,1.2,3.255,3.243,7.515,3.164,11.038a4.417,4.417,0,0,1-1.607,3.458,4.777,4.777,0,0,1-3.937.586c-3.952-.94-5.048-4.318-6.284-7.664a45.97,45.97,0,0,1-2.8-12.966c-.1-1.781-.787-10.161,3.135-8.573a5.1,5.1,0,0,1,1.7,1.291A21.555,21.555,0,0,1,1003.7,607.231Z" transform="translate(-996.487 -602.93)" fill="#6c7995"/>
        </g>
        <path id="Trazado_125167" data-name="Trazado 125167" d="M1002.829,662.471l-1.905-6.577" transform="translate(-999.56 -639.607)" fill="none" stroke="#333842" stroke-miterlimit="10" stroke-width="0.299"/>
        <path id="Trazado_125168" data-name="Trazado 125168" d="M1000.356,660.347l-1.34-2.132" transform="translate(-998.238 -641.214)" fill="none" stroke="#333842" stroke-miterlimit="10" stroke-width="0.299"/>
      </g>
      <path id="Trazado_125169" data-name="Trazado 125169" d="M991.383,599.587l3.974,4.312-2.573.236,1.992,6.391-3.347,9.686Z" transform="translate(-991.383 -599.587)" fill="#abc0d4"/>
      <g id="Grupo_59381" data-name="Grupo 59381" transform="translate(0.448 21.932)">
        <path id="Trazado_125170" data-name="Trazado 125170" d="M1005.14,680.341l-6.081,1.845a4.82,4.82,0,0,1-6.012-3.214h0a4.821,4.821,0,0,1,3.214-6.012l6.08-1.844a4.82,4.82,0,0,1,6.012,3.214h0A4.82,4.82,0,0,1,1005.14,680.341Z" transform="translate(-992.839 -670.907)" fill="#6c7995"/>
        <path id="Trazado_125171" data-name="Trazado 125171" d="M994.543,674.167l6.7-2.433c1.917-.7,3.989-1.169,5.952-.3" transform="translate(-994.019 -670.945)" fill="none" stroke="#333842" stroke-linecap="round" stroke-miterlimit="10" stroke-width="0.299"/>
      </g>
    </g>
    <g id="Grupo_59383" data-name="Grupo 59383" transform="translate(14.61 40.58)">
      <rect id="Rectángulo_31637" data-name="Rectángulo 31637" width="16.942" height="23.07" transform="translate(5.87)" fill="#78c2f4"/>
      <circle id="Elipse_4090" data-name="Elipse 4090" cx="4.221" cy="4.221" r="4.221" transform="translate(0 6.352)" fill="#f7b699"/>
      <path id="Trazado_125172" data-name="Trazado 125172" d="M987.328,688.07a4.221,4.221,0,1,0,4.418-4.013A4.221,4.221,0,0,0,987.328,688.07Z" transform="translate(-967.597 -676.106)" fill="#f7b699"/>
    </g>
    <g id="Grupo_59386" data-name="Grupo 59386" transform="translate(23.356)">
      <path id="Trazado_125173" data-name="Trazado 125173" d="M951.618,558.419a1.965,1.965,0,0,0,.243.912,1.354,1.354,0,0,0,2.456-.344,2.184,2.184,0,0,0,0-1.4c-.237-.736-.861-1.338-1.652-.929a1.972,1.972,0,0,0-.968,1.167A1.935,1.935,0,0,0,951.618,558.419Z" transform="translate(-951.618 -547.215)" fill="#c46e58"/>
      <path id="Trazado_125174" data-name="Trazado 125174" d="M958.732,537.819a10.414,10.414,0,0,1,5.765-1.039c2.482.252,3.627,1.471,3.885,2.986a13.831,13.831,0,0,1-.807,8.051c-.193.389-.592,1.38-.823,1.748a6.615,6.615,0,0,1-6.971,2.778c-2.047-.495-3.159-2.2-3.505-4.595-.062-.43-.078-1.831-.085-2.265C956.15,542.819,957.575,538.436,958.732,537.819Z" transform="translate(-954.784 -533.49)" fill="#f7b699"/>
      <g id="Grupo_59384" data-name="Grupo 59384" transform="translate(1.093)">
        <path id="Trazado_125175" data-name="Trazado 125175" d="M959.059,528.617a11.731,11.731,0,0,1,4.644-1.41,6.1,6.1,0,0,1,7.2,6.213c.012,1.357-.664,4.42-2.2,5.029-1.873.741-1.689-1.415-1.448-2.754a9.541,9.541,0,0,0,.262-1.494,1.551,1.551,0,0,0-.614-1.351,2.368,2.368,0,0,0-1.078-.288c-1.286-.125-8.54.468-8.448-1.961a1.049,1.049,0,0,1,.183-.493A4.606,4.606,0,0,1,959.059,528.617Z" transform="translate(-956.694 -526.867)" fill="#333842"/>
        <path id="Trazado_125176" data-name="Trazado 125176" d="M965.781,544.406a7.639,7.639,0,0,0,5.431-.73" transform="translate(-962.519 -538.318)" fill="none" stroke="#333842" stroke-linecap="round" stroke-linejoin="round" stroke-width="0.75"/>
        <path id="Trazado_125177" data-name="Trazado 125177" d="M989.481,528.431a3.071,3.071,0,0,0-2.553-2.178" transform="translate(-977.163 -526.253)" fill="none" stroke="#333842" stroke-linecap="round" stroke-linejoin="round" stroke-width="0.75"/>
        <path id="Trazado_125178" data-name="Trazado 125178" d="M996.624,533.056a.713.713,0,0,0-.918.127" transform="translate(-983.241 -530.886)" fill="none" stroke="#333842" stroke-linecap="round" stroke-linejoin="round" stroke-width="0.75"/>
        <path id="Trazado_125179" data-name="Trazado 125179" d="M955.349,544.5c.018.093.039.184.063.272.057-.018.174-.061.2-.117.818-1.5.351-3.736,1.609-4.981.429-.424,1.087-.734,1.15-1.334a1.491,1.491,0,0,0-.182-.756.848.848,0,0,0-.235-.343.753.753,0,0,0-.543-.1c-2.465.29-2.3,3.119-2.191,4.925A20.329,20.329,0,0,0,955.349,544.5Z" transform="translate(-955.173 -533.787)" fill="#333842"/>
      </g>
      <path id="Trazado_125180" data-name="Trazado 125180" d="M990.579,561.328a1.343,1.343,0,0,0,2.124.291,2.222,2.222,0,0,0,.515-1.176,2.528,2.528,0,0,0-.023-1.15,1.574,1.574,0,0,0-1.054-1.011C990.49,557.723,989.831,560.248,990.579,561.328Z" transform="translate(-978.385 -548.377)" fill="#f7b699"/>
      <g id="Grupo_59385" data-name="Grupo 59385" transform="translate(2.94 8.162)">
        <path id="Trazado_125181" data-name="Trazado 125181" d="M961.263,553.057a2.73,2.73,0,0,1,1.275-.046" transform="translate(-961.237 -552.906)" fill="none" stroke="#333842" stroke-linecap="round" stroke-miterlimit="10" stroke-width="0.476"/>
        <path id="Trazado_125182" data-name="Trazado 125182" d="M967.16,574.885a2.764,2.764,0,0,0,2.174.247" transform="translate(-965.321 -568.092)" fill="none" stroke="#333842" stroke-linecap="round" stroke-miterlimit="10" stroke-width="0.476"/>
        <path id="Trazado_125183" data-name="Trazado 125183" d="M978.342,552.814a3.057,3.057,0,0,1,1.771.332" transform="translate(-973.064 -552.794)" fill="none" stroke="#333842" stroke-linecap="round" stroke-miterlimit="10" stroke-width="0.476"/>
        <path id="Trazado_125184" data-name="Trazado 125184" d="M977.782,559.413a.542.542,0,1,1-.542-.542A.542.542,0,0,1,977.782,559.413Z" transform="translate(-971.926 -557.002)" fill="#333842"/>
        <path id="Trazado_125185" data-name="Trazado 125185" d="M962.264,558.59a.542.542,0,1,1-.542-.542A.543.543,0,0,1,962.264,558.59Z" transform="translate(-961.179 -556.432)" fill="#333842"/>
        <path id="Trazado_125186" data-name="Trazado 125186" d="M966.812,563.581c-.5-.079-1.211-.438-.942-1.037a2.306,2.306,0,0,1,.294-.43,3.184,3.184,0,0,0,.611-1.48" transform="translate(-964.387 -558.224)" fill="none" stroke="#333842" stroke-linecap="round" stroke-miterlimit="10" stroke-width="0.476"/>
      </g>
    </g>
  </g>
  <g id="Grupo_59403" data-name="Grupo 59403" transform="translate(0.822 176.472)">
    <g id="Grupo_59388" data-name="Grupo 59388" transform="translate(21.743 35.623)">
      <rect id="Rectángulo_31638" data-name="Rectángulo 31638" width="16.942" height="23.07" transform="translate(5.87)" fill="#ffb861"/>
      <circle id="Elipse_4091" data-name="Elipse 4091" cx="4.221" cy="4.221" r="4.221" transform="translate(0 6.352)" fill="#f7b699"/>
      <circle id="Elipse_4092" data-name="Elipse 4092" cx="4.221" cy="4.221" r="4.221" transform="matrix(0.887, -0.462, 0.462, 0.887, 18.254, 10.372)" fill="#f7b699"/>
    </g>
    <g id="Grupo_59395" data-name="Grupo 59395" transform="translate(0 54.399)">
      <g id="Grupo_59391" data-name="Grupo 59391">
        <path id="Trazado_125187" data-name="Trazado 125187" d="M13.705,1055.536a19.476,19.476,0,0,0-1.162-3.845,9.72,9.72,0,0,1-2.165-1.97,3.068,3.068,0,0,0-.963-.971,1.866,1.866,0,0,0-.928-.086c-1.689.129-3.384.211-5.076.291a22.607,22.607,0,0,1-.29,4.191,6.289,6.289,0,0,0-.161,2.658Z" transform="translate(-2.798 -957.038)" fill="#333842"/>
        <g id="Grupo_59390" data-name="Grupo 59390">
          <g id="Grupo_59389" data-name="Grupo 59389">
            <path id="Trazado_125188" data-name="Trazado 125188" d="M24.868,753.617l-.055-.063a8.054,8.054,0,0,0-8.389-2.448c-7.649,2.471-7.365,14.309-7.991,21.27q-.994,11.046-2.087,22.08c-1.385,13.977-2.05,34.339-3.674,48.284a9.328,9.328,0,0,0,3.689.8c2.336.233,3.106,0,3.853-.6,1.954-12.691,6.663-31.516,8.935-44.142,1.194-6.637,2.112-9.853,3.394-16.47.957-4.941,1.236-10.022,2.428-14.914.542-2.225,1.988-4.337,2.184-6.549A10.056,10.056,0,0,0,24.868,753.617Z" transform="translate(-2.673 -750.753)" fill="#4f5d7a"/>
          </g>
        </g>
        <line id="Línea_156" data-name="Línea 156" x1="2.954" y1="0.584" transform="translate(11.517 57.362)" fill="none" stroke="#333842" stroke-linecap="round" stroke-linejoin="round" stroke-width="0.75"/>
        <line id="Línea_157" data-name="Línea 157" x1="3.492" y2="1.726" transform="translate(10.948 57.938)" fill="none" stroke="#333842" stroke-linecap="round" stroke-linejoin="round" stroke-width="0.75"/>
      </g>
      <g id="Grupo_59394" data-name="Grupo 59394" transform="translate(16.014 2.248)">
        <path id="Trazado_125189" data-name="Trazado 125189" d="M80.676,1056.768a1.122,1.122,0,0,0,.128.026c.339,0,.679,0,1.019.006.087,0,.173,0,.256.006.406.01.811.025,1.217.047,3.163.171,6.4.656,9.52.645a8.477,8.477,0,0,0,3.21-.473c2.523-1.058-.614-2.284-1.639-2.835a34.617,34.617,0,0,0-3.156-1.6,23.8,23.8,0,0,1-4.178-2.263,19.4,19.4,0,0,1-5.533.673C80.564,1050.973,79.279,1056.356,80.676,1056.768Z" transform="translate(-72.276 -960.447)" fill="#333842"/>
        <g id="Grupo_59393" data-name="Grupo 59393">
          <g id="Grupo_59392" data-name="Grupo 59392">
            <path id="Trazado_125190" data-name="Trazado 125190" d="M70.534,772.38c-.525-3.1-3.119-13.757-6.664-14.252a7.757,7.757,0,0,0-6.834,2.59,11.31,11.31,0,0,0-2.087,5.6,57.445,57.445,0,0,0,.128,10.433c.344,5.422,1.7,15.646,1.7,15.646s6.476,44.915,6.359,56.044c2.12,2.793,8.163-.011,8.182-.336.5-8.773-.01-28.572-.008-35.353C71.307,805.448,71.759,779.6,70.534,772.38Z" transform="translate(-54.749 -758.064)" fill="#6c7995"/>
          </g>
        </g>
        <path id="Trazado_125191" data-name="Trazado 125191" d="M56.51,823.681q-.777-8.236-1.554-16.471" transform="translate(-54.892 -792.097)" fill="none" stroke="#333842" stroke-miterlimit="10" stroke-width="0.75"/>
      </g>
      <path id="Trazado_125192" data-name="Trazado 125192" d="M26.639,771.75a47.786,47.786,0,0,0,7.49,1.428,32.467,32.467,0,0,0,14.17-1.85c-.111-1.629-.248-3-.419-4.009-.525-3.1-3.119-13.757-6.664-14.252a7.831,7.831,0,0,0-3.206.266,8.035,8.035,0,0,0-8.178-2.225c-6.77,2.187-7.325,11.71-7.8,18.7A15.9,15.9,0,0,0,26.639,771.75Z" transform="translate(-16.08 -750.755)" fill="#3c4966"/>
    </g>
    <g id="Grupo_59396" data-name="Grupo 59396" transform="translate(16.914 10.336)">
      <path id="Trazado_125193" data-name="Trazado 125193" d="M64.715,611.109c.035.312.056.622.072.918q.1,1.782.19,3.565a32.588,32.588,0,0,1,.192,3.66c-.106,1.707-.472,3.345-2.063,4.179a3.8,3.8,0,0,1-3.169.014,3.537,3.537,0,0,1-2.063-1.728,5.3,5.3,0,0,1-.2-1.794c.01-1.984-.034-3.969.046-5.952a9.952,9.952,0,0,1,.507-3.832c.753-1.618,2.686-3.205,4.481-2.5C64.123,608.2,64.556,609.683,64.715,611.109Z" transform="translate(-57.673 -607.467)" fill="#f7b699"/>
    </g>
    <g id="Grupo_59399" data-name="Grupo 59399" transform="translate(13.711)">
      <path id="Trazado_125194" data-name="Trazado 125194" d="M91.514,608.594l.014-.023c-.053-.07-.1-.13-.143-.182-.3-.5-.527-1.081-.785-1.6a4.157,4.157,0,0,1-.259.394,2.841,2.841,0,0,0-.139.678,7.134,7.134,0,0,0-.061,1.437.934.934,0,0,0,.141.517c.254.337,1.142.028,1.49-.023.115-.017.251-.049.291-.159C92.183,609.3,91.712,608.857,91.514,608.594Z" transform="translate(-76.946 -596.66)" fill="#f7b699"/>
      <path id="Trazado_125195" data-name="Trazado 125195" d="M53.9,586.558a9.749,9.749,0,0,1,5.418-1.646c2.478-.036,3.851,1.008,4.419,2.434a18.811,18.811,0,0,1,1.232,6.9,25.416,25.416,0,0,1-.24,3.516,2.084,2.084,0,0,1-1.791,2.041,21.159,21.159,0,0,1-3.248.282,10.5,10.5,0,0,1-3.062-.174c-1.594-.486-2.516-2.061-3.06-3.531-.15-.406-.457-1.751-.554-2.167C52.419,591.655,52.9,587.282,53.9,586.558Z" transform="translate(-51.064 -581.511)" fill="#f7b699"/>
      <g id="Grupo_59397" data-name="Grupo 59397">
        <path id="Trazado_125196" data-name="Trazado 125196" d="M79.331,575.719a3.072,3.072,0,0,0-2.792-1.862" transform="translate(-67.534 -573.857)" fill="none" stroke="#333842" stroke-linecap="round" stroke-linejoin="round" stroke-width="0.75"/>
        <path id="Trazado_125197" data-name="Trazado 125197" d="M87.032,579.318a.713.713,0,0,0-.9.234" transform="translate(-74.179 -577.588)" fill="none" stroke="#333842" stroke-linecap="round" stroke-linejoin="round" stroke-width="0.75"/>
        <path id="Trazado_125198" data-name="Trazado 125198" d="M55.646,591a.406.406,0,0,0,.236-.128c.155-.2.117-.906.15-1.166q.145-1.127.291-2.253c.061-.473.01-.874.4-1.171a2.058,2.058,0,0,1,1.24-.373c1.549-.005,1.946.177,1.72-1.5A7.518,7.518,0,0,1,59.536,582a1.583,1.583,0,0,1,.523-.959c.483-.557,1.012-.745,1.141-1.371a6.043,6.043,0,0,0-7.635-4.185,11.735,11.735,0,0,0-4.446,1.947,4.612,4.612,0,0,0-1.32,1.658,1.054,1.054,0,0,0-.124.511,1.074,1.074,0,0,0,.1.383c-.951,1.458-.367,3.4-.08,4.977a15.212,15.212,0,0,0,.978,3.209c.219.516.463,1.021.729,1.514.108.2.631,1.4.789,1.408a42.368,42.368,0,0,0,4.756-.051A4.441,4.441,0,0,0,55.646,591Z" transform="translate(-47.258 -574.818)" fill="#333842"/>
      </g>
      <path id="Trazado_125199" data-name="Trazado 125199" d="M77.855,607.686a1.342,1.342,0,0,0,2.143.039,2.218,2.218,0,0,0,.372-1.228,2.52,2.52,0,0,0-.158-1.139,1.574,1.574,0,0,0-1.165-.88C77.341,604.118,76.984,606.7,77.855,607.686Z" transform="translate(-68.129 -595.038)" fill="#f7b699"/>
      <path id="Trazado_125200" data-name="Trazado 125200" d="M81.214,607.464a.391.391,0,0,1,.542-.234.924.924,0,0,1,.426.512,3.336,3.336,0,0,1,.269,1.1.387.387,0,1,0-.251.732" transform="translate(-70.772 -596.944)" fill="none" stroke="#333842" stroke-linecap="round" stroke-miterlimit="10" stroke-width="0.476"/>
      <g id="Grupo_59398" data-name="Grupo 59398" transform="translate(12.773 8.046)">
        <path id="Trazado_125201" data-name="Trazado 125201" d="M88.792,600.225a2.731,2.731,0,0,1,1.261-.2" transform="translate(-88.792 -600.02)" fill="none" stroke="#333842" stroke-linecap="round" stroke-miterlimit="10" stroke-width="0.476"/>
        <path id="Trazado_125202" data-name="Trazado 125202" d="M90.546,605.688a.542.542,0,1,1-.6-.475A.542.542,0,0,1,90.546,605.688Z" transform="translate(-89.258 -603.614)" fill="#333842"/>
        <path id="Trazado_125203" data-name="Trazado 125203" d="M88.885,621.638c.2,0,.632-.056.817-.08" transform="translate(-88.856 -614.935)" fill="none" stroke="#333842" stroke-linecap="round" stroke-miterlimit="10" stroke-width="0.476"/>
      </g>
    </g>
    <path id="Trazado_125204" data-name="Trazado 125204" d="M16.605,724.341H11.4A5.343,5.343,0,0,1,6.059,719h0a5.343,5.343,0,0,1,5.343-5.343h5.2A5.343,5.343,0,0,1,21.949,719h0A5.343,5.343,0,0,1,16.605,724.341Z" transform="translate(-5.018 -670.664)" fill="#3d434f"/>
    <g id="Grupo_59400" data-name="Grupo 59400" transform="translate(0.776 22.303)">
      <path id="Trazado_125205" data-name="Trazado 125205" d="M13.1,649.958c-3.932,4.571-7.508,14.557-7.881,20.512A6.513,6.513,0,0,0,6.262,674.7a3.964,3.964,0,0,0,3.853,1.676c1.534-.315,2.618-1.676,3.394-3.036A49.577,49.577,0,0,0,17.1,663.153c.557-2.7,1.771-5.232,2.254-7.984.3-1.712,1.907-9.746-2.011-8.692a4.834,4.834,0,0,0-1.764,1.04A20.646,20.646,0,0,0,13.1,649.958Z" transform="translate(-5.197 -646.381)" fill="#4f5d7a"/>
    </g>
    <path id="Trazado_125206" data-name="Trazado 125206" d="M52.2,638.933l1.459-2.31,7.841-.243,1.884,2.674Z" transform="translate(-36.967 -617.153)" fill="#fff"/>
    <path id="Trazado_125207" data-name="Trazado 125207" d="M43.656,677.457l-1.59-31.05c-.224,0,.017-2.4-.753-2.86-1.092-.654-4.071-1.119-4.906-1.28l-8.244.075a22.1,22.1,0,0,0-3.6.906,3.864,3.864,0,0,0-2.67,3.212l-1.148,15.874L19.164,677.19l-3.72,11.219a18.744,18.744,0,0,0,4.648,3.347c.522.265,1.056.5,1.6.719,0,0,7.619,3.065,14.721,1.491,1.328-.173,2.642-.409,3.925-.7a26.6,26.6,0,0,0,5.92-2.118Z" transform="translate(-11.517 -621.23)" fill="#6c7995"/>
    <g id="Grupo_59402" data-name="Grupo 59402" transform="translate(26.459 22.059)">
      <path id="Trazado_125208" data-name="Trazado 125208" d="M115.238,724.341h-5.2A5.343,5.343,0,0,1,104.692,719h0a5.343,5.343,0,0,1,5.343-5.343h5.2A5.343,5.343,0,0,1,120.582,719h0A5.343,5.343,0,0,1,115.238,724.341Z" transform="translate(-99.779 -692.722)" fill="#6c7995"/>
      <g id="Grupo_59401" data-name="Grupo 59401">
        <path id="Trazado_125209" data-name="Trazado 125209" d="M95.925,649.889c1.976,2.909,3.152,6.731,4.36,10.019,1.2,3.255,3.242,7.515,3.164,11.038a4.417,4.417,0,0,1-1.606,3.458,4.776,4.776,0,0,1-3.937.586c-3.952-.94-5.048-4.318-6.284-7.664a45.979,45.979,0,0,1-2.8-12.966c-.1-1.78-.787-10.161,3.135-8.573a5.106,5.106,0,0,1,1.7,1.291A21.581,21.581,0,0,1,95.925,649.889Z" transform="translate(-88.714 -645.588)" fill="#6c7995"/>
      </g>
      <path id="Trazado_125210" data-name="Trazado 125210" d="M97.2,709.206a48.086,48.086,0,0,1-4.047-10.653" transform="translate(-91.787 -682.265)" fill="none" stroke="#333842" stroke-miterlimit="10" stroke-width="0.299"/>
      <path id="Trazado_125211" data-name="Trazado 125211" d="M92.583,703l-1.34-2.132" transform="translate(-90.465 -683.872)" fill="none" stroke="#333842" stroke-miterlimit="10" stroke-width="0.299"/>
    </g>
  </g>
  <g id="Grupo_59420" data-name="Grupo 59420" transform="translate(208.343 188.973)">
    <g id="Grupo_59406" data-name="Grupo 59406" transform="translate(27.651 57.591)">
      <g id="Grupo_59404" data-name="Grupo 59404">
        <path id="Trazado_125212" data-name="Trazado 125212" d="M774.423,802.008c-7.211,1.425-7.408,9.712-6.781,15.644,1.324,12.528,4.964,42.187,4.964,42.187l6.933,36.386,4.847.27-2.573-36.817s1.229-26.823,2.462-36.167C786.272,810.425,784.005,800.115,774.423,802.008Z" transform="translate(-767.414 -801.783)" fill="#4f5d7a"/>
      </g>
      <g id="Grupo_59405" data-name="Grupo 59405" transform="translate(5.019 93.427)">
        <path id="Trazado_125213" data-name="Trazado 125213" d="M795.995,1105.649a19.506,19.506,0,0,1-5.23-.047h-.007a1.1,1.1,0,0,0-1.058.494c-.139.215-.274.416-.407.583a4.752,4.752,0,0,1-2.769,1.668c-.039.015-.073.036-.114.049-1.315.165-2.515.837-2.664,2.095h12.12A8.688,8.688,0,0,0,795.995,1105.649Z" transform="translate(-783.744 -1105.592)" fill="#628aec"/>
        <rect id="Rectángulo_31639" data-name="Rectángulo 31639" width="12.345" height="1.593" transform="translate(0 4.709)" fill="#333842"/>
      </g>
    </g>
    <g id="Grupo_59409" data-name="Grupo 59409" transform="translate(10.978 58.014)">
      <g id="Grupo_59407" data-name="Grupo 59407" transform="translate(9.61)">
        <path id="Trazado_125214" data-name="Trazado 125214" d="M759.788,803.175c-7.339-.422-9.6,7.553-10.474,13.454-1.848,12.461-4.87,42.213-4.87,42.213l2.673,38.378,5.057-.2L755,859.045s5.43-23.849,8.959-32.589C769.159,814.284,769.539,803.735,759.788,803.175Z" transform="translate(-744.444 -803.159)" fill="#616e87"/>
      </g>
      <g id="Grupo_59408" data-name="Grupo 59408" transform="translate(0 92.972)">
        <path id="Trazado_125215" data-name="Trazado 125215" d="M731.861,1105.576a19.5,19.5,0,0,1-5.23-.047,2.137,2.137,0,0,0-.76-.012,2.17,2.17,0,0,0-.621.3,21.011,21.011,0,0,1-6.627,2.311,7.663,7.663,0,0,0-3.526,1.134,1.457,1.457,0,0,0-.6,1.158h17.233A8.691,8.691,0,0,0,731.861,1105.576Z" transform="translate(-714.095 -1105.487)" fill="#628aec"/>
        <rect id="Rectángulo_31640" data-name="Rectángulo 31640" width="17.602" height="1.593" transform="translate(0 4.741)" fill="#333842"/>
      </g>
    </g>
    <g id="Grupo_59415" data-name="Grupo 59415" transform="translate(32.529 2.81)">
      <g id="Grupo_59411" data-name="Grupo 59411" transform="translate(2.762 11.534)">
        <g id="Grupo_59410" data-name="Grupo 59410">
          <path id="Trazado_125216" data-name="Trazado 125216" d="M793.814,664.776a10.041,10.041,0,0,0-.175-2.464,6.425,6.425,0,0,0,3.763.109,10.9,10.9,0,0,0,1.785-.683c.206-.1.576-.4.918-.587-.75,2.768-.691,5.655,1.022,8.033a9.489,9.489,0,0,1-4.665,1.984c-1.447.247-4.908.476-4.076-1.96.272-.8.857-1.409,1.088-2.236A10.04,10.04,0,0,0,793.814,664.776Z" transform="translate(-792.258 -661.151)" fill="#f7b699"/>
        </g>
      </g>
      <g id="Grupo_59413" data-name="Grupo 59413" transform="translate(3.904 12.695)">
        <g id="Grupo_59412" data-name="Grupo 59412">
          <path id="Trazado_125217" data-name="Trazado 125217" d="M799.737,665.091a6.406,6.406,0,0,1-3.527-.163,10.45,10.45,0,0,1-.166,4.661c-.021.074-.047.145-.073.216.142-.018.285-.042.428-.07A8.6,8.6,0,0,0,799.737,665.091Z" transform="translate(-795.971 -664.928)" fill="#c46e58"/>
        </g>
      </g>
      <g id="Grupo_59414" data-name="Grupo 59414">
        <path id="Trazado_125218" data-name="Trazado 125218" d="M784.1,650.829a1.639,1.639,0,0,0,.3.042c.3.013.268-.368.251-.589-.046-.581-.047-1.189-.143-1.763a5.764,5.764,0,0,0-.469.726c-.226.316-.456.63-.683.945a.328.328,0,0,0-.071.142c-.017.125.108.221.221.278A2.73,2.73,0,0,0,784.1,650.829Z" transform="translate(-783.276 -640.87)" fill="#f7b699"/>
        <path id="Trazado_125219" data-name="Trazado 125219" d="M797.157,633.374a9.053,9.053,0,0,0,.744-3.81,6.444,6.444,0,0,0-1.407-3.915,5.7,5.7,0,0,0-5.564-1.863,5.381,5.381,0,0,0-1.466.588,5.266,5.266,0,0,0-2.595,3.3c-.041.3.021.591-.038.9-.086.454-.182.9-.252,1.361a13.855,13.855,0,0,0-.177,2.752,9.084,9.084,0,0,0,.606,3.158,4.087,4.087,0,0,0,1.914,2.088,4.78,4.78,0,0,0,4.829-.411A9.476,9.476,0,0,0,797.157,633.374Z" transform="translate(-785.434 -623.645)" fill="#f7b699"/>
        <path id="Trazado_125220" data-name="Trazado 125220" d="M787.845,659.83l.633.281" transform="translate(-786.44 -648.703)" fill="none" stroke="#333842" stroke-linecap="round" stroke-miterlimit="10" stroke-width="0.483"/>
      </g>
    </g>
    <g id="Grupo_59419" data-name="Grupo 59419" transform="translate(0 20.442)">
      <path id="Trazado_125221" data-name="Trazado 125221" d="M724.531,707.463a1.6,1.6,0,0,1,1.024-1.19c.534-.186,1.439-.188,1.617-.725.089-.269.178-.369-.038-.553a1.333,1.333,0,0,0-.788-.276,2.35,2.35,0,0,0-2.161,1.2c-.127.235-.311.543-.567.468a.437.437,0,0,1-.25-.269,2.47,2.47,0,0,1,.52-2.155,3.653,3.653,0,0,1,1.185-1.35,3.516,3.516,0,0,1,1.99-.267,7.562,7.562,0,0,1,3.959,1.012c.3.213.58.462.882.676a9.707,9.707,0,0,0,2.6,1.16l-.845,2.933a.161.161,0,0,1-.24.136c-1.661-.406-3.578-.745-5.244-1.006A12.487,12.487,0,0,0,724.531,707.463Z" transform="translate(-709.189 -695.759)" fill="#f7b699"/>
      <path id="Trazado_125222" data-name="Trazado 125222" d="M761.892,712.385a26.312,26.312,0,0,0-2.755-1.1c-1.646-.564-3.377-1.026-5.03-1.463-.627-.165-3.026-.768-3.67-.871-1.8,1.465-2.307,2.444-2.307,4.609a98.082,98.082,0,0,0,8.6,4.863,25.2,25.2,0,0,0,3.621,1.529,8.241,8.241,0,0,0,4.055.266,2.608,2.608,0,0,0,1.681-.961,1.772,1.772,0,0,0,.2-1.009A7.136,7.136,0,0,0,761.892,712.385Z" transform="translate(-726.408 -700.348)" fill="#628aec"/>
      <path id="Trazado_125223" data-name="Trazado 125223" d="M689.73,740.1a5.013,5.013,0,0,1-.354-4.2,1.835,1.835,0,0,1,1.032-1.166,1.616,1.616,0,0,1,1.678.692,7.735,7.735,0,0,1,.821,1.747,8.134,8.134,0,0,0,1.044,1.808,4.6,4.6,0,0,1,1.1,1.844,1.812,1.812,0,0,1-.5,1.58C693.029,743.905,690.467,741.412,689.73,740.1Z" transform="translate(-685.51 -718.168)" fill="#f7b699"/>
      <g id="Grupo_59416" data-name="Grupo 59416" transform="translate(0 9.771)">
        <path id="Trazado_125224" data-name="Trazado 125224" d="M698.869,724.429l-9.2,4.46L677.5,717.841l9.2-4.46Z" transform="translate(-677.496 -713.189)" fill="#f4ae2d"/>
        <path id="Trazado_125225" data-name="Trazado 125225" d="M700.631,726.315l-7.9,3.83L682.212,720.6l7.9-3.83Z" transform="translate(-680.762 -715.535)" fill="#fff"/>
        <path id="Trazado_125226" data-name="Trazado 125226" d="M695.584,722.026l-6.567,3.183-.641-.582,6.567-3.183Z" transform="translate(-685.03 -718.773)" fill="#c8ddf7"/>
        <path id="Trazado_125227" data-name="Trazado 125227" d="M706.494,731.93l-6.567,3.183-.641-.582,6.567-3.183Z" transform="translate(-692.585 -725.631)" fill="#c8ddf7"/>
        <path id="Trazado_125228" data-name="Trazado 125228" d="M710.108,735.21l-6.567,3.183-.641-.581,6.567-3.183Z" transform="translate(-695.088 -727.903)" fill="#c8ddf7"/>
        <path id="Trazado_125229" data-name="Trazado 125229" d="M713.722,738.491l-6.567,3.183-.641-.582,6.567-3.183Z" transform="translate(-697.591 -730.175)" fill="#c8ddf7"/>
        <path id="Trazado_125230" data-name="Trazado 125230" d="M717.337,741.772l-6.567,3.183-.641-.582,6.567-3.183Z" transform="translate(-700.094 -732.447)" fill="#c8ddf7"/>
        <path id="Trazado_125231" data-name="Trazado 125231" d="M720.951,745.053l-6.567,3.183-.641-.582,6.567-3.183Z" transform="translate(-702.596 -734.719)" fill="#c8ddf7"/>
        <path id="Trazado_125232" data-name="Trazado 125232" d="M688.913,714.89l-5.521,2.676-2.349-2.132,5.521-2.676Z" transform="translate(-679.952 -712.758)" fill="#333842"/>
      </g>
      <path id="Trazado_125233" data-name="Trazado 125233" d="M693.318,739.928a2.719,2.719,0,0,0-.251.341c-.7,1.118.651,2.156,1.508,2.759a21.824,21.824,0,0,0,6.579,2.682c1.274.371,4.963-.538,3.944-2.539-.7-1.366-2.753-2.153-4.107-2.518a3.7,3.7,0,0,1-3.132-2.272c-.234-.633-.328-1.309-.534-1.951a.959.959,0,0,0-.235-.432.367.367,0,0,0-.455-.05.506.506,0,0,0-.143.238c-.394,1.1.313,1.913-1.04,2.557-.449.214-.942.332-1.378.573A2.759,2.759,0,0,0,693.318,739.928Z" transform="translate(-688.145 -719.004)" fill="#f7b699"/>
      <g id="Grupo_59417" data-name="Grupo 59417" transform="translate(24.283)">
        <path id="Trazado_125234" data-name="Trazado 125234" d="M778.1,728.927s.313-.127.552-.243c1.314-.676,1.758-2.387,1.888-3.9.3-3.462-.8-6.722-.667-10.383.141-3.874,1.046-7.857,1.591-12.026a33.275,33.275,0,0,0-.156-11.311c-.61-2.8-1.447-5.906-3.155-8.091a6.169,6.169,0,0,0-3.477-1.756,8.349,8.349,0,0,0-4.39.118,10.159,10.159,0,0,0-4.926,3.465c-1.017,1.276-1.522,3.442-2.041,5.065A59.745,59.745,0,0,0,760.9,700.96c-.453,3.83.1,2.6-.1,6.37s.89,6.768-1.046,9.906c-1.019,1.652-2.315,3.09-2.962,4.885-.634,1.761-.429,4.068,1.061,5.21-.085.67-.187,1.336-.248,2,3,1.458,6.966,1.774,10.171,2.064a51.767,51.767,0,0,0,8.817.039,6.386,6.386,0,0,0,1.508-.178Z" transform="translate(-756.459 -680.983)" fill="#628aec"/>
        <path id="Trazado_125235" data-name="Trazado 125235" d="M797.788,835.78a40.124,40.124,0,0,1-12.644-.565" transform="translate(-776.323 -787.786)" fill="none" stroke="#333842" stroke-linecap="round" stroke-miterlimit="10" stroke-width="0.292"/>
      </g>
      <g id="Grupo_59418" data-name="Grupo 59418" transform="translate(8.216 3.673)">
        <path id="Trazado_125236" data-name="Trazado 125236" d="M733.072,718.612a2.675,2.675,0,0,0-.838-1.046,2.312,2.312,0,0,0-1.384-.318c-2.1.094-3.771,1.812-4.9,3.594s-1.991,3.8-3.594,5.163c-2.8,2.387-12.22,1.706-15.349,1.009a3.354,3.354,0,0,0-2.536,4.548c4.2,1.843,16.846,8.57,21.427,6.389a9.561,9.561,0,0,0,3.766-3.579,29.419,29.419,0,0,0,1.53-2.7,26.194,26.194,0,0,0,2.525-6.362A10.084,10.084,0,0,0,733.072,718.612Z" transform="translate(-704.212 -709.766)" fill="#628aec"/>
        <path id="Trazado_125237" data-name="Trazado 125237" d="M775.317,694.2a4.435,4.435,0,0,0-5.482-.588,6.85,6.85,0,0,0-2,2.911,28.225,28.225,0,0,0-1.59,3.85c-.449,1.366-.792,2.763-1.214,4.138-.69,2.252-1.588,4.444-2.1,6.742a11.928,11.928,0,0,0,.235,6.956c1.235,3.129,5.353,1.467,7.188-.274,1.58-1.5,2.337-3.646,3.041-5.708l2.121-6.213a24.478,24.478,0,0,0,1.4-6.3A7.234,7.234,0,0,0,775.317,694.2Z" transform="translate(-744.594 -692.926)" fill="#628aec"/>
        <path id="Trazado_125238" data-name="Trazado 125238" d="M767.6,710.538a51.015,51.015,0,0,1,5.175-14.2" transform="translate(-748.105 -695.289)" fill="none" stroke="#333842" stroke-miterlimit="10" stroke-width="0.292"/>
        <path id="Trazado_125239" data-name="Trazado 125239" d="M778.05,726.551l-2.711,7.295c-.649,1.747-1.265,3.979-2.5,5.42a28.813,28.813,0,0,1-3.871,4.183,5.668,5.668,0,0,1-4.554,1.31" transform="translate(-745.903 -716.211)" fill="none" stroke="#333842" stroke-linecap="round" stroke-miterlimit="10" stroke-width="0.292"/>
        <path id="Trazado_125240" data-name="Trazado 125240" d="M807.571,728.651a5.106,5.106,0,0,0-1.941,1.979" transform="translate(-774.442 -717.665)" fill="none" stroke="#333842" stroke-miterlimit="10" stroke-width="0.292"/>
      </g>
      <path id="Trazado_125241" data-name="Trazado 125241" d="M717.383,708.523l-1.085.589.55-1.1,6.541-6.774a.371.371,0,0,1,.525-.009h0a.371.371,0,0,1,.009.525Z" transform="translate(-704.366 -694.928)" fill="#333842"/>
    </g>
    <path id="Trazado_125242" data-name="Trazado 125242" d="M784.415,625.651a6.23,6.23,0,0,1-.976-.956c-1.814-2.279-.639-4.8.814-6.828a8.835,8.835,0,0,1,7.422-3.345,6.105,6.105,0,0,1,4.127,1.71,3.635,3.635,0,0,1,1.047,1.8c.048.215.2,1.911-.148,1.945,2.68-.265,2.545,5.566,2.52,7.162q-.1,6.117-.195,12.233a6.833,6.833,0,0,1-1,4.207,4.043,4.043,0,0,1-3.924,1.3,6.069,6.069,0,0,1-3.532-2.374,7.288,7.288,0,0,1-1.666-3.718c-.026-1.424.167-2.893.162-4.33-.008-2.492-.5-5.161-2.257-6.922A29.09,29.09,0,0,0,784.415,625.651Z" transform="translate(-750.22 -614.508)" fill="#333842"/>
  </g>
</svg>
