<?xml version="1.0" encoding="utf-8"?>
<!-- Generator: Adobe Illustrator 25.4.1, SVG Export Plug-In . SVG Version: 6.00 Build 0)  -->
<svg version="1.1" id="Capa_1" xmlns="http://www.w3.org/2000/svg" xmlns:xlink="http://www.w3.org/1999/xlink" x="0px" y="0px"
	 viewBox="0 0 620 283.8" style="enable-background:new 0 0 620 283.8;" xml:space="preserve">
<style type="text/css">
	.st0{fill:#FD8F25;}
	.st1{fill:#BBABF5;}
	.st2{enable-background:new    ;}
	.st3{fill:#FFFFFF;}
	.st4{fill:#12263F;}
	.st5{fill:none;stroke:#707070;}
</style>
<path id="Rectángulo_31662" class="st0" d="M18,99.1h154c9.9,0,18,8.1,18,18v50c0,9.9-8.1,18-18,18H18c-9.9,0-18-8.1-18-18v-50
	C0,107.1,8.1,99.1,18,99.1z"/>
<path id="Rectángulo_31663" class="st1" d="M282.1,0H602c9.9,0,18,8.1,18,18v83.6c0,9.9-8.1,18-18,18H282.1c-9.9,0-18-8.1-18-18V18
	C264.1,8.1,272.2,0,282.1,0z"/>
<path id="Rectángulo_31664" class="st1" d="M282.1,164.2H602c9.9,0,18,8.1,18,18v83.6c0,9.9-8.1,18-18,18H282.1
	c-9.9,0-18-8.1-18-18v-83.6C264.1,172.3,272.2,164.2,282.1,164.2z"/>
<g class="st2">
	<path class="st3" d="M48.2,136.6h-2.3v-11.4h2.3V136.6z"/>
	<path class="st3" d="M52.3,128.1l0.1,1c0.6-0.8,1.4-1.1,2.4-1.1c0.9,0,1.6,0.3,2,0.8s0.7,1.3,0.7,2.4v5.5h-2.3v-5.4
		c0-0.5-0.1-0.8-0.3-1c-0.2-0.2-0.6-0.3-1-0.3c-0.6,0-1.1,0.3-1.4,0.8v6h-2.3v-8.5H52.3z"/>
	<path class="st3" d="M62.4,133.8l1.6-5.7h2.4l-2.9,8.5h-2.2l-2.9-8.5h2.4L62.4,133.8z"/>
	<path class="st3" d="M71.2,136.7c-1.2,0-2.2-0.4-3-1.1c-0.8-0.8-1.2-1.8-1.2-3v-0.2c0-0.8,0.2-1.6,0.5-2.3s0.8-1.2,1.4-1.5
		s1.3-0.5,2.1-0.5c1.2,0,2.1,0.4,2.7,1.1s1,1.8,1,3.1v0.9h-5.4c0.1,0.6,0.3,1,0.7,1.3s0.8,0.5,1.4,0.5c0.9,0,1.5-0.3,2-0.9l1.1,1.2
		c-0.3,0.5-0.8,0.9-1.4,1.1S71.9,136.7,71.2,136.7z M70.9,129.8c-0.4,0-0.8,0.2-1.1,0.5c-0.3,0.3-0.5,0.7-0.5,1.3h3.1v-0.2
		c0-0.5-0.1-0.9-0.4-1.2C71.8,129.9,71.4,129.8,70.9,129.8z"/>
	<path class="st3" d="M80.5,134.2c0-0.3-0.1-0.5-0.4-0.7s-0.7-0.3-1.3-0.4c-2-0.4-3-1.3-3-2.6c0-0.8,0.3-1.4,0.9-1.9
		c0.6-0.5,1.4-0.8,2.4-0.8c1.1,0,1.9,0.3,2.6,0.8c0.6,0.5,1,1.2,1,2h-2.3c0-0.3-0.1-0.6-0.3-0.8c-0.2-0.2-0.5-0.3-1-0.3
		c-0.4,0-0.7,0.1-0.9,0.3c-0.2,0.2-0.3,0.4-0.3,0.7c0,0.2,0.1,0.5,0.4,0.6c0.2,0.2,0.6,0.3,1.2,0.4s1,0.2,1.4,0.4
		c1.2,0.4,1.8,1.2,1.8,2.3c0,0.8-0.3,1.4-1,1.9c-0.7,0.5-1.5,0.7-2.6,0.7c-0.7,0-1.3-0.1-1.9-0.4c-0.5-0.3-1-0.6-1.3-1
		s-0.5-0.9-0.5-1.4h2.1c0,0.4,0.2,0.7,0.4,0.9c0.3,0.2,0.6,0.3,1.1,0.3c0.4,0,0.8-0.1,1-0.2C80.4,134.7,80.5,134.5,80.5,134.2z"/>
	<path class="st3" d="M86.9,126.1v2.1h1.4v1.7h-1.4v4.2c0,0.3,0.1,0.5,0.2,0.7c0.1,0.1,0.3,0.2,0.7,0.2c0.2,0,0.5,0,0.7-0.1v1.7
		c-0.4,0.1-0.9,0.2-1.4,0.2c-1.6,0-2.4-0.8-2.4-2.4v-4.6h-1.2v-1.7h1.2v-2.1H86.9z"/>
	<path class="st3" d="M89.6,125.9c0-0.3,0.1-0.6,0.3-0.8s0.5-0.3,0.9-0.3c0.4,0,0.7,0.1,0.9,0.3c0.2,0.2,0.3,0.5,0.3,0.8
		c0,0.3-0.1,0.6-0.3,0.8c-0.2,0.2-0.5,0.3-0.9,0.3c-0.4,0-0.7-0.1-0.9-0.3C89.7,126.6,89.6,126.3,89.6,125.9z M92,136.6h-2.3v-8.5
		H92V136.6z"/>
	<path class="st3" d="M93.5,132.3c0-1.3,0.3-2.3,0.9-3.1s1.4-1.2,2.5-1.2c0.9,0,1.6,0.3,2.2,1l0.1-0.8h2v8.2c0,0.7-0.2,1.4-0.5,1.9
		s-0.8,1-1.4,1.2s-1.3,0.4-2.1,0.4c-0.6,0-1.2-0.1-1.8-0.4c-0.6-0.2-1-0.6-1.3-1l1-1.4c0.6,0.6,1.2,0.9,2,0.9c0.6,0,1.1-0.2,1.4-0.5
		c0.3-0.3,0.5-0.8,0.5-1.4v-0.5c-0.5,0.6-1.2,0.9-2.1,0.9c-1,0-1.8-0.4-2.5-1.2C93.8,134.8,93.5,133.7,93.5,132.3L93.5,132.3z
		 M95.8,132.5c0,0.8,0.2,1.4,0.5,1.8c0.3,0.4,0.7,0.7,1.3,0.7c0.7,0,1.2-0.3,1.5-0.8v-3.6c-0.3-0.5-0.8-0.8-1.5-0.8
		c-0.5,0-1,0.2-1.3,0.7C95.9,130.9,95.8,131.6,95.8,132.5z"/>
	<path class="st3" d="M107.9,136.6c-0.1-0.2-0.2-0.5-0.2-0.8c-0.5,0.6-1.3,0.9-2.1,0.9c-0.8,0-1.5-0.2-2.1-0.7
		c-0.5-0.5-0.8-1.1-0.8-1.8c0-0.9,0.3-1.6,1-2.1s1.6-0.7,2.9-0.7h1v-0.5c0-0.4-0.1-0.7-0.3-0.9c-0.2-0.2-0.5-0.4-0.9-0.4
		c-0.4,0-0.7,0.1-0.9,0.3c-0.2,0.2-0.3,0.4-0.3,0.8h-2.3c0-0.5,0.2-0.9,0.5-1.4c0.3-0.4,0.7-0.7,1.3-1c0.6-0.2,1.2-0.4,1.9-0.4
		c1,0,1.9,0.3,2.5,0.8c0.6,0.5,0.9,1.3,0.9,2.2v3.7c0,0.8,0.1,1.4,0.3,1.8v0.1H107.9z M106,135c0.3,0,0.6-0.1,0.9-0.2
		s0.5-0.3,0.6-0.6v-1.5h-0.8c-1.1,0-1.7,0.4-1.8,1.2l0,0.1c0,0.3,0.1,0.5,0.3,0.7C105.4,134.9,105.7,135,106,135z"/>
	<path class="st3" d="M115.1,134.9c0.4,0,0.8-0.1,1-0.3c0.3-0.2,0.4-0.5,0.4-0.9h2.1c0,0.6-0.2,1.1-0.5,1.6
		c-0.3,0.5-0.7,0.8-1.3,1.1c-0.5,0.3-1.1,0.4-1.8,0.4c-1.2,0-2.2-0.4-2.9-1.2c-0.7-0.8-1-1.8-1-3.2v-0.1c0-1.3,0.3-2.3,1-3.1
		c0.7-0.8,1.6-1.2,2.9-1.2c1.1,0,1.9,0.3,2.5,0.9c0.6,0.6,1,1.4,1,2.4h-2.1c0-0.4-0.1-0.8-0.4-1.1c-0.3-0.3-0.6-0.4-1-0.4
		c-0.5,0-0.9,0.2-1.2,0.6c-0.3,0.4-0.4,1-0.4,1.9v0.2c0,0.9,0.1,1.5,0.4,1.9S114.5,134.9,115.1,134.9z"/>
	<path class="st3" d="M119.9,125.9c0-0.3,0.1-0.6,0.3-0.8s0.5-0.3,0.9-0.3c0.4,0,0.7,0.1,0.9,0.3c0.2,0.2,0.3,0.5,0.3,0.8
		c0,0.3-0.1,0.6-0.3,0.8c-0.2,0.2-0.5,0.3-0.9,0.3c-0.4,0-0.7-0.1-0.9-0.3C120,126.6,119.9,126.3,119.9,125.9z M122.3,136.6H120
		v-8.5h2.3V136.6z"/>
	<path class="st3" d="M123.8,132.3c0-0.8,0.2-1.6,0.5-2.2c0.3-0.7,0.8-1.2,1.4-1.5c0.6-0.4,1.3-0.5,2.1-0.5c1.1,0,2.1,0.3,2.8,1
		c0.7,0.7,1.1,1.6,1.2,2.8l0,0.6c0,1.3-0.4,2.3-1.1,3.1c-0.7,0.8-1.7,1.2-2.9,1.2s-2.2-0.4-2.9-1.2s-1.1-1.8-1.1-3.2V132.3z
		 M126,132.4c0,0.8,0.2,1.4,0.5,1.8c0.3,0.4,0.7,0.6,1.3,0.6c0.5,0,1-0.2,1.3-0.6c0.3-0.4,0.5-1.1,0.5-2c0-0.8-0.2-1.4-0.5-1.8
		c-0.3-0.4-0.7-0.6-1.3-0.6c-0.6,0-1,0.2-1.3,0.6C126.2,130.9,126,131.5,126,132.4z M128.2,124.6h2.5l-2.2,2.4h-1.8L128.2,124.6z"/>
	<path class="st3" d="M135.3,128.1l0.1,1c0.6-0.8,1.4-1.1,2.4-1.1c0.9,0,1.6,0.3,2,0.8s0.7,1.3,0.7,2.4v5.5h-2.3v-5.4
		c0-0.5-0.1-0.8-0.3-1c-0.2-0.2-0.6-0.3-1-0.3c-0.6,0-1.1,0.3-1.4,0.8v6h-2.3v-8.5H135.3z"/>
</g>
<g class="st2">
	<path class="st3" d="M53.6,158.9c0.4,0,0.8-0.1,1-0.3c0.3-0.2,0.4-0.5,0.4-0.9h2.1c0,0.6-0.2,1.1-0.5,1.6c-0.3,0.5-0.7,0.8-1.3,1.1
		c-0.5,0.3-1.1,0.4-1.8,0.4c-1.2,0-2.2-0.4-2.9-1.2c-0.7-0.8-1-1.8-1-3.2v-0.1c0-1.3,0.3-2.3,1-3.1c0.7-0.8,1.6-1.2,2.9-1.2
		c1.1,0,1.9,0.3,2.5,0.9c0.6,0.6,1,1.4,1,2.4H55c0-0.4-0.1-0.8-0.4-1.1c-0.3-0.3-0.6-0.4-1-0.4c-0.5,0-0.9,0.2-1.2,0.6
		c-0.3,0.4-0.4,1-0.4,1.9v0.2c0,0.9,0.1,1.5,0.4,1.9S53.1,158.9,53.6,158.9z"/>
	<path class="st3" d="M58.1,156.3c0-0.8,0.2-1.6,0.5-2.2c0.3-0.7,0.8-1.2,1.4-1.5c0.6-0.4,1.3-0.5,2.1-0.5c1.1,0,2.1,0.3,2.8,1
		c0.7,0.7,1.1,1.6,1.2,2.8l0,0.6c0,1.3-0.4,2.3-1.1,3.1c-0.7,0.8-1.7,1.2-2.9,1.2s-2.2-0.4-2.9-1.2s-1.1-1.8-1.1-3.2V156.3z
		 M60.3,156.4c0,0.8,0.2,1.4,0.5,1.8c0.3,0.4,0.7,0.6,1.3,0.6c0.5,0,1-0.2,1.3-0.6c0.3-0.4,0.5-1.1,0.5-2c0-0.8-0.2-1.4-0.5-1.8
		c-0.3-0.4-0.7-0.6-1.3-0.6c-0.6,0-1,0.2-1.3,0.6C60.5,154.9,60.3,155.5,60.3,156.4z"/>
	<path class="st3" d="M69.6,152.1l0.1,1c0.6-0.8,1.4-1.1,2.4-1.1c0.9,0,1.6,0.3,2,0.8c0.4,0.5,0.7,1.3,0.7,2.4v5.5h-2.3v-5.4
		c0-0.5-0.1-0.8-0.3-1c-0.2-0.2-0.6-0.3-1-0.3c-0.6,0-1.1,0.3-1.4,0.8v6h-2.3v-8.5H69.6z"/>
	<path class="st3" d="M79.9,158.9c0.4,0,0.8-0.1,1-0.3c0.3-0.2,0.4-0.5,0.4-0.9h2.1c0,0.6-0.2,1.1-0.5,1.6c-0.3,0.5-0.7,0.8-1.3,1.1
		c-0.5,0.3-1.1,0.4-1.8,0.4c-1.2,0-2.2-0.4-2.9-1.2c-0.7-0.8-1-1.8-1-3.2v-0.1c0-1.3,0.3-2.3,1-3.1c0.7-0.8,1.6-1.2,2.9-1.2
		c1.1,0,1.9,0.3,2.5,0.9c0.6,0.6,1,1.4,1,2.4h-2.1c0-0.4-0.1-0.8-0.4-1.1c-0.3-0.3-0.6-0.4-1-0.4c-0.5,0-0.9,0.2-1.2,0.6
		c-0.3,0.4-0.4,1-0.4,1.9v0.2c0,0.9,0.1,1.5,0.4,1.9S79.4,158.9,79.9,158.9z"/>
	<path class="st3" d="M87.2,160.6h-2.3v-12h2.3V160.6z"/>
	<path class="st3" d="M94.1,159.7c-0.6,0.7-1.3,1-2.3,1c-0.9,0-1.6-0.3-2.1-0.8c-0.5-0.5-0.7-1.3-0.7-2.3v-5.5h2.3v5.5
		c0,0.9,0.4,1.3,1.2,1.3c0.8,0,1.3-0.3,1.6-0.8v-6h2.3v8.5h-2.1L94.1,159.7z"/>
	<path class="st3" d="M101.1,157.4l1.6-5.3h2.4l-3.4,9.8l-0.2,0.4c-0.5,1.1-1.3,1.7-2.5,1.7c-0.3,0-0.7-0.1-1-0.1v-1.7l0.3,0
		c0.4,0,0.7-0.1,1-0.2c0.2-0.1,0.4-0.3,0.5-0.6l0.3-0.7l-3-8.5h2.4L101.1,157.4z"/>
	<path class="st3" d="M109.9,160.7c-1.2,0-2.2-0.4-3-1.1c-0.8-0.8-1.2-1.8-1.2-3v-0.2c0-0.8,0.2-1.6,0.5-2.3
		c0.3-0.7,0.8-1.2,1.4-1.5c0.6-0.4,1.3-0.5,2.1-0.5c1.2,0,2.1,0.4,2.7,1.1c0.7,0.7,1,1.8,1,3.1v0.9H108c0.1,0.6,0.3,1,0.7,1.3
		c0.4,0.3,0.8,0.5,1.4,0.5c0.9,0,1.5-0.3,2-0.9l1.1,1.2c-0.3,0.5-0.8,0.9-1.4,1.1C111.2,160.6,110.6,160.7,109.9,160.7z
		 M109.6,153.8c-0.4,0-0.8,0.2-1.1,0.5c-0.3,0.3-0.5,0.7-0.5,1.3h3.1v-0.2c0-0.5-0.1-0.9-0.4-1.2
		C110.5,153.9,110.1,153.8,109.6,153.8z"/>
	<path class="st3" d="M116.7,152.1l0.1,1c0.6-0.8,1.4-1.1,2.4-1.1c0.9,0,1.6,0.3,2,0.8c0.4,0.5,0.7,1.3,0.7,2.4v5.5h-2.3v-5.4
		c0-0.5-0.1-0.8-0.3-1c-0.2-0.2-0.6-0.3-1-0.3c-0.6,0-1.1,0.3-1.4,0.8v6h-2.3v-8.5H116.7z"/>
	<path class="st3" d="M126.3,150.1v2.1h1.4v1.7h-1.4v4.2c0,0.3,0.1,0.5,0.2,0.7c0.1,0.1,0.3,0.2,0.7,0.2c0.2,0,0.5,0,0.7-0.1v1.7
		c-0.4,0.1-0.9,0.2-1.4,0.2c-1.6,0-2.4-0.8-2.4-2.4v-4.6h-1.2v-1.7h1.2v-2.1H126.3z"/>
	<path class="st3" d="M132.9,160.7c-1.2,0-2.2-0.4-3-1.1c-0.8-0.8-1.2-1.8-1.2-3v-0.2c0-0.8,0.2-1.6,0.5-2.3
		c0.3-0.7,0.8-1.2,1.4-1.5c0.6-0.4,1.3-0.5,2.1-0.5c1.2,0,2.1,0.4,2.7,1.1c0.7,0.7,1,1.8,1,3.1v0.9H131c0.1,0.6,0.3,1,0.7,1.3
		c0.4,0.3,0.8,0.5,1.4,0.5c0.9,0,1.5-0.3,2-0.9l1.1,1.2c-0.3,0.5-0.8,0.9-1.4,1.1C134.3,160.6,133.6,160.7,132.9,160.7z
		 M132.7,153.8c-0.4,0-0.8,0.2-1.1,0.5c-0.3,0.3-0.5,0.7-0.5,1.3h3.1v-0.2c0-0.5-0.1-0.9-0.4-1.2
		C133.5,153.9,133.1,153.8,132.7,153.8z"/>
</g>
<g class="st2">
	<path class="st4" d="M356.8,25.6h-1.5V14.2h1.5V25.6z"/>
	<path class="st4" d="M360.7,17.1l0,1.1c0.6-0.8,1.5-1.2,2.5-1.2c1.8,0,2.7,1,2.7,3v5.6h-1.4V20c0-0.6-0.1-1.1-0.4-1.4
		s-0.7-0.4-1.3-0.4c-0.5,0-0.9,0.1-1.2,0.4c-0.4,0.2-0.6,0.6-0.8,1v6h-1.4v-8.5H360.7z"/>
	<path class="st4" d="M370.9,23.6l2.1-6.5h1.5l-3,8.5h-1.1l-3.1-8.5h1.5L370.9,23.6z"/>
	<path class="st4" d="M379.4,25.7c-1.1,0-2.1-0.4-2.8-1.1s-1.1-1.8-1.1-3v-0.3c0-0.8,0.2-1.6,0.5-2.2s0.8-1.2,1.3-1.5
		c0.6-0.4,1.2-0.6,1.9-0.6c1.1,0,2,0.4,2.6,1.1s0.9,1.8,0.9,3.1v0.6h-5.7c0,0.8,0.3,1.5,0.7,2c0.5,0.5,1.1,0.8,1.8,0.8
		c0.5,0,0.9-0.1,1.3-0.3c0.4-0.2,0.7-0.5,0.9-0.8l0.9,0.7C381.8,25.2,380.8,25.7,379.4,25.7z M379.2,18.2c-0.6,0-1.1,0.2-1.5,0.6
		c-0.4,0.4-0.6,1-0.7,1.8h4.2v-0.1c0-0.7-0.2-1.3-0.6-1.7C380.3,18.4,379.8,18.2,379.2,18.2z"/>
	<path class="st4" d="M389.3,23.3c0-0.4-0.1-0.7-0.4-0.9c-0.3-0.2-0.8-0.4-1.5-0.6c-0.7-0.2-1.3-0.3-1.7-0.6s-0.7-0.5-1-0.8
		c-0.2-0.3-0.3-0.7-0.3-1.1c0-0.7,0.3-1.3,0.9-1.8s1.3-0.7,2.2-0.7c1,0,1.7,0.2,2.3,0.7c0.6,0.5,0.9,1.1,0.9,1.9h-1.5
		c0-0.4-0.2-0.7-0.5-1s-0.8-0.4-1.3-0.4c-0.5,0-0.9,0.1-1.2,0.3s-0.4,0.5-0.4,0.9c0,0.3,0.1,0.6,0.4,0.8c0.3,0.2,0.8,0.3,1.5,0.5
		c0.7,0.2,1.3,0.4,1.8,0.6c0.4,0.2,0.8,0.5,1,0.8c0.2,0.3,0.3,0.7,0.3,1.2c0,0.8-0.3,1.4-0.9,1.8c-0.6,0.5-1.4,0.7-2.4,0.7
		c-0.7,0-1.3-0.1-1.8-0.4c-0.5-0.2-0.9-0.6-1.2-1c-0.3-0.4-0.4-0.9-0.4-1.4h1.4c0,0.5,0.2,0.9,0.6,1.2c0.4,0.3,0.8,0.4,1.4,0.4
		c0.5,0,1-0.1,1.3-0.3C389.1,24,389.3,23.7,389.3,23.3z"/>
	<path class="st4" d="M394.5,15.1v2h1.6v1.1h-1.6v5.2c0,0.3,0.1,0.6,0.2,0.8c0.1,0.2,0.4,0.3,0.7,0.3c0.2,0,0.4,0,0.7-0.1v1.2
		c-0.4,0.1-0.8,0.2-1.1,0.2c-0.6,0-1.1-0.2-1.5-0.6s-0.5-0.9-0.5-1.7v-5.2h-1.5v-1.1h1.5v-2H394.5z"/>
	<path class="st4" d="M397.8,14.9c0-0.2,0.1-0.4,0.2-0.6c0.1-0.2,0.4-0.2,0.6-0.2s0.5,0.1,0.6,0.2c0.1,0.2,0.2,0.4,0.2,0.6
		s-0.1,0.4-0.2,0.6c-0.1,0.2-0.4,0.2-0.6,0.2s-0.5-0.1-0.6-0.2C397.9,15.3,397.8,15.1,397.8,14.9z M399.4,25.6h-1.4v-8.5h1.4V25.6z"
		/>
	<path class="st4" d="M401.4,21.3c0-1.3,0.3-2.4,0.9-3.1s1.4-1.2,2.4-1.2c1,0,1.8,0.4,2.4,1.1l0.1-0.9h1.3v8.2c0,1.1-0.3,2-1,2.6
		s-1.5,0.9-2.6,0.9c-0.6,0-1.2-0.1-1.8-0.4c-0.6-0.3-1-0.6-1.3-1.1l0.8-0.9c0.6,0.8,1.4,1.1,2.3,1.1c0.7,0,1.2-0.2,1.6-0.6
		c0.4-0.4,0.6-1,0.6-1.7v-0.7c-0.6,0.7-1.4,1-2.4,1c-1,0-1.8-0.4-2.4-1.2C401.7,23.7,401.4,22.7,401.4,21.3z M402.8,21.4
		c0,1,0.2,1.7,0.6,2.2s0.9,0.8,1.6,0.8c0.9,0,1.6-0.4,2-1.2v-3.9c-0.4-0.8-1.1-1.2-2-1.2c-0.7,0-1.3,0.3-1.6,0.8
		C403,19.6,402.8,20.4,402.8,21.4z"/>
	<path class="st4" d="M415.9,25.6c-0.1-0.2-0.2-0.5-0.2-0.9c-0.7,0.7-1.5,1-2.4,1c-0.8,0-1.5-0.2-2.1-0.7c-0.5-0.5-0.8-1.1-0.8-1.8
		c0-0.9,0.3-1.6,1-2.1c0.7-0.5,1.6-0.7,2.8-0.7h1.4v-0.7c0-0.5-0.2-0.9-0.5-1.2c-0.3-0.3-0.7-0.4-1.3-0.4c-0.5,0-0.9,0.1-1.3,0.4
		c-0.3,0.3-0.5,0.6-0.5,0.9h-1.5c0-0.4,0.1-0.8,0.4-1.2c0.3-0.4,0.7-0.7,1.2-0.9c0.5-0.2,1.1-0.3,1.7-0.3c1,0,1.7,0.2,2.3,0.7
		c0.6,0.5,0.8,1.2,0.9,2v3.9c0,0.8,0.1,1.4,0.3,1.9v0.1H415.9z M413.5,24.5c0.5,0,0.9-0.1,1.3-0.4s0.7-0.5,0.9-0.9v-1.7h-1.1
		c-1.8,0-2.7,0.5-2.7,1.6c0,0.5,0.2,0.8,0.5,1.1C412.6,24.4,413,24.5,413.5,24.5z"/>
	<path class="st4" d="M422.8,24.6c0.5,0,1-0.2,1.4-0.5c0.4-0.3,0.6-0.7,0.6-1.2h1.4c0,0.5-0.2,0.9-0.5,1.4c-0.3,0.4-0.7,0.8-1.2,1
		c-0.5,0.3-1.1,0.4-1.6,0.4c-1.2,0-2.1-0.4-2.7-1.2s-1-1.8-1-3.2v-0.2c0-0.8,0.2-1.6,0.5-2.2c0.3-0.6,0.7-1.1,1.3-1.5
		c0.6-0.4,1.2-0.5,2-0.5c0.9,0,1.7,0.3,2.4,0.9c0.6,0.6,1,1.3,1,2.2h-1.4c0-0.5-0.2-1-0.6-1.3c-0.4-0.4-0.8-0.5-1.4-0.5
		c-0.7,0-1.3,0.3-1.7,0.8c-0.4,0.5-0.6,1.3-0.6,2.3v0.3c0,1,0.2,1.7,0.6,2.2C421.4,24.3,422,24.6,422.8,24.6z"/>
	<path class="st4" d="M427.8,14.9c0-0.2,0.1-0.4,0.2-0.6c0.1-0.2,0.4-0.2,0.6-0.2s0.5,0.1,0.6,0.2c0.1,0.2,0.2,0.4,0.2,0.6
		s-0.1,0.4-0.2,0.6c-0.1,0.2-0.4,0.2-0.6,0.2s-0.5-0.1-0.6-0.2C427.8,15.3,427.8,15.1,427.8,14.9z M429.3,25.6h-1.4v-8.5h1.4V25.6z"
		/>
	<path class="st4" d="M431.3,21.3c0-0.8,0.2-1.6,0.5-2.2c0.3-0.7,0.8-1.2,1.4-1.5c0.6-0.4,1.2-0.5,2-0.5c1.2,0,2.1,0.4,2.8,1.2
		s1.1,1.9,1.1,3.2v0.1c0,0.8-0.2,1.6-0.5,2.2c-0.3,0.7-0.8,1.2-1.4,1.5s-1.3,0.5-2,0.5c-1.1,0-2.1-0.4-2.8-1.2s-1.1-1.9-1.1-3.2
		V21.3z M432.7,21.4c0,0.9,0.2,1.7,0.7,2.3c0.4,0.6,1,0.9,1.7,0.9c0.7,0,1.3-0.3,1.8-0.9c0.4-0.6,0.6-1.4,0.6-2.4
		c0-0.9-0.2-1.7-0.7-2.3c-0.4-0.6-1-0.9-1.8-0.9c-0.7,0-1.3,0.3-1.7,0.9S432.7,20.4,432.7,21.4z M435.7,13.6h1.8l-2.1,2.3l-1.2,0
		L435.7,13.6z"/>
	<path class="st4" d="M442.1,17.1l0,1.1c0.6-0.8,1.5-1.2,2.5-1.2c1.8,0,2.7,1,2.7,3v5.6H446V20c0-0.6-0.1-1.1-0.4-1.4
		s-0.7-0.4-1.3-0.4c-0.5,0-0.9,0.1-1.2,0.4c-0.4,0.2-0.6,0.6-0.8,1v6h-1.4v-8.5H442.1z"/>
	<path class="st4" d="M453.2,21.3c0-1.3,0.3-2.3,0.9-3.1c0.6-0.8,1.4-1.2,2.4-1.2c1,0,1.8,0.3,2.4,1v-4.4h1.4v12H459l-0.1-0.9
		c-0.6,0.7-1.4,1.1-2.4,1.1c-1,0-1.8-0.4-2.4-1.2s-0.9-1.8-0.9-3.1V21.3z M454.6,21.4c0,1,0.2,1.7,0.6,2.2c0.4,0.5,0.9,0.8,1.6,0.8
		c0.9,0,1.6-0.4,2-1.2v-3.9c-0.4-0.8-1.1-1.2-2-1.2c-0.7,0-1.3,0.3-1.7,0.8C454.8,19.6,454.6,20.4,454.6,21.4z"/>
	<path class="st4" d="M466.1,25.7c-1.1,0-2.1-0.4-2.8-1.1s-1.1-1.8-1.1-3v-0.3c0-0.8,0.2-1.6,0.5-2.2s0.8-1.2,1.3-1.5
		c0.6-0.4,1.2-0.6,1.9-0.6c1.1,0,2,0.4,2.6,1.1s0.9,1.8,0.9,3.1v0.6h-5.7c0,0.8,0.3,1.5,0.7,2c0.5,0.5,1.1,0.8,1.8,0.8
		c0.5,0,0.9-0.1,1.3-0.3c0.4-0.2,0.7-0.5,0.9-0.8l0.9,0.7C468.6,25.2,467.5,25.7,466.1,25.7z M465.9,18.2c-0.6,0-1.1,0.2-1.5,0.6
		c-0.4,0.4-0.6,1-0.7,1.8h4.2v-0.1c0-0.7-0.2-1.3-0.6-1.7C467,18.4,466.5,18.2,465.9,18.2z"/>
	<path class="st4" d="M476,23.3c0-0.4-0.1-0.7-0.4-0.9c-0.3-0.2-0.8-0.4-1.5-0.6c-0.7-0.2-1.3-0.3-1.7-0.6s-0.7-0.5-1-0.8
		c-0.2-0.3-0.3-0.7-0.3-1.1c0-0.7,0.3-1.3,0.9-1.8s1.3-0.7,2.2-0.7c1,0,1.7,0.2,2.3,0.7c0.6,0.5,0.9,1.1,0.9,1.9h-1.5
		c0-0.4-0.2-0.7-0.5-1s-0.8-0.4-1.3-0.4c-0.5,0-0.9,0.1-1.2,0.3s-0.4,0.5-0.4,0.9c0,0.3,0.1,0.6,0.4,0.8c0.3,0.2,0.8,0.3,1.5,0.5
		c0.7,0.2,1.3,0.4,1.8,0.6c0.4,0.2,0.8,0.5,1,0.8c0.2,0.3,0.3,0.7,0.3,1.2c0,0.8-0.3,1.4-0.9,1.8c-0.6,0.5-1.4,0.7-2.4,0.7
		c-0.7,0-1.3-0.1-1.8-0.4c-0.5-0.2-0.9-0.6-1.2-1c-0.3-0.4-0.4-0.9-0.4-1.4h1.4c0,0.5,0.2,0.9,0.6,1.2c0.4,0.3,0.8,0.4,1.4,0.4
		c0.5,0,1-0.1,1.3-0.3C475.8,24,476,23.7,476,23.3z"/>
	<path class="st4" d="M482.7,24.6c0.5,0,1-0.2,1.4-0.5c0.4-0.3,0.6-0.7,0.6-1.2h1.4c0,0.5-0.2,0.9-0.5,1.4c-0.3,0.4-0.7,0.8-1.2,1
		c-0.5,0.3-1.1,0.4-1.6,0.4c-1.2,0-2.1-0.4-2.7-1.2s-1-1.8-1-3.2v-0.2c0-0.8,0.2-1.6,0.5-2.2c0.3-0.6,0.7-1.1,1.3-1.5
		c0.6-0.4,1.2-0.5,2-0.5c0.9,0,1.7,0.3,2.4,0.9c0.6,0.6,1,1.3,1,2.2h-1.4c0-0.5-0.2-1-0.6-1.3c-0.4-0.4-0.8-0.5-1.4-0.5
		c-0.7,0-1.3,0.3-1.7,0.8c-0.4,0.5-0.6,1.3-0.6,2.3v0.3c0,1,0.2,1.7,0.6,2.2C481.4,24.3,481.9,24.6,482.7,24.6z"/>
	<path class="st4" d="M491.8,18.4c-0.2,0-0.5-0.1-0.7-0.1c-0.9,0-1.6,0.4-1.9,1.2v6h-1.4v-8.5h1.4l0,1c0.5-0.8,1.1-1.1,2-1.1
		c0.3,0,0.5,0,0.6,0.1V18.4z"/>
	<path class="st4" d="M493.1,14.9c0-0.2,0.1-0.4,0.2-0.6c0.1-0.2,0.4-0.2,0.6-0.2s0.5,0.1,0.6,0.2c0.1,0.2,0.2,0.4,0.2,0.6
		s-0.1,0.4-0.2,0.6c-0.1,0.2-0.4,0.2-0.6,0.2s-0.5-0.1-0.6-0.2C493.2,15.3,493.1,15.1,493.1,14.9z M494.7,25.6h-1.4v-8.5h1.4V25.6z"
		/>
	<path class="st4" d="M504.1,21.4c0,1.3-0.3,2.3-0.9,3.1c-0.6,0.8-1.4,1.2-2.4,1.2c-1,0-1.8-0.3-2.4-1v4.1H497V17.1h1.3l0.1,0.9
		c0.6-0.7,1.4-1.1,2.5-1.1c1,0,1.8,0.4,2.4,1.1c0.6,0.8,0.9,1.8,0.9,3.2V21.4z M502.7,21.3c0-1-0.2-1.7-0.6-2.3s-1-0.8-1.7-0.8
		c-0.9,0-1.5,0.4-2,1.2v4c0.4,0.8,1.1,1.2,2,1.2c0.7,0,1.2-0.3,1.7-0.8C502.5,23.2,502.7,22.4,502.7,21.3z"/>
	<path class="st4" d="M507.9,15.1v2h1.6v1.1h-1.6v5.2c0,0.3,0.1,0.6,0.2,0.8c0.1,0.2,0.4,0.3,0.7,0.3c0.2,0,0.4,0,0.7-0.1v1.2
		c-0.4,0.1-0.8,0.2-1.1,0.2c-0.6,0-1.1-0.2-1.5-0.6s-0.5-0.9-0.5-1.7v-5.2h-1.5v-1.1h1.5v-2H507.9z"/>
	<path class="st4" d="M511.2,14.9c0-0.2,0.1-0.4,0.2-0.6c0.1-0.2,0.4-0.2,0.6-0.2s0.5,0.1,0.6,0.2c0.1,0.2,0.2,0.4,0.2,0.6
		s-0.1,0.4-0.2,0.6c-0.1,0.2-0.4,0.2-0.6,0.2s-0.5-0.1-0.6-0.2C511.3,15.3,511.2,15.1,511.2,14.9z M512.7,25.6h-1.4v-8.5h1.4V25.6z"
		/>
	<path class="st4" d="M517.8,23.6l2.1-6.5h1.5l-3,8.5h-1.1l-3.1-8.5h1.5L517.8,23.6z"/>
	<path class="st4" d="M527.9,25.6c-0.1-0.2-0.2-0.5-0.2-0.9c-0.7,0.7-1.5,1-2.4,1c-0.8,0-1.5-0.2-2.1-0.7c-0.5-0.5-0.8-1.1-0.8-1.8
		c0-0.9,0.3-1.6,1-2.1c0.7-0.5,1.6-0.7,2.8-0.7h1.4v-0.7c0-0.5-0.2-0.9-0.5-1.2c-0.3-0.3-0.7-0.4-1.3-0.4c-0.5,0-0.9,0.1-1.3,0.4
		c-0.3,0.3-0.5,0.6-0.5,0.9h-1.5c0-0.4,0.1-0.8,0.4-1.2c0.3-0.4,0.7-0.7,1.2-0.9c0.5-0.2,1.1-0.3,1.7-0.3c1,0,1.7,0.2,2.3,0.7
		c0.6,0.5,0.8,1.2,0.9,2v3.9c0,0.8,0.1,1.4,0.3,1.9v0.1H527.9z M525.5,24.5c0.5,0,0.9-0.1,1.3-0.4s0.7-0.5,0.9-0.9v-1.7h-1.1
		c-1.8,0-2.7,0.5-2.7,1.6c0,0.5,0.2,0.8,0.5,1.1C524.6,24.4,525,24.5,525.5,24.5z"/>
</g>
<g class="st2">
	<path class="st4" d="M337.2,49.6V38.2h3.2c1,0,1.9,0.2,2.6,0.7s1.3,1.1,1.8,1.9s0.6,1.7,0.6,2.8v0.7c0,1.1-0.2,2-0.6,2.8
		s-1,1.4-1.8,1.9s-1.7,0.7-2.7,0.7H337.2z M338.7,39.4v8.9h1.6c1.2,0,2.1-0.4,2.7-1.1s1-1.7,1-3.1v-0.7c0-1.3-0.3-2.3-0.9-3
		s-1.5-1.1-2.6-1.1H338.7z"/>
	<path class="st4" d="M347.5,38.9c0-0.2,0.1-0.4,0.2-0.6s0.4-0.2,0.6-0.2s0.5,0.1,0.6,0.2s0.2,0.4,0.2,0.6s-0.1,0.4-0.2,0.6
		s-0.4,0.2-0.6,0.2s-0.5-0.1-0.6-0.2S347.5,39.1,347.5,38.9z M349.1,49.6h-1.4v-8.5h1.4V49.6z"/>
	<path class="st4" d="M356.3,47.3c0-0.4-0.1-0.7-0.4-0.9s-0.8-0.4-1.5-0.6s-1.3-0.3-1.7-0.6s-0.7-0.5-1-0.8s-0.3-0.7-0.3-1.1
		c0-0.7,0.3-1.3,0.9-1.8s1.3-0.7,2.2-0.7c1,0,1.7,0.2,2.3,0.7s0.9,1.1,0.9,1.9h-1.5c0-0.4-0.2-0.7-0.5-1s-0.8-0.4-1.3-0.4
		c-0.5,0-0.9,0.1-1.2,0.3s-0.4,0.5-0.4,0.9c0,0.3,0.1,0.6,0.4,0.8s0.8,0.3,1.5,0.5s1.3,0.4,1.8,0.6s0.8,0.5,1,0.8s0.3,0.7,0.3,1.2
		c0,0.8-0.3,1.4-0.9,1.8s-1.4,0.7-2.4,0.7c-0.7,0-1.3-0.1-1.8-0.4s-0.9-0.6-1.2-1S351,47.5,351,47h1.4c0,0.5,0.2,0.9,0.6,1.2
		s0.8,0.4,1.4,0.4c0.5,0,1-0.1,1.3-0.3S356.3,47.7,356.3,47.3z"/>
	<path class="st4" d="M363.1,49.7c-1.1,0-2.1-0.4-2.8-1.1s-1.1-1.8-1.1-3v-0.3c0-0.8,0.2-1.6,0.5-2.2s0.8-1.2,1.3-1.5
		s1.2-0.6,1.9-0.6c1.1,0,2,0.4,2.6,1.1s0.9,1.8,0.9,3.1v0.6h-5.7c0,0.8,0.3,1.5,0.7,2s1.1,0.8,1.8,0.8c0.5,0,0.9-0.1,1.3-0.3
		s0.7-0.5,0.9-0.8l0.9,0.7C365.6,49.2,364.5,49.7,363.1,49.7z M362.9,42.2c-0.6,0-1.1,0.2-1.5,0.6s-0.6,1-0.7,1.8h4.2v-0.1
		c0-0.7-0.2-1.3-0.6-1.7S363.6,42.2,362.9,42.2z"/>
	<path class="st4" d="M369.5,41.1l0,1.1c0.6-0.8,1.5-1.2,2.5-1.2c1.8,0,2.7,1,2.7,3v5.6h-1.4V44c0-0.6-0.1-1.1-0.4-1.4
		s-0.7-0.4-1.3-0.4c-0.5,0-0.9,0.1-1.2,0.4s-0.6,0.6-0.8,1v6h-1.4v-8.5H369.5z M374.2,37.8c0,0.6-0.2,1-0.5,1.4s-0.7,0.5-1.2,0.5
		c-0.2,0-0.4,0-0.6-0.1s-0.4-0.2-0.6-0.3s-0.4-0.3-0.5-0.3s-0.2-0.1-0.4-0.1c-0.2,0-0.4,0.1-0.5,0.2s-0.2,0.4-0.2,0.6l-1-0.1
		c0-0.6,0.2-1,0.5-1.4s0.7-0.5,1.2-0.5c0.2,0,0.3,0,0.5,0.1s0.3,0.2,0.6,0.3s0.4,0.2,0.6,0.3s0.3,0.1,0.4,0.1c0.2,0,0.4-0.1,0.6-0.3
		s0.2-0.4,0.2-0.6L374.2,37.8z"/>
	<path class="st4" d="M376.5,45.3c0-0.8,0.2-1.6,0.5-2.2s0.8-1.2,1.4-1.5s1.2-0.5,2-0.5c1.2,0,2.1,0.4,2.8,1.2s1.1,1.9,1.1,3.2v0.1
		c0,0.8-0.2,1.6-0.5,2.2s-0.8,1.2-1.4,1.5s-1.3,0.5-2,0.5c-1.1,0-2.1-0.4-2.8-1.2s-1.1-1.9-1.1-3.2V45.3z M378,45.4
		c0,0.9,0.2,1.7,0.7,2.3s1,0.9,1.7,0.9c0.7,0,1.3-0.3,1.8-0.9s0.6-1.4,0.6-2.4c0-0.9-0.2-1.7-0.7-2.3s-1-0.9-1.8-0.9
		c-0.7,0-1.3,0.3-1.7,0.9S378,44.4,378,45.4z"/>
	<path class="st4" d="M389.7,45.3c0-1.3,0.3-2.3,0.9-3.1S392,41,393,41c1,0,1.8,0.3,2.4,1v-4.4h1.4v12h-1.3l-0.1-0.9
		c-0.6,0.7-1.4,1.1-2.4,1.1c-1,0-1.8-0.4-2.4-1.2s-0.9-1.8-0.9-3.1V45.3z M391.1,45.4c0,1,0.2,1.7,0.6,2.2s0.9,0.8,1.6,0.8
		c0.9,0,1.6-0.4,2-1.2v-3.9c-0.4-0.8-1.1-1.2-2-1.2c-0.7,0-1.3,0.3-1.7,0.8S391.1,44.4,391.1,45.4z"/>
	<path class="st4" d="M402.5,49.7c-1.1,0-2.1-0.4-2.8-1.1s-1.1-1.8-1.1-3v-0.3c0-0.8,0.2-1.6,0.5-2.2s0.8-1.2,1.3-1.5
		s1.2-0.6,1.9-0.6c1.1,0,2,0.4,2.6,1.1s0.9,1.8,0.9,3.1v0.6h-5.7c0,0.8,0.3,1.5,0.7,2s1.1,0.8,1.8,0.8c0.5,0,0.9-0.1,1.3-0.3
		s0.7-0.5,0.9-0.8l0.9,0.7C405,49.2,404,49.7,402.5,49.7z M402.4,42.2c-0.6,0-1.1,0.2-1.5,0.6s-0.6,1-0.7,1.8h4.2v-0.1
		c0-0.7-0.2-1.3-0.6-1.7S403,42.2,402.4,42.2z"/>
	<path class="st4" d="M416.4,47.3c0-0.4-0.1-0.7-0.4-0.9s-0.8-0.4-1.5-0.6s-1.3-0.3-1.7-0.6s-0.7-0.5-1-0.8s-0.3-0.7-0.3-1.1
		c0-0.7,0.3-1.3,0.9-1.8s1.3-0.7,2.2-0.7c1,0,1.7,0.2,2.3,0.7s0.9,1.1,0.9,1.9h-1.5c0-0.4-0.2-0.7-0.5-1s-0.8-0.4-1.3-0.4
		c-0.5,0-0.9,0.1-1.2,0.3s-0.4,0.5-0.4,0.9c0,0.3,0.1,0.6,0.4,0.8s0.8,0.3,1.5,0.5s1.3,0.4,1.8,0.6s0.8,0.5,1,0.8s0.3,0.7,0.3,1.2
		c0,0.8-0.3,1.4-0.9,1.8s-1.4,0.7-2.4,0.7c-0.7,0-1.3-0.1-1.8-0.4s-0.9-0.6-1.2-1s-0.4-0.9-0.4-1.4h1.4c0,0.5,0.2,0.9,0.6,1.2
		s0.8,0.4,1.4,0.4c0.5,0,1-0.1,1.3-0.3S416.4,47.7,416.4,47.3z"/>
	<path class="st4" d="M423.2,49.7c-1.1,0-2.1-0.4-2.8-1.1s-1.1-1.8-1.1-3v-0.3c0-0.8,0.2-1.6,0.5-2.2s0.8-1.2,1.3-1.5
		s1.2-0.6,1.9-0.6c1.1,0,2,0.4,2.6,1.1s0.9,1.8,0.9,3.1v0.6h-5.7c0,0.8,0.3,1.5,0.7,2s1.1,0.8,1.8,0.8c0.5,0,0.9-0.1,1.3-0.3
		s0.7-0.5,0.9-0.8l0.9,0.7C425.7,49.2,424.6,49.7,423.2,49.7z M423,42.2c-0.6,0-1.1,0.2-1.5,0.6s-0.6,1-0.7,1.8h4.2v-0.1
		c0-0.7-0.2-1.3-0.6-1.7S423.7,42.2,423,42.2z"/>
	<path class="st4" d="M431.6,48.6c0.5,0,1-0.2,1.4-0.5s0.6-0.7,0.6-1.2h1.4c0,0.5-0.2,0.9-0.5,1.4s-0.7,0.8-1.2,1s-1.1,0.4-1.6,0.4
		c-1.2,0-2.1-0.4-2.7-1.2s-1-1.8-1-3.2v-0.2c0-0.8,0.2-1.6,0.5-2.2s0.7-1.1,1.3-1.5s1.2-0.5,2-0.5c0.9,0,1.7,0.3,2.4,0.9
		s1,1.3,1,2.2h-1.4c0-0.5-0.2-1-0.6-1.3s-0.8-0.5-1.4-0.5c-0.7,0-1.3,0.3-1.7,0.8s-0.6,1.3-0.6,2.3v0.3c0,1,0.2,1.7,0.6,2.2
		S430.8,48.6,431.6,48.6z"/>
	<path class="st4" d="M440,48.6c0.5,0,1-0.2,1.4-0.5s0.6-0.7,0.6-1.2h1.4c0,0.5-0.2,0.9-0.5,1.4s-0.7,0.8-1.2,1s-1.1,0.4-1.6,0.4
		c-1.2,0-2.1-0.4-2.7-1.2s-1-1.8-1-3.2v-0.2c0-0.8,0.2-1.6,0.5-2.2s0.7-1.1,1.3-1.5s1.2-0.5,2-0.5c0.9,0,1.7,0.3,2.4,0.9
		s1,1.3,1,2.2H442c0-0.5-0.2-1-0.6-1.3s-0.8-0.5-1.4-0.5c-0.7,0-1.3,0.3-1.7,0.8s-0.6,1.3-0.6,2.3v0.3c0,1,0.2,1.7,0.6,2.2
		S439.2,48.6,440,48.6z"/>
	<path class="st4" d="M445,38.9c0-0.2,0.1-0.4,0.2-0.6s0.4-0.2,0.6-0.2s0.5,0.1,0.6,0.2s0.2,0.4,0.2,0.6s-0.1,0.4-0.2,0.6
		s-0.4,0.2-0.6,0.2s-0.5-0.1-0.6-0.2S445,39.1,445,38.9z M446.5,49.6h-1.4v-8.5h1.4V49.6z"/>
	<path class="st4" d="M448.4,45.3c0-0.8,0.2-1.6,0.5-2.2s0.8-1.2,1.4-1.5s1.2-0.5,2-0.5c1.2,0,2.1,0.4,2.8,1.2s1.1,1.9,1.1,3.2v0.1
		c0,0.8-0.2,1.6-0.5,2.2s-0.8,1.2-1.4,1.5s-1.3,0.5-2,0.5c-1.1,0-2.1-0.4-2.8-1.2s-1.1-1.9-1.1-3.2V45.3z M449.9,45.4
		c0,0.9,0.2,1.7,0.7,2.3s1,0.9,1.7,0.9c0.7,0,1.3-0.3,1.8-0.9s0.6-1.4,0.6-2.4c0-0.9-0.2-1.7-0.7-2.3s-1-0.9-1.8-0.9
		c-0.7,0-1.3,0.3-1.7,0.9S449.9,44.4,449.9,45.4z M452.9,37.6h1.8l-2.1,2.3l-1.2,0L452.9,37.6z"/>
	<path class="st4" d="M459.3,41.1l0,1.1c0.6-0.8,1.5-1.2,2.5-1.2c1.8,0,2.7,1,2.7,3v5.6h-1.4V44c0-0.6-0.1-1.1-0.4-1.4
		s-0.7-0.4-1.3-0.4c-0.5,0-0.9,0.1-1.2,0.4s-0.6,0.6-0.8,1v6H458v-8.5H459.3z"/>
	<path class="st4" d="M472.7,39.1v2h1.6v1.1h-1.6v5.2c0,0.3,0.1,0.6,0.2,0.8c0.1,0.2,0.4,0.3,0.7,0.3c0.2,0,0.4,0,0.7-0.1v1.2
		c-0.4,0.1-0.8,0.2-1.1,0.2c-0.6,0-1.1-0.2-1.5-0.6s-0.5-0.9-0.5-1.7v-5.2h-1.5v-1.1h1.5v-2H472.7z"/>
	<path class="st4" d="M480.1,42.4c-0.2,0-0.5-0.1-0.7-0.1c-0.9,0-1.6,0.4-1.9,1.2v6H476v-8.5h1.4l0,1c0.5-0.8,1.1-1.1,2-1.1
		c0.3,0,0.5,0,0.6,0.1V42.4z"/>
	<path class="st4" d="M486.3,49.6c-0.1-0.2-0.2-0.5-0.2-0.9c-0.7,0.7-1.5,1-2.4,1c-0.8,0-1.5-0.2-2.1-0.7s-0.8-1.1-0.8-1.8
		c0-0.9,0.3-1.6,1-2.1s1.6-0.7,2.8-0.7h1.4v-0.7c0-0.5-0.2-0.9-0.5-1.2s-0.7-0.4-1.3-0.4c-0.5,0-0.9,0.1-1.3,0.4s-0.5,0.6-0.5,0.9
		H481c0-0.4,0.1-0.8,0.4-1.2s0.7-0.7,1.2-0.9s1.1-0.3,1.7-0.3c1,0,1.7,0.2,2.3,0.7s0.8,1.2,0.9,2v3.9c0,0.8,0.1,1.4,0.3,1.9v0.1
		H486.3z M483.9,48.5c0.5,0,0.9-0.1,1.3-0.4s0.7-0.5,0.9-0.9v-1.7h-1.1c-1.8,0-2.7,0.5-2.7,1.6c0,0.5,0.2,0.8,0.5,1.1
		S483.4,48.5,483.9,48.5z"/>
	<path class="st4" d="M491.1,41.1l0,1.1c0.6-0.8,1.5-1.2,2.5-1.2c1.8,0,2.7,1,2.7,3v5.6H495V44c0-0.6-0.1-1.1-0.4-1.4
		s-0.7-0.4-1.3-0.4c-0.5,0-0.9,0.1-1.2,0.4s-0.6,0.6-0.8,1v6h-1.4v-8.5H491.1z"/>
	<path class="st4" d="M503.5,47.3c0-0.4-0.1-0.7-0.4-0.9s-0.8-0.4-1.5-0.6s-1.3-0.3-1.7-0.6s-0.7-0.5-1-0.8s-0.3-0.7-0.3-1.1
		c0-0.7,0.3-1.3,0.9-1.8s1.3-0.7,2.2-0.7c1,0,1.7,0.2,2.3,0.7s0.9,1.1,0.9,1.9h-1.5c0-0.4-0.2-0.7-0.5-1s-0.8-0.4-1.3-0.4
		c-0.5,0-0.9,0.1-1.2,0.3S500,43,500,43.4c0,0.3,0.1,0.6,0.4,0.8s0.8,0.3,1.5,0.5s1.3,0.4,1.8,0.6s0.8,0.5,1,0.8s0.3,0.7,0.3,1.2
		c0,0.8-0.3,1.4-0.9,1.8s-1.4,0.7-2.4,0.7c-0.7,0-1.3-0.1-1.8-0.4s-0.9-0.6-1.2-1s-0.4-0.9-0.4-1.4h1.4c0,0.5,0.2,0.9,0.6,1.2
		s0.8,0.4,1.4,0.4c0.5,0,1-0.1,1.3-0.3S503.5,47.7,503.5,47.3z"/>
	<path class="st4" d="M509.6,47.6l2.1-6.5h1.5l-3,8.5h-1.1l-3.1-8.5h1.5L509.6,47.6z"/>
	<path class="st4" d="M518.1,49.7c-1.1,0-2.1-0.4-2.8-1.1s-1.1-1.8-1.1-3v-0.3c0-0.8,0.2-1.6,0.5-2.2s0.8-1.2,1.3-1.5
		s1.2-0.6,1.9-0.6c1.1,0,2,0.4,2.6,1.1s0.9,1.8,0.9,3.1v0.6h-5.7c0,0.8,0.3,1.5,0.7,2s1.1,0.8,1.8,0.8c0.5,0,0.9-0.1,1.3-0.3
		s0.7-0.5,0.9-0.8l0.9,0.7C520.6,49.2,519.5,49.7,518.1,49.7z M517.9,42.2c-0.6,0-1.1,0.2-1.5,0.6s-0.6,1-0.7,1.8h4.2v-0.1
		c0-0.7-0.2-1.3-0.6-1.7S518.5,42.2,517.9,42.2z"/>
	<path class="st4" d="M527.2,42.4c-0.2,0-0.5-0.1-0.7-0.1c-0.9,0-1.6,0.4-1.9,1.2v6h-1.4v-8.5h1.4l0,1c0.5-0.8,1.1-1.1,2-1.1
		c0.3,0,0.5,0,0.6,0.1V42.4z"/>
	<path class="st4" d="M533.4,47.3c0-0.4-0.1-0.7-0.4-0.9s-0.8-0.4-1.5-0.6s-1.3-0.3-1.7-0.6s-0.7-0.5-1-0.8s-0.3-0.7-0.3-1.1
		c0-0.7,0.3-1.3,0.9-1.8s1.3-0.7,2.2-0.7c1,0,1.7,0.2,2.3,0.7s0.9,1.1,0.9,1.9h-1.5c0-0.4-0.2-0.7-0.5-1s-0.8-0.4-1.3-0.4
		c-0.5,0-0.9,0.1-1.2,0.3s-0.4,0.5-0.4,0.9c0,0.3,0.1,0.6,0.4,0.8s0.8,0.3,1.5,0.5s1.3,0.4,1.8,0.6s0.8,0.5,1,0.8s0.3,0.7,0.3,1.2
		c0,0.8-0.3,1.4-0.9,1.8s-1.4,0.7-2.4,0.7c-0.7,0-1.3-0.1-1.8-0.4s-0.9-0.6-1.2-1s-0.4-0.9-0.4-1.4h1.4c0,0.5,0.2,0.9,0.6,1.2
		s0.8,0.4,1.4,0.4c0.5,0,1-0.1,1.3-0.3S533.4,47.7,533.4,47.3z"/>
	<path class="st4" d="M542,49.6c-0.1-0.2-0.2-0.5-0.2-0.9c-0.7,0.7-1.5,1-2.4,1c-0.8,0-1.5-0.2-2.1-0.7s-0.8-1.1-0.8-1.8
		c0-0.9,0.3-1.6,1-2.1s1.6-0.7,2.8-0.7h1.4v-0.7c0-0.5-0.2-0.9-0.5-1.2s-0.7-0.4-1.3-0.4c-0.5,0-0.9,0.1-1.3,0.4s-0.5,0.6-0.5,0.9
		h-1.5c0-0.4,0.1-0.8,0.4-1.2s0.7-0.7,1.2-0.9s1.1-0.3,1.7-0.3c1,0,1.7,0.2,2.3,0.7s0.8,1.2,0.9,2v3.9c0,0.8,0.1,1.4,0.3,1.9v0.1
		H542z M539.6,48.5c0.5,0,0.9-0.1,1.3-0.4s0.7-0.5,0.9-0.9v-1.7h-1.1c-1.8,0-2.7,0.5-2.7,1.6c0,0.5,0.2,0.8,0.5,1.1
		S539.1,48.5,539.6,48.5z"/>
	<path class="st4" d="M547,49.6h-1.4v-12h1.4V49.6z"/>
</g>
<g class="st2">
	<path class="st4" d="M375.3,73.6V62.2h3.2c1,0,1.9,0.2,2.6,0.7s1.3,1.1,1.8,1.9s0.6,1.7,0.6,2.8v0.7c0,1.1-0.2,2-0.6,2.8
		s-1,1.4-1.8,1.9s-1.7,0.7-2.7,0.7H375.3z M376.8,63.4v8.9h1.6c1.2,0,2.1-0.4,2.7-1.1s1-1.7,1-3.1v-0.7c0-1.3-0.3-2.3-0.9-3
		s-1.5-1.1-2.6-1.1H376.8z"/>
	<path class="st4" d="M385.6,62.9c0-0.2,0.1-0.4,0.2-0.6s0.4-0.2,0.6-0.2s0.5,0.1,0.6,0.2s0.2,0.4,0.2,0.6s-0.1,0.4-0.2,0.6
		s-0.4,0.2-0.6,0.2s-0.5-0.1-0.6-0.2S385.6,63.1,385.6,62.9z M387.2,73.6h-1.4v-8.5h1.4V73.6z"/>
	<path class="st4" d="M394.4,71.3c0-0.4-0.1-0.7-0.4-0.9s-0.8-0.4-1.5-0.6s-1.3-0.3-1.7-0.6s-0.7-0.5-1-0.8s-0.3-0.7-0.3-1.1
		c0-0.7,0.3-1.3,0.9-1.8s1.3-0.7,2.2-0.7c1,0,1.7,0.2,2.3,0.7s0.9,1.1,0.9,1.9h-1.5c0-0.4-0.2-0.7-0.5-1s-0.8-0.4-1.3-0.4
		c-0.5,0-0.9,0.1-1.2,0.3s-0.4,0.5-0.4,0.9c0,0.3,0.1,0.6,0.4,0.8s0.8,0.3,1.5,0.5s1.3,0.4,1.8,0.6s0.8,0.5,1,0.8s0.3,0.7,0.3,1.2
		c0,0.8-0.3,1.4-0.9,1.8s-1.4,0.7-2.4,0.7c-0.7,0-1.3-0.1-1.8-0.4s-0.9-0.6-1.2-1s-0.4-0.9-0.4-1.4h1.4c0,0.5,0.2,0.9,0.6,1.2
		s0.8,0.4,1.4,0.4c0.5,0,1-0.1,1.3-0.3S394.4,71.7,394.4,71.3z"/>
	<path class="st4" d="M401.3,73.7c-1.1,0-2.1-0.4-2.8-1.1s-1.1-1.8-1.1-3v-0.3c0-0.8,0.2-1.6,0.5-2.2s0.8-1.2,1.3-1.5
		s1.2-0.6,1.9-0.6c1.1,0,2,0.4,2.6,1.1s0.9,1.8,0.9,3.1v0.6h-5.7c0,0.8,0.3,1.5,0.7,2s1.1,0.8,1.8,0.8c0.5,0,0.9-0.1,1.3-0.3
		s0.7-0.5,0.9-0.8l0.9,0.7C403.7,73.2,402.7,73.7,401.3,73.7z M401.1,66.2c-0.6,0-1.1,0.2-1.5,0.6s-0.6,1-0.7,1.8h4.2v-0.1
		c0-0.7-0.2-1.3-0.6-1.7S401.7,66.2,401.1,66.2z"/>
	<path class="st4" d="M407.6,65.1l0,1.1c0.6-0.8,1.5-1.2,2.5-1.2c1.8,0,2.7,1,2.7,3v5.6h-1.4V68c0-0.6-0.1-1.1-0.4-1.4
		s-0.7-0.4-1.3-0.4c-0.5,0-0.9,0.1-1.2,0.4s-0.6,0.6-0.8,1v6h-1.4v-8.5H407.6z M412.4,61.8c0,0.6-0.2,1-0.5,1.4s-0.7,0.5-1.2,0.5
		c-0.2,0-0.4,0-0.6-0.1s-0.4-0.2-0.6-0.3s-0.4-0.3-0.5-0.3s-0.2-0.1-0.4-0.1c-0.2,0-0.4,0.1-0.5,0.2s-0.2,0.4-0.2,0.6l-1-0.1
		c0-0.6,0.2-1,0.5-1.4s0.7-0.5,1.2-0.5c0.2,0,0.3,0,0.5,0.1s0.3,0.2,0.6,0.3s0.4,0.2,0.6,0.3s0.3,0.1,0.4,0.1c0.2,0,0.4-0.1,0.6-0.3
		s0.2-0.4,0.2-0.6L412.4,61.8z"/>
	<path class="st4" d="M414.7,69.3c0-0.8,0.2-1.6,0.5-2.2s0.8-1.2,1.4-1.5s1.2-0.5,2-0.5c1.2,0,2.1,0.4,2.8,1.2s1.1,1.9,1.1,3.2v0.1
		c0,0.8-0.2,1.6-0.5,2.2s-0.8,1.2-1.4,1.5s-1.3,0.5-2,0.5c-1.1,0-2.1-0.4-2.8-1.2s-1.1-1.9-1.1-3.2V69.3z M416.1,69.4
		c0,0.9,0.2,1.7,0.7,2.3s1,0.9,1.7,0.9c0.7,0,1.3-0.3,1.8-0.9s0.6-1.4,0.6-2.4c0-0.9-0.2-1.7-0.7-2.3s-1-0.9-1.8-0.9
		c-0.7,0-1.3,0.3-1.7,0.9S416.1,68.4,416.1,69.4z"/>
	<path class="st4" d="M429.7,73.6h-1.4v-12h1.4V73.6z"/>
	<path class="st4" d="M431.6,69.3c0-0.8,0.2-1.6,0.5-2.2s0.8-1.2,1.4-1.5s1.2-0.5,2-0.5c1.2,0,2.1,0.4,2.8,1.2s1.1,1.9,1.1,3.2v0.1
		c0,0.8-0.2,1.6-0.5,2.2s-0.8,1.2-1.4,1.5s-1.3,0.5-2,0.5c-1.1,0-2.1-0.4-2.8-1.2s-1.1-1.9-1.1-3.2V69.3z M433.1,69.4
		c0,0.9,0.2,1.7,0.7,2.3s1,0.9,1.7,0.9c0.7,0,1.3-0.3,1.8-0.9s0.6-1.4,0.6-2.4c0-0.9-0.2-1.7-0.7-2.3s-1-0.9-1.8-0.9
		c-0.7,0-1.3,0.3-1.7,0.9S433.1,68.4,433.1,69.4z"/>
	<path class="st4" d="M442.5,65.1l0,1.1c0.6-0.8,1.5-1.2,2.5-1.2c1.8,0,2.7,1,2.7,3v5.6h-1.4V68c0-0.6-0.1-1.1-0.4-1.4
		s-0.7-0.4-1.3-0.4c-0.5,0-0.9,0.1-1.2,0.4s-0.6,0.6-0.8,1v6h-1.4v-8.5H442.5z"/>
	<path class="st4" d="M449.6,69.3c0-1.3,0.3-2.4,0.9-3.1S452,65,453,65c1,0,1.8,0.4,2.4,1.1l0.1-0.9h1.3v8.2c0,1.1-0.3,2-1,2.6
		s-1.5,0.9-2.6,0.9c-0.6,0-1.2-0.1-1.8-0.4s-1-0.6-1.3-1.1l0.8-0.9c0.6,0.8,1.4,1.1,2.3,1.1c0.7,0,1.3-0.2,1.6-0.6s0.6-1,0.6-1.7
		v-0.7c-0.6,0.7-1.4,1-2.4,1c-1,0-1.8-0.4-2.4-1.2S449.6,70.7,449.6,69.3z M451.1,69.4c0,1,0.2,1.7,0.6,2.2s0.9,0.8,1.6,0.8
		c0.9,0,1.6-0.4,2-1.2v-3.9c-0.4-0.8-1.1-1.2-2-1.2c-0.7,0-1.3,0.3-1.6,0.8S451.1,68.4,451.1,69.4z"/>
	<path class="st4" d="M459,62.9c0-0.2,0.1-0.4,0.2-0.6s0.4-0.2,0.6-0.2s0.5,0.1,0.6,0.2s0.2,0.4,0.2,0.6s-0.1,0.4-0.2,0.6
		s-0.4,0.2-0.6,0.2s-0.5-0.1-0.6-0.2S459,63.1,459,62.9z M460.5,73.6h-1.4v-8.5h1.4V73.6z"/>
	<path class="st4" d="M464.8,63.1v2h1.6v1.1h-1.6v5.2c0,0.3,0.1,0.6,0.2,0.8c0.1,0.2,0.4,0.3,0.7,0.3c0.2,0,0.4,0,0.7-0.1v1.2
		c-0.4,0.1-0.8,0.2-1.1,0.2c-0.6,0-1.1-0.2-1.5-0.6s-0.5-0.9-0.5-1.7v-5.2h-1.5v-1.1h1.5v-2H464.8z"/>
	<path class="st4" d="M473.3,72.7c-0.6,0.7-1.4,1-2.5,1c-0.9,0-1.6-0.3-2.1-0.8s-0.7-1.3-0.7-2.3v-5.5h1.4v5.5
		c0,1.3,0.5,1.9,1.6,1.9c1.1,0,1.8-0.4,2.2-1.2v-6.1h1.4v8.5h-1.4L473.3,72.7z"/>
	<path class="st4" d="M476.5,69.3c0-1.3,0.3-2.3,0.9-3.1s1.4-1.2,2.4-1.2c1,0,1.8,0.3,2.4,1v-4.4h1.4v12h-1.3l-0.1-0.9
		c-0.6,0.7-1.4,1.1-2.4,1.1c-1,0-1.8-0.4-2.4-1.2s-0.9-1.8-0.9-3.1V69.3z M478,69.4c0,1,0.2,1.7,0.6,2.2s0.9,0.8,1.6,0.8
		c0.9,0,1.6-0.4,2-1.2v-3.9c-0.4-0.8-1.1-1.2-2-1.2c-0.7,0-1.3,0.3-1.7,0.8S478,68.4,478,69.4z"/>
	<path class="st4" d="M485.9,62.9c0-0.2,0.1-0.4,0.2-0.6s0.4-0.2,0.6-0.2s0.5,0.1,0.6,0.2s0.2,0.4,0.2,0.6s-0.1,0.4-0.2,0.6
		s-0.4,0.2-0.6,0.2s-0.5-0.1-0.6-0.2S485.9,63.1,485.9,62.9z M487.5,73.6H486v-8.5h1.4V73.6z"/>
	<path class="st4" d="M491.2,65.1l0,1.1c0.6-0.8,1.5-1.2,2.5-1.2c1.8,0,2.7,1,2.7,3v5.6H495V68c0-0.6-0.1-1.1-0.4-1.4
		s-0.7-0.4-1.3-0.4c-0.5,0-0.9,0.1-1.2,0.4s-0.6,0.6-0.8,1v6h-1.4v-8.5H491.2z"/>
	<path class="st4" d="M503.8,73.6c-0.1-0.2-0.2-0.5-0.2-0.9c-0.7,0.7-1.5,1-2.4,1c-0.8,0-1.5-0.2-2.1-0.7s-0.8-1.1-0.8-1.8
		c0-0.9,0.3-1.6,1-2.1s1.6-0.7,2.8-0.7h1.4v-0.7c0-0.5-0.2-0.9-0.5-1.2s-0.7-0.4-1.3-0.4c-0.5,0-0.9,0.1-1.3,0.4s-0.5,0.6-0.5,0.9
		h-1.5c0-0.4,0.1-0.8,0.4-1.2s0.7-0.7,1.2-0.9s1.1-0.3,1.7-0.3c1,0,1.7,0.2,2.3,0.7s0.8,1.2,0.9,2v3.9c0,0.8,0.1,1.4,0.3,1.9v0.1
		H503.8z M501.4,72.5c0.5,0,0.9-0.1,1.3-0.4s0.7-0.5,0.9-0.9v-1.7h-1.1c-1.8,0-2.7,0.5-2.7,1.6c0,0.5,0.2,0.8,0.5,1.1
		S501,72.5,501.4,72.5z"/>
	<path class="st4" d="M508.9,73.6h-1.4v-12h1.4V73.6z"/>
</g>
<g class="st2">
	<path class="st4" d="M287,93c0-1.2,0.2-2.3,0.5-3.4c0.3-1.1,0.8-2.1,1.4-3s1.3-1.5,1.9-1.9l0.3,1c-0.8,0.6-1.4,1.5-1.9,2.7
		c-0.5,1.2-0.8,2.5-0.8,4l0,0.7c0,2,0.4,3.8,1.1,5.2c0.4,0.9,1,1.6,1.6,2.1l-0.3,0.9c-0.7-0.4-1.4-1-2-1.9
		C287.7,97.5,287,95.4,287,93z"/>
	<path class="st4" d="M294.4,97.6h-1.5V86.2h1.5V97.6z"/>
	<path class="st4" d="M298.3,89.1l0,1.1c0.6-0.8,1.5-1.2,2.5-1.2c1.8,0,2.7,1,2.7,3v5.6h-1.4V92c0-0.6-0.1-1.1-0.4-1.4
		s-0.7-0.4-1.3-0.4c-0.5,0-0.9,0.1-1.2,0.4c-0.4,0.2-0.6,0.6-0.8,1v6h-1.4v-8.5H298.3z"/>
	<path class="st4" d="M308.5,95.6l2.1-6.5h1.5l-3,8.5H308l-3.1-8.5h1.5L308.5,95.6z"/>
	<path class="st4" d="M317,97.7c-1.1,0-2.1-0.4-2.8-1.1s-1.1-1.8-1.1-3v-0.3c0-0.8,0.2-1.6,0.5-2.2s0.8-1.2,1.3-1.5
		c0.6-0.4,1.2-0.6,1.9-0.6c1.1,0,2,0.4,2.6,1.1s0.9,1.8,0.9,3.1v0.6h-5.7c0,0.8,0.3,1.5,0.7,2c0.5,0.5,1.1,0.8,1.8,0.8
		c0.5,0,0.9-0.1,1.3-0.3c0.4-0.2,0.7-0.5,0.9-0.8l0.9,0.7C319.5,97.2,318.4,97.7,317,97.7z M316.8,90.2c-0.6,0-1.1,0.2-1.5,0.6
		c-0.4,0.4-0.6,1-0.7,1.8h4.2v-0.1c0-0.7-0.2-1.3-0.6-1.7C317.9,90.4,317.4,90.2,316.8,90.2z"/>
	<path class="st4" d="M326.9,95.3c0-0.4-0.1-0.7-0.4-0.9c-0.3-0.2-0.8-0.4-1.5-0.6c-0.7-0.2-1.3-0.3-1.7-0.6s-0.7-0.5-1-0.8
		c-0.2-0.3-0.3-0.7-0.3-1.1c0-0.7,0.3-1.3,0.9-1.8s1.3-0.7,2.2-0.7c1,0,1.7,0.2,2.3,0.7c0.6,0.5,0.9,1.1,0.9,1.9h-1.5
		c0-0.4-0.2-0.7-0.5-1s-0.8-0.4-1.3-0.4c-0.5,0-0.9,0.1-1.2,0.3s-0.4,0.5-0.4,0.9c0,0.3,0.1,0.6,0.4,0.8c0.3,0.2,0.8,0.3,1.5,0.5
		c0.7,0.2,1.3,0.4,1.8,0.6c0.4,0.2,0.8,0.5,1,0.8c0.2,0.3,0.3,0.7,0.3,1.2c0,0.8-0.3,1.4-0.9,1.8c-0.6,0.5-1.4,0.7-2.4,0.7
		c-0.7,0-1.3-0.1-1.8-0.4c-0.5-0.2-0.9-0.6-1.2-1c-0.3-0.4-0.4-0.9-0.4-1.4h1.4c0,0.5,0.2,0.9,0.6,1.2c0.4,0.3,0.8,0.4,1.4,0.4
		c0.5,0,1-0.1,1.3-0.3C326.7,96,326.9,95.7,326.9,95.3z"/>
	<path class="st4" d="M332.2,87.1v2h1.6v1.1h-1.6v5.2c0,0.3,0.1,0.6,0.2,0.8c0.1,0.2,0.4,0.3,0.7,0.3c0.2,0,0.4,0,0.7-0.1v1.2
		c-0.4,0.1-0.8,0.2-1.1,0.2c-0.6,0-1.1-0.2-1.5-0.6s-0.5-0.9-0.5-1.7v-5.2h-1.5v-1.1h1.5v-2H332.2z"/>
	<path class="st4" d="M335.5,86.9c0-0.2,0.1-0.4,0.2-0.6c0.1-0.2,0.4-0.2,0.6-0.2s0.5,0.1,0.6,0.2c0.1,0.2,0.2,0.4,0.2,0.6
		s-0.1,0.4-0.2,0.6c-0.1,0.2-0.4,0.2-0.6,0.2s-0.5-0.1-0.6-0.2C335.5,87.3,335.5,87.1,335.5,86.9z M337,97.6h-1.4v-8.5h1.4V97.6z"/>
	<path class="st4" d="M339,93.3c0-1.3,0.3-2.4,0.9-3.1s1.4-1.2,2.4-1.2c1,0,1.8,0.4,2.4,1.1l0.1-0.9h1.3v8.2c0,1.1-0.3,2-1,2.6
		s-1.5,0.9-2.6,0.9c-0.6,0-1.2-0.1-1.8-0.4c-0.6-0.3-1-0.6-1.3-1.1l0.8-0.9c0.6,0.8,1.4,1.1,2.3,1.1c0.7,0,1.3-0.2,1.6-0.6
		c0.4-0.4,0.6-1,0.6-1.7v-0.7c-0.6,0.7-1.4,1-2.4,1c-1,0-1.8-0.4-2.4-1.2C339.3,95.7,339,94.7,339,93.3z M340.4,93.4
		c0,1,0.2,1.7,0.6,2.2s0.9,0.8,1.6,0.8c0.9,0,1.6-0.4,2-1.2v-3.9c-0.4-0.8-1.1-1.2-2-1.2c-0.7,0-1.3,0.3-1.6,0.8
		C340.6,91.6,340.4,92.4,340.4,93.4z"/>
	<path class="st4" d="M353.5,97.6c-0.1-0.2-0.2-0.5-0.2-0.9c-0.7,0.7-1.5,1-2.4,1c-0.8,0-1.5-0.2-2.1-0.7c-0.5-0.5-0.8-1.1-0.8-1.8
		c0-0.9,0.3-1.6,1-2.1c0.7-0.5,1.6-0.7,2.8-0.7h1.4v-0.7c0-0.5-0.2-0.9-0.5-1.2c-0.3-0.3-0.7-0.4-1.3-0.4c-0.5,0-0.9,0.1-1.3,0.4
		c-0.3,0.3-0.5,0.6-0.5,0.9h-1.5c0-0.4,0.2-0.8,0.4-1.2c0.3-0.4,0.7-0.7,1.2-0.9c0.5-0.2,1.1-0.3,1.7-0.3c1,0,1.7,0.2,2.3,0.7
		c0.6,0.5,0.8,1.2,0.9,2v3.9c0,0.8,0.1,1.4,0.3,1.9v0.1H353.5z M351.1,96.5c0.5,0,0.9-0.1,1.3-0.4s0.7-0.5,0.9-0.9v-1.7h-1.1
		c-1.8,0-2.7,0.5-2.7,1.6c0,0.5,0.2,0.8,0.5,1.1C350.3,96.4,350.7,96.5,351.1,96.5z"/>
	<path class="st4" d="M360.4,96.6c0.5,0,1-0.2,1.4-0.5c0.4-0.3,0.6-0.7,0.6-1.2h1.4c0,0.5-0.2,0.9-0.5,1.4c-0.3,0.4-0.7,0.8-1.2,1
		c-0.5,0.3-1.1,0.4-1.6,0.4c-1.2,0-2.1-0.4-2.7-1.2s-1-1.8-1-3.2v-0.2c0-0.8,0.2-1.6,0.5-2.2c0.3-0.6,0.7-1.1,1.3-1.5
		c0.6-0.4,1.2-0.5,2-0.5c0.9,0,1.7,0.3,2.4,0.9c0.6,0.6,1,1.3,1,2.2h-1.4c0-0.5-0.2-1-0.6-1.3c-0.4-0.4-0.8-0.5-1.4-0.5
		c-0.7,0-1.3,0.3-1.7,0.8c-0.4,0.5-0.6,1.3-0.6,2.3v0.3c0,1,0.2,1.7,0.6,2.2C359.1,96.3,359.7,96.6,360.4,96.6z"/>
	<path class="st4" d="M365.4,86.9c0-0.2,0.1-0.4,0.2-0.6c0.1-0.2,0.4-0.2,0.6-0.2s0.5,0.1,0.6,0.2c0.1,0.2,0.2,0.4,0.2,0.6
		s-0.1,0.4-0.2,0.6c-0.1,0.2-0.4,0.2-0.6,0.2s-0.5-0.1-0.6-0.2C365.5,87.3,365.4,87.1,365.4,86.9z M367,97.6h-1.4v-8.5h1.4V97.6z"/>
	<path class="st4" d="M368.9,93.3c0-0.8,0.2-1.6,0.5-2.2c0.3-0.7,0.8-1.2,1.4-1.5c0.6-0.4,1.2-0.5,2-0.5c1.2,0,2.1,0.4,2.8,1.2
		s1.1,1.9,1.1,3.2v0.1c0,0.8-0.2,1.6-0.5,2.2c-0.3,0.7-0.8,1.2-1.4,1.5s-1.3,0.5-2,0.5c-1.1,0-2.1-0.4-2.8-1.2s-1.1-1.9-1.1-3.2
		V93.3z M370.3,93.4c0,0.9,0.2,1.7,0.7,2.3c0.4,0.6,1,0.9,1.7,0.9c0.7,0,1.3-0.3,1.8-0.9c0.4-0.6,0.6-1.4,0.6-2.4
		c0-0.9-0.2-1.7-0.7-2.3c-0.4-0.6-1-0.9-1.8-0.9c-0.7,0-1.3,0.3-1.7,0.9S370.3,92.4,370.3,93.4z M373.4,85.6h1.8l-2.1,2.3l-1.2,0
		L373.4,85.6z"/>
	<path class="st4" d="M379.8,89.1l0,1.1c0.6-0.8,1.5-1.2,2.5-1.2c1.8,0,2.7,1,2.7,3v5.6h-1.4V92c0-0.6-0.1-1.1-0.4-1.4
		s-0.7-0.4-1.3-0.4c-0.5,0-0.9,0.1-1.2,0.4c-0.4,0.2-0.6,0.6-0.8,1v6h-1.4v-8.5H379.8z"/>
	<path class="st4" d="M390.8,93.3c0-1.3,0.3-2.3,0.9-3.1c0.6-0.8,1.4-1.2,2.4-1.2c1,0,1.8,0.3,2.4,1v-4.4h1.4v12h-1.3l-0.1-0.9
		c-0.6,0.7-1.4,1.1-2.4,1.1c-1,0-1.8-0.4-2.4-1.2s-0.9-1.8-0.9-3.1V93.3z M392.3,93.4c0,1,0.2,1.7,0.6,2.2c0.4,0.5,0.9,0.8,1.6,0.8
		c0.9,0,1.6-0.4,2-1.2v-3.9c-0.4-0.8-1.1-1.2-2-1.2c-0.7,0-1.3,0.3-1.7,0.8C392.5,91.6,392.3,92.4,392.3,93.4z"/>
	<path class="st4" d="M403.7,97.7c-1.1,0-2.1-0.4-2.8-1.1s-1.1-1.8-1.1-3v-0.3c0-0.8,0.2-1.6,0.5-2.2s0.8-1.2,1.3-1.5
		c0.6-0.4,1.2-0.6,1.9-0.6c1.1,0,2,0.4,2.6,1.1s0.9,1.8,0.9,3.1v0.6h-5.7c0,0.8,0.3,1.5,0.7,2c0.5,0.5,1.1,0.8,1.8,0.8
		c0.5,0,0.9-0.1,1.3-0.3c0.4-0.2,0.7-0.5,0.9-0.8l0.9,0.7C406.2,97.2,405.1,97.7,403.7,97.7z M403.5,90.2c-0.6,0-1.1,0.2-1.5,0.6
		c-0.4,0.4-0.6,1-0.7,1.8h4.2v-0.1c0-0.7-0.2-1.3-0.6-1.7C404.6,90.4,404.1,90.2,403.5,90.2z"/>
	<path class="st4" d="M414,89.1l0,0.9c0.6-0.7,1.5-1.1,2.5-1.1c1.2,0,2,0.5,2.4,1.4c0.3-0.4,0.6-0.7,1.1-1c0.5-0.2,1-0.4,1.6-0.4
		c1.9,0,2.8,1,2.8,2.9v5.7H423V92c0-0.6-0.1-1.1-0.4-1.4c-0.3-0.3-0.7-0.4-1.4-0.4c-0.5,0-1,0.2-1.3,0.5c-0.4,0.3-0.6,0.8-0.6,1.3
		v5.6h-1.5V92c0-1.2-0.6-1.8-1.8-1.8c-0.9,0-1.6,0.4-1.9,1.2v6.2h-1.4v-8.5H414z"/>
	<path class="st4" d="M426.3,93.3c0-0.8,0.2-1.6,0.5-2.2c0.3-0.7,0.8-1.2,1.4-1.5c0.6-0.4,1.2-0.5,2-0.5c1.2,0,2.1,0.4,2.8,1.2
		s1.1,1.9,1.1,3.2v0.1c0,0.8-0.2,1.6-0.5,2.2c-0.3,0.7-0.8,1.2-1.4,1.5s-1.3,0.5-2,0.5c-1.1,0-2.1-0.4-2.8-1.2s-1.1-1.9-1.1-3.2
		V93.3z M427.7,93.4c0,0.9,0.2,1.7,0.7,2.3c0.4,0.6,1,0.9,1.7,0.9c0.7,0,1.3-0.3,1.8-0.9c0.4-0.6,0.6-1.4,0.6-2.4
		c0-0.9-0.2-1.7-0.7-2.3c-0.4-0.6-1-0.9-1.8-0.9c-0.7,0-1.3,0.3-1.7,0.9S427.7,92.4,427.7,93.4z"/>
	<path class="st4" d="M437.2,89.1l0,1.1c0.6-0.8,1.5-1.2,2.5-1.2c1.8,0,2.7,1,2.7,3v5.6H441V92c0-0.6-0.1-1.1-0.4-1.4
		s-0.7-0.4-1.3-0.4c-0.5,0-0.9,0.1-1.2,0.4c-0.4,0.2-0.6,0.6-0.8,1v6h-1.4v-8.5H437.2z"/>
	<path class="st4" d="M444.6,86.9c0-0.2,0.1-0.4,0.2-0.6c0.1-0.2,0.4-0.2,0.6-0.2s0.5,0.1,0.6,0.2c0.1,0.2,0.2,0.4,0.2,0.6
		s-0.1,0.4-0.2,0.6c-0.1,0.2-0.4,0.2-0.6,0.2s-0.5-0.1-0.6-0.2C444.7,87.3,444.6,87.1,444.6,86.9z M446.2,97.6h-1.4v-8.5h1.4V97.6z"
		/>
	<path class="st4" d="M450.5,87.1v2h1.6v1.1h-1.6v5.2c0,0.3,0.1,0.6,0.2,0.8c0.1,0.2,0.4,0.3,0.7,0.3c0.2,0,0.4,0,0.7-0.1v1.2
		c-0.4,0.1-0.8,0.2-1.1,0.2c-0.6,0-1.1-0.2-1.5-0.6s-0.5-0.9-0.5-1.7v-5.2h-1.5v-1.1h1.5v-2H450.5z"/>
	<path class="st4" d="M453.2,93.3c0-0.8,0.2-1.6,0.5-2.2c0.3-0.7,0.8-1.2,1.4-1.5c0.6-0.4,1.2-0.5,2-0.5c1.2,0,2.1,0.4,2.8,1.2
		s1.1,1.9,1.1,3.2v0.1c0,0.8-0.2,1.6-0.5,2.2c-0.3,0.7-0.8,1.2-1.4,1.5s-1.3,0.5-2,0.5c-1.1,0-2.1-0.4-2.8-1.2s-1.1-1.9-1.1-3.2
		V93.3z M454.6,93.4c0,0.9,0.2,1.7,0.7,2.3c0.4,0.6,1,0.9,1.7,0.9c0.7,0,1.3-0.3,1.8-0.9c0.4-0.6,0.6-1.4,0.6-2.4
		c0-0.9-0.2-1.7-0.7-2.3c-0.4-0.6-1-0.9-1.8-0.9c-0.7,0-1.3,0.3-1.7,0.9S454.6,92.4,454.6,93.4z"/>
	<path class="st4" d="M466.8,90.4c-0.2,0-0.5-0.1-0.7-0.1c-0.9,0-1.6,0.4-1.9,1.2v6h-1.4v-8.5h1.4l0,1c0.5-0.8,1.1-1.1,2-1.1
		c0.3,0,0.5,0,0.6,0.1V90.4z"/>
	<path class="st4" d="M468.1,86.9c0-0.2,0.1-0.4,0.2-0.6c0.1-0.2,0.4-0.2,0.6-0.2s0.5,0.1,0.6,0.2c0.1,0.2,0.2,0.4,0.2,0.6
		s-0.1,0.4-0.2,0.6c-0.1,0.2-0.4,0.2-0.6,0.2s-0.5-0.1-0.6-0.2C468.2,87.3,468.1,87.1,468.1,86.9z M469.7,97.6h-1.4v-8.5h1.4V97.6z"
		/>
	<path class="st4" d="M477.2,97.6c-0.1-0.2-0.2-0.5-0.2-0.9c-0.7,0.7-1.5,1-2.4,1c-0.8,0-1.5-0.2-2.1-0.7c-0.5-0.5-0.8-1.1-0.8-1.8
		c0-0.9,0.3-1.6,1-2.1c0.7-0.5,1.6-0.7,2.8-0.7h1.4v-0.7c0-0.5-0.2-0.9-0.5-1.2c-0.3-0.3-0.7-0.4-1.3-0.4c-0.5,0-0.9,0.1-1.3,0.4
		c-0.3,0.3-0.5,0.6-0.5,0.9h-1.5c0-0.4,0.2-0.8,0.4-1.2c0.3-0.4,0.7-0.7,1.2-0.9c0.5-0.2,1.1-0.3,1.7-0.3c1,0,1.7,0.2,2.3,0.7
		c0.6,0.5,0.8,1.2,0.9,2v3.9c0,0.8,0.1,1.4,0.3,1.9v0.1H477.2z M474.8,96.5c0.5,0,0.9-0.1,1.3-0.4s0.7-0.5,0.9-0.9v-1.7h-1.1
		c-1.8,0-2.7,0.5-2.7,1.6c0,0.5,0.2,0.8,0.5,1.1C474,96.4,474.3,96.5,474.8,96.5z"/>
	<path class="st4" d="M484.3,93.3c0-1.3,0.3-2.3,0.9-3.1c0.6-0.8,1.4-1.2,2.4-1.2c1,0,1.8,0.3,2.4,1v-4.4h1.4v12h-1.3l-0.1-0.9
		c-0.6,0.7-1.4,1.1-2.4,1.1c-1,0-1.8-0.4-2.4-1.2s-0.9-1.8-0.9-3.1V93.3z M485.8,93.4c0,1,0.2,1.7,0.6,2.2c0.4,0.5,0.9,0.8,1.6,0.8
		c0.9,0,1.6-0.4,2-1.2v-3.9c-0.4-0.8-1.1-1.2-2-1.2c-0.7,0-1.3,0.3-1.7,0.8C486,91.6,485.8,92.4,485.8,93.4z"/>
	<path class="st4" d="M497.2,97.7c-1.1,0-2.1-0.4-2.8-1.1s-1.1-1.8-1.1-3v-0.3c0-0.8,0.2-1.6,0.5-2.2s0.8-1.2,1.3-1.5
		c0.6-0.4,1.2-0.6,1.9-0.6c1.1,0,2,0.4,2.6,1.1s0.9,1.8,0.9,3.1v0.6h-5.7c0,0.8,0.3,1.5,0.7,2c0.5,0.5,1.1,0.8,1.8,0.8
		c0.5,0,0.9-0.1,1.3-0.3c0.4-0.2,0.7-0.5,0.9-0.8l0.9,0.7C499.7,97.2,498.6,97.7,497.2,97.7z M497,90.2c-0.6,0-1.1,0.2-1.5,0.6
		c-0.4,0.4-0.6,1-0.7,1.8h4.2v-0.1c0-0.7-0.2-1.3-0.6-1.7C498.1,90.4,497.6,90.2,497,90.2z"/>
	<path class="st4" d="M503.7,97.6h-1.4v-12h1.4V97.6z"/>
	<path class="st4" d="M509.7,93.3c0-1.3,0.3-2.3,0.9-3.1c0.6-0.8,1.4-1.2,2.4-1.2c1,0,1.8,0.3,2.4,1v-4.4h1.4v12h-1.3l-0.1-0.9
		c-0.6,0.7-1.4,1.1-2.4,1.1c-1,0-1.8-0.4-2.4-1.2s-0.9-1.8-0.9-3.1V93.3z M511.1,93.4c0,1,0.2,1.7,0.6,2.2c0.4,0.5,0.9,0.8,1.6,0.8
		c0.9,0,1.6-0.4,2-1.2v-3.9c-0.4-0.8-1.1-1.2-2-1.2c-0.7,0-1.3,0.3-1.7,0.8C511.3,91.6,511.1,92.4,511.1,93.4z"/>
	<path class="st4" d="M522.5,97.7c-1.1,0-2.1-0.4-2.8-1.1s-1.1-1.8-1.1-3v-0.3c0-0.8,0.2-1.6,0.5-2.2s0.8-1.2,1.3-1.5
		c0.6-0.4,1.2-0.6,1.9-0.6c1.1,0,2,0.4,2.6,1.1s0.9,1.8,0.9,3.1v0.6h-5.7c0,0.8,0.3,1.5,0.7,2c0.5,0.5,1.1,0.8,1.8,0.8
		c0.5,0,0.9-0.1,1.3-0.3c0.4-0.2,0.7-0.5,0.9-0.8l0.9,0.7C525,97.2,524,97.7,522.5,97.7z M522.4,90.2c-0.6,0-1.1,0.2-1.5,0.6
		c-0.4,0.4-0.6,1-0.7,1.8h4.2v-0.1c0-0.7-0.2-1.3-0.6-1.7C523.4,90.4,523,90.2,522.4,90.2z"/>
	<path class="st4" d="M532.4,95.3c0-0.4-0.1-0.7-0.4-0.9c-0.3-0.2-0.8-0.4-1.5-0.6c-0.7-0.2-1.3-0.3-1.7-0.6s-0.7-0.5-1-0.8
		c-0.2-0.3-0.3-0.7-0.3-1.1c0-0.7,0.3-1.3,0.9-1.8s1.3-0.7,2.2-0.7c1,0,1.7,0.2,2.3,0.7c0.6,0.5,0.9,1.1,0.9,1.9h-1.5
		c0-0.4-0.2-0.7-0.5-1s-0.8-0.4-1.3-0.4c-0.5,0-0.9,0.1-1.2,0.3s-0.4,0.5-0.4,0.9c0,0.3,0.1,0.6,0.4,0.8c0.3,0.2,0.8,0.3,1.5,0.5
		c0.7,0.2,1.3,0.4,1.8,0.6c0.4,0.2,0.8,0.5,1,0.8c0.2,0.3,0.3,0.7,0.3,1.2c0,0.8-0.3,1.4-0.9,1.8c-0.6,0.5-1.4,0.7-2.4,0.7
		c-0.7,0-1.3-0.1-1.8-0.4c-0.5-0.2-0.9-0.6-1.2-1c-0.3-0.4-0.4-0.9-0.4-1.4h1.4c0,0.5,0.2,0.9,0.6,1.2c0.4,0.3,0.8,0.4,1.4,0.4
		c0.5,0,1-0.1,1.3-0.3C532.3,96,532.4,95.7,532.4,95.3z"/>
	<path class="st4" d="M539.3,97.7c-1.1,0-2.1-0.4-2.8-1.1s-1.1-1.8-1.1-3v-0.3c0-0.8,0.2-1.6,0.5-2.2s0.8-1.2,1.3-1.5
		c0.6-0.4,1.2-0.6,1.9-0.6c1.1,0,2,0.4,2.6,1.1s0.9,1.8,0.9,3.1v0.6h-5.7c0,0.8,0.3,1.5,0.7,2c0.5,0.5,1.1,0.8,1.8,0.8
		c0.5,0,0.9-0.1,1.3-0.3c0.4-0.2,0.7-0.5,0.9-0.8l0.9,0.7C541.7,97.2,540.7,97.7,539.3,97.7z M539.1,90.2c-0.6,0-1.1,0.2-1.5,0.6
		c-0.4,0.4-0.6,1-0.7,1.8h4.2v-0.1c0-0.7-0.2-1.3-0.6-1.7C540.2,90.4,539.7,90.2,539.1,90.2z"/>
	<path class="st4" d="M545.6,89.1l0,0.9c0.6-0.7,1.5-1.1,2.5-1.1c1.2,0,2,0.5,2.4,1.4c0.3-0.4,0.6-0.7,1.1-1c0.5-0.2,1-0.4,1.6-0.4
		c1.9,0,2.8,1,2.8,2.9v5.7h-1.4V92c0-0.6-0.1-1.1-0.4-1.4c-0.3-0.3-0.7-0.4-1.4-0.4c-0.5,0-1,0.2-1.3,0.5c-0.4,0.3-0.6,0.8-0.6,1.3
		v5.6h-1.5V92c0-1.2-0.6-1.8-1.8-1.8c-0.9,0-1.6,0.4-1.9,1.2v6.2h-1.4v-8.5H545.6z"/>
	<path class="st4" d="M565.4,93.4c0,1.3-0.3,2.3-0.9,3.1c-0.6,0.8-1.4,1.2-2.4,1.2c-1,0-1.8-0.3-2.4-1v4.1h-1.4V89.1h1.3l0.1,0.9
		c0.6-0.7,1.4-1.1,2.5-1.1c1,0,1.8,0.4,2.4,1.1c0.6,0.8,0.9,1.8,0.9,3.2V93.4z M563.9,93.3c0-1-0.2-1.7-0.6-2.3s-1-0.8-1.7-0.8
		c-0.9,0-1.5,0.4-2,1.2v4c0.4,0.8,1.1,1.2,2,1.2c0.7,0,1.2-0.3,1.7-0.8C563.7,95.2,563.9,94.4,563.9,93.3z"/>
	<path class="st4" d="M570.7,97.7c-1.1,0-2.1-0.4-2.8-1.1s-1.1-1.8-1.1-3v-0.3c0-0.8,0.2-1.6,0.5-2.2s0.8-1.2,1.3-1.5
		c0.6-0.4,1.2-0.6,1.9-0.6c1.1,0,2,0.4,2.6,1.1s0.9,1.8,0.9,3.1v0.6h-5.7c0,0.8,0.3,1.5,0.7,2c0.5,0.5,1.1,0.8,1.8,0.8
		c0.5,0,0.9-0.1,1.3-0.3c0.4-0.2,0.7-0.5,0.9-0.8l0.9,0.7C573.2,97.2,572.2,97.7,570.7,97.7z M570.6,90.2c-0.6,0-1.1,0.2-1.5,0.6
		c-0.4,0.4-0.6,1-0.7,1.8h4.2v-0.1c0-0.7-0.2-1.3-0.6-1.7C571.6,90.4,571.2,90.2,570.6,90.2z"/>
	<path class="st4" d="M577.1,89.1l0,1.1c0.6-0.8,1.5-1.2,2.5-1.2c1.8,0,2.7,1,2.7,3v5.6h-1.4V92c0-0.6-0.1-1.1-0.4-1.4
		s-0.7-0.4-1.3-0.4c-0.5,0-0.9,0.1-1.2,0.4c-0.4,0.2-0.6,0.6-0.8,1v6h-1.4v-8.5H577.1z M581.9,85.8c0,0.6-0.2,1-0.5,1.4
		s-0.7,0.5-1.2,0.5c-0.2,0-0.4,0-0.6-0.1s-0.4-0.2-0.6-0.3c-0.3-0.2-0.4-0.3-0.5-0.3c-0.1,0-0.2-0.1-0.4-0.1c-0.2,0-0.4,0.1-0.5,0.2
		c-0.2,0.2-0.2,0.4-0.2,0.6l-1-0.1c0-0.6,0.2-1,0.5-1.4c0.3-0.4,0.7-0.5,1.2-0.5c0.2,0,0.3,0,0.5,0.1c0.1,0.1,0.3,0.2,0.6,0.3
		s0.4,0.2,0.6,0.3s0.3,0.1,0.4,0.1c0.2,0,0.4-0.1,0.6-0.3s0.2-0.4,0.2-0.6L581.9,85.8z"/>
	<path class="st4" d="M584.2,93.3c0-0.8,0.2-1.6,0.5-2.2c0.3-0.7,0.8-1.2,1.4-1.5c0.6-0.4,1.2-0.5,2-0.5c1.2,0,2.1,0.4,2.8,1.2
		s1.1,1.9,1.1,3.2v0.1c0,0.8-0.2,1.6-0.5,2.2c-0.3,0.7-0.8,1.2-1.4,1.5s-1.3,0.5-2,0.5c-1.1,0-2.1-0.4-2.8-1.2s-1.1-1.9-1.1-3.2
		V93.3z M585.6,93.4c0,0.9,0.2,1.7,0.7,2.3c0.4,0.6,1,0.9,1.7,0.9c0.7,0,1.3-0.3,1.8-0.9c0.4-0.6,0.6-1.4,0.6-2.4
		c0-0.9-0.2-1.7-0.7-2.3c-0.4-0.6-1-0.9-1.8-0.9c-0.7,0-1.3,0.3-1.7,0.9S585.6,92.4,585.6,93.4z"/>
	<path class="st4" d="M597,93c0,1.2-0.2,2.3-0.5,3.3s-0.8,2-1.4,2.9c-0.6,0.9-1.3,1.5-2,1.9l-0.3-0.9c0.8-0.6,1.4-1.6,1.9-2.9
		c0.5-1.3,0.7-2.7,0.7-4.3v-0.2c0-1.1-0.1-2.1-0.3-3.1c-0.2-0.9-0.5-1.8-1-2.5c-0.4-0.7-0.9-1.3-1.4-1.7l0.3-0.9
		c0.7,0.4,1.3,1,2,1.9c0.6,0.9,1.1,1.9,1.4,2.9C596.8,90.7,597,91.8,597,93z"/>
</g>
<g class="st2">
	<path class="st4" d="M372.3,233.6h-1.5v-11.4h1.5V233.6z"/>
	<path class="st4" d="M376.2,225.1l0,1.1c0.6-0.8,1.5-1.2,2.5-1.2c1.8,0,2.7,1,2.7,3v5.6H380V228c0-0.6-0.1-1.1-0.4-1.4
		c-0.3-0.3-0.7-0.4-1.3-0.4c-0.5,0-0.9,0.1-1.2,0.4c-0.4,0.2-0.6,0.6-0.8,1v6h-1.4v-8.5H376.2z"/>
	<path class="st4" d="M386.5,231.6l2.1-6.5h1.5l-3,8.5h-1.1l-3.1-8.5h1.5L386.5,231.6z"/>
	<path class="st4" d="M394.9,233.7c-1.1,0-2.1-0.4-2.8-1.1c-0.7-0.8-1.1-1.8-1.1-3v-0.3c0-0.8,0.2-1.6,0.5-2.2
		c0.3-0.7,0.8-1.2,1.3-1.5c0.6-0.4,1.2-0.6,1.9-0.6c1.1,0,2,0.4,2.6,1.1c0.6,0.7,0.9,1.8,0.9,3.1v0.6h-5.7c0,0.8,0.3,1.5,0.7,2
		c0.5,0.5,1.1,0.8,1.8,0.8c0.5,0,0.9-0.1,1.3-0.3c0.4-0.2,0.7-0.5,0.9-0.8l0.9,0.7C397.4,233.2,396.3,233.7,394.9,233.7z
		 M394.7,226.2c-0.6,0-1.1,0.2-1.5,0.6c-0.4,0.4-0.6,1-0.7,1.8h4.2v-0.1c0-0.7-0.2-1.3-0.6-1.7C395.8,226.4,395.3,226.2,394.7,226.2
		z"/>
	<path class="st4" d="M404.8,231.3c0-0.4-0.1-0.7-0.4-0.9c-0.3-0.2-0.8-0.4-1.5-0.6c-0.7-0.2-1.3-0.3-1.7-0.6s-0.7-0.5-1-0.8
		c-0.2-0.3-0.3-0.7-0.3-1.1c0-0.7,0.3-1.3,0.9-1.8c0.6-0.5,1.3-0.7,2.2-0.7c1,0,1.7,0.2,2.3,0.7c0.6,0.5,0.9,1.1,0.9,1.9h-1.5
		c0-0.4-0.2-0.7-0.5-1c-0.3-0.3-0.8-0.4-1.3-0.4c-0.5,0-0.9,0.1-1.2,0.3c-0.3,0.2-0.4,0.5-0.4,0.9c0,0.3,0.1,0.6,0.4,0.8
		c0.3,0.2,0.8,0.3,1.5,0.5c0.7,0.2,1.3,0.4,1.8,0.6c0.4,0.2,0.8,0.5,1,0.8c0.2,0.3,0.3,0.7,0.3,1.2c0,0.8-0.3,1.4-0.9,1.8
		c-0.6,0.5-1.4,0.7-2.4,0.7c-0.7,0-1.3-0.1-1.8-0.4c-0.5-0.2-0.9-0.6-1.2-1c-0.3-0.4-0.4-0.9-0.4-1.4h1.4c0,0.5,0.2,0.9,0.6,1.2
		c0.4,0.3,0.8,0.4,1.4,0.4c0.5,0,1-0.1,1.3-0.3C404.6,232,404.8,231.7,404.8,231.3z"/>
	<path class="st4" d="M410.1,223.1v2h1.6v1.1h-1.6v5.2c0,0.3,0.1,0.6,0.2,0.8c0.1,0.2,0.4,0.3,0.7,0.3c0.2,0,0.4,0,0.7-0.1v1.2
		c-0.4,0.1-0.8,0.2-1.1,0.2c-0.6,0-1.1-0.2-1.5-0.6s-0.5-0.9-0.5-1.7v-5.2h-1.5v-1.1h1.5v-2H410.1z"/>
	<path class="st4" d="M413.4,222.9c0-0.2,0.1-0.4,0.2-0.6c0.1-0.2,0.4-0.2,0.6-0.2s0.5,0.1,0.6,0.2c0.1,0.2,0.2,0.4,0.2,0.6
		s-0.1,0.4-0.2,0.6c-0.1,0.2-0.4,0.2-0.6,0.2s-0.5-0.1-0.6-0.2C413.4,223.3,413.4,223.1,413.4,222.9z M414.9,233.6h-1.4v-8.5h1.4
		V233.6z"/>
	<path class="st4" d="M416.9,229.3c0-1.3,0.3-2.4,0.9-3.1c0.6-0.8,1.4-1.2,2.4-1.2c1,0,1.8,0.4,2.4,1.1l0.1-0.9h1.3v8.2
		c0,1.1-0.3,2-1,2.6c-0.6,0.6-1.5,0.9-2.6,0.9c-0.6,0-1.2-0.1-1.8-0.4c-0.6-0.3-1-0.6-1.3-1.1l0.8-0.9c0.6,0.8,1.4,1.1,2.3,1.1
		c0.7,0,1.3-0.2,1.6-0.6c0.4-0.4,0.6-1,0.6-1.7v-0.7c-0.6,0.7-1.4,1-2.4,1c-1,0-1.8-0.4-2.4-1.2
		C417.2,231.7,416.9,230.7,416.9,229.3z M418.4,229.4c0,1,0.2,1.7,0.6,2.2c0.4,0.5,0.9,0.8,1.6,0.8c0.9,0,1.6-0.4,2-1.2v-3.9
		c-0.4-0.8-1.1-1.2-2-1.2c-0.7,0-1.3,0.3-1.6,0.8C418.6,227.6,418.4,228.4,418.4,229.4z"/>
	<path class="st4" d="M431.4,233.6c-0.1-0.2-0.2-0.5-0.2-0.9c-0.7,0.7-1.5,1-2.4,1c-0.8,0-1.5-0.2-2.1-0.7c-0.5-0.5-0.8-1.1-0.8-1.8
		c0-0.9,0.3-1.6,1-2.1c0.7-0.5,1.6-0.7,2.8-0.7h1.4v-0.7c0-0.5-0.2-0.9-0.5-1.2c-0.3-0.3-0.7-0.4-1.3-0.4c-0.5,0-0.9,0.1-1.3,0.4
		c-0.3,0.3-0.5,0.6-0.5,0.9h-1.5c0-0.4,0.1-0.8,0.4-1.2c0.3-0.4,0.7-0.7,1.2-0.9c0.5-0.2,1.1-0.3,1.7-0.3c1,0,1.7,0.2,2.3,0.7
		c0.6,0.5,0.8,1.2,0.9,2v3.9c0,0.8,0.1,1.4,0.3,1.9v0.1H431.4z M429,232.5c0.5,0,0.9-0.1,1.3-0.4s0.7-0.5,0.9-0.9v-1.7h-1.1
		c-1.8,0-2.7,0.5-2.7,1.6c0,0.5,0.2,0.8,0.5,1.1C428.2,232.4,428.6,232.5,429,232.5z"/>
	<path class="st4" d="M438.3,232.6c0.5,0,1-0.2,1.4-0.5c0.4-0.3,0.6-0.7,0.6-1.2h1.4c0,0.5-0.2,0.9-0.5,1.4c-0.3,0.4-0.7,0.8-1.2,1
		c-0.5,0.3-1.1,0.4-1.6,0.4c-1.2,0-2.1-0.4-2.7-1.2c-0.7-0.8-1-1.8-1-3.2v-0.2c0-0.8,0.2-1.6,0.5-2.2c0.3-0.6,0.7-1.1,1.3-1.5
		c0.6-0.4,1.2-0.5,2-0.5c0.9,0,1.7,0.3,2.4,0.9c0.6,0.6,1,1.3,1,2.2h-1.4c0-0.5-0.2-1-0.6-1.3c-0.4-0.4-0.8-0.5-1.4-0.5
		c-0.7,0-1.3,0.3-1.7,0.8c-0.4,0.5-0.6,1.3-0.6,2.3v0.3c0,1,0.2,1.7,0.6,2.2C437,232.3,437.6,232.6,438.3,232.6z"/>
	<path class="st4" d="M443.3,222.9c0-0.2,0.1-0.4,0.2-0.6c0.1-0.2,0.4-0.2,0.6-0.2s0.5,0.1,0.6,0.2c0.1,0.2,0.2,0.4,0.2,0.6
		s-0.1,0.4-0.2,0.6c-0.1,0.2-0.4,0.2-0.6,0.2s-0.5-0.1-0.6-0.2C443.4,223.3,443.3,223.1,443.3,222.9z M444.9,233.6h-1.4v-8.5h1.4
		V233.6z"/>
	<path class="st4" d="M446.8,229.3c0-0.8,0.2-1.6,0.5-2.2c0.3-0.7,0.8-1.2,1.4-1.5c0.6-0.4,1.2-0.5,2-0.5c1.2,0,2.1,0.4,2.8,1.2
		s1.1,1.9,1.1,3.2v0.1c0,0.8-0.2,1.6-0.5,2.2c-0.3,0.7-0.8,1.2-1.4,1.5c-0.6,0.4-1.3,0.5-2,0.5c-1.1,0-2.1-0.4-2.8-1.2
		s-1.1-1.9-1.1-3.2V229.3z M448.3,229.4c0,0.9,0.2,1.7,0.7,2.3c0.4,0.6,1,0.9,1.7,0.9c0.7,0,1.3-0.3,1.8-0.9
		c0.4-0.6,0.6-1.4,0.6-2.4c0-0.9-0.2-1.7-0.7-2.3c-0.4-0.6-1-0.9-1.8-0.9c-0.7,0-1.3,0.3-1.7,0.9
		C448.5,227.6,448.3,228.4,448.3,229.4z M451.3,221.6h1.8l-2.1,2.3l-1.2,0L451.3,221.6z"/>
	<path class="st4" d="M457.7,225.1l0,1.1c0.6-0.8,1.5-1.2,2.5-1.2c1.8,0,2.7,1,2.7,3v5.6h-1.4V228c0-0.6-0.1-1.1-0.4-1.4
		c-0.3-0.3-0.7-0.4-1.3-0.4c-0.5,0-0.9,0.1-1.2,0.4c-0.4,0.2-0.6,0.6-0.8,1v6h-1.4v-8.5H457.7z"/>
	<path class="st4" d="M472.5,232.6c0.5,0,1-0.2,1.4-0.5c0.4-0.3,0.6-0.7,0.6-1.2h1.4c0,0.5-0.2,0.9-0.5,1.4c-0.3,0.4-0.7,0.8-1.2,1
		c-0.5,0.3-1.1,0.4-1.6,0.4c-1.2,0-2.1-0.4-2.7-1.2c-0.7-0.8-1-1.8-1-3.2v-0.2c0-0.8,0.2-1.6,0.5-2.2c0.3-0.6,0.7-1.1,1.3-1.5
		c0.6-0.4,1.2-0.5,2-0.5c0.9,0,1.7,0.3,2.4,0.9c0.6,0.6,1,1.3,1,2.2h-1.4c0-0.5-0.2-1-0.6-1.3c-0.4-0.4-0.8-0.5-1.4-0.5
		c-0.7,0-1.3,0.3-1.7,0.8c-0.4,0.5-0.6,1.3-0.6,2.3v0.3c0,1,0.2,1.7,0.6,2.2C471.2,232.3,471.7,232.6,472.5,232.6z"/>
	<path class="st4" d="M482.7,233.6c-0.1-0.2-0.2-0.5-0.2-0.9c-0.7,0.7-1.5,1-2.4,1c-0.8,0-1.5-0.2-2.1-0.7c-0.5-0.5-0.8-1.1-0.8-1.8
		c0-0.9,0.3-1.6,1-2.1c0.7-0.5,1.6-0.7,2.8-0.7h1.4v-0.7c0-0.5-0.2-0.9-0.5-1.2c-0.3-0.3-0.7-0.4-1.3-0.4c-0.5,0-0.9,0.1-1.3,0.4
		c-0.3,0.3-0.5,0.6-0.5,0.9h-1.5c0-0.4,0.1-0.8,0.4-1.2c0.3-0.4,0.7-0.7,1.2-0.9c0.5-0.2,1.1-0.3,1.7-0.3c1,0,1.7,0.2,2.3,0.7
		c0.6,0.5,0.8,1.2,0.9,2v3.9c0,0.8,0.1,1.4,0.3,1.9v0.1H482.7z M480.3,232.5c0.5,0,0.9-0.1,1.3-0.4s0.7-0.5,0.9-0.9v-1.7h-1.1
		c-1.8,0-2.7,0.5-2.7,1.6c0,0.5,0.2,0.8,0.5,1.1C479.4,232.4,479.8,232.5,480.3,232.5z"/>
	<path class="st4" d="M491.1,231.3c0-0.4-0.1-0.7-0.4-0.9c-0.3-0.2-0.8-0.4-1.5-0.6c-0.7-0.2-1.3-0.3-1.7-0.6s-0.7-0.5-1-0.8
		c-0.2-0.3-0.3-0.7-0.3-1.1c0-0.7,0.3-1.3,0.9-1.8c0.6-0.5,1.3-0.7,2.2-0.7c1,0,1.7,0.2,2.3,0.7c0.6,0.5,0.9,1.1,0.9,1.9H491
		c0-0.4-0.2-0.7-0.5-1c-0.3-0.3-0.8-0.4-1.3-0.4c-0.5,0-0.9,0.1-1.2,0.3c-0.3,0.2-0.4,0.5-0.4,0.9c0,0.3,0.1,0.6,0.4,0.8
		c0.3,0.2,0.8,0.3,1.5,0.5c0.7,0.2,1.3,0.4,1.8,0.6c0.4,0.2,0.8,0.5,1,0.8c0.2,0.3,0.3,0.7,0.3,1.2c0,0.8-0.3,1.4-0.9,1.8
		c-0.6,0.5-1.4,0.7-2.4,0.7c-0.7,0-1.3-0.1-1.8-0.4c-0.5-0.2-0.9-0.6-1.2-1c-0.3-0.4-0.4-0.9-0.4-1.4h1.4c0,0.5,0.2,0.9,0.6,1.2
		c0.4,0.3,0.8,0.4,1.4,0.4c0.5,0,1-0.1,1.3-0.3C490.9,232,491.1,231.7,491.1,231.3z"/>
	<path class="st4" d="M499.6,232.7c-0.6,0.7-1.4,1-2.5,1c-0.9,0-1.6-0.3-2.1-0.8c-0.5-0.5-0.7-1.3-0.7-2.3v-5.5h1.4v5.5
		c0,1.3,0.5,1.9,1.6,1.9c1.1,0,1.8-0.4,2.2-1.2v-6.1h1.4v8.5h-1.4L499.6,232.7z"/>
	<path class="st4" d="M508.5,233.6c-0.1-0.2-0.2-0.5-0.2-0.9c-0.7,0.7-1.5,1-2.4,1c-0.8,0-1.5-0.2-2.1-0.7c-0.5-0.5-0.8-1.1-0.8-1.8
		c0-0.9,0.3-1.6,1-2.1c0.7-0.5,1.6-0.7,2.8-0.7h1.4v-0.7c0-0.5-0.2-0.9-0.5-1.2c-0.3-0.3-0.7-0.4-1.3-0.4c-0.5,0-0.9,0.1-1.3,0.4
		c-0.3,0.3-0.5,0.6-0.5,0.9h-1.5c0-0.4,0.1-0.8,0.4-1.2c0.3-0.4,0.7-0.7,1.2-0.9c0.5-0.2,1.1-0.3,1.7-0.3c1,0,1.7,0.2,2.3,0.7
		c0.6,0.5,0.8,1.2,0.9,2v3.9c0,0.8,0.1,1.4,0.3,1.9v0.1H508.5z M506.1,232.5c0.5,0,0.9-0.1,1.3-0.4s0.7-0.5,0.9-0.9v-1.7h-1.1
		c-1.8,0-2.7,0.5-2.7,1.6c0,0.5,0.2,0.8,0.5,1.1C505.2,232.4,505.6,232.5,506.1,232.5z"/>
	<path class="st4" d="M513.5,233.6h-1.4v-12h1.4V233.6z"/>
</g>
<path id="Trazado_125578" class="st5" d="M264.1,59.8H220v166h44.1"/>
<line id="Línea_171" class="st5" x1="200" y1="142.6" x2="220" y2="142.6"/>
</svg>
